ISO-10303-21;
HEADER;

/* File generated by HOOPS Exchange Version 25.8.0 */

FILE_DESCRIPTION(('HOOPS Exchange Step'),'2;1');

FILE_NAME('/home/tfannes/prints/260619_sg90_horn/horn_a.step',
'2026-06-19T11:41:35+02:00',
('tfannes'),
('Unknown organisation'),
'HOOPS Exchange 2025.8',
'HOOPS Exchange',
'Unknown authorisation');

FILE_SCHEMA( ('AP203_CONFIGURATION_CONTROLLED_3D_DESIGN_OF_MECHANICAL_PARTS_AND_ASSEMBLIES_MIM_LF') );

ENDSEC;

DATA;
#3=(NAMED_UNIT(*)PLANE_ANGLE_UNIT()SI_UNIT($,.RADIAN.));
#4=PLANE_ANGLE_MEASURE_WITH_UNIT(PLANE_ANGLE_MEASURE(0.0174532925),#3);
#5=(CONVERSION_BASED_UNIT('DEGREE',#4)NAMED_UNIT(#6)PLANE_ANGLE_UNIT());
#6=DIMENSIONAL_EXPONENTS(0.,0.,0.,0.,0.,0.,0.);
#7=(NAMED_UNIT(*)SI_UNIT($,.STERADIAN.)SOLID_ANGLE_UNIT());
#8=(LENGTH_UNIT()NAMED_UNIT(*)SI_UNIT(.MILLI.,.METRE.));
#9=UNCERTAINTY_MEASURE_WITH_UNIT(LENGTH_MEASURE(1.000000E-03),#8,'DISTANCE_ACCURACY_VALUE','Maximum Tolerance applied to model');
#10=(GEOMETRIC_REPRESENTATION_CONTEXT(3)GLOBAL_UNCERTAINTY_ASSIGNED_CONTEXT((#9))GLOBAL_UNIT_ASSIGNED_CONTEXT((#8,#5,#7))REPRESENTATION_CONTEXT('','root'));
#12=CARTESIAN_POINT('',(0.,0.,0.));
#13=DIRECTION('',(0.,0.,1.));
#14=DIRECTION('',(1.,0.,0.));
#15=AXIS2_PLACEMENT_3D('TS3D_PRODUCT_CSYS',#12,#13,#14);
#26=CARTESIAN_POINT('',(-1.060905119,2.805531025,0.));
#27=CARTESIAN_POINT('',(-2.04021729,2.435206375,0.));
#28=CARTESIAN_POINT('',(-2.874127405,1.680298608,0.));
#29=CARTESIAN_POINT('',(-3.389902458,0.606108138,0.));
#30=CARTESIAN_POINT('',(-3.449573861,-0.631816279,0.));
#31=CARTESIAN_POINT('',(-3.004507775,-1.808779882,0.));
#32=CARTESIAN_POINT('',(-2.140659192,-2.697477336,0.));
#33=CARTESIAN_POINT('',(-1.043168815,-3.161615185,0.));
#34=CARTESIAN_POINT('',(0.081592948,-3.175855675,0.));
#35=CARTESIAN_POINT('',(1.060905119,-2.805531025,0.));
#36=CARTESIAN_POINT('',(2.04021729,-2.435206375,0.));
#37=CARTESIAN_POINT('',(2.874127405,-1.680298608,0.));
#38=CARTESIAN_POINT('',(3.389902458,-0.606108138,0.));
#39=CARTESIAN_POINT('',(3.449573861,0.631816279,0.));
#40=CARTESIAN_POINT('',(3.004507775,1.808779882,0.));
#41=CARTESIAN_POINT('',(2.140659192,2.697477336,0.));
#42=CARTESIAN_POINT('',(1.043168815,3.161615185,0.));
#43=CARTESIAN_POINT('',(-0.081592948,3.175855675,0.));
#44=CARTESIAN_POINT('',(-1.060905119,2.805531025,0.));
#45=B_SPLINE_CURVE_WITH_KNOTS('Circle.008',9,(#26,#27,#28,#29,#30,#31,#32,#33,#34,#35,#36,#37,#38,#39,#40,#41,#42,#43,#44),.UNSPECIFIED.,.T.,.F.,(10,9,10),(0.,3.141592654,6.283185307),.UNSPECIFIED.);
#46=CARTESIAN_POINT('',(4.999456785,-3.390592287,2.5));
#47=CARTESIAN_POINT('',(4.999456785,3.390592287,2.5));
#48=B_SPLINE_CURVE_WITH_KNOTS('Line.004',1,(#46,#47),.UNSPECIFIED.,.F.,.F.,(2,2),(0.,0.006781185),.UNSPECIFIED.);
#50=CARTESIAN_POINT('',(-7.216878365,-6.25,0.));
#51=CARTESIAN_POINT('',(-7.216878365,6.25,0.));
#52=CARTESIAN_POINT('',(24.648250618,-6.25,0.));
#53=CARTESIAN_POINT('',(24.648250618,6.25,0.));
#54=B_SPLINE_SURFACE_WITH_KNOTS('',1,1,((#50,#51),(#52,#53)),.UNSPECIFIED.,.F.,.F.,.U.,(2,2),(2,2),(-0.007216878,0.024648251),(-0.00625,0.00625),.UNSPECIFIED.);
#55=CARTESIAN_POINT('',(0.318567963,-3.736562947,-0.));
#56=VERTEX_POINT('',#55);
#57=CARTESIAN_POINT('',(15.79164772,-2.592927199,0.));
#58=VERTEX_POINT('',#57);
#59=CARTESIAN_POINT('',(0.318567963,-3.736562947,0.));
#60=CARTESIAN_POINT('',(15.791647723,-2.592927235,0.));
#61=B_SPLINE_CURVE_WITH_KNOTS('',1,(#59,#60),.UNSPECIFIED.,.F.,.F.,(2,2),(0.000042278,0.015557564),.UNSPECIFIED.);
#62=EDGE_CURVE('',#56,#58,#61,.T.);
#63=ORIENTED_EDGE('',*,*,#62,.T.);
#64=CARTESIAN_POINT('',(15.79164772,2.592927236,0.));
#65=VERTEX_POINT('',#64);
#66=CARTESIAN_POINT('',(15.79164772,-2.592927199,0.));
#67=CARTESIAN_POINT('',(18.200001053,-2.414922631,0.));
#68=CARTESIAN_POINT('',(18.200001053,0.000000018,0.));
#69=CARTESIAN_POINT('',(18.200001053,2.414922668,0.));
#70=CARTESIAN_POINT('',(15.79164772,2.592927236,0.));
#71=(BOUNDED_CURVE()
B_SPLINE_CURVE(2,(#66,#67,#68,#69,#70),.UNSPECIFIED.,.F.,.F.)
B_SPLINE_CURVE_WITH_KNOTS((3,2,3),(3.510815479,5.007834638,6.504853798),.UNSPECIFIED.)
CURVE()
GEOMETRIC_REPRESENTATION_ITEM()
RATIONAL_B_SPLINE_CURVE((1.,0.732703984,1.,0.732703984,1.))
REPRESENTATION_ITEM(''));
#72=EDGE_CURVE('',#58,#65,#71,.T.);
#73=ORIENTED_EDGE('',*,*,#72,.T.);
#74=CARTESIAN_POINT('',(0.276404824,3.73967928,0.));
#75=VERTEX_POINT('',#74);
#76=CARTESIAN_POINT('',(0.276404824,3.73967928,0.));
#77=CARTESIAN_POINT('',(15.79164772,2.592927236,0.));
#78=B_SPLINE_CURVE_WITH_KNOTS('',1,(#76,#77),.UNSPECIFIED.,.F.,.F.,(2,2),(0.,0.015557564),.UNSPECIFIED.);
#79=EDGE_CURVE('',#75,#65,#78,.T.);
#80=ORIENTED_EDGE('',*,*,#79,.F.);
#81=CARTESIAN_POINT('',(-3.750008638,-0.000119591,0.));
#82=VERTEX_POINT('',#81);
#83=CARTESIAN_POINT('',(0.276404824,3.73967928,0.));
#84=CARTESIAN_POINT('',(-2.0168508,3.909176825,0.));
#85=CARTESIAN_POINT('',(-3.20784074,1.942124782,0.));
#86=CARTESIAN_POINT('',(-4.398830679,-0.024927261,0.));
#87=CARTESIAN_POINT('',(-3.185730364,-1.978421156,0.));
#88=CARTESIAN_POINT('',(-1.972630049,-3.931915052,0.));
#89=CARTESIAN_POINT('',(0.318567963,-3.736562947,0.));
#90=(BOUNDED_CURVE()
B_SPLINE_CURVE(2,(#83,#84,#85,#86,#87,#88,#89),.UNSPECIFIED.,.F.,.F.)
B_SPLINE_CURVE_WITH_KNOTS((3,2,2,3),(6.149440189,7.249582223,8.349724257,9.449866291),.UNSPECIFIED.)
CURVE()
GEOMETRIC_REPRESENTATION_ITEM()
RATIONAL_B_SPLINE_CURVE((1.,0.8524874,1.,0.8524874,1.,0.8524874,1.))
REPRESENTATION_ITEM(''));
#91=EDGE_CURVE('',#75,#82,#90,.T.);
#92=ORIENTED_EDGE('',*,*,#91,.T.);
#93=CARTESIAN_POINT('',(0.276404824,3.73967928,0.));
#94=CARTESIAN_POINT('',(-2.0168508,3.909176825,0.));
#95=CARTESIAN_POINT('',(-3.20784074,1.942124782,0.));
#96=CARTESIAN_POINT('',(-4.398830679,-0.024927261,0.));
#97=CARTESIAN_POINT('',(-3.185730364,-1.978421156,0.));
#98=CARTESIAN_POINT('',(-1.972630049,-3.931915052,0.));
#99=CARTESIAN_POINT('',(0.318567963,-3.736562947,0.));
#100=(BOUNDED_CURVE()
B_SPLINE_CURVE(2,(#93,#94,#95,#96,#97,#98,#99),.UNSPECIFIED.,.F.,.F.)
B_SPLINE_CURVE_WITH_KNOTS((3,2,2,3),(6.149440189,7.249582223,8.349724257,9.449866291),.UNSPECIFIED.)
CURVE()
GEOMETRIC_REPRESENTATION_ITEM()
RATIONAL_B_SPLINE_CURVE((1.,0.8524874,1.,0.8524874,1.,0.8524874,1.))
REPRESENTATION_ITEM(''));
#101=EDGE_CURVE('',#82,#56,#100,.T.);
#102=ORIENTED_EDGE('',*,*,#101,.T.);
#103=EDGE_LOOP('',(#63,#73,#80,#92,#102));
#104=FACE_BOUND('',#103,.T.);
#105=CARTESIAN_POINT('',(-0.,6.25,0.));
#106=VERTEX_POINT('',#105);
#107=CARTESIAN_POINT('',(24.648250618,6.25,0.));
#108=VERTEX_POINT('',#107);
#109=CARTESIAN_POINT('',(-0.,6.25,0.));
#110=CARTESIAN_POINT('',(24.648250618,6.25,0.));
#111=B_SPLINE_CURVE_WITH_KNOTS('',1,(#109,#110),.UNSPECIFIED.,.F.,.F.,(2,2),(-0.,0.024648251),.UNSPECIFIED.);
#112=EDGE_CURVE('',#106,#108,#111,.T.);
#113=ORIENTED_EDGE('',*,*,#112,.T.);
#114=CARTESIAN_POINT('',(24.648250618,-6.25,0.));
#115=VERTEX_POINT('',#114);
#116=CARTESIAN_POINT('',(24.648250618,6.25,0.));
#117=CARTESIAN_POINT('',(18.740109615,5.917490409,0.));
#118=CARTESIAN_POINT('',(18.740109615,-0.,0.));
#119=CARTESIAN_POINT('',(18.740109615,-5.917490409,0.));
#120=CARTESIAN_POINT('',(24.648250618,-6.25,0.));
#121=(BOUNDED_CURVE()
B_SPLINE_CURVE(2,(#116,#117,#118,#119,#120),.UNSPECIFIED.,.F.,.F.)
B_SPLINE_CURVE_WITH_KNOTS((3,2,3),(6.283185307,7.797761041,9.312336775),.UNSPECIFIED.)
CURVE()
GEOMETRIC_REPRESENTATION_ITEM()
RATIONAL_B_SPLINE_CURVE((1.,0.726701789,1.,0.726701789,1.))
REPRESENTATION_ITEM(''));
#122=EDGE_CURVE('',#108,#115,#121,.T.);
#123=ORIENTED_EDGE('',*,*,#122,.T.);
#124=CARTESIAN_POINT('',(0.,-6.25,0.));
#125=VERTEX_POINT('',#124);
#126=CARTESIAN_POINT('',(24.648250618,-6.25,0.));
#127=CARTESIAN_POINT('',(0.,-6.25,0.));
#128=B_SPLINE_CURVE_WITH_KNOTS('',1,(#126,#127),.UNSPECIFIED.,.F.,.F.,(2,2),(0.000351749,0.025),.UNSPECIFIED.);
#129=EDGE_CURVE('',#115,#125,#128,.T.);
#130=ORIENTED_EDGE('',*,*,#129,.T.);
#131=CARTESIAN_POINT('',(0.,6.25,0.));
#132=CARTESIAN_POINT('',(-3.608439182,6.25,0.));
#133=CARTESIAN_POINT('',(-5.412658774,3.125,0.));
#134=CARTESIAN_POINT('',(-7.216878365,0.,0.));
#135=CARTESIAN_POINT('',(-5.412658774,-3.125,0.));
#136=CARTESIAN_POINT('',(-3.608439182,-6.25,0.));
#137=CARTESIAN_POINT('',(-0.,-6.25,0.));
#138=(BOUNDED_CURVE()
B_SPLINE_CURVE(2,(#131,#132,#133,#134,#135,#136,#137),.UNSPECIFIED.,.F.,.F.)
B_SPLINE_CURVE_WITH_KNOTS((3,2,2,3),(5.944031623,6.991229175,8.038426726,9.085624277),.UNSPECIFIED.)
CURVE()
GEOMETRIC_REPRESENTATION_ITEM()
RATIONAL_B_SPLINE_CURVE((1.,0.866025404,1.,0.866025404,1.,0.866025404,1.))
REPRESENTATION_ITEM(''));
#139=EDGE_CURVE('',#106,#125,#138,.T.);
#140=ORIENTED_EDGE('',*,*,#139,.F.);
#141=EDGE_LOOP('',(#113,#123,#130,#140));
#142=FACE_BOUND('',#141,.T.);
#143=ADVANCED_FACE('',(#104,#142),#54,.F.);
#144=CARTESIAN_POINT('',(0.,-6.25,4.));
#145=CARTESIAN_POINT('',(25.,-6.25,4.));
#146=CARTESIAN_POINT('',(0.,-6.25,0.));
#147=CARTESIAN_POINT('',(25.,-6.25,0.));
#148=B_SPLINE_SURFACE_WITH_KNOTS('',1,1,((#144,#145),(#146,#147)),.UNSPECIFIED.,.F.,.F.,.U.,(2,2),(2,2),(-0.001,0.003),(-0.025,0.),.UNSPECIFIED.);
#149=ORIENTED_EDGE('',*,*,#129,.F.);
#150=CARTESIAN_POINT('',(24.648250618,-6.25,0.875));
#151=VERTEX_POINT('',#150);
#152=CARTESIAN_POINT('',(24.648250618,-6.25,0.));
#153=CARTESIAN_POINT('',(24.648250618,-6.25,0.875));
#154=B_SPLINE_CURVE_WITH_KNOTS('',1,(#152,#153),.UNSPECIFIED.,.F.,.F.,(2,2),(0.,0.000875),.UNSPECIFIED.);
#155=EDGE_CURVE('',#115,#151,#154,.T.);
#156=ORIENTED_EDGE('',*,*,#155,.T.);
#157=CARTESIAN_POINT('',(25.,-6.25,0.875));
#158=VERTEX_POINT('',#157);
#159=CARTESIAN_POINT('',(25.,-6.25,0.875));
#160=CARTESIAN_POINT('',(24.648250618,-6.25,0.875));
#161=B_SPLINE_CURVE_WITH_KNOTS('',1,(#159,#160),.UNSPECIFIED.,.F.,.F.,(2,2),(0.,0.000351749),.UNSPECIFIED.);
#162=EDGE_CURVE('',#158,#151,#161,.T.);
#163=ORIENTED_EDGE('',*,*,#162,.F.);
#164=CARTESIAN_POINT('',(25.,-6.25,4.));
#165=VERTEX_POINT('',#164);
#166=CARTESIAN_POINT('',(25.,-6.25,4.));
#167=CARTESIAN_POINT('',(25.,-6.25,0.875));
#168=B_SPLINE_CURVE_WITH_KNOTS('',1,(#166,#167),.UNSPECIFIED.,.F.,.F.,(2,2),(-0.001,0.002125),.UNSPECIFIED.);
#169=EDGE_CURVE('',#165,#158,#168,.T.);
#170=ORIENTED_EDGE('',*,*,#169,.F.);
#171=CARTESIAN_POINT('',(0.,-6.25,4.));
#172=VERTEX_POINT('',#171);
#173=CARTESIAN_POINT('',(25.,-6.25,4.));
#174=CARTESIAN_POINT('',(0.,-6.25,4.));
#175=B_SPLINE_CURVE_WITH_KNOTS('',1,(#173,#174),.UNSPECIFIED.,.F.,.F.,(2,2),(0.,0.025),.UNSPECIFIED.);
#176=EDGE_CURVE('',#165,#172,#175,.T.);
#177=ORIENTED_EDGE('',*,*,#176,.T.);
#178=CARTESIAN_POINT('',(0.,-6.25,4.));
#179=CARTESIAN_POINT('',(0.,-6.25,0.));
#180=B_SPLINE_CURVE_WITH_KNOTS('',1,(#178,#179),.UNSPECIFIED.,.F.,.F.,(2,2),(-0.001,0.003),.UNSPECIFIED.);
#181=EDGE_CURVE('',#172,#125,#180,.T.);
#182=ORIENTED_EDGE('',*,*,#181,.T.);
#183=EDGE_LOOP('',(#149,#156,#163,#170,#177,#182));
#184=FACE_BOUND('',#183,.T.);
#185=ADVANCED_FACE('',(#184),#148,.T.);
#186=CARTESIAN_POINT('',(-0.,6.25,0.));
#187=CARTESIAN_POINT('',(25.,6.25,0.));
#188=CARTESIAN_POINT('',(-0.,6.25,4.));
#189=CARTESIAN_POINT('',(25.,6.25,4.));
#190=B_SPLINE_SURFACE_WITH_KNOTS('',1,1,((#186,#187),(#188,#189)),.UNSPECIFIED.,.F.,.F.,.U.,(2,2),(2,2),(-0.003,0.001),(-0.,0.025),.UNSPECIFIED.);
#191=CARTESIAN_POINT('',(24.648250618,6.25,0.875));
#192=VERTEX_POINT('',#191);
#193=CARTESIAN_POINT('',(25.,6.25,0.875));
#194=VERTEX_POINT('',#193);
#195=CARTESIAN_POINT('',(24.648250618,6.25,0.875));
#196=CARTESIAN_POINT('',(25.,6.25,0.875));
#197=B_SPLINE_CURVE_WITH_KNOTS('',1,(#195,#196),.UNSPECIFIED.,.F.,.F.,(2,2),(0.024648251,0.025),.UNSPECIFIED.);
#198=EDGE_CURVE('',#192,#194,#197,.T.);
#199=ORIENTED_EDGE('',*,*,#198,.F.);
#200=CARTESIAN_POINT('',(24.648250618,6.25,0.875));
#201=CARTESIAN_POINT('',(24.648250618,6.25,0.));
#202=B_SPLINE_CURVE_WITH_KNOTS('',1,(#200,#201),.UNSPECIFIED.,.F.,.F.,(2,2),(0.,0.000875),.UNSPECIFIED.);
#203=EDGE_CURVE('',#192,#108,#202,.T.);
#204=ORIENTED_EDGE('',*,*,#203,.T.);
#205=ORIENTED_EDGE('',*,*,#112,.F.);
#206=CARTESIAN_POINT('',(-0.,6.25,4.));
#207=VERTEX_POINT('',#206);
#208=CARTESIAN_POINT('',(-0.,6.25,4.));
#209=CARTESIAN_POINT('',(-0.,6.25,0.));
#210=B_SPLINE_CURVE_WITH_KNOTS('',1,(#208,#209),.UNSPECIFIED.,.F.,.F.,(2,2),(-0.001,0.003),.UNSPECIFIED.);
#211=EDGE_CURVE('',#207,#106,#210,.T.);
#212=ORIENTED_EDGE('',*,*,#211,.F.);
#213=CARTESIAN_POINT('',(25.,6.25,4.));
#214=VERTEX_POINT('',#213);
#215=CARTESIAN_POINT('',(-0.,6.25,4.));
#216=CARTESIAN_POINT('',(25.,6.25,4.));
#217=B_SPLINE_CURVE_WITH_KNOTS('',1,(#215,#216),.UNSPECIFIED.,.F.,.F.,(2,2),(-0.,0.025),.UNSPECIFIED.);
#218=EDGE_CURVE('',#207,#214,#217,.T.);
#219=ORIENTED_EDGE('',*,*,#218,.T.);
#220=CARTESIAN_POINT('',(25.,6.25,4.));
#221=CARTESIAN_POINT('',(25.,6.25,0.875));
#222=B_SPLINE_CURVE_WITH_KNOTS('',1,(#220,#221),.UNSPECIFIED.,.F.,.F.,(2,2),(-0.001,0.002125),.UNSPECIFIED.);
#223=EDGE_CURVE('',#214,#194,#222,.T.);
#224=ORIENTED_EDGE('',*,*,#223,.T.);
#225=EDGE_LOOP('',(#199,#204,#205,#212,#219,#224));
#226=FACE_BOUND('',#225,.T.);
#227=ADVANCED_FACE('',(#226),#190,.T.);
#228=CARTESIAN_POINT('',(4.99435906,-3.390969066,2.5));
#229=CARTESIAN_POINT('',(4.99435906,-3.390592287,2.5));
#230=CARTESIAN_POINT('',(4.999456785,-3.390969066,2.5));
#231=CARTESIAN_POINT('',(4.999456785,-3.390592287,2.5));
#232=B_SPLINE_SURFACE_WITH_KNOTS('',1,1,((#228,#229),(#230,#231)),.UNSPECIFIED.,.F.,.F.,.U.,(2,2),(2,2),(0.004994359,0.004999457),(-0.003390969,-0.003390592),.UNSPECIFIED.);
#233=CARTESIAN_POINT('',(4.99435906,-3.390969066,2.5));
#234=VERTEX_POINT('',#233);
#235=CARTESIAN_POINT('',(4.999456785,-3.390592287,2.5));
#236=VERTEX_POINT('',#235);
#237=CARTESIAN_POINT('',(4.99435906,-3.390969066,2.5));
#238=CARTESIAN_POINT('',(4.999456785,-3.390592287,2.5));
#239=B_SPLINE_CURVE_WITH_KNOTS('',1,(#237,#238),.UNSPECIFIED.,.F.,.F.,(2,2),(0.004730823,0.004735935),.UNSPECIFIED.);
#240=EDGE_CURVE('',#234,#236,#239,.T.);
#241=ORIENTED_EDGE('',*,*,#240,.F.);
#242=CARTESIAN_POINT('',(4.99435906,-3.390862528,2.5));
#243=VERTEX_POINT('',#242);
#244=CARTESIAN_POINT('',(4.99435906,-3.390969066,2.5));
#245=CARTESIAN_POINT('',(4.99435906,-3.390862528,2.5));
#246=B_SPLINE_CURVE_WITH_KNOTS('',1,(#244,#245),.UNSPECIFIED.,.F.,.F.,(2,2),(-0.003390969,-0.003390863),.UNSPECIFIED.);
#247=EDGE_CURVE('',#234,#243,#246,.T.);
#248=ORIENTED_EDGE('',*,*,#247,.T.);
#249=CARTESIAN_POINT('',(4.999456785,-3.390592287,2.5));
#250=CARTESIAN_POINT('',(4.99435906,-3.390862528,2.5));
#251=B_SPLINE_CURVE_WITH_KNOTS('',1,(#249,#250),.UNSPECIFIED.,.F.,.F.,(2,2),(-0.004812956,-0.004807851),.UNSPECIFIED.);
#252=EDGE_CURVE('',#236,#243,#251,.T.);
#253=ORIENTED_EDGE('',*,*,#252,.F.);
#254=EDGE_LOOP('',(#241,#248,#253));
#255=FACE_BOUND('',#254,.T.);
#256=ADVANCED_FACE('',(#255),#232,.F.);
#257=CARTESIAN_POINT('',(4.996540445,3.390592287,2.5));
#258=CARTESIAN_POINT('',(4.996540445,3.390807837,2.5));
#259=CARTESIAN_POINT('',(4.999456785,3.390592287,2.5));
#260=CARTESIAN_POINT('',(4.999456785,3.390807837,2.5));
#261=B_SPLINE_SURFACE_WITH_KNOTS('',1,1,((#257,#258),(#259,#260)),.UNSPECIFIED.,.F.,.F.,.U.,(2,2),(2,2),(0.00499654,0.004999457),(0.003390592,0.003390808),.UNSPECIFIED.);
#262=CARTESIAN_POINT('',(4.996540445,3.390746888,2.5));
#263=VERTEX_POINT('',#262);
#264=CARTESIAN_POINT('',(4.999456785,3.390592287,2.5));
#265=VERTEX_POINT('',#264);
#266=CARTESIAN_POINT('',(4.996540445,3.390746888,2.5));
#267=CARTESIAN_POINT('',(4.999456785,3.390592287,2.5));
#268=B_SPLINE_CURVE_WITH_KNOTS('',1,(#266,#267),.UNSPECIFIED.,.F.,.F.,(2,2),(0.004810035,0.004812956),.UNSPECIFIED.);
#269=EDGE_CURVE('',#263,#265,#268,.T.);
#270=ORIENTED_EDGE('',*,*,#269,.F.);
#271=CARTESIAN_POINT('',(4.996540445,3.390807837,2.5));
#272=VERTEX_POINT('',#271);
#273=CARTESIAN_POINT('',(4.996540445,3.390746888,2.5));
#274=CARTESIAN_POINT('',(4.996540445,3.390807837,2.5));
#275=B_SPLINE_CURVE_WITH_KNOTS('',1,(#273,#274),.UNSPECIFIED.,.F.,.F.,(2,2),(0.003390747,0.003390808),.UNSPECIFIED.);
#276=EDGE_CURVE('',#263,#272,#275,.T.);
#277=ORIENTED_EDGE('',*,*,#276,.T.);
#278=CARTESIAN_POINT('',(4.996540445,3.390807837,2.5));
#279=CARTESIAN_POINT('',(4.999456785,3.390592287,2.5));
#280=B_SPLINE_CURVE_WITH_KNOTS('',1,(#278,#279),.UNSPECIFIED.,.F.,.F.,(2,2),(0.004733011,0.004735935),.UNSPECIFIED.);
#281=EDGE_CURVE('',#272,#265,#280,.T.);
#282=ORIENTED_EDGE('',*,*,#281,.T.);
#283=EDGE_LOOP('',(#270,#277,#282));
#284=FACE_BOUND('',#283,.T.);
#285=ADVANCED_FACE('',(#284),#261,.F.);
#286=CARTESIAN_POINT('',(4.999456785,-3.390592287,2.5));
#287=CARTESIAN_POINT('',(4.999456785,3.390592287,2.5));
#288=CARTESIAN_POINT('',(18.200001053,-3.390592287,2.5));
#289=CARTESIAN_POINT('',(18.200001053,3.390592287,2.5));
#290=B_SPLINE_SURFACE_WITH_KNOTS('',1,1,((#286,#287),(#288,#289)),.UNSPECIFIED.,.F.,.F.,.U.,(2,2),(2,2),(0.004999457,0.018200001),(-0.003390592,0.003390592),.UNSPECIFIED.);
#291=CARTESIAN_POINT('',(4.999456785,3.390592287,2.5));
#292=CARTESIAN_POINT('',(4.999456785,-3.390592287,2.5));
#293=B_SPLINE_CURVE_WITH_KNOTS('',1,(#291,#292),.UNSPECIFIED.,.F.,.F.,(2,2),(0.,0.006781185),.UNSPECIFIED.);
#294=EDGE_CURVE('',#265,#236,#293,.T.);
#295=ORIENTED_EDGE('',*,*,#294,.F.);
#296=CARTESIAN_POINT('',(15.79164772,2.592927236,2.5));
#297=VERTEX_POINT('',#296);
#298=CARTESIAN_POINT('',(4.999456785,3.390592287,2.5));
#299=CARTESIAN_POINT('',(15.79164772,2.592927236,2.5));
#300=B_SPLINE_CURVE_WITH_KNOTS('',1,(#298,#299),.UNSPECIFIED.,.F.,.F.,(2,2),(0.004735935,0.015557564),.UNSPECIFIED.);
#301=EDGE_CURVE('',#265,#297,#300,.T.);
#302=ORIENTED_EDGE('',*,*,#301,.T.);
#303=CARTESIAN_POINT('',(15.79164772,-2.592927199,2.5));
#304=VERTEX_POINT('',#303);
#305=CARTESIAN_POINT('',(15.79164772,-2.592927199,2.5));
#306=CARTESIAN_POINT('',(18.200001053,-2.414922631,2.5));
#307=CARTESIAN_POINT('',(18.200001053,0.000000018,2.5));
#308=CARTESIAN_POINT('',(18.200001053,2.414922668,2.5));
#309=CARTESIAN_POINT('',(15.79164772,2.592927236,2.5));
#310=(BOUNDED_CURVE()
B_SPLINE_CURVE(2,(#305,#306,#307,#308,#309),.UNSPECIFIED.,.F.,.F.)
B_SPLINE_CURVE_WITH_KNOTS((3,2,3),(3.510815479,5.007834638,6.504853798),.UNSPECIFIED.)
CURVE()
GEOMETRIC_REPRESENTATION_ITEM()
RATIONAL_B_SPLINE_CURVE((1.,0.732703984,1.,0.732703984,1.))
REPRESENTATION_ITEM(''));
#311=EDGE_CURVE('',#304,#297,#310,.T.);
#312=ORIENTED_EDGE('',*,*,#311,.F.);
#313=CARTESIAN_POINT('',(4.999456785,-3.390592287,2.5));
#314=CARTESIAN_POINT('',(15.791647723,-2.592927235,2.5));
#315=B_SPLINE_CURVE_WITH_KNOTS('',1,(#313,#314),.UNSPECIFIED.,.F.,.F.,(2,2),(0.004735935,0.015557564),.UNSPECIFIED.);
#316=EDGE_CURVE('',#236,#304,#315,.T.);
#317=ORIENTED_EDGE('',*,*,#316,.F.);
#318=EDGE_LOOP('',(#295,#302,#312,#317));
#319=FACE_BOUND('',#318,.T.);
#320=ADVANCED_FACE('',(#319),#290,.F.);
#321=CARTESIAN_POINT('',(25.,6.25,4.));
#322=CARTESIAN_POINT('',(25.,6.25,0.875));
#323=CARTESIAN_POINT('',(35.825317547,6.25,4.));
#324=CARTESIAN_POINT('',(35.825317547,6.25,0.875));
#325=CARTESIAN_POINT('',(30.412658774,-3.125,4.));
#326=CARTESIAN_POINT('',(30.412658774,-3.125,0.875));
#327=CARTESIAN_POINT('',(28.608439182,-6.25,4.));
#328=CARTESIAN_POINT('',(28.608439182,-6.25,0.875));
#329=CARTESIAN_POINT('',(25.,-6.25,4.));
#330=CARTESIAN_POINT('',(25.,-6.25,0.875));
#331=(BOUNDED_SURFACE()
B_SPLINE_SURFACE(2,1,((#321,#322),(#323,#324),(#325,#326),(#327,#328),(#329,#330)),.UNSPECIFIED.,.F.,.F.,.U.)
B_SPLINE_SURFACE_WITH_KNOTS((3,2,3),(2,2),(0.,2.094395102,3.141592654),(-0.001,0.002125),.UNSPECIFIED.)
GEOMETRIC_REPRESENTATION_ITEM()
RATIONAL_B_SPLINE_SURFACE(((1.,1.),(0.5,0.5),(1.,1.),(0.75,0.75),(0.75,0.75)))
REPRESENTATION_ITEM('')
SURFACE()
);
#332=ORIENTED_EDGE('',*,*,#169,.T.);
#333=CARTESIAN_POINT('',(25.,-6.25,0.875));
#334=CARTESIAN_POINT('',(31.25,-6.25,0.875));
#335=CARTESIAN_POINT('',(31.25,-0.,0.875));
#336=CARTESIAN_POINT('',(31.25,6.25,0.875));
#337=CARTESIAN_POINT('',(25.,6.25,0.875));
#338=(BOUNDED_CURVE()
B_SPLINE_CURVE(2,(#333,#334,#335,#336,#337),.UNSPECIFIED.,.F.,.F.)
B_SPLINE_CURVE_WITH_KNOTS((3,2,3),(4.71238898,6.283185307,7.853981634),.UNSPECIFIED.)
CURVE()
GEOMETRIC_REPRESENTATION_ITEM()
RATIONAL_B_SPLINE_CURVE((1.,0.707106781,1.,0.707106781,1.))
REPRESENTATION_ITEM(''));
#339=EDGE_CURVE('',#158,#194,#338,.T.);
#340=ORIENTED_EDGE('',*,*,#339,.T.);
#341=ORIENTED_EDGE('',*,*,#223,.F.);
#342=CARTESIAN_POINT('',(25.,-6.25,4.));
#343=CARTESIAN_POINT('',(31.25,-6.25,4.));
#344=CARTESIAN_POINT('',(31.25,-0.,4.));
#345=CARTESIAN_POINT('',(31.25,6.25,4.));
#346=CARTESIAN_POINT('',(25.,6.25,4.));
#347=(BOUNDED_CURVE()
B_SPLINE_CURVE(2,(#342,#343,#344,#345,#346),.UNSPECIFIED.,.F.,.F.)
B_SPLINE_CURVE_WITH_KNOTS((3,2,3),(4.71238898,6.283185307,7.853981634),.UNSPECIFIED.)
CURVE()
GEOMETRIC_REPRESENTATION_ITEM()
RATIONAL_B_SPLINE_CURVE((1.,0.707106781,1.,0.707106781,1.))
REPRESENTATION_ITEM(''));
#348=EDGE_CURVE('',#165,#214,#347,.T.);
#349=ORIENTED_EDGE('',*,*,#348,.F.);
#350=EDGE_LOOP('',(#332,#340,#341,#349));
#351=FACE_BOUND('',#350,.T.);
#352=ADVANCED_FACE('',(#351),#331,.T.);
#353=CARTESIAN_POINT('',(0.,-6.25,4.));
#354=CARTESIAN_POINT('',(0.,-6.25,-0.));
#355=CARTESIAN_POINT('',(-3.608439182,-6.25,4.));
#356=CARTESIAN_POINT('',(-3.608439182,-6.25,-0.));
#357=CARTESIAN_POINT('',(-5.412658774,-3.125,4.));
#358=CARTESIAN_POINT('',(-5.412658774,-3.125,-0.));
#359=CARTESIAN_POINT('',(-10.825317547,6.25,4.));
#360=CARTESIAN_POINT('',(-10.825317547,6.25,-0.));
#361=CARTESIAN_POINT('',(-0.,6.25,4.));
#362=CARTESIAN_POINT('',(-0.,6.25,-0.));
#363=(BOUNDED_SURFACE()
B_SPLINE_SURFACE(2,1,((#353,#354),(#355,#356),(#357,#358),(#359,#360),(#361,#362)),.UNSPECIFIED.,.F.,.F.,.U.)
B_SPLINE_SURFACE_WITH_KNOTS((3,2,3),(2,2),(3.141592654,4.188790205,6.283185307),(-0.001,0.003),.UNSPECIFIED.)
GEOMETRIC_REPRESENTATION_ITEM()
RATIONAL_B_SPLINE_SURFACE(((0.75,0.75),(0.75,0.75),(1.,1.),(0.5,0.5),(1.,1.)))
REPRESENTATION_ITEM('')
SURFACE()
);
#364=ORIENTED_EDGE('',*,*,#139,.T.);
#365=ORIENTED_EDGE('',*,*,#181,.F.);
#366=CARTESIAN_POINT('',(-0.,6.25,4.));
#367=CARTESIAN_POINT('',(-6.25,6.25,4.));
#368=CARTESIAN_POINT('',(-6.25,0.,4.));
#369=CARTESIAN_POINT('',(-6.25,-6.25,4.));
#370=CARTESIAN_POINT('',(-0.,-6.25,4.));
#371=(BOUNDED_CURVE()
B_SPLINE_CURVE(2,(#366,#367,#368,#369,#370),.UNSPECIFIED.,.F.,.F.)
B_SPLINE_CURVE_WITH_KNOTS((3,2,3),(1.570796327,3.141592654,4.71238898),.UNSPECIFIED.)
CURVE()
GEOMETRIC_REPRESENTATION_ITEM()
RATIONAL_B_SPLINE_CURVE((1.,0.707106781,1.,0.707106781,1.))
REPRESENTATION_ITEM(''));
#372=EDGE_CURVE('',#207,#172,#371,.T.);
#373=ORIENTED_EDGE('',*,*,#372,.F.);
#374=ORIENTED_EDGE('',*,*,#211,.T.);
#375=EDGE_LOOP('',(#364,#365,#373,#374));
#376=FACE_BOUND('',#375,.T.);
#377=ADVANCED_FACE('',(#376),#363,.T.);
#378=CARTESIAN_POINT('',(25.,3.5,4.));
#379=CARTESIAN_POINT('',(25.,3.5,0.875));
#380=CARTESIAN_POINT('',(31.062177826,3.5,4.));
#381=CARTESIAN_POINT('',(31.062177826,3.5,0.875));
#382=CARTESIAN_POINT('',(28.031088913,-1.75,4.));
#383=CARTESIAN_POINT('',(28.031088913,-1.75,0.875));
#384=CARTESIAN_POINT('',(25.,-7.,4.));
#385=CARTESIAN_POINT('',(25.,-7.,0.875));
#386=CARTESIAN_POINT('',(21.968911087,-1.75,4.));
#387=CARTESIAN_POINT('',(21.968911087,-1.75,0.875));
#388=CARTESIAN_POINT('',(18.937822174,3.5,4.));
#389=CARTESIAN_POINT('',(18.937822174,3.5,0.875));
#390=CARTESIAN_POINT('',(25.,3.5,4.));
#391=CARTESIAN_POINT('',(25.,3.5,0.875));
#392=(BOUNDED_SURFACE()
B_SPLINE_SURFACE(2,1,((#378,#379),(#380,#381),(#382,#383),(#384,#385),(#386,#387),(#388,#389),(#390,#391)),.UNSPECIFIED.,.T.,.F.,.U.)
B_SPLINE_SURFACE_WITH_KNOTS((3,2,2,3),(2,2),(0.,2.094395102,4.188790205,6.283185307),(-0.001,0.002125),.UNSPECIFIED.)
GEOMETRIC_REPRESENTATION_ITEM()
RATIONAL_B_SPLINE_SURFACE(((1.,1.),(0.5,0.5),(1.,1.),(0.5,0.5),(1.,1.),(0.5,0.5),(1.,1.)))
REPRESENTATION_ITEM('')
SURFACE()
);
#393=CARTESIAN_POINT('',(25.,3.5,0.875));
#394=VERTEX_POINT('',#393);
#395=CARTESIAN_POINT('',(25.,3.5,4.));
#396=VERTEX_POINT('',#395);
#397=CARTESIAN_POINT('',(25.,3.5,0.875));
#398=CARTESIAN_POINT('',(25.,3.5,4.));
#399=B_SPLINE_CURVE_WITH_KNOTS('',1,(#397,#398),.UNSPECIFIED.,.F.,.F.,(2,2),(-0.001,0.002125),.UNSPECIFIED.);
#400=EDGE_CURVE('',#394,#396,#399,.T.);
#401=ORIENTED_EDGE('',*,*,#400,.F.);
#402=CARTESIAN_POINT('',(28.5,-0.,0.875));
#403=VERTEX_POINT('',#402);
#404=CARTESIAN_POINT('',(28.5,-0.,0.875));
#405=CARTESIAN_POINT('',(28.5,-3.5,0.875));
#406=CARTESIAN_POINT('',(25.,-3.5,0.875));
#407=CARTESIAN_POINT('',(21.5,-3.5,0.875));
#408=CARTESIAN_POINT('',(21.5,0.,0.875));
#409=CARTESIAN_POINT('',(21.5,3.5,0.875));
#410=CARTESIAN_POINT('',(25.,3.5,0.875));
#411=CARTESIAN_POINT('',(28.5,3.5,0.875));
#412=CARTESIAN_POINT('',(28.5,-0.,0.875));
#413=(BOUNDED_CURVE()
B_SPLINE_CURVE(2,(#404,#405,#406,#407,#408,#409,#410,#411,#412),.UNSPECIFIED.,.T.,.F.)
B_SPLINE_CURVE_WITH_KNOTS((3,2,2,2,3),(0.,1.570796327,3.141592654,4.71238898,6.283185307),.UNSPECIFIED.)
CURVE()
GEOMETRIC_REPRESENTATION_ITEM()
RATIONAL_B_SPLINE_CURVE((1.,0.707106781,1.,0.707106781,1.,0.707106781,1.,0.707106781,1.))
REPRESENTATION_ITEM(''));
#414=EDGE_CURVE('',#394,#403,#413,.T.);
#415=ORIENTED_EDGE('',*,*,#414,.T.);
#416=CARTESIAN_POINT('',(28.5,-0.,0.875));
#417=CARTESIAN_POINT('',(28.5,-3.5,0.875));
#418=CARTESIAN_POINT('',(25.,-3.5,0.875));
#419=CARTESIAN_POINT('',(21.5,-3.5,0.875));
#420=CARTESIAN_POINT('',(21.5,0.,0.875));
#421=CARTESIAN_POINT('',(21.5,3.5,0.875));
#422=CARTESIAN_POINT('',(25.,3.5,0.875));
#423=CARTESIAN_POINT('',(28.5,3.5,0.875));
#424=CARTESIAN_POINT('',(28.5,-0.,0.875));
#425=(BOUNDED_CURVE()
B_SPLINE_CURVE(2,(#416,#417,#418,#419,#420,#421,#422,#423,#424),.UNSPECIFIED.,.T.,.F.)
B_SPLINE_CURVE_WITH_KNOTS((3,2,2,2,3),(0.,1.570796327,3.141592654,4.71238898,6.283185307),.UNSPECIFIED.)
CURVE()
GEOMETRIC_REPRESENTATION_ITEM()
RATIONAL_B_SPLINE_CURVE((1.,0.707106781,1.,0.707106781,1.,0.707106781,1.,0.707106781,1.))
REPRESENTATION_ITEM(''));
#426=EDGE_CURVE('',#403,#394,#425,.T.);
#427=ORIENTED_EDGE('',*,*,#426,.T.);
#428=ORIENTED_EDGE('',*,*,#400,.T.);
#429=CARTESIAN_POINT('',(28.5,-0.,4.));
#430=VERTEX_POINT('',#429);
#431=CARTESIAN_POINT('',(28.5,-0.,4.));
#432=CARTESIAN_POINT('',(28.5,-3.5,4.));
#433=CARTESIAN_POINT('',(25.,-3.5,4.));
#434=CARTESIAN_POINT('',(21.5,-3.5,4.));
#435=CARTESIAN_POINT('',(21.5,0.,4.));
#436=CARTESIAN_POINT('',(21.5,3.5,4.));
#437=CARTESIAN_POINT('',(25.,3.5,4.));
#438=CARTESIAN_POINT('',(28.5,3.5,4.));
#439=CARTESIAN_POINT('',(28.5,0.,4.));
#440=(BOUNDED_CURVE()
B_SPLINE_CURVE(2,(#431,#432,#433,#434,#435,#436,#437,#438,#439),.UNSPECIFIED.,.T.,.F.)
B_SPLINE_CURVE_WITH_KNOTS((3,2,2,2,3),(0.,1.570796327,3.141592654,4.71238898,6.283185307),.UNSPECIFIED.)
CURVE()
GEOMETRIC_REPRESENTATION_ITEM()
RATIONAL_B_SPLINE_CURVE((1.,0.707106781,1.,0.707106781,1.,0.707106781,1.,0.707106781,1.))
REPRESENTATION_ITEM(''));
#441=EDGE_CURVE('',#430,#396,#440,.T.);
#442=ORIENTED_EDGE('',*,*,#441,.F.);
#443=CARTESIAN_POINT('',(28.5,-0.,4.));
#444=CARTESIAN_POINT('',(28.5,-3.5,4.));
#445=CARTESIAN_POINT('',(25.,-3.5,4.));
#446=CARTESIAN_POINT('',(21.5,-3.5,4.));
#447=CARTESIAN_POINT('',(21.5,0.,4.));
#448=CARTESIAN_POINT('',(21.5,3.5,4.));
#449=CARTESIAN_POINT('',(25.,3.5,4.));
#450=CARTESIAN_POINT('',(28.5,3.5,4.));
#451=CARTESIAN_POINT('',(28.5,0.,4.));
#452=(BOUNDED_CURVE()
B_SPLINE_CURVE(2,(#443,#444,#445,#446,#447,#448,#449,#450,#451),.UNSPECIFIED.,.T.,.F.)
B_SPLINE_CURVE_WITH_KNOTS((3,2,2,2,3),(0.,1.570796327,3.141592654,4.71238898,6.283185307),.UNSPECIFIED.)
CURVE()
GEOMETRIC_REPRESENTATION_ITEM()
RATIONAL_B_SPLINE_CURVE((1.,0.707106781,1.,0.707106781,1.,0.707106781,1.,0.707106781,1.))
REPRESENTATION_ITEM(''));
#453=EDGE_CURVE('',#396,#430,#452,.T.);
#454=ORIENTED_EDGE('',*,*,#453,.F.);
#455=EDGE_LOOP('',(#401,#415,#427,#428,#442,#454));
#456=FACE_BOUND('',#455,.T.);
#457=ADVANCED_FACE('',(#456),#392,.F.);
#458=CARTESIAN_POINT('',(-6.25,-6.25,4.));
#459=CARTESIAN_POINT('',(-6.25,6.25,4.));
#460=CARTESIAN_POINT('',(31.25,-6.25,4.));
#461=CARTESIAN_POINT('',(31.25,6.25,4.));
#462=B_SPLINE_SURFACE_WITH_KNOTS('',1,1,((#458,#459),(#460,#461)),.UNSPECIFIED.,.F.,.F.,.U.,(2,2),(2,2),(-0.00625,0.03125),(-0.00625,0.00625),.UNSPECIFIED.);
#463=CARTESIAN_POINT('',(2.999420611,0.,4.));
#464=VERTEX_POINT('',#463);
#465=CARTESIAN_POINT('',(-0.,2.999420611,4.));
#466=VERTEX_POINT('',#465);
#467=CARTESIAN_POINT('',(2.999420611,0.,4.));
#468=CARTESIAN_POINT('',(2.999420611,-2.999420611,4.));
#469=CARTESIAN_POINT('',(-0.,-2.999420611,4.));
#470=CARTESIAN_POINT('',(-2.999420611,-2.999420611,4.));
#471=CARTESIAN_POINT('',(-2.999420611,0.,4.));
#472=CARTESIAN_POINT('',(-2.999420611,2.999420611,4.));
#473=CARTESIAN_POINT('',(-0.,2.999420611,4.));
#474=CARTESIAN_POINT('',(2.999420611,2.999420611,4.));
#475=CARTESIAN_POINT('',(2.999420611,0.,4.));
#476=(BOUNDED_CURVE()
B_SPLINE_CURVE(2,(#467,#468,#469,#470,#471,#472,#473,#474,#475),.UNSPECIFIED.,.T.,.F.)
B_SPLINE_CURVE_WITH_KNOTS((3,2,2,2,3),(0.,1.570796327,3.141592654,4.71238898,6.283185307),.UNSPECIFIED.)
CURVE()
GEOMETRIC_REPRESENTATION_ITEM()
RATIONAL_B_SPLINE_CURVE((1.,0.707106781,1.,0.707106781,1.,0.707106781,1.,0.707106781,1.))
REPRESENTATION_ITEM(''));
#477=EDGE_CURVE('',#464,#466,#476,.T.);
#478=ORIENTED_EDGE('',*,*,#477,.T.);
#479=CARTESIAN_POINT('',(2.999420611,0.,4.));
#480=CARTESIAN_POINT('',(2.999420611,-2.999420611,4.));
#481=CARTESIAN_POINT('',(-0.,-2.999420611,4.));
#482=CARTESIAN_POINT('',(-2.999420611,-2.999420611,4.));
#483=CARTESIAN_POINT('',(-2.999420611,0.,4.));
#484=CARTESIAN_POINT('',(-2.999420611,2.999420611,4.));
#485=CARTESIAN_POINT('',(-0.,2.999420611,4.));
#486=CARTESIAN_POINT('',(2.999420611,2.999420611,4.));
#487=CARTESIAN_POINT('',(2.999420611,0.,4.));
#488=(BOUNDED_CURVE()
B_SPLINE_CURVE(2,(#479,#480,#481,#482,#483,#484,#485,#486,#487),.UNSPECIFIED.,.T.,.F.)
B_SPLINE_CURVE_WITH_KNOTS((3,2,2,2,3),(0.,1.570796327,3.141592654,4.71238898,6.283185307),.UNSPECIFIED.)
CURVE()
GEOMETRIC_REPRESENTATION_ITEM()
RATIONAL_B_SPLINE_CURVE((1.,0.707106781,1.,0.707106781,1.,0.707106781,1.,0.707106781,1.))
REPRESENTATION_ITEM(''));
#489=EDGE_CURVE('',#466,#464,#488,.T.);
#490=ORIENTED_EDGE('',*,*,#489,.T.);
#491=EDGE_LOOP('',(#478,#490));
#492=FACE_BOUND('',#491,.T.);
#493=ORIENTED_EDGE('',*,*,#176,.F.);
#494=ORIENTED_EDGE('',*,*,#348,.T.);
#495=ORIENTED_EDGE('',*,*,#218,.F.);
#496=ORIENTED_EDGE('',*,*,#372,.T.);
#497=EDGE_LOOP('',(#493,#494,#495,#496));
#498=FACE_BOUND('',#497,.T.);
#499=ORIENTED_EDGE('',*,*,#441,.T.);
#500=ORIENTED_EDGE('',*,*,#453,.T.);
#501=EDGE_LOOP('',(#499,#500));
#502=FACE_BOUND('',#501,.T.);
#503=ADVANCED_FACE('',(#492,#498,#502),#462,.T.);
#504=CARTESIAN_POINT('',(15.79164772,2.592927236,0.));
#505=CARTESIAN_POINT('',(15.79164772,2.592927236,3.4));
#506=CARTESIAN_POINT('',(0.276404824,3.73967928,0.));
#507=CARTESIAN_POINT('',(0.276404824,3.73967928,3.4));
#508=B_SPLINE_SURFACE_WITH_KNOTS('',1,1,((#504,#505),(#506,#507)),.UNSPECIFIED.,.F.,.F.,.U.,(2,2),(2,2),(-0.015557564,-0.),(-0.0034,0.),.UNSPECIFIED.);
#509=ORIENTED_EDGE('',*,*,#79,.T.);
#510=CARTESIAN_POINT('',(15.79164772,2.592927236,2.5));
#511=CARTESIAN_POINT('',(15.79164772,2.592927236,0.));
#512=B_SPLINE_CURVE_WITH_KNOTS('',1,(#510,#511),.UNSPECIFIED.,.F.,.F.,(2,2),(0.,0.0025),.UNSPECIFIED.);
#513=EDGE_CURVE('',#297,#65,#512,.T.);
#514=ORIENTED_EDGE('',*,*,#513,.F.);
#515=ORIENTED_EDGE('',*,*,#301,.F.);
#516=ORIENTED_EDGE('',*,*,#281,.F.);
#517=CARTESIAN_POINT('',(4.991619702,3.391171536,2.504920743));
#518=VERTEX_POINT('',#517);
#519=CARTESIAN_POINT('',(4.996540445,3.390807837,2.5));
#520=CARTESIAN_POINT('',(4.991619702,3.391171536,2.504920743));
#521=B_SPLINE_CURVE_WITH_KNOTS('',1,(#519,#520),.UNSPECIFIED.,.F.,.F.,(2,2),(0.003979859,0.003986828),.UNSPECIFIED.);
#522=EDGE_CURVE('',#272,#518,#521,.T.);
#523=ORIENTED_EDGE('',*,*,#522,.T.);
#524=CARTESIAN_POINT('',(3.566060457,3.496536498,3.4));
#525=VERTEX_POINT('',#524);
#526=CARTESIAN_POINT('',(3.566060457,3.496536498,3.4));
#527=CARTESIAN_POINT('',(4.991619702,3.391171536,2.504920743));
#528=B_SPLINE_CURVE_WITH_KNOTS('',1,(#526,#527),.UNSPECIFIED.,.F.,.F.,(2,2),(0.,0.001686561),.UNSPECIFIED.);
#529=EDGE_CURVE('',#525,#518,#528,.T.);
#530=ORIENTED_EDGE('',*,*,#529,.F.);
#531=CARTESIAN_POINT('',(0.276404824,3.73967928,3.4));
#532=VERTEX_POINT('',#531);
#533=CARTESIAN_POINT('',(0.276404824,3.73967928,3.4));
#534=CARTESIAN_POINT('',(3.566060457,3.496536498,3.4));
#535=B_SPLINE_CURVE_WITH_KNOTS('',1,(#533,#534),.UNSPECIFIED.,.F.,.F.,(2,2),(0.,0.003298629),.UNSPECIFIED.);
#536=EDGE_CURVE('',#532,#525,#535,.T.);
#537=ORIENTED_EDGE('',*,*,#536,.F.);
#538=CARTESIAN_POINT('',(0.276404824,3.73967928,3.4));
#539=CARTESIAN_POINT('',(0.276404824,3.73967928,0.));
#540=B_SPLINE_CURVE_WITH_KNOTS('',1,(#538,#539),.UNSPECIFIED.,.F.,.F.,(2,2),(0.,0.0034),.UNSPECIFIED.);
#541=EDGE_CURVE('',#532,#75,#540,.T.);
#542=ORIENTED_EDGE('',*,*,#541,.T.);
#543=EDGE_LOOP('',(#509,#514,#515,#516,#523,#530,#537,#542));
#544=FACE_BOUND('',#543,.T.);
#545=ADVANCED_FACE('',(#544),#508,.F.);
#546=CARTESIAN_POINT('',(-3.750008638,-0.000119591,3.4));
#547=CARTESIAN_POINT('',(-3.750008638,-0.000119591,-0.));
#548=CARTESIAN_POINT('',(-3.750008638,4.037276804,3.4));
#549=CARTESIAN_POINT('',(-3.750008638,4.037276804,-0.));
#550=CARTESIAN_POINT('',(0.276404824,3.73967928,3.4));
#551=CARTESIAN_POINT('',(0.276404824,3.73967928,-0.));
#552=(BOUNDED_SURFACE()
B_SPLINE_SURFACE(2,1,((#546,#547),(#548,#549),(#550,#551)),.UNSPECIFIED.,.F.,.F.,.U.)
B_SPLINE_SURFACE_WITH_KNOTS((3,3),(2,2),(0.,1.605665028),(-0.,0.0034),.UNSPECIFIED.)
GEOMETRIC_REPRESENTATION_ITEM()
RATIONAL_B_SPLINE_SURFACE(((1.,1.),(0.616675711,0.616675711),(0.821101464,0.821101464)))
REPRESENTATION_ITEM('')
SURFACE()
);
#553=CARTESIAN_POINT('',(-3.750008638,-0.000119591,3.4));
#554=VERTEX_POINT('',#553);
#555=CARTESIAN_POINT('',(-3.750008638,-0.000119591,0.));
#556=CARTESIAN_POINT('',(-3.750008638,-0.000119591,3.4));
#557=B_SPLINE_CURVE_WITH_KNOTS('',1,(#555,#556),.UNSPECIFIED.,.F.,.F.,(2,2),(0.,0.0034),.UNSPECIFIED.);
#558=EDGE_CURVE('',#82,#554,#557,.T.);
#559=ORIENTED_EDGE('',*,*,#558,.F.);
#560=ORIENTED_EDGE('',*,*,#91,.F.);
#561=ORIENTED_EDGE('',*,*,#541,.F.);
#562=CARTESIAN_POINT('',(0.276404824,3.73967928,3.4));
#563=CARTESIAN_POINT('',(-2.0168508,3.909176825,3.4));
#564=CARTESIAN_POINT('',(-3.20784074,1.942124782,3.4));
#565=CARTESIAN_POINT('',(-4.398830679,-0.024927261,3.4));
#566=CARTESIAN_POINT('',(-3.185730364,-1.978421156,3.4));
#567=CARTESIAN_POINT('',(-1.972630049,-3.931915052,3.4));
#568=CARTESIAN_POINT('',(0.318567963,-3.736562947,3.4));
#569=(BOUNDED_CURVE()
B_SPLINE_CURVE(2,(#562,#563,#564,#565,#566,#567,#568),.UNSPECIFIED.,.F.,.F.)
B_SPLINE_CURVE_WITH_KNOTS((3,2,2,3),(6.149440189,7.249582223,8.349724257,9.449866291),.UNSPECIFIED.)
CURVE()
GEOMETRIC_REPRESENTATION_ITEM()
RATIONAL_B_SPLINE_CURVE((1.,0.8524874,1.,0.8524874,1.,0.8524874,1.))
REPRESENTATION_ITEM(''));
#570=EDGE_CURVE('',#532,#554,#569,.T.);
#571=ORIENTED_EDGE('',*,*,#570,.T.);
#572=EDGE_LOOP('',(#559,#560,#561,#571));
#573=FACE_BOUND('',#572,.T.);
#574=ADVANCED_FACE('',(#573),#552,.F.);
#575=CARTESIAN_POINT('',(15.791647723,-2.592927235,-0.));
#576=CARTESIAN_POINT('',(15.791647723,-2.592927235,3.4));
#577=CARTESIAN_POINT('',(0.318567963,-3.736562947,-0.));
#578=CARTESIAN_POINT('',(0.318567963,-3.736562947,3.4));
#579=B_SPLINE_SURFACE_WITH_KNOTS('',1,1,((#575,#576),(#577,#578)),.UNSPECIFIED.,.F.,.F.,.U.,(2,2),(2,2),(-0.015557564,-0.000042278),(-0.0034,0.),.UNSPECIFIED.);
#580=ORIENTED_EDGE('',*,*,#62,.F.);
#581=CARTESIAN_POINT('',(0.318567963,-3.736562947,3.4));
#582=VERTEX_POINT('',#581);
#583=CARTESIAN_POINT('',(0.318567963,-3.736562947,3.4));
#584=CARTESIAN_POINT('',(0.318567963,-3.736562947,-0.));
#585=B_SPLINE_CURVE_WITH_KNOTS('',1,(#583,#584),.UNSPECIFIED.,.F.,.F.,(2,2),(0.,0.0034),.UNSPECIFIED.);
#586=EDGE_CURVE('',#582,#56,#585,.T.);
#587=ORIENTED_EDGE('',*,*,#586,.F.);
#588=CARTESIAN_POINT('',(3.566060457,-3.496536498,3.4));
#589=VERTEX_POINT('',#588);
#590=CARTESIAN_POINT('',(0.318567963,-3.736562947,3.4));
#591=CARTESIAN_POINT('',(3.566060457,-3.496536498,3.4));
#592=B_SPLINE_CURVE_WITH_KNOTS('',1,(#590,#591),.UNSPECIFIED.,.F.,.F.,(2,2),(0.000042278,0.003298629),.UNSPECIFIED.);
#593=EDGE_CURVE('',#582,#589,#592,.T.);
#594=ORIENTED_EDGE('',*,*,#593,.T.);
#595=CARTESIAN_POINT('',(4.985757665,-3.391604807,2.508601395));
#596=VERTEX_POINT('',#595);
#597=CARTESIAN_POINT('',(4.985757665,-3.391604807,2.508601395));
#598=CARTESIAN_POINT('',(3.566060457,-3.496536498,3.4));
#599=B_SPLINE_CURVE_WITH_KNOTS('',1,(#597,#598),.UNSPECIFIED.,.F.,.F.,(2,2),(0.000016207,0.001695833),.UNSPECIFIED.);
#600=EDGE_CURVE('',#596,#589,#599,.T.);
#601=ORIENTED_EDGE('',*,*,#600,.F.);
#602=CARTESIAN_POINT('',(4.985757665,-3.391604807,2.508601395));
#603=CARTESIAN_POINT('',(4.99435906,-3.390969066,2.5));
#604=B_SPLINE_CURVE_WITH_KNOTS('',1,(#602,#603),.UNSPECIFIED.,.F.,.F.,(2,2),(-0.001657694,-0.001645513),.UNSPECIFIED.);
#605=EDGE_CURVE('',#596,#234,#604,.T.);
#606=ORIENTED_EDGE('',*,*,#605,.T.);
#607=ORIENTED_EDGE('',*,*,#240,.T.);
#608=ORIENTED_EDGE('',*,*,#316,.T.);
#609=CARTESIAN_POINT('',(15.79164772,-2.592927199,2.5));
#610=CARTESIAN_POINT('',(15.79164772,-2.592927199,0.));
#611=B_SPLINE_CURVE_WITH_KNOTS('',1,(#609,#610),.UNSPECIFIED.,.F.,.F.,(2,2),(0.,0.0025),.UNSPECIFIED.);
#612=EDGE_CURVE('',#304,#58,#611,.T.);
#613=ORIENTED_EDGE('',*,*,#612,.T.);
#614=EDGE_LOOP('',(#580,#587,#594,#601,#606,#607,#608,#613));
#615=FACE_BOUND('',#614,.T.);
#616=ADVANCED_FACE('',(#615),#579,.T.);
#617=CARTESIAN_POINT('',(-3.750008638,-3.931915052,3.4));
#618=CARTESIAN_POINT('',(-3.750008638,3.909176825,3.4));
#619=CARTESIAN_POINT('',(3.566060457,-3.931915052,3.4));
#620=CARTESIAN_POINT('',(3.566060457,3.909176825,3.4));
#621=B_SPLINE_SURFACE_WITH_KNOTS('',1,1,((#617,#618),(#619,#620)),.UNSPECIFIED.,.F.,.F.,.U.,(2,2),(2,2),(-0.003750009,0.00356606),(-0.003931915,0.003909177),.UNSPECIFIED.);
#622=CARTESIAN_POINT('',(-0.,2.999420611,3.4));
#623=VERTEX_POINT('',#622);
#624=CARTESIAN_POINT('',(2.999420611,0.,3.4));
#625=VERTEX_POINT('',#624);
#626=CARTESIAN_POINT('',(2.999420611,0.,3.4));
#627=CARTESIAN_POINT('',(2.999420611,-2.999420611,3.4));
#628=CARTESIAN_POINT('',(-0.,-2.999420611,3.4));
#629=CARTESIAN_POINT('',(-2.999420611,-2.999420611,3.4));
#630=CARTESIAN_POINT('',(-2.999420611,0.,3.4));
#631=CARTESIAN_POINT('',(-2.999420611,2.999420611,3.4));
#632=CARTESIAN_POINT('',(-0.,2.999420611,3.4));
#633=CARTESIAN_POINT('',(2.999420611,2.999420611,3.4));
#634=CARTESIAN_POINT('',(2.999420611,0.,3.4));
#635=(BOUNDED_CURVE()
B_SPLINE_CURVE(2,(#626,#627,#628,#629,#630,#631,#632,#633,#634),.UNSPECIFIED.,.T.,.F.)
B_SPLINE_CURVE_WITH_KNOTS((3,2,2,2,3),(0.,1.570796327,3.141592654,4.71238898,6.283185307),.UNSPECIFIED.)
CURVE()
GEOMETRIC_REPRESENTATION_ITEM()
RATIONAL_B_SPLINE_CURVE((1.,0.707106781,1.,0.707106781,1.,0.707106781,1.,0.707106781,1.))
REPRESENTATION_ITEM(''));
#636=EDGE_CURVE('',#623,#625,#635,.T.);
#637=ORIENTED_EDGE('',*,*,#636,.F.);
#638=CARTESIAN_POINT('',(2.999420611,0.,3.4));
#639=CARTESIAN_POINT('',(2.999420611,-2.999420611,3.4));
#640=CARTESIAN_POINT('',(-0.,-2.999420611,3.4));
#641=CARTESIAN_POINT('',(-2.999420611,-2.999420611,3.4));
#642=CARTESIAN_POINT('',(-2.999420611,0.,3.4));
#643=CARTESIAN_POINT('',(-2.999420611,2.999420611,3.4));
#644=CARTESIAN_POINT('',(-0.,2.999420611,3.4));
#645=CARTESIAN_POINT('',(2.999420611,2.999420611,3.4));
#646=CARTESIAN_POINT('',(2.999420611,0.,3.4));
#647=(BOUNDED_CURVE()
B_SPLINE_CURVE(2,(#638,#639,#640,#641,#642,#643,#644,#645,#646),.UNSPECIFIED.,.T.,.F.)
B_SPLINE_CURVE_WITH_KNOTS((3,2,2,2,3),(0.,1.570796327,3.141592654,4.71238898,6.283185307),.UNSPECIFIED.)
CURVE()
GEOMETRIC_REPRESENTATION_ITEM()
RATIONAL_B_SPLINE_CURVE((1.,0.707106781,1.,0.707106781,1.,0.707106781,1.,0.707106781,1.))
REPRESENTATION_ITEM(''));
#648=EDGE_CURVE('',#625,#623,#647,.T.);
#649=ORIENTED_EDGE('',*,*,#648,.F.);
#650=EDGE_LOOP('',(#637,#649));
#651=FACE_BOUND('',#650,.T.);
#652=CARTESIAN_POINT('',(3.566060457,3.496536498,3.4));
#653=CARTESIAN_POINT('',(3.566060457,-3.496536498,3.4));
#654=B_SPLINE_CURVE_WITH_KNOTS('',1,(#652,#653),.UNSPECIFIED.,.F.,.F.,(2,2),(0.,0.006993073),.UNSPECIFIED.);
#655=EDGE_CURVE('',#525,#589,#654,.T.);
#656=ORIENTED_EDGE('',*,*,#655,.T.);
#657=ORIENTED_EDGE('',*,*,#593,.F.);
#658=CARTESIAN_POINT('',(0.276404824,3.73967928,3.4));
#659=CARTESIAN_POINT('',(-2.0168508,3.909176825,3.4));
#660=CARTESIAN_POINT('',(-3.20784074,1.942124782,3.4));
#661=CARTESIAN_POINT('',(-4.398830679,-0.024927261,3.4));
#662=CARTESIAN_POINT('',(-3.185730364,-1.978421156,3.4));
#663=CARTESIAN_POINT('',(-1.972630049,-3.931915052,3.4));
#664=CARTESIAN_POINT('',(0.318567963,-3.736562947,3.4));
#665=(BOUNDED_CURVE()
B_SPLINE_CURVE(2,(#658,#659,#660,#661,#662,#663,#664),.UNSPECIFIED.,.F.,.F.)
B_SPLINE_CURVE_WITH_KNOTS((3,2,2,3),(6.149440189,7.249582223,8.349724257,9.449866291),.UNSPECIFIED.)
CURVE()
GEOMETRIC_REPRESENTATION_ITEM()
RATIONAL_B_SPLINE_CURVE((1.,0.8524874,1.,0.8524874,1.,0.8524874,1.))
REPRESENTATION_ITEM(''));
#666=EDGE_CURVE('',#554,#582,#665,.T.);
#667=ORIENTED_EDGE('',*,*,#666,.F.);
#668=ORIENTED_EDGE('',*,*,#570,.F.);
#669=ORIENTED_EDGE('',*,*,#536,.T.);
#670=EDGE_LOOP('',(#656,#657,#667,#668,#669));
#671=FACE_BOUND('',#670,.T.);
#672=ADVANCED_FACE('',(#651,#671),#621,.F.);
#673=CARTESIAN_POINT('',(15.79164772,2.592927236,2.5));
#674=CARTESIAN_POINT('',(15.79164772,2.592927236,-0.));
#675=CARTESIAN_POINT('',(16.384861508,2.549082023,2.5));
#676=CARTESIAN_POINT('',(16.384861508,2.549082023,-0.));
#677=CARTESIAN_POINT('',(16.900001053,2.251666068,2.5));
#678=CARTESIAN_POINT('',(16.900001053,2.251666068,-0.));
#679=CARTESIAN_POINT('',(20.800001053,0.000000018,2.5));
#680=CARTESIAN_POINT('',(20.800001053,0.000000018,-0.));
#681=CARTESIAN_POINT('',(16.900001053,-2.251666032,2.5));
#682=CARTESIAN_POINT('',(16.900001053,-2.251666032,-0.));
#683=CARTESIAN_POINT('',(16.384861508,-2.549081987,2.5));
#684=CARTESIAN_POINT('',(16.384861508,-2.549081987,-0.));
#685=CARTESIAN_POINT('',(15.79164772,-2.592927199,2.5));
#686=CARTESIAN_POINT('',(15.79164772,-2.592927199,-0.));
#687=(BOUNDED_SURFACE()
B_SPLINE_SURFACE(2,1,((#673,#674),(#675,#676),(#677,#678),(#679,#680),(#681,#682),(#683,#684),(#685,#686)),.UNSPECIFIED.,.F.,.F.,.U.)
B_SPLINE_SURFACE_WITH_KNOTS((3,2,2,3),(2,2),(1.605665028,2.094395102,4.188790205,4.67752028),(-0.,0.0025),.UNSPECIFIED.)
GEOMETRIC_REPRESENTATION_ITEM()
RATIONAL_B_SPLINE_SURFACE(((0.821101464,0.821101464),(0.883324289,0.883324289),(1.,1.),(0.5,0.5),(1.,1.),(0.883324289,0.883324289),(0.821101464,0.821101464)))
REPRESENTATION_ITEM('')
SURFACE()
);
#688=ORIENTED_EDGE('',*,*,#72,.F.);
#689=ORIENTED_EDGE('',*,*,#612,.F.);
#690=ORIENTED_EDGE('',*,*,#311,.T.);
#691=ORIENTED_EDGE('',*,*,#513,.T.);
#692=EDGE_LOOP('',(#688,#689,#690,#691));
#693=FACE_BOUND('',#692,.T.);
#694=ADVANCED_FACE('',(#693),#687,.F.);
#695=CARTESIAN_POINT('',(4.999456785,-3.390592287,2.5));
#696=CARTESIAN_POINT('',(4.999471919,-3.390877784,2.508601395));
#697=CARTESIAN_POINT('',(4.98574253,-3.391319309,2.5));
#698=CARTESIAN_POINT('',(4.985757665,-3.391604807,2.508601395));
#699=B_SPLINE_SURFACE_WITH_KNOTS('',1,1,((#695,#696),(#697,#698)),.UNSPECIFIED.,.F.,.F.,.U.,(2,2),(2,2),(-0.003056323,-0.003042589),(0.004877218,0.004885824),.UNSPECIFIED.);
#700=ORIENTED_EDGE('',*,*,#252,.T.);
#701=CARTESIAN_POINT('',(4.99435906,-3.390862528,2.5));
#702=CARTESIAN_POINT('',(4.985757665,-3.391604807,2.508601395));
#703=B_SPLINE_CURVE_WITH_KNOTS('',1,(#701,#702),.UNSPECIFIED.,.F.,.F.,(2,2),(-0.001296049,-0.001283862),.UNSPECIFIED.);
#704=EDGE_CURVE('',#243,#596,#703,.T.);
#705=ORIENTED_EDGE('',*,*,#704,.T.);
#706=CARTESIAN_POINT('',(4.999456785,-3.390592287,2.5));
#707=CARTESIAN_POINT('',(4.985757665,-3.391604807,2.508601395));
#708=B_SPLINE_CURVE_WITH_KNOTS('',1,(#706,#707),.UNSPECIFIED.,.F.,.F.,(2,2),(-0.,0.000016207),.UNSPECIFIED.);
#709=EDGE_CURVE('',#236,#596,#708,.T.);
#710=ORIENTED_EDGE('',*,*,#709,.F.);
#711=EDGE_LOOP('',(#700,#705,#710));
#712=FACE_BOUND('',#711,.T.);
#713=ADVANCED_FACE('',(#712),#699,.T.);
#714=CARTESIAN_POINT('',(4.991611044,3.391008207,2.5));
#715=CARTESIAN_POINT('',(4.991619702,3.391171536,2.504920743));
#716=CARTESIAN_POINT('',(4.999456785,3.390592287,2.5));
#717=CARTESIAN_POINT('',(4.999465443,3.390755616,2.504920743));
#718=B_SPLINE_SURFACE_WITH_KNOTS('',1,1,((#714,#715),(#716,#717)),.UNSPECIFIED.,.F.,.F.,.U.,(2,2),(2,2),(0.004485461,0.004493318),(0.003976721,0.003981644),.UNSPECIFIED.);
#719=CARTESIAN_POINT('',(4.991619702,3.391171536,2.504920743));
#720=CARTESIAN_POINT('',(4.999456785,3.390592287,2.5));
#721=B_SPLINE_CURVE_WITH_KNOTS('',1,(#719,#720),.UNSPECIFIED.,.F.,.F.,(2,2),(0.001686561,0.001695833),.UNSPECIFIED.);
#722=EDGE_CURVE('',#518,#265,#721,.T.);
#723=ORIENTED_EDGE('',*,*,#722,.F.);
#724=CARTESIAN_POINT('',(4.991619702,3.391171536,2.504920743));
#725=CARTESIAN_POINT('',(4.996540445,3.390746888,2.5));
#726=B_SPLINE_CURVE_WITH_KNOTS('',1,(#724,#725),.UNSPECIFIED.,.F.,.F.,(2,2),(-0.000371034,-0.000364062),.UNSPECIFIED.);
#727=EDGE_CURVE('',#518,#263,#726,.T.);
#728=ORIENTED_EDGE('',*,*,#727,.T.);
#729=ORIENTED_EDGE('',*,*,#269,.T.);
#730=EDGE_LOOP('',(#723,#728,#729));
#731=FACE_BOUND('',#730,.T.);
#732=ADVANCED_FACE('',(#731),#718,.T.);
#733=CARTESIAN_POINT('',(4.999456785,-3.496536498,2.5));
#734=CARTESIAN_POINT('',(4.999456785,3.496536498,2.5));
#735=CARTESIAN_POINT('',(3.566060457,-3.496536498,3.4));
#736=CARTESIAN_POINT('',(3.566060457,3.496536498,3.4));
#737=B_SPLINE_SURFACE_WITH_KNOTS('',1,1,((#733,#734),(#735,#736)),.UNSPECIFIED.,.F.,.F.,.U.,(2,2),(2,2),(-0.00084626,0.00084626),(-0.003496536,0.003496536),.UNSPECIFIED.);
#738=ORIENTED_EDGE('',*,*,#709,.T.);
#739=ORIENTED_EDGE('',*,*,#600,.T.);
#740=ORIENTED_EDGE('',*,*,#655,.F.);
#741=ORIENTED_EDGE('',*,*,#529,.T.);
#742=ORIENTED_EDGE('',*,*,#722,.T.);
#743=ORIENTED_EDGE('',*,*,#294,.T.);
#744=EDGE_LOOP('',(#738,#739,#740,#741,#742,#743));
#745=FACE_BOUND('',#744,.T.);
#746=ADVANCED_FACE('',(#745),#737,.T.);
#747=CARTESIAN_POINT('',(-0.,2.999420611,4.));
#748=CARTESIAN_POINT('',(-0.,2.999420611,3.4));
#749=CARTESIAN_POINT('',(5.195148892,2.999420611,4.));
#750=CARTESIAN_POINT('',(5.195148892,2.999420611,3.4));
#751=CARTESIAN_POINT('',(2.597574446,-1.499710306,4.));
#752=CARTESIAN_POINT('',(2.597574446,-1.499710306,3.4));
#753=CARTESIAN_POINT('',(-0.,-5.998841223,4.));
#754=CARTESIAN_POINT('',(-0.,-5.998841223,3.4));
#755=CARTESIAN_POINT('',(-2.597574446,-1.499710306,4.));
#756=CARTESIAN_POINT('',(-2.597574446,-1.499710306,3.4));
#757=CARTESIAN_POINT('',(-5.195148892,2.999420611,4.));
#758=CARTESIAN_POINT('',(-5.195148892,2.999420611,3.4));
#759=CARTESIAN_POINT('',(-0.,2.999420611,4.));
#760=CARTESIAN_POINT('',(-0.,2.999420611,3.4));
#761=(BOUNDED_SURFACE()
B_SPLINE_SURFACE(2,1,((#747,#748),(#749,#750),(#751,#752),(#753,#754),(#755,#756),(#757,#758),(#759,#760)),.UNSPECIFIED.,.T.,.F.,.U.)
B_SPLINE_SURFACE_WITH_KNOTS((3,2,2,3),(2,2),(0.,2.094395102,4.188790205,6.283185307),(0.017755575,0.018355575),.UNSPECIFIED.)
GEOMETRIC_REPRESENTATION_ITEM()
RATIONAL_B_SPLINE_SURFACE(((1.,1.),(0.5,0.5),(1.,1.),(0.5,0.5),(1.,1.),(0.5,0.5),(1.,1.)))
REPRESENTATION_ITEM('')
SURFACE()
);
#762=CARTESIAN_POINT('',(-0.,2.999420611,3.4));
#763=CARTESIAN_POINT('',(-0.,2.999420611,4.));
#764=B_SPLINE_CURVE_WITH_KNOTS('',1,(#762,#763),.UNSPECIFIED.,.F.,.F.,(2,2),(0.017755575,0.018355575),.UNSPECIFIED.);
#765=EDGE_CURVE('',#623,#466,#764,.T.);
#766=ORIENTED_EDGE('',*,*,#765,.F.);
#767=ORIENTED_EDGE('',*,*,#636,.T.);
#768=ORIENTED_EDGE('',*,*,#648,.T.);
#769=ORIENTED_EDGE('',*,*,#765,.T.);
#770=ORIENTED_EDGE('',*,*,#477,.F.);
#771=ORIENTED_EDGE('',*,*,#489,.F.);
#772=EDGE_LOOP('',(#766,#767,#768,#769,#770,#771));
#773=FACE_BOUND('',#772,.T.);
#774=ADVANCED_FACE('',(#773),#761,.F.);
#775=CARTESIAN_POINT('',(4.985757665,-3.390862528,2.508601395));
#776=CARTESIAN_POINT('',(4.99435906,-3.390862528,2.5));
#777=CARTESIAN_POINT('',(4.985757665,-3.391604807,2.508601395));
#778=CARTESIAN_POINT('',(4.99435906,-3.391604807,2.5));
#779=B_SPLINE_SURFACE_WITH_KNOTS('',1,1,((#775,#776),(#777,#778)),.UNSPECIFIED.,.F.,.F.,.U.,(2,2),(2,2),(0.006887399,0.006888141),(0.002007755,0.002019919),.UNSPECIFIED.);
#780=ORIENTED_EDGE('',*,*,#704,.F.);
#781=ORIENTED_EDGE('',*,*,#247,.F.);
#782=ORIENTED_EDGE('',*,*,#605,.F.);
#783=EDGE_LOOP('',(#780,#781,#782));
#784=FACE_BOUND('',#783,.T.);
#785=ADVANCED_FACE('',(#784),#779,.F.);
#786=CARTESIAN_POINT('',(4.991619702,3.391171536,2.504920743));
#787=CARTESIAN_POINT('',(4.996540445,3.391171536,2.5));
#788=CARTESIAN_POINT('',(4.991619702,3.390746888,2.504920743));
#789=CARTESIAN_POINT('',(4.996540445,3.390746888,2.5));
#790=B_SPLINE_SURFACE_WITH_KNOTS('',1,1,((#786,#787),(#788,#789)),.UNSPECIFIED.,.F.,.F.,.U.,(2,2),(2,2),(0.000105365,0.00010579),(0.002016045,0.002023004),.UNSPECIFIED.);
#791=ORIENTED_EDGE('',*,*,#522,.F.);
#792=ORIENTED_EDGE('',*,*,#276,.F.);
#793=ORIENTED_EDGE('',*,*,#727,.F.);
#794=EDGE_LOOP('',(#791,#792,#793));
#795=FACE_BOUND('',#794,.T.);
#796=ADVANCED_FACE('',(#795),#790,.F.);
#797=CARTESIAN_POINT('',(18.740109615,-6.25,0.875));
#798=CARTESIAN_POINT('',(18.740109615,6.25,0.875));
#799=CARTESIAN_POINT('',(31.25,-6.25,0.875));
#800=CARTESIAN_POINT('',(31.25,6.25,0.875));
#801=B_SPLINE_SURFACE_WITH_KNOTS('',1,1,((#797,#798),(#799,#800)),.UNSPECIFIED.,.F.,.F.,.U.,(2,2),(2,2),(0.01874011,0.03125),(-0.00625,0.00625),.UNSPECIFIED.);
#802=ORIENTED_EDGE('',*,*,#162,.T.);
#803=CARTESIAN_POINT('',(24.648250618,6.25,0.875));
#804=CARTESIAN_POINT('',(18.740109615,5.917490409,0.875));
#805=CARTESIAN_POINT('',(18.740109615,0.,0.875));
#806=CARTESIAN_POINT('',(18.740109615,-5.917490409,0.875));
#807=CARTESIAN_POINT('',(24.648250618,-6.25,0.875));
#808=(BOUNDED_CURVE()
B_SPLINE_CURVE(2,(#803,#804,#805,#806,#807),.UNSPECIFIED.,.F.,.F.)
B_SPLINE_CURVE_WITH_KNOTS((3,2,3),(6.283185307,7.797761041,9.312336775),.UNSPECIFIED.)
CURVE()
GEOMETRIC_REPRESENTATION_ITEM()
RATIONAL_B_SPLINE_CURVE((1.,0.726701789,1.,0.726701789,1.))
REPRESENTATION_ITEM(''));
#809=EDGE_CURVE('',#192,#151,#808,.T.);
#810=ORIENTED_EDGE('',*,*,#809,.F.);
#811=ORIENTED_EDGE('',*,*,#198,.T.);
#812=ORIENTED_EDGE('',*,*,#339,.F.);
#813=EDGE_LOOP('',(#802,#810,#811,#812));
#814=FACE_BOUND('',#813,.T.);
#815=ORIENTED_EDGE('',*,*,#414,.F.);
#816=ORIENTED_EDGE('',*,*,#426,.F.);
#817=EDGE_LOOP('',(#815,#816));
#818=FACE_BOUND('',#817,.T.);
#819=ADVANCED_FACE('',(#814,#818),#801,.F.);
#820=CARTESIAN_POINT('',(24.648250619,-6.25,0.875));
#821=CARTESIAN_POINT('',(24.648250619,-6.25,-0.));
#822=CARTESIAN_POINT('',(21.27038259,-6.059893922,0.875));
#823=CARTESIAN_POINT('',(21.27038259,-6.059893922,-0.));
#824=CARTESIAN_POINT('',(19.578775902,-3.129945192,0.875));
#825=CARTESIAN_POINT('',(19.578775902,-3.129945192,-0.));
#826=CARTESIAN_POINT('',(14.493231258,5.678476515,0.875));
#827=CARTESIAN_POINT('',(14.493231258,5.678476515,-0.));
#828=CARTESIAN_POINT('',(24.648250618,6.25,0.875));
#829=CARTESIAN_POINT('',(24.648250618,6.25,-0.));
#830=(BOUNDED_SURFACE()
B_SPLINE_SURFACE(2,1,((#820,#821),(#822,#823),(#824,#825),(#826,#827),(#828,#829)),.UNSPECIFIED.,.F.,.F.,.U.)
B_SPLINE_SURFACE_WITH_KNOTS((3,2,3),(2,2),(3.192592525,4.188790205,6.216271737),(-0.,0.000875),.UNSPECIFIED.)
GEOMETRIC_REPRESENTATION_ITEM()
RATIONAL_B_SPLINE_SURFACE(((0.750592954,0.750592954),(0.762175323,0.762175323),(1.,1.),(0.515974438,0.515974438),(0.969071854,0.969071854)))
REPRESENTATION_ITEM('')
SURFACE()
);
#831=ORIENTED_EDGE('',*,*,#122,.F.);
#832=ORIENTED_EDGE('',*,*,#203,.F.);
#833=ORIENTED_EDGE('',*,*,#809,.T.);
#834=ORIENTED_EDGE('',*,*,#155,.F.);
#835=EDGE_LOOP('',(#831,#832,#833,#834));
#836=FACE_BOUND('',#835,.T.);
#837=ADVANCED_FACE('',(#836),#830,.F.);
#838=CARTESIAN_POINT('',(0.318567963,-3.736562947,3.4));
#839=CARTESIAN_POINT('',(0.318567963,-3.736562947,-0.));
#840=CARTESIAN_POINT('',(-3.750008638,-4.083457889,3.4));
#841=CARTESIAN_POINT('',(-3.750008638,-4.083457889,-0.));
#842=CARTESIAN_POINT('',(-3.750008638,-0.000119591,3.4));
#843=CARTESIAN_POINT('',(-3.750008638,-0.000119591,-0.));
#844=(BOUNDED_SURFACE()
B_SPLINE_SURFACE(2,1,((#838,#839),(#840,#841),(#842,#843)),.UNSPECIFIED.,.F.,.F.,.U.)
B_SPLINE_SURFACE_WITH_KNOTS((3,3),(2,2),(4.666301925,6.283185307),(-0.,0.0034),.UNSPECIFIED.)
GEOMETRIC_REPRESENTATION_ITEM()
RATIONAL_B_SPLINE_SURFACE(((0.823986692,0.823986692),(0.613997526,0.613997526),(1.,1.)))
REPRESENTATION_ITEM('')
SURFACE()
);
#845=ORIENTED_EDGE('',*,*,#558,.T.);
#846=ORIENTED_EDGE('',*,*,#666,.T.);
#847=ORIENTED_EDGE('',*,*,#586,.T.);
#848=ORIENTED_EDGE('',*,*,#101,.F.);
#849=EDGE_LOOP('',(#845,#846,#847,#848));
#850=FACE_BOUND('',#849,.T.);
#851=ADVANCED_FACE('',(#850),#844,.F.);
#852=CLOSED_SHELL('',(#143,#185,#227,#256,#285,#320,#352,#377,#457,#503,#545,#574,#616,#672,#694,#713,#732,#746,#774,#785,#796,#819,#837,#851));
#853=MANIFOLD_SOLID_BREP('Extruded.001',#852);
#49=STYLED_ITEM('',(),#853);
#854=GEOMETRIC_CURVE_SET('',(#45,#48));
#16=SHAPE_REPRESENTATION('root',(#15),#10);
#17=ADVANCED_BREP_SHAPE_REPRESENTATION('root',(#853),#10);
#862=SHAPE_REPRESENTATION_RELATIONSHIP('','',#16,#17);
#18=GEOMETRICALLY_BOUNDED_WIREFRAME_SHAPE_REPRESENTATION('root',(#854),#10);
#870=SHAPE_REPRESENTATION_RELATIONSHIP('','',#16,#18);
#871=APPLICATION_CONTEXT('configuration controlled 3D design of mechanical parts and assemblies');
#872=APPLICATION_PROTOCOL_DEFINITION('international standard','configuration_control_3d_design_ed2_mim',2004,#871);
#873=PRODUCT_CONTEXT('',#871,'mechanical');
#874=PRODUCT_DEFINITION_CONTEXT('part definition',#871,'design');
#24=PRODUCT('root','root','',(#873));
#875=PRODUCT_RELATED_PRODUCT_CATEGORY('part','',(#24));
#876=PRODUCT_DEFINITION_FORMATION_WITH_SPECIFIED_SOURCE('','',#24,.NOT_KNOWN.);
#25=PRODUCT_DEFINITION('design','',#876,#874);
#23=PRODUCT_DEFINITION_SHAPE('','',#25);
#877=SHAPE_DEFINITION_REPRESENTATION(#23,#16);
#11=DRAUGHTING_MODEL('',(),#10);
#1=MECHANICAL_DESIGN_GEOMETRIC_PRESENTATION_REPRESENTATION('',(#49),#10);
ENDSEC;
END-ISO-10303-21;
