ISO-10303-21;
HEADER;

/* File generated by HOOPS Exchange Version 25.8.0 */

FILE_DESCRIPTION(('HOOPS Exchange Step'),'2;1');

FILE_NAME('/home/tfannes/prints/260619_sg90_horn/horn_b.step',
'2026-06-19T12:08:04+02:00',
('tfannes'),
('Unknown organisation'),
'HOOPS Exchange 2025.8',
'HOOPS Exchange',
'Unknown authorisation');

FILE_SCHEMA( ('AP203_CONFIGURATION_CONTROLLED_3D_DESIGN_OF_MECHANICAL_PARTS_AND_ASSEMBLIES_MIM_LF') );

ENDSEC;

DATA;
#3=(NAMED_UNIT(*)PLANE_ANGLE_UNIT()SI_UNIT($,.RADIAN.));
#4=PLANE_ANGLE_MEASURE_WITH_UNIT(PLANE_ANGLE_MEASURE(0.0174532925),#3);
#5=(CONVERSION_BASED_UNIT('DEGREE',#4)NAMED_UNIT(#6)PLANE_ANGLE_UNIT());
#6=DIMENSIONAL_EXPONENTS(0.,0.,0.,0.,0.,0.,0.);
#7=(NAMED_UNIT(*)SI_UNIT($,.STERADIAN.)SOLID_ANGLE_UNIT());
#8=(LENGTH_UNIT()NAMED_UNIT(*)SI_UNIT(.MILLI.,.METRE.));
#9=UNCERTAINTY_MEASURE_WITH_UNIT(LENGTH_MEASURE(1.000000E-03),#8,'DISTANCE_ACCURACY_VALUE','Maximum Tolerance applied to model');
#10=(GEOMETRIC_REPRESENTATION_CONTEXT(3)GLOBAL_UNCERTAINTY_ASSIGNED_CONTEXT((#9))GLOBAL_UNIT_ASSIGNED_CONTEXT((#8,#5,#7))REPRESENTATION_CONTEXT('','root'));
#12=CARTESIAN_POINT('',(0.,0.,0.));
#13=DIRECTION('',(0.,0.,1.));
#14=DIRECTION('',(1.,0.,0.));
#15=AXIS2_PLACEMENT_3D('TS3D_PRODUCT_CSYS',#12,#13,#14);
#26=CARTESIAN_POINT('',(1.646958776,2.202277637,0.));
#27=CARTESIAN_POINT('',(0.878221138,2.777172999,0.));
#28=CARTESIAN_POINT('',(-0.116295532,3.050200426,0.));
#29=CARTESIAN_POINT('',(-1.201013835,2.919949791,0.));
#30=CARTESIAN_POINT('',(-2.187690852,2.356346606,0.));
#31=CARTESIAN_POINT('',(-2.8786155,1.432457118,0.));
#32=CARTESIAN_POINT('',(-3.140350467,0.326710812,0.));
#33=CARTESIAN_POINT('',(-2.958692335,-0.750591071,0.));
#34=CARTESIAN_POINT('',(-2.415696414,-1.627382275,0.));
#35=CARTESIAN_POINT('',(-1.646958776,-2.202277637,0.));
#36=CARTESIAN_POINT('',(-0.878221138,-2.777172999,0.));
#37=CARTESIAN_POINT('',(0.116295532,-3.050200426,0.));
#38=CARTESIAN_POINT('',(1.201013835,-2.919949791,0.));
#39=CARTESIAN_POINT('',(2.187690852,-2.356346606,0.));
#40=CARTESIAN_POINT('',(2.8786155,-1.432457118,0.));
#41=CARTESIAN_POINT('',(3.140350467,-0.326710812,0.));
#42=CARTESIAN_POINT('',(2.958692335,0.750591071,0.));
#43=CARTESIAN_POINT('',(2.415696414,1.627382275,0.));
#44=CARTESIAN_POINT('',(1.646958776,2.202277637,0.));
#45=B_SPLINE_CURVE_WITH_KNOTS('Circle.003',9,(#26,#27,#28,#29,#30,#31,#32,#33,#34,#35,#36,#37,#38,#39,#40,#41,#42,#43,#44),.UNSPECIFIED.,.T.,.F.,(10,9,10),(0.,3.141592654,6.283185307),.UNSPECIFIED.);
#46=CARTESIAN_POINT('',(0.272756396,3.689932784,0.));
#47=CARTESIAN_POINT('',(15.787981813,2.543061765,0.));
#48=B_SPLINE_CURVE_WITH_KNOTS('Line.002',1,(#46,#47),.UNSPECIFIED.,.F.,.F.,(2,2),(-0.,0.015557555),.UNSPECIFIED.);
#49=CARTESIAN_POINT('',(0.272756396,-3.689932784,0.));
#50=CARTESIAN_POINT('',(15.787981813,-2.543061765,-0.));
#51=B_SPLINE_CURVE_WITH_KNOTS('Line.001',1,(#49,#50),.UNSPECIFIED.,.F.,.F.,(2,2),(-0.,0.015557555),.UNSPECIFIED.);
#52=CARTESIAN_POINT('',(4.999456785,-3.390592287,0.));
#53=CARTESIAN_POINT('',(4.999456785,3.390592287,0.));
#54=B_SPLINE_CURVE_WITH_KNOTS('Line.004',1,(#52,#53),.UNSPECIFIED.,.F.,.F.,(2,2),(0.,0.006781185),.UNSPECIFIED.);
#55=CARTESIAN_POINT('',(16.342474934,2.439514834,0.));
#56=CARTESIAN_POINT('',(15.490926144,2.698686343,0.));
#57=CARTESIAN_POINT('',(14.537580501,2.623462463,0.));
#58=CARTESIAN_POINT('',(13.632626417,2.168117778,0.));
#59=CARTESIAN_POINT('',(12.94970724,1.365732052,0.));
#60=CARTESIAN_POINT('',(12.638227977,0.342317903,0.));
#61=CARTESIAN_POINT('',(12.758344185,-0.704474126,0.));
#62=CARTESIAN_POINT('',(13.25618511,-1.586763812,0.));
#63=CARTESIAN_POINT('',(14.005978382,-2.180343289,0.));
#64=CARTESIAN_POINT('',(14.857527173,-2.439514798,0.));
#65=CARTESIAN_POINT('',(15.709075963,-2.698686306,0.));
#66=CARTESIAN_POINT('',(16.662421606,-2.623462426,0.));
#67=CARTESIAN_POINT('',(17.56737569,-2.168117741,0.));
#68=CARTESIAN_POINT('',(18.250294867,-1.365732016,0.));
#69=CARTESIAN_POINT('',(18.561774129,-0.342317866,0.));
#70=CARTESIAN_POINT('',(18.441657922,0.704474163,0.));
#71=CARTESIAN_POINT('',(17.943816997,1.586763848,0.));
#72=CARTESIAN_POINT('',(17.194023724,2.180343325,0.));
#73=CARTESIAN_POINT('',(16.342474934,2.439514834,0.));
#74=B_SPLINE_CURVE_WITH_KNOTS('Circle.007',9,(#55,#56,#57,#58,#59,#60,#61,#62,#63,#64,#65,#66,#67,#68,#69,#70,#71,#72,#73),.UNSPECIFIED.,.T.,.F.,(10,9,10),(0.,3.141592654,6.283185307),.UNSPECIFIED.);
#75=CARTESIAN_POINT('',(-0.221748454,3.693349107,0.));
#76=CARTESIAN_POINT('',(-1.51096668,3.615944523,0.));
#77=CARTESIAN_POINT('',(-2.769819556,3.032264382,0.));
#78=CARTESIAN_POINT('',(-3.770918895,1.955940045,0.));
#79=CARTESIAN_POINT('',(-4.294760295,0.519644021,0.));
#80=CARTESIAN_POINT('',(-4.201733393,-1.029772982,0.));
#81=CARTESIAN_POINT('',(-3.509804344,-2.393074223,0.));
#82=CARTESIAN_POINT('',(-2.387115929,-3.341886473,0.));
#83=CARTESIAN_POINT('',(-1.067469772,-3.77075369,0.));
#84=CARTESIAN_POINT('',(0.221748454,-3.693349107,0.));
#85=CARTESIAN_POINT('',(1.51096668,-3.615944523,0.));
#86=CARTESIAN_POINT('',(2.769819556,-3.032264382,0.));
#87=CARTESIAN_POINT('',(3.770918895,-1.955940045,0.));
#88=CARTESIAN_POINT('',(4.294760295,-0.519644021,0.));
#89=CARTESIAN_POINT('',(4.201733393,1.029772982,0.));
#90=CARTESIAN_POINT('',(3.509804344,2.393074223,0.));
#91=CARTESIAN_POINT('',(2.387115929,3.341886473,0.));
#92=CARTESIAN_POINT('',(1.067469772,3.77075369,0.));
#93=CARTESIAN_POINT('',(-0.221748454,3.693349107,0.));
#94=B_SPLINE_CURVE_WITH_KNOTS('Circle.005',9,(#75,#76,#77,#78,#79,#80,#81,#82,#83,#84,#85,#86,#87,#88,#89,#90,#91,#92,#93),.UNSPECIFIED.,.T.,.F.,(10,9,10),(0.,3.141592654,6.283185307),.UNSPECIFIED.);
#96=CARTESIAN_POINT('',(-7.216878365,-6.25,0.));
#97=CARTESIAN_POINT('',(-7.216878365,6.25,0.));
#98=CARTESIAN_POINT('',(25.,-6.25,0.));
#99=CARTESIAN_POINT('',(25.,6.25,0.));
#100=B_SPLINE_SURFACE_WITH_KNOTS('',1,1,((#96,#97),(#98,#99)),.UNSPECIFIED.,.F.,.F.,.U.,(2,2),(2,2),(-0.007216878,0.025),(-0.00625,0.00625),.UNSPECIFIED.);
#101=CARTESIAN_POINT('',(0.272756396,3.689932784,0.));
#102=VERTEX_POINT('',#101);
#103=CARTESIAN_POINT('',(15.787981813,2.543061765,0.));
#104=VERTEX_POINT('',#103);
#105=CARTESIAN_POINT('',(0.272756396,3.689932784,0.));
#106=CARTESIAN_POINT('',(15.787981813,2.543061765,0.));
#107=B_SPLINE_CURVE_WITH_KNOTS('',1,(#105,#106),.UNSPECIFIED.,.F.,.F.,(2,2),(-0.,0.015557555),.UNSPECIFIED.);
#108=EDGE_CURVE('',#102,#104,#107,.T.);
#109=ORIENTED_EDGE('',*,*,#108,.F.);
#110=CARTESIAN_POINT('',(-0.,3.7,0.));
#111=VERTEX_POINT('',#110);
#112=CARTESIAN_POINT('',(0.272756396,3.689932784,0.));
#113=CARTESIAN_POINT('',(-1.980400407,3.856484037,0.));
#114=CARTESIAN_POINT('',(-3.157828798,1.928242018,0.));
#115=CARTESIAN_POINT('',(-4.335257189,0.,0.));
#116=CARTESIAN_POINT('',(-3.157828798,-1.928242018,0.));
#117=CARTESIAN_POINT('',(-1.980400407,-3.856484037,0.));
#118=CARTESIAN_POINT('',(0.272756396,-3.689932784,0.));
#119=(BOUNDED_CURVE()
B_SPLINE_CURVE(2,(#112,#113,#114,#115,#116,#117,#118),.UNSPECIFIED.,.F.,.F.)
B_SPLINE_CURVE_WITH_KNOTS((3,2,2,3),(6.14943248,7.245819949,8.342207418,9.438594887),.UNSPECIFIED.)
CURVE()
GEOMETRIC_REPRESENTATION_ITEM()
RATIONAL_B_SPLINE_CURVE((1.,0.853467243,1.,0.853467243,1.,0.853467243,1.))
REPRESENTATION_ITEM(''));
#120=EDGE_CURVE('',#102,#111,#119,.T.);
#121=ORIENTED_EDGE('',*,*,#120,.T.);
#122=CARTESIAN_POINT('',(0.272756396,-3.689932784,0.));
#123=VERTEX_POINT('',#122);
#124=CARTESIAN_POINT('',(0.272756396,3.689932784,0.));
#125=CARTESIAN_POINT('',(-1.980400407,3.856484037,0.));
#126=CARTESIAN_POINT('',(-3.157828798,1.928242018,0.));
#127=CARTESIAN_POINT('',(-4.335257189,0.,0.));
#128=CARTESIAN_POINT('',(-3.157828798,-1.928242018,0.));
#129=CARTESIAN_POINT('',(-1.980400407,-3.856484037,0.));
#130=CARTESIAN_POINT('',(0.272756396,-3.689932784,0.));
#131=(BOUNDED_CURVE()
B_SPLINE_CURVE(2,(#124,#125,#126,#127,#128,#129,#130),.UNSPECIFIED.,.F.,.F.)
B_SPLINE_CURVE_WITH_KNOTS((3,2,2,3),(6.14943248,7.245819949,8.342207418,9.438594887),.UNSPECIFIED.)
CURVE()
GEOMETRIC_REPRESENTATION_ITEM()
RATIONAL_B_SPLINE_CURVE((1.,0.853467243,1.,0.853467243,1.,0.853467243,1.))
REPRESENTATION_ITEM(''));
#132=EDGE_CURVE('',#111,#123,#131,.T.);
#133=ORIENTED_EDGE('',*,*,#132,.T.);
#134=CARTESIAN_POINT('',(15.787981813,-2.543061765,0.));
#135=VERTEX_POINT('',#134);
#136=CARTESIAN_POINT('',(0.272756396,-3.689932784,0.));
#137=CARTESIAN_POINT('',(15.787981813,-2.543061765,-0.));
#138=B_SPLINE_CURVE_WITH_KNOTS('',1,(#136,#137),.UNSPECIFIED.,.F.,.F.,(2,2),(-0.,0.015557555),.UNSPECIFIED.);
#139=EDGE_CURVE('',#123,#135,#138,.T.);
#140=ORIENTED_EDGE('',*,*,#139,.T.);
#141=CARTESIAN_POINT('',(15.787981813,-2.543061765,0.));
#142=CARTESIAN_POINT('',(18.150001052,-2.368463502,0.));
#143=CARTESIAN_POINT('',(18.150001053,0.000000017,0.));
#144=CARTESIAN_POINT('',(18.150001055,2.368463536,0.));
#145=CARTESIAN_POINT('',(15.787981815,2.543061801,0.));
#146=(BOUNDED_CURVE()
B_SPLINE_CURVE(2,(#141,#142,#143,#144,#145),.UNSPECIFIED.,.F.,.F.)
B_SPLINE_CURVE_WITH_KNOTS((3,2,3),(3.510823188,5.007834638,6.504846087),.UNSPECIFIED.)
CURVE()
GEOMETRIC_REPRESENTATION_ITEM()
RATIONAL_B_SPLINE_CURVE((1.,0.732706608,1.,0.732706608,1.))
REPRESENTATION_ITEM(''));
#147=EDGE_CURVE('',#135,#104,#146,.T.);
#148=ORIENTED_EDGE('',*,*,#147,.T.);
#149=EDGE_LOOP('',(#109,#121,#133,#140,#148));
#150=FACE_BOUND('',#149,.T.);
#151=CARTESIAN_POINT('',(-0.,6.25,0.));
#152=VERTEX_POINT('',#151);
#153=CARTESIAN_POINT('',(25.,6.25,0.));
#154=VERTEX_POINT('',#153);
#155=CARTESIAN_POINT('',(-0.,6.25,0.));
#156=CARTESIAN_POINT('',(25.,6.25,0.));
#157=B_SPLINE_CURVE_WITH_KNOTS('',1,(#155,#156),.UNSPECIFIED.,.F.,.F.,(2,2),(-0.,0.025),.UNSPECIFIED.);
#158=EDGE_CURVE('',#152,#154,#157,.T.);
#159=ORIENTED_EDGE('',*,*,#158,.T.);
#160=CARTESIAN_POINT('',(18.75,0.,0.));
#161=VERTEX_POINT('',#160);
#162=CARTESIAN_POINT('',(25.,6.25,0.));
#163=CARTESIAN_POINT('',(18.75,6.25,0.));
#164=CARTESIAN_POINT('',(18.75,0.,0.));
#165=CARTESIAN_POINT('',(18.75,-6.25,0.));
#166=CARTESIAN_POINT('',(25.,-6.25,0.));
#167=(BOUNDED_CURVE()
B_SPLINE_CURVE(2,(#162,#163,#164,#165,#166),.UNSPECIFIED.,.F.,.F.)
B_SPLINE_CURVE_WITH_KNOTS((3,2,3),(6.283185307,7.853981634,9.424777961),.UNSPECIFIED.)
CURVE()
GEOMETRIC_REPRESENTATION_ITEM()
RATIONAL_B_SPLINE_CURVE((1.,0.707106781,1.,0.707106781,1.))
REPRESENTATION_ITEM(''));
#168=EDGE_CURVE('',#154,#161,#167,.T.);
#169=ORIENTED_EDGE('',*,*,#168,.T.);
#170=CARTESIAN_POINT('',(25.,-6.25,0.));
#171=VERTEX_POINT('',#170);
#172=CARTESIAN_POINT('',(25.,6.25,0.));
#173=CARTESIAN_POINT('',(18.75,6.25,0.));
#174=CARTESIAN_POINT('',(18.75,0.,0.));
#175=CARTESIAN_POINT('',(18.75,-6.25,0.));
#176=CARTESIAN_POINT('',(25.,-6.25,0.));
#177=(BOUNDED_CURVE()
B_SPLINE_CURVE(2,(#172,#173,#174,#175,#176),.UNSPECIFIED.,.F.,.F.)
B_SPLINE_CURVE_WITH_KNOTS((3,2,3),(6.283185307,7.853981634,9.424777961),.UNSPECIFIED.)
CURVE()
GEOMETRIC_REPRESENTATION_ITEM()
RATIONAL_B_SPLINE_CURVE((1.,0.707106781,1.,0.707106781,1.))
REPRESENTATION_ITEM(''));
#178=EDGE_CURVE('',#161,#171,#177,.T.);
#179=ORIENTED_EDGE('',*,*,#178,.T.);
#180=CARTESIAN_POINT('',(0.,-6.25,0.));
#181=VERTEX_POINT('',#180);
#182=CARTESIAN_POINT('',(25.,-6.25,0.));
#183=CARTESIAN_POINT('',(0.,-6.25,0.));
#184=B_SPLINE_CURVE_WITH_KNOTS('',1,(#182,#183),.UNSPECIFIED.,.F.,.F.,(2,2),(0.,0.025),.UNSPECIFIED.);
#185=EDGE_CURVE('',#171,#181,#184,.T.);
#186=ORIENTED_EDGE('',*,*,#185,.T.);
#187=CARTESIAN_POINT('',(0.,6.25,0.));
#188=CARTESIAN_POINT('',(-3.608439182,6.25,0.));
#189=CARTESIAN_POINT('',(-5.412658774,3.125,0.));
#190=CARTESIAN_POINT('',(-7.216878365,0.,0.));
#191=CARTESIAN_POINT('',(-5.412658774,-3.125,0.));
#192=CARTESIAN_POINT('',(-3.608439182,-6.25,0.));
#193=CARTESIAN_POINT('',(-0.,-6.25,0.));
#194=(BOUNDED_CURVE()
B_SPLINE_CURVE(2,(#187,#188,#189,#190,#191,#192,#193),.UNSPECIFIED.,.F.,.F.)
B_SPLINE_CURVE_WITH_KNOTS((3,2,2,3),(5.944031623,6.991229175,8.038426726,9.085624277),.UNSPECIFIED.)
CURVE()
GEOMETRIC_REPRESENTATION_ITEM()
RATIONAL_B_SPLINE_CURVE((1.,0.866025404,1.,0.866025404,1.,0.866025404,1.))
REPRESENTATION_ITEM(''));
#195=EDGE_CURVE('',#152,#181,#194,.T.);
#196=ORIENTED_EDGE('',*,*,#195,.F.);
#197=EDGE_LOOP('',(#159,#169,#179,#186,#196));
#198=FACE_BOUND('',#197,.T.);
#199=ADVANCED_FACE('',(#150,#198),#100,.F.);
#200=CARTESIAN_POINT('',(0.,-6.25,4.));
#201=CARTESIAN_POINT('',(25.,-6.25,4.));
#202=CARTESIAN_POINT('',(0.,-6.25,0.));
#203=CARTESIAN_POINT('',(25.,-6.25,0.));
#204=B_SPLINE_SURFACE_WITH_KNOTS('',1,1,((#200,#201),(#202,#203)),.UNSPECIFIED.,.F.,.F.,.U.,(2,2),(2,2),(-0.001,0.003),(-0.025,0.),.UNSPECIFIED.);
#205=ORIENTED_EDGE('',*,*,#185,.F.);
#206=CARTESIAN_POINT('',(25.,-6.25,0.875));
#207=VERTEX_POINT('',#206);
#208=CARTESIAN_POINT('',(25.,-6.25,0.875));
#209=CARTESIAN_POINT('',(25.,-6.25,0.));
#210=B_SPLINE_CURVE_WITH_KNOTS('',1,(#208,#209),.UNSPECIFIED.,.F.,.F.,(2,2),(0.002125,0.003),.UNSPECIFIED.);
#211=EDGE_CURVE('',#207,#171,#210,.T.);
#212=ORIENTED_EDGE('',*,*,#211,.F.);
#213=CARTESIAN_POINT('',(25.,-6.25,4.));
#214=VERTEX_POINT('',#213);
#215=CARTESIAN_POINT('',(25.,-6.25,4.));
#216=CARTESIAN_POINT('',(25.,-6.25,0.875));
#217=B_SPLINE_CURVE_WITH_KNOTS('',1,(#215,#216),.UNSPECIFIED.,.F.,.F.,(2,2),(-0.001,0.002125),.UNSPECIFIED.);
#218=EDGE_CURVE('',#214,#207,#217,.T.);
#219=ORIENTED_EDGE('',*,*,#218,.F.);
#220=CARTESIAN_POINT('',(0.,-6.25,4.));
#221=VERTEX_POINT('',#220);
#222=CARTESIAN_POINT('',(25.,-6.25,4.));
#223=CARTESIAN_POINT('',(0.,-6.25,4.));
#224=B_SPLINE_CURVE_WITH_KNOTS('',1,(#222,#223),.UNSPECIFIED.,.F.,.F.,(2,2),(0.,0.025),.UNSPECIFIED.);
#225=EDGE_CURVE('',#214,#221,#224,.T.);
#226=ORIENTED_EDGE('',*,*,#225,.T.);
#227=CARTESIAN_POINT('',(0.,-6.25,4.));
#228=CARTESIAN_POINT('',(0.,-6.25,0.));
#229=B_SPLINE_CURVE_WITH_KNOTS('',1,(#227,#228),.UNSPECIFIED.,.F.,.F.,(2,2),(-0.001,0.003),.UNSPECIFIED.);
#230=EDGE_CURVE('',#221,#181,#229,.T.);
#231=ORIENTED_EDGE('',*,*,#230,.T.);
#232=EDGE_LOOP('',(#205,#212,#219,#226,#231));
#233=FACE_BOUND('',#232,.T.);
#234=ADVANCED_FACE('',(#233),#204,.T.);
#235=CARTESIAN_POINT('',(25.,6.25,4.));
#236=CARTESIAN_POINT('',(25.,6.25,0.875));
#237=CARTESIAN_POINT('',(35.825317547,6.25,4.));
#238=CARTESIAN_POINT('',(35.825317547,6.25,0.875));
#239=CARTESIAN_POINT('',(30.412658774,-3.125,4.));
#240=CARTESIAN_POINT('',(30.412658774,-3.125,0.875));
#241=CARTESIAN_POINT('',(28.608439182,-6.25,4.));
#242=CARTESIAN_POINT('',(28.608439182,-6.25,0.875));
#243=CARTESIAN_POINT('',(25.,-6.25,4.));
#244=CARTESIAN_POINT('',(25.,-6.25,0.875));
#245=(BOUNDED_SURFACE()
B_SPLINE_SURFACE(2,1,((#235,#236),(#237,#238),(#239,#240),(#241,#242),(#243,#244)),.UNSPECIFIED.,.F.,.F.,.U.)
B_SPLINE_SURFACE_WITH_KNOTS((3,2,3),(2,2),(0.,2.094395102,3.141592654),(-0.001,0.002125),.UNSPECIFIED.)
GEOMETRIC_REPRESENTATION_ITEM()
RATIONAL_B_SPLINE_SURFACE(((1.,1.),(0.5,0.5),(1.,1.),(0.75,0.75),(0.75,0.75)))
REPRESENTATION_ITEM('')
SURFACE()
);
#246=ORIENTED_EDGE('',*,*,#218,.T.);
#247=CARTESIAN_POINT('',(25.,6.25,0.875));
#248=VERTEX_POINT('',#247);
#249=CARTESIAN_POINT('',(25.,-6.25,0.875));
#250=CARTESIAN_POINT('',(31.25,-6.25,0.875));
#251=CARTESIAN_POINT('',(31.25,-0.,0.875));
#252=CARTESIAN_POINT('',(31.25,6.25,0.875));
#253=CARTESIAN_POINT('',(25.,6.25,0.875));
#254=(BOUNDED_CURVE()
B_SPLINE_CURVE(2,(#249,#250,#251,#252,#253),.UNSPECIFIED.,.F.,.F.)
B_SPLINE_CURVE_WITH_KNOTS((3,2,3),(3.141592654,4.71238898,6.283185307),.UNSPECIFIED.)
CURVE()
GEOMETRIC_REPRESENTATION_ITEM()
RATIONAL_B_SPLINE_CURVE((1.,0.707106781,1.,0.707106781,1.))
REPRESENTATION_ITEM(''));
#255=EDGE_CURVE('',#207,#248,#254,.T.);
#256=ORIENTED_EDGE('',*,*,#255,.T.);
#257=CARTESIAN_POINT('',(25.,6.25,4.));
#258=VERTEX_POINT('',#257);
#259=CARTESIAN_POINT('',(25.,6.25,4.));
#260=CARTESIAN_POINT('',(25.,6.25,0.875));
#261=B_SPLINE_CURVE_WITH_KNOTS('',1,(#259,#260),.UNSPECIFIED.,.F.,.F.,(2,2),(-0.001,0.002125),.UNSPECIFIED.);
#262=EDGE_CURVE('',#258,#248,#261,.T.);
#263=ORIENTED_EDGE('',*,*,#262,.F.);
#264=CARTESIAN_POINT('',(25.,-6.25,4.));
#265=CARTESIAN_POINT('',(31.25,-6.25,4.));
#266=CARTESIAN_POINT('',(31.25,-0.,4.));
#267=CARTESIAN_POINT('',(31.25,6.25,4.));
#268=CARTESIAN_POINT('',(25.,6.25,4.));
#269=(BOUNDED_CURVE()
B_SPLINE_CURVE(2,(#264,#265,#266,#267,#268),.UNSPECIFIED.,.F.,.F.)
B_SPLINE_CURVE_WITH_KNOTS((3,2,3),(4.71238898,6.283185307,7.853981634),.UNSPECIFIED.)
CURVE()
GEOMETRIC_REPRESENTATION_ITEM()
RATIONAL_B_SPLINE_CURVE((1.,0.707106781,1.,0.707106781,1.))
REPRESENTATION_ITEM(''));
#270=EDGE_CURVE('',#214,#258,#269,.T.);
#271=ORIENTED_EDGE('',*,*,#270,.F.);
#272=EDGE_LOOP('',(#246,#256,#263,#271));
#273=FACE_BOUND('',#272,.T.);
#274=ADVANCED_FACE('',(#273),#245,.T.);
#275=CARTESIAN_POINT('',(-0.,6.25,0.));
#276=CARTESIAN_POINT('',(25.,6.25,0.));
#277=CARTESIAN_POINT('',(-0.,6.25,4.));
#278=CARTESIAN_POINT('',(25.,6.25,4.));
#279=B_SPLINE_SURFACE_WITH_KNOTS('',1,1,((#275,#276),(#277,#278)),.UNSPECIFIED.,.F.,.F.,.U.,(2,2),(2,2),(-0.003,0.001),(-0.,0.025),.UNSPECIFIED.);
#280=ORIENTED_EDGE('',*,*,#158,.F.);
#281=CARTESIAN_POINT('',(-0.,6.25,4.));
#282=VERTEX_POINT('',#281);
#283=CARTESIAN_POINT('',(-0.,6.25,4.));
#284=CARTESIAN_POINT('',(-0.,6.25,0.));
#285=B_SPLINE_CURVE_WITH_KNOTS('',1,(#283,#284),.UNSPECIFIED.,.F.,.F.,(2,2),(-0.001,0.003),.UNSPECIFIED.);
#286=EDGE_CURVE('',#282,#152,#285,.T.);
#287=ORIENTED_EDGE('',*,*,#286,.F.);
#288=CARTESIAN_POINT('',(-0.,6.25,4.));
#289=CARTESIAN_POINT('',(25.,6.25,4.));
#290=B_SPLINE_CURVE_WITH_KNOTS('',1,(#288,#289),.UNSPECIFIED.,.F.,.F.,(2,2),(-0.,0.025),.UNSPECIFIED.);
#291=EDGE_CURVE('',#282,#258,#290,.T.);
#292=ORIENTED_EDGE('',*,*,#291,.T.);
#293=ORIENTED_EDGE('',*,*,#262,.T.);
#294=CARTESIAN_POINT('',(25.,6.25,0.875));
#295=CARTESIAN_POINT('',(25.,6.25,0.));
#296=B_SPLINE_CURVE_WITH_KNOTS('',1,(#294,#295),.UNSPECIFIED.,.F.,.F.,(2,2),(0.002125,0.003),.UNSPECIFIED.);
#297=EDGE_CURVE('',#248,#154,#296,.T.);
#298=ORIENTED_EDGE('',*,*,#297,.T.);
#299=EDGE_LOOP('',(#280,#287,#292,#293,#298));
#300=FACE_BOUND('',#299,.T.);
#301=ADVANCED_FACE('',(#300),#279,.T.);
#302=CARTESIAN_POINT('',(0.,-6.25,4.));
#303=CARTESIAN_POINT('',(0.,-6.25,-0.));
#304=CARTESIAN_POINT('',(-3.608439182,-6.25,4.));
#305=CARTESIAN_POINT('',(-3.608439182,-6.25,-0.));
#306=CARTESIAN_POINT('',(-5.412658774,-3.125,4.));
#307=CARTESIAN_POINT('',(-5.412658774,-3.125,-0.));
#308=CARTESIAN_POINT('',(-10.825317547,6.25,4.));
#309=CARTESIAN_POINT('',(-10.825317547,6.25,-0.));
#310=CARTESIAN_POINT('',(-0.,6.25,4.));
#311=CARTESIAN_POINT('',(-0.,6.25,-0.));
#312=(BOUNDED_SURFACE()
B_SPLINE_SURFACE(2,1,((#302,#303),(#304,#305),(#306,#307),(#308,#309),(#310,#311)),.UNSPECIFIED.,.F.,.F.,.U.)
B_SPLINE_SURFACE_WITH_KNOTS((3,2,3),(2,2),(3.141592654,4.188790205,6.283185307),(-0.001,0.003),.UNSPECIFIED.)
GEOMETRIC_REPRESENTATION_ITEM()
RATIONAL_B_SPLINE_SURFACE(((0.75,0.75),(0.75,0.75),(1.,1.),(0.5,0.5),(1.,1.)))
REPRESENTATION_ITEM('')
SURFACE()
);
#313=ORIENTED_EDGE('',*,*,#195,.T.);
#314=ORIENTED_EDGE('',*,*,#230,.F.);
#315=CARTESIAN_POINT('',(-0.,6.25,4.));
#316=CARTESIAN_POINT('',(-6.25,6.25,4.));
#317=CARTESIAN_POINT('',(-6.25,0.,4.));
#318=CARTESIAN_POINT('',(-6.25,-6.25,4.));
#319=CARTESIAN_POINT('',(-0.,-6.25,4.));
#320=(BOUNDED_CURVE()
B_SPLINE_CURVE(2,(#315,#316,#317,#318,#319),.UNSPECIFIED.,.F.,.F.)
B_SPLINE_CURVE_WITH_KNOTS((3,2,3),(1.570796327,3.141592654,4.71238898),.UNSPECIFIED.)
CURVE()
GEOMETRIC_REPRESENTATION_ITEM()
RATIONAL_B_SPLINE_CURVE((1.,0.707106781,1.,0.707106781,1.))
REPRESENTATION_ITEM(''));
#321=EDGE_CURVE('',#282,#221,#320,.T.);
#322=ORIENTED_EDGE('',*,*,#321,.F.);
#323=ORIENTED_EDGE('',*,*,#286,.T.);
#324=EDGE_LOOP('',(#313,#314,#322,#323));
#325=FACE_BOUND('',#324,.T.);
#326=ADVANCED_FACE('',(#325),#312,.T.);
#327=CARTESIAN_POINT('',(25.,3.5,4.));
#328=CARTESIAN_POINT('',(25.,3.5,0.875));
#329=CARTESIAN_POINT('',(31.062177826,3.5,4.));
#330=CARTESIAN_POINT('',(31.062177826,3.5,0.875));
#331=CARTESIAN_POINT('',(28.031088913,-1.75,4.));
#332=CARTESIAN_POINT('',(28.031088913,-1.75,0.875));
#333=CARTESIAN_POINT('',(25.,-7.,4.));
#334=CARTESIAN_POINT('',(25.,-7.,0.875));
#335=CARTESIAN_POINT('',(21.968911087,-1.75,4.));
#336=CARTESIAN_POINT('',(21.968911087,-1.75,0.875));
#337=CARTESIAN_POINT('',(18.937822174,3.5,4.));
#338=CARTESIAN_POINT('',(18.937822174,3.5,0.875));
#339=CARTESIAN_POINT('',(25.,3.5,4.));
#340=CARTESIAN_POINT('',(25.,3.5,0.875));
#341=(BOUNDED_SURFACE()
B_SPLINE_SURFACE(2,1,((#327,#328),(#329,#330),(#331,#332),(#333,#334),(#335,#336),(#337,#338),(#339,#340)),.UNSPECIFIED.,.T.,.F.,.U.)
B_SPLINE_SURFACE_WITH_KNOTS((3,2,2,3),(2,2),(0.,2.094395102,4.188790205,6.283185307),(-0.001,0.002125),.UNSPECIFIED.)
GEOMETRIC_REPRESENTATION_ITEM()
RATIONAL_B_SPLINE_SURFACE(((1.,1.),(0.5,0.5),(1.,1.),(0.5,0.5),(1.,1.),(0.5,0.5),(1.,1.)))
REPRESENTATION_ITEM('')
SURFACE()
);
#342=CARTESIAN_POINT('',(25.,3.5,0.875));
#343=VERTEX_POINT('',#342);
#344=CARTESIAN_POINT('',(25.,3.5,4.));
#345=VERTEX_POINT('',#344);
#346=CARTESIAN_POINT('',(25.,3.5,0.875));
#347=CARTESIAN_POINT('',(25.,3.5,4.));
#348=B_SPLINE_CURVE_WITH_KNOTS('',1,(#346,#347),.UNSPECIFIED.,.F.,.F.,(2,2),(-0.001,0.002125),.UNSPECIFIED.);
#349=EDGE_CURVE('',#343,#345,#348,.T.);
#350=ORIENTED_EDGE('',*,*,#349,.F.);
#351=CARTESIAN_POINT('',(28.5,-0.,0.875));
#352=VERTEX_POINT('',#351);
#353=CARTESIAN_POINT('',(28.5,-0.,0.875));
#354=CARTESIAN_POINT('',(28.5,-3.5,0.875));
#355=CARTESIAN_POINT('',(25.,-3.5,0.875));
#356=CARTESIAN_POINT('',(21.5,-3.5,0.875));
#357=CARTESIAN_POINT('',(21.5,0.,0.875));
#358=CARTESIAN_POINT('',(21.5,3.5,0.875));
#359=CARTESIAN_POINT('',(25.,3.5,0.875));
#360=CARTESIAN_POINT('',(28.5,3.5,0.875));
#361=CARTESIAN_POINT('',(28.5,-0.,0.875));
#362=(BOUNDED_CURVE()
B_SPLINE_CURVE(2,(#353,#354,#355,#356,#357,#358,#359,#360,#361),.UNSPECIFIED.,.T.,.F.)
B_SPLINE_CURVE_WITH_KNOTS((3,2,2,2,3),(0.,1.570796327,3.141592654,4.71238898,6.283185307),.UNSPECIFIED.)
CURVE()
GEOMETRIC_REPRESENTATION_ITEM()
RATIONAL_B_SPLINE_CURVE((1.,0.707106781,1.,0.707106781,1.,0.707106781,1.,0.707106781,1.))
REPRESENTATION_ITEM(''));
#363=EDGE_CURVE('',#343,#352,#362,.T.);
#364=ORIENTED_EDGE('',*,*,#363,.T.);
#365=CARTESIAN_POINT('',(28.5,-0.,0.875));
#366=CARTESIAN_POINT('',(28.5,-3.5,0.875));
#367=CARTESIAN_POINT('',(25.,-3.5,0.875));
#368=CARTESIAN_POINT('',(21.5,-3.5,0.875));
#369=CARTESIAN_POINT('',(21.5,0.,0.875));
#370=CARTESIAN_POINT('',(21.5,3.5,0.875));
#371=CARTESIAN_POINT('',(25.,3.5,0.875));
#372=CARTESIAN_POINT('',(28.5,3.5,0.875));
#373=CARTESIAN_POINT('',(28.5,-0.,0.875));
#374=(BOUNDED_CURVE()
B_SPLINE_CURVE(2,(#365,#366,#367,#368,#369,#370,#371,#372,#373),.UNSPECIFIED.,.T.,.F.)
B_SPLINE_CURVE_WITH_KNOTS((3,2,2,2,3),(0.,1.570796327,3.141592654,4.71238898,6.283185307),.UNSPECIFIED.)
CURVE()
GEOMETRIC_REPRESENTATION_ITEM()
RATIONAL_B_SPLINE_CURVE((1.,0.707106781,1.,0.707106781,1.,0.707106781,1.,0.707106781,1.))
REPRESENTATION_ITEM(''));
#375=EDGE_CURVE('',#352,#343,#374,.T.);
#376=ORIENTED_EDGE('',*,*,#375,.T.);
#377=ORIENTED_EDGE('',*,*,#349,.T.);
#378=CARTESIAN_POINT('',(28.5,-0.,4.));
#379=VERTEX_POINT('',#378);
#380=CARTESIAN_POINT('',(28.5,-0.,4.));
#381=CARTESIAN_POINT('',(28.5,-3.5,4.));
#382=CARTESIAN_POINT('',(25.,-3.5,4.));
#383=CARTESIAN_POINT('',(21.5,-3.5,4.));
#384=CARTESIAN_POINT('',(21.5,0.,4.));
#385=CARTESIAN_POINT('',(21.5,3.5,4.));
#386=CARTESIAN_POINT('',(25.,3.5,4.));
#387=CARTESIAN_POINT('',(28.5,3.5,4.));
#388=CARTESIAN_POINT('',(28.5,0.,4.));
#389=(BOUNDED_CURVE()
B_SPLINE_CURVE(2,(#380,#381,#382,#383,#384,#385,#386,#387,#388),.UNSPECIFIED.,.T.,.F.)
B_SPLINE_CURVE_WITH_KNOTS((3,2,2,2,3),(0.,1.570796327,3.141592654,4.71238898,6.283185307),.UNSPECIFIED.)
CURVE()
GEOMETRIC_REPRESENTATION_ITEM()
RATIONAL_B_SPLINE_CURVE((1.,0.707106781,1.,0.707106781,1.,0.707106781,1.,0.707106781,1.))
REPRESENTATION_ITEM(''));
#390=EDGE_CURVE('',#379,#345,#389,.T.);
#391=ORIENTED_EDGE('',*,*,#390,.F.);
#392=CARTESIAN_POINT('',(28.5,-0.,4.));
#393=CARTESIAN_POINT('',(28.5,-3.5,4.));
#394=CARTESIAN_POINT('',(25.,-3.5,4.));
#395=CARTESIAN_POINT('',(21.5,-3.5,4.));
#396=CARTESIAN_POINT('',(21.5,0.,4.));
#397=CARTESIAN_POINT('',(21.5,3.5,4.));
#398=CARTESIAN_POINT('',(25.,3.5,4.));
#399=CARTESIAN_POINT('',(28.5,3.5,4.));
#400=CARTESIAN_POINT('',(28.5,0.,4.));
#401=(BOUNDED_CURVE()
B_SPLINE_CURVE(2,(#392,#393,#394,#395,#396,#397,#398,#399,#400),.UNSPECIFIED.,.T.,.F.)
B_SPLINE_CURVE_WITH_KNOTS((3,2,2,2,3),(0.,1.570796327,3.141592654,4.71238898,6.283185307),.UNSPECIFIED.)
CURVE()
GEOMETRIC_REPRESENTATION_ITEM()
RATIONAL_B_SPLINE_CURVE((1.,0.707106781,1.,0.707106781,1.,0.707106781,1.,0.707106781,1.))
REPRESENTATION_ITEM(''));
#402=EDGE_CURVE('',#345,#379,#401,.T.);
#403=ORIENTED_EDGE('',*,*,#402,.F.);
#404=EDGE_LOOP('',(#350,#364,#376,#377,#391,#403));
#405=FACE_BOUND('',#404,.T.);
#406=ADVANCED_FACE('',(#405),#341,.F.);
#407=CARTESIAN_POINT('',(-6.25,-6.25,4.));
#408=CARTESIAN_POINT('',(-6.25,6.25,4.));
#409=CARTESIAN_POINT('',(31.25,-6.25,4.));
#410=CARTESIAN_POINT('',(31.25,6.25,4.));
#411=B_SPLINE_SURFACE_WITH_KNOTS('',1,1,((#407,#408),(#409,#410)),.UNSPECIFIED.,.F.,.F.,.U.,(2,2),(2,2),(-0.00625,0.03125),(-0.00625,0.00625),.UNSPECIFIED.);
#412=CARTESIAN_POINT('',(2.75,0.,4.));
#413=VERTEX_POINT('',#412);
#414=CARTESIAN_POINT('',(-0.,2.75,4.));
#415=VERTEX_POINT('',#414);
#416=CARTESIAN_POINT('',(2.75,0.,4.));
#417=CARTESIAN_POINT('',(2.75,-2.75,4.));
#418=CARTESIAN_POINT('',(-0.,-2.75,4.));
#419=CARTESIAN_POINT('',(-2.75,-2.75,4.));
#420=CARTESIAN_POINT('',(-2.75,0.,4.));
#421=CARTESIAN_POINT('',(-2.75,2.75,4.));
#422=CARTESIAN_POINT('',(-0.,2.75,4.));
#423=CARTESIAN_POINT('',(2.75,2.75,4.));
#424=CARTESIAN_POINT('',(2.75,0.,4.));
#425=(BOUNDED_CURVE()
B_SPLINE_CURVE(2,(#416,#417,#418,#419,#420,#421,#422,#423,#424),.UNSPECIFIED.,.T.,.F.)
B_SPLINE_CURVE_WITH_KNOTS((3,2,2,2,3),(0.,1.570796327,3.141592654,4.71238898,6.283185307),.UNSPECIFIED.)
CURVE()
GEOMETRIC_REPRESENTATION_ITEM()
RATIONAL_B_SPLINE_CURVE((1.,0.707106781,1.,0.707106781,1.,0.707106781,1.,0.707106781,1.))
REPRESENTATION_ITEM(''));
#426=EDGE_CURVE('',#413,#415,#425,.T.);
#427=ORIENTED_EDGE('',*,*,#426,.T.);
#428=CARTESIAN_POINT('',(2.75,0.,4.));
#429=CARTESIAN_POINT('',(2.75,-2.75,4.));
#430=CARTESIAN_POINT('',(-0.,-2.75,4.));
#431=CARTESIAN_POINT('',(-2.75,-2.75,4.));
#432=CARTESIAN_POINT('',(-2.75,0.,4.));
#433=CARTESIAN_POINT('',(-2.75,2.75,4.));
#434=CARTESIAN_POINT('',(-0.,2.75,4.));
#435=CARTESIAN_POINT('',(2.75,2.75,4.));
#436=CARTESIAN_POINT('',(2.75,0.,4.));
#437=(BOUNDED_CURVE()
B_SPLINE_CURVE(2,(#428,#429,#430,#431,#432,#433,#434,#435,#436),.UNSPECIFIED.,.T.,.F.)
B_SPLINE_CURVE_WITH_KNOTS((3,2,2,2,3),(0.,1.570796327,3.141592654,4.71238898,6.283185307),.UNSPECIFIED.)
CURVE()
GEOMETRIC_REPRESENTATION_ITEM()
RATIONAL_B_SPLINE_CURVE((1.,0.707106781,1.,0.707106781,1.,0.707106781,1.,0.707106781,1.))
REPRESENTATION_ITEM(''));
#438=EDGE_CURVE('',#415,#413,#437,.T.);
#439=ORIENTED_EDGE('',*,*,#438,.T.);
#440=EDGE_LOOP('',(#427,#439));
#441=FACE_BOUND('',#440,.T.);
#442=ORIENTED_EDGE('',*,*,#225,.F.);
#443=ORIENTED_EDGE('',*,*,#270,.T.);
#444=ORIENTED_EDGE('',*,*,#291,.F.);
#445=ORIENTED_EDGE('',*,*,#321,.T.);
#446=EDGE_LOOP('',(#442,#443,#444,#445));
#447=FACE_BOUND('',#446,.T.);
#448=ORIENTED_EDGE('',*,*,#390,.T.);
#449=ORIENTED_EDGE('',*,*,#402,.T.);
#450=EDGE_LOOP('',(#448,#449));
#451=FACE_BOUND('',#450,.T.);
#452=ADVANCED_FACE('',(#441,#447,#451),#411,.T.);
#453=CARTESIAN_POINT('',(15.787981813,-2.543061765,0.));
#454=CARTESIAN_POINT('',(15.787981813,-2.543061765,3.2));
#455=CARTESIAN_POINT('',(0.272756396,-3.689932784,0.));
#456=CARTESIAN_POINT('',(0.272756396,-3.689932784,3.2));
#457=B_SPLINE_SURFACE_WITH_KNOTS('',1,1,((#453,#454),(#455,#456)),.UNSPECIFIED.,.F.,.F.,.U.,(2,2),(2,2),(-0.015557555,0.),(-0.0021,0.0011),.UNSPECIFIED.);
#458=ORIENTED_EDGE('',*,*,#139,.F.);
#459=CARTESIAN_POINT('',(0.272756396,-3.689932784,3.2));
#460=VERTEX_POINT('',#459);
#461=CARTESIAN_POINT('',(0.272756396,-3.689932784,3.2));
#462=CARTESIAN_POINT('',(0.272756396,-3.689932784,0.));
#463=B_SPLINE_CURVE_WITH_KNOTS('',1,(#461,#462),.UNSPECIFIED.,.F.,.F.,(2,2),(0.,0.0032),.UNSPECIFIED.);
#464=EDGE_CURVE('',#460,#123,#463,.T.);
#465=ORIENTED_EDGE('',*,*,#464,.F.);
#466=CARTESIAN_POINT('',(4.999456785,-3.340539491,3.2));
#467=VERTEX_POINT('',#466);
#468=CARTESIAN_POINT('',(0.272756396,-3.689932784,3.2));
#469=CARTESIAN_POINT('',(4.999456785,-3.340539491,3.2));
#470=B_SPLINE_CURVE_WITH_KNOTS('',1,(#468,#469),.UNSPECIFIED.,.F.,.F.,(2,2),(-0.,0.004739596),.UNSPECIFIED.);
#471=EDGE_CURVE('',#460,#467,#470,.T.);
#472=ORIENTED_EDGE('',*,*,#471,.T.);
#473=CARTESIAN_POINT('',(4.999456785,-3.340539491,2.1));
#474=VERTEX_POINT('',#473);
#475=CARTESIAN_POINT('',(4.999456785,-3.340539491,3.2));
#476=CARTESIAN_POINT('',(4.999456785,-3.340539491,2.1));
#477=B_SPLINE_CURVE_WITH_KNOTS('',1,(#475,#476),.UNSPECIFIED.,.F.,.F.,(2,2),(0.,0.0011),.UNSPECIFIED.);
#478=EDGE_CURVE('',#467,#474,#477,.T.);
#479=ORIENTED_EDGE('',*,*,#478,.T.);
#480=CARTESIAN_POINT('',(15.787981813,-2.543061765,2.1));
#481=VERTEX_POINT('',#480);
#482=CARTESIAN_POINT('',(4.999456785,-3.340539491,2.1));
#483=CARTESIAN_POINT('',(15.787981813,-2.543061765,2.1));
#484=B_SPLINE_CURVE_WITH_KNOTS('',1,(#482,#483),.UNSPECIFIED.,.F.,.F.,(2,2),(0.004739596,0.015557555),.UNSPECIFIED.);
#485=EDGE_CURVE('',#474,#481,#484,.T.);
#486=ORIENTED_EDGE('',*,*,#485,.T.);
#487=CARTESIAN_POINT('',(15.787981813,-2.543061765,2.1));
#488=CARTESIAN_POINT('',(15.787981813,-2.543061765,0.));
#489=B_SPLINE_CURVE_WITH_KNOTS('',1,(#487,#488),.UNSPECIFIED.,.F.,.F.,(2,2),(0.,0.0021),.UNSPECIFIED.);
#490=EDGE_CURVE('',#481,#135,#489,.T.);
#491=ORIENTED_EDGE('',*,*,#490,.T.);
#492=EDGE_LOOP('',(#458,#465,#472,#479,#486,#491));
#493=FACE_BOUND('',#492,.T.);
#494=ADVANCED_FACE('',(#493),#457,.T.);
#495=CARTESIAN_POINT('',(15.787981815,2.543061801,2.1));
#496=CARTESIAN_POINT('',(15.787981815,2.543061801,-0.));
#497=CARTESIAN_POINT('',(19.839804408,2.243554843,2.1));
#498=CARTESIAN_POINT('',(19.839804408,2.243554843,-0.));
#499=CARTESIAN_POINT('',(17.808365833,-1.274999982,2.1));
#500=CARTESIAN_POINT('',(17.808365833,-1.274999982,-0.));
#501=CARTESIAN_POINT('',(17.133680673,-2.443588958,2.1));
#502=CARTESIAN_POINT('',(17.133680673,-2.443588958,-0.));
#503=CARTESIAN_POINT('',(15.787981813,-2.543061765,2.1));
#504=CARTESIAN_POINT('',(15.787981813,-2.543061765,-0.));
#505=(BOUNDED_SURFACE()
B_SPLINE_SURFACE(2,1,((#495,#496),(#497,#498),(#499,#500),(#501,#502),(#503,#504)),.UNSPECIFIED.,.F.,.F.,.U.)
B_SPLINE_SURFACE_WITH_KNOTS((3,2,3),(2,2),(0.087398718,2.094395102,3.074646797),(-0.,0.0021),.UNSPECIFIED.)
GEOMETRIC_REPRESENTATION_ITEM()
RATIONAL_B_SPLINE_SURFACE(((0.960011564,0.960011564),(0.520864907,0.520864907),(1.,1.),(0.765982146,0.765982146),(0.751021716,0.751021716)))
REPRESENTATION_ITEM('')
SURFACE()
);
#506=ORIENTED_EDGE('',*,*,#147,.F.);
#507=ORIENTED_EDGE('',*,*,#490,.F.);
#508=CARTESIAN_POINT('',(15.787981813,2.543061765,2.1));
#509=VERTEX_POINT('',#508);
#510=CARTESIAN_POINT('',(15.787981813,-2.543061765,2.1));
#511=CARTESIAN_POINT('',(18.150001052,-2.368463502,2.1));
#512=CARTESIAN_POINT('',(18.150001053,0.000000017,2.1));
#513=CARTESIAN_POINT('',(18.150001055,2.368463536,2.1));
#514=CARTESIAN_POINT('',(15.787981815,2.543061801,2.1));
#515=(BOUNDED_CURVE()
B_SPLINE_CURVE(2,(#510,#511,#512,#513,#514),.UNSPECIFIED.,.F.,.F.)
B_SPLINE_CURVE_WITH_KNOTS((3,2,3),(3.510823188,5.007834638,6.504846087),.UNSPECIFIED.)
CURVE()
GEOMETRIC_REPRESENTATION_ITEM()
RATIONAL_B_SPLINE_CURVE((1.,0.732706608,1.,0.732706608,1.))
REPRESENTATION_ITEM(''));
#516=EDGE_CURVE('',#481,#509,#515,.T.);
#517=ORIENTED_EDGE('',*,*,#516,.T.);
#518=CARTESIAN_POINT('',(15.787981813,2.543061765,2.1));
#519=CARTESIAN_POINT('',(15.787981813,2.543061765,0.));
#520=B_SPLINE_CURVE_WITH_KNOTS('',1,(#518,#519),.UNSPECIFIED.,.F.,.F.,(2,2),(0.,0.0021),.UNSPECIFIED.);
#521=EDGE_CURVE('',#509,#104,#520,.T.);
#522=ORIENTED_EDGE('',*,*,#521,.T.);
#523=EDGE_LOOP('',(#506,#507,#517,#522));
#524=FACE_BOUND('',#523,.T.);
#525=ADVANCED_FACE('',(#524),#505,.F.);
#526=CARTESIAN_POINT('',(15.787981813,2.543061765,0.));
#527=CARTESIAN_POINT('',(15.787981813,2.543061765,3.2));
#528=CARTESIAN_POINT('',(0.272756396,3.689932784,0.));
#529=CARTESIAN_POINT('',(0.272756396,3.689932784,3.2));
#530=B_SPLINE_SURFACE_WITH_KNOTS('',1,1,((#526,#527),(#528,#529)),.UNSPECIFIED.,.F.,.F.,.U.,(2,2),(2,2),(-0.015557555,0.),(-0.0021,0.0011),.UNSPECIFIED.);
#531=ORIENTED_EDGE('',*,*,#108,.T.);
#532=ORIENTED_EDGE('',*,*,#521,.F.);
#533=CARTESIAN_POINT('',(4.999456785,3.340539491,2.1));
#534=VERTEX_POINT('',#533);
#535=CARTESIAN_POINT('',(4.999456785,3.340539491,2.1));
#536=CARTESIAN_POINT('',(15.787981813,2.543061765,2.1));
#537=B_SPLINE_CURVE_WITH_KNOTS('',1,(#535,#536),.UNSPECIFIED.,.F.,.F.,(2,2),(0.004739596,0.015557555),.UNSPECIFIED.);
#538=EDGE_CURVE('',#534,#509,#537,.T.);
#539=ORIENTED_EDGE('',*,*,#538,.F.);
#540=CARTESIAN_POINT('',(4.999456785,3.340539491,3.2));
#541=VERTEX_POINT('',#540);
#542=CARTESIAN_POINT('',(4.999456785,3.340539491,3.2));
#543=CARTESIAN_POINT('',(4.999456785,3.340539491,2.1));
#544=B_SPLINE_CURVE_WITH_KNOTS('',1,(#542,#543),.UNSPECIFIED.,.F.,.F.,(2,2),(0.,0.0011),.UNSPECIFIED.);
#545=EDGE_CURVE('',#541,#534,#544,.T.);
#546=ORIENTED_EDGE('',*,*,#545,.F.);
#547=CARTESIAN_POINT('',(0.272756396,3.689932784,3.2));
#548=VERTEX_POINT('',#547);
#549=CARTESIAN_POINT('',(0.272756396,3.689932784,3.2));
#550=CARTESIAN_POINT('',(4.999456785,3.340539491,3.2));
#551=B_SPLINE_CURVE_WITH_KNOTS('',1,(#549,#550),.UNSPECIFIED.,.F.,.F.,(2,2),(0.,0.004739596),.UNSPECIFIED.);
#552=EDGE_CURVE('',#548,#541,#551,.T.);
#553=ORIENTED_EDGE('',*,*,#552,.F.);
#554=CARTESIAN_POINT('',(0.272756396,3.689932784,3.2));
#555=CARTESIAN_POINT('',(0.272756396,3.689932784,0.));
#556=B_SPLINE_CURVE_WITH_KNOTS('',1,(#554,#555),.UNSPECIFIED.,.F.,.F.,(2,2),(0.,0.0032),.UNSPECIFIED.);
#557=EDGE_CURVE('',#548,#102,#556,.T.);
#558=ORIENTED_EDGE('',*,*,#557,.T.);
#559=EDGE_LOOP('',(#531,#532,#539,#546,#553,#558));
#560=FACE_BOUND('',#559,.T.);
#561=ADVANCED_FACE('',(#560),#530,.F.);
#562=CARTESIAN_POINT('',(4.999456785,-3.340539491,2.1));
#563=CARTESIAN_POINT('',(4.999456785,3.340539491,2.1));
#564=CARTESIAN_POINT('',(18.150001055,-3.340539491,2.1));
#565=CARTESIAN_POINT('',(18.150001055,3.340539491,2.1));
#566=B_SPLINE_SURFACE_WITH_KNOTS('',1,1,((#562,#563),(#564,#565)),.UNSPECIFIED.,.F.,.F.,.U.,(2,2),(2,2),(0.004999457,0.018150001),(-0.003340539,0.003340539),.UNSPECIFIED.);
#567=CARTESIAN_POINT('',(4.999456785,-3.340539491,2.1));
#568=CARTESIAN_POINT('',(4.999456785,3.340539491,2.1));
#569=B_SPLINE_CURVE_WITH_KNOTS('',1,(#567,#568),.UNSPECIFIED.,.F.,.F.,(2,2),(0.000050053,0.006731132),.UNSPECIFIED.);
#570=EDGE_CURVE('',#474,#534,#569,.T.);
#571=ORIENTED_EDGE('',*,*,#570,.T.);
#572=ORIENTED_EDGE('',*,*,#538,.T.);
#573=ORIENTED_EDGE('',*,*,#516,.F.);
#574=ORIENTED_EDGE('',*,*,#485,.F.);
#575=EDGE_LOOP('',(#571,#572,#573,#574));
#576=FACE_BOUND('',#575,.T.);
#577=ADVANCED_FACE('',(#576),#566,.F.);
#578=CARTESIAN_POINT('',(-0.,3.7,3.2));
#579=CARTESIAN_POINT('',(-0.,3.7,-0.));
#580=CARTESIAN_POINT('',(0.136563984,3.7,3.2));
#581=CARTESIAN_POINT('',(0.136563984,3.7,-0.));
#582=CARTESIAN_POINT('',(0.272756396,3.689932784,3.2));
#583=CARTESIAN_POINT('',(0.272756396,3.689932784,-0.));
#584=(BOUNDED_SURFACE()
B_SPLINE_SURFACE(2,1,((#578,#579),(#580,#581),(#582,#583)),.UNSPECIFIED.,.F.,.F.,.U.)
B_SPLINE_SURFACE_WITH_KNOTS((3,3),(2,2),(0.,0.087398716),(-0.,0.0032),.UNSPECIFIED.)
GEOMETRIC_REPRESENTATION_ITEM()
RATIONAL_B_SPLINE_SURFACE(((1.,1.),(0.979135093,0.979135093),(0.960011564,0.960011564)))
REPRESENTATION_ITEM('')
SURFACE()
);
#585=CARTESIAN_POINT('',(-0.,3.7,3.2));
#586=VERTEX_POINT('',#585);
#587=CARTESIAN_POINT('',(-0.,3.7,0.));
#588=CARTESIAN_POINT('',(-0.,3.7,3.2));
#589=B_SPLINE_CURVE_WITH_KNOTS('',1,(#587,#588),.UNSPECIFIED.,.F.,.F.,(2,2),(0.,0.0032),.UNSPECIFIED.);
#590=EDGE_CURVE('',#111,#586,#589,.T.);
#591=ORIENTED_EDGE('',*,*,#590,.F.);
#592=ORIENTED_EDGE('',*,*,#120,.F.);
#593=ORIENTED_EDGE('',*,*,#557,.F.);
#594=CARTESIAN_POINT('',(0.272756396,3.689932784,3.2));
#595=CARTESIAN_POINT('',(-1.980400407,3.856484037,3.2));
#596=CARTESIAN_POINT('',(-3.157828798,1.928242018,3.2));
#597=CARTESIAN_POINT('',(-4.335257189,0.,3.2));
#598=CARTESIAN_POINT('',(-3.157828798,-1.928242018,3.2));
#599=CARTESIAN_POINT('',(-1.980400407,-3.856484037,3.2));
#600=CARTESIAN_POINT('',(0.272756396,-3.689932784,3.2));
#601=(BOUNDED_CURVE()
B_SPLINE_CURVE(2,(#594,#595,#596,#597,#598,#599,#600),.UNSPECIFIED.,.F.,.F.)
B_SPLINE_CURVE_WITH_KNOTS((3,2,2,3),(6.14943248,7.245819949,8.342207418,9.438594887),.UNSPECIFIED.)
CURVE()
GEOMETRIC_REPRESENTATION_ITEM()
RATIONAL_B_SPLINE_CURVE((1.,0.853467243,1.,0.853467243,1.,0.853467243,1.))
REPRESENTATION_ITEM(''));
#602=EDGE_CURVE('',#548,#586,#601,.T.);
#603=ORIENTED_EDGE('',*,*,#602,.T.);
#604=EDGE_LOOP('',(#591,#592,#593,#603));
#605=FACE_BOUND('',#604,.T.);
#606=ADVANCED_FACE('',(#605),#584,.F.);
#607=CARTESIAN_POINT('',(4.999456785,3.340539491,2.1));
#608=CARTESIAN_POINT('',(4.999456785,3.340539491,3.2));
#609=CARTESIAN_POINT('',(4.999456785,-3.340539491,2.1));
#610=CARTESIAN_POINT('',(4.999456785,-3.340539491,3.2));
#611=B_SPLINE_SURFACE_WITH_KNOTS('',1,1,((#607,#608),(#609,#610)),.UNSPECIFIED.,.F.,.F.,.U.,(2,2),(2,2),(-0.006731132,-0.000050053),(-0.0011,0.),.UNSPECIFIED.);
#612=ORIENTED_EDGE('',*,*,#478,.F.);
#613=CARTESIAN_POINT('',(4.999456785,-3.340539491,3.2));
#614=CARTESIAN_POINT('',(4.999456785,3.340539491,3.2));
#615=B_SPLINE_CURVE_WITH_KNOTS('',1,(#613,#614),.UNSPECIFIED.,.F.,.F.,(2,2),(0.000050053,0.006731132),.UNSPECIFIED.);
#616=EDGE_CURVE('',#467,#541,#615,.T.);
#617=ORIENTED_EDGE('',*,*,#616,.T.);
#618=ORIENTED_EDGE('',*,*,#545,.T.);
#619=ORIENTED_EDGE('',*,*,#570,.F.);
#620=EDGE_LOOP('',(#612,#617,#618,#619));
#621=FACE_BOUND('',#620,.T.);
#622=ADVANCED_FACE('',(#621),#611,.T.);
#623=CARTESIAN_POINT('',(-4.335257189,-3.856484037,3.2));
#624=CARTESIAN_POINT('',(-4.335257189,3.7,3.2));
#625=CARTESIAN_POINT('',(4.999456785,-3.856484037,3.2));
#626=CARTESIAN_POINT('',(4.999456785,3.7,3.2));
#627=B_SPLINE_SURFACE_WITH_KNOTS('',1,1,((#623,#624),(#625,#626)),.UNSPECIFIED.,.F.,.F.,.U.,(2,2),(2,2),(-0.004335257,0.004999457),(-0.003856484,0.0037),.UNSPECIFIED.);
#628=CARTESIAN_POINT('',(-0.,2.75,3.2));
#629=VERTEX_POINT('',#628);
#630=CARTESIAN_POINT('',(2.75,0.,3.2));
#631=VERTEX_POINT('',#630);
#632=CARTESIAN_POINT('',(2.75,0.,3.2));
#633=CARTESIAN_POINT('',(2.75,-2.75,3.2));
#634=CARTESIAN_POINT('',(-0.,-2.75,3.2));
#635=CARTESIAN_POINT('',(-2.75,-2.75,3.2));
#636=CARTESIAN_POINT('',(-2.75,0.,3.2));
#637=CARTESIAN_POINT('',(-2.75,2.75,3.2));
#638=CARTESIAN_POINT('',(-0.,2.75,3.2));
#639=CARTESIAN_POINT('',(2.75,2.75,3.2));
#640=CARTESIAN_POINT('',(2.75,0.,3.2));
#641=(BOUNDED_CURVE()
B_SPLINE_CURVE(2,(#632,#633,#634,#635,#636,#637,#638,#639,#640),.UNSPECIFIED.,.T.,.F.)
B_SPLINE_CURVE_WITH_KNOTS((3,2,2,2,3),(0.,1.570796327,3.141592654,4.71238898,6.283185307),.UNSPECIFIED.)
CURVE()
GEOMETRIC_REPRESENTATION_ITEM()
RATIONAL_B_SPLINE_CURVE((1.,0.707106781,1.,0.707106781,1.,0.707106781,1.,0.707106781,1.))
REPRESENTATION_ITEM(''));
#642=EDGE_CURVE('',#629,#631,#641,.T.);
#643=ORIENTED_EDGE('',*,*,#642,.F.);
#644=CARTESIAN_POINT('',(2.75,0.,3.2));
#645=CARTESIAN_POINT('',(2.75,-2.75,3.2));
#646=CARTESIAN_POINT('',(-0.,-2.75,3.2));
#647=CARTESIAN_POINT('',(-2.75,-2.75,3.2));
#648=CARTESIAN_POINT('',(-2.75,0.,3.2));
#649=CARTESIAN_POINT('',(-2.75,2.75,3.2));
#650=CARTESIAN_POINT('',(-0.,2.75,3.2));
#651=CARTESIAN_POINT('',(2.75,2.75,3.2));
#652=CARTESIAN_POINT('',(2.75,0.,3.2));
#653=(BOUNDED_CURVE()
B_SPLINE_CURVE(2,(#644,#645,#646,#647,#648,#649,#650,#651,#652),.UNSPECIFIED.,.T.,.F.)
B_SPLINE_CURVE_WITH_KNOTS((3,2,2,2,3),(0.,1.570796327,3.141592654,4.71238898,6.283185307),.UNSPECIFIED.)
CURVE()
GEOMETRIC_REPRESENTATION_ITEM()
RATIONAL_B_SPLINE_CURVE((1.,0.707106781,1.,0.707106781,1.,0.707106781,1.,0.707106781,1.))
REPRESENTATION_ITEM(''));
#654=EDGE_CURVE('',#631,#629,#653,.T.);
#655=ORIENTED_EDGE('',*,*,#654,.F.);
#656=EDGE_LOOP('',(#643,#655));
#657=FACE_BOUND('',#656,.T.);
#658=CARTESIAN_POINT('',(0.272756396,3.689932784,3.2));
#659=CARTESIAN_POINT('',(-1.980400407,3.856484037,3.2));
#660=CARTESIAN_POINT('',(-3.157828798,1.928242018,3.2));
#661=CARTESIAN_POINT('',(-4.335257189,0.,3.2));
#662=CARTESIAN_POINT('',(-3.157828798,-1.928242018,3.2));
#663=CARTESIAN_POINT('',(-1.980400407,-3.856484037,3.2));
#664=CARTESIAN_POINT('',(0.272756396,-3.689932784,3.2));
#665=(BOUNDED_CURVE()
B_SPLINE_CURVE(2,(#658,#659,#660,#661,#662,#663,#664),.UNSPECIFIED.,.F.,.F.)
B_SPLINE_CURVE_WITH_KNOTS((3,2,2,3),(6.14943248,7.245819949,8.342207418,9.438594887),.UNSPECIFIED.)
CURVE()
GEOMETRIC_REPRESENTATION_ITEM()
RATIONAL_B_SPLINE_CURVE((1.,0.853467243,1.,0.853467243,1.,0.853467243,1.))
REPRESENTATION_ITEM(''));
#666=EDGE_CURVE('',#586,#460,#665,.T.);
#667=ORIENTED_EDGE('',*,*,#666,.F.);
#668=ORIENTED_EDGE('',*,*,#602,.F.);
#669=ORIENTED_EDGE('',*,*,#552,.T.);
#670=ORIENTED_EDGE('',*,*,#616,.F.);
#671=ORIENTED_EDGE('',*,*,#471,.F.);
#672=EDGE_LOOP('',(#667,#668,#669,#670,#671));
#673=FACE_BOUND('',#672,.T.);
#674=ADVANCED_FACE('',(#657,#673),#627,.F.);
#675=CARTESIAN_POINT('',(-0.,2.75,4.));
#676=CARTESIAN_POINT('',(-0.,2.75,3.2));
#677=CARTESIAN_POINT('',(4.763139721,2.75,4.));
#678=CARTESIAN_POINT('',(4.763139721,2.75,3.2));
#679=CARTESIAN_POINT('',(2.38156986,-1.375,4.));
#680=CARTESIAN_POINT('',(2.38156986,-1.375,3.2));
#681=CARTESIAN_POINT('',(-0.,-5.5,4.));
#682=CARTESIAN_POINT('',(-0.,-5.5,3.2));
#683=CARTESIAN_POINT('',(-2.38156986,-1.375,4.));
#684=CARTESIAN_POINT('',(-2.38156986,-1.375,3.2));
#685=CARTESIAN_POINT('',(-4.763139721,2.75,4.));
#686=CARTESIAN_POINT('',(-4.763139721,2.75,3.2));
#687=CARTESIAN_POINT('',(-0.,2.75,4.));
#688=CARTESIAN_POINT('',(-0.,2.75,3.2));
#689=(BOUNDED_SURFACE()
B_SPLINE_SURFACE(2,1,((#675,#676),(#677,#678),(#679,#680),(#681,#682),(#683,#684),(#685,#686),(#687,#688)),.UNSPECIFIED.,.T.,.F.,.U.)
B_SPLINE_SURFACE_WITH_KNOTS((3,2,2,3),(2,2),(0.,2.094395102,4.188790205,6.283185307),(0.011432261,0.012232261),.UNSPECIFIED.)
GEOMETRIC_REPRESENTATION_ITEM()
RATIONAL_B_SPLINE_SURFACE(((1.,1.),(0.5,0.5),(1.,1.),(0.5,0.5),(1.,1.),(0.5,0.5),(1.,1.)))
REPRESENTATION_ITEM('')
SURFACE()
);
#690=CARTESIAN_POINT('',(-0.,2.75,3.2));
#691=CARTESIAN_POINT('',(-0.,2.75,4.));
#692=B_SPLINE_CURVE_WITH_KNOTS('',1,(#690,#691),.UNSPECIFIED.,.F.,.F.,(2,2),(0.011432261,0.012232261),.UNSPECIFIED.);
#693=EDGE_CURVE('',#629,#415,#692,.T.);
#694=ORIENTED_EDGE('',*,*,#693,.F.);
#695=ORIENTED_EDGE('',*,*,#642,.T.);
#696=ORIENTED_EDGE('',*,*,#654,.T.);
#697=ORIENTED_EDGE('',*,*,#693,.T.);
#698=ORIENTED_EDGE('',*,*,#426,.F.);
#699=ORIENTED_EDGE('',*,*,#438,.F.);
#700=EDGE_LOOP('',(#694,#695,#696,#697,#698,#699));
#701=FACE_BOUND('',#700,.T.);
#702=ADVANCED_FACE('',(#701),#689,.F.);
#703=CARTESIAN_POINT('',(18.75,-6.25,0.875));
#704=CARTESIAN_POINT('',(18.75,6.25,0.875));
#705=CARTESIAN_POINT('',(31.25,-6.25,0.875));
#706=CARTESIAN_POINT('',(31.25,6.25,0.875));
#707=B_SPLINE_SURFACE_WITH_KNOTS('',1,1,((#703,#704),(#705,#706)),.UNSPECIFIED.,.F.,.F.,.U.,(2,2),(2,2),(0.01875,0.03125),(-0.00625,0.00625),.UNSPECIFIED.);
#708=CARTESIAN_POINT('',(18.75,0.,0.875));
#709=VERTEX_POINT('',#708);
#710=CARTESIAN_POINT('',(25.,6.25,0.875));
#711=CARTESIAN_POINT('',(18.75,6.25,0.875));
#712=CARTESIAN_POINT('',(18.75,0.,0.875));
#713=CARTESIAN_POINT('',(18.75,-6.25,0.875));
#714=CARTESIAN_POINT('',(25.,-6.25,0.875));
#715=(BOUNDED_CURVE()
B_SPLINE_CURVE(2,(#710,#711,#712,#713,#714),.UNSPECIFIED.,.F.,.F.)
B_SPLINE_CURVE_WITH_KNOTS((3,2,3),(6.283185307,7.853981634,9.424777961),.UNSPECIFIED.)
CURVE()
GEOMETRIC_REPRESENTATION_ITEM()
RATIONAL_B_SPLINE_CURVE((1.,0.707106781,1.,0.707106781,1.))
REPRESENTATION_ITEM(''));
#716=EDGE_CURVE('',#709,#207,#715,.T.);
#717=ORIENTED_EDGE('',*,*,#716,.F.);
#718=CARTESIAN_POINT('',(25.,6.25,0.875));
#719=CARTESIAN_POINT('',(18.75,6.25,0.875));
#720=CARTESIAN_POINT('',(18.75,0.,0.875));
#721=CARTESIAN_POINT('',(18.75,-6.25,0.875));
#722=CARTESIAN_POINT('',(25.,-6.25,0.875));
#723=(BOUNDED_CURVE()
B_SPLINE_CURVE(2,(#718,#719,#720,#721,#722),.UNSPECIFIED.,.F.,.F.)
B_SPLINE_CURVE_WITH_KNOTS((3,2,3),(6.283185307,7.853981634,9.424777961),.UNSPECIFIED.)
CURVE()
GEOMETRIC_REPRESENTATION_ITEM()
RATIONAL_B_SPLINE_CURVE((1.,0.707106781,1.,0.707106781,1.))
REPRESENTATION_ITEM(''));
#724=EDGE_CURVE('',#248,#709,#723,.T.);
#725=ORIENTED_EDGE('',*,*,#724,.F.);
#726=ORIENTED_EDGE('',*,*,#255,.F.);
#727=EDGE_LOOP('',(#717,#725,#726));
#728=FACE_BOUND('',#727,.T.);
#729=ORIENTED_EDGE('',*,*,#363,.F.);
#730=ORIENTED_EDGE('',*,*,#375,.F.);
#731=EDGE_LOOP('',(#729,#730));
#732=FACE_BOUND('',#731,.T.);
#733=ADVANCED_FACE('',(#728,#732),#707,.F.);
#734=CARTESIAN_POINT('',(18.75,0.,0.875));
#735=CARTESIAN_POINT('',(18.75,0.,-0.));
#736=CARTESIAN_POINT('',(18.75,6.25,0.875));
#737=CARTESIAN_POINT('',(18.75,6.25,-0.));
#738=CARTESIAN_POINT('',(25.,6.25,0.875));
#739=CARTESIAN_POINT('',(25.,6.25,-0.));
#740=(BOUNDED_SURFACE()
B_SPLINE_SURFACE(2,1,((#734,#735),(#736,#737),(#738,#739)),.UNSPECIFIED.,.F.,.F.,.U.)
B_SPLINE_SURFACE_WITH_KNOTS((3,3),(2,2),(0.,1.533203626),(-0.,0.000875),.UNSPECIFIED.)
GEOMETRIC_REPRESENTATION_ITEM()
RATIONAL_B_SPLINE_SURFACE(((1.,1.),(0.633974596,0.633974596),(0.803847577,0.803847577)))
REPRESENTATION_ITEM('')
SURFACE()
);
#741=CARTESIAN_POINT('',(18.75,0.,0.));
#742=CARTESIAN_POINT('',(18.75,0.,0.875));
#743=B_SPLINE_CURVE_WITH_KNOTS('',1,(#741,#742),.UNSPECIFIED.,.F.,.F.,(2,2),(0.,0.000875),.UNSPECIFIED.);
#744=EDGE_CURVE('',#161,#709,#743,.T.);
#745=ORIENTED_EDGE('',*,*,#744,.F.);
#746=ORIENTED_EDGE('',*,*,#168,.F.);
#747=ORIENTED_EDGE('',*,*,#297,.F.);
#748=ORIENTED_EDGE('',*,*,#724,.T.);
#749=EDGE_LOOP('',(#745,#746,#747,#748));
#750=FACE_BOUND('',#749,.T.);
#751=ADVANCED_FACE('',(#750),#740,.F.);
#752=CARTESIAN_POINT('',(0.272756396,-3.689932784,3.2));
#753=CARTESIAN_POINT('',(0.272756396,-3.689932784,-0.));
#754=CARTESIAN_POINT('',(-2.043171021,-3.861123982,3.2));
#755=CARTESIAN_POINT('',(-2.043171021,-3.861123982,-0.));
#756=CARTESIAN_POINT('',(-3.204293994,-1.85,3.2));
#757=CARTESIAN_POINT('',(-3.204293994,-1.85,-0.));
#758=CARTESIAN_POINT('',(-6.408587988,3.7,3.2));
#759=CARTESIAN_POINT('',(-6.408587988,3.7,-0.));
#760=CARTESIAN_POINT('',(-0.,3.7,3.2));
#761=CARTESIAN_POINT('',(-0.,3.7,-0.));
#762=(BOUNDED_SURFACE()
B_SPLINE_SURFACE(2,1,((#752,#753),(#754,#755),(#756,#757),(#758,#759),(#760,#761)),.UNSPECIFIED.,.F.,.F.,.U.)
B_SPLINE_SURFACE_WITH_KNOTS((3,2,3),(2,2),(3.074646797,4.188790205,6.283185307),(-0.,0.0032),.UNSPECIFIED.)
GEOMETRIC_REPRESENTATION_ITEM()
RATIONAL_B_SPLINE_SURFACE(((0.751021716,0.751021716),(0.734017854,0.734017854),(1.,1.),(0.5,0.5),(1.,1.)))
REPRESENTATION_ITEM('')
SURFACE()
);
#763=ORIENTED_EDGE('',*,*,#590,.T.);
#764=ORIENTED_EDGE('',*,*,#666,.T.);
#765=ORIENTED_EDGE('',*,*,#464,.T.);
#766=ORIENTED_EDGE('',*,*,#132,.F.);
#767=EDGE_LOOP('',(#763,#764,#765,#766));
#768=FACE_BOUND('',#767,.T.);
#769=ADVANCED_FACE('',(#768),#762,.F.);
#770=CARTESIAN_POINT('',(25.,-6.25,0.875));
#771=CARTESIAN_POINT('',(25.,-6.25,-0.));
#772=CARTESIAN_POINT('',(18.75,-6.25,0.875));
#773=CARTESIAN_POINT('',(18.75,-6.25,-0.));
#774=CARTESIAN_POINT('',(18.75,-0.,0.875));
#775=CARTESIAN_POINT('',(18.75,-0.,-0.));
#776=(BOUNDED_SURFACE()
B_SPLINE_SURFACE(2,1,((#770,#771),(#772,#773),(#774,#775)),.UNSPECIFIED.,.F.,.F.,.U.)
B_SPLINE_SURFACE_WITH_KNOTS((3,3),(2,2),(4.749981681,6.283185307),(-0.,0.000875),.UNSPECIFIED.)
GEOMETRIC_REPRESENTATION_ITEM()
RATIONAL_B_SPLINE_SURFACE(((0.803847577,0.803847577),(0.633974596,0.633974596),(1.,1.)))
REPRESENTATION_ITEM('')
SURFACE()
);
#777=ORIENTED_EDGE('',*,*,#744,.T.);
#778=ORIENTED_EDGE('',*,*,#716,.T.);
#779=ORIENTED_EDGE('',*,*,#211,.T.);
#780=ORIENTED_EDGE('',*,*,#178,.F.);
#781=EDGE_LOOP('',(#777,#778,#779,#780));
#782=FACE_BOUND('',#781,.T.);
#783=ADVANCED_FACE('',(#782),#776,.F.);
#784=CLOSED_SHELL('',(#199,#234,#274,#301,#326,#406,#452,#494,#525,#561,#577,#606,#622,#674,#702,#733,#751,#769,#783));
#785=MANIFOLD_SOLID_BREP('Extruded.001',#784);
#95=STYLED_ITEM('',(),#785);
#786=CARTESIAN_POINT('',(25.,6.25,0.));
#787=CARTESIAN_POINT('',(22.8183449,6.25,0.));
#788=CARTESIAN_POINT('',(20.636636851,5.393267966,0.));
#789=CARTESIAN_POINT('',(18.83966707,3.679768469,0.));
#790=CARTESIAN_POINT('',(17.810984825,1.310985773,0.));
#791=CARTESIAN_POINT('',(17.810984825,-1.310985773,0.));
#792=CARTESIAN_POINT('',(18.83966707,-3.679768469,0.));
#793=CARTESIAN_POINT('',(20.636636851,-5.393267966,0.));
#794=CARTESIAN_POINT('',(22.8183449,-6.25,0.));
#795=CARTESIAN_POINT('',(25.,-6.25,0.));
#796=CARTESIAN_POINT('',(27.1816551,-6.25,0.));
#797=CARTESIAN_POINT('',(29.363363149,-5.393267966,0.));
#798=CARTESIAN_POINT('',(31.16033293,-3.679768469,0.));
#799=CARTESIAN_POINT('',(32.189015175,-1.310985773,0.));
#800=CARTESIAN_POINT('',(32.189015175,1.310985773,0.));
#801=CARTESIAN_POINT('',(31.16033293,3.679768469,0.));
#802=CARTESIAN_POINT('',(29.363363149,5.393267966,0.));
#803=CARTESIAN_POINT('',(27.1816551,6.25,0.));
#804=CARTESIAN_POINT('',(25.,6.25,0.));
#805=B_SPLINE_CURVE_WITH_KNOTS('Circle.002',9,(#786,#787,#788,#789,#790,#791,#792,#793,#794,#795,#796,#797,#798,#799,#800,#801,#802,#803,#804),.UNSPECIFIED.,.T.,.F.,(10,9,10),(0.,3.141592654,6.283185307),.UNSPECIFIED.);
#806=CARTESIAN_POINT('',(0.,-6.25,2.825));
#807=CARTESIAN_POINT('',(0.,6.25,2.825));
#808=B_SPLINE_CURVE_WITH_KNOTS('Rectangle.001',1,(#806,#807),.UNSPECIFIED.,.F.,.F.,(2,2),(0.,0.0125),.UNSPECIFIED.);
#809=CARTESIAN_POINT('',(25.,-6.25,2.825));
#810=CARTESIAN_POINT('',(0.,-6.25,2.825));
#811=B_SPLINE_CURVE_WITH_KNOTS('Rectangle.001',1,(#809,#810),.UNSPECIFIED.,.F.,.F.,(2,2),(0.,0.025),.UNSPECIFIED.);
#812=CARTESIAN_POINT('',(25.,6.25,2.825));
#813=CARTESIAN_POINT('',(25.,-6.25,2.825));
#814=B_SPLINE_CURVE_WITH_KNOTS('Rectangle.001',1,(#812,#813),.UNSPECIFIED.,.F.,.F.,(2,2),(0.,0.0125),.UNSPECIFIED.);
#815=CARTESIAN_POINT('',(0.,6.25,2.825));
#816=CARTESIAN_POINT('',(25.,6.25,2.825));
#817=B_SPLINE_CURVE_WITH_KNOTS('Rectangle.001',1,(#815,#816),.UNSPECIFIED.,.F.,.F.,(2,2),(0.,0.025),.UNSPECIFIED.);
#818=GEOMETRIC_CURVE_SET('',(#808,#811,#814,#817));
#819=GEOMETRIC_CURVE_SET('',(#45,#48,#51,#54,#74,#94,#805));
#16=SHAPE_REPRESENTATION('root',(#15),#10);
#17=ADVANCED_BREP_SHAPE_REPRESENTATION('root',(#785),#10);
#827=SHAPE_REPRESENTATION_RELATIONSHIP('','',#16,#17);
#18=GEOMETRICALLY_BOUNDED_WIREFRAME_SHAPE_REPRESENTATION('root',(#818,#819),#10);
#835=SHAPE_REPRESENTATION_RELATIONSHIP('','',#16,#18);
#836=APPLICATION_CONTEXT('configuration controlled 3D design of mechanical parts and assemblies');
#837=APPLICATION_PROTOCOL_DEFINITION('international standard','configuration_control_3d_design_ed2_mim',2004,#836);
#838=PRODUCT_CONTEXT('',#836,'mechanical');
#839=PRODUCT_DEFINITION_CONTEXT('part definition',#836,'design');
#24=PRODUCT('root','root','',(#838));
#840=PRODUCT_RELATED_PRODUCT_CATEGORY('part','',(#24));
#841=PRODUCT_DEFINITION_FORMATION_WITH_SPECIFIED_SOURCE('','',#24,.NOT_KNOWN.);
#25=PRODUCT_DEFINITION('design','',#841,#839);
#23=PRODUCT_DEFINITION_SHAPE('','',#25);
#842=SHAPE_DEFINITION_REPRESENTATION(#23,#16);
#11=DRAUGHTING_MODEL('',(),#10);
#1=MECHANICAL_DESIGN_GEOMETRIC_PRESENTATION_REPRESENTATION('',(#95),#10);
ENDSEC;
END-ISO-10303-21;
