ISO-10303-21;
HEADER;

/* File generated by HOOPS Exchange Version 25.8.0 */

FILE_DESCRIPTION(('HOOPS Exchange Step'),'2;1');

FILE_NAME('/home/tfannes/prints/260615_flywheel_nerf_gun/flywheel_3.step',
'2026-06-18T15:42:55+02:00',
('tfannes'),
('Unknown organisation'),
'HOOPS Exchange 2025.8',
'HOOPS Exchange',
'Unknown authorisation');

FILE_SCHEMA( ('AP203_CONFIGURATION_CONTROLLED_3D_DESIGN_OF_MECHANICAL_PARTS_AND_ASSEMBLIES_MIM_LF') );

ENDSEC;

DATA;
#3=(NAMED_UNIT(*)PLANE_ANGLE_UNIT()SI_UNIT($,.RADIAN.));
#4=PLANE_ANGLE_MEASURE_WITH_UNIT(PLANE_ANGLE_MEASURE(0.0174532925),#3);
#5=(CONVERSION_BASED_UNIT('DEGREE',#4)NAMED_UNIT(#6)PLANE_ANGLE_UNIT());
#6=DIMENSIONAL_EXPONENTS(0.,0.,0.,0.,0.,0.,0.);
#7=(NAMED_UNIT(*)SI_UNIT($,.STERADIAN.)SOLID_ANGLE_UNIT());
#8=(LENGTH_UNIT()NAMED_UNIT(*)SI_UNIT(.MILLI.,.METRE.));
#9=UNCERTAINTY_MEASURE_WITH_UNIT(LENGTH_MEASURE(1.000000E-05),#8,'DISTANCE_ACCURACY_VALUE','Maximum Tolerance applied to model');
#10=(GEOMETRIC_REPRESENTATION_CONTEXT(3)GLOBAL_UNCERTAINTY_ASSIGNED_CONTEXT((#9))GLOBAL_UNIT_ASSIGNED_CONTEXT((#8,#5,#7))REPRESENTATION_CONTEXT('','root'));
#12=CARTESIAN_POINT('',(0.,0.,0.));
#13=DIRECTION('',(0.,0.,1.));
#14=DIRECTION('',(1.,0.,0.));
#15=AXIS2_PLACEMENT_3D('TS3D_PRODUCT_CSYS',#12,#13,#14);
#27=CARTESIAN_POINT('',(0.,15.,5.));
#28=CARTESIAN_POINT('',(0.,15.,4.898979486));
#29=CARTESIAN_POINT('',(25.980762114,15.,5.));
#30=CARTESIAN_POINT('',(25.980762114,15.,4.898979486));
#31=CARTESIAN_POINT('',(12.990381057,-7.5,5.));
#32=CARTESIAN_POINT('',(12.990381057,-7.5,4.898979486));
#33=CARTESIAN_POINT('',(0.,-30.,5.));
#34=CARTESIAN_POINT('',(0.,-30.,4.898979486));
#35=CARTESIAN_POINT('',(-12.990381057,-7.5,5.));
#36=CARTESIAN_POINT('',(-12.990381057,-7.5,4.898979486));
#37=CARTESIAN_POINT('',(-25.980762114,15.,5.));
#38=CARTESIAN_POINT('',(-25.980762114,15.,4.898979486));
#39=CARTESIAN_POINT('',(-0.,15.,5.));
#40=CARTESIAN_POINT('',(-0.,15.,4.898979486));
#41=(BOUNDED_SURFACE()
B_SPLINE_SURFACE(2,1,((#27,#28),(#29,#30),(#31,#32),(#33,#34),(#35,#36),(#37,#38),(#39,#40)),.UNSPECIFIED.,.T.,.F.,.U.)
B_SPLINE_SURFACE_WITH_KNOTS((3,2,2,3),(2,2),(0.,2.094395102,4.188790205,6.283185307),(-0.,0.000101021),.UNSPECIFIED.)
GEOMETRIC_REPRESENTATION_ITEM()
RATIONAL_B_SPLINE_SURFACE(((1.,1.),(0.5,0.5),(1.,1.),(0.5,0.5),(1.,1.),(0.5,0.5),(1.,1.)))
REPRESENTATION_ITEM('')
SURFACE()
);
#42=CARTESIAN_POINT('',(-0.,15.,4.898979486));
#43=VERTEX_POINT('',#42);
#44=CARTESIAN_POINT('',(0.,15.,5.));
#45=VERTEX_POINT('',#44);
#46=CARTESIAN_POINT('',(0.,15.,4.898979486));
#47=CARTESIAN_POINT('',(0.,15.,5.));
#48=B_SPLINE_CURVE_WITH_KNOTS('',1,(#46,#47),.UNSPECIFIED.,.F.,.F.,(2,2),(0.009898979,0.01),.UNSPECIFIED.);
#49=EDGE_CURVE('',#43,#45,#48,.T.);
#50=ORIENTED_EDGE('',*,*,#49,.T.);
#51=CARTESIAN_POINT('',(14.981882717,0.737014411,5.));
#52=VERTEX_POINT('',#51);
#53=CARTESIAN_POINT('',(14.981882717,0.737014411,5.));
#54=CARTESIAN_POINT('',(14.244868307,15.718897128,5.));
#55=CARTESIAN_POINT('',(-0.737014411,14.981882717,5.));
#56=CARTESIAN_POINT('',(-15.718897128,14.244868307,5.));
#57=CARTESIAN_POINT('',(-14.981882717,-0.737014411,5.));
#58=CARTESIAN_POINT('',(-14.244868307,-15.718897128,5.));
#59=CARTESIAN_POINT('',(0.737014411,-14.981882717,5.));
#60=CARTESIAN_POINT('',(15.718897128,-14.244868307,5.));
#61=CARTESIAN_POINT('',(14.981882717,0.737014411,5.));
#62=(BOUNDED_CURVE()
B_SPLINE_CURVE(2,(#53,#54,#55,#56,#57,#58,#59,#60,#61),.UNSPECIFIED.,.T.,.F.)
B_SPLINE_CURVE_WITH_KNOTS((3,2,2,2,3),(0.,1.570796327,3.141592654,4.71238898,6.283185307),.UNSPECIFIED.)
CURVE()
GEOMETRIC_REPRESENTATION_ITEM()
RATIONAL_B_SPLINE_CURVE((1.,0.707106781,1.,0.707106781,1.,0.707106781,1.,0.707106781,1.))
REPRESENTATION_ITEM(''));
#63=EDGE_CURVE('',#52,#45,#62,.T.);
#64=ORIENTED_EDGE('',*,*,#63,.F.);
#65=CARTESIAN_POINT('',(14.981882717,0.737014411,5.));
#66=CARTESIAN_POINT('',(14.244868307,15.718897128,5.));
#67=CARTESIAN_POINT('',(-0.737014411,14.981882717,5.));
#68=CARTESIAN_POINT('',(-15.718897128,14.244868307,5.));
#69=CARTESIAN_POINT('',(-14.981882717,-0.737014411,5.));
#70=CARTESIAN_POINT('',(-14.244868307,-15.718897128,5.));
#71=CARTESIAN_POINT('',(0.737014411,-14.981882717,5.));
#72=CARTESIAN_POINT('',(15.718897128,-14.244868307,5.));
#73=CARTESIAN_POINT('',(14.981882717,0.737014411,5.));
#74=(BOUNDED_CURVE()
B_SPLINE_CURVE(2,(#65,#66,#67,#68,#69,#70,#71,#72,#73),.UNSPECIFIED.,.T.,.F.)
B_SPLINE_CURVE_WITH_KNOTS((3,2,2,2,3),(0.,1.570796327,3.141592654,4.71238898,6.283185307),.UNSPECIFIED.)
CURVE()
GEOMETRIC_REPRESENTATION_ITEM()
RATIONAL_B_SPLINE_CURVE((1.,0.707106781,1.,0.707106781,1.,0.707106781,1.,0.707106781,1.))
REPRESENTATION_ITEM(''));
#75=EDGE_CURVE('',#45,#52,#74,.T.);
#76=ORIENTED_EDGE('',*,*,#75,.F.);
#77=ORIENTED_EDGE('',*,*,#49,.F.);
#78=CARTESIAN_POINT('',(0.737014411,-14.981882717,4.898979486));
#79=VERTEX_POINT('',#78);
#80=CARTESIAN_POINT('',(0.737014411,-14.981882717,4.898979486));
#81=CARTESIAN_POINT('',(15.718897128,-14.244868307,4.898979486));
#82=CARTESIAN_POINT('',(14.981882717,0.737014411,4.898979486));
#83=CARTESIAN_POINT('',(14.244868307,15.718897128,4.898979486));
#84=CARTESIAN_POINT('',(-0.737014411,14.981882717,4.898979486));
#85=CARTESIAN_POINT('',(-15.718897128,14.244868307,4.898979486));
#86=CARTESIAN_POINT('',(-14.981882717,-0.737014411,4.898979486));
#87=CARTESIAN_POINT('',(-14.244868307,-15.718897128,4.898979486));
#88=CARTESIAN_POINT('',(0.737014411,-14.981882717,4.898979486));
#89=(BOUNDED_CURVE()
B_SPLINE_CURVE(2,(#80,#81,#82,#83,#84,#85,#86,#87,#88),.UNSPECIFIED.,.T.,.F.)
B_SPLINE_CURVE_WITH_KNOTS((3,2,2,2,3),(4.761543066,6.332339393,7.903135719,9.473932046,11.044728373),.UNSPECIFIED.)
CURVE()
GEOMETRIC_REPRESENTATION_ITEM()
RATIONAL_B_SPLINE_CURVE((1.,0.707106781,1.,0.707106781,1.,0.707106781,1.,0.707106781,1.))
REPRESENTATION_ITEM(''));
#90=EDGE_CURVE('',#43,#79,#89,.T.);
#91=ORIENTED_EDGE('',*,*,#90,.T.);
#92=CARTESIAN_POINT('',(0.737014411,-14.981882717,4.898979486));
#93=CARTESIAN_POINT('',(15.718897128,-14.244868307,4.898979486));
#94=CARTESIAN_POINT('',(14.981882717,0.737014411,4.898979486));
#95=CARTESIAN_POINT('',(14.244868307,15.718897128,4.898979486));
#96=CARTESIAN_POINT('',(-0.737014411,14.981882717,4.898979486));
#97=CARTESIAN_POINT('',(-15.718897128,14.244868307,4.898979486));
#98=CARTESIAN_POINT('',(-14.981882717,-0.737014411,4.898979486));
#99=CARTESIAN_POINT('',(-14.244868307,-15.718897128,4.898979486));
#100=CARTESIAN_POINT('',(0.737014411,-14.981882717,4.898979486));
#101=(BOUNDED_CURVE()
B_SPLINE_CURVE(2,(#92,#93,#94,#95,#96,#97,#98,#99,#100),.UNSPECIFIED.,.T.,.F.)
B_SPLINE_CURVE_WITH_KNOTS((3,2,2,2,3),(4.761543066,6.332339393,7.903135719,9.473932046,11.044728373),.UNSPECIFIED.)
CURVE()
GEOMETRIC_REPRESENTATION_ITEM()
RATIONAL_B_SPLINE_CURVE((1.,0.707106781,1.,0.707106781,1.,0.707106781,1.,0.707106781,1.))
REPRESENTATION_ITEM(''));
#102=EDGE_CURVE('',#79,#43,#101,.T.);
#103=ORIENTED_EDGE('',*,*,#102,.T.);
#104=EDGE_LOOP('',(#50,#64,#76,#77,#91,#103));
#105=FACE_BOUND('',#104,.T.);
#106=ADVANCED_FACE('',(#105),#41,.T.);
#107=CARTESIAN_POINT('',(-15.718897128,-15.718897128,5.));
#108=CARTESIAN_POINT('',(-15.718897128,15.,5.));
#109=CARTESIAN_POINT('',(15.718897128,-15.718897128,5.));
#110=CARTESIAN_POINT('',(15.718897128,15.,5.));
#111=B_SPLINE_SURFACE_WITH_KNOTS('',1,1,((#107,#108),(#109,#110)),.UNSPECIFIED.,.F.,.F.,.U.,(2,2),(2,2),(-0.015718897,0.015718897),(-0.015718897,0.015),.UNSPECIFIED.);
#112=CARTESIAN_POINT('',(-0.,-0.95,5.));
#113=VERTEX_POINT('',#112);
#114=CARTESIAN_POINT('',(0.551179587,0.773757755,5.));
#115=VERTEX_POINT('',#114);
#116=CARTESIAN_POINT('',(0.551179587,0.773757755,5.));
#117=CARTESIAN_POINT('',(-0.222578168,1.324937342,5.));
#118=CARTESIAN_POINT('',(-0.773757755,0.551179587,5.));
#119=CARTESIAN_POINT('',(-1.324937342,-0.222578168,5.));
#120=CARTESIAN_POINT('',(-0.551179587,-0.773757755,5.));
#121=CARTESIAN_POINT('',(0.222578168,-1.324937342,5.));
#122=CARTESIAN_POINT('',(0.773757755,-0.551179587,5.));
#123=CARTESIAN_POINT('',(1.324937342,0.222578168,5.));
#124=CARTESIAN_POINT('',(0.551179587,0.773757755,5.));
#125=(BOUNDED_CURVE()
B_SPLINE_CURVE(2,(#116,#117,#118,#119,#120,#121,#122,#123,#124),.UNSPECIFIED.,.T.,.F.)
B_SPLINE_CURVE_WITH_KNOTS((3,2,2,2,3),(0.,1.570796327,3.141592654,4.71238898,6.283185307),.UNSPECIFIED.)
CURVE()
GEOMETRIC_REPRESENTATION_ITEM()
RATIONAL_B_SPLINE_CURVE((1.,0.707106781,1.,0.707106781,1.,0.707106781,1.,0.707106781,1.))
REPRESENTATION_ITEM(''));
#126=EDGE_CURVE('',#113,#115,#125,.T.);
#127=ORIENTED_EDGE('',*,*,#126,.F.);
#128=CARTESIAN_POINT('',(0.551179587,0.773757755,5.));
#129=CARTESIAN_POINT('',(-0.222578168,1.324937342,5.));
#130=CARTESIAN_POINT('',(-0.773757755,0.551179587,5.));
#131=CARTESIAN_POINT('',(-1.324937342,-0.222578168,5.));
#132=CARTESIAN_POINT('',(-0.551179587,-0.773757755,5.));
#133=CARTESIAN_POINT('',(0.222578168,-1.324937342,5.));
#134=CARTESIAN_POINT('',(0.773757755,-0.551179587,5.));
#135=CARTESIAN_POINT('',(1.324937342,0.222578168,5.));
#136=CARTESIAN_POINT('',(0.551179587,0.773757755,5.));
#137=(BOUNDED_CURVE()
B_SPLINE_CURVE(2,(#128,#129,#130,#131,#132,#133,#134,#135,#136),.UNSPECIFIED.,.T.,.F.)
B_SPLINE_CURVE_WITH_KNOTS((3,2,2,2,3),(0.,1.570796327,3.141592654,4.71238898,6.283185307),.UNSPECIFIED.)
CURVE()
GEOMETRIC_REPRESENTATION_ITEM()
RATIONAL_B_SPLINE_CURVE((1.,0.707106781,1.,0.707106781,1.,0.707106781,1.,0.707106781,1.))
REPRESENTATION_ITEM(''));
#138=EDGE_CURVE('',#115,#113,#137,.T.);
#139=ORIENTED_EDGE('',*,*,#138,.F.);
#140=EDGE_LOOP('',(#127,#139));
#141=FACE_BOUND('',#140,.T.);
#142=ORIENTED_EDGE('',*,*,#63,.T.);
#143=ORIENTED_EDGE('',*,*,#75,.T.);
#144=EDGE_LOOP('',(#142,#143));
#145=FACE_BOUND('',#144,.T.);
#146=ADVANCED_FACE('',(#141,#145),#111,.T.);
#147=CARTESIAN_POINT('',(0.737014411,-14.967464129,4.884220125));
#148=CARTESIAN_POINT('',(30.67194267,-13.493435308,4.884220125));
#149=CARTESIAN_POINT('',(29.197913848,16.441492951,4.884220125));
#150=CARTESIAN_POINT('',(-0.737014411,14.967464129,4.884220125));
#151=CARTESIAN_POINT('',(-30.67194267,13.493435308,4.884220125));
#152=CARTESIAN_POINT('',(-29.197913848,-16.441492951,4.884220125));
#153=CARTESIAN_POINT('',(0.737014411,-14.967464129,4.884220125));
#154=CARTESIAN_POINT('',(0.737014411,-14.972260718,4.889144576));
#155=CARTESIAN_POINT('',(30.681535847,-13.498231897,4.889144576));
#156=CARTESIAN_POINT('',(29.207507026,16.44628954,4.889144576));
#157=CARTESIAN_POINT('',(-0.737014411,14.972260718,4.889144576));
#158=CARTESIAN_POINT('',(-30.681535847,13.498231897,4.889144576));
#159=CARTESIAN_POINT('',(-29.207507026,-16.44628954,4.889144576));
#160=CARTESIAN_POINT('',(0.737014411,-14.972260718,4.889144576));
#161=CARTESIAN_POINT('',(0.737014411,-14.977066912,4.894064375));
#162=CARTESIAN_POINT('',(30.691148234,-13.50303809,4.894064375));
#163=CARTESIAN_POINT('',(29.217119413,16.451095733,4.894064375));
#164=CARTESIAN_POINT('',(-0.737014411,14.977066912,4.894064375));
#165=CARTESIAN_POINT('',(-30.691148234,13.50303809,4.894064375));
#166=CARTESIAN_POINT('',(-29.217119413,-16.451095733,4.894064375));
#167=CARTESIAN_POINT('',(0.737014411,-14.977066912,4.894064375));
#168=CARTESIAN_POINT('',(0.737014411,-14.981882718,4.898979486));
#169=CARTESIAN_POINT('',(30.700779846,-13.507853896,4.898979486));
#170=CARTESIAN_POINT('',(29.226751024,16.455911539,4.898979486));
#171=CARTESIAN_POINT('',(-0.737014411,14.981882718,4.898979486));
#172=CARTESIAN_POINT('',(-30.700779846,13.507853896,4.898979486));
#173=CARTESIAN_POINT('',(-29.226751024,-16.455911539,4.898979486));
#174=CARTESIAN_POINT('',(0.737014411,-14.981882718,4.898979486));
#175=(BOUNDED_SURFACE()
B_SPLINE_SURFACE(3,3,((#147,#148,#149,#150,#151,#152,#153),(#154,#155,#156,#157,#158,#159,#160),(#161,#162,#163,#164,#165,#166,#167),(#168,#169,#170,#171,#172,#173,#174)),.UNSPECIFIED.,.F.,.T.,.U.)
B_SPLINE_SURFACE_WITH_KNOTS((4,4),(4,3,4),(0.,0.000735821),(0.,0.5,1.),.UNSPECIFIED.)
GEOMETRIC_REPRESENTATION_ITEM()
RATIONAL_B_SPLINE_SURFACE(((1.,0.333333333,0.333333333,1.,0.333333333,0.333333333,1.),(0.999018905,0.333006302,0.333006302,0.999018905,0.333006302,0.333006302,0.999018905),(0.998039254,0.332679751,0.332679751,0.998039254,0.332679751,0.332679751,0.998039254),(0.997061047,0.332353682,0.332353682,0.997061047,0.332353682,0.332353682,0.997061047)))
REPRESENTATION_ITEM('')
SURFACE()
);
#176=CARTESIAN_POINT('',(0.737014411,-14.967464129,4.884220125));
#177=VERTEX_POINT('',#176);
#178=CARTESIAN_POINT('',(0.737014411,-14.967464129,4.884220125));
#179=CARTESIAN_POINT('',(-29.197913848,-16.441492951,4.884220125));
#180=CARTESIAN_POINT('',(-30.67194267,13.493435308,4.884220125));
#181=CARTESIAN_POINT('',(-0.737014411,14.967464129,4.884220125));
#182=CARTESIAN_POINT('',(29.197913848,16.441492951,4.884220125));
#183=CARTESIAN_POINT('',(30.67194267,-13.493435308,4.884220125));
#184=CARTESIAN_POINT('',(0.737014411,-14.967464129,4.884220125));
#185=(BOUNDED_CURVE()
B_SPLINE_CURVE(3,(#178,#179,#180,#181,#182,#183,#184),.UNSPECIFIED.,.T.,.F.)
B_SPLINE_CURVE_WITH_KNOTS((4,3,4),(0.,0.5,1.),.UNSPECIFIED.)
CURVE()
GEOMETRIC_REPRESENTATION_ITEM()
RATIONAL_B_SPLINE_CURVE((1.,0.333333333,0.333333333,1.,0.333333333,0.333333333,1.))
REPRESENTATION_ITEM(''));
#186=EDGE_CURVE('',#177,#177,#185,.T.);
#187=ORIENTED_EDGE('',*,*,#186,.F.);
#188=CARTESIAN_POINT('',(0.737014411,-14.981882717,-4.898979486));
#189=CARTESIAN_POINT('',(0.737014411,-10.181882717,0.));
#190=CARTESIAN_POINT('',(0.737014411,-14.981882717,4.898979486));
#191=(BOUNDED_CURVE()
B_SPLINE_CURVE(2,(#188,#189,#190),.UNSPECIFIED.,.F.,.F.)
B_SPLINE_CURVE_WITH_KNOTS((3,3),(4.735746181,6.286132927),.UNSPECIFIED.)
CURVE()
GEOMETRIC_REPRESENTATION_ITEM()
RATIONAL_B_SPLINE_CURVE((1.,0.714285714,1.))
REPRESENTATION_ITEM(''));
#192=EDGE_CURVE('',#177,#79,#191,.T.);
#193=ORIENTED_EDGE('',*,*,#192,.T.);
#194=ORIENTED_EDGE('',*,*,#90,.F.);
#195=ORIENTED_EDGE('',*,*,#102,.F.);
#196=ORIENTED_EDGE('',*,*,#192,.F.);
#197=EDGE_LOOP('',(#187,#193,#194,#195,#196));
#198=FACE_BOUND('',#197,.T.);
#199=ADVANCED_FACE('',(#198),#175,.F.);
#200=CARTESIAN_POINT('',(-15.718897128,-15.718897128,-5.));
#201=CARTESIAN_POINT('',(-15.718897128,15.,-5.));
#202=CARTESIAN_POINT('',(15.718897128,-15.718897128,-5.));
#203=CARTESIAN_POINT('',(15.718897128,15.,-5.));
#204=B_SPLINE_SURFACE_WITH_KNOTS('',1,1,((#200,#201),(#202,#203)),.UNSPECIFIED.,.F.,.F.,.U.,(2,2),(2,2),(-0.015718897,0.015718897),(-0.015718897,0.015),.UNSPECIFIED.);
#205=CARTESIAN_POINT('',(0.,15.,-5.));
#206=VERTEX_POINT('',#205);
#207=CARTESIAN_POINT('',(14.981882717,0.737014411,-5.));
#208=VERTEX_POINT('',#207);
#209=CARTESIAN_POINT('',(14.981882717,0.737014411,-5.));
#210=CARTESIAN_POINT('',(14.244868307,15.718897128,-5.));
#211=CARTESIAN_POINT('',(-0.737014411,14.981882717,-5.));
#212=CARTESIAN_POINT('',(-15.718897128,14.244868307,-5.));
#213=CARTESIAN_POINT('',(-14.981882717,-0.737014411,-5.));
#214=CARTESIAN_POINT('',(-14.244868307,-15.718897128,-5.));
#215=CARTESIAN_POINT('',(0.737014411,-14.981882717,-5.));
#216=CARTESIAN_POINT('',(15.718897128,-14.244868307,-5.));
#217=CARTESIAN_POINT('',(14.981882717,0.737014411,-5.));
#218=(BOUNDED_CURVE()
B_SPLINE_CURVE(2,(#209,#210,#211,#212,#213,#214,#215,#216,#217),.UNSPECIFIED.,.T.,.F.)
B_SPLINE_CURVE_WITH_KNOTS((3,2,2,2,3),(0.,1.570796327,3.141592654,4.71238898,6.283185307),.UNSPECIFIED.)
CURVE()
GEOMETRIC_REPRESENTATION_ITEM()
RATIONAL_B_SPLINE_CURVE((1.,0.707106781,1.,0.707106781,1.,0.707106781,1.,0.707106781,1.))
REPRESENTATION_ITEM(''));
#219=EDGE_CURVE('',#206,#208,#218,.T.);
#220=ORIENTED_EDGE('',*,*,#219,.F.);
#221=CARTESIAN_POINT('',(14.981882717,0.737014411,-5.));
#222=CARTESIAN_POINT('',(14.244868307,15.718897128,-5.));
#223=CARTESIAN_POINT('',(-0.737014411,14.981882717,-5.));
#224=CARTESIAN_POINT('',(-15.718897128,14.244868307,-5.));
#225=CARTESIAN_POINT('',(-14.981882717,-0.737014411,-5.));
#226=CARTESIAN_POINT('',(-14.244868307,-15.718897128,-5.));
#227=CARTESIAN_POINT('',(0.737014411,-14.981882717,-5.));
#228=CARTESIAN_POINT('',(15.718897128,-14.244868307,-5.));
#229=CARTESIAN_POINT('',(14.981882717,0.737014411,-5.));
#230=(BOUNDED_CURVE()
B_SPLINE_CURVE(2,(#221,#222,#223,#224,#225,#226,#227,#228,#229),.UNSPECIFIED.,.T.,.F.)
B_SPLINE_CURVE_WITH_KNOTS((3,2,2,2,3),(0.,1.570796327,3.141592654,4.71238898,6.283185307),.UNSPECIFIED.)
CURVE()
GEOMETRIC_REPRESENTATION_ITEM()
RATIONAL_B_SPLINE_CURVE((1.,0.707106781,1.,0.707106781,1.,0.707106781,1.,0.707106781,1.))
REPRESENTATION_ITEM(''));
#231=EDGE_CURVE('',#208,#206,#230,.T.);
#232=ORIENTED_EDGE('',*,*,#231,.F.);
#233=EDGE_LOOP('',(#220,#232));
#234=FACE_BOUND('',#233,.T.);
#235=ADVANCED_FACE('',(#234),#204,.F.);
#236=CARTESIAN_POINT('',(0.,15.,-4.898979486));
#237=CARTESIAN_POINT('',(0.,15.,-5.));
#238=CARTESIAN_POINT('',(25.980762114,15.,-4.898979486));
#239=CARTESIAN_POINT('',(25.980762114,15.,-5.));
#240=CARTESIAN_POINT('',(12.990381057,-7.5,-4.898979486));
#241=CARTESIAN_POINT('',(12.990381057,-7.5,-5.));
#242=CARTESIAN_POINT('',(0.,-30.,-4.898979486));
#243=CARTESIAN_POINT('',(0.,-30.,-5.));
#244=CARTESIAN_POINT('',(-12.990381057,-7.5,-4.898979486));
#245=CARTESIAN_POINT('',(-12.990381057,-7.5,-5.));
#246=CARTESIAN_POINT('',(-25.980762114,15.,-4.898979486));
#247=CARTESIAN_POINT('',(-25.980762114,15.,-5.));
#248=CARTESIAN_POINT('',(-0.,15.,-4.898979486));
#249=CARTESIAN_POINT('',(-0.,15.,-5.));
#250=(BOUNDED_SURFACE()
B_SPLINE_SURFACE(2,1,((#236,#237),(#238,#239),(#240,#241),(#242,#243),(#244,#245),(#246,#247),(#248,#249)),.UNSPECIFIED.,.T.,.F.,.U.)
B_SPLINE_SURFACE_WITH_KNOTS((3,2,2,3),(2,2),(0.,2.094395102,4.188790205,6.283185307),(0.009898979,0.01),.UNSPECIFIED.)
GEOMETRIC_REPRESENTATION_ITEM()
RATIONAL_B_SPLINE_SURFACE(((1.,1.),(0.5,0.5),(1.,1.),(0.5,0.5),(1.,1.),(0.5,0.5),(1.,1.)))
REPRESENTATION_ITEM('')
SURFACE()
);
#251=CARTESIAN_POINT('',(-0.,15.,-4.898979486));
#252=VERTEX_POINT('',#251);
#253=CARTESIAN_POINT('',(0.,15.,-5.));
#254=CARTESIAN_POINT('',(0.,15.,-4.898979486));
#255=B_SPLINE_CURVE_WITH_KNOTS('',1,(#253,#254),.UNSPECIFIED.,.F.,.F.,(2,2),(0.,0.000101021),.UNSPECIFIED.);
#256=EDGE_CURVE('',#206,#252,#255,.T.);
#257=ORIENTED_EDGE('',*,*,#256,.T.);
#258=CARTESIAN_POINT('',(0.737014411,-14.981882717,-4.898979486));
#259=VERTEX_POINT('',#258);
#260=CARTESIAN_POINT('',(0.737014411,-14.981882717,-4.898979486));
#261=CARTESIAN_POINT('',(-14.244868307,-15.718897128,-4.898979486));
#262=CARTESIAN_POINT('',(-14.981882717,-0.737014411,-4.898979486));
#263=CARTESIAN_POINT('',(-15.718897128,14.244868307,-4.898979486));
#264=CARTESIAN_POINT('',(-0.737014411,14.981882717,-4.898979486));
#265=CARTESIAN_POINT('',(14.244868307,15.718897128,-4.898979486));
#266=CARTESIAN_POINT('',(14.981882717,0.737014411,-4.898979486));
#267=CARTESIAN_POINT('',(15.718897128,-14.244868307,-4.898979486));
#268=CARTESIAN_POINT('',(0.737014411,-14.981882717,-4.898979486));
#269=(BOUNDED_CURVE()
B_SPLINE_CURVE(2,(#260,#261,#262,#263,#264,#265,#266,#267,#268),.UNSPECIFIED.,.T.,.F.)
B_SPLINE_CURVE_WITH_KNOTS((3,2,2,2,3),(4.761543066,6.332339393,7.903135719,9.473932046,11.044728373),.UNSPECIFIED.)
CURVE()
GEOMETRIC_REPRESENTATION_ITEM()
RATIONAL_B_SPLINE_CURVE((1.,0.707106781,1.,0.707106781,1.,0.707106781,1.,0.707106781,1.))
REPRESENTATION_ITEM(''));
#270=EDGE_CURVE('',#252,#259,#269,.T.);
#271=ORIENTED_EDGE('',*,*,#270,.T.);
#272=CARTESIAN_POINT('',(0.737014411,-14.981882717,-4.898979486));
#273=CARTESIAN_POINT('',(-14.244868307,-15.718897128,-4.898979486));
#274=CARTESIAN_POINT('',(-14.981882717,-0.737014411,-4.898979486));
#275=CARTESIAN_POINT('',(-15.718897128,14.244868307,-4.898979486));
#276=CARTESIAN_POINT('',(-0.737014411,14.981882717,-4.898979486));
#277=CARTESIAN_POINT('',(14.244868307,15.718897128,-4.898979486));
#278=CARTESIAN_POINT('',(14.981882717,0.737014411,-4.898979486));
#279=CARTESIAN_POINT('',(15.718897128,-14.244868307,-4.898979486));
#280=CARTESIAN_POINT('',(0.737014411,-14.981882717,-4.898979486));
#281=(BOUNDED_CURVE()
B_SPLINE_CURVE(2,(#272,#273,#274,#275,#276,#277,#278,#279,#280),.UNSPECIFIED.,.T.,.F.)
B_SPLINE_CURVE_WITH_KNOTS((3,2,2,2,3),(4.761543066,6.332339393,7.903135719,9.473932046,11.044728373),.UNSPECIFIED.)
CURVE()
GEOMETRIC_REPRESENTATION_ITEM()
RATIONAL_B_SPLINE_CURVE((1.,0.707106781,1.,0.707106781,1.,0.707106781,1.,0.707106781,1.))
REPRESENTATION_ITEM(''));
#282=EDGE_CURVE('',#259,#252,#281,.T.);
#283=ORIENTED_EDGE('',*,*,#282,.T.);
#284=ORIENTED_EDGE('',*,*,#256,.F.);
#285=ORIENTED_EDGE('',*,*,#219,.T.);
#286=ORIENTED_EDGE('',*,*,#231,.T.);
#287=EDGE_LOOP('',(#257,#271,#283,#284,#285,#286));
#288=FACE_BOUND('',#287,.T.);
#289=ADVANCED_FACE('',(#288),#250,.T.);
#290=CARTESIAN_POINT('',(0.,-0.95,-2.));
#291=CARTESIAN_POINT('',(0.,-0.95,5.));
#292=CARTESIAN_POINT('',(1.645448267,-0.95,-2.));
#293=CARTESIAN_POINT('',(1.645448267,-0.95,5.));
#294=CARTESIAN_POINT('',(0.822724134,0.475,-2.));
#295=CARTESIAN_POINT('',(0.822724134,0.475,5.));
#296=CARTESIAN_POINT('',(0.,1.9,-2.));
#297=CARTESIAN_POINT('',(0.,1.9,5.));
#298=CARTESIAN_POINT('',(-0.822724134,0.475,-2.));
#299=CARTESIAN_POINT('',(-0.822724134,0.475,5.));
#300=CARTESIAN_POINT('',(-1.645448267,-0.95,-2.));
#301=CARTESIAN_POINT('',(-1.645448267,-0.95,5.));
#302=CARTESIAN_POINT('',(-0.,-0.95,-2.));
#303=CARTESIAN_POINT('',(-0.,-0.95,5.));
#304=(BOUNDED_SURFACE()
B_SPLINE_SURFACE(2,1,((#290,#291),(#292,#293),(#294,#295),(#296,#297),(#298,#299),(#300,#301),(#302,#303)),.UNSPECIFIED.,.T.,.F.,.U.)
B_SPLINE_SURFACE_WITH_KNOTS((3,2,2,3),(2,2),(0.,2.094395102,4.188790205,6.283185307),(-0.,0.007),.UNSPECIFIED.)
GEOMETRIC_REPRESENTATION_ITEM()
RATIONAL_B_SPLINE_SURFACE(((1.,1.),(0.5,0.5),(1.,1.),(0.5,0.5),(1.,1.),(0.5,0.5),(1.,1.)))
REPRESENTATION_ITEM('')
SURFACE()
);
#305=CARTESIAN_POINT('',(-0.,-0.95,-2.));
#306=VERTEX_POINT('',#305);
#307=CARTESIAN_POINT('',(0.,-0.95,5.));
#308=CARTESIAN_POINT('',(0.,-0.95,-2.));
#309=B_SPLINE_CURVE_WITH_KNOTS('',1,(#307,#308),.UNSPECIFIED.,.F.,.F.,(2,2),(-0.,0.007),.UNSPECIFIED.);
#310=EDGE_CURVE('',#113,#306,#309,.T.);
#311=ORIENTED_EDGE('',*,*,#310,.F.);
#312=ORIENTED_EDGE('',*,*,#126,.T.);
#313=ORIENTED_EDGE('',*,*,#138,.T.);
#314=ORIENTED_EDGE('',*,*,#310,.T.);
#315=CARTESIAN_POINT('',(0.551179587,0.773757755,-2.));
#316=VERTEX_POINT('',#315);
#317=CARTESIAN_POINT('',(0.551179587,0.773757755,-2.));
#318=CARTESIAN_POINT('',(-0.222578168,1.324937342,-2.));
#319=CARTESIAN_POINT('',(-0.773757755,0.551179587,-2.));
#320=CARTESIAN_POINT('',(-1.324937342,-0.222578168,-2.));
#321=CARTESIAN_POINT('',(-0.551179587,-0.773757755,-2.));
#322=CARTESIAN_POINT('',(0.222578168,-1.324937342,-2.));
#323=CARTESIAN_POINT('',(0.773757755,-0.551179587,-2.));
#324=CARTESIAN_POINT('',(1.324937342,0.222578168,-2.));
#325=CARTESIAN_POINT('',(0.551179587,0.773757755,-2.));
#326=(BOUNDED_CURVE()
B_SPLINE_CURVE(2,(#317,#318,#319,#320,#321,#322,#323,#324,#325),.UNSPECIFIED.,.T.,.F.)
B_SPLINE_CURVE_WITH_KNOTS((3,2,2,2,3),(0.,1.570796327,3.141592654,4.71238898,6.283185307),.UNSPECIFIED.)
CURVE()
GEOMETRIC_REPRESENTATION_ITEM()
RATIONAL_B_SPLINE_CURVE((1.,0.707106781,1.,0.707106781,1.,0.707106781,1.,0.707106781,1.))
REPRESENTATION_ITEM(''));
#327=EDGE_CURVE('',#316,#306,#326,.T.);
#328=ORIENTED_EDGE('',*,*,#327,.F.);
#329=CARTESIAN_POINT('',(0.551179587,0.773757755,-2.));
#330=CARTESIAN_POINT('',(-0.222578168,1.324937342,-2.));
#331=CARTESIAN_POINT('',(-0.773757755,0.551179587,-2.));
#332=CARTESIAN_POINT('',(-1.324937342,-0.222578168,-2.));
#333=CARTESIAN_POINT('',(-0.551179587,-0.773757755,-2.));
#334=CARTESIAN_POINT('',(0.222578168,-1.324937342,-2.));
#335=CARTESIAN_POINT('',(0.773757755,-0.551179587,-2.));
#336=CARTESIAN_POINT('',(1.324937342,0.222578168,-2.));
#337=CARTESIAN_POINT('',(0.551179587,0.773757755,-2.));
#338=(BOUNDED_CURVE()
B_SPLINE_CURVE(2,(#329,#330,#331,#332,#333,#334,#335,#336,#337),.UNSPECIFIED.,.T.,.F.)
B_SPLINE_CURVE_WITH_KNOTS((3,2,2,2,3),(0.,1.570796327,3.141592654,4.71238898,6.283185307),.UNSPECIFIED.)
CURVE()
GEOMETRIC_REPRESENTATION_ITEM()
RATIONAL_B_SPLINE_CURVE((1.,0.707106781,1.,0.707106781,1.,0.707106781,1.,0.707106781,1.))
REPRESENTATION_ITEM(''));
#339=EDGE_CURVE('',#306,#316,#338,.T.);
#340=ORIENTED_EDGE('',*,*,#339,.F.);
#341=EDGE_LOOP('',(#311,#312,#313,#314,#328,#340));
#342=FACE_BOUND('',#341,.T.);
#343=ADVANCED_FACE('',(#342),#304,.F.);
#344=CARTESIAN_POINT('',(-1.324937342,-0.95,-2.));
#345=CARTESIAN_POINT('',(-1.324937342,1.324937342,-2.));
#346=CARTESIAN_POINT('',(1.324937342,-0.95,-2.));
#347=CARTESIAN_POINT('',(1.324937342,1.324937342,-2.));
#348=B_SPLINE_SURFACE_WITH_KNOTS('',1,1,((#344,#345),(#346,#347)),.UNSPECIFIED.,.F.,.F.,.U.,(2,2),(2,2),(-0.001324937,0.001324937),(-0.00095,0.001324937),.UNSPECIFIED.);
#349=ORIENTED_EDGE('',*,*,#327,.T.);
#350=ORIENTED_EDGE('',*,*,#339,.T.);
#351=EDGE_LOOP('',(#349,#350));
#352=FACE_BOUND('',#351,.T.);
#353=ADVANCED_FACE('',(#352),#348,.T.);
#354=CARTESIAN_POINT('',(0.737014411,-14.981882717,-4.898979486));
#355=CARTESIAN_POINT('',(30.700779846,-13.507853896,-4.898979486));
#356=CARTESIAN_POINT('',(29.226751024,16.455911539,-4.898979486));
#357=CARTESIAN_POINT('',(-0.737014411,14.981882717,-4.898979486));
#358=CARTESIAN_POINT('',(-30.700779846,13.507853896,-4.898979486));
#359=CARTESIAN_POINT('',(-29.226751024,-16.455911539,-4.898979486));
#360=CARTESIAN_POINT('',(0.737014411,-14.981882717,-4.898979486));
#361=CARTESIAN_POINT('',(0.737014411,-11.779122865,-1.630176399));
#362=CARTESIAN_POINT('',(24.295260141,-10.305094044,-1.630176399));
#363=CARTESIAN_POINT('',(22.82123132,13.253151687,-1.630176399));
#364=CARTESIAN_POINT('',(-0.737014411,11.779122865,-1.630176399));
#365=CARTESIAN_POINT('',(-24.295260141,10.305094044,-1.630176399));
#366=CARTESIAN_POINT('',(-22.82123132,-13.253151687,-1.630176399));
#367=CARTESIAN_POINT('',(0.737014411,-11.779122865,-1.630176399));
#368=CARTESIAN_POINT('',(0.737014411,-12.567888271,2.420678867));
#369=CARTESIAN_POINT('',(25.872790953,-11.09385945,2.420678867));
#370=CARTESIAN_POINT('',(24.398762132,14.041917093,2.420678867));
#371=CARTESIAN_POINT('',(-0.737014411,12.567888271,2.420678867));
#372=CARTESIAN_POINT('',(-25.872790953,11.09385945,2.420678867));
#373=CARTESIAN_POINT('',(-24.398762132,-14.041917093,2.420678867));
#374=CARTESIAN_POINT('',(0.737014411,-12.567888271,2.420678867));
#375=CARTESIAN_POINT('',(0.737014411,-14.967464129,4.884220125));
#376=CARTESIAN_POINT('',(30.67194267,-13.493435308,4.884220125));
#377=CARTESIAN_POINT('',(29.197913848,16.441492951,4.884220125));
#378=CARTESIAN_POINT('',(-0.737014411,14.967464129,4.884220125));
#379=CARTESIAN_POINT('',(-30.67194267,13.493435308,4.884220125));
#380=CARTESIAN_POINT('',(-29.197913848,-16.441492951,4.884220125));
#381=CARTESIAN_POINT('',(0.737014411,-14.967464129,4.884220125));
#382=(BOUNDED_SURFACE()
B_SPLINE_SURFACE(3,3,((#354,#355,#356,#357,#358,#359,#360),(#361,#362,#363,#364,#365,#366,#367),(#368,#369,#370,#371,#372,#373,#374),(#375,#376,#377,#378,#379,#380,#381)),.UNSPECIFIED.,.F.,.T.,.U.)
B_SPLINE_SURFACE_WITH_KNOTS((4,4),(4,3,4),(0.752919783,1.),(0.,0.5,1.),.UNSPECIFIED.)
GEOMETRIC_REPRESENTATION_ITEM()
RATIONAL_B_SPLINE_SURFACE(((0.500068201,0.1666894,0.1666894,0.500068201,0.1666894,0.1666894,0.500068201),(0.503915777,0.167971926,0.167971926,0.503915777,0.167971926,0.167971926,0.503915777),(0.67055971,0.223519903,0.223519903,0.67055971,0.223519903,0.223519903,0.67055971),(1.,0.333333333,0.333333333,1.,0.333333333,0.333333333,1.)))
REPRESENTATION_ITEM('')
SURFACE()
);
#383=ORIENTED_EDGE('',*,*,#186,.T.);
#384=CARTESIAN_POINT('',(0.737014411,-14.981882717,-4.898979486));
#385=CARTESIAN_POINT('',(0.737014411,-10.181882717,0.));
#386=CARTESIAN_POINT('',(0.737014411,-14.981882717,4.898979486));
#387=(BOUNDED_CURVE()
B_SPLINE_CURVE(2,(#384,#385,#386),.UNSPECIFIED.,.F.,.F.)
B_SPLINE_CURVE_WITH_KNOTS((3,3),(4.735746181,6.286132927),.UNSPECIFIED.)
CURVE()
GEOMETRIC_REPRESENTATION_ITEM()
RATIONAL_B_SPLINE_CURVE((1.,0.714285714,1.))
REPRESENTATION_ITEM(''));
#388=EDGE_CURVE('',#259,#177,#387,.T.);
#389=ORIENTED_EDGE('',*,*,#388,.F.);
#390=ORIENTED_EDGE('',*,*,#270,.F.);
#391=ORIENTED_EDGE('',*,*,#282,.F.);
#392=ORIENTED_EDGE('',*,*,#388,.T.);
#393=EDGE_LOOP('',(#383,#389,#390,#391,#392));
#394=FACE_BOUND('',#393,.T.);
#395=ADVANCED_FACE('',(#394),#382,.F.);
#396=CLOSED_SHELL('',(#106,#146,#199,#235,#289,#343,#353,#395));
#397=MANIFOLD_SOLID_BREP('Extruded.001',#396);
#26=STYLED_ITEM('',(),#397);
#16=SHAPE_REPRESENTATION('root',(#15),#10);
#17=ADVANCED_BREP_SHAPE_REPRESENTATION('root',(#397),#10);
#405=SHAPE_REPRESENTATION_RELATIONSHIP('','',#16,#17);
#406=APPLICATION_CONTEXT('configuration controlled 3D design of mechanical parts and assemblies');
#407=APPLICATION_PROTOCOL_DEFINITION('international standard','configuration_control_3d_design_ed2_mim',2004,#406);
#408=PRODUCT_CONTEXT('',#406,'mechanical');
#409=PRODUCT_DEFINITION_CONTEXT('part definition',#406,'design');
#24=PRODUCT('root','root','',(#408));
#410=PRODUCT_RELATED_PRODUCT_CATEGORY('part','',(#24));
#411=PRODUCT_DEFINITION_FORMATION_WITH_SPECIFIED_SOURCE('','',#24,.NOT_KNOWN.);
#25=PRODUCT_DEFINITION('design','',#411,#409);
#23=PRODUCT_DEFINITION_SHAPE('','',#25);
#412=SHAPE_DEFINITION_REPRESENTATION(#23,#16);
#11=DRAUGHTING_MODEL('',(),#10);
#1=MECHANICAL_DESIGN_GEOMETRIC_PRESENTATION_REPRESENTATION('',(#26),#10);
ENDSEC;
END-ISO-10303-21;
