ISO-10303-21;
HEADER;

/* File generated by HOOPS Exchange Version 25.8.0 */

FILE_DESCRIPTION(('HOOPS Exchange Step'),'2;1');

FILE_NAME('/home/tfannes/prints/260615_flywheel_nerf_gun/flywheel_3c.step',
'2026-06-18T19:58:13+02:00',
('tfannes'),
('Unknown organisation'),
'HOOPS Exchange 2025.8',
'HOOPS Exchange',
'Unknown authorisation');

FILE_SCHEMA( ('AP203_CONFIGURATION_CONTROLLED_3D_DESIGN_OF_MECHANICAL_PARTS_AND_ASSEMBLIES_MIM_LF') );

ENDSEC;

DATA;
#3=(NAMED_UNIT(*)PLANE_ANGLE_UNIT()SI_UNIT($,.RADIAN.));
#4=PLANE_ANGLE_MEASURE_WITH_UNIT(PLANE_ANGLE_MEASURE(0.0174532925),#3);
#5=(CONVERSION_BASED_UNIT('DEGREE',#4)NAMED_UNIT(#6)PLANE_ANGLE_UNIT());
#6=DIMENSIONAL_EXPONENTS(0.,0.,0.,0.,0.,0.,0.);
#7=(NAMED_UNIT(*)SI_UNIT($,.STERADIAN.)SOLID_ANGLE_UNIT());
#8=(LENGTH_UNIT()NAMED_UNIT(*)SI_UNIT(.MILLI.,.METRE.));
#9=UNCERTAINTY_MEASURE_WITH_UNIT(LENGTH_MEASURE(1.000000E-05),#8,'DISTANCE_ACCURACY_VALUE','Maximum Tolerance applied to model');
#10=(GEOMETRIC_REPRESENTATION_CONTEXT(3)GLOBAL_UNCERTAINTY_ASSIGNED_CONTEXT((#9))GLOBAL_UNIT_ASSIGNED_CONTEXT((#8,#5,#7))REPRESENTATION_CONTEXT('','root'));
#12=CARTESIAN_POINT('',(0.,0.,0.));
#13=DIRECTION('',(0.,0.,1.));
#14=DIRECTION('',(1.,0.,0.));
#15=AXIS2_PLACEMENT_3D('TS3D_PRODUCT_CSYS',#12,#13,#14);
#27=CARTESIAN_POINT('',(0.,15.,5.));
#28=CARTESIAN_POINT('',(0.,15.,4.898979486));
#29=CARTESIAN_POINT('',(25.980762114,15.,5.));
#30=CARTESIAN_POINT('',(25.980762114,15.,4.898979486));
#31=CARTESIAN_POINT('',(12.990381057,-7.5,5.));
#32=CARTESIAN_POINT('',(12.990381057,-7.5,4.898979486));
#33=CARTESIAN_POINT('',(0.,-30.,5.));
#34=CARTESIAN_POINT('',(0.,-30.,4.898979486));
#35=CARTESIAN_POINT('',(-12.990381057,-7.5,5.));
#36=CARTESIAN_POINT('',(-12.990381057,-7.5,4.898979486));
#37=CARTESIAN_POINT('',(-25.980762114,15.,5.));
#38=CARTESIAN_POINT('',(-25.980762114,15.,4.898979486));
#39=CARTESIAN_POINT('',(-0.,15.,5.));
#40=CARTESIAN_POINT('',(-0.,15.,4.898979486));
#41=(BOUNDED_SURFACE()
B_SPLINE_SURFACE(2,1,((#27,#28),(#29,#30),(#31,#32),(#33,#34),(#35,#36),(#37,#38),(#39,#40)),.UNSPECIFIED.,.T.,.F.,.U.)
B_SPLINE_SURFACE_WITH_KNOTS((3,2,2,3),(2,2),(0.,2.094395102,4.188790205,6.283185307),(-0.,0.000101021),.UNSPECIFIED.)
GEOMETRIC_REPRESENTATION_ITEM()
RATIONAL_B_SPLINE_SURFACE(((1.,1.),(0.5,0.5),(1.,1.),(0.5,0.5),(1.,1.),(0.5,0.5),(1.,1.)))
REPRESENTATION_ITEM('')
SURFACE()
);
#42=CARTESIAN_POINT('',(-0.,15.,4.898979486));
#43=VERTEX_POINT('',#42);
#44=CARTESIAN_POINT('',(0.,15.,5.));
#45=VERTEX_POINT('',#44);
#46=CARTESIAN_POINT('',(0.,15.,4.898979486));
#47=CARTESIAN_POINT('',(0.,15.,5.));
#48=B_SPLINE_CURVE_WITH_KNOTS('',1,(#46,#47),.UNSPECIFIED.,.F.,.F.,(2,2),(0.009898979,0.01),.UNSPECIFIED.);
#49=EDGE_CURVE('',#43,#45,#48,.T.);
#50=ORIENTED_EDGE('',*,*,#49,.T.);
#51=CARTESIAN_POINT('',(14.981882717,0.737014411,5.));
#52=VERTEX_POINT('',#51);
#53=CARTESIAN_POINT('',(14.981882717,0.737014411,5.));
#54=CARTESIAN_POINT('',(14.244868307,15.718897128,5.));
#55=CARTESIAN_POINT('',(-0.737014411,14.981882717,5.));
#56=CARTESIAN_POINT('',(-15.718897128,14.244868307,5.));
#57=CARTESIAN_POINT('',(-14.981882717,-0.737014411,5.));
#58=CARTESIAN_POINT('',(-14.244868307,-15.718897128,5.));
#59=CARTESIAN_POINT('',(0.737014411,-14.981882717,5.));
#60=CARTESIAN_POINT('',(15.718897128,-14.244868307,5.));
#61=CARTESIAN_POINT('',(14.981882717,0.737014411,5.));
#62=(BOUNDED_CURVE()
B_SPLINE_CURVE(2,(#53,#54,#55,#56,#57,#58,#59,#60,#61),.UNSPECIFIED.,.T.,.F.)
B_SPLINE_CURVE_WITH_KNOTS((3,2,2,2,3),(0.,1.570796327,3.141592654,4.71238898,6.283185307),.UNSPECIFIED.)
CURVE()
GEOMETRIC_REPRESENTATION_ITEM()
RATIONAL_B_SPLINE_CURVE((1.,0.707106781,1.,0.707106781,1.,0.707106781,1.,0.707106781,1.))
REPRESENTATION_ITEM(''));
#63=EDGE_CURVE('',#52,#45,#62,.T.);
#64=ORIENTED_EDGE('',*,*,#63,.F.);
#65=CARTESIAN_POINT('',(14.981882717,0.737014411,5.));
#66=CARTESIAN_POINT('',(14.244868307,15.718897128,5.));
#67=CARTESIAN_POINT('',(-0.737014411,14.981882717,5.));
#68=CARTESIAN_POINT('',(-15.718897128,14.244868307,5.));
#69=CARTESIAN_POINT('',(-14.981882717,-0.737014411,5.));
#70=CARTESIAN_POINT('',(-14.244868307,-15.718897128,5.));
#71=CARTESIAN_POINT('',(0.737014411,-14.981882717,5.));
#72=CARTESIAN_POINT('',(15.718897128,-14.244868307,5.));
#73=CARTESIAN_POINT('',(14.981882717,0.737014411,5.));
#74=(BOUNDED_CURVE()
B_SPLINE_CURVE(2,(#65,#66,#67,#68,#69,#70,#71,#72,#73),.UNSPECIFIED.,.T.,.F.)
B_SPLINE_CURVE_WITH_KNOTS((3,2,2,2,3),(0.,1.570796327,3.141592654,4.71238898,6.283185307),.UNSPECIFIED.)
CURVE()
GEOMETRIC_REPRESENTATION_ITEM()
RATIONAL_B_SPLINE_CURVE((1.,0.707106781,1.,0.707106781,1.,0.707106781,1.,0.707106781,1.))
REPRESENTATION_ITEM(''));
#75=EDGE_CURVE('',#45,#52,#74,.T.);
#76=ORIENTED_EDGE('',*,*,#75,.F.);
#77=ORIENTED_EDGE('',*,*,#49,.F.);
#78=CARTESIAN_POINT('',(0.737014411,-14.981882717,4.898979486));
#79=VERTEX_POINT('',#78);
#80=CARTESIAN_POINT('',(0.737014411,-14.981882717,4.898979486));
#81=CARTESIAN_POINT('',(15.718897128,-14.244868307,4.898979486));
#82=CARTESIAN_POINT('',(14.981882717,0.737014411,4.898979486));
#83=CARTESIAN_POINT('',(14.244868307,15.718897128,4.898979486));
#84=CARTESIAN_POINT('',(-0.737014411,14.981882717,4.898979486));
#85=CARTESIAN_POINT('',(-15.718897128,14.244868307,4.898979486));
#86=CARTESIAN_POINT('',(-14.981882717,-0.737014411,4.898979486));
#87=CARTESIAN_POINT('',(-14.244868307,-15.718897128,4.898979486));
#88=CARTESIAN_POINT('',(0.737014411,-14.981882717,4.898979486));
#89=(BOUNDED_CURVE()
B_SPLINE_CURVE(2,(#80,#81,#82,#83,#84,#85,#86,#87,#88),.UNSPECIFIED.,.T.,.F.)
B_SPLINE_CURVE_WITH_KNOTS((3,2,2,2,3),(4.761543066,6.332339393,7.903135719,9.473932046,11.044728373),.UNSPECIFIED.)
CURVE()
GEOMETRIC_REPRESENTATION_ITEM()
RATIONAL_B_SPLINE_CURVE((1.,0.707106781,1.,0.707106781,1.,0.707106781,1.,0.707106781,1.))
REPRESENTATION_ITEM(''));
#90=EDGE_CURVE('',#43,#79,#89,.T.);
#91=ORIENTED_EDGE('',*,*,#90,.T.);
#92=CARTESIAN_POINT('',(0.737014411,-14.981882717,4.898979486));
#93=CARTESIAN_POINT('',(15.718897128,-14.244868307,4.898979486));
#94=CARTESIAN_POINT('',(14.981882717,0.737014411,4.898979486));
#95=CARTESIAN_POINT('',(14.244868307,15.718897128,4.898979486));
#96=CARTESIAN_POINT('',(-0.737014411,14.981882717,4.898979486));
#97=CARTESIAN_POINT('',(-15.718897128,14.244868307,4.898979486));
#98=CARTESIAN_POINT('',(-14.981882717,-0.737014411,4.898979486));
#99=CARTESIAN_POINT('',(-14.244868307,-15.718897128,4.898979486));
#100=CARTESIAN_POINT('',(0.737014411,-14.981882717,4.898979486));
#101=(BOUNDED_CURVE()
B_SPLINE_CURVE(2,(#92,#93,#94,#95,#96,#97,#98,#99,#100),.UNSPECIFIED.,.T.,.F.)
B_SPLINE_CURVE_WITH_KNOTS((3,2,2,2,3),(4.761543066,6.332339393,7.903135719,9.473932046,11.044728373),.UNSPECIFIED.)
CURVE()
GEOMETRIC_REPRESENTATION_ITEM()
RATIONAL_B_SPLINE_CURVE((1.,0.707106781,1.,0.707106781,1.,0.707106781,1.,0.707106781,1.))
REPRESENTATION_ITEM(''));
#102=EDGE_CURVE('',#79,#43,#101,.T.);
#103=ORIENTED_EDGE('',*,*,#102,.T.);
#104=EDGE_LOOP('',(#50,#64,#76,#77,#91,#103));
#105=FACE_BOUND('',#104,.T.);
#106=ADVANCED_FACE('',(#105),#41,.T.);
#107=CARTESIAN_POINT('',(-15.718897128,-15.718897128,5.));
#108=CARTESIAN_POINT('',(-15.718897128,15.,5.));
#109=CARTESIAN_POINT('',(15.718897128,-15.718897128,5.));
#110=CARTESIAN_POINT('',(15.718897128,15.,5.));
#111=B_SPLINE_SURFACE_WITH_KNOTS('',1,1,((#107,#108),(#109,#110)),.UNSPECIFIED.,.F.,.F.,.U.,(2,2),(2,2),(-0.015718897,0.015718897),(-0.015718897,0.015),.UNSPECIFIED.);
#112=CARTESIAN_POINT('',(0.,-1.03,5.));
#113=VERTEX_POINT('',#112);
#114=CARTESIAN_POINT('',(-0.749512389,0.706492165,5.));
#115=VERTEX_POINT('',#114);
#116=CARTESIAN_POINT('',(-0.749512389,0.706492165,5.));
#117=CARTESIAN_POINT('',(-1.456004554,-0.043020224,5.));
#118=CARTESIAN_POINT('',(-0.706492165,-0.749512389,5.));
#119=CARTESIAN_POINT('',(0.043020224,-1.456004554,5.));
#120=CARTESIAN_POINT('',(0.749512389,-0.706492165,5.));
#121=CARTESIAN_POINT('',(1.456004554,0.043020224,5.));
#122=CARTESIAN_POINT('',(0.706492165,0.749512389,5.));
#123=CARTESIAN_POINT('',(-0.043020224,1.456004554,5.));
#124=CARTESIAN_POINT('',(-0.749512389,0.706492165,5.));
#125=(BOUNDED_CURVE()
B_SPLINE_CURVE(2,(#116,#117,#118,#119,#120,#121,#122,#123,#124),.UNSPECIFIED.,.T.,.F.)
B_SPLINE_CURVE_WITH_KNOTS((3,2,2,2,3),(0.,1.570796327,3.141592654,4.71238898,6.283185307),.UNSPECIFIED.)
CURVE()
GEOMETRIC_REPRESENTATION_ITEM()
RATIONAL_B_SPLINE_CURVE((1.,0.707106781,1.,0.707106781,1.,0.707106781,1.,0.707106781,1.))
REPRESENTATION_ITEM(''));
#126=EDGE_CURVE('',#113,#115,#125,.T.);
#127=ORIENTED_EDGE('',*,*,#126,.F.);
#128=CARTESIAN_POINT('',(-0.749512389,0.706492165,5.));
#129=CARTESIAN_POINT('',(-1.456004554,-0.043020224,5.));
#130=CARTESIAN_POINT('',(-0.706492165,-0.749512389,5.));
#131=CARTESIAN_POINT('',(0.043020224,-1.456004554,5.));
#132=CARTESIAN_POINT('',(0.749512389,-0.706492165,5.));
#133=CARTESIAN_POINT('',(1.456004554,0.043020224,5.));
#134=CARTESIAN_POINT('',(0.706492165,0.749512389,5.));
#135=CARTESIAN_POINT('',(-0.043020224,1.456004554,5.));
#136=CARTESIAN_POINT('',(-0.749512389,0.706492165,5.));
#137=(BOUNDED_CURVE()
B_SPLINE_CURVE(2,(#128,#129,#130,#131,#132,#133,#134,#135,#136),.UNSPECIFIED.,.T.,.F.)
B_SPLINE_CURVE_WITH_KNOTS((3,2,2,2,3),(0.,1.570796327,3.141592654,4.71238898,6.283185307),.UNSPECIFIED.)
CURVE()
GEOMETRIC_REPRESENTATION_ITEM()
RATIONAL_B_SPLINE_CURVE((1.,0.707106781,1.,0.707106781,1.,0.707106781,1.,0.707106781,1.))
REPRESENTATION_ITEM(''));
#138=EDGE_CURVE('',#115,#113,#137,.T.);
#139=ORIENTED_EDGE('',*,*,#138,.F.);
#140=EDGE_LOOP('',(#127,#139));
#141=FACE_BOUND('',#140,.T.);
#142=ORIENTED_EDGE('',*,*,#63,.T.);
#143=ORIENTED_EDGE('',*,*,#75,.T.);
#144=EDGE_LOOP('',(#142,#143));
#145=FACE_BOUND('',#144,.T.);
#146=ADVANCED_FACE('',(#141,#145),#111,.T.);
#147=CARTESIAN_POINT('',(0.737014411,-14.967464129,4.884220125));
#148=CARTESIAN_POINT('',(30.67194267,-13.493435308,4.884220125));
#149=CARTESIAN_POINT('',(29.197913848,16.441492951,4.884220125));
#150=CARTESIAN_POINT('',(-0.737014411,14.967464129,4.884220125));
#151=CARTESIAN_POINT('',(-30.67194267,13.493435308,4.884220125));
#152=CARTESIAN_POINT('',(-29.197913848,-16.441492951,4.884220125));
#153=CARTESIAN_POINT('',(0.737014411,-14.967464129,4.884220125));
#154=CARTESIAN_POINT('',(0.737014411,-14.972260718,4.889144576));
#155=CARTESIAN_POINT('',(30.681535847,-13.498231897,4.889144576));
#156=CARTESIAN_POINT('',(29.207507026,16.44628954,4.889144576));
#157=CARTESIAN_POINT('',(-0.737014411,14.972260718,4.889144576));
#158=CARTESIAN_POINT('',(-30.681535847,13.498231897,4.889144576));
#159=CARTESIAN_POINT('',(-29.207507026,-16.44628954,4.889144576));
#160=CARTESIAN_POINT('',(0.737014411,-14.972260718,4.889144576));
#161=CARTESIAN_POINT('',(0.737014411,-14.977066912,4.894064375));
#162=CARTESIAN_POINT('',(30.691148234,-13.50303809,4.894064375));
#163=CARTESIAN_POINT('',(29.217119413,16.451095733,4.894064375));
#164=CARTESIAN_POINT('',(-0.737014411,14.977066912,4.894064375));
#165=CARTESIAN_POINT('',(-30.691148234,13.50303809,4.894064375));
#166=CARTESIAN_POINT('',(-29.217119413,-16.451095733,4.894064375));
#167=CARTESIAN_POINT('',(0.737014411,-14.977066912,4.894064375));
#168=CARTESIAN_POINT('',(0.737014411,-14.981882718,4.898979486));
#169=CARTESIAN_POINT('',(30.700779846,-13.507853896,4.898979486));
#170=CARTESIAN_POINT('',(29.226751024,16.455911539,4.898979486));
#171=CARTESIAN_POINT('',(-0.737014411,14.981882718,4.898979486));
#172=CARTESIAN_POINT('',(-30.700779846,13.507853896,4.898979486));
#173=CARTESIAN_POINT('',(-29.226751024,-16.455911539,4.898979486));
#174=CARTESIAN_POINT('',(0.737014411,-14.981882718,4.898979486));
#175=(BOUNDED_SURFACE()
B_SPLINE_SURFACE(3,3,((#147,#148,#149,#150,#151,#152,#153),(#154,#155,#156,#157,#158,#159,#160),(#161,#162,#163,#164,#165,#166,#167),(#168,#169,#170,#171,#172,#173,#174)),.UNSPECIFIED.,.F.,.T.,.U.)
B_SPLINE_SURFACE_WITH_KNOTS((4,4),(4,3,4),(0.,0.000735821),(0.,0.5,1.),.UNSPECIFIED.)
GEOMETRIC_REPRESENTATION_ITEM()
RATIONAL_B_SPLINE_SURFACE(((1.,0.333333333,0.333333333,1.,0.333333333,0.333333333,1.),(0.999018905,0.333006302,0.333006302,0.999018905,0.333006302,0.333006302,0.999018905),(0.998039254,0.332679751,0.332679751,0.998039254,0.332679751,0.332679751,0.998039254),(0.997061047,0.332353682,0.332353682,0.997061047,0.332353682,0.332353682,0.997061047)))
REPRESENTATION_ITEM('')
SURFACE()
);
#176=CARTESIAN_POINT('',(0.737014411,-14.967464129,4.884220125));
#177=VERTEX_POINT('',#176);
#178=CARTESIAN_POINT('',(0.737014411,-14.967464129,4.884220125));
#179=CARTESIAN_POINT('',(-29.197913848,-16.441492951,4.884220125));
#180=CARTESIAN_POINT('',(-30.67194267,13.493435308,4.884220125));
#181=CARTESIAN_POINT('',(-0.737014411,14.967464129,4.884220125));
#182=CARTESIAN_POINT('',(29.197913848,16.441492951,4.884220125));
#183=CARTESIAN_POINT('',(30.67194267,-13.493435308,4.884220125));
#184=CARTESIAN_POINT('',(0.737014411,-14.967464129,4.884220125));
#185=(BOUNDED_CURVE()
B_SPLINE_CURVE(3,(#178,#179,#180,#181,#182,#183,#184),.UNSPECIFIED.,.T.,.F.)
B_SPLINE_CURVE_WITH_KNOTS((4,3,4),(0.,0.5,1.),.UNSPECIFIED.)
CURVE()
GEOMETRIC_REPRESENTATION_ITEM()
RATIONAL_B_SPLINE_CURVE((1.,0.333333333,0.333333333,1.,0.333333333,0.333333333,1.))
REPRESENTATION_ITEM(''));
#186=EDGE_CURVE('',#177,#177,#185,.T.);
#187=ORIENTED_EDGE('',*,*,#186,.F.);
#188=CARTESIAN_POINT('',(0.737014411,-14.981882717,-4.898979486));
#189=CARTESIAN_POINT('',(0.737014411,-10.181882717,0.));
#190=CARTESIAN_POINT('',(0.737014411,-14.981882717,4.898979486));
#191=(BOUNDED_CURVE()
B_SPLINE_CURVE(2,(#188,#189,#190),.UNSPECIFIED.,.F.,.F.)
B_SPLINE_CURVE_WITH_KNOTS((3,3),(4.735746181,6.286132927),.UNSPECIFIED.)
CURVE()
GEOMETRIC_REPRESENTATION_ITEM()
RATIONAL_B_SPLINE_CURVE((1.,0.714285714,1.))
REPRESENTATION_ITEM(''));
#192=EDGE_CURVE('',#177,#79,#191,.T.);
#193=ORIENTED_EDGE('',*,*,#192,.T.);
#194=ORIENTED_EDGE('',*,*,#90,.F.);
#195=ORIENTED_EDGE('',*,*,#102,.F.);
#196=ORIENTED_EDGE('',*,*,#192,.F.);
#197=EDGE_LOOP('',(#187,#193,#194,#195,#196));
#198=FACE_BOUND('',#197,.T.);
#199=ADVANCED_FACE('',(#198),#175,.F.);
#200=CARTESIAN_POINT('',(-15.718897128,-15.718897128,-5.));
#201=CARTESIAN_POINT('',(-15.718897128,15.,-5.));
#202=CARTESIAN_POINT('',(15.718897128,-15.718897128,-5.));
#203=CARTESIAN_POINT('',(15.718897128,15.,-5.));
#204=B_SPLINE_SURFACE_WITH_KNOTS('',1,1,((#200,#201),(#202,#203)),.UNSPECIFIED.,.F.,.F.,.U.,(2,2),(2,2),(-0.015718897,0.015718897),(-0.015718897,0.015),.UNSPECIFIED.);
#205=CARTESIAN_POINT('',(10.334269022,1.858193685,-5.));
#206=VERTEX_POINT('',#205);
#207=CARTESIAN_POINT('',(0.,10.5,-5.));
#208=VERTEX_POINT('',#207);
#209=CARTESIAN_POINT('',(10.334269022,1.858193685,-5.));
#210=CARTESIAN_POINT('',(8.476075338,12.192462707,-5.));
#211=CARTESIAN_POINT('',(-1.858193685,10.334269022,-5.));
#212=CARTESIAN_POINT('',(-12.192462707,8.476075338,-5.));
#213=CARTESIAN_POINT('',(-10.334269022,-1.858193685,-5.));
#214=CARTESIAN_POINT('',(-8.476075338,-12.192462707,-5.));
#215=CARTESIAN_POINT('',(1.858193685,-10.334269022,-5.));
#216=CARTESIAN_POINT('',(12.192462707,-8.476075338,-5.));
#217=CARTESIAN_POINT('',(10.334269022,1.858193685,-5.));
#218=(BOUNDED_CURVE()
B_SPLINE_CURVE(2,(#209,#210,#211,#212,#213,#214,#215,#216,#217),.UNSPECIFIED.,.T.,.F.)
B_SPLINE_CURVE_WITH_KNOTS((3,2,2,2,3),(0.,1.570796327,3.141592654,4.71238898,6.283185307),.UNSPECIFIED.)
CURVE()
GEOMETRIC_REPRESENTATION_ITEM()
RATIONAL_B_SPLINE_CURVE((1.,0.707106781,1.,0.707106781,1.,0.707106781,1.,0.707106781,1.))
REPRESENTATION_ITEM(''));
#219=EDGE_CURVE('',#206,#208,#218,.T.);
#220=ORIENTED_EDGE('',*,*,#219,.T.);
#221=CARTESIAN_POINT('',(10.334269022,1.858193685,-5.));
#222=CARTESIAN_POINT('',(8.476075338,12.192462707,-5.));
#223=CARTESIAN_POINT('',(-1.858193685,10.334269022,-5.));
#224=CARTESIAN_POINT('',(-12.192462707,8.476075338,-5.));
#225=CARTESIAN_POINT('',(-10.334269022,-1.858193685,-5.));
#226=CARTESIAN_POINT('',(-8.476075338,-12.192462707,-5.));
#227=CARTESIAN_POINT('',(1.858193685,-10.334269022,-5.));
#228=CARTESIAN_POINT('',(12.192462707,-8.476075338,-5.));
#229=CARTESIAN_POINT('',(10.334269022,1.858193685,-5.));
#230=(BOUNDED_CURVE()
B_SPLINE_CURVE(2,(#221,#222,#223,#224,#225,#226,#227,#228,#229),.UNSPECIFIED.,.T.,.F.)
B_SPLINE_CURVE_WITH_KNOTS((3,2,2,2,3),(0.,1.570796327,3.141592654,4.71238898,6.283185307),.UNSPECIFIED.)
CURVE()
GEOMETRIC_REPRESENTATION_ITEM()
RATIONAL_B_SPLINE_CURVE((1.,0.707106781,1.,0.707106781,1.,0.707106781,1.,0.707106781,1.))
REPRESENTATION_ITEM(''));
#231=EDGE_CURVE('',#208,#206,#230,.T.);
#232=ORIENTED_EDGE('',*,*,#231,.T.);
#233=EDGE_LOOP('',(#220,#232));
#234=FACE_BOUND('',#233,.T.);
#235=CARTESIAN_POINT('',(0.,15.,-5.));
#236=VERTEX_POINT('',#235);
#237=CARTESIAN_POINT('',(14.981882717,0.737014411,-5.));
#238=VERTEX_POINT('',#237);
#239=CARTESIAN_POINT('',(14.981882717,0.737014411,-5.));
#240=CARTESIAN_POINT('',(14.244868307,15.718897128,-5.));
#241=CARTESIAN_POINT('',(-0.737014411,14.981882717,-5.));
#242=CARTESIAN_POINT('',(-15.718897128,14.244868307,-5.));
#243=CARTESIAN_POINT('',(-14.981882717,-0.737014411,-5.));
#244=CARTESIAN_POINT('',(-14.244868307,-15.718897128,-5.));
#245=CARTESIAN_POINT('',(0.737014411,-14.981882717,-5.));
#246=CARTESIAN_POINT('',(15.718897128,-14.244868307,-5.));
#247=CARTESIAN_POINT('',(14.981882717,0.737014411,-5.));
#248=(BOUNDED_CURVE()
B_SPLINE_CURVE(2,(#239,#240,#241,#242,#243,#244,#245,#246,#247),.UNSPECIFIED.,.T.,.F.)
B_SPLINE_CURVE_WITH_KNOTS((3,2,2,2,3),(0.,1.570796327,3.141592654,4.71238898,6.283185307),.UNSPECIFIED.)
CURVE()
GEOMETRIC_REPRESENTATION_ITEM()
RATIONAL_B_SPLINE_CURVE((1.,0.707106781,1.,0.707106781,1.,0.707106781,1.,0.707106781,1.))
REPRESENTATION_ITEM(''));
#249=EDGE_CURVE('',#236,#238,#248,.T.);
#250=ORIENTED_EDGE('',*,*,#249,.F.);
#251=CARTESIAN_POINT('',(14.981882717,0.737014411,-5.));
#252=CARTESIAN_POINT('',(14.244868307,15.718897128,-5.));
#253=CARTESIAN_POINT('',(-0.737014411,14.981882717,-5.));
#254=CARTESIAN_POINT('',(-15.718897128,14.244868307,-5.));
#255=CARTESIAN_POINT('',(-14.981882717,-0.737014411,-5.));
#256=CARTESIAN_POINT('',(-14.244868307,-15.718897128,-5.));
#257=CARTESIAN_POINT('',(0.737014411,-14.981882717,-5.));
#258=CARTESIAN_POINT('',(15.718897128,-14.244868307,-5.));
#259=CARTESIAN_POINT('',(14.981882717,0.737014411,-5.));
#260=(BOUNDED_CURVE()
B_SPLINE_CURVE(2,(#251,#252,#253,#254,#255,#256,#257,#258,#259),.UNSPECIFIED.,.T.,.F.)
B_SPLINE_CURVE_WITH_KNOTS((3,2,2,2,3),(0.,1.570796327,3.141592654,4.71238898,6.283185307),.UNSPECIFIED.)
CURVE()
GEOMETRIC_REPRESENTATION_ITEM()
RATIONAL_B_SPLINE_CURVE((1.,0.707106781,1.,0.707106781,1.,0.707106781,1.,0.707106781,1.))
REPRESENTATION_ITEM(''));
#261=EDGE_CURVE('',#238,#236,#260,.T.);
#262=ORIENTED_EDGE('',*,*,#261,.F.);
#263=EDGE_LOOP('',(#250,#262));
#264=FACE_BOUND('',#263,.T.);
#265=ADVANCED_FACE('',(#234,#264),#204,.F.);
#266=CARTESIAN_POINT('',(0.,15.,-4.898979486));
#267=CARTESIAN_POINT('',(0.,15.,-5.));
#268=CARTESIAN_POINT('',(25.980762114,15.,-4.898979486));
#269=CARTESIAN_POINT('',(25.980762114,15.,-5.));
#270=CARTESIAN_POINT('',(12.990381057,-7.5,-4.898979486));
#271=CARTESIAN_POINT('',(12.990381057,-7.5,-5.));
#272=CARTESIAN_POINT('',(0.,-30.,-4.898979486));
#273=CARTESIAN_POINT('',(0.,-30.,-5.));
#274=CARTESIAN_POINT('',(-12.990381057,-7.5,-4.898979486));
#275=CARTESIAN_POINT('',(-12.990381057,-7.5,-5.));
#276=CARTESIAN_POINT('',(-25.980762114,15.,-4.898979486));
#277=CARTESIAN_POINT('',(-25.980762114,15.,-5.));
#278=CARTESIAN_POINT('',(-0.,15.,-4.898979486));
#279=CARTESIAN_POINT('',(-0.,15.,-5.));
#280=(BOUNDED_SURFACE()
B_SPLINE_SURFACE(2,1,((#266,#267),(#268,#269),(#270,#271),(#272,#273),(#274,#275),(#276,#277),(#278,#279)),.UNSPECIFIED.,.T.,.F.,.U.)
B_SPLINE_SURFACE_WITH_KNOTS((3,2,2,3),(2,2),(0.,2.094395102,4.188790205,6.283185307),(0.009898979,0.01),.UNSPECIFIED.)
GEOMETRIC_REPRESENTATION_ITEM()
RATIONAL_B_SPLINE_SURFACE(((1.,1.),(0.5,0.5),(1.,1.),(0.5,0.5),(1.,1.),(0.5,0.5),(1.,1.)))
REPRESENTATION_ITEM('')
SURFACE()
);
#281=CARTESIAN_POINT('',(-0.,15.,-4.898979486));
#282=VERTEX_POINT('',#281);
#283=CARTESIAN_POINT('',(0.,15.,-5.));
#284=CARTESIAN_POINT('',(0.,15.,-4.898979486));
#285=B_SPLINE_CURVE_WITH_KNOTS('',1,(#283,#284),.UNSPECIFIED.,.F.,.F.,(2,2),(0.,0.000101021),.UNSPECIFIED.);
#286=EDGE_CURVE('',#236,#282,#285,.T.);
#287=ORIENTED_EDGE('',*,*,#286,.T.);
#288=CARTESIAN_POINT('',(0.737014411,-14.981882717,-4.898979486));
#289=VERTEX_POINT('',#288);
#290=CARTESIAN_POINT('',(0.737014411,-14.981882717,-4.898979486));
#291=CARTESIAN_POINT('',(-14.244868307,-15.718897128,-4.898979486));
#292=CARTESIAN_POINT('',(-14.981882717,-0.737014411,-4.898979486));
#293=CARTESIAN_POINT('',(-15.718897128,14.244868307,-4.898979486));
#294=CARTESIAN_POINT('',(-0.737014411,14.981882717,-4.898979486));
#295=CARTESIAN_POINT('',(14.244868307,15.718897128,-4.898979486));
#296=CARTESIAN_POINT('',(14.981882717,0.737014411,-4.898979486));
#297=CARTESIAN_POINT('',(15.718897128,-14.244868307,-4.898979486));
#298=CARTESIAN_POINT('',(0.737014411,-14.981882717,-4.898979486));
#299=(BOUNDED_CURVE()
B_SPLINE_CURVE(2,(#290,#291,#292,#293,#294,#295,#296,#297,#298),.UNSPECIFIED.,.T.,.F.)
B_SPLINE_CURVE_WITH_KNOTS((3,2,2,2,3),(4.761543066,6.332339393,7.903135719,9.473932046,11.044728373),.UNSPECIFIED.)
CURVE()
GEOMETRIC_REPRESENTATION_ITEM()
RATIONAL_B_SPLINE_CURVE((1.,0.707106781,1.,0.707106781,1.,0.707106781,1.,0.707106781,1.))
REPRESENTATION_ITEM(''));
#300=EDGE_CURVE('',#282,#289,#299,.T.);
#301=ORIENTED_EDGE('',*,*,#300,.T.);
#302=CARTESIAN_POINT('',(0.737014411,-14.981882717,-4.898979486));
#303=CARTESIAN_POINT('',(-14.244868307,-15.718897128,-4.898979486));
#304=CARTESIAN_POINT('',(-14.981882717,-0.737014411,-4.898979486));
#305=CARTESIAN_POINT('',(-15.718897128,14.244868307,-4.898979486));
#306=CARTESIAN_POINT('',(-0.737014411,14.981882717,-4.898979486));
#307=CARTESIAN_POINT('',(14.244868307,15.718897128,-4.898979486));
#308=CARTESIAN_POINT('',(14.981882717,0.737014411,-4.898979486));
#309=CARTESIAN_POINT('',(15.718897128,-14.244868307,-4.898979486));
#310=CARTESIAN_POINT('',(0.737014411,-14.981882717,-4.898979486));
#311=(BOUNDED_CURVE()
B_SPLINE_CURVE(2,(#302,#303,#304,#305,#306,#307,#308,#309,#310),.UNSPECIFIED.,.T.,.F.)
B_SPLINE_CURVE_WITH_KNOTS((3,2,2,2,3),(4.761543066,6.332339393,7.903135719,9.473932046,11.044728373),.UNSPECIFIED.)
CURVE()
GEOMETRIC_REPRESENTATION_ITEM()
RATIONAL_B_SPLINE_CURVE((1.,0.707106781,1.,0.707106781,1.,0.707106781,1.,0.707106781,1.))
REPRESENTATION_ITEM(''));
#312=EDGE_CURVE('',#289,#282,#311,.T.);
#313=ORIENTED_EDGE('',*,*,#312,.T.);
#314=ORIENTED_EDGE('',*,*,#286,.F.);
#315=ORIENTED_EDGE('',*,*,#249,.T.);
#316=ORIENTED_EDGE('',*,*,#261,.T.);
#317=EDGE_LOOP('',(#287,#301,#313,#314,#315,#316));
#318=FACE_BOUND('',#317,.T.);
#319=ADVANCED_FACE('',(#318),#280,.T.);
#320=CARTESIAN_POINT('',(0.,-1.03,-1.));
#321=CARTESIAN_POINT('',(0.,-1.03,5.));
#322=CARTESIAN_POINT('',(1.784012332,-1.03,-1.));
#323=CARTESIAN_POINT('',(1.784012332,-1.03,5.));
#324=CARTESIAN_POINT('',(0.892006166,0.515,-1.));
#325=CARTESIAN_POINT('',(0.892006166,0.515,5.));
#326=CARTESIAN_POINT('',(0.,2.06,-1.));
#327=CARTESIAN_POINT('',(0.,2.06,5.));
#328=CARTESIAN_POINT('',(-0.892006166,0.515,-1.));
#329=CARTESIAN_POINT('',(-0.892006166,0.515,5.));
#330=CARTESIAN_POINT('',(-1.784012332,-1.03,-1.));
#331=CARTESIAN_POINT('',(-1.784012332,-1.03,5.));
#332=CARTESIAN_POINT('',(-0.,-1.03,-1.));
#333=CARTESIAN_POINT('',(-0.,-1.03,5.));
#334=(BOUNDED_SURFACE()
B_SPLINE_SURFACE(2,1,((#320,#321),(#322,#323),(#324,#325),(#326,#327),(#328,#329),(#330,#331),(#332,#333)),.UNSPECIFIED.,.T.,.F.,.U.)
B_SPLINE_SURFACE_WITH_KNOTS((3,2,2,3),(2,2),(0.,2.094395102,4.188790205,6.283185307),(0.022304664,0.028304664),.UNSPECIFIED.)
GEOMETRIC_REPRESENTATION_ITEM()
RATIONAL_B_SPLINE_SURFACE(((1.,1.),(0.5,0.5),(1.,1.),(0.5,0.5),(1.,1.),(0.5,0.5),(1.,1.)))
REPRESENTATION_ITEM('')
SURFACE()
);
#335=CARTESIAN_POINT('',(-0.,-1.03,-1.));
#336=VERTEX_POINT('',#335);
#337=CARTESIAN_POINT('',(0.,-1.03,5.));
#338=CARTESIAN_POINT('',(0.,-1.03,-1.));
#339=B_SPLINE_CURVE_WITH_KNOTS('',1,(#337,#338),.UNSPECIFIED.,.F.,.F.,(2,2),(0.022304664,0.028304664),.UNSPECIFIED.);
#340=EDGE_CURVE('',#113,#336,#339,.T.);
#341=ORIENTED_EDGE('',*,*,#340,.F.);
#342=ORIENTED_EDGE('',*,*,#126,.T.);
#343=ORIENTED_EDGE('',*,*,#138,.T.);
#344=ORIENTED_EDGE('',*,*,#340,.T.);
#345=CARTESIAN_POINT('',(1.03,-0.,-1.));
#346=VERTEX_POINT('',#345);
#347=CARTESIAN_POINT('',(1.03,-0.,-1.));
#348=CARTESIAN_POINT('',(1.03,-1.03,-1.));
#349=CARTESIAN_POINT('',(-0.,-1.03,-1.));
#350=CARTESIAN_POINT('',(-1.03,-1.03,-1.));
#351=CARTESIAN_POINT('',(-1.03,-0.,-1.));
#352=CARTESIAN_POINT('',(-1.03,1.03,-1.));
#353=CARTESIAN_POINT('',(0.,1.03,-1.));
#354=CARTESIAN_POINT('',(1.03,1.03,-1.));
#355=CARTESIAN_POINT('',(1.03,-0.,-1.));
#356=(BOUNDED_CURVE()
B_SPLINE_CURVE(2,(#347,#348,#349,#350,#351,#352,#353,#354,#355),.UNSPECIFIED.,.T.,.F.)
B_SPLINE_CURVE_WITH_KNOTS((3,2,2,2,3),(0.,1.570796327,3.141592654,4.71238898,6.283185307),.UNSPECIFIED.)
CURVE()
GEOMETRIC_REPRESENTATION_ITEM()
RATIONAL_B_SPLINE_CURVE((1.,0.707106781,1.,0.707106781,1.,0.707106781,1.,0.707106781,1.))
REPRESENTATION_ITEM(''));
#357=EDGE_CURVE('',#336,#346,#356,.T.);
#358=ORIENTED_EDGE('',*,*,#357,.T.);
#359=CARTESIAN_POINT('',(1.03,-0.,-1.));
#360=CARTESIAN_POINT('',(1.03,-1.03,-1.));
#361=CARTESIAN_POINT('',(-0.,-1.03,-1.));
#362=CARTESIAN_POINT('',(-1.03,-1.03,-1.));
#363=CARTESIAN_POINT('',(-1.03,-0.,-1.));
#364=CARTESIAN_POINT('',(-1.03,1.03,-1.));
#365=CARTESIAN_POINT('',(0.,1.03,-1.));
#366=CARTESIAN_POINT('',(1.03,1.03,-1.));
#367=CARTESIAN_POINT('',(1.03,-0.,-1.));
#368=(BOUNDED_CURVE()
B_SPLINE_CURVE(2,(#359,#360,#361,#362,#363,#364,#365,#366,#367),.UNSPECIFIED.,.T.,.F.)
B_SPLINE_CURVE_WITH_KNOTS((3,2,2,2,3),(0.,1.570796327,3.141592654,4.71238898,6.283185307),.UNSPECIFIED.)
CURVE()
GEOMETRIC_REPRESENTATION_ITEM()
RATIONAL_B_SPLINE_CURVE((1.,0.707106781,1.,0.707106781,1.,0.707106781,1.,0.707106781,1.))
REPRESENTATION_ITEM(''));
#369=EDGE_CURVE('',#346,#336,#368,.T.);
#370=ORIENTED_EDGE('',*,*,#369,.T.);
#371=EDGE_LOOP('',(#341,#342,#343,#344,#358,#370));
#372=FACE_BOUND('',#371,.T.);
#373=ADVANCED_FACE('',(#372),#334,.F.);
#374=CARTESIAN_POINT('',(-12.192462707,-12.192462707,-1.));
#375=CARTESIAN_POINT('',(-12.192462707,10.5,-1.));
#376=CARTESIAN_POINT('',(12.192462707,-12.192462707,-1.));
#377=CARTESIAN_POINT('',(12.192462707,10.5,-1.));
#378=B_SPLINE_SURFACE_WITH_KNOTS('',1,1,((#374,#375),(#376,#377)),.UNSPECIFIED.,.F.,.F.,.U.,(2,2),(2,2),(-0.012192463,0.012192463),(-0.012192463,0.0105),.UNSPECIFIED.);
#379=CARTESIAN_POINT('',(0.,10.5,-1.));
#380=VERTEX_POINT('',#379);
#381=CARTESIAN_POINT('',(10.334269022,1.858193685,-1.));
#382=VERTEX_POINT('',#381);
#383=CARTESIAN_POINT('',(10.334269022,1.858193685,-1.));
#384=CARTESIAN_POINT('',(8.476075338,12.192462707,-1.));
#385=CARTESIAN_POINT('',(-1.858193685,10.334269022,-1.));
#386=CARTESIAN_POINT('',(-12.192462707,8.476075338,-1.));
#387=CARTESIAN_POINT('',(-10.334269022,-1.858193685,-1.));
#388=CARTESIAN_POINT('',(-8.476075338,-12.192462707,-1.));
#389=CARTESIAN_POINT('',(1.858193685,-10.334269022,-1.));
#390=CARTESIAN_POINT('',(12.192462707,-8.476075338,-1.));
#391=CARTESIAN_POINT('',(10.334269022,1.858193685,-1.));
#392=(BOUNDED_CURVE()
B_SPLINE_CURVE(2,(#383,#384,#385,#386,#387,#388,#389,#390,#391),.UNSPECIFIED.,.T.,.F.)
B_SPLINE_CURVE_WITH_KNOTS((3,2,2,2,3),(0.,1.570796327,3.141592654,4.71238898,6.283185307),.UNSPECIFIED.)
CURVE()
GEOMETRIC_REPRESENTATION_ITEM()
RATIONAL_B_SPLINE_CURVE((1.,0.707106781,1.,0.707106781,1.,0.707106781,1.,0.707106781,1.))
REPRESENTATION_ITEM(''));
#393=EDGE_CURVE('',#380,#382,#392,.T.);
#394=ORIENTED_EDGE('',*,*,#393,.F.);
#395=CARTESIAN_POINT('',(10.334269022,1.858193685,-1.));
#396=CARTESIAN_POINT('',(8.476075338,12.192462707,-1.));
#397=CARTESIAN_POINT('',(-1.858193685,10.334269022,-1.));
#398=CARTESIAN_POINT('',(-12.192462707,8.476075338,-1.));
#399=CARTESIAN_POINT('',(-10.334269022,-1.858193685,-1.));
#400=CARTESIAN_POINT('',(-8.476075338,-12.192462707,-1.));
#401=CARTESIAN_POINT('',(1.858193685,-10.334269022,-1.));
#402=CARTESIAN_POINT('',(12.192462707,-8.476075338,-1.));
#403=CARTESIAN_POINT('',(10.334269022,1.858193685,-1.));
#404=(BOUNDED_CURVE()
B_SPLINE_CURVE(2,(#395,#396,#397,#398,#399,#400,#401,#402,#403),.UNSPECIFIED.,.T.,.F.)
B_SPLINE_CURVE_WITH_KNOTS((3,2,2,2,3),(0.,1.570796327,3.141592654,4.71238898,6.283185307),.UNSPECIFIED.)
CURVE()
GEOMETRIC_REPRESENTATION_ITEM()
RATIONAL_B_SPLINE_CURVE((1.,0.707106781,1.,0.707106781,1.,0.707106781,1.,0.707106781,1.))
REPRESENTATION_ITEM(''));
#405=EDGE_CURVE('',#382,#380,#404,.T.);
#406=ORIENTED_EDGE('',*,*,#405,.F.);
#407=EDGE_LOOP('',(#394,#406));
#408=FACE_BOUND('',#407,.T.);
#409=ORIENTED_EDGE('',*,*,#357,.F.);
#410=ORIENTED_EDGE('',*,*,#369,.F.);
#411=EDGE_LOOP('',(#409,#410));
#412=FACE_BOUND('',#411,.T.);
#413=ADVANCED_FACE('',(#408,#412),#378,.F.);
#414=CARTESIAN_POINT('',(0.,10.5,-1.));
#415=CARTESIAN_POINT('',(0.,10.5,-5.));
#416=CARTESIAN_POINT('',(18.186533479,10.5,-1.));
#417=CARTESIAN_POINT('',(18.186533479,10.5,-5.));
#418=CARTESIAN_POINT('',(9.09326674,-5.25,-1.));
#419=CARTESIAN_POINT('',(9.09326674,-5.25,-5.));
#420=CARTESIAN_POINT('',(0.,-21.,-1.));
#421=CARTESIAN_POINT('',(0.,-21.,-5.));
#422=CARTESIAN_POINT('',(-9.09326674,-5.25,-1.));
#423=CARTESIAN_POINT('',(-9.09326674,-5.25,-5.));
#424=CARTESIAN_POINT('',(-18.186533479,10.5,-1.));
#425=CARTESIAN_POINT('',(-18.186533479,10.5,-5.));
#426=CARTESIAN_POINT('',(-0.,10.5,-1.));
#427=CARTESIAN_POINT('',(-0.,10.5,-5.));
#428=(BOUNDED_SURFACE()
B_SPLINE_SURFACE(2,1,((#414,#415),(#416,#417),(#418,#419),(#420,#421),(#422,#423),(#424,#425),(#426,#427)),.UNSPECIFIED.,.T.,.F.,.U.)
B_SPLINE_SURFACE_WITH_KNOTS((3,2,2,3),(2,2),(0.,2.094395102,4.188790205,6.283185307),(-0.,0.004),.UNSPECIFIED.)
GEOMETRIC_REPRESENTATION_ITEM()
RATIONAL_B_SPLINE_SURFACE(((1.,1.),(0.5,0.5),(1.,1.),(0.5,0.5),(1.,1.),(0.5,0.5),(1.,1.)))
REPRESENTATION_ITEM('')
SURFACE()
);
#429=CARTESIAN_POINT('',(0.,10.5,-5.));
#430=CARTESIAN_POINT('',(0.,10.5,-1.));
#431=B_SPLINE_CURVE_WITH_KNOTS('',1,(#429,#430),.UNSPECIFIED.,.F.,.F.,(2,2),(0.,0.004),.UNSPECIFIED.);
#432=EDGE_CURVE('',#208,#380,#431,.T.);
#433=ORIENTED_EDGE('',*,*,#432,.F.);
#434=ORIENTED_EDGE('',*,*,#219,.F.);
#435=ORIENTED_EDGE('',*,*,#231,.F.);
#436=ORIENTED_EDGE('',*,*,#432,.T.);
#437=ORIENTED_EDGE('',*,*,#393,.T.);
#438=ORIENTED_EDGE('',*,*,#405,.T.);
#439=EDGE_LOOP('',(#433,#434,#435,#436,#437,#438));
#440=FACE_BOUND('',#439,.T.);
#441=ADVANCED_FACE('',(#440),#428,.F.);
#442=CARTESIAN_POINT('',(0.737014411,-14.981882717,-4.898979486));
#443=CARTESIAN_POINT('',(30.700779846,-13.507853896,-4.898979486));
#444=CARTESIAN_POINT('',(29.226751024,16.455911539,-4.898979486));
#445=CARTESIAN_POINT('',(-0.737014411,14.981882717,-4.898979486));
#446=CARTESIAN_POINT('',(-30.700779846,13.507853896,-4.898979486));
#447=CARTESIAN_POINT('',(-29.226751024,-16.455911539,-4.898979486));
#448=CARTESIAN_POINT('',(0.737014411,-14.981882717,-4.898979486));
#449=CARTESIAN_POINT('',(0.737014411,-11.779122865,-1.630176399));
#450=CARTESIAN_POINT('',(24.295260141,-10.305094044,-1.630176399));
#451=CARTESIAN_POINT('',(22.82123132,13.253151687,-1.630176399));
#452=CARTESIAN_POINT('',(-0.737014411,11.779122865,-1.630176399));
#453=CARTESIAN_POINT('',(-24.295260141,10.305094044,-1.630176399));
#454=CARTESIAN_POINT('',(-22.82123132,-13.253151687,-1.630176399));
#455=CARTESIAN_POINT('',(0.737014411,-11.779122865,-1.630176399));
#456=CARTESIAN_POINT('',(0.737014411,-12.567888271,2.420678867));
#457=CARTESIAN_POINT('',(25.872790953,-11.09385945,2.420678867));
#458=CARTESIAN_POINT('',(24.398762132,14.041917093,2.420678867));
#459=CARTESIAN_POINT('',(-0.737014411,12.567888271,2.420678867));
#460=CARTESIAN_POINT('',(-25.872790953,11.09385945,2.420678867));
#461=CARTESIAN_POINT('',(-24.398762132,-14.041917093,2.420678867));
#462=CARTESIAN_POINT('',(0.737014411,-12.567888271,2.420678867));
#463=CARTESIAN_POINT('',(0.737014411,-14.967464129,4.884220125));
#464=CARTESIAN_POINT('',(30.67194267,-13.493435308,4.884220125));
#465=CARTESIAN_POINT('',(29.197913848,16.441492951,4.884220125));
#466=CARTESIAN_POINT('',(-0.737014411,14.967464129,4.884220125));
#467=CARTESIAN_POINT('',(-30.67194267,13.493435308,4.884220125));
#468=CARTESIAN_POINT('',(-29.197913848,-16.441492951,4.884220125));
#469=CARTESIAN_POINT('',(0.737014411,-14.967464129,4.884220125));
#470=(BOUNDED_SURFACE()
B_SPLINE_SURFACE(3,3,((#442,#443,#444,#445,#446,#447,#448),(#449,#450,#451,#452,#453,#454,#455),(#456,#457,#458,#459,#460,#461,#462),(#463,#464,#465,#466,#467,#468,#469)),.UNSPECIFIED.,.F.,.T.,.U.)
B_SPLINE_SURFACE_WITH_KNOTS((4,4),(4,3,4),(0.752919783,1.),(0.,0.5,1.),.UNSPECIFIED.)
GEOMETRIC_REPRESENTATION_ITEM()
RATIONAL_B_SPLINE_SURFACE(((0.500068201,0.1666894,0.1666894,0.500068201,0.1666894,0.1666894,0.500068201),(0.503915777,0.167971926,0.167971926,0.503915777,0.167971926,0.167971926,0.503915777),(0.67055971,0.223519903,0.223519903,0.67055971,0.223519903,0.223519903,0.67055971),(1.,0.333333333,0.333333333,1.,0.333333333,0.333333333,1.)))
REPRESENTATION_ITEM('')
SURFACE()
);
#471=ORIENTED_EDGE('',*,*,#186,.T.);
#472=CARTESIAN_POINT('',(0.737014411,-14.981882717,-4.898979486));
#473=CARTESIAN_POINT('',(0.737014411,-10.181882717,0.));
#474=CARTESIAN_POINT('',(0.737014411,-14.981882717,4.898979486));
#475=(BOUNDED_CURVE()
B_SPLINE_CURVE(2,(#472,#473,#474),.UNSPECIFIED.,.F.,.F.)
B_SPLINE_CURVE_WITH_KNOTS((3,3),(4.735746181,6.286132927),.UNSPECIFIED.)
CURVE()
GEOMETRIC_REPRESENTATION_ITEM()
RATIONAL_B_SPLINE_CURVE((1.,0.714285714,1.))
REPRESENTATION_ITEM(''));
#476=EDGE_CURVE('',#289,#177,#475,.T.);
#477=ORIENTED_EDGE('',*,*,#476,.F.);
#478=ORIENTED_EDGE('',*,*,#300,.F.);
#479=ORIENTED_EDGE('',*,*,#312,.F.);
#480=ORIENTED_EDGE('',*,*,#476,.T.);
#481=EDGE_LOOP('',(#471,#477,#478,#479,#480));
#482=FACE_BOUND('',#481,.T.);
#483=ADVANCED_FACE('',(#482),#470,.F.);
#484=CLOSED_SHELL('',(#106,#146,#199,#265,#319,#373,#413,#441,#483));
#485=MANIFOLD_SOLID_BREP('Extruded.001',#484);
#26=STYLED_ITEM('',(),#485);
#16=SHAPE_REPRESENTATION('root',(#15),#10);
#17=ADVANCED_BREP_SHAPE_REPRESENTATION('root',(#485),#10);
#493=SHAPE_REPRESENTATION_RELATIONSHIP('','',#16,#17);
#494=APPLICATION_CONTEXT('configuration controlled 3D design of mechanical parts and assemblies');
#495=APPLICATION_PROTOCOL_DEFINITION('international standard','configuration_control_3d_design_ed2_mim',2004,#494);
#496=PRODUCT_CONTEXT('',#494,'mechanical');
#497=PRODUCT_DEFINITION_CONTEXT('part definition',#494,'design');
#24=PRODUCT('root','root','',(#496));
#498=PRODUCT_RELATED_PRODUCT_CATEGORY('part','',(#24));
#499=PRODUCT_DEFINITION_FORMATION_WITH_SPECIFIED_SOURCE('','',#24,.NOT_KNOWN.);
#25=PRODUCT_DEFINITION('design','',#499,#497);
#23=PRODUCT_DEFINITION_SHAPE('','',#25);
#500=SHAPE_DEFINITION_REPRESENTATION(#23,#16);
#11=DRAUGHTING_MODEL('',(),#10);
#1=MECHANICAL_DESIGN_GEOMETRIC_PRESENTATION_REPRESENTATION('',(#26),#10);
ENDSEC;
END-ISO-10303-21;
