ISO-10303-21;
HEADER;

/* File generated by HOOPS Exchange Version 25.8.0 */

FILE_DESCRIPTION(('HOOPS Exchange Step'),'2;1');

FILE_NAME('/home/tfannes/prints/260615_flywheel_nerf_gun/flywheel_2.step',
'2026-06-17T20:04:19+02:00',
('tfannes'),
('Unknown organisation'),
'HOOPS Exchange 2025.8',
'HOOPS Exchange',
'Unknown authorisation');

FILE_SCHEMA( ('AP203_CONFIGURATION_CONTROLLED_3D_DESIGN_OF_MECHANICAL_PARTS_AND_ASSEMBLIES_MIM_LF') );

ENDSEC;

DATA;
#3=(NAMED_UNIT(*)PLANE_ANGLE_UNIT()SI_UNIT($,.RADIAN.));
#4=PLANE_ANGLE_MEASURE_WITH_UNIT(PLANE_ANGLE_MEASURE(0.0174532925),#3);
#5=(CONVERSION_BASED_UNIT('DEGREE',#4)NAMED_UNIT(#6)PLANE_ANGLE_UNIT());
#6=DIMENSIONAL_EXPONENTS(0.,0.,0.,0.,0.,0.,0.);
#7=(NAMED_UNIT(*)SI_UNIT($,.STERADIAN.)SOLID_ANGLE_UNIT());
#8=(LENGTH_UNIT()NAMED_UNIT(*)SI_UNIT(.MILLI.,.METRE.));
#9=UNCERTAINTY_MEASURE_WITH_UNIT(LENGTH_MEASURE(1.000000E-03),#8,'DISTANCE_ACCURACY_VALUE','Maximum Tolerance applied to model');
#10=(GEOMETRIC_REPRESENTATION_CONTEXT(3)GLOBAL_UNCERTAINTY_ASSIGNED_CONTEXT((#9))GLOBAL_UNIT_ASSIGNED_CONTEXT((#8,#5,#7))REPRESENTATION_CONTEXT('','root'));
#12=CARTESIAN_POINT('',(0.,0.,0.));
#13=DIRECTION('',(0.,0.,1.));
#14=DIRECTION('',(1.,0.,0.));
#15=AXIS2_PLACEMENT_3D('TS3D_PRODUCT_CSYS',#12,#13,#14);
#26=CARTESIAN_POINT('',(-6.05172527,-3.5,18.5));
#27=DIRECTION('',(0.,0.,-1.));
#28=VECTOR('',#27,10.);
#29=LINE('',#26,#28);
#30=TRIMMED_CURVE('Line.006',#29,(PARAMETER_VALUE(0.)),(PARAMETER_VALUE(1.)),.T.,.PARAMETER.);
#31=CARTESIAN_POINT('',(-4.478194696,-3.5,18.5));
#32=DIRECTION('',(-1.,0.,0.));
#33=VECTOR('',#32,1.573530574);
#34=LINE('',#31,#33);
#35=TRIMMED_CURVE('Line.005',#34,(PARAMETER_VALUE(0.)),(PARAMETER_VALUE(1.)),.T.,.PARAMETER.);
#36=CARTESIAN_POINT('',(-4.478194696,0.,18.5));
#37=DIRECTION('',(0.,-1.,0.));
#38=VECTOR('',#37,3.5);
#39=LINE('',#36,#38);
#40=TRIMMED_CURVE('Line.004',#39,(PARAMETER_VALUE(0.)),(PARAMETER_VALUE(1.)),.T.,.PARAMETER.);
#41=CARTESIAN_POINT('',(6.138795761,3.396231592,14.046581458));
#42=DIRECTION('',(-1.,0.,0.));
#43=DIRECTION('',(0.,-0.358297488,0.933607471));
#44=AXIS2_PLACEMENT_3D('',#41,#42,#43);
#45=CIRCLE('',#44,1.7);
#46=TRIMMED_CURVE('Circle.006',#45,(PARAMETER_VALUE(0.)),(PARAMETER_VALUE(360.)),.T.,.PARAMETER.);
#47=CARTESIAN_POINT('',(-6.05172527,6.244838222,12.398722159));
#48=DIRECTION('',(0.,0.000846183,0.999999642));
#49=VECTOR('',#48,3.290896534);
#50=LINE('',#47,#49);
#51=TRIMMED_CURVE('Polygon.002',#50,(PARAMETER_VALUE(0.)),(PARAMETER_VALUE(1.)),.T.,.PARAMETER.);
#52=CARTESIAN_POINT('',(-6.05172527,3.393446892,10.755686102));
#53=DIRECTION('',(0.,0.866448185,0.499267005));
#54=VECTOR('',#53,3.290896534);
#55=LINE('',#52,#54);
#56=TRIMMED_CURVE('Polygon.002',#55,(PARAMETER_VALUE(0.)),(PARAMETER_VALUE(1.)),.T.,.PARAMETER.);
#57=CARTESIAN_POINT('',(-6.05172527,0.544840262,12.403545401));
#58=DIRECTION('',(0.,0.865602002,-0.500732637));
#59=VECTOR('',#58,3.290896534);
#60=LINE('',#57,#59);
#61=TRIMMED_CURVE('Polygon.002',#60,(PARAMETER_VALUE(0.)),(PARAMETER_VALUE(1.)),.T.,.PARAMETER.);
#62=CARTESIAN_POINT('',(-6.05172527,0.547624963,15.694440757));
#63=DIRECTION('',(0.,-0.000846183,-0.999999642));
#64=VECTOR('',#63,3.290896534);
#65=LINE('',#62,#64);
#66=TRIMMED_CURVE('Polygon.002',#65,(PARAMETER_VALUE(0.)),(PARAMETER_VALUE(1.)),.T.,.PARAMETER.);
#67=CARTESIAN_POINT('',(-6.05172527,3.399016292,17.337476814));
#68=DIRECTION('',(0.,-0.866448185,-0.499267005));
#69=VECTOR('',#68,3.290896534);
#70=LINE('',#67,#69);
#71=TRIMMED_CURVE('Polygon.002',#70,(PARAMETER_VALUE(0.)),(PARAMETER_VALUE(1.)),.T.,.PARAMETER.);
#72=CARTESIAN_POINT('',(-6.05172527,6.247622922,15.689617515));
#73=DIRECTION('',(0.,-0.865602002,0.500732637));
#74=VECTOR('',#73,3.290896534);
#75=LINE('',#72,#74);
#76=TRIMMED_CURVE('Polygon.002',#75,(PARAMETER_VALUE(0.)),(PARAMETER_VALUE(1.)),.T.,.PARAMETER.);
#77=GEOMETRIC_CURVE_SET('',(#51,#56,#61,#66,#71,#76));
#78=CARTESIAN_POINT('',(6.138795761,3.396231592,14.046581458));
#79=DIRECTION('',(-1.,0.,0.));
#80=DIRECTION('',(0.,-0.614015418,0.78929403));
#81=AXIS2_PLACEMENT_3D('',#78,#79,#80);
#82=CIRCLE('',#81,3.);
#83=TRIMMED_CURVE('Circle.005',#82,(PARAMETER_VALUE(0.)),(PARAMETER_VALUE(360.)),.T.,.PARAMETER.);
#84=CARTESIAN_POINT('',(-6.05172527,-3.396231592,14.046581458));
#85=DIRECTION('',(1.,0.,-0.));
#86=DIRECTION('',(0.,0.614015418,0.78929403));
#87=AXIS2_PLACEMENT_3D('',#84,#85,#86);
#88=CIRCLE('',#87,3.);
#89=TRIMMED_CURVE('Circle.004',#88,(PARAMETER_VALUE(0.)),(PARAMETER_VALUE(360.)),.T.,.PARAMETER.);
#90=CARTESIAN_POINT('',(6.138795761,-3.396231592,14.046581458));
#91=DIRECTION('',(1.,0.,-0.));
#92=DIRECTION('',(0.,0.358297488,0.933607471));
#93=AXIS2_PLACEMENT_3D('',#90,#91,#92);
#94=CIRCLE('',#93,1.7);
#95=TRIMMED_CURVE('Circle.003',#94,(PARAMETER_VALUE(0.)),(PARAMETER_VALUE(360.)),.T.,.PARAMETER.);
#96=CARTESIAN_POINT('',(6.138795761,-6.244838222,12.398722159));
#97=DIRECTION('',(0.,-0.000846183,0.999999642));
#98=VECTOR('',#97,3.290896534);
#99=LINE('',#96,#98);
#100=TRIMMED_CURVE('Polygon.001',#99,(PARAMETER_VALUE(0.)),(PARAMETER_VALUE(1.)),.T.,.PARAMETER.);
#101=CARTESIAN_POINT('',(6.138795761,-3.393446892,10.755686102));
#102=DIRECTION('',(0.,-0.866448185,0.499267005));
#103=VECTOR('',#102,3.290896534);
#104=LINE('',#101,#103);
#105=TRIMMED_CURVE('Polygon.001',#104,(PARAMETER_VALUE(0.)),(PARAMETER_VALUE(1.)),.T.,.PARAMETER.);
#106=CARTESIAN_POINT('',(6.138795761,-0.544840262,12.403545401));
#107=DIRECTION('',(0.,-0.865602002,-0.500732637));
#108=VECTOR('',#107,3.290896534);
#109=LINE('',#106,#108);
#110=TRIMMED_CURVE('Polygon.001',#109,(PARAMETER_VALUE(0.)),(PARAMETER_VALUE(1.)),.T.,.PARAMETER.);
#111=CARTESIAN_POINT('',(6.138795761,-0.547624963,15.694440757));
#112=DIRECTION('',(0.,0.000846183,-0.999999642));
#113=VECTOR('',#112,3.290896534);
#114=LINE('',#111,#113);
#115=TRIMMED_CURVE('Polygon.001',#114,(PARAMETER_VALUE(0.)),(PARAMETER_VALUE(1.)),.T.,.PARAMETER.);
#116=CARTESIAN_POINT('',(6.138795761,-3.399016292,17.337476814));
#117=DIRECTION('',(0.,0.866448185,-0.499267005));
#118=VECTOR('',#117,3.290896534);
#119=LINE('',#116,#118);
#120=TRIMMED_CURVE('Polygon.001',#119,(PARAMETER_VALUE(0.)),(PARAMETER_VALUE(1.)),.T.,.PARAMETER.);
#121=CARTESIAN_POINT('',(6.138795761,-6.247622922,15.689617515));
#122=DIRECTION('',(0.,0.865602002,0.500732637));
#123=VECTOR('',#122,3.290896534);
#124=LINE('',#121,#123);
#125=TRIMMED_CURVE('Polygon.001',#124,(PARAMETER_VALUE(0.)),(PARAMETER_VALUE(1.)),.T.,.PARAMETER.);
#126=GEOMETRIC_CURVE_SET('',(#100,#105,#110,#115,#120,#125));
#127=CARTESIAN_POINT('',(6.138795761,-3.4,18.5));
#128=DIRECTION('',(0.,0.000846183,-0.999999642));
#129=VECTOR('',#128,10.00000358);
#130=LINE('',#127,#129);
#131=TRIMMED_CURVE('Polyline.001',#130,(PARAMETER_VALUE(0.)),(PARAMETER_VALUE(1.)),.T.,.PARAMETER.);
#132=CARTESIAN_POINT('',(3.545591577,-3.4,18.5));
#133=DIRECTION('',(1.,0.,-0.));
#134=VECTOR('',#133,2.593204184);
#135=LINE('',#132,#134);
#136=TRIMMED_CURVE('Polyline.001',#135,(PARAMETER_VALUE(0.)),(PARAMETER_VALUE(1.)),.T.,.PARAMETER.);
#137=GEOMETRIC_CURVE_SET('',(#131,#136));
#138=CARTESIAN_POINT('',(3.545591577,0.,18.5));
#139=DIRECTION('',(0.,-1.,0.));
#140=VECTOR('',#139,3.4);
#141=LINE('',#138,#140);
#142=TRIMMED_CURVE('Line.003',#141,(PARAMETER_VALUE(0.)),(PARAMETER_VALUE(1.)),.T.,.PARAMETER.);
#143=CARTESIAN_POINT('',(7.,0.,18.5));
#144=DIRECTION('',(-1.,0.,0.));
#145=VECTOR('',#144,14.);
#146=LINE('',#143,#145);
#147=TRIMMED_CURVE('Line.002',#146,(PARAMETER_VALUE(0.)),(PARAMETER_VALUE(1.)),.T.,.PARAMETER.);
#149=CARTESIAN_POINT('',(0.,0.,16.5));
#150=DIRECTION('',(0.,-0.,-1.));
#151=DIRECTION('',(0.,1.,-0.));
#152=AXIS2_PLACEMENT_3D('',#149,#150,#151);
#153=CYLINDRICAL_SURFACE('',#152,7.);
#154=CARTESIAN_POINT('',(-4.45172527,-5.402049807,16.277431809));
#155=VERTEX_POINT('',#154);
#156=CARTESIAN_POINT('',(-4.45172527,-5.402049807,11.815731107));
#157=VERTEX_POINT('',#156);
#158=CARTESIAN_POINT('',(-4.45172527,-5.402049807,16.277431809));
#159=CARTESIAN_POINT('',(-4.665507269,-5.225876176,16.435834311));
#160=CARTESIAN_POINT('',(-4.874660735,-5.032316195,16.572833515));
#161=CARTESIAN_POINT('',(-5.077163459,-4.818963707,16.687761749));
#162=CARTESIAN_POINT('',(-5.178414821,-4.712287463,16.745225866));
#163=CARTESIAN_POINT('',(-5.278022792,-4.600627977,16.797081446));
#164=CARTESIAN_POINT('',(-5.375794062,-4.483395834,16.842663344));
#165=CARTESIAN_POINT('',(-5.473565332,-4.366163692,16.888245241));
#166=CARTESIAN_POINT('',(-5.568997552,-4.243869298,16.92725502));
#167=CARTESIAN_POINT('',(-5.660443322,-4.118176951,16.95841849));
#168=CARTESIAN_POINT('',(-5.751889092,-3.992484605,16.989581959));
#169=CARTESIAN_POINT('',(-5.839801335,-3.862865246,17.013126078));
#170=CARTESIAN_POINT('',(-5.924045175,-3.729033221,17.028064826));
#171=CARTESIAN_POINT('',(-6.008289015,-3.595201195,17.043003575));
#172=CARTESIAN_POINT('',(-6.089263907,-3.456304977,17.049235556));
#173=CARTESIAN_POINT('',(-6.164444982,-3.316567211,17.045523536));
#174=CARTESIAN_POINT('',(-6.239626057,-3.176829445,17.041811515));
#175=CARTESIAN_POINT('',(-6.309461575,-3.035648394,17.028334759));
#176=CARTESIAN_POINT('',(-6.374111101,-2.89321753,17.0041103));
#177=CARTESIAN_POINT('',(-6.438760626,-2.750786667,16.979885842));
#178=CARTESIAN_POINT('',(-6.498694528,-2.605789052,16.944455037));
#179=CARTESIAN_POINT('',(-6.552256506,-2.463317818,16.897839407));
#180=CARTESIAN_POINT('',(-6.659380464,-2.17837535,16.804608145));
#181=CARTESIAN_POINT('',(-6.740994271,-1.904764354,16.66847423));
#182=CARTESIAN_POINT('',(-6.802941477,-1.64923839,16.485436671));
#183=CARTESIAN_POINT('',(-6.864888682,-1.393712425,16.302399113));
#184=CARTESIAN_POINT('',(-6.904202691,-1.169869978,16.082610682));
#185=CARTESIAN_POINT('',(-6.931001532,-0.980417137,15.825300244));
#186=CARTESIAN_POINT('',(-6.957800373,-0.790964297,15.567989807));
#187=CARTESIAN_POINT('',(-6.970851513,-0.645967789,15.286973448));
#188=CARTESIAN_POINT('',(-6.978669798,-0.546047483,14.982770832));
#189=CARTESIAN_POINT('',(-6.986488082,-0.446127178,14.678568216));
#190=CARTESIAN_POINT('',(-6.988779913,-0.39617589,14.365600078));
#191=CARTESIAN_POINT('',(-6.988776752,-0.396231638,14.046057999));
#192=CARTESIAN_POINT('',(-6.988775172,-0.396259512,13.886286959));
#193=CARTESIAN_POINT('',(-6.988078791,-0.409128041,13.726874922));
#194=CARTESIAN_POINT('',(-6.986520272,-0.434205589,13.570764309));
#195=CARTESIAN_POINT('',(-6.984961753,-0.459283138,13.414653696));
#196=CARTESIAN_POINT('',(-6.982543735,-0.496561727,13.26090271));
#197=CARTESIAN_POINT('',(-6.978648724,-0.546316747,13.10957272));
#198=CARTESIAN_POINT('',(-6.974753713,-0.596071767,12.958242729));
#199=CARTESIAN_POINT('',(-6.969357252,-0.658313075,12.810145223));
#200=CARTESIAN_POINT('',(-6.961743905,-0.730836373,12.669748744));
#201=CARTESIAN_POINT('',(-6.954130557,-0.80335967,12.529352264));
#202=CARTESIAN_POINT('',(-6.944278262,-0.886565591,12.395317387));
#203=CARTESIAN_POINT('',(-6.930990142,-0.980497654,12.267753321));
#204=CARTESIAN_POINT('',(-6.917702023,-1.074429717,12.140189256));
#205=CARTESIAN_POINT('',(-6.900839682,-1.179559624,12.019020332));
#206=CARTESIAN_POINT('',(-6.879845525,-1.291404489,11.908895124));
#207=CARTESIAN_POINT('',(-6.858851368,-1.403249354,11.798769915));
#208=CARTESIAN_POINT('',(-6.833632671,-1.522639596,11.698411324));
#209=CARTESIAN_POINT('',(-6.80294296,-1.649232269,11.607730629));
#210=CARTESIAN_POINT('',(-6.77225325,-1.775824941,11.517049935));
#211=CARTESIAN_POINT('',(-6.735742792,-1.910549039,11.435802878));
#212=CARTESIAN_POINT('',(-6.693941197,-2.047230143,11.366992853));
#213=CARTESIAN_POINT('',(-6.652139601,-2.183911246,11.298182829));
#214=CARTESIAN_POINT('',(-6.60485848,-2.323551222,11.240927585));
#215=CARTESIAN_POINT('',(-6.551386058,-2.46563191,11.194567392));
#216=CARTESIAN_POINT('',(-6.497913637,-2.607712597,11.1482072));
#217=CARTESIAN_POINT('',(-6.437785358,-2.753105592,11.112740693));
#218=CARTESIAN_POINT('',(-6.372801085,-2.896101921,11.088563488));
#219=CARTESIAN_POINT('',(-6.307816811,-3.039098249,11.064386283));
#220=CARTESIAN_POINT('',(-6.237688755,-3.180645126,11.051065756));
#221=CARTESIAN_POINT('',(-6.162288909,-3.320571548,11.047535683));
#222=CARTESIAN_POINT('',(-6.086889062,-3.460497971,11.04400561));
#223=CARTESIAN_POINT('',(-6.005743366,-3.599427849,11.050465616));
#224=CARTESIAN_POINT('',(-5.921711969,-3.732737247,11.065513873));
#225=CARTESIAN_POINT('',(-5.837680572,-3.866046645,11.08056213));
#226=CARTESIAN_POINT('',(-5.750292893,-3.994724986,11.104091101));
#227=CARTESIAN_POINT('',(-5.659715347,-4.119177368,11.134992647));
#228=CARTESIAN_POINT('',(-5.569137801,-4.24362975,11.165894193));
#229=CARTESIAN_POINT('',(-5.475370009,-4.363853119,11.204179195));
#230=CARTESIAN_POINT('',(-5.378539875,-4.480101429,11.249220885));
#231=CARTESIAN_POINT('',(-5.281709741,-4.596349738,11.294262574));
#232=CARTESIAN_POINT('',(-5.181330006,-4.70911871,11.346351002));
#233=CARTESIAN_POINT('',(-5.079315779,-4.816695051,11.40418036));
#234=CARTESIAN_POINT('',(-4.875287326,-5.031847734,11.519839076));
#235=CARTESIAN_POINT('',(-4.665394579,-5.225969042,11.657412103));
#236=CARTESIAN_POINT('',(-4.45172527,-5.402049807,11.815731107));
#237=B_SPLINE_CURVE_WITH_KNOTS('',3,(#158,#159,#160,#161,#162,#163,#164,#165,#166,#167,#168,#169,#170,#171,#172,#173,#174,#175,#176,#177,#178,#179,#180,#181,#182,#183,
#184,#185,#186,#187,#188,#189,#190,#191,#192,#193,#194,#195,#196,#197,#198,#199,#200,#201,#202,#203,#204,#205,#206,#207,#208,
#209,#210,#211,#212,#213,#214,#215,#216,#217,#218,#219,#220,#221,#222,#223,#224,#225,#226,#227,#228,#229,#230,#231,#232,#233,
#234,#235,#236),.UNSPECIFIED.,.F.,.F.,(4,3,3,3,3,3,3,3,3,3,3,3,3,3,3,3,3,3,3,3,3,3,3,3,3,3,
4),(-0.01246818,-0.011526227,-0.011055251,-0.010584274,-0.010113298,-0.009642321,-0.009171345,-0.008700369,-0.007758416,-0.006816463,-0.00587451,-0.004932557,-0.00446158,-0.003990604,-0.003519628,-0.003048651,-0.002577675,-0.002106698,-0.001635722,-0.001164745,-0.000693769,-0.000222792,0.000248184,0.00071916,0.001190137,0.001661113,
0.002603066),.UNSPECIFIED.);
#238=EDGE_CURVE('',#155,#157,#237,.T.);
#239=ORIENTED_EDGE('',*,*,#238,.F.);
#240=CARTESIAN_POINT('',(-4.45172527,-5.402049807,16.277431809));
#241=DIRECTION('',(0.,-0.,-1.));
#242=VECTOR('',#241,4.461700702);
#243=LINE('',#240,#242);
#244=EDGE_CURVE('',#155,#157,#243,.T.);
#245=ORIENTED_EDGE('',*,*,#244,.T.);
#246=EDGE_LOOP('',(#239,#245));
#247=FACE_BOUND('',#246,.T.);
#248=CARTESIAN_POINT('',(-0.5,-6.982120022,18.5));
#249=VERTEX_POINT('',#248);
#250=CARTESIAN_POINT('',(-0.5,-6.982120022,8.5));
#251=VERTEX_POINT('',#250);
#252=CARTESIAN_POINT('',(-0.5,-6.982120022,18.5));
#253=DIRECTION('',(0.,-0.,-1.));
#254=VECTOR('',#253,10.);
#255=LINE('',#252,#254);
#256=EDGE_CURVE('',#249,#251,#255,.T.);
#257=ORIENTED_EDGE('',*,*,#256,.F.);
#258=CARTESIAN_POINT('',(-0.5,6.982120022,18.5));
#259=VERTEX_POINT('',#258);
#260=CARTESIAN_POINT('',(0.,0.,18.5));
#261=DIRECTION('',(0.,0.,1.));
#262=DIRECTION('',(1.,0.,-0.));
#263=AXIS2_PLACEMENT_3D('',#260,#261,#262);
#264=CIRCLE('',#263,7.);
#265=EDGE_CURVE('',#259,#249,#264,.T.);
#266=ORIENTED_EDGE('',*,*,#265,.F.);
#267=CARTESIAN_POINT('',(-0.5,6.982120022,8.5));
#268=VERTEX_POINT('',#267);
#269=CARTESIAN_POINT('',(-0.5,6.982120022,8.5));
#270=DIRECTION('',(-0.,0.,1.));
#271=VECTOR('',#270,10.);
#272=LINE('',#269,#271);
#273=EDGE_CURVE('',#268,#259,#272,.T.);
#274=ORIENTED_EDGE('',*,*,#273,.F.);
#275=CARTESIAN_POINT('',(0.,0.,8.5));
#276=DIRECTION('',(0.,0.,1.));
#277=DIRECTION('',(0.971735412,-0.236072635,0.));
#278=AXIS2_PLACEMENT_3D('',#275,#276,#277);
#279=CIRCLE('',#278,7.);
#280=EDGE_CURVE('',#268,#251,#279,.T.);
#281=ORIENTED_EDGE('',*,*,#280,.T.);
#282=EDGE_LOOP('',(#257,#266,#274,#281));
#283=FACE_BOUND('',#282,.T.);
#284=CARTESIAN_POINT('',(-6.978764152,0.544840262,12.403545401));
#285=VERTEX_POINT('',#284);
#286=CARTESIAN_POINT('',(-6.122460142,3.393446892,10.755686102));
#287=VERTEX_POINT('',#286);
#288=CARTESIAN_POINT('',(0.,0.,12.718724087));
#289=DIRECTION('',(0.,-0.500732637,-0.865602002));
#290=DIRECTION('',(-0.,0.865602002,-0.500732637));
#291=AXIS2_PLACEMENT_3D('',#288,#289,#290);
#292=ELLIPSE('',#291,8.086857449,7.);
#293=EDGE_CURVE('',#285,#287,#292,.T.);
#294=ORIENTED_EDGE('',*,*,#293,.T.);
#295=CARTESIAN_POINT('',(-4.45172527,5.402049807,11.913088448));
#296=VERTEX_POINT('',#295);
#297=CARTESIAN_POINT('',(0.,0.,8.800305392));
#298=DIRECTION('',(0.,-0.499267005,0.866448185));
#299=DIRECTION('',(0.,-0.866448185,-0.499267005));
#300=AXIS2_PLACEMENT_3D('',#297,#298,#299);
#301=ELLIPSE('',#300,8.078959735,7.);
#302=EDGE_CURVE('',#296,#287,#301,.T.);
#303=ORIENTED_EDGE('',*,*,#302,.F.);
#304=CARTESIAN_POINT('',(-4.45172527,5.402049807,16.17876386));
#305=VERTEX_POINT('',#304);
#306=CARTESIAN_POINT('',(-4.45172527,5.402049807,11.913088448));
#307=DIRECTION('',(-0.,0.,1.));
#308=VECTOR('',#307,4.265675412);
#309=LINE('',#306,#308);
#310=EDGE_CURVE('',#296,#305,#309,.T.);
#311=ORIENTED_EDGE('',*,*,#310,.T.);
#312=CARTESIAN_POINT('',(-6.119369922,3.399016292,17.337476814));
#313=VERTEX_POINT('',#312);
#314=CARTESIAN_POINT('',(0.,0.,19.303736581));
#315=DIRECTION('',(0.,-0.500732637,-0.865602002));
#316=DIRECTION('',(0.,0.865602002,-0.500732637));
#317=AXIS2_PLACEMENT_3D('',#314,#315,#316);
#318=ELLIPSE('',#317,8.086857449,7.);
#319=EDGE_CURVE('',#313,#305,#318,.T.);
#320=ORIENTED_EDGE('',*,*,#319,.F.);
#321=CARTESIAN_POINT('',(-6.978546188,0.547624963,15.694440757));
#322=VERTEX_POINT('',#321);
#323=CARTESIAN_POINT('',(0.,0.,15.378886891));
#324=DIRECTION('',(0.,-0.499267005,0.866448185));
#325=DIRECTION('',(0.,-0.866448185,-0.499267005));
#326=AXIS2_PLACEMENT_3D('',#323,#324,#325);
#327=ELLIPSE('',#326,8.078959735,7.);
#328=EDGE_CURVE('',#313,#322,#327,.T.);
#329=ORIENTED_EDGE('',*,*,#328,.T.);
#330=CARTESIAN_POINT('',(0.,-0.,-631.476279452));
#331=DIRECTION('',(0.,-0.999999642,0.000846183));
#332=DIRECTION('',(0.,-0.000846183,-0.999999642));
#333=AXIS2_PLACEMENT_3D('',#330,#331,#332);
#334=ELLIPSE('',#333,8272.443683163,7.);
#335=EDGE_CURVE('',#322,#285,#334,.T.);
#336=ORIENTED_EDGE('',*,*,#335,.T.);
#337=EDGE_LOOP('',(#294,#303,#311,#320,#329,#336));
#338=FACE_BOUND('',#337,.T.);
#339=ADVANCED_FACE('',(#247,#283,#338),#153,.T.);
#340=CARTESIAN_POINT('',(0.,0.,18.5));
#341=DIRECTION('',(0.,0.,1.));
#342=DIRECTION('',(1.,0.,0.));
#343=AXIS2_PLACEMENT_3D('',#340,#341,#342);
#344=PLANE('',#343);
#345=CARTESIAN_POINT('',(-0.5,0.923309266,18.5));
#346=VERTEX_POINT('',#345);
#347=CARTESIAN_POINT('',(-0.5,-0.923309266,18.5));
#348=VERTEX_POINT('',#347);
#349=CARTESIAN_POINT('',(0.,0.,18.5));
#350=DIRECTION('',(0.,0.,1.));
#351=DIRECTION('',(0.740932614,-0.671579379,0.));
#352=AXIS2_PLACEMENT_3D('',#349,#350,#351);
#353=CIRCLE('',#352,1.05);
#354=EDGE_CURVE('',#346,#348,#353,.T.);
#355=ORIENTED_EDGE('',*,*,#354,.F.);
#356=CARTESIAN_POINT('',(-0.5,0.923309266,18.5));
#357=DIRECTION('',(0.,1.,0.));
#358=VECTOR('',#357,6.058810756);
#359=LINE('',#356,#358);
#360=EDGE_CURVE('',#346,#259,#359,.T.);
#361=ORIENTED_EDGE('',*,*,#360,.T.);
#362=ORIENTED_EDGE('',*,*,#265,.T.);
#363=CARTESIAN_POINT('',(-0.5,-6.982120022,18.5));
#364=DIRECTION('',(0.,1.,0.));
#365=VECTOR('',#364,6.058810756);
#366=LINE('',#363,#365);
#367=EDGE_CURVE('',#249,#348,#366,.T.);
#368=ORIENTED_EDGE('',*,*,#367,.T.);
#369=EDGE_LOOP('',(#355,#361,#362,#368));
#370=FACE_BOUND('',#369,.T.);
#371=ADVANCED_FACE('',(#370),#344,.T.);
#372=CARTESIAN_POINT('',(0.,0.,8.5));
#373=DIRECTION('',(0.,0.,1.));
#374=DIRECTION('',(1.,0.,0.));
#375=AXIS2_PLACEMENT_3D('',#372,#373,#374);
#376=PLANE('',#375);
#377=CARTESIAN_POINT('',(-0.5,0.923309266,8.5));
#378=VERTEX_POINT('',#377);
#379=CARTESIAN_POINT('',(-0.5,0.923309266,8.5));
#380=DIRECTION('',(0.,1.,0.));
#381=VECTOR('',#380,6.058810756);
#382=LINE('',#379,#381);
#383=EDGE_CURVE('',#378,#268,#382,.T.);
#384=ORIENTED_EDGE('',*,*,#383,.F.);
#385=CARTESIAN_POINT('',(-0.5,-0.923309266,8.5));
#386=VERTEX_POINT('',#385);
#387=CARTESIAN_POINT('',(0.,0.,8.5));
#388=DIRECTION('',(0.,0.,1.));
#389=DIRECTION('',(1.,0.,-0.));
#390=AXIS2_PLACEMENT_3D('',#387,#388,#389);
#391=CIRCLE('',#390,1.05);
#392=EDGE_CURVE('',#378,#386,#391,.T.);
#393=ORIENTED_EDGE('',*,*,#392,.T.);
#394=CARTESIAN_POINT('',(-0.5,-6.982120022,8.5));
#395=DIRECTION('',(0.,1.,0.));
#396=VECTOR('',#395,6.058810756);
#397=LINE('',#394,#396);
#398=EDGE_CURVE('',#251,#386,#397,.T.);
#399=ORIENTED_EDGE('',*,*,#398,.F.);
#400=ORIENTED_EDGE('',*,*,#280,.F.);
#401=EDGE_LOOP('',(#384,#393,#399,#400));
#402=FACE_BOUND('',#401,.T.);
#403=ADVANCED_FACE('',(#402),#376,.F.);
#404=CARTESIAN_POINT('',(-0.5,-10.671998374,4.501504812));
#405=DIRECTION('',(1.,0.,0.));
#406=DIRECTION('',(0.,0.,-1.));
#407=AXIS2_PLACEMENT_3D('',#404,#405,#406);
#408=PLANE('',#407);
#409=CARTESIAN_POINT('',(-0.5,3.396231592,12.346581458));
#410=VERTEX_POINT('',#409);
#411=CARTESIAN_POINT('',(-0.5,5.096231592,14.046581458));
#412=VERTEX_POINT('',#411);
#413=CARTESIAN_POINT('',(-0.5,3.396231592,14.046581458));
#414=DIRECTION('',(-1.,-0.,-0.));
#415=DIRECTION('',(0.,0.,-1.));
#416=AXIS2_PLACEMENT_3D('',#413,#414,#415);
#417=CIRCLE('',#416,1.7);
#418=EDGE_CURVE('',#410,#412,#417,.T.);
#419=ORIENTED_EDGE('',*,*,#418,.T.);
#420=CARTESIAN_POINT('',(-0.5,3.396231592,14.046581458));
#421=DIRECTION('',(-1.,-0.,-0.));
#422=DIRECTION('',(0.,0.,-1.));
#423=AXIS2_PLACEMENT_3D('',#420,#421,#422);
#424=CIRCLE('',#423,1.7);
#425=EDGE_CURVE('',#412,#410,#424,.T.);
#426=ORIENTED_EDGE('',*,*,#425,.T.);
#427=EDGE_LOOP('',(#419,#426));
#428=FACE_BOUND('',#427,.T.);
#429=ORIENTED_EDGE('',*,*,#273,.T.);
#430=ORIENTED_EDGE('',*,*,#360,.F.);
#431=CARTESIAN_POINT('',(-0.5,0.923309266,8.5));
#432=DIRECTION('',(0.,0.,1.));
#433=VECTOR('',#432,10.);
#434=LINE('',#431,#433);
#435=EDGE_CURVE('',#378,#346,#434,.T.);
#436=ORIENTED_EDGE('',*,*,#435,.F.);
#437=ORIENTED_EDGE('',*,*,#383,.T.);
#438=EDGE_LOOP('',(#429,#430,#436,#437));
#439=FACE_BOUND('',#438,.T.);
#440=ADVANCED_FACE('',(#428,#439),#408,.T.);
#441=CARTESIAN_POINT('',(-0.5,-10.671998374,4.501504812));
#442=DIRECTION('',(1.,0.,0.));
#443=DIRECTION('',(0.,0.,-1.));
#444=AXIS2_PLACEMENT_3D('',#441,#442,#443);
#445=PLANE('',#444);
#446=CARTESIAN_POINT('',(-0.5,-1.696231592,14.046581458));
#447=VERTEX_POINT('',#446);
#448=CARTESIAN_POINT('',(-0.5,-3.396231592,12.346581458));
#449=VERTEX_POINT('',#448);
#450=CARTESIAN_POINT('',(-0.5,-3.396231592,14.046581458));
#451=DIRECTION('',(1.,0.,0.));
#452=DIRECTION('',(0.,0.,-1.));
#453=AXIS2_PLACEMENT_3D('',#450,#451,#452);
#454=CIRCLE('',#453,1.7);
#455=EDGE_CURVE('',#447,#449,#454,.T.);
#456=ORIENTED_EDGE('',*,*,#455,.F.);
#457=CARTESIAN_POINT('',(-0.5,-3.396231592,14.046581458));
#458=DIRECTION('',(1.,0.,0.));
#459=DIRECTION('',(0.,0.,-1.));
#460=AXIS2_PLACEMENT_3D('',#457,#458,#459);
#461=CIRCLE('',#460,1.7);
#462=EDGE_CURVE('',#449,#447,#461,.T.);
#463=ORIENTED_EDGE('',*,*,#462,.F.);
#464=EDGE_LOOP('',(#456,#463));
#465=FACE_BOUND('',#464,.T.);
#466=ORIENTED_EDGE('',*,*,#256,.T.);
#467=ORIENTED_EDGE('',*,*,#398,.T.);
#468=CARTESIAN_POINT('',(-0.5,-0.923309266,8.5));
#469=DIRECTION('',(0.,0.,1.));
#470=VECTOR('',#469,10.);
#471=LINE('',#468,#470);
#472=EDGE_CURVE('',#386,#348,#471,.T.);
#473=ORIENTED_EDGE('',*,*,#472,.T.);
#474=ORIENTED_EDGE('',*,*,#367,.F.);
#475=EDGE_LOOP('',(#466,#467,#473,#474));
#476=FACE_BOUND('',#475,.T.);
#477=ADVANCED_FACE('',(#465,#476),#445,.T.);
#478=CARTESIAN_POINT('',(0.,-0.,-4.713366191));
#479=DIRECTION('',(0.,0.,1.));
#480=DIRECTION('',(0.,-1.,0.));
#481=AXIS2_PLACEMENT_3D('',#478,#479,#480);
#482=CYLINDRICAL_SURFACE('',#481,1.05);
#483=ORIENTED_EDGE('',*,*,#392,.F.);
#484=ORIENTED_EDGE('',*,*,#435,.T.);
#485=ORIENTED_EDGE('',*,*,#354,.T.);
#486=ORIENTED_EDGE('',*,*,#472,.F.);
#487=EDGE_LOOP('',(#483,#484,#485,#486));
#488=FACE_BOUND('',#487,.T.);
#489=ADVANCED_FACE('',(#488),#482,.F.);
#490=CARTESIAN_POINT('',(-16.433689419,-3.396231592,14.046581458));
#491=DIRECTION('',(1.,-0.,0.));
#492=DIRECTION('',(0.,1.,0.));
#493=AXIS2_PLACEMENT_3D('',#490,#491,#492);
#494=CYLINDRICAL_SURFACE('',#493,1.7);
#495=CARTESIAN_POINT('',(-4.45172527,-1.696231592,14.046581458));
#496=VERTEX_POINT('',#495);
#497=CARTESIAN_POINT('',(-0.5,-1.696231592,14.046581458));
#498=DIRECTION('',(-1.,0.,-0.));
#499=VECTOR('',#498,3.95172527);
#500=LINE('',#497,#499);
#501=EDGE_CURVE('',#447,#496,#500,.T.);
#502=ORIENTED_EDGE('',*,*,#501,.F.);
#503=ORIENTED_EDGE('',*,*,#455,.T.);
#504=ORIENTED_EDGE('',*,*,#462,.T.);
#505=ORIENTED_EDGE('',*,*,#501,.T.);
#506=CARTESIAN_POINT('',(-4.45172527,-3.396231592,12.346581458));
#507=VERTEX_POINT('',#506);
#508=CARTESIAN_POINT('',(-4.45172527,-3.396231592,14.046581458));
#509=DIRECTION('',(-1.,-0.,-0.));
#510=DIRECTION('',(0.,0.,-1.));
#511=AXIS2_PLACEMENT_3D('',#508,#509,#510);
#512=CIRCLE('',#511,1.7);
#513=EDGE_CURVE('',#496,#507,#512,.T.);
#514=ORIENTED_EDGE('',*,*,#513,.T.);
#515=CARTESIAN_POINT('',(-4.45172527,-3.396231592,14.046581458));
#516=DIRECTION('',(-1.,-0.,-0.));
#517=DIRECTION('',(0.,0.,-1.));
#518=AXIS2_PLACEMENT_3D('',#515,#516,#517);
#519=CIRCLE('',#518,1.7);
#520=EDGE_CURVE('',#507,#496,#519,.T.);
#521=ORIENTED_EDGE('',*,*,#520,.T.);
#522=EDGE_LOOP('',(#502,#503,#504,#505,#514,#521));
#523=FACE_BOUND('',#522,.T.);
#524=ADVANCED_FACE('',(#523),#494,.F.);
#525=CARTESIAN_POINT('',(-46.640920864,3.396231592,14.046581458));
#526=DIRECTION('',(1.,-0.,0.));
#527=DIRECTION('',(0.,1.,0.));
#528=AXIS2_PLACEMENT_3D('',#525,#526,#527);
#529=CYLINDRICAL_SURFACE('',#528,1.7);
#530=CARTESIAN_POINT('',(-4.45172527,5.096231592,14.046581458));
#531=VERTEX_POINT('',#530);
#532=CARTESIAN_POINT('',(-0.5,5.096231592,14.046581458));
#533=DIRECTION('',(-1.,0.,-0.));
#534=VECTOR('',#533,3.95172527);
#535=LINE('',#532,#534);
#536=EDGE_CURVE('',#412,#531,#535,.T.);
#537=ORIENTED_EDGE('',*,*,#536,.F.);
#538=ORIENTED_EDGE('',*,*,#418,.F.);
#539=ORIENTED_EDGE('',*,*,#425,.F.);
#540=ORIENTED_EDGE('',*,*,#536,.T.);
#541=CARTESIAN_POINT('',(-4.45172527,3.396231592,12.346581458));
#542=VERTEX_POINT('',#541);
#543=CARTESIAN_POINT('',(-4.45172527,3.396231592,14.046581458));
#544=DIRECTION('',(1.,0.,0.));
#545=DIRECTION('',(0.,0.,-1.));
#546=AXIS2_PLACEMENT_3D('',#543,#544,#545);
#547=CIRCLE('',#546,1.7);
#548=EDGE_CURVE('',#542,#531,#547,.T.);
#549=ORIENTED_EDGE('',*,*,#548,.F.);
#550=CARTESIAN_POINT('',(-4.45172527,3.396231592,14.046581458));
#551=DIRECTION('',(1.,0.,0.));
#552=DIRECTION('',(0.,0.,-1.));
#553=AXIS2_PLACEMENT_3D('',#550,#551,#552);
#554=CIRCLE('',#553,1.7);
#555=EDGE_CURVE('',#531,#542,#554,.T.);
#556=ORIENTED_EDGE('',*,*,#555,.F.);
#557=EDGE_LOOP('',(#537,#538,#539,#540,#549,#556));
#558=FACE_BOUND('',#557,.T.);
#559=ADVANCED_FACE('',(#558),#529,.F.);
#560=CARTESIAN_POINT('',(-4.45172527,-3.396231592,14.046581458));
#561=DIRECTION('',(-1.,-0.,0.));
#562=DIRECTION('',(0.,-1.,0.));
#563=AXIS2_PLACEMENT_3D('',#560,#561,#562);
#564=CYLINDRICAL_SURFACE('',#563,3.);
#565=CARTESIAN_POINT('',(-4.45172527,-3.396231592,14.046581458));
#566=DIRECTION('',(1.,0.,-0.));
#567=DIRECTION('',(0.,0.614015418,0.78929403));
#568=AXIS2_PLACEMENT_3D('',#565,#566,#567);
#569=CIRCLE('',#568,3.);
#570=EDGE_CURVE('',#157,#155,#569,.T.);
#571=ORIENTED_EDGE('',*,*,#570,.T.);
#572=ORIENTED_EDGE('',*,*,#238,.T.);
#573=EDGE_LOOP('',(#571,#572));
#574=FACE_BOUND('',#573,.T.);
#575=ADVANCED_FACE('',(#574),#564,.F.);
#576=CARTESIAN_POINT('',(-4.45172527,3.396231592,14.046581458));
#577=DIRECTION('',(1.,0.,0.));
#578=DIRECTION('',(0.,0.,-1.));
#579=AXIS2_PLACEMENT_3D('',#576,#577,#578);
#580=PLANE('',#579);
#581=ORIENTED_EDGE('',*,*,#513,.F.);
#582=ORIENTED_EDGE('',*,*,#520,.F.);
#583=EDGE_LOOP('',(#581,#582));
#584=FACE_BOUND('',#583,.T.);
#585=ORIENTED_EDGE('',*,*,#570,.F.);
#586=ORIENTED_EDGE('',*,*,#244,.F.);
#587=EDGE_LOOP('',(#585,#586));
#588=FACE_BOUND('',#587,.T.);
#589=ADVANCED_FACE('',(#584,#588),#580,.F.);
#590=CARTESIAN_POINT('',(-4.45172527,6.244838222,12.398722159));
#591=DIRECTION('',(0.,-0.499267005,0.866448185));
#592=DIRECTION('',(0.,-0.866448185,-0.499267005));
#593=AXIS2_PLACEMENT_3D('',#590,#591,#592);
#594=PLANE('',#593);
#595=ORIENTED_EDGE('',*,*,#302,.T.);
#596=CARTESIAN_POINT('',(-4.45172527,3.393446892,10.755686102));
#597=VERTEX_POINT('',#596);
#598=CARTESIAN_POINT('',(-4.45172527,3.393446892,10.755686102));
#599=DIRECTION('',(-1.,0.,0.));
#600=VECTOR('',#599,1.670734872);
#601=LINE('',#598,#600);
#602=EDGE_CURVE('',#597,#287,#601,.T.);
#603=ORIENTED_EDGE('',*,*,#602,.F.);
#604=CARTESIAN_POINT('',(-4.45172527,3.393446892,10.755686102));
#605=DIRECTION('',(0.,0.866448185,0.499267005));
#606=VECTOR('',#605,2.318203154);
#607=LINE('',#604,#606);
#608=EDGE_CURVE('',#597,#296,#607,.T.);
#609=ORIENTED_EDGE('',*,*,#608,.T.);
#610=EDGE_LOOP('',(#595,#603,#609));
#611=FACE_BOUND('',#610,.T.);
#612=ADVANCED_FACE('',(#611),#594,.T.);
#613=CARTESIAN_POINT('',(-4.45172527,3.399016292,17.337476814));
#614=DIRECTION('',(0.,-0.500732637,-0.865602002));
#615=DIRECTION('',(0.,0.865602002,-0.500732637));
#616=AXIS2_PLACEMENT_3D('',#613,#614,#615);
#617=PLANE('',#616);
#618=ORIENTED_EDGE('',*,*,#319,.T.);
#619=CARTESIAN_POINT('',(-4.45172527,3.399016292,17.337476814));
#620=VERTEX_POINT('',#619);
#621=CARTESIAN_POINT('',(-4.45172527,5.402049807,16.17876386));
#622=DIRECTION('',(0.,-0.865602002,0.500732637));
#623=VECTOR('',#622,2.314035214);
#624=LINE('',#621,#623);
#625=EDGE_CURVE('',#305,#620,#624,.T.);
#626=ORIENTED_EDGE('',*,*,#625,.T.);
#627=CARTESIAN_POINT('',(-4.45172527,3.399016292,17.337476814));
#628=DIRECTION('',(-1.,0.,0.));
#629=VECTOR('',#628,1.667644652);
#630=LINE('',#627,#629);
#631=EDGE_CURVE('',#620,#313,#630,.T.);
#632=ORIENTED_EDGE('',*,*,#631,.T.);
#633=EDGE_LOOP('',(#618,#626,#632));
#634=FACE_BOUND('',#633,.T.);
#635=ADVANCED_FACE('',(#634),#617,.T.);
#636=CARTESIAN_POINT('',(-4.45172527,3.396231592,14.046581458));
#637=DIRECTION('',(1.,0.,0.));
#638=DIRECTION('',(0.,0.,-1.));
#639=AXIS2_PLACEMENT_3D('',#636,#637,#638);
#640=PLANE('',#639);
#641=ORIENTED_EDGE('',*,*,#548,.T.);
#642=ORIENTED_EDGE('',*,*,#555,.T.);
#643=EDGE_LOOP('',(#641,#642));
#644=FACE_BOUND('',#643,.T.);
#645=ORIENTED_EDGE('',*,*,#608,.F.);
#646=CARTESIAN_POINT('',(-4.45172527,0.544840262,12.403545401));
#647=VERTEX_POINT('',#646);
#648=CARTESIAN_POINT('',(-4.45172527,0.544840262,12.403545401));
#649=DIRECTION('',(0.,0.865602002,-0.500732637));
#650=VECTOR('',#649,3.290896534);
#651=LINE('',#648,#650);
#652=EDGE_CURVE('',#647,#597,#651,.T.);
#653=ORIENTED_EDGE('',*,*,#652,.F.);
#654=CARTESIAN_POINT('',(-4.45172527,0.547624963,15.694440757));
#655=VERTEX_POINT('',#654);
#656=CARTESIAN_POINT('',(-4.45172527,0.547624963,15.694440757));
#657=DIRECTION('',(0.,-0.000846183,-0.999999642));
#658=VECTOR('',#657,3.290896534);
#659=LINE('',#656,#658);
#660=EDGE_CURVE('',#655,#647,#659,.T.);
#661=ORIENTED_EDGE('',*,*,#660,.F.);
#662=CARTESIAN_POINT('',(-4.45172527,3.399016292,17.337476814));
#663=DIRECTION('',(0.,-0.866448185,-0.499267005));
#664=VECTOR('',#663,3.290896534);
#665=LINE('',#662,#664);
#666=EDGE_CURVE('',#620,#655,#665,.T.);
#667=ORIENTED_EDGE('',*,*,#666,.F.);
#668=ORIENTED_EDGE('',*,*,#625,.F.);
#669=ORIENTED_EDGE('',*,*,#310,.F.);
#670=EDGE_LOOP('',(#645,#653,#661,#667,#668,#669));
#671=FACE_BOUND('',#670,.T.);
#672=ADVANCED_FACE('',(#644,#671),#640,.F.);
#673=CARTESIAN_POINT('',(-4.45172527,0.547624963,15.694440757));
#674=DIRECTION('',(0.,0.499267005,-0.866448185));
#675=DIRECTION('',(0.,0.866448185,0.499267005));
#676=AXIS2_PLACEMENT_3D('',#673,#674,#675);
#677=PLANE('',#676);
#678=CARTESIAN_POINT('',(-4.45172527,0.547624963,15.694440757));
#679=DIRECTION('',(-1.,0.,0.));
#680=VECTOR('',#679,2.526820918);
#681=LINE('',#678,#680);
#682=EDGE_CURVE('',#655,#322,#681,.T.);
#683=ORIENTED_EDGE('',*,*,#682,.T.);
#684=ORIENTED_EDGE('',*,*,#328,.F.);
#685=ORIENTED_EDGE('',*,*,#631,.F.);
#686=ORIENTED_EDGE('',*,*,#666,.T.);
#687=EDGE_LOOP('',(#683,#684,#685,#686));
#688=FACE_BOUND('',#687,.T.);
#689=ADVANCED_FACE('',(#688),#677,.T.);
#690=CARTESIAN_POINT('',(-4.45172527,0.544840262,12.403545401));
#691=DIRECTION('',(0.,0.999999642,-0.000846183));
#692=DIRECTION('',(0.,0.000846183,0.999999642));
#693=AXIS2_PLACEMENT_3D('',#690,#691,#692);
#694=PLANE('',#693);
#695=CARTESIAN_POINT('',(-4.45172527,0.544840262,12.403545401));
#696=DIRECTION('',(-1.,0.,0.));
#697=VECTOR('',#696,2.527038882);
#698=LINE('',#695,#697);
#699=EDGE_CURVE('',#647,#285,#698,.T.);
#700=ORIENTED_EDGE('',*,*,#699,.T.);
#701=ORIENTED_EDGE('',*,*,#335,.F.);
#702=ORIENTED_EDGE('',*,*,#682,.F.);
#703=ORIENTED_EDGE('',*,*,#660,.T.);
#704=EDGE_LOOP('',(#700,#701,#702,#703));
#705=FACE_BOUND('',#704,.T.);
#706=ADVANCED_FACE('',(#705),#694,.T.);
#707=CARTESIAN_POINT('',(-4.45172527,3.393446892,10.755686102));
#708=DIRECTION('',(0.,0.500732637,0.865602002));
#709=DIRECTION('',(0.,-0.865602002,0.500732637));
#710=AXIS2_PLACEMENT_3D('',#707,#708,#709);
#711=PLANE('',#710);
#712=ORIENTED_EDGE('',*,*,#602,.T.);
#713=ORIENTED_EDGE('',*,*,#293,.F.);
#714=ORIENTED_EDGE('',*,*,#699,.F.);
#715=ORIENTED_EDGE('',*,*,#652,.T.);
#716=EDGE_LOOP('',(#712,#713,#714,#715));
#717=FACE_BOUND('',#716,.T.);
#718=ADVANCED_FACE('',(#717),#711,.T.);
#719=CLOSED_SHELL('',(#339,#371,#403,#440,#477,#489,#524,#559,#575,#589,#612,#635,#672,#689,#706,#718));
#720=MANIFOLD_SOLID_BREP('Solid 50',#719);
#148=STYLED_ITEM('',(),#720);
#721=CARTESIAN_POINT('',(0.5,10.671998374,8.5));
#722=DIRECTION('',(0.,-1.,0.));
#723=VECTOR('',#722,21.343996748);
#724=LINE('',#721,#723);
#725=TRIMMED_CURVE('Rectangle.001',#724,(PARAMETER_VALUE(0.)),(PARAMETER_VALUE(1.)),.T.,.PARAMETER.);
#726=CARTESIAN_POINT('',(-0.5,10.671998374,8.5));
#727=DIRECTION('',(1.,0.,-0.));
#728=VECTOR('',#727,1.);
#729=LINE('',#726,#728);
#730=TRIMMED_CURVE('Rectangle.001',#729,(PARAMETER_VALUE(0.)),(PARAMETER_VALUE(1.)),.T.,.PARAMETER.);
#731=CARTESIAN_POINT('',(-0.5,-10.671998374,8.5));
#732=DIRECTION('',(0.,1.,0.));
#733=VECTOR('',#732,21.343996748);
#734=LINE('',#731,#733);
#735=TRIMMED_CURVE('Rectangle.001',#734,(PARAMETER_VALUE(0.)),(PARAMETER_VALUE(1.)),.T.,.PARAMETER.);
#736=CARTESIAN_POINT('',(0.5,-10.671998374,8.5));
#737=DIRECTION('',(-1.,0.,0.));
#738=VECTOR('',#737,1.);
#739=LINE('',#736,#738);
#740=TRIMMED_CURVE('Rectangle.001',#739,(PARAMETER_VALUE(0.)),(PARAMETER_VALUE(1.)),.T.,.PARAMETER.);
#741=GEOMETRIC_CURVE_SET('',(#725,#730,#735,#740));
#743=CARTESIAN_POINT('',(0.,0.,16.5));
#744=DIRECTION('',(0.,-0.,-1.));
#745=DIRECTION('',(0.,1.,-0.));
#746=AXIS2_PLACEMENT_3D('',#743,#744,#745);
#747=CYLINDRICAL_SURFACE('',#746,7.);
#748=CARTESIAN_POINT('',(4.538795761,5.329102461,16.340924546));
#749=VERTEX_POINT('',#748);
#750=CARTESIAN_POINT('',(4.538795761,5.329102461,11.75223837));
#751=VERTEX_POINT('',#750);
#752=CARTESIAN_POINT('',(4.538795761,5.329102461,16.340924546));
#753=CARTESIAN_POINT('',(4.74832043,5.150650332,16.491261661));
#754=CARTESIAN_POINT('',(4.95252207,4.955523519,16.620678265));
#755=CARTESIAN_POINT('',(5.149643287,4.741431642,16.728080447));
#756=CARTESIAN_POINT('',(5.248203896,4.634385703,16.781781538));
#757=CARTESIAN_POINT('',(5.34500845,4.522566404,16.829896622));
#758=CARTESIAN_POINT('',(5.439876194,4.405422454,16.871742304));
#759=CARTESIAN_POINT('',(5.534743938,4.288278503,16.913587986));
#760=CARTESIAN_POINT('',(5.62740424,4.166031565,16.948965685));
#761=CARTESIAN_POINT('',(5.715893549,4.040861411,16.976505074));
#762=CARTESIAN_POINT('',(5.804382857,3.915691256,17.004044464));
#763=CARTESIAN_POINT('',(5.889223754,3.786973366,17.023996554));
#764=CARTESIAN_POINT('',(5.970311979,3.654500632,17.035443633));
#765=CARTESIAN_POINT('',(6.051400205,3.522027899,17.046890713));
#766=CARTESIAN_POINT('',(6.12925654,3.384769024,17.049764106));
#767=CARTESIAN_POINT('',(6.201766164,3.246243435,17.042829704));
#768=CARTESIAN_POINT('',(6.346785413,2.969192257,17.0289609));
#769=CARTESIAN_POINT('',(6.470472373,2.687430188,16.976760149));
#770=CARTESIAN_POINT('',(6.573216619,2.40682847,16.878732842));
#771=CARTESIAN_POINT('',(6.675960864,2.126226752,16.780705535));
#772=CARTESIAN_POINT('',(6.753203982,1.859894027,16.641744988));
#773=CARTESIAN_POINT('',(6.811896458,1.611851929,16.45821767));
#774=CARTESIAN_POINT('',(6.841242696,1.48783088,16.366454011));
#775=CARTESIAN_POINT('',(6.865432604,1.370391792,16.264631491));
#776=CARTESIAN_POINT('',(6.88529487,1.262027955,16.154939785));
#777=CARTESIAN_POINT('',(6.905157135,1.153664118,16.04524808));
#778=CARTESIAN_POINT('',(6.920872559,1.053580018,15.927115629));
#779=CARTESIAN_POINT('',(6.93355146,0.962218349,15.800314486));
#780=CARTESIAN_POINT('',(6.946230361,0.87085668,15.673513342));
#781=CARTESIAN_POINT('',(6.955737432,0.789105991,15.538912324));
#782=CARTESIAN_POINT('',(6.962978641,0.718977358,15.400209829));
#783=CARTESIAN_POINT('',(6.970219851,0.648848726,15.261507334));
#784=CARTESIAN_POINT('',(6.975291733,0.589605163,15.117723575));
#785=CARTESIAN_POINT('',(6.979024782,0.541491543,14.968784935));
#786=CARTESIAN_POINT('',(6.982757831,0.493377923,14.819846294));
#787=CARTESIAN_POINT('',(6.985123925,0.456760263,14.666037301));
#788=CARTESIAN_POINT('',(6.986619767,0.432601705,14.512304437));
#789=CARTESIAN_POINT('',(6.988115609,0.408443147,14.358571574));
#790=CARTESIAN_POINT('',(6.988774162,0.396277319,14.203626334));
#791=CARTESIAN_POINT('',(6.988776747,0.39623172,14.047457069));
#792=CARTESIAN_POINT('',(6.988779333,0.396186121,13.891287805));
#793=CARTESIAN_POINT('',(6.988108294,0.408574871,13.733236924));
#794=CARTESIAN_POINT('',(6.98660484,0.432842714,13.579327401));
#795=CARTESIAN_POINT('',(6.985101385,0.457110556,13.425417878));
#796=CARTESIAN_POINT('',(6.982771877,0.493147219,13.274336056));
#797=CARTESIAN_POINT('',(6.979067591,0.540939522,13.126088551));
#798=CARTESIAN_POINT('',(6.975363304,0.588731824,12.977841045));
#799=CARTESIAN_POINT('',(6.970209786,0.648989555,12.831266438));
#800=CARTESIAN_POINT('',(6.962933711,0.719412353,12.692093081));
#801=CARTESIAN_POINT('',(6.955657636,0.789835152,12.552919725));
#802=CARTESIAN_POINT('',(6.946273517,0.87042232,12.42044568));
#803=CARTESIAN_POINT('',(6.933727739,0.960947261,12.294613928));
#804=CARTESIAN_POINT('',(6.921181961,1.051472201,12.168782177));
#805=CARTESIAN_POINT('',(6.905286339,1.152968612,12.048608738));
#806=CARTESIAN_POINT('',(6.885276468,1.262128343,11.938121517));
#807=CARTESIAN_POINT('',(6.865266597,1.371288074,11.827634297));
#808=CARTESIAN_POINT('',(6.841298657,1.487451832,11.727128334));
#809=CARTESIAN_POINT('',(6.812312108,1.610094329,11.636246693));
#810=CARTESIAN_POINT('',(6.783325559,1.732736826,11.545365053));
#811=CARTESIAN_POINT('',(6.749063491,1.862737947,11.463663279));
#812=CARTESIAN_POINT('',(6.709069983,1.997092878,11.392827351));
#813=CARTESIAN_POINT('',(6.669076475,2.131447808,11.321991424));
#814=CARTESIAN_POINT('',(6.623951767,2.26828076,11.262819611));
#815=CARTESIAN_POINT('',(6.573140024,2.407037646,11.214357008));
#816=CARTESIAN_POINT('',(6.471516536,2.684551419,11.117431801));
#817=CARTESIAN_POINT('',(6.34557013,2.97189766,11.063739684));
#818=CARTESIAN_POINT('',(6.199912497,3.249782305,11.050158156));
#819=CARTESIAN_POINT('',(6.127083681,3.388724627,11.043367392));
#820=CARTESIAN_POINT('',(6.049238415,3.525710746,11.046455037));
#821=CARTESIAN_POINT('',(5.968426796,3.65757865,11.057986853));
#822=CARTESIAN_POINT('',(5.887615177,3.789446553,11.069518668));
#823=CARTESIAN_POINT('',(5.803337304,3.917181005,11.089436075));
#824=CARTESIAN_POINT('',(5.715732142,4.041089715,11.116708082));
#825=CARTESIAN_POINT('',(5.62812698,4.164998424,11.143980088));
#826=CARTESIAN_POINT('',(5.537194356,4.285079274,11.178616467));
#827=CARTESIAN_POINT('',(5.443033184,4.4015213,11.220030096));
#828=CARTESIAN_POINT('',(5.348872012,4.517963327,11.261443725));
#829=CARTESIAN_POINT('',(5.250989598,4.631263996,11.309930703));
#830=CARTESIAN_POINT('',(5.151723523,4.739171314,11.363949746));
#831=CARTESIAN_POINT('',(4.953191374,4.954985949,11.471987831));
#832=CARTESIAN_POINT('',(4.74827308,5.15069066,11.601935229));
#833=CARTESIAN_POINT('',(4.538795761,5.329102461,11.75223837));
#834=B_SPLINE_CURVE_WITH_KNOTS('',3,(#752,#753,#754,#755,#756,#757,#758,#759,#760,#761,#762,#763,#764,#765,#766,#767,#768,#769,#770,#771,#772,#773,#774,#775,#776,#777,
#778,#779,#780,#781,#782,#783,#784,#785,#786,#787,#788,#789,#790,#791,#792,#793,#794,#795,#796,#797,#798,#799,#800,#801,#802,
#803,#804,#805,#806,#807,#808,#809,#810,#811,#812,#813,#814,#815,#816,#817,#818,#819,#820,#821,#822,#823,#824,#825,#826,#827,
#828,#829,#830,#831,#832,#833),.UNSPECIFIED.,.F.,.F.,(4,3,3,3,3,3,3,3,3,3,3,3,3,3,3,3,3,3,3,3,3,3,3,3,3,3,
3,4),(-0.012151972,-0.011226966,-0.010764463,-0.01030196,-0.009839457,-0.009376954,-0.008451949,-0.007526943,-0.00706444,-0.006601937,-0.006139434,-0.005676931,-0.005214428,-0.004751925,-0.004289422,-0.003826919,-0.003364416,-0.002901913,-0.00243941,-0.001976907,-0.001514404,-0.001051901,-0.000126895,0.000335608,0.000798111,0.001260614,
0.001723117,0.002648123),.UNSPECIFIED.);
#835=EDGE_CURVE('',#749,#751,#834,.T.);
#836=ORIENTED_EDGE('',*,*,#835,.F.);
#837=CARTESIAN_POINT('',(4.538795761,5.329102461,16.340924546));
#838=DIRECTION('',(0.,-0.,-1.));
#839=VECTOR('',#838,4.588686175);
#840=LINE('',#837,#839);
#841=EDGE_CURVE('',#749,#751,#840,.T.);
#842=ORIENTED_EDGE('',*,*,#841,.T.);
#843=EDGE_LOOP('',(#836,#842));
#844=FACE_BOUND('',#843,.T.);
#845=CARTESIAN_POINT('',(0.5,-6.982120022,8.5));
#846=VERTEX_POINT('',#845);
#847=CARTESIAN_POINT('',(0.5,-6.982120022,18.5));
#848=VERTEX_POINT('',#847);
#849=CARTESIAN_POINT('',(0.5,-6.982120022,8.5));
#850=DIRECTION('',(-0.,0.,1.));
#851=VECTOR('',#850,10.);
#852=LINE('',#849,#851);
#853=EDGE_CURVE('',#846,#848,#852,.T.);
#854=ORIENTED_EDGE('',*,*,#853,.F.);
#855=CARTESIAN_POINT('',(0.5,6.982120022,8.5));
#856=VERTEX_POINT('',#855);
#857=CARTESIAN_POINT('',(0.,0.,8.5));
#858=DIRECTION('',(0.,0.,1.));
#859=DIRECTION('',(0.971735412,-0.236072635,0.));
#860=AXIS2_PLACEMENT_3D('',#857,#858,#859);
#861=CIRCLE('',#860,7.);
#862=EDGE_CURVE('',#846,#856,#861,.T.);
#863=ORIENTED_EDGE('',*,*,#862,.T.);
#864=CARTESIAN_POINT('',(0.5,6.982120022,18.5));
#865=VERTEX_POINT('',#864);
#866=CARTESIAN_POINT('',(0.5,6.982120022,18.5));
#867=DIRECTION('',(0.,-0.,-1.));
#868=VECTOR('',#867,10.);
#869=LINE('',#866,#868);
#870=EDGE_CURVE('',#865,#856,#869,.T.);
#871=ORIENTED_EDGE('',*,*,#870,.F.);
#872=CARTESIAN_POINT('',(0.,0.,18.5));
#873=DIRECTION('',(0.,0.,1.));
#874=DIRECTION('',(1.,0.,-0.));
#875=AXIS2_PLACEMENT_3D('',#872,#873,#874);
#876=CIRCLE('',#875,7.);
#877=EDGE_CURVE('',#848,#865,#876,.T.);
#878=ORIENTED_EDGE('',*,*,#877,.F.);
#879=EDGE_LOOP('',(#854,#863,#871,#878));
#880=FACE_BOUND('',#879,.T.);
#881=CARTESIAN_POINT('',(6.978546188,-0.547624963,15.694440757));
#882=VERTEX_POINT('',#881);
#883=CARTESIAN_POINT('',(6.119369922,-3.399016292,17.337476814));
#884=VERTEX_POINT('',#883);
#885=CARTESIAN_POINT('',(0.,0.,15.378886891));
#886=DIRECTION('',(-0.,-0.499267005,-0.866448185));
#887=DIRECTION('',(0.,0.866448185,-0.499267005));
#888=AXIS2_PLACEMENT_3D('',#885,#886,#887);
#889=ELLIPSE('',#888,8.078959735,7.);
#890=EDGE_CURVE('',#882,#884,#889,.T.);
#891=ORIENTED_EDGE('',*,*,#890,.F.);
#892=CARTESIAN_POINT('',(6.978764152,-0.544840262,12.403545401));
#893=VERTEX_POINT('',#892);
#894=CARTESIAN_POINT('',(0.,-0.,-631.476279451));
#895=DIRECTION('',(0.,0.999999642,0.000846183));
#896=DIRECTION('',(0.,0.000846183,-0.999999642));
#897=AXIS2_PLACEMENT_3D('',#894,#895,#896);
#898=ELLIPSE('',#897,8272.44368315,7.);
#899=EDGE_CURVE('',#882,#893,#898,.T.);
#900=ORIENTED_EDGE('',*,*,#899,.T.);
#901=CARTESIAN_POINT('',(6.122460142,-3.393446892,10.755686102));
#902=VERTEX_POINT('',#901);
#903=CARTESIAN_POINT('',(0.,0.,12.718724087));
#904=DIRECTION('',(-0.,-0.500732637,0.865602002));
#905=DIRECTION('',(-0.,-0.865602002,-0.500732637));
#906=AXIS2_PLACEMENT_3D('',#903,#904,#905);
#907=ELLIPSE('',#906,8.086857449,7.);
#908=EDGE_CURVE('',#902,#893,#907,.T.);
#909=ORIENTED_EDGE('',*,*,#908,.F.);
#910=CARTESIAN_POINT('',(4.538795761,-5.329102461,11.87105454));
#911=VERTEX_POINT('',#910);
#912=CARTESIAN_POINT('',(0.,0.,8.800305392));
#913=DIRECTION('',(0.,0.499267005,0.866448185));
#914=DIRECTION('',(0.,0.866448185,-0.499267005));
#915=AXIS2_PLACEMENT_3D('',#912,#913,#914);
#916=ELLIPSE('',#915,8.078959735,7.);
#917=EDGE_CURVE('',#911,#902,#916,.T.);
#918=ORIENTED_EDGE('',*,*,#917,.F.);
#919=CARTESIAN_POINT('',(4.538795761,-5.329102461,16.220962372));
#920=VERTEX_POINT('',#919);
#921=CARTESIAN_POINT('',(4.538795761,-5.329102461,11.87105454));
#922=DIRECTION('',(-0.,0.,1.));
#923=VECTOR('',#922,4.349907832);
#924=LINE('',#921,#923);
#925=EDGE_CURVE('',#911,#920,#924,.T.);
#926=ORIENTED_EDGE('',*,*,#925,.T.);
#927=CARTESIAN_POINT('',(0.,0.,19.303736581));
#928=DIRECTION('',(0.,0.500732637,-0.865602002));
#929=DIRECTION('',(-0.,-0.865602002,-0.500732637));
#930=AXIS2_PLACEMENT_3D('',#927,#928,#929);
#931=ELLIPSE('',#930,8.086857449,7.);
#932=EDGE_CURVE('',#884,#920,#931,.T.);
#933=ORIENTED_EDGE('',*,*,#932,.F.);
#934=EDGE_LOOP('',(#891,#900,#909,#918,#926,#933));
#935=FACE_BOUND('',#934,.T.);
#936=ADVANCED_FACE('',(#844,#880,#935),#747,.T.);
#937=CARTESIAN_POINT('',(0.,0.,8.5));
#938=DIRECTION('',(0.,0.,1.));
#939=DIRECTION('',(1.,0.,0.));
#940=AXIS2_PLACEMENT_3D('',#937,#938,#939);
#941=PLANE('',#940);
#942=CARTESIAN_POINT('',(0.5,-0.923309266,8.5));
#943=VERTEX_POINT('',#942);
#944=CARTESIAN_POINT('',(0.5,-0.923309266,8.5));
#945=DIRECTION('',(0.,-1.,0.));
#946=VECTOR('',#945,6.058810756);
#947=LINE('',#944,#946);
#948=EDGE_CURVE('',#943,#846,#947,.T.);
#949=ORIENTED_EDGE('',*,*,#948,.F.);
#950=CARTESIAN_POINT('',(0.5,0.923309266,8.5));
#951=VERTEX_POINT('',#950);
#952=CARTESIAN_POINT('',(0.,0.,8.5));
#953=DIRECTION('',(0.,0.,1.));
#954=DIRECTION('',(1.,0.,-0.));
#955=AXIS2_PLACEMENT_3D('',#952,#953,#954);
#956=CIRCLE('',#955,1.05);
#957=EDGE_CURVE('',#943,#951,#956,.T.);
#958=ORIENTED_EDGE('',*,*,#957,.T.);
#959=CARTESIAN_POINT('',(0.5,6.982120022,8.5));
#960=DIRECTION('',(0.,-1.,0.));
#961=VECTOR('',#960,6.058810756);
#962=LINE('',#959,#961);
#963=EDGE_CURVE('',#856,#951,#962,.T.);
#964=ORIENTED_EDGE('',*,*,#963,.F.);
#965=ORIENTED_EDGE('',*,*,#862,.F.);
#966=EDGE_LOOP('',(#949,#958,#964,#965));
#967=FACE_BOUND('',#966,.T.);
#968=ADVANCED_FACE('',(#967),#941,.F.);
#969=CARTESIAN_POINT('',(0.5,10.671998374,4.501504812));
#970=DIRECTION('',(-1.,0.,0.));
#971=DIRECTION('',(0.,0.,1.));
#972=AXIS2_PLACEMENT_3D('',#969,#970,#971);
#973=PLANE('',#972);
#974=CARTESIAN_POINT('',(0.5,-1.696231592,14.046581458));
#975=VERTEX_POINT('',#974);
#976=CARTESIAN_POINT('',(0.5,-3.396231592,15.746581458));
#977=VERTEX_POINT('',#976);
#978=CARTESIAN_POINT('',(0.5,-3.396231592,14.046581458));
#979=DIRECTION('',(-1.,0.,0.));
#980=DIRECTION('',(0.,0.,1.));
#981=AXIS2_PLACEMENT_3D('',#978,#979,#980);
#982=CIRCLE('',#981,1.7);
#983=EDGE_CURVE('',#975,#977,#982,.T.);
#984=ORIENTED_EDGE('',*,*,#983,.F.);
#985=CARTESIAN_POINT('',(0.5,-3.396231592,14.046581458));
#986=DIRECTION('',(-1.,0.,0.));
#987=DIRECTION('',(0.,0.,1.));
#988=AXIS2_PLACEMENT_3D('',#985,#986,#987);
#989=CIRCLE('',#988,1.7);
#990=EDGE_CURVE('',#977,#975,#989,.T.);
#991=ORIENTED_EDGE('',*,*,#990,.F.);
#992=EDGE_LOOP('',(#984,#991));
#993=FACE_BOUND('',#992,.T.);
#994=ORIENTED_EDGE('',*,*,#853,.T.);
#995=CARTESIAN_POINT('',(0.5,-0.923309266,18.5));
#996=VERTEX_POINT('',#995);
#997=CARTESIAN_POINT('',(0.5,-0.923309266,18.5));
#998=DIRECTION('',(0.,-1.,0.));
#999=VECTOR('',#998,6.058810756);
#1000=LINE('',#997,#999);
#1001=EDGE_CURVE('',#996,#848,#1000,.T.);
#1002=ORIENTED_EDGE('',*,*,#1001,.F.);
#1003=CARTESIAN_POINT('',(0.5,-0.923309266,8.5));
#1004=DIRECTION('',(0.,0.,1.));
#1005=VECTOR('',#1004,10.);
#1006=LINE('',#1003,#1005);
#1007=EDGE_CURVE('',#943,#996,#1006,.T.);
#1008=ORIENTED_EDGE('',*,*,#1007,.F.);
#1009=ORIENTED_EDGE('',*,*,#948,.T.);
#1010=EDGE_LOOP('',(#994,#1002,#1008,#1009));
#1011=FACE_BOUND('',#1010,.T.);
#1012=ADVANCED_FACE('',(#993,#1011),#973,.T.);
#1013=CARTESIAN_POINT('',(0.5,10.671998374,4.501504812));
#1014=DIRECTION('',(-1.,0.,0.));
#1015=DIRECTION('',(0.,0.,1.));
#1016=AXIS2_PLACEMENT_3D('',#1013,#1014,#1015);
#1017=PLANE('',#1016);
#1018=CARTESIAN_POINT('',(0.5,3.396231592,15.746581458));
#1019=VERTEX_POINT('',#1018);
#1020=CARTESIAN_POINT('',(0.5,5.096231592,14.046581458));
#1021=VERTEX_POINT('',#1020);
#1022=CARTESIAN_POINT('',(0.5,3.396231592,14.046581458));
#1023=DIRECTION('',(1.,-0.,-0.));
#1024=DIRECTION('',(0.,0.,1.));
#1025=AXIS2_PLACEMENT_3D('',#1022,#1023,#1024);
#1026=CIRCLE('',#1025,1.7);
#1027=EDGE_CURVE('',#1019,#1021,#1026,.T.);
#1028=ORIENTED_EDGE('',*,*,#1027,.T.);
#1029=CARTESIAN_POINT('',(0.5,3.396231592,14.046581458));
#1030=DIRECTION('',(1.,-0.,-0.));
#1031=DIRECTION('',(0.,0.,1.));
#1032=AXIS2_PLACEMENT_3D('',#1029,#1030,#1031);
#1033=CIRCLE('',#1032,1.7);
#1034=EDGE_CURVE('',#1021,#1019,#1033,.T.);
#1035=ORIENTED_EDGE('',*,*,#1034,.T.);
#1036=EDGE_LOOP('',(#1028,#1035));
#1037=FACE_BOUND('',#1036,.T.);
#1038=ORIENTED_EDGE('',*,*,#870,.T.);
#1039=ORIENTED_EDGE('',*,*,#963,.T.);
#1040=CARTESIAN_POINT('',(0.5,0.923309266,18.5));
#1041=VERTEX_POINT('',#1040);
#1042=CARTESIAN_POINT('',(0.5,0.923309266,8.5));
#1043=DIRECTION('',(0.,0.,1.));
#1044=VECTOR('',#1043,10.);
#1045=LINE('',#1042,#1044);
#1046=EDGE_CURVE('',#951,#1041,#1045,.T.);
#1047=ORIENTED_EDGE('',*,*,#1046,.T.);
#1048=CARTESIAN_POINT('',(0.5,6.982120022,18.5));
#1049=DIRECTION('',(0.,-1.,0.));
#1050=VECTOR('',#1049,6.058810756);
#1051=LINE('',#1048,#1050);
#1052=EDGE_CURVE('',#865,#1041,#1051,.T.);
#1053=ORIENTED_EDGE('',*,*,#1052,.F.);
#1054=EDGE_LOOP('',(#1038,#1039,#1047,#1053));
#1055=FACE_BOUND('',#1054,.T.);
#1056=ADVANCED_FACE('',(#1037,#1055),#1017,.T.);
#1057=CARTESIAN_POINT('',(0.,0.,18.5));
#1058=DIRECTION('',(0.,0.,1.));
#1059=DIRECTION('',(1.,0.,0.));
#1060=AXIS2_PLACEMENT_3D('',#1057,#1058,#1059);
#1061=PLANE('',#1060);
#1062=CARTESIAN_POINT('',(0.,0.,18.5));
#1063=DIRECTION('',(0.,0.,1.));
#1064=DIRECTION('',(0.740932614,-0.671579379,0.));
#1065=AXIS2_PLACEMENT_3D('',#1062,#1063,#1064);
#1066=CIRCLE('',#1065,1.05);
#1067=EDGE_CURVE('',#996,#1041,#1066,.T.);
#1068=ORIENTED_EDGE('',*,*,#1067,.F.);
#1069=ORIENTED_EDGE('',*,*,#1001,.T.);
#1070=ORIENTED_EDGE('',*,*,#877,.T.);
#1071=ORIENTED_EDGE('',*,*,#1052,.T.);
#1072=EDGE_LOOP('',(#1068,#1069,#1070,#1071));
#1073=FACE_BOUND('',#1072,.T.);
#1074=ADVANCED_FACE('',(#1073),#1061,.T.);
#1075=CARTESIAN_POINT('',(0.,-0.,-4.713366191));
#1076=DIRECTION('',(0.,0.,1.));
#1077=DIRECTION('',(0.,-1.,0.));
#1078=AXIS2_PLACEMENT_3D('',#1075,#1076,#1077);
#1079=CYLINDRICAL_SURFACE('',#1078,1.05);
#1080=ORIENTED_EDGE('',*,*,#1007,.T.);
#1081=ORIENTED_EDGE('',*,*,#1067,.T.);
#1082=ORIENTED_EDGE('',*,*,#1046,.F.);
#1083=ORIENTED_EDGE('',*,*,#957,.F.);
#1084=EDGE_LOOP('',(#1080,#1081,#1082,#1083));
#1085=FACE_BOUND('',#1084,.T.);
#1086=ADVANCED_FACE('',(#1085),#1079,.F.);
#1087=CARTESIAN_POINT('',(-18.791004339,-3.396231592,14.046581458));
#1088=DIRECTION('',(1.,-0.,0.));
#1089=DIRECTION('',(0.,1.,0.));
#1090=AXIS2_PLACEMENT_3D('',#1087,#1088,#1089);
#1091=CYLINDRICAL_SURFACE('',#1090,1.7);
#1092=CARTESIAN_POINT('',(4.538795761,-1.696231592,14.046581458));
#1093=VERTEX_POINT('',#1092);
#1094=CARTESIAN_POINT('',(4.538795761,-1.696231592,14.046581458));
#1095=DIRECTION('',(-1.,0.,-0.));
#1096=VECTOR('',#1095,4.038795761);
#1097=LINE('',#1094,#1096);
#1098=EDGE_CURVE('',#1093,#975,#1097,.T.);
#1099=ORIENTED_EDGE('',*,*,#1098,.F.);
#1100=CARTESIAN_POINT('',(4.538795761,-2.787125862,15.633714159));
#1101=VERTEX_POINT('',#1100);
#1102=CARTESIAN_POINT('',(4.538795761,-3.396231592,14.046581458));
#1103=DIRECTION('',(1.,0.,-0.));
#1104=DIRECTION('',(0.,0.358297488,0.933607471));
#1105=AXIS2_PLACEMENT_3D('',#1102,#1103,#1104);
#1106=CIRCLE('',#1105,1.7);
#1107=EDGE_CURVE('',#1093,#1101,#1106,.T.);
#1108=ORIENTED_EDGE('',*,*,#1107,.T.);
#1109=CARTESIAN_POINT('',(4.538795761,-3.396231592,14.046581458));
#1110=DIRECTION('',(1.,0.,-0.));
#1111=DIRECTION('',(0.,0.358297488,0.933607471));
#1112=AXIS2_PLACEMENT_3D('',#1109,#1110,#1111);
#1113=CIRCLE('',#1112,1.7);
#1114=EDGE_CURVE('',#1101,#1093,#1113,.T.);
#1115=ORIENTED_EDGE('',*,*,#1114,.T.);
#1116=ORIENTED_EDGE('',*,*,#1098,.T.);
#1117=ORIENTED_EDGE('',*,*,#983,.T.);
#1118=ORIENTED_EDGE('',*,*,#990,.T.);
#1119=EDGE_LOOP('',(#1099,#1108,#1115,#1116,#1117,#1118));
#1120=FACE_BOUND('',#1119,.T.);
#1121=ADVANCED_FACE('',(#1120),#1091,.F.);
#1122=CARTESIAN_POINT('',(-40.03989134,3.396231592,14.046581458));
#1123=DIRECTION('',(1.,-0.,0.));
#1124=DIRECTION('',(0.,1.,0.));
#1125=AXIS2_PLACEMENT_3D('',#1122,#1123,#1124);
#1126=CYLINDRICAL_SURFACE('',#1125,1.7);
#1127=CARTESIAN_POINT('',(4.538795761,5.096231592,14.046581458));
#1128=VERTEX_POINT('',#1127);
#1129=CARTESIAN_POINT('',(4.538795761,5.096231592,14.046581458));
#1130=DIRECTION('',(-1.,0.,-0.));
#1131=VECTOR('',#1130,4.038795761);
#1132=LINE('',#1129,#1131);
#1133=EDGE_CURVE('',#1128,#1021,#1132,.T.);
#1134=ORIENTED_EDGE('',*,*,#1133,.F.);
#1135=CARTESIAN_POINT('',(4.538795761,2.787125862,15.633714159));
#1136=VERTEX_POINT('',#1135);
#1137=CARTESIAN_POINT('',(4.538795761,3.396231592,14.046581458));
#1138=DIRECTION('',(-1.,0.,0.));
#1139=DIRECTION('',(0.,-0.358297488,0.933607471));
#1140=AXIS2_PLACEMENT_3D('',#1137,#1138,#1139);
#1141=CIRCLE('',#1140,1.7);
#1142=EDGE_CURVE('',#1136,#1128,#1141,.T.);
#1143=ORIENTED_EDGE('',*,*,#1142,.F.);
#1144=CARTESIAN_POINT('',(4.538795761,3.396231592,14.046581458));
#1145=DIRECTION('',(-1.,0.,0.));
#1146=DIRECTION('',(0.,-0.358297488,0.933607471));
#1147=AXIS2_PLACEMENT_3D('',#1144,#1145,#1146);
#1148=CIRCLE('',#1147,1.7);
#1149=EDGE_CURVE('',#1128,#1136,#1148,.T.);
#1150=ORIENTED_EDGE('',*,*,#1149,.F.);
#1151=ORIENTED_EDGE('',*,*,#1133,.T.);
#1152=ORIENTED_EDGE('',*,*,#1027,.F.);
#1153=ORIENTED_EDGE('',*,*,#1034,.F.);
#1154=EDGE_LOOP('',(#1134,#1143,#1150,#1151,#1152,#1153));
#1155=FACE_BOUND('',#1154,.T.);
#1156=ADVANCED_FACE('',(#1155),#1126,.F.);
#1157=CARTESIAN_POINT('',(4.538795761,3.396231592,14.046581458));
#1158=DIRECTION('',(1.,-0.,0.));
#1159=DIRECTION('',(0.,1.,0.));
#1160=AXIS2_PLACEMENT_3D('',#1157,#1158,#1159);
#1161=CYLINDRICAL_SURFACE('',#1160,3.);
#1162=CARTESIAN_POINT('',(4.538795761,3.396231592,14.046581458));
#1163=DIRECTION('',(-1.,0.,0.));
#1164=DIRECTION('',(0.,-0.614015418,0.78929403));
#1165=AXIS2_PLACEMENT_3D('',#1162,#1163,#1164);
#1166=CIRCLE('',#1165,3.);
#1167=EDGE_CURVE('',#751,#749,#1166,.T.);
#1168=ORIENTED_EDGE('',*,*,#1167,.T.);
#1169=ORIENTED_EDGE('',*,*,#835,.T.);
#1170=EDGE_LOOP('',(#1168,#1169));
#1171=FACE_BOUND('',#1170,.T.);
#1172=ADVANCED_FACE('',(#1171),#1161,.F.);
#1173=CARTESIAN_POINT('',(4.538795761,-3.396892258,14.827341701));
#1174=DIRECTION('',(-1.,-0.,0.));
#1175=DIRECTION('',(0.,0.,1.));
#1176=AXIS2_PLACEMENT_3D('',#1173,#1174,#1175);
#1177=PLANE('',#1176);
#1178=ORIENTED_EDGE('',*,*,#1142,.T.);
#1179=ORIENTED_EDGE('',*,*,#1149,.T.);
#1180=EDGE_LOOP('',(#1178,#1179));
#1181=FACE_BOUND('',#1180,.T.);
#1182=ORIENTED_EDGE('',*,*,#1167,.F.);
#1183=ORIENTED_EDGE('',*,*,#841,.F.);
#1184=EDGE_LOOP('',(#1182,#1183));
#1185=FACE_BOUND('',#1184,.T.);
#1186=ADVANCED_FACE('',(#1181,#1185),#1177,.F.);
#1187=CARTESIAN_POINT('',(4.538795761,-6.244838222,12.398722159));
#1188=DIRECTION('',(0.,0.499267005,0.866448185));
#1189=DIRECTION('',(0.,-0.866448185,0.499267005));
#1190=AXIS2_PLACEMENT_3D('',#1187,#1188,#1189);
#1191=PLANE('',#1190);
#1192=ORIENTED_EDGE('',*,*,#917,.T.);
#1193=CARTESIAN_POINT('',(4.538795761,-3.393446892,10.755686102));
#1194=VERTEX_POINT('',#1193);
#1195=CARTESIAN_POINT('',(4.538795761,-3.393446892,10.755686102));
#1196=DIRECTION('',(1.,-0.,0.));
#1197=VECTOR('',#1196,1.583664381);
#1198=LINE('',#1195,#1197);
#1199=EDGE_CURVE('',#1194,#902,#1198,.T.);
#1200=ORIENTED_EDGE('',*,*,#1199,.F.);
#1201=CARTESIAN_POINT('',(4.538795761,-3.393446892,10.755686102));
#1202=DIRECTION('',(0.,-0.866448185,0.499267005));
#1203=VECTOR('',#1202,2.234011915);
#1204=LINE('',#1201,#1203);
#1205=EDGE_CURVE('',#1194,#911,#1204,.T.);
#1206=ORIENTED_EDGE('',*,*,#1205,.T.);
#1207=EDGE_LOOP('',(#1192,#1200,#1206));
#1208=FACE_BOUND('',#1207,.T.);
#1209=ADVANCED_FACE('',(#1208),#1191,.T.);
#1210=CARTESIAN_POINT('',(4.538795761,-3.399016292,17.337476814));
#1211=DIRECTION('',(0.,0.500732637,-0.865602002));
#1212=DIRECTION('',(-0.,0.865602002,0.500732637));
#1213=AXIS2_PLACEMENT_3D('',#1210,#1211,#1212);
#1214=PLANE('',#1213);
#1215=ORIENTED_EDGE('',*,*,#932,.T.);
#1216=CARTESIAN_POINT('',(4.538795761,-3.399016292,17.337476814));
#1217=VERTEX_POINT('',#1216);
#1218=CARTESIAN_POINT('',(4.538795761,-5.329102461,16.220962372));
#1219=DIRECTION('',(0.,0.865602002,0.500732637));
#1220=VECTOR('',#1219,2.229761673);
#1221=LINE('',#1218,#1220);
#1222=EDGE_CURVE('',#920,#1217,#1221,.T.);
#1223=ORIENTED_EDGE('',*,*,#1222,.T.);
#1224=CARTESIAN_POINT('',(4.538795761,-3.399016292,17.337476814));
#1225=DIRECTION('',(1.,-0.,0.));
#1226=VECTOR('',#1225,1.580574161);
#1227=LINE('',#1224,#1226);
#1228=EDGE_CURVE('',#1217,#884,#1227,.T.);
#1229=ORIENTED_EDGE('',*,*,#1228,.T.);
#1230=EDGE_LOOP('',(#1215,#1223,#1229));
#1231=FACE_BOUND('',#1230,.T.);
#1232=ADVANCED_FACE('',(#1231),#1214,.T.);
#1233=CARTESIAN_POINT('',(4.538795761,-0.547624963,15.694440757));
#1234=DIRECTION('',(-0.,-0.499267005,-0.866448185));
#1235=DIRECTION('',(0.,0.866448185,-0.499267005));
#1236=AXIS2_PLACEMENT_3D('',#1233,#1234,#1235);
#1237=PLANE('',#1236);
#1238=ORIENTED_EDGE('',*,*,#890,.T.);
#1239=ORIENTED_EDGE('',*,*,#1228,.F.);
#1240=CARTESIAN_POINT('',(4.538795761,-0.547624963,15.694440757));
#1241=VERTEX_POINT('',#1240);
#1242=CARTESIAN_POINT('',(4.538795761,-3.399016292,17.337476814));
#1243=DIRECTION('',(0.,0.866448185,-0.499267005));
#1244=VECTOR('',#1243,3.290896534);
#1245=LINE('',#1242,#1244);
#1246=EDGE_CURVE('',#1217,#1241,#1245,.T.);
#1247=ORIENTED_EDGE('',*,*,#1246,.T.);
#1248=CARTESIAN_POINT('',(4.538795761,-0.547624963,15.694440757));
#1249=DIRECTION('',(1.,-0.,0.));
#1250=VECTOR('',#1249,2.439750427);
#1251=LINE('',#1248,#1250);
#1252=EDGE_CURVE('',#1241,#882,#1251,.T.);
#1253=ORIENTED_EDGE('',*,*,#1252,.T.);
#1254=EDGE_LOOP('',(#1238,#1239,#1247,#1253));
#1255=FACE_BOUND('',#1254,.T.);
#1256=ADVANCED_FACE('',(#1255),#1237,.T.);
#1257=CARTESIAN_POINT('',(4.538795761,-3.393446892,10.755686102));
#1258=DIRECTION('',(-0.,-0.500732637,0.865602002));
#1259=DIRECTION('',(0.,-0.865602002,-0.500732637));
#1260=AXIS2_PLACEMENT_3D('',#1257,#1258,#1259);
#1261=PLANE('',#1260);
#1262=ORIENTED_EDGE('',*,*,#908,.T.);
#1263=CARTESIAN_POINT('',(4.538795761,-0.544840262,12.403545401));
#1264=VERTEX_POINT('',#1263);
#1265=CARTESIAN_POINT('',(4.538795761,-0.544840262,12.403545401));
#1266=DIRECTION('',(1.,-0.,0.));
#1267=VECTOR('',#1266,2.439968391);
#1268=LINE('',#1265,#1267);
#1269=EDGE_CURVE('',#1264,#893,#1268,.T.);
#1270=ORIENTED_EDGE('',*,*,#1269,.F.);
#1271=CARTESIAN_POINT('',(4.538795761,-0.544840262,12.403545401));
#1272=DIRECTION('',(0.,-0.865602002,-0.500732637));
#1273=VECTOR('',#1272,3.290896534);
#1274=LINE('',#1271,#1273);
#1275=EDGE_CURVE('',#1264,#1194,#1274,.T.);
#1276=ORIENTED_EDGE('',*,*,#1275,.T.);
#1277=ORIENTED_EDGE('',*,*,#1199,.T.);
#1278=EDGE_LOOP('',(#1262,#1270,#1276,#1277));
#1279=FACE_BOUND('',#1278,.T.);
#1280=ADVANCED_FACE('',(#1279),#1261,.T.);
#1281=CARTESIAN_POINT('',(4.538795761,-3.396892258,14.827341701));
#1282=DIRECTION('',(-1.,-0.,0.));
#1283=DIRECTION('',(0.,0.,1.));
#1284=AXIS2_PLACEMENT_3D('',#1281,#1282,#1283);
#1285=PLANE('',#1284);
#1286=ORIENTED_EDGE('',*,*,#1107,.F.);
#1287=ORIENTED_EDGE('',*,*,#1114,.F.);
#1288=EDGE_LOOP('',(#1286,#1287));
#1289=FACE_BOUND('',#1288,.T.);
#1290=ORIENTED_EDGE('',*,*,#1205,.F.);
#1291=ORIENTED_EDGE('',*,*,#1275,.F.);
#1292=CARTESIAN_POINT('',(4.538795761,-0.547624963,15.694440757));
#1293=DIRECTION('',(0.,0.000846183,-0.999999642));
#1294=VECTOR('',#1293,3.290896534);
#1295=LINE('',#1292,#1294);
#1296=EDGE_CURVE('',#1241,#1264,#1295,.T.);
#1297=ORIENTED_EDGE('',*,*,#1296,.F.);
#1298=ORIENTED_EDGE('',*,*,#1246,.F.);
#1299=ORIENTED_EDGE('',*,*,#1222,.F.);
#1300=ORIENTED_EDGE('',*,*,#925,.F.);
#1301=EDGE_LOOP('',(#1290,#1291,#1297,#1298,#1299,#1300));
#1302=FACE_BOUND('',#1301,.T.);
#1303=ADVANCED_FACE('',(#1289,#1302),#1285,.F.);
#1304=CARTESIAN_POINT('',(4.538795761,-0.544840262,12.403545401));
#1305=DIRECTION('',(-0.,-0.999999642,-0.000846183));
#1306=DIRECTION('',(0.,0.000846183,-0.999999642));
#1307=AXIS2_PLACEMENT_3D('',#1304,#1305,#1306);
#1308=PLANE('',#1307);
#1309=ORIENTED_EDGE('',*,*,#1269,.T.);
#1310=ORIENTED_EDGE('',*,*,#899,.F.);
#1311=ORIENTED_EDGE('',*,*,#1252,.F.);
#1312=ORIENTED_EDGE('',*,*,#1296,.T.);
#1313=EDGE_LOOP('',(#1309,#1310,#1311,#1312));
#1314=FACE_BOUND('',#1313,.T.);
#1315=ADVANCED_FACE('',(#1314),#1308,.T.);
#1316=CLOSED_SHELL('',(#936,#968,#1012,#1056,#1074,#1086,#1121,#1156,#1172,#1186,#1209,#1232,#1256,#1280,#1303,#1315));
#1317=MANIFOLD_SOLID_BREP('Extruded.002',#1316);
#742=STYLED_ITEM('',(),#1317);
#1318=CARTESIAN_POINT('',(0.,0.,8.5));
#1319=DIRECTION('',(0.,0.,1.));
#1320=DIRECTION('',(0.971735412,-0.236072635,0.));
#1321=AXIS2_PLACEMENT_3D('',#1318,#1319,#1320);
#1322=CIRCLE('',#1321,7.);
#1323=TRIMMED_CURVE('Circle.001',#1322,(PARAMETER_VALUE(0.)),(PARAMETER_VALUE(360.)),.T.,.PARAMETER.);
#1324=CARTESIAN_POINT('',(0.,0.,18.5));
#1325=DIRECTION('',(0.,0.,1.));
#1326=DIRECTION('',(0.740932614,-0.671579379,0.));
#1327=AXIS2_PLACEMENT_3D('',#1324,#1325,#1326);
#1328=CIRCLE('',#1327,1.05);
#1329=TRIMMED_CURVE('Circle.002',#1328,(PARAMETER_VALUE(0.)),(PARAMETER_VALUE(360.)),.T.,.PARAMETER.);
#1331=CARTESIAN_POINT('',(0.,0.,8.5));
#1332=DIRECTION('',(0.,-0.,-1.));
#1333=DIRECTION('',(0.,1.,-0.));
#1334=AXIS2_PLACEMENT_3D('',#1331,#1332,#1333);
#1335=CYLINDRICAL_SURFACE('',#1334,15.);
#1336=CARTESIAN_POINT('',(0.,15.,-8.5));
#1337=VERTEX_POINT('',#1336);
#1338=CARTESIAN_POINT('',(0.,15.,-6.324555231));
#1339=VERTEX_POINT('',#1338);
#1340=CARTESIAN_POINT('',(0.,15.,-8.5));
#1341=DIRECTION('',(-0.,0.,1.));
#1342=VECTOR('',#1341,2.175444769);
#1343=LINE('',#1340,#1342);
#1344=EDGE_CURVE('',#1337,#1339,#1343,.T.);
#1345=ORIENTED_EDGE('',*,*,#1344,.T.);
#1346=CARTESIAN_POINT('',(-15.,0.,-6.324555231));
#1347=VERTEX_POINT('',#1346);
#1348=CARTESIAN_POINT('',(0.,0.,-6.324555231));
#1349=DIRECTION('',(-0.,-0.,-1.));
#1350=DIRECTION('',(1.,0.,-0.));
#1351=AXIS2_PLACEMENT_3D('',#1348,#1349,#1350);
#1352=CIRCLE('',#1351,15.);
#1353=EDGE_CURVE('',#1339,#1347,#1352,.T.);
#1354=ORIENTED_EDGE('',*,*,#1353,.T.);
#1355=CARTESIAN_POINT('',(0.,0.,-6.324555231));
#1356=DIRECTION('',(-0.,-0.,-1.));
#1357=DIRECTION('',(1.,0.,-0.));
#1358=AXIS2_PLACEMENT_3D('',#1355,#1356,#1357);
#1359=CIRCLE('',#1358,15.);
#1360=EDGE_CURVE('',#1347,#1339,#1359,.T.);
#1361=ORIENTED_EDGE('',*,*,#1360,.T.);
#1362=ORIENTED_EDGE('',*,*,#1344,.F.);
#1363=CARTESIAN_POINT('',(12.473394537,8.331532195,-8.5));
#1364=VERTEX_POINT('',#1363);
#1365=CARTESIAN_POINT('',(0.,-0.,-8.5));
#1366=DIRECTION('',(0.,-0.,1.));
#1367=DIRECTION('',(0.831559636,0.55543548,0.));
#1368=AXIS2_PLACEMENT_3D('',#1365,#1366,#1367);
#1369=CIRCLE('',#1368,15.);
#1370=EDGE_CURVE('',#1337,#1364,#1369,.T.);
#1371=ORIENTED_EDGE('',*,*,#1370,.T.);
#1372=CARTESIAN_POINT('',(0.,-0.,-8.5));
#1373=DIRECTION('',(0.,-0.,1.));
#1374=DIRECTION('',(0.831559636,0.55543548,0.));
#1375=AXIS2_PLACEMENT_3D('',#1372,#1373,#1374);
#1376=CIRCLE('',#1375,15.);
#1377=EDGE_CURVE('',#1364,#1337,#1376,.T.);
#1378=ORIENTED_EDGE('',*,*,#1377,.T.);
#1379=EDGE_LOOP('',(#1345,#1354,#1361,#1362,#1371,#1378));
#1380=FACE_BOUND('',#1379,.T.);
#1381=ADVANCED_FACE('',(#1380),#1335,.T.);
#1382=CARTESIAN_POINT('',(0.,-0.,-8.5));
#1383=DIRECTION('',(0.,0.,1.));
#1384=DIRECTION('',(1.,0.,0.));
#1385=AXIS2_PLACEMENT_3D('',#1382,#1383,#1384);
#1386=PLANE('',#1385);
#1387=ORIENTED_EDGE('',*,*,#1370,.F.);
#1388=ORIENTED_EDGE('',*,*,#1377,.F.);
#1389=EDGE_LOOP('',(#1387,#1388));
#1390=FACE_BOUND('',#1389,.T.);
#1391=ADVANCED_FACE('',(#1390),#1386,.F.);
#1392=CARTESIAN_POINT('',(-15.,0.,-6.324555231));
#1393=CARTESIAN_POINT('',(-15.,-30.000000001,-6.324555231));
#1394=CARTESIAN_POINT('',(15.,-30.000000001,-6.324555231));
#1395=CARTESIAN_POINT('',(15.,-0.,-6.324555231));
#1396=CARTESIAN_POINT('',(15.,30.000000001,-6.324555231));
#1397=CARTESIAN_POINT('',(-15.,30.000000001,-6.324555231));
#1398=CARTESIAN_POINT('',(-15.,0.,-6.324555231));
#1399=CARTESIAN_POINT('',(-14.986721443,0.,-6.321405944));
#1400=CARTESIAN_POINT('',(-14.986721443,-29.973442886,-6.321405944));
#1401=CARTESIAN_POINT('',(14.986721443,-29.973442886,-6.321405944));
#1402=CARTESIAN_POINT('',(14.986721443,-0.,-6.321405944));
#1403=CARTESIAN_POINT('',(14.986721443,29.973442886,-6.321405944));
#1404=CARTESIAN_POINT('',(-14.986721443,29.973442886,-6.321405944));
#1405=CARTESIAN_POINT('',(-14.986721443,0.,-6.321405944));
#1406=CARTESIAN_POINT('',(-14.973466714,0.,-6.318218138));
#1407=CARTESIAN_POINT('',(-14.973466714,-29.946933428,-6.318218138));
#1408=CARTESIAN_POINT('',(14.973466714,-29.946933428,-6.318218138));
#1409=CARTESIAN_POINT('',(14.973466714,-0.,-6.318218138));
#1410=CARTESIAN_POINT('',(14.973466714,29.946933428,-6.318218138));
#1411=CARTESIAN_POINT('',(-14.973466714,29.946933428,-6.318218138));
#1412=CARTESIAN_POINT('',(-14.973466714,0.,-6.318218138));
#1413=CARTESIAN_POINT('',(-14.960235926,0.,-6.314992117));
#1414=CARTESIAN_POINT('',(-14.960235926,-29.920471851,-6.314992117));
#1415=CARTESIAN_POINT('',(14.960235926,-29.920471851,-6.314992117));
#1416=CARTESIAN_POINT('',(14.960235926,-0.,-6.314992117));
#1417=CARTESIAN_POINT('',(14.960235926,29.920471851,-6.314992117));
#1418=CARTESIAN_POINT('',(-14.960235926,29.920471851,-6.314992117));
#1419=CARTESIAN_POINT('',(-14.960235926,0.,-6.314992117));
#1420=CARTESIAN_POINT('',(-7.623573203,0.,-4.526116971));
#1421=CARTESIAN_POINT('',(-7.623573203,-15.247146406,-4.526116971));
#1422=CARTESIAN_POINT('',(7.623573203,-15.247146406,-4.526116971));
#1423=CARTESIAN_POINT('',(7.623573203,-0.,-4.526116971));
#1424=CARTESIAN_POINT('',(7.623573203,15.247146406,-4.526116971));
#1425=CARTESIAN_POINT('',(-7.623573203,15.247146406,-4.526116971));
#1426=CARTESIAN_POINT('',(-7.623573203,0.,-4.526116971));
#1427=CARTESIAN_POINT('',(-5.516108776,-0.,4.075252334));
#1428=CARTESIAN_POINT('',(-5.516108776,-11.032217552,4.075252334));
#1429=CARTESIAN_POINT('',(5.516108776,-11.032217552,4.075252334));
#1430=CARTESIAN_POINT('',(5.516108776,0.,4.075252334));
#1431=CARTESIAN_POINT('',(5.516108776,11.032217552,4.075252334));
#1432=CARTESIAN_POINT('',(-5.516108776,11.032217552,4.075252334));
#1433=CARTESIAN_POINT('',(-5.516108776,-0.,4.075252334));
#1434=CARTESIAN_POINT('',(-15.,-0.,6.324555231));
#1435=CARTESIAN_POINT('',(-15.,-30.,6.324555231));
#1436=CARTESIAN_POINT('',(15.,-30.,6.324555231));
#1437=CARTESIAN_POINT('',(15.,0.,6.324555231));
#1438=CARTESIAN_POINT('',(15.,30.,6.324555231));
#1439=CARTESIAN_POINT('',(-15.,30.,6.324555231));
#1440=CARTESIAN_POINT('',(-15.,-0.,6.324555231));
#1441=(BOUNDED_SURFACE()
B_SPLINE_SURFACE(3,3,((#1392,#1393,#1394,#1395,#1396,#1397,#1398),(#1399,#1400,#1401,#1402,#1403,#1404,#1405),(#1406,#1407,#1408,#1409,#1410,#1411,#1412),(#1413,#1414,#1415,#1416,#1417,#1418,#1419),(#1420,#1421,#1422,#1423,#1424,#1425,#1426),(#1427,#1428,#1429,#1430,#1431,#1432,#1433),(#1434,#1435,#1436,#1437,#1438,#1439,#1440)),.UNSPECIFIED.,.F.,.T.,.U.)
B_SPLINE_SURFACE_WITH_KNOTS((4,3,4),(4,3,4),(0.498431931,0.5,0.903064471),(0.,0.5,1.),.UNSPECIFIED.)
GEOMETRIC_REPRESENTATION_ITEM()
RATIONAL_B_SPLINE_SURFACE(((0.993747394,0.331249131,0.331249131,0.993747394,0.331249131,0.331249131,0.993747394),(0.995825039,0.33194168,0.33194168,0.995825039,0.33194168,0.33194168,0.995825039),(0.997909241,0.332636414,0.332636414,0.997909241,0.332636414,0.332636414,0.997909241),(1.,0.333333333,0.333333333,1.,0.333333333,0.333333333,1.),(0.462580705,0.154193568,0.154193568,0.462580705,0.154193568,0.154193568,0.462580705),(0.358390658,0.119463553,0.119463553,0.358390658,0.119463553,0.119463553,0.358390658),(0.687429859,0.229143286,0.229143286,0.687429859,0.229143286,0.229143286,0.687429859)))
REPRESENTATION_ITEM('')
SURFACE()
);
#1442=CARTESIAN_POINT('',(-15.,-0.,6.324555231));
#1443=VERTEX_POINT('',#1442);
#1444=CARTESIAN_POINT('',(-16.500000376,0.,0.));
#1445=DIRECTION('',(-0.,-1.,-0.));
#1446=DIRECTION('',(-0.236886839,-0.,0.971537249));
#1447=AXIS2_PLACEMENT_3D('',#1444,#1445,#1446);
#1448=CIRCLE('',#1447,6.5);
#1449=EDGE_CURVE('',#1347,#1443,#1448,.T.);
#1450=ORIENTED_EDGE('',*,*,#1449,.T.);
#1451=CARTESIAN_POINT('',(0.,15.,6.324555231));
#1452=VERTEX_POINT('',#1451);
#1453=CARTESIAN_POINT('',(0.,0.,6.324555231));
#1454=DIRECTION('',(0.,0.,1.));
#1455=DIRECTION('',(1.,0.,-0.));
#1456=AXIS2_PLACEMENT_3D('',#1453,#1454,#1455);
#1457=CIRCLE('',#1456,15.);
#1458=EDGE_CURVE('',#1452,#1443,#1457,.T.);
#1459=ORIENTED_EDGE('',*,*,#1458,.F.);
#1460=CARTESIAN_POINT('',(0.,0.,6.324555231));
#1461=DIRECTION('',(0.,0.,1.));
#1462=DIRECTION('',(1.,0.,-0.));
#1463=AXIS2_PLACEMENT_3D('',#1460,#1461,#1462);
#1464=CIRCLE('',#1463,15.);
#1465=EDGE_CURVE('',#1443,#1452,#1464,.T.);
#1466=ORIENTED_EDGE('',*,*,#1465,.F.);
#1467=ORIENTED_EDGE('',*,*,#1449,.F.);
#1468=ORIENTED_EDGE('',*,*,#1353,.F.);
#1469=ORIENTED_EDGE('',*,*,#1360,.F.);
#1470=EDGE_LOOP('',(#1450,#1459,#1466,#1467,#1468,#1469));
#1471=FACE_BOUND('',#1470,.T.);
#1472=ADVANCED_FACE('',(#1471),#1441,.F.);
#1473=CARTESIAN_POINT('',(0.,0.,8.5));
#1474=DIRECTION('',(0.,0.,1.));
#1475=DIRECTION('',(1.,0.,0.));
#1476=AXIS2_PLACEMENT_3D('',#1473,#1474,#1475);
#1477=PLANE('',#1476);
#1478=CARTESIAN_POINT('',(12.473394537,8.331532195,8.5));
#1479=VERTEX_POINT('',#1478);
#1480=CARTESIAN_POINT('',(0.,15.,8.5));
#1481=VERTEX_POINT('',#1480);
#1482=CARTESIAN_POINT('',(0.,0.,8.5));
#1483=DIRECTION('',(0.,-0.,1.));
#1484=DIRECTION('',(0.831559636,0.55543548,0.));
#1485=AXIS2_PLACEMENT_3D('',#1482,#1483,#1484);
#1486=CIRCLE('',#1485,15.);
#1487=EDGE_CURVE('',#1479,#1481,#1486,.T.);
#1488=ORIENTED_EDGE('',*,*,#1487,.T.);
#1489=CARTESIAN_POINT('',(0.,0.,8.5));
#1490=DIRECTION('',(0.,-0.,1.));
#1491=DIRECTION('',(0.831559636,0.55543548,0.));
#1492=AXIS2_PLACEMENT_3D('',#1489,#1490,#1491);
#1493=CIRCLE('',#1492,15.);
#1494=EDGE_CURVE('',#1481,#1479,#1493,.T.);
#1495=ORIENTED_EDGE('',*,*,#1494,.T.);
#1496=EDGE_LOOP('',(#1488,#1495));
#1497=FACE_BOUND('',#1496,.T.);
#1498=ADVANCED_FACE('',(#1497),#1477,.T.);
#1499=CARTESIAN_POINT('',(0.,0.,8.5));
#1500=DIRECTION('',(0.,-0.,-1.));
#1501=DIRECTION('',(0.,1.,-0.));
#1502=AXIS2_PLACEMENT_3D('',#1499,#1500,#1501);
#1503=CYLINDRICAL_SURFACE('',#1502,15.);
#1504=CARTESIAN_POINT('',(0.,15.,6.324555231));
#1505=DIRECTION('',(-0.,0.,1.));
#1506=VECTOR('',#1505,2.175444769);
#1507=LINE('',#1504,#1506);
#1508=EDGE_CURVE('',#1452,#1481,#1507,.T.);
#1509=ORIENTED_EDGE('',*,*,#1508,.T.);
#1510=ORIENTED_EDGE('',*,*,#1487,.F.);
#1511=ORIENTED_EDGE('',*,*,#1494,.F.);
#1512=ORIENTED_EDGE('',*,*,#1508,.F.);
#1513=ORIENTED_EDGE('',*,*,#1458,.T.);
#1514=ORIENTED_EDGE('',*,*,#1465,.T.);
#1515=EDGE_LOOP('',(#1509,#1510,#1511,#1512,#1513,#1514));
#1516=FACE_BOUND('',#1515,.T.);
#1517=ADVANCED_FACE('',(#1516),#1503,.T.);
#1518=CLOSED_SHELL('',(#1381,#1391,#1472,#1498,#1517));
#1519=MANIFOLD_SOLID_BREP('Extruded.001',#1518);
#1330=STYLED_ITEM('',(),#1519);
#1520=CARTESIAN_POINT('',(0.,0.,0.));
#1521=DIRECTION('',(0.,0.,1.));
#1522=VECTOR('',#1521,938.403150216);
#1523=LINE('',#1520,#1522);
#1524=TRIMMED_CURVE('Line.001',#1523,(PARAMETER_VALUE(0.)),(PARAMETER_VALUE(1.)),.T.,.PARAMETER.);
#1525=GEOMETRIC_CURVE_SET('',(#30,#35,#40,#46,#83,#89,#95,#142,#147,#1323,#1329,#1524));
#16=SHAPE_REPRESENTATION('root',(#15),#10);
#17=ADVANCED_BREP_SHAPE_REPRESENTATION('root',(#720,#1317,#1519),#10);
#1533=SHAPE_REPRESENTATION_RELATIONSHIP('','',#16,#17);
#18=GEOMETRICALLY_BOUNDED_WIREFRAME_SHAPE_REPRESENTATION('root',(#77,#126,#137,#741,#1525),#10);
#1541=SHAPE_REPRESENTATION_RELATIONSHIP('','',#16,#18);
#1542=APPLICATION_CONTEXT('configuration controlled 3D design of mechanical parts and assemblies');
#1543=APPLICATION_PROTOCOL_DEFINITION('international standard','configuration_control_3d_design_ed2_mim',2004,#1542);
#1544=PRODUCT_CONTEXT('',#1542,'mechanical');
#1545=PRODUCT_DEFINITION_CONTEXT('part definition',#1542,'design');
#24=PRODUCT('root','root','',(#1544));
#1546=PRODUCT_RELATED_PRODUCT_CATEGORY('part','',(#24));
#1547=PRODUCT_DEFINITION_FORMATION_WITH_SPECIFIED_SOURCE('','',#24,.NOT_KNOWN.);
#25=PRODUCT_DEFINITION('design','',#1547,#1545);
#23=PRODUCT_DEFINITION_SHAPE('','',#25);
#1548=SHAPE_DEFINITION_REPRESENTATION(#23,#16);
#11=DRAUGHTING_MODEL('',(),#10);
#1=MECHANICAL_DESIGN_GEOMETRIC_PRESENTATION_REPRESENTATION('',(#148,#742,#1330),#10);
ENDSEC;
END-ISO-10303-21;
