ISO-10303-21;
HEADER;

/* File generated by HOOPS Exchange Version 25.8.0 */

FILE_DESCRIPTION(('HOOPS Exchange Step'),'2;1');

FILE_NAME('/home/tfannes/repo/klepto/cart/stl/freewheel_holder.step',
'2026-09-12T13:17:17+02:00',
('tfannes'),
('Unknown organisation'),
'HOOPS Exchange 2025.8',
'HOOPS Exchange',
'Unknown authorisation');

FILE_SCHEMA( ('AP203_CONFIGURATION_CONTROLLED_3D_DESIGN_OF_MECHANICAL_PARTS_AND_ASSEMBLIES_MIM_LF') );

ENDSEC;

DATA;
#3=(NAMED_UNIT(*)PLANE_ANGLE_UNIT()SI_UNIT($,.RADIAN.));
#4=PLANE_ANGLE_MEASURE_WITH_UNIT(PLANE_ANGLE_MEASURE(0.0174532925),#3);
#5=(CONVERSION_BASED_UNIT('DEGREE',#4)NAMED_UNIT(#6)PLANE_ANGLE_UNIT());
#6=DIMENSIONAL_EXPONENTS(0.,0.,0.,0.,0.,0.,0.);
#7=(NAMED_UNIT(*)SI_UNIT($,.STERADIAN.)SOLID_ANGLE_UNIT());
#8=(LENGTH_UNIT()NAMED_UNIT(*)SI_UNIT(.MILLI.,.METRE.));
#9=UNCERTAINTY_MEASURE_WITH_UNIT(LENGTH_MEASURE(1.000000E-03),#8,'DISTANCE_ACCURACY_VALUE','Maximum Tolerance applied to model');
#10=(GEOMETRIC_REPRESENTATION_CONTEXT(3)GLOBAL_UNCERTAINTY_ASSIGNED_CONTEXT((#9))GLOBAL_UNIT_ASSIGNED_CONTEXT((#8,#5,#7))REPRESENTATION_CONTEXT('','root'));
#12=CARTESIAN_POINT('',(0.,0.,0.));
#13=DIRECTION('',(0.,0.,1.));
#14=DIRECTION('',(1.,0.,0.));
#15=AXIS2_PLACEMENT_3D('TS3D_PRODUCT_CSYS',#12,#13,#14);
#26=(NAMED_UNIT(*)PLANE_ANGLE_UNIT()SI_UNIT($,.RADIAN.));
#27=PLANE_ANGLE_MEASURE_WITH_UNIT(PLANE_ANGLE_MEASURE(0.0174532925),#26);
#28=(CONVERSION_BASED_UNIT('DEGREE',#27)NAMED_UNIT(#29)PLANE_ANGLE_UNIT());
#29=DIMENSIONAL_EXPONENTS(0.,0.,0.,0.,0.,0.,0.);
#30=(NAMED_UNIT(*)SI_UNIT($,.STERADIAN.)SOLID_ANGLE_UNIT());
#31=(LENGTH_UNIT()NAMED_UNIT(*)SI_UNIT(.MILLI.,.METRE.));
#32=UNCERTAINTY_MEASURE_WITH_UNIT(LENGTH_MEASURE(1.000000E-05),#31,'DISTANCE_ACCURACY_VALUE','Maximum Tolerance applied to model');
#33=(GEOMETRIC_REPRESENTATION_CONTEXT(3)GLOBAL_UNCERTAINTY_ASSIGNED_CONTEXT((#32))GLOBAL_UNIT_ASSIGNED_CONTEXT((#31,#28,#30))REPRESENTATION_CONTEXT('','0'));
#45=CARTESIAN_POINT('',(0.,0.,0.));
#46=DIRECTION('',(0.,0.,1.));
#47=DIRECTION('',(1.,0.,-0.));
#48=AXIS2_PLACEMENT_3D('',#45,#46,#47);
#49=ITEM_DEFINED_TRANSFORMATION('','',#48,#15);
#50=(REPRESENTATION_RELATIONSHIP('','',#35,#16)REPRESENTATION_RELATIONSHIP_WITH_TRANSFORMATION(#49)SHAPE_REPRESENTATION_RELATIONSHIP());
#51=NEXT_ASSEMBLY_USAGE_OCCURRENCE('Base_1','Base','Base',#25,#44,$);
#52=PRODUCT_DEFINITION_SHAPE('','',#51);
#53=CONTEXT_DEPENDENT_SHAPE_REPRESENTATION(#50,#52);
#55=CARTESIAN_POINT('',(2.5,-8.95,-13.));
#56=CARTESIAN_POINT('',(2.5,8.95,-13.));
#57=CARTESIAN_POINT('',(2.5,-8.95,-2.));
#58=CARTESIAN_POINT('',(2.5,8.95,-2.));
#59=B_SPLINE_SURFACE_WITH_KNOTS('',1,1,((#55,#56),(#57,#58)),.UNSPECIFIED.,.F.,.F.,.U.,(2,2),(2,2),(-0.011,0.),(0.03155,0.04945),.UNSPECIFIED.);
#60=CARTESIAN_POINT('',(2.5,1.75,-6.5));
#61=VERTEX_POINT('',#60);
#62=CARTESIAN_POINT('',(2.5,-0.,-4.75));
#63=VERTEX_POINT('',#62);
#64=CARTESIAN_POINT('',(2.5,-0.,-4.75));
#65=CARTESIAN_POINT('',(2.5,1.75,-4.75));
#66=CARTESIAN_POINT('',(2.5,1.75,-6.5));
#67=CARTESIAN_POINT('',(2.5,1.75,-8.25));
#68=CARTESIAN_POINT('',(2.5,-0.,-8.25));
#69=CARTESIAN_POINT('',(2.5,-1.75,-8.25));
#70=CARTESIAN_POINT('',(2.5,-1.75,-6.5));
#71=CARTESIAN_POINT('',(2.5,-1.75,-4.75));
#72=CARTESIAN_POINT('',(2.5,-0.,-4.75));
#73=(BOUNDED_CURVE()
B_SPLINE_CURVE(2,(#64,#65,#66,#67,#68,#69,#70,#71,#72),.UNSPECIFIED.,.T.,.F.)
B_SPLINE_CURVE_WITH_KNOTS((3,2,2,2,3),(0.,1.570796327,3.141592654,4.71238898,6.283185307),.UNSPECIFIED.)
CURVE()
GEOMETRIC_REPRESENTATION_ITEM()
RATIONAL_B_SPLINE_CURVE((1.,0.707106781,1.,0.707106781,1.,0.707106781,1.,0.707106781,1.))
REPRESENTATION_ITEM(''));
#74=EDGE_CURVE('',#61,#63,#73,.T.);
#75=ORIENTED_EDGE('',*,*,#74,.F.);
#76=CARTESIAN_POINT('',(2.5,-0.,-4.75));
#77=CARTESIAN_POINT('',(2.5,1.75,-4.75));
#78=CARTESIAN_POINT('',(2.5,1.75,-6.5));
#79=CARTESIAN_POINT('',(2.5,1.75,-8.25));
#80=CARTESIAN_POINT('',(2.5,-0.,-8.25));
#81=CARTESIAN_POINT('',(2.5,-1.75,-8.25));
#82=CARTESIAN_POINT('',(2.5,-1.75,-6.5));
#83=CARTESIAN_POINT('',(2.5,-1.75,-4.75));
#84=CARTESIAN_POINT('',(2.5,-0.,-4.75));
#85=(BOUNDED_CURVE()
B_SPLINE_CURVE(2,(#76,#77,#78,#79,#80,#81,#82,#83,#84),.UNSPECIFIED.,.T.,.F.)
B_SPLINE_CURVE_WITH_KNOTS((3,2,2,2,3),(0.,1.570796327,3.141592654,4.71238898,6.283185307),.UNSPECIFIED.)
CURVE()
GEOMETRIC_REPRESENTATION_ITEM()
RATIONAL_B_SPLINE_CURVE((1.,0.707106781,1.,0.707106781,1.,0.707106781,1.,0.707106781,1.))
REPRESENTATION_ITEM(''));
#86=EDGE_CURVE('',#63,#61,#85,.T.);
#87=ORIENTED_EDGE('',*,*,#86,.F.);
#88=EDGE_LOOP('',(#75,#87));
#89=FACE_BOUND('',#88,.T.);
#90=CARTESIAN_POINT('',(2.5,-8.95,-2.));
#91=VERTEX_POINT('',#90);
#92=CARTESIAN_POINT('',(2.5,8.95,-2.));
#93=VERTEX_POINT('',#92);
#94=CARTESIAN_POINT('',(2.5,-8.95,-2.));
#95=CARTESIAN_POINT('',(2.5,8.95,-2.));
#96=B_SPLINE_CURVE_WITH_KNOTS('',1,(#94,#95),.UNSPECIFIED.,.F.,.F.,(2,2),(-0.0279,-0.01),.UNSPECIFIED.);
#97=EDGE_CURVE('',#91,#93,#96,.T.);
#98=ORIENTED_EDGE('',*,*,#97,.T.);
#99=CARTESIAN_POINT('',(2.5,8.95,-13.));
#100=VERTEX_POINT('',#99);
#101=CARTESIAN_POINT('',(2.5,8.95,-2.));
#102=CARTESIAN_POINT('',(2.5,8.95,-13.));
#103=B_SPLINE_CURVE_WITH_KNOTS('',1,(#101,#102),.UNSPECIFIED.,.F.,.F.,(2,2),(0.043986919,0.054986919),.UNSPECIFIED.);
#104=EDGE_CURVE('',#93,#100,#103,.T.);
#105=ORIENTED_EDGE('',*,*,#104,.T.);
#106=CARTESIAN_POINT('',(2.5,-8.95,-13.));
#107=VERTEX_POINT('',#106);
#108=CARTESIAN_POINT('',(2.5,-8.95,-13.));
#109=CARTESIAN_POINT('',(2.5,8.95,-13.));
#110=B_SPLINE_CURVE_WITH_KNOTS('',1,(#108,#109),.UNSPECIFIED.,.F.,.F.,(2,2),(-0.0279,-0.01),.UNSPECIFIED.);
#111=EDGE_CURVE('',#107,#100,#110,.T.);
#112=ORIENTED_EDGE('',*,*,#111,.F.);
#113=CARTESIAN_POINT('',(2.5,-8.95,-2.));
#114=CARTESIAN_POINT('',(2.5,-8.95,-13.));
#115=B_SPLINE_CURVE_WITH_KNOTS('',1,(#113,#114),.UNSPECIFIED.,.F.,.F.,(2,2),(0.043986919,0.054986919),.UNSPECIFIED.);
#116=EDGE_CURVE('',#91,#107,#115,.T.);
#117=ORIENTED_EDGE('',*,*,#116,.F.);
#118=EDGE_LOOP('',(#98,#105,#112,#117));
#119=FACE_BOUND('',#118,.T.);
#120=ADVANCED_FACE('',(#89,#119),#59,.T.);
#121=CARTESIAN_POINT('',(2.5,-36.95,-13.));
#122=CARTESIAN_POINT('',(2.5,-28.95,-13.));
#123=CARTESIAN_POINT('',(2.5,-36.95,-2.));
#124=CARTESIAN_POINT('',(2.5,-28.95,-2.));
#125=B_SPLINE_SURFACE_WITH_KNOTS('',1,1,((#121,#122),(#123,#124)),.UNSPECIFIED.,.F.,.F.,.U.,(2,2),(2,2),(-0.011,0.),(0.00355,0.01155),.UNSPECIFIED.);
#126=CARTESIAN_POINT('',(2.5,-31.587143951,-5.402218879));
#127=VERTEX_POINT('',#126);
#128=CARTESIAN_POINT('',(2.5,-34.7,-6.5));
#129=VERTEX_POINT('',#128);
#130=CARTESIAN_POINT('',(2.5,-31.587143951,-5.402218879));
#131=CARTESIAN_POINT('',(2.5,-32.684925073,-4.03936283));
#132=CARTESIAN_POINT('',(2.5,-34.047781121,-5.137143951));
#133=CARTESIAN_POINT('',(2.5,-35.41063717,-6.234925073));
#134=CARTESIAN_POINT('',(2.5,-34.312856049,-7.597781121));
#135=CARTESIAN_POINT('',(2.5,-33.215074927,-8.96063717));
#136=CARTESIAN_POINT('',(2.5,-31.852218879,-7.862856049));
#137=CARTESIAN_POINT('',(2.5,-30.48936283,-6.765074927));
#138=CARTESIAN_POINT('',(2.5,-31.587143951,-5.402218879));
#139=(BOUNDED_CURVE()
B_SPLINE_CURVE(2,(#130,#131,#132,#133,#134,#135,#136,#137,#138),.UNSPECIFIED.,.T.,.F.)
B_SPLINE_CURVE_WITH_KNOTS((3,2,2,2,3),(0.,1.570796327,3.141592654,4.71238898,6.283185307),.UNSPECIFIED.)
CURVE()
GEOMETRIC_REPRESENTATION_ITEM()
RATIONAL_B_SPLINE_CURVE((1.,0.707106781,1.,0.707106781,1.,0.707106781,1.,0.707106781,1.))
REPRESENTATION_ITEM(''));
#140=EDGE_CURVE('',#127,#129,#139,.T.);
#141=ORIENTED_EDGE('',*,*,#140,.T.);
#142=CARTESIAN_POINT('',(2.5,-31.587143951,-5.402218879));
#143=CARTESIAN_POINT('',(2.5,-32.684925073,-4.03936283));
#144=CARTESIAN_POINT('',(2.5,-34.047781121,-5.137143951));
#145=CARTESIAN_POINT('',(2.5,-35.41063717,-6.234925073));
#146=CARTESIAN_POINT('',(2.5,-34.312856049,-7.597781121));
#147=CARTESIAN_POINT('',(2.5,-33.215074927,-8.96063717));
#148=CARTESIAN_POINT('',(2.5,-31.852218879,-7.862856049));
#149=CARTESIAN_POINT('',(2.5,-30.48936283,-6.765074927));
#150=CARTESIAN_POINT('',(2.5,-31.587143951,-5.402218879));
#151=(BOUNDED_CURVE()
B_SPLINE_CURVE(2,(#142,#143,#144,#145,#146,#147,#148,#149,#150),.UNSPECIFIED.,.T.,.F.)
B_SPLINE_CURVE_WITH_KNOTS((3,2,2,2,3),(0.,1.570796327,3.141592654,4.71238898,6.283185307),.UNSPECIFIED.)
CURVE()
GEOMETRIC_REPRESENTATION_ITEM()
RATIONAL_B_SPLINE_CURVE((1.,0.707106781,1.,0.707106781,1.,0.707106781,1.,0.707106781,1.))
REPRESENTATION_ITEM(''));
#152=EDGE_CURVE('',#129,#127,#151,.T.);
#153=ORIENTED_EDGE('',*,*,#152,.T.);
#154=EDGE_LOOP('',(#141,#153));
#155=FACE_BOUND('',#154,.T.);
#156=CARTESIAN_POINT('',(2.5,-36.95,-2.));
#157=VERTEX_POINT('',#156);
#158=CARTESIAN_POINT('',(2.5,-28.95,-2.));
#159=VERTEX_POINT('',#158);
#160=CARTESIAN_POINT('',(2.5,-36.95,-2.));
#161=CARTESIAN_POINT('',(2.5,-28.95,-2.));
#162=B_SPLINE_CURVE_WITH_KNOTS('',1,(#160,#161),.UNSPECIFIED.,.F.,.F.,(2,2),(-0.0559,-0.0479),.UNSPECIFIED.);
#163=EDGE_CURVE('',#157,#159,#162,.T.);
#164=ORIENTED_EDGE('',*,*,#163,.T.);
#165=CARTESIAN_POINT('',(2.5,-28.95,-13.));
#166=VERTEX_POINT('',#165);
#167=CARTESIAN_POINT('',(2.5,-28.95,-2.));
#168=CARTESIAN_POINT('',(2.5,-28.95,-13.));
#169=B_SPLINE_CURVE_WITH_KNOTS('',1,(#167,#168),.UNSPECIFIED.,.F.,.F.,(2,2),(0.043986919,0.054986919),.UNSPECIFIED.);
#170=EDGE_CURVE('',#159,#166,#169,.T.);
#171=ORIENTED_EDGE('',*,*,#170,.T.);
#172=CARTESIAN_POINT('',(2.5,-36.95,-13.));
#173=VERTEX_POINT('',#172);
#174=CARTESIAN_POINT('',(2.5,-36.95,-13.));
#175=CARTESIAN_POINT('',(2.5,-28.95,-13.));
#176=B_SPLINE_CURVE_WITH_KNOTS('',1,(#174,#175),.UNSPECIFIED.,.F.,.F.,(2,2),(-0.0559,-0.0479),.UNSPECIFIED.);
#177=EDGE_CURVE('',#173,#166,#176,.T.);
#178=ORIENTED_EDGE('',*,*,#177,.F.);
#179=CARTESIAN_POINT('',(2.5,-36.95,-2.));
#180=CARTESIAN_POINT('',(2.5,-36.95,-13.));
#181=B_SPLINE_CURVE_WITH_KNOTS('',1,(#179,#180),.UNSPECIFIED.,.F.,.F.,(2,2),(0.,0.011),.UNSPECIFIED.);
#182=EDGE_CURVE('',#157,#173,#181,.T.);
#183=ORIENTED_EDGE('',*,*,#182,.F.);
#184=EDGE_LOOP('',(#164,#171,#178,#183));
#185=FACE_BOUND('',#184,.T.);
#186=ADVANCED_FACE('',(#155,#185),#125,.T.);
#187=CARTESIAN_POINT('',(2.5,-36.95,-2.));
#188=CARTESIAN_POINT('',(20.5,-36.95,-2.));
#189=CARTESIAN_POINT('',(2.5,-36.95,-13.));
#190=CARTESIAN_POINT('',(20.5,-36.95,-13.));
#191=B_SPLINE_SURFACE_WITH_KNOTS('',1,1,((#187,#188),(#189,#190)),.UNSPECIFIED.,.F.,.F.,.U.,(2,2),(2,2),(0.,0.011),(-0.017,0.001),.UNSPECIFIED.);
#192=CARTESIAN_POINT('',(20.5,-36.95,-13.));
#193=VERTEX_POINT('',#192);
#194=CARTESIAN_POINT('',(20.5,-36.95,-13.));
#195=CARTESIAN_POINT('',(2.5,-36.95,-13.));
#196=B_SPLINE_CURVE_WITH_KNOTS('',1,(#194,#195),.UNSPECIFIED.,.F.,.F.,(2,2),(-0.011033913,0.006966087),.UNSPECIFIED.);
#197=EDGE_CURVE('',#193,#173,#196,.T.);
#198=ORIENTED_EDGE('',*,*,#197,.F.);
#199=CARTESIAN_POINT('',(20.5,-36.95,-2.));
#200=VERTEX_POINT('',#199);
#201=CARTESIAN_POINT('',(20.5,-36.95,-2.));
#202=CARTESIAN_POINT('',(20.5,-36.95,-13.));
#203=B_SPLINE_CURVE_WITH_KNOTS('',1,(#201,#202),.UNSPECIFIED.,.F.,.F.,(2,2),(0.,0.011),.UNSPECIFIED.);
#204=EDGE_CURVE('',#200,#193,#203,.T.);
#205=ORIENTED_EDGE('',*,*,#204,.F.);
#206=CARTESIAN_POINT('',(20.5,-36.95,-2.));
#207=CARTESIAN_POINT('',(2.5,-36.95,-2.));
#208=B_SPLINE_CURVE_WITH_KNOTS('',1,(#206,#207),.UNSPECIFIED.,.F.,.F.,(2,2),(-0.011033913,0.006966087),.UNSPECIFIED.);
#209=EDGE_CURVE('',#200,#157,#208,.T.);
#210=ORIENTED_EDGE('',*,*,#209,.T.);
#211=ORIENTED_EDGE('',*,*,#182,.T.);
#212=EDGE_LOOP('',(#198,#205,#210,#211));
#213=FACE_BOUND('',#212,.T.);
#214=ADVANCED_FACE('',(#213),#191,.T.);
#215=CARTESIAN_POINT('',(2.5,28.95,-13.));
#216=CARTESIAN_POINT('',(2.5,36.95,-13.));
#217=CARTESIAN_POINT('',(2.5,28.95,-2.));
#218=CARTESIAN_POINT('',(2.5,36.95,-2.));
#219=B_SPLINE_SURFACE_WITH_KNOTS('',1,1,((#215,#216),(#217,#218)),.UNSPECIFIED.,.F.,.F.,.U.,(2,2),(2,2),(-0.011,0.),(0.06945,0.07745),.UNSPECIFIED.);
#220=CARTESIAN_POINT('',(2.5,34.378453183,-5.489049208));
#221=VERTEX_POINT('',#220);
#222=CARTESIAN_POINT('',(2.5,31.2,-6.5));
#223=VERTEX_POINT('',#222);
#224=CARTESIAN_POINT('',(2.5,34.378453183,-5.489049208));
#225=CARTESIAN_POINT('',(2.5,33.367502391,-4.060596025));
#226=CARTESIAN_POINT('',(2.5,31.939049208,-5.071546817));
#227=CARTESIAN_POINT('',(2.5,30.510596025,-6.082497609));
#228=CARTESIAN_POINT('',(2.5,31.521546817,-7.510950792));
#229=CARTESIAN_POINT('',(2.5,32.532497609,-8.939403975));
#230=CARTESIAN_POINT('',(2.5,33.960950792,-7.928453183));
#231=CARTESIAN_POINT('',(2.5,35.389403975,-6.917502391));
#232=CARTESIAN_POINT('',(2.5,34.378453183,-5.489049208));
#233=(BOUNDED_CURVE()
B_SPLINE_CURVE(2,(#224,#225,#226,#227,#228,#229,#230,#231,#232),.UNSPECIFIED.,.T.,.F.)
B_SPLINE_CURVE_WITH_KNOTS((3,2,2,2,3),(0.,1.570796327,3.141592654,4.71238898,6.283185307),.UNSPECIFIED.)
CURVE()
GEOMETRIC_REPRESENTATION_ITEM()
RATIONAL_B_SPLINE_CURVE((1.,0.707106781,1.,0.707106781,1.,0.707106781,1.,0.707106781,1.))
REPRESENTATION_ITEM(''));
#234=EDGE_CURVE('',#221,#223,#233,.T.);
#235=ORIENTED_EDGE('',*,*,#234,.T.);
#236=CARTESIAN_POINT('',(2.5,34.378453183,-5.489049208));
#237=CARTESIAN_POINT('',(2.5,33.367502391,-4.060596025));
#238=CARTESIAN_POINT('',(2.5,31.939049208,-5.071546817));
#239=CARTESIAN_POINT('',(2.5,30.510596025,-6.082497609));
#240=CARTESIAN_POINT('',(2.5,31.521546817,-7.510950792));
#241=CARTESIAN_POINT('',(2.5,32.532497609,-8.939403975));
#242=CARTESIAN_POINT('',(2.5,33.960950792,-7.928453183));
#243=CARTESIAN_POINT('',(2.5,35.389403975,-6.917502391));
#244=CARTESIAN_POINT('',(2.5,34.378453183,-5.489049208));
#245=(BOUNDED_CURVE()
B_SPLINE_CURVE(2,(#236,#237,#238,#239,#240,#241,#242,#243,#244),.UNSPECIFIED.,.T.,.F.)
B_SPLINE_CURVE_WITH_KNOTS((3,2,2,2,3),(0.,1.570796327,3.141592654,4.71238898,6.283185307),.UNSPECIFIED.)
CURVE()
GEOMETRIC_REPRESENTATION_ITEM()
RATIONAL_B_SPLINE_CURVE((1.,0.707106781,1.,0.707106781,1.,0.707106781,1.,0.707106781,1.))
REPRESENTATION_ITEM(''));
#246=EDGE_CURVE('',#223,#221,#245,.T.);
#247=ORIENTED_EDGE('',*,*,#246,.T.);
#248=EDGE_LOOP('',(#235,#247));
#249=FACE_BOUND('',#248,.T.);
#250=CARTESIAN_POINT('',(2.5,28.95,-2.));
#251=VERTEX_POINT('',#250);
#252=CARTESIAN_POINT('',(2.5,28.95,-13.));
#253=VERTEX_POINT('',#252);
#254=CARTESIAN_POINT('',(2.5,28.95,-2.));
#255=CARTESIAN_POINT('',(2.5,28.95,-13.));
#256=B_SPLINE_CURVE_WITH_KNOTS('',1,(#254,#255),.UNSPECIFIED.,.F.,.F.,(2,2),(0.043986919,0.054986919),.UNSPECIFIED.);
#257=EDGE_CURVE('',#251,#253,#256,.T.);
#258=ORIENTED_EDGE('',*,*,#257,.F.);
#259=CARTESIAN_POINT('',(2.5,36.95,-2.));
#260=VERTEX_POINT('',#259);
#261=CARTESIAN_POINT('',(2.5,28.95,-2.));
#262=CARTESIAN_POINT('',(2.5,36.95,-2.));
#263=B_SPLINE_CURVE_WITH_KNOTS('',1,(#261,#262),.UNSPECIFIED.,.F.,.F.,(2,2),(0.01,0.018),.UNSPECIFIED.);
#264=EDGE_CURVE('',#251,#260,#263,.T.);
#265=ORIENTED_EDGE('',*,*,#264,.T.);
#266=CARTESIAN_POINT('',(2.5,36.95,-13.));
#267=VERTEX_POINT('',#266);
#268=CARTESIAN_POINT('',(2.5,36.95,-2.));
#269=CARTESIAN_POINT('',(2.5,36.95,-13.));
#270=B_SPLINE_CURVE_WITH_KNOTS('',1,(#268,#269),.UNSPECIFIED.,.F.,.F.,(2,2),(0.,0.011),.UNSPECIFIED.);
#271=EDGE_CURVE('',#260,#267,#270,.T.);
#272=ORIENTED_EDGE('',*,*,#271,.T.);
#273=CARTESIAN_POINT('',(2.5,28.95,-13.));
#274=CARTESIAN_POINT('',(2.5,36.95,-13.));
#275=B_SPLINE_CURVE_WITH_KNOTS('',1,(#273,#274),.UNSPECIFIED.,.F.,.F.,(2,2),(0.01,0.018),.UNSPECIFIED.);
#276=EDGE_CURVE('',#253,#267,#275,.T.);
#277=ORIENTED_EDGE('',*,*,#276,.F.);
#278=EDGE_LOOP('',(#258,#265,#272,#277));
#279=FACE_BOUND('',#278,.T.);
#280=ADVANCED_FACE('',(#249,#279),#219,.T.);
#281=CARTESIAN_POINT('',(2.5,36.95,-13.));
#282=CARTESIAN_POINT('',(20.5,36.95,-13.));
#283=CARTESIAN_POINT('',(2.5,36.95,-2.));
#284=CARTESIAN_POINT('',(20.5,36.95,-2.));
#285=B_SPLINE_SURFACE_WITH_KNOTS('',1,1,((#281,#282),(#283,#284)),.UNSPECIFIED.,.F.,.F.,.U.,(2,2),(2,2),(-0.011,0.),(0.003,0.021),.UNSPECIFIED.);
#286=CARTESIAN_POINT('',(20.5,36.95,-13.));
#287=VERTEX_POINT('',#286);
#288=CARTESIAN_POINT('',(2.5,36.95,-13.));
#289=CARTESIAN_POINT('',(20.5,36.95,-13.));
#290=B_SPLINE_CURVE_WITH_KNOTS('',1,(#288,#289),.UNSPECIFIED.,.F.,.F.,(2,2),(-0.006966087,0.011033913),.UNSPECIFIED.);
#291=EDGE_CURVE('',#267,#287,#290,.T.);
#292=ORIENTED_EDGE('',*,*,#291,.F.);
#293=ORIENTED_EDGE('',*,*,#271,.F.);
#294=CARTESIAN_POINT('',(20.5,36.95,-2.));
#295=VERTEX_POINT('',#294);
#296=CARTESIAN_POINT('',(2.5,36.95,-2.));
#297=CARTESIAN_POINT('',(20.5,36.95,-2.));
#298=B_SPLINE_CURVE_WITH_KNOTS('',1,(#296,#297),.UNSPECIFIED.,.F.,.F.,(2,2),(-0.006966087,0.011033913),.UNSPECIFIED.);
#299=EDGE_CURVE('',#260,#295,#298,.T.);
#300=ORIENTED_EDGE('',*,*,#299,.T.);
#301=CARTESIAN_POINT('',(20.5,36.95,-2.));
#302=CARTESIAN_POINT('',(20.5,36.95,-13.));
#303=B_SPLINE_CURVE_WITH_KNOTS('',1,(#301,#302),.UNSPECIFIED.,.F.,.F.,(2,2),(0.,0.011),.UNSPECIFIED.);
#304=EDGE_CURVE('',#295,#287,#303,.T.);
#305=ORIENTED_EDGE('',*,*,#304,.T.);
#306=EDGE_LOOP('',(#292,#293,#300,#305));
#307=FACE_BOUND('',#306,.T.);
#308=ADVANCED_FACE('',(#307),#285,.T.);
#309=CARTESIAN_POINT('',(20.5,-36.95,-2.));
#310=CARTESIAN_POINT('',(20.5,36.95,-2.));
#311=CARTESIAN_POINT('',(20.5,-36.95,-13.));
#312=CARTESIAN_POINT('',(20.5,36.95,-13.));
#313=B_SPLINE_SURFACE_WITH_KNOTS('',1,1,((#309,#310),(#311,#312)),.UNSPECIFIED.,.F.,.F.,.U.,(2,2),(2,2),(0.,0.011),(-0.07745,-0.00355),.UNSPECIFIED.);
#314=CARTESIAN_POINT('',(20.5,1.75,-6.5));
#315=VERTEX_POINT('',#314);
#316=CARTESIAN_POINT('',(20.5,-0.,-8.25));
#317=VERTEX_POINT('',#316);
#318=CARTESIAN_POINT('',(20.5,-0.,-8.25));
#319=CARTESIAN_POINT('',(20.5,1.75,-8.25));
#320=CARTESIAN_POINT('',(20.5,1.75,-6.5));
#321=CARTESIAN_POINT('',(20.5,1.75,-4.75));
#322=CARTESIAN_POINT('',(20.5,-0.,-4.75));
#323=CARTESIAN_POINT('',(20.5,-1.75,-4.75));
#324=CARTESIAN_POINT('',(20.5,-1.75,-6.5));
#325=CARTESIAN_POINT('',(20.5,-1.75,-8.25));
#326=CARTESIAN_POINT('',(20.5,-0.,-8.25));
#327=(BOUNDED_CURVE()
B_SPLINE_CURVE(2,(#318,#319,#320,#321,#322,#323,#324,#325,#326),.UNSPECIFIED.,.T.,.F.)
B_SPLINE_CURVE_WITH_KNOTS((3,2,2,2,3),(0.,1.570796327,3.141592654,4.71238898,6.283185307),.UNSPECIFIED.)
CURVE()
GEOMETRIC_REPRESENTATION_ITEM()
RATIONAL_B_SPLINE_CURVE((1.,0.707106781,1.,0.707106781,1.,0.707106781,1.,0.707106781,1.))
REPRESENTATION_ITEM(''));
#328=EDGE_CURVE('',#315,#317,#327,.T.);
#329=ORIENTED_EDGE('',*,*,#328,.F.);
#330=CARTESIAN_POINT('',(20.5,-0.,-8.25));
#331=CARTESIAN_POINT('',(20.5,1.75,-8.25));
#332=CARTESIAN_POINT('',(20.5,1.75,-6.5));
#333=CARTESIAN_POINT('',(20.5,1.75,-4.75));
#334=CARTESIAN_POINT('',(20.5,-0.,-4.75));
#335=CARTESIAN_POINT('',(20.5,-1.75,-4.75));
#336=CARTESIAN_POINT('',(20.5,-1.75,-6.5));
#337=CARTESIAN_POINT('',(20.5,-1.75,-8.25));
#338=CARTESIAN_POINT('',(20.5,-0.,-8.25));
#339=(BOUNDED_CURVE()
B_SPLINE_CURVE(2,(#330,#331,#332,#333,#334,#335,#336,#337,#338),.UNSPECIFIED.,.T.,.F.)
B_SPLINE_CURVE_WITH_KNOTS((3,2,2,2,3),(0.,1.570796327,3.141592654,4.71238898,6.283185307),.UNSPECIFIED.)
CURVE()
GEOMETRIC_REPRESENTATION_ITEM()
RATIONAL_B_SPLINE_CURVE((1.,0.707106781,1.,0.707106781,1.,0.707106781,1.,0.707106781,1.))
REPRESENTATION_ITEM(''));
#340=EDGE_CURVE('',#317,#315,#339,.T.);
#341=ORIENTED_EDGE('',*,*,#340,.F.);
#342=EDGE_LOOP('',(#329,#341));
#343=FACE_BOUND('',#342,.T.);
#344=CARTESIAN_POINT('',(20.5,32.95,-8.25));
#345=VERTEX_POINT('',#344);
#346=CARTESIAN_POINT('',(20.5,31.2,-6.5));
#347=VERTEX_POINT('',#346);
#348=CARTESIAN_POINT('',(20.5,32.95,-8.25));
#349=CARTESIAN_POINT('',(20.5,31.2,-8.25));
#350=CARTESIAN_POINT('',(20.5,31.2,-6.5));
#351=CARTESIAN_POINT('',(20.5,31.2,-4.75));
#352=CARTESIAN_POINT('',(20.5,32.95,-4.75));
#353=CARTESIAN_POINT('',(20.5,34.7,-4.75));
#354=CARTESIAN_POINT('',(20.5,34.7,-6.5));
#355=CARTESIAN_POINT('',(20.5,34.7,-8.25));
#356=CARTESIAN_POINT('',(20.5,32.95,-8.25));
#357=(BOUNDED_CURVE()
B_SPLINE_CURVE(2,(#348,#349,#350,#351,#352,#353,#354,#355,#356),.UNSPECIFIED.,.T.,.F.)
B_SPLINE_CURVE_WITH_KNOTS((3,2,2,2,3),(0.,1.570796327,3.141592654,4.71238898,6.283185307),.UNSPECIFIED.)
CURVE()
GEOMETRIC_REPRESENTATION_ITEM()
RATIONAL_B_SPLINE_CURVE((1.,0.707106781,1.,0.707106781,1.,0.707106781,1.,0.707106781,1.))
REPRESENTATION_ITEM(''));
#358=EDGE_CURVE('',#345,#347,#357,.T.);
#359=ORIENTED_EDGE('',*,*,#358,.T.);
#360=CARTESIAN_POINT('',(20.5,32.95,-8.25));
#361=CARTESIAN_POINT('',(20.5,31.2,-8.25));
#362=CARTESIAN_POINT('',(20.5,31.2,-6.5));
#363=CARTESIAN_POINT('',(20.5,31.2,-4.75));
#364=CARTESIAN_POINT('',(20.5,32.95,-4.75));
#365=CARTESIAN_POINT('',(20.5,34.7,-4.75));
#366=CARTESIAN_POINT('',(20.5,34.7,-6.5));
#367=CARTESIAN_POINT('',(20.5,34.7,-8.25));
#368=CARTESIAN_POINT('',(20.5,32.95,-8.25));
#369=(BOUNDED_CURVE()
B_SPLINE_CURVE(2,(#360,#361,#362,#363,#364,#365,#366,#367,#368),.UNSPECIFIED.,.T.,.F.)
B_SPLINE_CURVE_WITH_KNOTS((3,2,2,2,3),(0.,1.570796327,3.141592654,4.71238898,6.283185307),.UNSPECIFIED.)
CURVE()
GEOMETRIC_REPRESENTATION_ITEM()
RATIONAL_B_SPLINE_CURVE((1.,0.707106781,1.,0.707106781,1.,0.707106781,1.,0.707106781,1.))
REPRESENTATION_ITEM(''));
#370=EDGE_CURVE('',#347,#345,#369,.T.);
#371=ORIENTED_EDGE('',*,*,#370,.T.);
#372=EDGE_LOOP('',(#359,#371));
#373=FACE_BOUND('',#372,.T.);
#374=CARTESIAN_POINT('',(20.5,-32.95,-8.25));
#375=VERTEX_POINT('',#374);
#376=CARTESIAN_POINT('',(20.5,-34.7,-6.5));
#377=VERTEX_POINT('',#376);
#378=CARTESIAN_POINT('',(20.5,-32.95,-8.25));
#379=CARTESIAN_POINT('',(20.5,-34.7,-8.25));
#380=CARTESIAN_POINT('',(20.5,-34.7,-6.5));
#381=CARTESIAN_POINT('',(20.5,-34.7,-4.75));
#382=CARTESIAN_POINT('',(20.5,-32.95,-4.75));
#383=CARTESIAN_POINT('',(20.5,-31.2,-4.75));
#384=CARTESIAN_POINT('',(20.5,-31.2,-6.5));
#385=CARTESIAN_POINT('',(20.5,-31.2,-8.25));
#386=CARTESIAN_POINT('',(20.5,-32.95,-8.25));
#387=(BOUNDED_CURVE()
B_SPLINE_CURVE(2,(#378,#379,#380,#381,#382,#383,#384,#385,#386),.UNSPECIFIED.,.T.,.F.)
B_SPLINE_CURVE_WITH_KNOTS((3,2,2,2,3),(0.,1.570796327,3.141592654,4.71238898,6.283185307),.UNSPECIFIED.)
CURVE()
GEOMETRIC_REPRESENTATION_ITEM()
RATIONAL_B_SPLINE_CURVE((1.,0.707106781,1.,0.707106781,1.,0.707106781,1.,0.707106781,1.))
REPRESENTATION_ITEM(''));
#388=EDGE_CURVE('',#375,#377,#387,.T.);
#389=ORIENTED_EDGE('',*,*,#388,.T.);
#390=CARTESIAN_POINT('',(20.5,-32.95,-8.25));
#391=CARTESIAN_POINT('',(20.5,-34.7,-8.25));
#392=CARTESIAN_POINT('',(20.5,-34.7,-6.5));
#393=CARTESIAN_POINT('',(20.5,-34.7,-4.75));
#394=CARTESIAN_POINT('',(20.5,-32.95,-4.75));
#395=CARTESIAN_POINT('',(20.5,-31.2,-4.75));
#396=CARTESIAN_POINT('',(20.5,-31.2,-6.5));
#397=CARTESIAN_POINT('',(20.5,-31.2,-8.25));
#398=CARTESIAN_POINT('',(20.5,-32.95,-8.25));
#399=(BOUNDED_CURVE()
B_SPLINE_CURVE(2,(#390,#391,#392,#393,#394,#395,#396,#397,#398),.UNSPECIFIED.,.T.,.F.)
B_SPLINE_CURVE_WITH_KNOTS((3,2,2,2,3),(0.,1.570796327,3.141592654,4.71238898,6.283185307),.UNSPECIFIED.)
CURVE()
GEOMETRIC_REPRESENTATION_ITEM()
RATIONAL_B_SPLINE_CURVE((1.,0.707106781,1.,0.707106781,1.,0.707106781,1.,0.707106781,1.))
REPRESENTATION_ITEM(''));
#400=EDGE_CURVE('',#377,#375,#399,.T.);
#401=ORIENTED_EDGE('',*,*,#400,.T.);
#402=EDGE_LOOP('',(#389,#401));
#403=FACE_BOUND('',#402,.T.);
#404=CARTESIAN_POINT('',(20.5,36.95,-13.));
#405=CARTESIAN_POINT('',(20.5,-36.95,-13.));
#406=B_SPLINE_CURVE_WITH_KNOTS('',1,(#404,#405),.UNSPECIFIED.,.F.,.F.,(2,2),(-0.018,0.0559),.UNSPECIFIED.);
#407=EDGE_CURVE('',#287,#193,#406,.T.);
#408=ORIENTED_EDGE('',*,*,#407,.F.);
#409=ORIENTED_EDGE('',*,*,#304,.F.);
#410=CARTESIAN_POINT('',(20.5,36.95,-2.));
#411=CARTESIAN_POINT('',(20.5,-36.95,-2.));
#412=B_SPLINE_CURVE_WITH_KNOTS('',1,(#410,#411),.UNSPECIFIED.,.F.,.F.,(2,2),(-0.018,0.0559),.UNSPECIFIED.);
#413=EDGE_CURVE('',#295,#200,#412,.T.);
#414=ORIENTED_EDGE('',*,*,#413,.T.);
#415=ORIENTED_EDGE('',*,*,#204,.T.);
#416=EDGE_LOOP('',(#408,#409,#414,#415));
#417=FACE_BOUND('',#416,.T.);
#418=ADVANCED_FACE('',(#343,#373,#403,#417),#313,.T.);
#419=CARTESIAN_POINT('',(20.5,-36.95,-2.));
#420=CARTESIAN_POINT('',(20.5,36.95,-2.));
#421=CARTESIAN_POINT('',(2.5,-36.95,-2.));
#422=CARTESIAN_POINT('',(2.5,36.95,-2.));
#423=B_SPLINE_SURFACE_WITH_KNOTS('',1,1,((#419,#420),(#421,#422)),.UNSPECIFIED.,.F.,.F.,.U.,(2,2),(2,2),(-0.011033913,0.006966087),(-0.0559,0.018),.UNSPECIFIED.);
#424=CARTESIAN_POINT('',(16.8,28.95,-2.));
#425=VERTEX_POINT('',#424);
#426=CARTESIAN_POINT('',(16.8,8.95,-2.));
#427=VERTEX_POINT('',#426);
#428=CARTESIAN_POINT('',(16.8,28.95,-2.));
#429=CARTESIAN_POINT('',(16.8,8.95,-2.));
#430=B_SPLINE_CURVE_WITH_KNOTS('',1,(#428,#429),.UNSPECIFIED.,.F.,.F.,(2,2),(-0.01,0.01),.UNSPECIFIED.);
#431=EDGE_CURVE('',#425,#427,#430,.T.);
#432=ORIENTED_EDGE('',*,*,#431,.T.);
#433=CARTESIAN_POINT('',(16.8,8.95,-2.));
#434=CARTESIAN_POINT('',(2.5,8.95,-2.));
#435=B_SPLINE_CURVE_WITH_KNOTS('',1,(#433,#434),.UNSPECIFIED.,.F.,.F.,(2,2),(-0.007333913,0.006966087),.UNSPECIFIED.);
#436=EDGE_CURVE('',#427,#93,#435,.T.);
#437=ORIENTED_EDGE('',*,*,#436,.T.);
#438=ORIENTED_EDGE('',*,*,#97,.F.);
#439=CARTESIAN_POINT('',(16.8,-8.95,-2.));
#440=VERTEX_POINT('',#439);
#441=CARTESIAN_POINT('',(2.5,-8.95,-2.));
#442=CARTESIAN_POINT('',(16.8,-8.95,-2.));
#443=B_SPLINE_CURVE_WITH_KNOTS('',1,(#441,#442),.UNSPECIFIED.,.F.,.F.,(2,2),(-0.006966087,0.007333913),.UNSPECIFIED.);
#444=EDGE_CURVE('',#91,#440,#443,.T.);
#445=ORIENTED_EDGE('',*,*,#444,.T.);
#446=CARTESIAN_POINT('',(16.8,-28.95,-2.));
#447=VERTEX_POINT('',#446);
#448=CARTESIAN_POINT('',(16.8,-8.95,-2.));
#449=CARTESIAN_POINT('',(16.8,-28.95,-2.));
#450=B_SPLINE_CURVE_WITH_KNOTS('',1,(#448,#449),.UNSPECIFIED.,.F.,.F.,(2,2),(0.0279,0.0479),.UNSPECIFIED.);
#451=EDGE_CURVE('',#440,#447,#450,.T.);
#452=ORIENTED_EDGE('',*,*,#451,.T.);
#453=CARTESIAN_POINT('',(16.8,-28.95,-2.));
#454=CARTESIAN_POINT('',(2.5,-28.95,-2.));
#455=B_SPLINE_CURVE_WITH_KNOTS('',1,(#453,#454),.UNSPECIFIED.,.F.,.F.,(2,2),(-0.007333913,0.006966087),.UNSPECIFIED.);
#456=EDGE_CURVE('',#447,#159,#455,.T.);
#457=ORIENTED_EDGE('',*,*,#456,.T.);
#458=ORIENTED_EDGE('',*,*,#163,.F.);
#459=ORIENTED_EDGE('',*,*,#209,.F.);
#460=ORIENTED_EDGE('',*,*,#413,.F.);
#461=ORIENTED_EDGE('',*,*,#299,.F.);
#462=ORIENTED_EDGE('',*,*,#264,.F.);
#463=CARTESIAN_POINT('',(2.5,28.95,-2.));
#464=CARTESIAN_POINT('',(16.8,28.95,-2.));
#465=B_SPLINE_CURVE_WITH_KNOTS('',1,(#463,#464),.UNSPECIFIED.,.F.,.F.,(2,2),(-0.006966087,0.007333913),.UNSPECIFIED.);
#466=EDGE_CURVE('',#251,#425,#465,.T.);
#467=ORIENTED_EDGE('',*,*,#466,.T.);
#468=EDGE_LOOP('',(#432,#437,#438,#445,#452,#457,#458,#459,#460,#461,#462,#467));
#469=FACE_BOUND('',#468,.T.);
#470=ADVANCED_FACE('',(#469),#423,.F.);
#471=CARTESIAN_POINT('',(20.5,-36.95,-13.));
#472=CARTESIAN_POINT('',(20.5,36.95,-13.));
#473=CARTESIAN_POINT('',(2.5,-36.95,-13.));
#474=CARTESIAN_POINT('',(2.5,36.95,-13.));
#475=B_SPLINE_SURFACE_WITH_KNOTS('',1,1,((#471,#472),(#473,#474)),.UNSPECIFIED.,.F.,.F.,.U.,(2,2),(2,2),(-0.011033913,0.006966087),(-0.0559,0.018),.UNSPECIFIED.);
#476=CARTESIAN_POINT('',(16.8,8.95,-13.));
#477=VERTEX_POINT('',#476);
#478=CARTESIAN_POINT('',(16.8,8.95,-13.));
#479=CARTESIAN_POINT('',(2.5,8.95,-13.));
#480=B_SPLINE_CURVE_WITH_KNOTS('',1,(#478,#479),.UNSPECIFIED.,.F.,.F.,(2,2),(-0.007333913,0.006966087),.UNSPECIFIED.);
#481=EDGE_CURVE('',#477,#100,#480,.T.);
#482=ORIENTED_EDGE('',*,*,#481,.F.);
#483=CARTESIAN_POINT('',(16.8,28.95,-13.));
#484=VERTEX_POINT('',#483);
#485=CARTESIAN_POINT('',(16.8,28.95,-13.));
#486=CARTESIAN_POINT('',(16.8,8.95,-13.));
#487=B_SPLINE_CURVE_WITH_KNOTS('',1,(#485,#486),.UNSPECIFIED.,.F.,.F.,(2,2),(-0.01,0.01),.UNSPECIFIED.);
#488=EDGE_CURVE('',#484,#477,#487,.T.);
#489=ORIENTED_EDGE('',*,*,#488,.F.);
#490=CARTESIAN_POINT('',(2.5,28.95,-13.));
#491=CARTESIAN_POINT('',(16.8,28.95,-13.));
#492=B_SPLINE_CURVE_WITH_KNOTS('',1,(#490,#491),.UNSPECIFIED.,.F.,.F.,(2,2),(-0.006966087,0.007333913),.UNSPECIFIED.);
#493=EDGE_CURVE('',#253,#484,#492,.T.);
#494=ORIENTED_EDGE('',*,*,#493,.F.);
#495=ORIENTED_EDGE('',*,*,#276,.T.);
#496=ORIENTED_EDGE('',*,*,#291,.T.);
#497=ORIENTED_EDGE('',*,*,#407,.T.);
#498=ORIENTED_EDGE('',*,*,#197,.T.);
#499=ORIENTED_EDGE('',*,*,#177,.T.);
#500=CARTESIAN_POINT('',(16.8,-28.95,-13.));
#501=VERTEX_POINT('',#500);
#502=CARTESIAN_POINT('',(16.8,-28.95,-13.));
#503=CARTESIAN_POINT('',(2.5,-28.95,-13.));
#504=B_SPLINE_CURVE_WITH_KNOTS('',1,(#502,#503),.UNSPECIFIED.,.F.,.F.,(2,2),(-0.007333913,0.006966087),.UNSPECIFIED.);
#505=EDGE_CURVE('',#501,#166,#504,.T.);
#506=ORIENTED_EDGE('',*,*,#505,.F.);
#507=CARTESIAN_POINT('',(16.8,-8.95,-13.));
#508=VERTEX_POINT('',#507);
#509=CARTESIAN_POINT('',(16.8,-8.95,-13.));
#510=CARTESIAN_POINT('',(16.8,-28.95,-13.));
#511=B_SPLINE_CURVE_WITH_KNOTS('',1,(#509,#510),.UNSPECIFIED.,.F.,.F.,(2,2),(0.0279,0.0479),.UNSPECIFIED.);
#512=EDGE_CURVE('',#508,#501,#511,.T.);
#513=ORIENTED_EDGE('',*,*,#512,.F.);
#514=CARTESIAN_POINT('',(2.5,-8.95,-13.));
#515=CARTESIAN_POINT('',(16.8,-8.95,-13.));
#516=B_SPLINE_CURVE_WITH_KNOTS('',1,(#514,#515),.UNSPECIFIED.,.F.,.F.,(2,2),(-0.006966087,0.007333913),.UNSPECIFIED.);
#517=EDGE_CURVE('',#107,#508,#516,.T.);
#518=ORIENTED_EDGE('',*,*,#517,.F.);
#519=ORIENTED_EDGE('',*,*,#111,.T.);
#520=EDGE_LOOP('',(#482,#489,#494,#495,#496,#497,#498,#499,#506,#513,#518,#519));
#521=FACE_BOUND('',#520,.T.);
#522=ADVANCED_FACE('',(#521),#475,.T.);
#523=CARTESIAN_POINT('',(2.5,-28.95,-2.));
#524=CARTESIAN_POINT('',(16.8,-28.95,-2.));
#525=CARTESIAN_POINT('',(2.5,-28.95,-13.));
#526=CARTESIAN_POINT('',(16.8,-28.95,-13.));
#527=B_SPLINE_SURFACE_WITH_KNOTS('',1,1,((#523,#524),(#525,#526)),.UNSPECIFIED.,.F.,.F.,.U.,(2,2),(2,2),(0.043986919,0.054986919),(-0.0148,-0.0005),.UNSPECIFIED.);
#528=CARTESIAN_POINT('',(16.8,-28.95,-2.));
#529=CARTESIAN_POINT('',(16.8,-28.95,-13.));
#530=B_SPLINE_CURVE_WITH_KNOTS('',1,(#528,#529),.UNSPECIFIED.,.F.,.F.,(2,2),(0.043986919,0.054986919),.UNSPECIFIED.);
#531=EDGE_CURVE('',#447,#501,#530,.T.);
#532=ORIENTED_EDGE('',*,*,#531,.T.);
#533=ORIENTED_EDGE('',*,*,#505,.T.);
#534=ORIENTED_EDGE('',*,*,#170,.F.);
#535=ORIENTED_EDGE('',*,*,#456,.F.);
#536=EDGE_LOOP('',(#532,#533,#534,#535));
#537=FACE_BOUND('',#536,.T.);
#538=ADVANCED_FACE('',(#537),#527,.F.);
#539=CARTESIAN_POINT('',(2.5,-8.95,-13.));
#540=CARTESIAN_POINT('',(16.8,-8.95,-13.));
#541=CARTESIAN_POINT('',(2.5,-8.95,-2.));
#542=CARTESIAN_POINT('',(16.8,-8.95,-2.));
#543=B_SPLINE_SURFACE_WITH_KNOTS('',1,1,((#539,#540),(#541,#542)),.UNSPECIFIED.,.F.,.F.,.U.,(2,2),(2,2),(-0.054986919,-0.043986919),(0.,0.0143),.UNSPECIFIED.);
#544=ORIENTED_EDGE('',*,*,#116,.T.);
#545=ORIENTED_EDGE('',*,*,#517,.T.);
#546=CARTESIAN_POINT('',(16.8,-8.95,-2.));
#547=CARTESIAN_POINT('',(16.8,-8.95,-13.));
#548=B_SPLINE_CURVE_WITH_KNOTS('',1,(#546,#547),.UNSPECIFIED.,.F.,.F.,(2,2),(0.043986919,0.054986919),.UNSPECIFIED.);
#549=EDGE_CURVE('',#440,#508,#548,.T.);
#550=ORIENTED_EDGE('',*,*,#549,.F.);
#551=ORIENTED_EDGE('',*,*,#444,.F.);
#552=EDGE_LOOP('',(#544,#545,#550,#551));
#553=FACE_BOUND('',#552,.T.);
#554=ADVANCED_FACE('',(#553),#543,.F.);
#555=CARTESIAN_POINT('',(16.8,-28.95,-2.));
#556=CARTESIAN_POINT('',(16.8,-8.95,-2.));
#557=CARTESIAN_POINT('',(16.8,-28.95,-13.));
#558=CARTESIAN_POINT('',(16.8,-8.95,-13.));
#559=B_SPLINE_SURFACE_WITH_KNOTS('',1,1,((#555,#556),(#557,#558)),.UNSPECIFIED.,.F.,.F.,.U.,(2,2),(2,2),(0.043986919,0.054986919),(-0.02,0.),.UNSPECIFIED.);
#560=ORIENTED_EDGE('',*,*,#549,.T.);
#561=ORIENTED_EDGE('',*,*,#512,.T.);
#562=ORIENTED_EDGE('',*,*,#531,.F.);
#563=ORIENTED_EDGE('',*,*,#451,.F.);
#564=EDGE_LOOP('',(#560,#561,#562,#563));
#565=FACE_BOUND('',#564,.T.);
#566=ADVANCED_FACE('',(#565),#559,.F.);
#567=CARTESIAN_POINT('',(2.5,8.95,-2.));
#568=CARTESIAN_POINT('',(16.8,8.95,-2.));
#569=CARTESIAN_POINT('',(2.5,8.95,-13.));
#570=CARTESIAN_POINT('',(16.8,8.95,-13.));
#571=B_SPLINE_SURFACE_WITH_KNOTS('',1,1,((#567,#568),(#569,#570)),.UNSPECIFIED.,.F.,.F.,.U.,(2,2),(2,2),(0.043986919,0.054986919),(-0.0148,-0.0005),.UNSPECIFIED.);
#572=CARTESIAN_POINT('',(16.8,8.95,-2.));
#573=CARTESIAN_POINT('',(16.8,8.95,-13.));
#574=B_SPLINE_CURVE_WITH_KNOTS('',1,(#572,#573),.UNSPECIFIED.,.F.,.F.,(2,2),(0.043986919,0.054986919),.UNSPECIFIED.);
#575=EDGE_CURVE('',#427,#477,#574,.T.);
#576=ORIENTED_EDGE('',*,*,#575,.T.);
#577=ORIENTED_EDGE('',*,*,#481,.T.);
#578=ORIENTED_EDGE('',*,*,#104,.F.);
#579=ORIENTED_EDGE('',*,*,#436,.F.);
#580=EDGE_LOOP('',(#576,#577,#578,#579));
#581=FACE_BOUND('',#580,.T.);
#582=ADVANCED_FACE('',(#581),#571,.F.);
#583=CARTESIAN_POINT('',(2.5,28.95,-13.));
#584=CARTESIAN_POINT('',(16.8,28.95,-13.));
#585=CARTESIAN_POINT('',(2.5,28.95,-2.));
#586=CARTESIAN_POINT('',(16.8,28.95,-2.));
#587=B_SPLINE_SURFACE_WITH_KNOTS('',1,1,((#583,#584),(#585,#586)),.UNSPECIFIED.,.F.,.F.,.U.,(2,2),(2,2),(-0.054986919,-0.043986919),(0.,0.0143),.UNSPECIFIED.);
#588=ORIENTED_EDGE('',*,*,#257,.T.);
#589=ORIENTED_EDGE('',*,*,#493,.T.);
#590=CARTESIAN_POINT('',(16.8,28.95,-2.));
#591=CARTESIAN_POINT('',(16.8,28.95,-13.));
#592=B_SPLINE_CURVE_WITH_KNOTS('',1,(#590,#591),.UNSPECIFIED.,.F.,.F.,(2,2),(0.043986919,0.054986919),.UNSPECIFIED.);
#593=EDGE_CURVE('',#425,#484,#592,.T.);
#594=ORIENTED_EDGE('',*,*,#593,.F.);
#595=ORIENTED_EDGE('',*,*,#466,.F.);
#596=EDGE_LOOP('',(#588,#589,#594,#595));
#597=FACE_BOUND('',#596,.T.);
#598=ADVANCED_FACE('',(#597),#587,.F.);
#599=CARTESIAN_POINT('',(16.8,8.95,-2.));
#600=CARTESIAN_POINT('',(16.8,28.95,-2.));
#601=CARTESIAN_POINT('',(16.8,8.95,-13.));
#602=CARTESIAN_POINT('',(16.8,28.95,-13.));
#603=B_SPLINE_SURFACE_WITH_KNOTS('',1,1,((#599,#600),(#601,#602)),.UNSPECIFIED.,.F.,.F.,.U.,(2,2),(2,2),(0.043986919,0.054986919),(-0.02,0.),.UNSPECIFIED.);
#604=ORIENTED_EDGE('',*,*,#593,.T.);
#605=ORIENTED_EDGE('',*,*,#488,.T.);
#606=ORIENTED_EDGE('',*,*,#575,.F.);
#607=ORIENTED_EDGE('',*,*,#431,.F.);
#608=EDGE_LOOP('',(#604,#605,#606,#607));
#609=FACE_BOUND('',#608,.T.);
#610=ADVANCED_FACE('',(#609),#603,.F.);
#611=CARTESIAN_POINT('',(20.5,-34.7,-6.5));
#612=CARTESIAN_POINT('',(2.5,-34.7,-6.5));
#613=CARTESIAN_POINT('',(20.5,-34.7,-3.468911087));
#614=CARTESIAN_POINT('',(2.5,-34.7,-3.468911087));
#615=CARTESIAN_POINT('',(20.5,-32.075,-4.984455543));
#616=CARTESIAN_POINT('',(2.5,-32.075,-4.984455543));
#617=CARTESIAN_POINT('',(20.5,-29.45,-6.5));
#618=CARTESIAN_POINT('',(2.5,-29.45,-6.5));
#619=CARTESIAN_POINT('',(20.5,-32.075,-8.015544457));
#620=CARTESIAN_POINT('',(2.5,-32.075,-8.015544457));
#621=CARTESIAN_POINT('',(20.5,-34.7,-9.531088913));
#622=CARTESIAN_POINT('',(2.5,-34.7,-9.531088913));
#623=CARTESIAN_POINT('',(20.5,-34.7,-6.5));
#624=CARTESIAN_POINT('',(2.5,-34.7,-6.5));
#625=(BOUNDED_SURFACE()
B_SPLINE_SURFACE(2,1,((#611,#612),(#613,#614),(#615,#616),(#617,#618),(#619,#620),(#621,#622),(#623,#624)),.UNSPECIFIED.,.T.,.F.,.U.)
B_SPLINE_SURFACE_WITH_KNOTS((3,2,2,3),(2,2),(0.,2.094395102,4.188790205,6.283185307),(0.131889323,0.149889323),.UNSPECIFIED.)
GEOMETRIC_REPRESENTATION_ITEM()
RATIONAL_B_SPLINE_SURFACE(((1.,1.),(0.5,0.5),(1.,1.),(0.5,0.5),(1.,1.),(0.5,0.5),(1.,1.)))
REPRESENTATION_ITEM('')
SURFACE()
);
#626=CARTESIAN_POINT('',(2.5,-34.7,-6.5));
#627=CARTESIAN_POINT('',(20.5,-34.7,-6.5));
#628=B_SPLINE_CURVE_WITH_KNOTS('',1,(#626,#627),.UNSPECIFIED.,.F.,.F.,(2,2),(0.131889323,0.149889323),.UNSPECIFIED.);
#629=EDGE_CURVE('',#129,#377,#628,.T.);
#630=ORIENTED_EDGE('',*,*,#629,.F.);
#631=ORIENTED_EDGE('',*,*,#140,.F.);
#632=ORIENTED_EDGE('',*,*,#152,.F.);
#633=ORIENTED_EDGE('',*,*,#629,.T.);
#634=ORIENTED_EDGE('',*,*,#388,.F.);
#635=ORIENTED_EDGE('',*,*,#400,.F.);
#636=EDGE_LOOP('',(#630,#631,#632,#633,#634,#635));
#637=FACE_BOUND('',#636,.T.);
#638=ADVANCED_FACE('',(#637),#625,.F.);
#639=CARTESIAN_POINT('',(20.5,31.2,-6.5));
#640=CARTESIAN_POINT('',(2.5,31.2,-6.5));
#641=CARTESIAN_POINT('',(20.5,31.2,-3.468911087));
#642=CARTESIAN_POINT('',(2.5,31.2,-3.468911087));
#643=CARTESIAN_POINT('',(20.5,33.825,-4.984455543));
#644=CARTESIAN_POINT('',(2.5,33.825,-4.984455543));
#645=CARTESIAN_POINT('',(20.5,36.45,-6.5));
#646=CARTESIAN_POINT('',(2.5,36.45,-6.5));
#647=CARTESIAN_POINT('',(20.5,33.825,-8.015544457));
#648=CARTESIAN_POINT('',(2.5,33.825,-8.015544457));
#649=CARTESIAN_POINT('',(20.5,31.2,-9.531088913));
#650=CARTESIAN_POINT('',(2.5,31.2,-9.531088913));
#651=CARTESIAN_POINT('',(20.5,31.2,-6.5));
#652=CARTESIAN_POINT('',(2.5,31.2,-6.5));
#653=(BOUNDED_SURFACE()
B_SPLINE_SURFACE(2,1,((#639,#640),(#641,#642),(#643,#644),(#645,#646),(#647,#648),(#649,#650),(#651,#652)),.UNSPECIFIED.,.T.,.F.,.U.)
B_SPLINE_SURFACE_WITH_KNOTS((3,2,2,3),(2,2),(0.,2.094395102,4.188790205,6.283185307),(0.131889323,0.149889323),.UNSPECIFIED.)
GEOMETRIC_REPRESENTATION_ITEM()
RATIONAL_B_SPLINE_SURFACE(((1.,1.),(0.5,0.5),(1.,1.),(0.5,0.5),(1.,1.),(0.5,0.5),(1.,1.)))
REPRESENTATION_ITEM('')
SURFACE()
);
#654=CARTESIAN_POINT('',(2.5,31.2,-6.5));
#655=CARTESIAN_POINT('',(20.5,31.2,-6.5));
#656=B_SPLINE_CURVE_WITH_KNOTS('',1,(#654,#655),.UNSPECIFIED.,.F.,.F.,(2,2),(0.131889323,0.149889323),.UNSPECIFIED.);
#657=EDGE_CURVE('',#223,#347,#656,.T.);
#658=ORIENTED_EDGE('',*,*,#657,.F.);
#659=ORIENTED_EDGE('',*,*,#234,.F.);
#660=ORIENTED_EDGE('',*,*,#246,.F.);
#661=ORIENTED_EDGE('',*,*,#657,.T.);
#662=ORIENTED_EDGE('',*,*,#358,.F.);
#663=ORIENTED_EDGE('',*,*,#370,.F.);
#664=EDGE_LOOP('',(#658,#659,#660,#661,#662,#663));
#665=FACE_BOUND('',#664,.T.);
#666=ADVANCED_FACE('',(#665),#653,.F.);
#667=CARTESIAN_POINT('',(2.5,1.75,-6.5));
#668=CARTESIAN_POINT('',(20.5,1.75,-6.5));
#669=CARTESIAN_POINT('',(2.5,1.75,-3.468911087));
#670=CARTESIAN_POINT('',(20.5,1.75,-3.468911087));
#671=CARTESIAN_POINT('',(2.5,-0.875,-4.984455543));
#672=CARTESIAN_POINT('',(20.5,-0.875,-4.984455543));
#673=CARTESIAN_POINT('',(2.5,-3.5,-6.5));
#674=CARTESIAN_POINT('',(20.5,-3.5,-6.5));
#675=CARTESIAN_POINT('',(2.5,-0.875,-8.015544457));
#676=CARTESIAN_POINT('',(20.5,-0.875,-8.015544457));
#677=CARTESIAN_POINT('',(2.5,1.75,-9.531088913));
#678=CARTESIAN_POINT('',(20.5,1.75,-9.531088913));
#679=CARTESIAN_POINT('',(2.5,1.75,-6.5));
#680=CARTESIAN_POINT('',(20.5,1.75,-6.5));
#681=(BOUNDED_SURFACE()
B_SPLINE_SURFACE(2,1,((#667,#668),(#669,#670),(#671,#672),(#673,#674),(#675,#676),(#677,#678),(#679,#680)),.UNSPECIFIED.,.T.,.F.,.U.)
B_SPLINE_SURFACE_WITH_KNOTS((3,2,2,3),(2,2),(0.,2.094395102,4.188790205,6.283185307),(0.247807443,0.265807443),.UNSPECIFIED.)
GEOMETRIC_REPRESENTATION_ITEM()
RATIONAL_B_SPLINE_SURFACE(((1.,1.),(0.5,0.5),(1.,1.),(0.5,0.5),(1.,1.),(0.5,0.5),(1.,1.)))
REPRESENTATION_ITEM('')
SURFACE()
);
#682=CARTESIAN_POINT('',(20.5,1.75,-6.5));
#683=CARTESIAN_POINT('',(2.5,1.75,-6.5));
#684=B_SPLINE_CURVE_WITH_KNOTS('',1,(#682,#683),.UNSPECIFIED.,.F.,.F.,(2,2),(0.247807443,0.265807443),.UNSPECIFIED.);
#685=EDGE_CURVE('',#315,#61,#684,.T.);
#686=ORIENTED_EDGE('',*,*,#685,.F.);
#687=ORIENTED_EDGE('',*,*,#328,.T.);
#688=ORIENTED_EDGE('',*,*,#340,.T.);
#689=ORIENTED_EDGE('',*,*,#685,.T.);
#690=ORIENTED_EDGE('',*,*,#74,.T.);
#691=ORIENTED_EDGE('',*,*,#86,.T.);
#692=EDGE_LOOP('',(#686,#687,#688,#689,#690,#691));
#693=FACE_BOUND('',#692,.T.);
#694=ADVANCED_FACE('',(#693),#681,.F.);
#695=CLOSED_SHELL('',(#120,#186,#214,#280,#308,#418,#470,#522,#538,#554,#566,#582,#598,#610,#638,#666,#694));
#696=MANIFOLD_SOLID_BREP('Motor_Holder',#695);
#54=STYLED_ITEM('',(),#696);
#35=SHAPE_REPRESENTATION('Base',(#15),#33);
#36=ADVANCED_BREP_SHAPE_REPRESENTATION('Base',(#696),#33);
#704=SHAPE_REPRESENTATION_RELATIONSHIP('','',#35,#36);
#705=APPLICATION_CONTEXT('configuration controlled 3D design of mechanical parts and assemblies');
#706=APPLICATION_PROTOCOL_DEFINITION('international standard','configuration_control_3d_design_ed2_mim',2004,#705);
#707=PRODUCT_CONTEXT('',#705,'mechanical');
#708=PRODUCT_DEFINITION_CONTEXT('part definition',#705,'design');
#43=PRODUCT('0','0','',(#707));
#709=PRODUCT_RELATED_PRODUCT_CATEGORY('part','',(#43));
#710=PRODUCT_DEFINITION_FORMATION_WITH_SPECIFIED_SOURCE('','',#43,.NOT_KNOWN.);
#44=PRODUCT_DEFINITION('design','',#710,#708);
#42=PRODUCT_DEFINITION_SHAPE('','',#44);
#711=SHAPE_DEFINITION_REPRESENTATION(#42,#35);
#34=DRAUGHTING_MODEL('',(),#33);
#16=SHAPE_REPRESENTATION('root',(#15,#48),#10);
#24=PRODUCT('root','root','',(#707));
#712=PRODUCT_RELATED_PRODUCT_CATEGORY('part','',(#24));
#713=PRODUCT_DEFINITION_FORMATION_WITH_SPECIFIED_SOURCE('','',#24,.NOT_KNOWN.);
#25=PRODUCT_DEFINITION('design','',#713,#708);
#23=PRODUCT_DEFINITION_SHAPE('','',#25);
#714=SHAPE_DEFINITION_REPRESENTATION(#23,#16);
#11=DRAUGHTING_MODEL('',(),#10);
#1=MECHANICAL_DESIGN_GEOMETRIC_PRESENTATION_REPRESENTATION('',(#54),#10);
ENDSEC;
END-ISO-10303-21;
