ISO-10303-21;
HEADER;

/* File generated by HOOPS Exchange Version 25.8.0 */

FILE_DESCRIPTION(('HOOPS Exchange Step'),'2;1');

FILE_NAME('/home/tfannes/repo/klepto/cart/stl/freewheel.step',
'2026-09-12T13:17:00+02:00',
('tfannes'),
('Unknown organisation'),
'HOOPS Exchange 2025.8',
'HOOPS Exchange',
'Unknown authorisation');

FILE_SCHEMA( ('AP203_CONFIGURATION_CONTROLLED_3D_DESIGN_OF_MECHANICAL_PARTS_AND_ASSEMBLIES_MIM_LF') );

ENDSEC;

DATA;
#3=(NAMED_UNIT(*)PLANE_ANGLE_UNIT()SI_UNIT($,.RADIAN.));
#4=PLANE_ANGLE_MEASURE_WITH_UNIT(PLANE_ANGLE_MEASURE(0.0174532925),#3);
#5=(CONVERSION_BASED_UNIT('DEGREE',#4)NAMED_UNIT(#6)PLANE_ANGLE_UNIT());
#6=DIMENSIONAL_EXPONENTS(0.,0.,0.,0.,0.,0.,0.);
#7=(NAMED_UNIT(*)SI_UNIT($,.STERADIAN.)SOLID_ANGLE_UNIT());
#8=(LENGTH_UNIT()NAMED_UNIT(*)SI_UNIT(.MILLI.,.METRE.));
#9=UNCERTAINTY_MEASURE_WITH_UNIT(LENGTH_MEASURE(1.000000E-03),#8,'DISTANCE_ACCURACY_VALUE','Maximum Tolerance applied to model');
#10=(GEOMETRIC_REPRESENTATION_CONTEXT(3)GLOBAL_UNCERTAINTY_ASSIGNED_CONTEXT((#9))GLOBAL_UNIT_ASSIGNED_CONTEXT((#8,#5,#7))REPRESENTATION_CONTEXT('','root'));
#12=CARTESIAN_POINT('',(0.,0.,0.));
#13=DIRECTION('',(0.,0.,1.));
#14=DIRECTION('',(1.,0.,0.));
#15=AXIS2_PLACEMENT_3D('',#12,#13,#14);
#26=(NAMED_UNIT(*)PLANE_ANGLE_UNIT()SI_UNIT($,.RADIAN.));
#27=PLANE_ANGLE_MEASURE_WITH_UNIT(PLANE_ANGLE_MEASURE(0.0174532925),#26);
#28=(CONVERSION_BASED_UNIT('DEGREE',#27)NAMED_UNIT(#29)PLANE_ANGLE_UNIT());
#29=DIMENSIONAL_EXPONENTS(0.,0.,0.,0.,0.,0.,0.);
#30=(NAMED_UNIT(*)SI_UNIT($,.STERADIAN.)SOLID_ANGLE_UNIT());
#31=(LENGTH_UNIT()NAMED_UNIT(*)SI_UNIT(.MILLI.,.METRE.));
#32=UNCERTAINTY_MEASURE_WITH_UNIT(LENGTH_MEASURE(1.000000E-03),#31,'DISTANCE_ACCURACY_VALUE','Maximum Tolerance applied to model');
#33=(GEOMETRIC_REPRESENTATION_CONTEXT(3)GLOBAL_UNCERTAINTY_ASSIGNED_CONTEXT((#32))GLOBAL_UNIT_ASSIGNED_CONTEXT((#31,#28,#30))REPRESENTATION_CONTEXT('','0'));
#35=CARTESIAN_POINT('',(0.,0.,0.));
#36=DIRECTION('',(0.,0.,1.));
#37=DIRECTION('',(1.,0.,0.));
#38=AXIS2_PLACEMENT_3D('',#35,#36,#37);
#49=CARTESIAN_POINT('',(0.,0.,0.));
#50=DIRECTION('',(0.,0.,1.));
#51=DIRECTION('',(1.,0.,-0.));
#52=AXIS2_PLACEMENT_3D('',#49,#50,#51);
#53=ITEM_DEFINED_TRANSFORMATION('','',#52,#38);
#54=(REPRESENTATION_RELATIONSHIP('','',#39,#16)REPRESENTATION_RELATIONSHIP_WITH_TRANSFORMATION(#53)SHAPE_REPRESENTATION_RELATIONSHIP());
#55=NEXT_ASSEMBLY_USAGE_OCCURRENCE('Flywheels_1','Flywheels','Flywheels',#25,#48,$);
#56=PRODUCT_DEFINITION_SHAPE('','',#55);
#57=CONTEXT_DEPENDENT_SHAPE_REPRESENTATION(#54,#56);
#58=(NAMED_UNIT(*)PLANE_ANGLE_UNIT()SI_UNIT($,.RADIAN.));
#59=PLANE_ANGLE_MEASURE_WITH_UNIT(PLANE_ANGLE_MEASURE(0.0174532925),#58);
#60=(CONVERSION_BASED_UNIT('DEGREE',#59)NAMED_UNIT(#61)PLANE_ANGLE_UNIT());
#61=DIMENSIONAL_EXPONENTS(0.,0.,0.,0.,0.,0.,0.);
#62=(NAMED_UNIT(*)SI_UNIT($,.STERADIAN.)SOLID_ANGLE_UNIT());
#63=(LENGTH_UNIT()NAMED_UNIT(*)SI_UNIT(.MILLI.,.METRE.));
#64=UNCERTAINTY_MEASURE_WITH_UNIT(LENGTH_MEASURE(1.000000E-05),#63,'DISTANCE_ACCURACY_VALUE','Maximum Tolerance applied to model');
#65=(GEOMETRIC_REPRESENTATION_CONTEXT(3)GLOBAL_UNCERTAINTY_ASSIGNED_CONTEXT((#64))GLOBAL_UNIT_ASSIGNED_CONTEXT((#63,#60,#62))REPRESENTATION_CONTEXT('','0'));
#67=CARTESIAN_POINT('',(0.,0.,0.));
#68=DIRECTION('',(0.,0.,1.));
#69=DIRECTION('',(1.,0.,0.));
#70=AXIS2_PLACEMENT_3D('',#67,#68,#69);
#81=CARTESIAN_POINT('',(0.,0.,0.));
#82=DIRECTION('',(0.,0.,1.));
#83=DIRECTION('',(1.,0.,-0.));
#84=AXIS2_PLACEMENT_3D('',#81,#82,#83);
#85=ITEM_DEFINED_TRANSFORMATION('','',#84,#70);
#86=(REPRESENTATION_RELATIONSHIP('','',#71,#39)REPRESENTATION_RELATIONSHIP_WITH_TRANSFORMATION(#85)SHAPE_REPRESENTATION_RELATIONSHIP());
#87=NEXT_ASSEMBLY_USAGE_OCCURRENCE('flywheel A_2','flywheel A','flywheel A',#48,#80,$);
#88=PRODUCT_DEFINITION_SHAPE('','',#87);
#89=CONTEXT_DEPENDENT_SHAPE_REPRESENTATION(#86,#88);
#91=CARTESIAN_POINT('',(-5.536789807,-33.952877281,13.85));
#92=CARTESIAN_POINT('',(-5.536789807,-3.947122719,13.85));
#93=CARTESIAN_POINT('',(24.468964756,-33.952877281,13.85));
#94=CARTESIAN_POINT('',(24.468964756,-3.947122719,13.85));
#95=B_SPLINE_SURFACE_WITH_KNOTS('',1,1,((#91,#92),(#93,#94)),.UNSPECIFIED.,.F.,.F.,.U.,(2,2),(2,2),(-0.015002877,0.015002877),(-0.015002877,0.015002877),.UNSPECIFIED.);
#96=CARTESIAN_POINT('',(24.468964756,-18.95,13.85));
#97=VERTEX_POINT('',#96);
#98=CARTESIAN_POINT('',(9.466087475,-3.947122719,13.85));
#99=VERTEX_POINT('',#98);
#100=CARTESIAN_POINT('',(9.466087475,-3.947122719,13.85));
#101=CARTESIAN_POINT('',(24.468964756,-3.947122719,13.85));
#102=CARTESIAN_POINT('',(24.468964756,-18.95,13.85));
#103=CARTESIAN_POINT('',(24.468964756,-33.952877281,13.85));
#104=CARTESIAN_POINT('',(9.466087475,-33.952877281,13.85));
#105=CARTESIAN_POINT('',(-5.536789807,-33.952877281,13.85));
#106=CARTESIAN_POINT('',(-5.536789807,-18.95,13.85));
#107=CARTESIAN_POINT('',(-5.536789807,-3.947122719,13.85));
#108=CARTESIAN_POINT('',(9.466087475,-3.947122719,13.85));
#109=(BOUNDED_CURVE()
B_SPLINE_CURVE(2,(#100,#101,#102,#103,#104,#105,#106,#107,#108),.UNSPECIFIED.,.T.,.F.)
B_SPLINE_CURVE_WITH_KNOTS((3,2,2,2,3),(4.71238898,6.283185307,7.853981634,9.424777961,10.995574288),.UNSPECIFIED.)
CURVE()
GEOMETRIC_REPRESENTATION_ITEM()
RATIONAL_B_SPLINE_CURVE((1.,0.707106781,1.,0.707106781,1.,0.707106781,1.,0.707106781,1.))
REPRESENTATION_ITEM(''));
#110=EDGE_CURVE('',#97,#99,#109,.T.);
#111=ORIENTED_EDGE('',*,*,#110,.F.);
#112=CARTESIAN_POINT('',(9.466087475,-3.947122719,13.85));
#113=CARTESIAN_POINT('',(24.468964756,-3.947122719,13.85));
#114=CARTESIAN_POINT('',(24.468964756,-18.95,13.85));
#115=CARTESIAN_POINT('',(24.468964756,-33.952877281,13.85));
#116=CARTESIAN_POINT('',(9.466087475,-33.952877281,13.85));
#117=CARTESIAN_POINT('',(-5.536789807,-33.952877281,13.85));
#118=CARTESIAN_POINT('',(-5.536789807,-18.95,13.85));
#119=CARTESIAN_POINT('',(-5.536789807,-3.947122719,13.85));
#120=CARTESIAN_POINT('',(9.466087475,-3.947122719,13.85));
#121=(BOUNDED_CURVE()
B_SPLINE_CURVE(2,(#112,#113,#114,#115,#116,#117,#118,#119,#120),.UNSPECIFIED.,.T.,.F.)
B_SPLINE_CURVE_WITH_KNOTS((3,2,2,2,3),(4.71238898,6.283185307,7.853981634,9.424777961,10.995574288),.UNSPECIFIED.)
CURVE()
GEOMETRIC_REPRESENTATION_ITEM()
RATIONAL_B_SPLINE_CURVE((1.,0.707106781,1.,0.707106781,1.,0.707106781,1.,0.707106781,1.))
REPRESENTATION_ITEM(''));
#122=EDGE_CURVE('',#99,#97,#121,.T.);
#123=ORIENTED_EDGE('',*,*,#122,.F.);
#124=EDGE_LOOP('',(#111,#123));
#125=FACE_BOUND('',#124,.T.);
#126=CARTESIAN_POINT('',(10.233052474,-19.637506137,13.85));
#127=VERTEX_POINT('',#126);
#128=CARTESIAN_POINT('',(10.496087475,-18.95,13.85));
#129=VERTEX_POINT('',#128);
#130=CARTESIAN_POINT('',(10.233052474,-19.637506137,13.85));
#131=CARTESIAN_POINT('',(9.545546337,-20.404471137,13.85));
#132=CARTESIAN_POINT('',(8.778581337,-19.716965,13.85));
#133=CARTESIAN_POINT('',(8.011616337,-19.029458863,13.85));
#134=CARTESIAN_POINT('',(8.699122475,-18.262493863,13.85));
#135=CARTESIAN_POINT('',(9.386628612,-17.495528863,13.85));
#136=CARTESIAN_POINT('',(10.153593612,-18.183035,13.85));
#137=CARTESIAN_POINT('',(10.920558612,-18.870541137,13.85));
#138=CARTESIAN_POINT('',(10.233052474,-19.637506137,13.85));
#139=(BOUNDED_CURVE()
B_SPLINE_CURVE(2,(#130,#131,#132,#133,#134,#135,#136,#137,#138),.UNSPECIFIED.,.T.,.F.)
B_SPLINE_CURVE_WITH_KNOTS((3,2,2,2,3),(0.,1.570796327,3.141592654,4.71238898,6.283185307),.UNSPECIFIED.)
CURVE()
GEOMETRIC_REPRESENTATION_ITEM()
RATIONAL_B_SPLINE_CURVE((1.,0.707106781,1.,0.707106781,1.,0.707106781,1.,0.707106781,1.))
REPRESENTATION_ITEM(''));
#140=EDGE_CURVE('',#127,#129,#139,.T.);
#141=ORIENTED_EDGE('',*,*,#140,.T.);
#142=CARTESIAN_POINT('',(10.233052474,-19.637506137,13.85));
#143=CARTESIAN_POINT('',(9.545546337,-20.404471137,13.85));
#144=CARTESIAN_POINT('',(8.778581337,-19.716965,13.85));
#145=CARTESIAN_POINT('',(8.011616337,-19.029458863,13.85));
#146=CARTESIAN_POINT('',(8.699122475,-18.262493863,13.85));
#147=CARTESIAN_POINT('',(9.386628612,-17.495528863,13.85));
#148=CARTESIAN_POINT('',(10.153593612,-18.183035,13.85));
#149=CARTESIAN_POINT('',(10.920558612,-18.870541137,13.85));
#150=CARTESIAN_POINT('',(10.233052474,-19.637506137,13.85));
#151=(BOUNDED_CURVE()
B_SPLINE_CURVE(2,(#142,#143,#144,#145,#146,#147,#148,#149,#150),.UNSPECIFIED.,.T.,.F.)
B_SPLINE_CURVE_WITH_KNOTS((3,2,2,2,3),(0.,1.570796327,3.141592654,4.71238898,6.283185307),.UNSPECIFIED.)
CURVE()
GEOMETRIC_REPRESENTATION_ITEM()
RATIONAL_B_SPLINE_CURVE((1.,0.707106781,1.,0.707106781,1.,0.707106781,1.,0.707106781,1.))
REPRESENTATION_ITEM(''));
#152=EDGE_CURVE('',#129,#127,#151,.T.);
#153=ORIENTED_EDGE('',*,*,#152,.T.);
#154=EDGE_LOOP('',(#141,#153));
#155=FACE_BOUND('',#154,.T.);
#156=ADVANCED_FACE('',(#125,#155),#95,.T.);
#157=CARTESIAN_POINT('',(9.466087475,-3.848979486,12.05));
#158=CARTESIAN_POINT('',(39.668128503,-3.848979486,12.05));
#159=CARTESIAN_POINT('',(39.668128503,-34.051020514,12.05));
#160=CARTESIAN_POINT('',(9.466087475,-34.051020514,12.05));
#161=CARTESIAN_POINT('',(-20.735953554,-34.051020514,12.05));
#162=CARTESIAN_POINT('',(-20.735953554,-3.848979486,12.05));
#163=CARTESIAN_POINT('',(9.466087475,-3.848979486,12.05));
#164=CARTESIAN_POINT('',(9.466087475,-3.592914645,12.30089128));
#165=CARTESIAN_POINT('',(40.180258184,-3.592914645,12.30089128));
#166=CARTESIAN_POINT('',(40.180258184,-34.307085355,12.30089128));
#167=CARTESIAN_POINT('',(9.466087475,-34.307085355,12.30089128));
#168=CARTESIAN_POINT('',(-21.248083235,-34.307085355,12.30089128));
#169=CARTESIAN_POINT('',(-21.248083235,-3.592914645,12.30089128));
#170=CARTESIAN_POINT('',(9.466087475,-3.592914645,12.30089128));
#171=CARTESIAN_POINT('',(9.466087475,-3.528186075,12.903517438));
#172=CARTESIAN_POINT('',(40.309715325,-3.528186075,12.903517438));
#173=CARTESIAN_POINT('',(40.309715325,-34.371813925,12.903517438));
#174=CARTESIAN_POINT('',(9.466087475,-34.371813925,12.903517438));
#175=CARTESIAN_POINT('',(-21.377540376,-34.371813925,12.903517438));
#176=CARTESIAN_POINT('',(-21.377540376,-3.528186075,12.903517438));
#177=CARTESIAN_POINT('',(9.466087475,-3.528186075,12.903517438));
#178=CARTESIAN_POINT('',(9.466087475,-3.51182386,13.400122644));
#179=CARTESIAN_POINT('',(40.342439755,-3.51182386,13.400122644));
#180=CARTESIAN_POINT('',(40.342439755,-34.38817614,13.400122644));
#181=CARTESIAN_POINT('',(9.466087475,-34.38817614,13.400122644));
#182=CARTESIAN_POINT('',(-21.410264806,-34.38817614,13.400122644));
#183=CARTESIAN_POINT('',(-21.410264806,-3.51182386,13.400122644));
#184=CARTESIAN_POINT('',(9.466087475,-3.51182386,13.400122644));
#185=(BOUNDED_SURFACE()
B_SPLINE_SURFACE(3,3,((#157,#158,#159,#160,#161,#162,#163),(#164,#165,#166,#167,#168,#169,#170),(#171,#172,#173,#174,#175,#176,#177),(#178,#179,#180,#181,#182,#183,#184)),.UNSPECIFIED.,.F.,.T.,.U.)
B_SPLINE_SURFACE_WITH_KNOTS((4,4),(4,3,4),(0.,0.747218045),(0.,0.5,1.),.UNSPECIFIED.)
GEOMETRIC_REPRESENTATION_ITEM()
RATIONAL_B_SPLINE_SURFACE(((1.,0.333333333,0.333333333,1.,0.333333333,0.333333333,1.),(1.,0.333333333,0.333333333,1.,0.333333333,0.333333333,1.),(1.,0.333333333,0.333333333,1.,0.333333333,0.333333333,1.),(1.,0.333333333,0.333333333,1.,0.333333333,0.333333333,1.)))
REPRESENTATION_ITEM('')
SURFACE()
);
#186=CARTESIAN_POINT('',(9.466087475,-3.848979486,12.05));
#187=VERTEX_POINT('',#186);
#188=CARTESIAN_POINT('',(9.466087475,-3.51182386,13.400122644));
#189=VERTEX_POINT('',#188);
#190=CARTESIAN_POINT('',(9.466087475,-3.848979486,12.05));
#191=CARTESIAN_POINT('',(9.466087475,-3.592914747,12.30089118));
#192=CARTESIAN_POINT('',(9.466087475,-3.528186126,12.903516959));
#193=CARTESIAN_POINT('',(9.466087475,-3.511823879,13.400122052));
#194=B_SPLINE_CURVE_WITH_KNOTS('',3,(#190,#191,#192,#193),.UNSPECIFIED.,.F.,.F.,(4,4),(0.,0.747217748),.UNSPECIFIED.);
#195=EDGE_CURVE('',#187,#189,#194,.T.);
#196=ORIENTED_EDGE('',*,*,#195,.F.);
#197=CARTESIAN_POINT('',(9.466087475,-3.848979486,12.05));
#198=CARTESIAN_POINT('',(24.567107989,-3.848979486,12.05));
#199=CARTESIAN_POINT('',(24.567107989,-18.95,12.05));
#200=CARTESIAN_POINT('',(24.567107989,-34.051020514,12.05));
#201=CARTESIAN_POINT('',(9.466087475,-34.051020514,12.05));
#202=CARTESIAN_POINT('',(-5.63493304,-34.051020514,12.05));
#203=CARTESIAN_POINT('',(-5.63493304,-18.95,12.05));
#204=CARTESIAN_POINT('',(-5.63493304,-3.848979486,12.05));
#205=CARTESIAN_POINT('',(9.466087475,-3.848979486,12.05));
#206=(BOUNDED_CURVE()
B_SPLINE_CURVE(2,(#197,#198,#199,#200,#201,#202,#203,#204,#205),.UNSPECIFIED.,.T.,.F.)
B_SPLINE_CURVE_WITH_KNOTS((3,2,2,2,3),(0.,1.570796327,3.141592654,4.71238898,6.283185307),.UNSPECIFIED.)
CURVE()
GEOMETRIC_REPRESENTATION_ITEM()
RATIONAL_B_SPLINE_CURVE((1.,0.707106781,1.,0.707106781,1.,0.707106781,1.,0.707106781,1.))
REPRESENTATION_ITEM(''));
#207=EDGE_CURVE('',#187,#187,#206,.T.);
#208=ORIENTED_EDGE('',*,*,#207,.F.);
#209=ORIENTED_EDGE('',*,*,#195,.T.);
#210=CARTESIAN_POINT('',(24.904263615,-18.95,13.400122644));
#211=VERTEX_POINT('',#210);
#212=CARTESIAN_POINT('',(9.466087475,-3.51182386,13.400122644));
#213=CARTESIAN_POINT('',(-5.972088666,-3.51182386,13.400122644));
#214=CARTESIAN_POINT('',(-5.972088666,-18.95,13.400122644));
#215=CARTESIAN_POINT('',(-5.972088666,-34.38817614,13.400122644));
#216=CARTESIAN_POINT('',(9.466087475,-34.38817614,13.400122644));
#217=CARTESIAN_POINT('',(24.904263615,-34.38817614,13.400122644));
#218=CARTESIAN_POINT('',(24.904263615,-18.95,13.400122644));
#219=CARTESIAN_POINT('',(24.904263615,-3.51182386,13.400122644));
#220=CARTESIAN_POINT('',(9.466087475,-3.51182386,13.400122644));
#221=(BOUNDED_CURVE()
B_SPLINE_CURVE(2,(#212,#213,#214,#215,#216,#217,#218,#219,#220),.UNSPECIFIED.,.T.,.F.)
B_SPLINE_CURVE_WITH_KNOTS((3,2,2,2,3),(4.71238898,6.283185307,7.853981634,9.424777961,10.995574288),.UNSPECIFIED.)
CURVE()
GEOMETRIC_REPRESENTATION_ITEM()
RATIONAL_B_SPLINE_CURVE((1.,0.707106781,1.,0.707106781,1.,0.707106781,1.,0.707106781,1.))
REPRESENTATION_ITEM(''));
#222=EDGE_CURVE('',#211,#189,#221,.T.);
#223=ORIENTED_EDGE('',*,*,#222,.F.);
#224=CARTESIAN_POINT('',(9.466087475,-3.51182386,13.400122644));
#225=CARTESIAN_POINT('',(-5.972088666,-3.51182386,13.400122644));
#226=CARTESIAN_POINT('',(-5.972088666,-18.95,13.400122644));
#227=CARTESIAN_POINT('',(-5.972088666,-34.38817614,13.400122644));
#228=CARTESIAN_POINT('',(9.466087475,-34.38817614,13.400122644));
#229=CARTESIAN_POINT('',(24.904263615,-34.38817614,13.400122644));
#230=CARTESIAN_POINT('',(24.904263615,-18.95,13.400122644));
#231=CARTESIAN_POINT('',(24.904263615,-3.51182386,13.400122644));
#232=CARTESIAN_POINT('',(9.466087475,-3.51182386,13.400122644));
#233=(BOUNDED_CURVE()
B_SPLINE_CURVE(2,(#224,#225,#226,#227,#228,#229,#230,#231,#232),.UNSPECIFIED.,.T.,.F.)
B_SPLINE_CURVE_WITH_KNOTS((3,2,2,2,3),(4.71238898,6.283185307,7.853981634,9.424777961,10.995574288),.UNSPECIFIED.)
CURVE()
GEOMETRIC_REPRESENTATION_ITEM()
RATIONAL_B_SPLINE_CURVE((1.,0.707106781,1.,0.707106781,1.,0.707106781,1.,0.707106781,1.))
REPRESENTATION_ITEM(''));
#234=EDGE_CURVE('',#189,#211,#233,.T.);
#235=ORIENTED_EDGE('',*,*,#234,.F.);
#236=EDGE_LOOP('',(#196,#208,#209,#223,#235));
#237=FACE_BOUND('',#236,.T.);
#238=ADVANCED_FACE('',(#237),#185,.T.);
#239=CARTESIAN_POINT('',(9.466087475,-5.95,7.05));
#240=CARTESIAN_POINT('',(35.466087475,-5.95,7.05));
#241=CARTESIAN_POINT('',(35.466087475,-31.95,7.05));
#242=CARTESIAN_POINT('',(9.466087475,-31.95,7.05));
#243=CARTESIAN_POINT('',(-16.533912525,-31.95,7.05));
#244=CARTESIAN_POINT('',(-16.533912525,-5.95,7.05));
#245=CARTESIAN_POINT('',(9.466087475,-5.95,7.05));
#246=CARTESIAN_POINT('',(9.466087475,-5.95,8.957109193));
#247=CARTESIAN_POINT('',(35.466087475,-5.95,8.957109193));
#248=CARTESIAN_POINT('',(35.466087475,-31.95,8.957109193));
#249=CARTESIAN_POINT('',(9.466087475,-31.95,8.957109193));
#250=CARTESIAN_POINT('',(-16.533912525,-31.95,8.957109193));
#251=CARTESIAN_POINT('',(-16.533912525,-5.95,8.957109193));
#252=CARTESIAN_POINT('',(9.466087475,-5.95,8.957109193));
#253=CARTESIAN_POINT('',(9.466087475,-5.211200338,10.715301598));
#254=CARTESIAN_POINT('',(36.943686799,-5.211200338,10.715301598));
#255=CARTESIAN_POINT('',(36.943686799,-32.688799662,10.715301598));
#256=CARTESIAN_POINT('',(9.466087475,-32.688799662,10.715301598));
#257=CARTESIAN_POINT('',(-18.01151185,-32.688799662,10.715301598));
#258=CARTESIAN_POINT('',(-18.01151185,-5.211200338,10.715301598));
#259=CARTESIAN_POINT('',(9.466087475,-5.211200338,10.715301598));
#260=CARTESIAN_POINT('',(9.466087475,-3.848979486,12.05));
#261=CARTESIAN_POINT('',(39.668128503,-3.848979486,12.05));
#262=CARTESIAN_POINT('',(39.668128503,-34.051020514,12.05));
#263=CARTESIAN_POINT('',(9.466087475,-34.051020514,12.05));
#264=CARTESIAN_POINT('',(-20.735953554,-34.051020514,12.05));
#265=CARTESIAN_POINT('',(-20.735953554,-3.848979486,12.05));
#266=CARTESIAN_POINT('',(9.466087475,-3.848979486,12.05));
#267=(BOUNDED_SURFACE()
B_SPLINE_SURFACE(3,3,((#239,#240,#241,#242,#243,#244,#245),(#246,#247,#248,#249,#250,#251,#252),(#253,#254,#255,#256,#257,#258,#259),(#260,#261,#262,#263,#264,#265,#266)),.UNSPECIFIED.,.F.,.T.,.U.)
B_SPLINE_SURFACE_WITH_KNOTS((4,4),(4,3,4),(0.,1.),(0.,0.5,1.),.UNSPECIFIED.)
GEOMETRIC_REPRESENTATION_ITEM()
RATIONAL_B_SPLINE_SURFACE(((1.,0.333333333,0.333333333,1.,0.333333333,0.333333333,1.),(0.947943275,0.315981092,0.315981092,0.947943275,0.315981092,0.315981092,0.947943275),(0.947943275,0.315981092,0.315981092,0.947943275,0.315981092,0.315981092,0.947943275),(1.,0.333333333,0.333333333,1.,0.333333333,0.333333333,1.)))
REPRESENTATION_ITEM('')
SURFACE()
);
#268=CARTESIAN_POINT('',(9.466087475,-5.95,7.05));
#269=VERTEX_POINT('',#268);
#270=CARTESIAN_POINT('',(9.466087475,-5.95,7.05));
#271=CARTESIAN_POINT('',(9.466087475,-5.95,9.99142872));
#272=CARTESIAN_POINT('',(9.466087475,-3.848979486,12.05));
#273=(BOUNDED_CURVE()
B_SPLINE_CURVE(2,(#270,#271,#272),.UNSPECIFIED.,.F.,.F.)
B_SPLINE_CURVE_WITH_KNOTS((3,3),(5.185869946,5.9814729),.UNSPECIFIED.)
CURVE()
GEOMETRIC_REPRESENTATION_ITEM()
RATIONAL_B_SPLINE_CURVE((1.,0.921914913,1.))
REPRESENTATION_ITEM(''));
#274=EDGE_CURVE('',#269,#187,#273,.T.);
#275=ORIENTED_EDGE('',*,*,#274,.F.);
#276=CARTESIAN_POINT('',(9.466087475,-5.95,7.05));
#277=CARTESIAN_POINT('',(22.466087475,-5.95,7.05));
#278=CARTESIAN_POINT('',(22.466087475,-18.95,7.05));
#279=CARTESIAN_POINT('',(22.466087475,-31.95,7.05));
#280=CARTESIAN_POINT('',(9.466087475,-31.95,7.05));
#281=CARTESIAN_POINT('',(-3.533912525,-31.95,7.05));
#282=CARTESIAN_POINT('',(-3.533912525,-18.95,7.05));
#283=CARTESIAN_POINT('',(-3.533912525,-5.95,7.05));
#284=CARTESIAN_POINT('',(9.466087475,-5.95,7.05));
#285=(BOUNDED_CURVE()
B_SPLINE_CURVE(2,(#276,#277,#278,#279,#280,#281,#282,#283,#284),.UNSPECIFIED.,.T.,.F.)
B_SPLINE_CURVE_WITH_KNOTS((3,2,2,2,3),(0.,1.570796327,3.141592654,4.71238898,6.283185307),.UNSPECIFIED.)
CURVE()
GEOMETRIC_REPRESENTATION_ITEM()
RATIONAL_B_SPLINE_CURVE((1.,0.707106781,1.,0.707106781,1.,0.707106781,1.,0.707106781,1.))
REPRESENTATION_ITEM(''));
#286=EDGE_CURVE('',#269,#269,#285,.T.);
#287=ORIENTED_EDGE('',*,*,#286,.F.);
#288=ORIENTED_EDGE('',*,*,#274,.T.);
#289=ORIENTED_EDGE('',*,*,#207,.T.);
#290=EDGE_LOOP('',(#275,#287,#288,#289));
#291=FACE_BOUND('',#290,.T.);
#292=ADVANCED_FACE('',(#291),#267,.T.);
#293=CARTESIAN_POINT('',(9.466087475,-3.770443236,1.973050505));
#294=CARTESIAN_POINT('',(39.825201003,-3.770443236,1.973050505));
#295=CARTESIAN_POINT('',(39.825201003,-34.129556764,1.973050505));
#296=CARTESIAN_POINT('',(9.466087475,-34.129556764,1.973050505));
#297=CARTESIAN_POINT('',(-20.893026054,-34.129556764,1.973050505));
#298=CARTESIAN_POINT('',(-20.893026054,-3.770443236,1.973050505));
#299=CARTESIAN_POINT('',(9.466087475,-3.770443236,1.973050505));
#300=CARTESIAN_POINT('',(9.466087475,-3.796621986,1.998700336));
#301=CARTESIAN_POINT('',(39.772843503,-3.796621986,1.998700336));
#302=CARTESIAN_POINT('',(39.772843503,-34.103378014,1.998700336));
#303=CARTESIAN_POINT('',(9.466087475,-34.103378014,1.998700336));
#304=CARTESIAN_POINT('',(-20.840668554,-34.103378014,1.998700336));
#305=CARTESIAN_POINT('',(-20.840668554,-3.796621986,1.998700336));
#306=CARTESIAN_POINT('',(9.466087475,-3.796621986,1.998700336));
#307=CARTESIAN_POINT('',(9.466087475,-3.822800736,2.024350168));
#308=CARTESIAN_POINT('',(39.720486003,-3.822800736,2.024350168));
#309=CARTESIAN_POINT('',(39.720486003,-34.077199264,2.024350168));
#310=CARTESIAN_POINT('',(9.466087475,-34.077199264,2.024350168));
#311=CARTESIAN_POINT('',(-20.788311054,-34.077199264,2.024350168));
#312=CARTESIAN_POINT('',(-20.788311054,-3.822800736,2.024350168));
#313=CARTESIAN_POINT('',(9.466087475,-3.822800736,2.024350168));
#314=CARTESIAN_POINT('',(9.466087475,-3.848979486,2.05));
#315=CARTESIAN_POINT('',(39.668128503,-3.848979486,2.05));
#316=CARTESIAN_POINT('',(39.668128503,-34.051020514,2.05));
#317=CARTESIAN_POINT('',(9.466087475,-34.051020514,2.05));
#318=CARTESIAN_POINT('',(-20.735953554,-34.051020514,2.05));
#319=CARTESIAN_POINT('',(-20.735953554,-3.848979486,2.05));
#320=CARTESIAN_POINT('',(9.466087475,-3.848979486,2.05));
#321=CARTESIAN_POINT('',(9.466087475,-5.211200338,3.384698402));
#322=CARTESIAN_POINT('',(36.943686799,-5.211200338,3.384698402));
#323=CARTESIAN_POINT('',(36.943686799,-32.688799662,3.384698402));
#324=CARTESIAN_POINT('',(9.466087475,-32.688799662,3.384698402));
#325=CARTESIAN_POINT('',(-18.01151185,-32.688799662,3.384698402));
#326=CARTESIAN_POINT('',(-18.01151185,-5.211200338,3.384698402));
#327=CARTESIAN_POINT('',(9.466087475,-5.211200338,3.384698402));
#328=CARTESIAN_POINT('',(9.466087475,-5.95,5.142890807));
#329=CARTESIAN_POINT('',(35.466087475,-5.95,5.142890807));
#330=CARTESIAN_POINT('',(35.466087475,-31.95,5.142890807));
#331=CARTESIAN_POINT('',(9.466087475,-31.95,5.142890807));
#332=CARTESIAN_POINT('',(-16.533912525,-31.95,5.142890807));
#333=CARTESIAN_POINT('',(-16.533912525,-5.95,5.142890807));
#334=CARTESIAN_POINT('',(9.466087475,-5.95,5.142890807));
#335=CARTESIAN_POINT('',(9.466087475,-5.95,7.05));
#336=CARTESIAN_POINT('',(35.466087475,-5.95,7.05));
#337=CARTESIAN_POINT('',(35.466087475,-31.95,7.05));
#338=CARTESIAN_POINT('',(9.466087475,-31.95,7.05));
#339=CARTESIAN_POINT('',(-16.533912525,-31.95,7.05));
#340=CARTESIAN_POINT('',(-16.533912525,-5.95,7.05));
#341=CARTESIAN_POINT('',(9.466087475,-5.95,7.05));
#342=(BOUNDED_SURFACE()
B_SPLINE_SURFACE(3,3,((#293,#294,#295,#296,#297,#298,#299),(#300,#301,#302,#303,#304,#305,#306),(#307,#308,#309,#310,#311,#312,#313),(#314,#315,#316,#317,#318,#319,#320),(#321,#322,#323,#324,#325,#326,#327),(#328,#329,#330,#331,#332,#333,#334),(#335,#336,#337,#338,#339,#340,#341)),.UNSPECIFIED.,.F.,.T.,.U.)
B_SPLINE_SURFACE_WITH_KNOTS((4,3,4),(4,3,4),(-0.020273047,0.,1.),(0.,0.5,1.),.UNSPECIFIED.)
GEOMETRIC_REPRESENTATION_ITEM()
RATIONAL_B_SPLINE_SURFACE(((1.,0.333333333,0.333333333,1.,0.333333333,0.333333333,1.),(1.,0.333333333,0.333333333,1.,0.333333333,0.333333333,1.),(1.,0.333333333,0.333333333,1.,0.333333333,0.333333333,1.),(1.,0.333333333,0.333333333,1.,0.333333333,0.333333333,1.),(0.947943275,0.315981092,0.315981092,0.947943275,0.315981092,0.315981092,0.947943275),(0.947943275,0.315981092,0.315981092,0.947943275,0.315981092,0.315981092,0.947943275),(1.,0.333333333,0.333333333,1.,0.333333333,0.333333333,1.)))
REPRESENTATION_ITEM('')
SURFACE()
);
#343=CARTESIAN_POINT('',(9.466087475,-3.770443236,1.973050505));
#344=VERTEX_POINT('',#343);
#345=CARTESIAN_POINT('',(9.466087475,-3.770443236,1.973050505));
#346=CARTESIAN_POINT('',(9.466087475,-3.852786164,2.053729768));
#347=CARTESIAN_POINT('',(9.466087475,-3.93510914,2.134498933));
#348=CARTESIAN_POINT('',(9.466087475,-4.015198093,2.218461086));
#349=CARTESIAN_POINT('',(9.466087475,-4.095287046,2.302423239));
#350=CARTESIAN_POINT('',(9.466087475,-4.173654221,2.388762756));
#351=CARTESIAN_POINT('',(9.466087475,-4.250102141,2.477373043));
#352=CARTESIAN_POINT('',(9.466087475,-4.402997981,2.654593615));
#353=CARTESIAN_POINT('',(9.466087475,-4.54820473,2.840917523));
#354=CARTESIAN_POINT('',(9.466087475,-4.68425699,3.035240135));
#355=CARTESIAN_POINT('',(9.466087475,-4.95636151,3.423885359));
#356=CARTESIAN_POINT('',(9.466087475,-5.19152861,3.844758372));
#357=CARTESIAN_POINT('',(9.466087475,-5.381026923,4.285602649));
#358=CARTESIAN_POINT('',(9.466087475,-5.570525236,4.726446926));
#359=CARTESIAN_POINT('',(9.466087475,-5.714268678,5.18707081));
#360=CARTESIAN_POINT('',(9.466087475,-5.809127795,5.652729125));
#361=CARTESIAN_POINT('',(9.466087475,-5.903986911,6.11838744));
#362=CARTESIAN_POINT('',(9.466087475,-5.95,6.588879604));
#363=CARTESIAN_POINT('',(9.466087475,-5.95,7.05));
#364=B_SPLINE_CURVE_WITH_KNOTS('',3,(#345,#346,#347,#348,#349,#350,#351,#352,#353,#354,#355,#356,#357,#358,#359,#360,#361,#362,#363),.UNSPECIFIED.,.F.,.F.,(4,3,3,3,3,3,4),(-0.020273047,0.043494018,0.107261084,0.234795215,0.489863476,0.744931738,1.),.UNSPECIFIED.);
#365=EDGE_CURVE('',#344,#269,#364,.T.);
#366=ORIENTED_EDGE('',*,*,#365,.T.);
#367=ORIENTED_EDGE('',*,*,#286,.T.);
#368=ORIENTED_EDGE('',*,*,#365,.F.);
#369=CARTESIAN_POINT('',(9.466087475,-3.770443236,1.973050505));
#370=CARTESIAN_POINT('',(24.645644239,-3.770443236,1.973050505));
#371=CARTESIAN_POINT('',(24.645644239,-18.95,1.973050505));
#372=CARTESIAN_POINT('',(24.645644239,-34.129556764,1.973050505));
#373=CARTESIAN_POINT('',(9.466087475,-34.129556764,1.973050505));
#374=CARTESIAN_POINT('',(-5.71346929,-34.129556764,1.973050505));
#375=CARTESIAN_POINT('',(-5.71346929,-18.95,1.973050505));
#376=CARTESIAN_POINT('',(-5.71346929,-3.770443236,1.973050505));
#377=CARTESIAN_POINT('',(9.466087475,-3.770443236,1.973050505));
#378=(BOUNDED_CURVE()
B_SPLINE_CURVE(2,(#369,#370,#371,#372,#373,#374,#375,#376,#377),.UNSPECIFIED.,.T.,.F.)
B_SPLINE_CURVE_WITH_KNOTS((3,2,2,2,3),(0.,1.570796327,3.141592654,4.71238898,6.283185307),.UNSPECIFIED.)
CURVE()
GEOMETRIC_REPRESENTATION_ITEM()
RATIONAL_B_SPLINE_CURVE((1.,0.707106781,1.,0.707106781,1.,0.707106781,1.,0.707106781,1.))
REPRESENTATION_ITEM(''));
#379=EDGE_CURVE('',#344,#344,#378,.T.);
#380=ORIENTED_EDGE('',*,*,#379,.F.);
#381=EDGE_LOOP('',(#366,#367,#368,#380));
#382=FACE_BOUND('',#381,.T.);
#383=ADVANCED_FACE('',(#382),#342,.T.);
#384=CARTESIAN_POINT('',(-5.581584473,-33.997671948,1.65));
#385=CARTESIAN_POINT('',(-5.581584473,-3.902328052,1.65));
#386=CARTESIAN_POINT('',(24.513759422,-33.997671948,1.65));
#387=CARTESIAN_POINT('',(24.513759422,-3.902328052,1.65));
#388=B_SPLINE_SURFACE_WITH_KNOTS('',1,1,((#384,#385),(#386,#387)),.UNSPECIFIED.,.F.,.F.,.U.,(2,2),(2,2),(-0.015047672,0.015047672),(-0.015047672,0.015047672),.UNSPECIFIED.);
#389=CARTESIAN_POINT('',(9.466087475,-3.902328052,1.65));
#390=VERTEX_POINT('',#389);
#391=CARTESIAN_POINT('',(9.466087475,-3.902328052,1.65));
#392=CARTESIAN_POINT('',(-5.581584473,-3.902328052,1.65));
#393=CARTESIAN_POINT('',(-5.581584473,-18.95,1.65));
#394=CARTESIAN_POINT('',(-5.581584473,-33.997671948,1.65));
#395=CARTESIAN_POINT('',(9.466087475,-33.997671948,1.65));
#396=CARTESIAN_POINT('',(24.513759422,-33.997671948,1.65));
#397=CARTESIAN_POINT('',(24.513759422,-18.95,1.65));
#398=CARTESIAN_POINT('',(24.513759422,-3.902328052,1.65));
#399=CARTESIAN_POINT('',(9.466087475,-3.902328052,1.65));
#400=(BOUNDED_CURVE()
B_SPLINE_CURVE(2,(#391,#392,#393,#394,#395,#396,#397,#398,#399),.UNSPECIFIED.,.T.,.F.)
B_SPLINE_CURVE_WITH_KNOTS((3,2,2,2,3),(3.141592654,4.71238898,6.283185307,7.853981634,9.424777961),.UNSPECIFIED.)
CURVE()
GEOMETRIC_REPRESENTATION_ITEM()
RATIONAL_B_SPLINE_CURVE((1.,0.707106781,1.,0.707106781,1.,0.707106781,1.,0.707106781,1.))
REPRESENTATION_ITEM(''));
#401=EDGE_CURVE('',#390,#390,#400,.T.);
#402=ORIENTED_EDGE('',*,*,#401,.F.);
#403=EDGE_LOOP('',(#402));
#404=FACE_BOUND('',#403,.T.);
#405=CARTESIAN_POINT('',(-1.033912525,-18.95,1.65));
#406=VERTEX_POINT('',#405);
#407=CARTESIAN_POINT('',(9.466087475,-29.45,1.65));
#408=VERTEX_POINT('',#407);
#409=CARTESIAN_POINT('',(9.466087475,-29.45,1.65));
#410=CARTESIAN_POINT('',(-1.033912525,-29.45,1.65));
#411=CARTESIAN_POINT('',(-1.033912525,-18.95,1.65));
#412=CARTESIAN_POINT('',(-1.033912525,-8.45,1.65));
#413=CARTESIAN_POINT('',(9.466087475,-8.45,1.65));
#414=CARTESIAN_POINT('',(19.966087475,-8.45,1.65));
#415=CARTESIAN_POINT('',(19.966087475,-18.95,1.65));
#416=CARTESIAN_POINT('',(19.966087475,-29.45,1.65));
#417=CARTESIAN_POINT('',(9.466087475,-29.45,1.65));
#418=(BOUNDED_CURVE()
B_SPLINE_CURVE(2,(#409,#410,#411,#412,#413,#414,#415,#416,#417),.UNSPECIFIED.,.T.,.F.)
B_SPLINE_CURVE_WITH_KNOTS((3,2,2,2,3),(0.,1.570796327,3.141592654,4.71238898,6.283185307),.UNSPECIFIED.)
CURVE()
GEOMETRIC_REPRESENTATION_ITEM()
RATIONAL_B_SPLINE_CURVE((1.,0.707106781,1.,0.707106781,1.,0.707106781,1.,0.707106781,1.))
REPRESENTATION_ITEM(''));
#419=EDGE_CURVE('',#406,#408,#418,.T.);
#420=ORIENTED_EDGE('',*,*,#419,.F.);
#421=CARTESIAN_POINT('',(9.466087475,-29.45,1.65));
#422=CARTESIAN_POINT('',(-1.033912525,-29.45,1.65));
#423=CARTESIAN_POINT('',(-1.033912525,-18.95,1.65));
#424=CARTESIAN_POINT('',(-1.033912525,-8.45,1.65));
#425=CARTESIAN_POINT('',(9.466087475,-8.45,1.65));
#426=CARTESIAN_POINT('',(19.966087475,-8.45,1.65));
#427=CARTESIAN_POINT('',(19.966087475,-18.95,1.65));
#428=CARTESIAN_POINT('',(19.966087475,-29.45,1.65));
#429=CARTESIAN_POINT('',(9.466087475,-29.45,1.65));
#430=(BOUNDED_CURVE()
B_SPLINE_CURVE(2,(#421,#422,#423,#424,#425,#426,#427,#428,#429),.UNSPECIFIED.,.T.,.F.)
B_SPLINE_CURVE_WITH_KNOTS((3,2,2,2,3),(0.,1.570796327,3.141592654,4.71238898,6.283185307),.UNSPECIFIED.)
CURVE()
GEOMETRIC_REPRESENTATION_ITEM()
RATIONAL_B_SPLINE_CURVE((1.,0.707106781,1.,0.707106781,1.,0.707106781,1.,0.707106781,1.))
REPRESENTATION_ITEM(''));
#431=EDGE_CURVE('',#408,#406,#430,.T.);
#432=ORIENTED_EDGE('',*,*,#431,.F.);
#433=EDGE_LOOP('',(#420,#432));
#434=FACE_BOUND('',#433,.T.);
#435=ADVANCED_FACE('',(#404,#434),#388,.F.);
#436=CARTESIAN_POINT('',(10.496087475,-18.95,6.05));
#437=CARTESIAN_POINT('',(10.496087475,-18.95,13.85));
#438=CARTESIAN_POINT('',(10.496087475,-17.165987668,6.05));
#439=CARTESIAN_POINT('',(10.496087475,-17.165987668,13.85));
#440=CARTESIAN_POINT('',(8.951087475,-18.057993834,6.05));
#441=CARTESIAN_POINT('',(8.951087475,-18.057993834,13.85));
#442=CARTESIAN_POINT('',(7.406087475,-18.95,6.05));
#443=CARTESIAN_POINT('',(7.406087475,-18.95,13.85));
#444=CARTESIAN_POINT('',(8.951087475,-19.842006166,6.05));
#445=CARTESIAN_POINT('',(8.951087475,-19.842006166,13.85));
#446=CARTESIAN_POINT('',(10.496087475,-20.734012332,6.05));
#447=CARTESIAN_POINT('',(10.496087475,-20.734012332,13.85));
#448=CARTESIAN_POINT('',(10.496087475,-18.95,6.05));
#449=CARTESIAN_POINT('',(10.496087475,-18.95,13.85));
#450=(BOUNDED_SURFACE()
B_SPLINE_SURFACE(2,1,((#436,#437),(#438,#439),(#440,#441),(#442,#443),(#444,#445),(#446,#447),(#448,#449)),.UNSPECIFIED.,.T.,.F.,.U.)
B_SPLINE_SURFACE_WITH_KNOTS((3,2,2,3),(2,2),(0.,2.094395102,4.188790205,6.283185307),(0.031466821,0.039266821),.UNSPECIFIED.)
GEOMETRIC_REPRESENTATION_ITEM()
RATIONAL_B_SPLINE_SURFACE(((1.,1.),(0.5,0.5),(1.,1.),(0.5,0.5),(1.,1.),(0.5,0.5),(1.,1.)))
REPRESENTATION_ITEM('')
SURFACE()
);
#451=CARTESIAN_POINT('',(10.496087475,-18.95,6.05));
#452=VERTEX_POINT('',#451);
#453=CARTESIAN_POINT('',(10.496087475,-18.95,13.85));
#454=CARTESIAN_POINT('',(10.496087475,-18.95,6.05));
#455=B_SPLINE_CURVE_WITH_KNOTS('',1,(#453,#454),.UNSPECIFIED.,.F.,.F.,(2,2),(0.031466821,0.039266821),.UNSPECIFIED.);
#456=EDGE_CURVE('',#129,#452,#455,.T.);
#457=ORIENTED_EDGE('',*,*,#456,.F.);
#458=ORIENTED_EDGE('',*,*,#140,.F.);
#459=ORIENTED_EDGE('',*,*,#152,.F.);
#460=ORIENTED_EDGE('',*,*,#456,.T.);
#461=CARTESIAN_POINT('',(10.496087475,-18.95,6.05));
#462=CARTESIAN_POINT('',(10.496087475,-17.92,6.05));
#463=CARTESIAN_POINT('',(9.466087475,-17.92,6.05));
#464=CARTESIAN_POINT('',(8.436087475,-17.92,6.05));
#465=CARTESIAN_POINT('',(8.436087475,-18.95,6.05));
#466=CARTESIAN_POINT('',(8.436087475,-19.98,6.05));
#467=CARTESIAN_POINT('',(9.466087475,-19.98,6.05));
#468=CARTESIAN_POINT('',(10.496087475,-19.98,6.05));
#469=CARTESIAN_POINT('',(10.496087475,-18.95,6.05));
#470=(BOUNDED_CURVE()
B_SPLINE_CURVE(2,(#461,#462,#463,#464,#465,#466,#467,#468,#469),.UNSPECIFIED.,.T.,.F.)
B_SPLINE_CURVE_WITH_KNOTS((3,2,2,2,3),(0.,1.570796327,3.141592654,4.71238898,6.283185307),.UNSPECIFIED.)
CURVE()
GEOMETRIC_REPRESENTATION_ITEM()
RATIONAL_B_SPLINE_CURVE((1.,0.707106781,1.,0.707106781,1.,0.707106781,1.,0.707106781,1.))
REPRESENTATION_ITEM(''));
#471=EDGE_CURVE('',#452,#452,#470,.T.);
#472=ORIENTED_EDGE('',*,*,#471,.F.);
#473=EDGE_LOOP('',(#457,#458,#459,#460,#472));
#474=FACE_BOUND('',#473,.T.);
#475=ADVANCED_FACE('',(#474),#450,.F.);
#476=CARTESIAN_POINT('',(-1.033912526,-31.66591469,6.05));
#477=CARTESIAN_POINT('',(-1.033912526,-6.23408531,6.05));
#478=CARTESIAN_POINT('',(22.182002164,-31.66591469,6.05));
#479=CARTESIAN_POINT('',(22.182002164,-6.23408531,6.05));
#480=B_SPLINE_SURFACE_WITH_KNOTS('',1,1,((#476,#477),(#478,#479)),.UNSPECIFIED.,.F.,.F.,.U.,(2,2),(2,2),(-0.0105,0.012715915),(-0.012715915,0.012715915),.UNSPECIFIED.);
#481=CARTESIAN_POINT('',(11.989807163,-8.757804999,6.05));
#482=VERTEX_POINT('',#481);
#483=CARTESIAN_POINT('',(-1.033912525,-18.95,6.05));
#484=VERTEX_POINT('',#483);
#485=CARTESIAN_POINT('',(11.989807163,-8.757804999,6.05));
#486=CARTESIAN_POINT('',(22.182002164,-11.281524688,6.05));
#487=CARTESIAN_POINT('',(19.658282475,-21.473719689,6.05));
#488=CARTESIAN_POINT('',(17.134562786,-31.66591469,6.05));
#489=CARTESIAN_POINT('',(6.942367786,-29.142195001,6.05));
#490=CARTESIAN_POINT('',(-3.249827215,-26.618475312,6.05));
#491=CARTESIAN_POINT('',(-0.726107526,-16.426280311,6.05));
#492=CARTESIAN_POINT('',(1.797612163,-6.23408531,6.05));
#493=CARTESIAN_POINT('',(11.989807163,-8.757804999,6.05));
#494=(BOUNDED_CURVE()
B_SPLINE_CURVE(2,(#485,#486,#487,#488,#489,#490,#491,#492,#493),.UNSPECIFIED.,.T.,.F.)
B_SPLINE_CURVE_WITH_KNOTS((3,2,2,2,3),(0.,1.570796327,3.141592654,4.71238898,6.283185307),.UNSPECIFIED.)
CURVE()
GEOMETRIC_REPRESENTATION_ITEM()
RATIONAL_B_SPLINE_CURVE((1.,0.707106781,1.,0.707106781,1.,0.707106781,1.,0.707106781,1.))
REPRESENTATION_ITEM(''));
#495=EDGE_CURVE('',#482,#484,#494,.T.);
#496=ORIENTED_EDGE('',*,*,#495,.T.);
#497=CARTESIAN_POINT('',(11.989807163,-8.757804999,6.05));
#498=CARTESIAN_POINT('',(22.182002164,-11.281524688,6.05));
#499=CARTESIAN_POINT('',(19.658282475,-21.473719689,6.05));
#500=CARTESIAN_POINT('',(17.134562786,-31.66591469,6.05));
#501=CARTESIAN_POINT('',(6.942367786,-29.142195001,6.05));
#502=CARTESIAN_POINT('',(-3.249827215,-26.618475312,6.05));
#503=CARTESIAN_POINT('',(-0.726107526,-16.426280311,6.05));
#504=CARTESIAN_POINT('',(1.797612163,-6.23408531,6.05));
#505=CARTESIAN_POINT('',(11.989807163,-8.757804999,6.05));
#506=(BOUNDED_CURVE()
B_SPLINE_CURVE(2,(#497,#498,#499,#500,#501,#502,#503,#504,#505),.UNSPECIFIED.,.T.,.F.)
B_SPLINE_CURVE_WITH_KNOTS((3,2,2,2,3),(0.,1.570796327,3.141592654,4.71238898,6.283185307),.UNSPECIFIED.)
CURVE()
GEOMETRIC_REPRESENTATION_ITEM()
RATIONAL_B_SPLINE_CURVE((1.,0.707106781,1.,0.707106781,1.,0.707106781,1.,0.707106781,1.))
REPRESENTATION_ITEM(''));
#507=EDGE_CURVE('',#484,#482,#506,.T.);
#508=ORIENTED_EDGE('',*,*,#507,.T.);
#509=EDGE_LOOP('',(#496,#508));
#510=FACE_BOUND('',#509,.T.);
#511=ORIENTED_EDGE('',*,*,#471,.T.);
#512=EDGE_LOOP('',(#511));
#513=FACE_BOUND('',#512,.T.);
#514=ADVANCED_FACE('',(#510,#513),#480,.F.);
#515=CARTESIAN_POINT('',(-1.033912525,-18.95,6.05));
#516=CARTESIAN_POINT('',(-1.033912525,-18.95,1.65));
#517=CARTESIAN_POINT('',(-1.033912525,-0.763466521,6.05));
#518=CARTESIAN_POINT('',(-1.033912525,-0.763466521,1.65));
#519=CARTESIAN_POINT('',(14.716087475,-9.85673326,6.05));
#520=CARTESIAN_POINT('',(14.716087475,-9.85673326,1.65));
#521=CARTESIAN_POINT('',(30.466087475,-18.95,6.05));
#522=CARTESIAN_POINT('',(30.466087475,-18.95,1.65));
#523=CARTESIAN_POINT('',(14.716087475,-28.04326674,6.05));
#524=CARTESIAN_POINT('',(14.716087475,-28.04326674,1.65));
#525=CARTESIAN_POINT('',(-1.033912525,-37.136533479,6.05));
#526=CARTESIAN_POINT('',(-1.033912525,-37.136533479,1.65));
#527=CARTESIAN_POINT('',(-1.033912525,-18.95,6.05));
#528=CARTESIAN_POINT('',(-1.033912525,-18.95,1.65));
#529=(BOUNDED_SURFACE()
B_SPLINE_SURFACE(2,1,((#515,#516),(#517,#518),(#519,#520),(#521,#522),(#523,#524),(#525,#526),(#527,#528)),.UNSPECIFIED.,.T.,.F.,.U.)
B_SPLINE_SURFACE_WITH_KNOTS((3,2,2,3),(2,2),(0.,2.094395102,4.188790205,6.283185307),(-0.,0.0044),.UNSPECIFIED.)
GEOMETRIC_REPRESENTATION_ITEM()
RATIONAL_B_SPLINE_SURFACE(((1.,1.),(0.5,0.5),(1.,1.),(0.5,0.5),(1.,1.),(0.5,0.5),(1.,1.)))
REPRESENTATION_ITEM('')
SURFACE()
);
#530=CARTESIAN_POINT('',(-1.033912525,-18.95,1.65));
#531=CARTESIAN_POINT('',(-1.033912525,-18.95,6.05));
#532=B_SPLINE_CURVE_WITH_KNOTS('',1,(#530,#531),.UNSPECIFIED.,.F.,.F.,(2,2),(-0.,0.0044),.UNSPECIFIED.);
#533=EDGE_CURVE('',#406,#484,#532,.T.);
#534=ORIENTED_EDGE('',*,*,#533,.F.);
#535=ORIENTED_EDGE('',*,*,#419,.T.);
#536=ORIENTED_EDGE('',*,*,#431,.T.);
#537=ORIENTED_EDGE('',*,*,#533,.T.);
#538=ORIENTED_EDGE('',*,*,#495,.F.);
#539=ORIENTED_EDGE('',*,*,#507,.F.);
#540=EDGE_LOOP('',(#534,#535,#536,#537,#538,#539));
#541=FACE_BOUND('',#540,.T.);
#542=ADVANCED_FACE('',(#541),#529,.F.);
#543=CARTESIAN_POINT('',(24.904263615,-18.95,13.400122644));
#544=CARTESIAN_POINT('',(24.904499826,-18.95,13.407291842));
#545=CARTESIAN_POINT('',(24.904499826,-18.95,13.414464929));
#546=CARTESIAN_POINT('',(24.904263615,-3.51182386,13.400122644));
#547=CARTESIAN_POINT('',(24.904499826,-3.511587648,13.407291842));
#548=CARTESIAN_POINT('',(24.904499826,-3.511587648,13.414464929));
#549=CARTESIAN_POINT('',(9.466087474,-3.51182386,13.400122644));
#550=CARTESIAN_POINT('',(9.466087474,-3.511587648,13.407291842));
#551=CARTESIAN_POINT('',(9.466087474,-3.511587648,13.414464929));
#552=(BOUNDED_SURFACE()
B_SPLINE_SURFACE(2,2,((#543,#544,#545),(#546,#547,#548),(#549,#550,#551)),.UNSPECIFIED.,.F.,.F.,.U.)
B_SPLINE_SURFACE_WITH_KNOTS((3,3),(3,3),(0.,1.533203626),(6.246846956,6.283185307),.UNSPECIFIED.)
GEOMETRIC_REPRESENTATION_ITEM()
RATIONAL_B_SPLINE_SURFACE(((0.986762079,0.993224292,1.),(0.625582091,0.62967897,0.633974596),(0.793206307,0.798400941,0.803847577)))
REPRESENTATION_ITEM('')
SURFACE()
);
#553=CARTESIAN_POINT('',(9.466087475,-3.511587648,13.414464929));
#554=VERTEX_POINT('',#553);
#555=CARTESIAN_POINT('',(24.904499826,-18.95,13.414464929));
#556=VERTEX_POINT('',#555);
#557=CARTESIAN_POINT('',(9.466087475,-3.511587648,13.414464929));
#558=CARTESIAN_POINT('',(24.904499826,-3.511587648,13.414464929));
#559=CARTESIAN_POINT('',(24.904499826,-18.95,13.414464929));
#560=(BOUNDED_CURVE()
B_SPLINE_CURVE(2,(#557,#558,#559),.UNSPECIFIED.,.F.,.F.)
B_SPLINE_CURVE_WITH_KNOTS((3,3),(4.749981681,6.283185307),.UNSPECIFIED.)
CURVE()
GEOMETRIC_REPRESENTATION_ITEM()
RATIONAL_B_SPLINE_CURVE((0.803847577,0.633974596,1.))
REPRESENTATION_ITEM(''));
#561=EDGE_CURVE('',#554,#556,#560,.T.);
#562=ORIENTED_EDGE('',*,*,#561,.T.);
#563=CARTESIAN_POINT('',(24.904499826,-18.95,13.414464929));
#564=CARTESIAN_POINT('',(24.904499826,-18.95,13.407291842));
#565=CARTESIAN_POINT('',(24.904263615,-18.95,13.400122644));
#566=(BOUNDED_CURVE()
B_SPLINE_CURVE(2,(#563,#564,#565),.UNSPECIFIED.,.F.,.F.)
B_SPLINE_CURVE_WITH_KNOTS((3,3),(0.,0.036338351),.UNSPECIFIED.)
CURVE()
GEOMETRIC_REPRESENTATION_ITEM()
RATIONAL_B_SPLINE_CURVE((1.,0.993224292,0.986762079))
REPRESENTATION_ITEM(''));
#567=EDGE_CURVE('',#556,#211,#566,.T.);
#568=ORIENTED_EDGE('',*,*,#567,.T.);
#569=ORIENTED_EDGE('',*,*,#222,.T.);
#570=CARTESIAN_POINT('',(9.466087475,-3.51182386,13.400122644));
#571=CARTESIAN_POINT('',(9.466087475,-3.505744257,13.584643041));
#572=CARTESIAN_POINT('',(9.466087475,-3.634123225,13.717321521));
#573=CARTESIAN_POINT('',(9.466087475,-3.762502194,13.85));
#574=CARTESIAN_POINT('',(9.466087475,-3.947122719,13.85));
#575=(BOUNDED_CURVE()
B_SPLINE_CURVE(2,(#570,#571,#572,#573,#574),.UNSPECIFIED.,.F.,.F.)
B_SPLINE_CURVE_WITH_KNOTS((3,2,3),(4.679452762,5.481319034,6.283185307),.UNSPECIFIED.)
CURVE()
GEOMETRIC_REPRESENTATION_ITEM()
RATIONAL_B_SPLINE_CURVE((1.,0.920697213,1.,0.920697213,1.))
REPRESENTATION_ITEM(''));
#576=EDGE_CURVE('',#189,#554,#575,.T.);
#577=ORIENTED_EDGE('',*,*,#576,.T.);
#578=EDGE_LOOP('',(#562,#568,#569,#577));
#579=FACE_BOUND('',#578,.T.);
#580=ADVANCED_FACE('',(#579),#552,.T.);
#581=CARTESIAN_POINT('',(9.466087475,-3.770443236,1.973050505));
#582=CARTESIAN_POINT('',(9.466087475,-3.713881924,1.917631964));
#583=CARTESIAN_POINT('',(9.466087475,-3.713881924,1.838446128));
#584=CARTESIAN_POINT('',(35.757851027,-3.770443236,1.973050505));
#585=CARTESIAN_POINT('',(35.855818092,-3.713881924,1.917631964));
#586=CARTESIAN_POINT('',(35.855818092,-3.713881924,1.838446128));
#587=CARTESIAN_POINT('',(22.611969251,-26.539778382,1.973050505));
#588=CARTESIAN_POINT('',(22.660952783,-26.568059038,1.917631964));
#589=CARTESIAN_POINT('',(22.660952783,-26.568059038,1.838446128));
#590=CARTESIAN_POINT('',(9.466087475,-49.309113528,1.973050505));
#591=CARTESIAN_POINT('',(9.466087475,-49.422236151,1.917631964));
#592=CARTESIAN_POINT('',(9.466087475,-49.422236151,1.838446128));
#593=CARTESIAN_POINT('',(-3.679794301,-26.539778382,1.973050505));
#594=CARTESIAN_POINT('',(-3.728777834,-26.568059038,1.917631964));
#595=CARTESIAN_POINT('',(-3.728777834,-26.568059038,1.838446128));
#596=CARTESIAN_POINT('',(-16.825676078,-3.770443236,1.973050505));
#597=CARTESIAN_POINT('',(-16.923643143,-3.713881924,1.917631964));
#598=CARTESIAN_POINT('',(-16.923643143,-3.713881924,1.838446128));
#599=CARTESIAN_POINT('',(9.466087475,-3.770443236,1.973050505));
#600=CARTESIAN_POINT('',(9.466087475,-3.713881924,1.917631964));
#601=CARTESIAN_POINT('',(9.466087475,-3.713881924,1.838446128));
#602=(BOUNDED_SURFACE()
B_SPLINE_SURFACE(2,2,((#581,#582,#583),(#584,#585,#586),(#587,#588,#589),(#590,#591,#592),(#593,#594,#595),(#596,#597,#598),(#599,#600,#601)),.UNSPECIFIED.,.T.,.F.,.U.)
B_SPLINE_SURFACE_WITH_KNOTS((3,2,2,3),(3,3),(0.,2.094395102,4.188790205,6.283185307),(5.488112312,6.283185307),.UNSPECIFIED.)
GEOMETRIC_REPRESENTATION_ITEM()
RATIONAL_B_SPLINE_SURFACE(((0.853575613,0.851749406,1.),(0.426787806,0.425874703,0.5),(0.853575613,0.851749406,1.),(0.426787806,0.425874703,0.5),(0.853575613,0.851749406,1.),(0.426787806,0.425874703,0.5),(0.853575613,0.851749406,1.)))
REPRESENTATION_ITEM('')
SURFACE()
);
#603=CARTESIAN_POINT('',(9.466087475,-3.713881924,1.838446128));
#604=VERTEX_POINT('',#603);
#605=CARTESIAN_POINT('',(9.466087475,-3.713881924,1.838446128));
#606=CARTESIAN_POINT('',(-16.923643143,-3.713881924,1.838446128));
#607=CARTESIAN_POINT('',(-3.728777834,-26.568059038,1.838446128));
#608=CARTESIAN_POINT('',(9.466087475,-49.422236151,1.838446128));
#609=CARTESIAN_POINT('',(22.660952783,-26.568059038,1.838446128));
#610=CARTESIAN_POINT('',(35.855818092,-3.713881924,1.838446128));
#611=CARTESIAN_POINT('',(9.466087475,-3.713881924,1.838446128));
#612=(BOUNDED_CURVE()
B_SPLINE_CURVE(2,(#605,#606,#607,#608,#609,#610,#611),.UNSPECIFIED.,.T.,.F.)
B_SPLINE_CURVE_WITH_KNOTS((3,2,2,3),(0.,2.094395102,4.188790205,6.283185307),.UNSPECIFIED.)
CURVE()
GEOMETRIC_REPRESENTATION_ITEM()
RATIONAL_B_SPLINE_CURVE((1.,0.5,1.,0.5,1.,0.5,1.))
REPRESENTATION_ITEM(''));
#613=EDGE_CURVE('',#604,#604,#612,.T.);
#614=ORIENTED_EDGE('',*,*,#613,.T.);
#615=CARTESIAN_POINT('',(9.466087475,-3.902328052,1.65));
#616=CARTESIAN_POINT('',(9.466087475,-3.77571578,1.65));
#617=CARTESIAN_POINT('',(9.466087475,-3.727860839,1.767220186));
#618=CARTESIAN_POINT('',(9.466087475,-3.680005899,1.884440373));
#619=CARTESIAN_POINT('',(9.466087475,-3.770443236,1.973050505));
#620=(BOUNDED_CURVE()
B_SPLINE_CURVE(2,(#615,#616,#617,#618,#619),.UNSPECIFIED.,.F.,.F.)
B_SPLINE_CURVE_WITH_KNOTS((3,2,3),(6.283185307,7.466384947,8.649584587),.UNSPECIFIED.)
CURVE()
GEOMETRIC_REPRESENTATION_ITEM()
RATIONAL_B_SPLINE_CURVE((1.,0.830049539,1.,0.830049539,1.))
REPRESENTATION_ITEM(''));
#621=EDGE_CURVE('',#604,#344,#620,.T.);
#622=ORIENTED_EDGE('',*,*,#621,.T.);
#623=ORIENTED_EDGE('',*,*,#379,.T.);
#624=ORIENTED_EDGE('',*,*,#621,.F.);
#625=EDGE_LOOP('',(#614,#622,#623,#624));
#626=FACE_BOUND('',#625,.T.);
#627=ADVANCED_FACE('',(#626),#602,.T.);
#628=CARTESIAN_POINT('',(24.904499826,-18.95,13.414464929));
#629=CARTESIAN_POINT('',(24.904499826,-18.95,13.85));
#630=CARTESIAN_POINT('',(24.468964756,-18.95,13.85));
#631=CARTESIAN_POINT('',(24.904499826,-3.511587648,13.414464929));
#632=CARTESIAN_POINT('',(24.904499826,-3.511587648,13.85));
#633=CARTESIAN_POINT('',(24.468964756,-3.947122719,13.85));
#634=CARTESIAN_POINT('',(9.466087474,-3.511587648,13.414464929));
#635=CARTESIAN_POINT('',(9.466087474,-3.511587648,13.85));
#636=CARTESIAN_POINT('',(9.466087475,-3.947122719,13.85));
#637=(BOUNDED_SURFACE()
B_SPLINE_SURFACE(2,2,((#628,#629,#630),(#631,#632,#633),(#634,#635,#636)),.UNSPECIFIED.,.F.,.F.,.U.)
B_SPLINE_SURFACE_WITH_KNOTS((3,3),(3,3),(0.,1.533203626),(0.,1.570796327),.UNSPECIFIED.)
GEOMETRIC_REPRESENTATION_ITEM()
RATIONAL_B_SPLINE_SURFACE(((1.,0.707106781,1.),(0.633974596,0.448287736,0.633974596),(0.803847577,0.568406073,0.803847577)))
REPRESENTATION_ITEM('')
SURFACE()
);
#638=ORIENTED_EDGE('',*,*,#561,.F.);
#639=CARTESIAN_POINT('',(9.466087475,-3.51182386,13.400122644));
#640=CARTESIAN_POINT('',(9.466087475,-3.505744257,13.584643041));
#641=CARTESIAN_POINT('',(9.466087475,-3.634123225,13.717321521));
#642=CARTESIAN_POINT('',(9.466087475,-3.762502194,13.85));
#643=CARTESIAN_POINT('',(9.466087475,-3.947122719,13.85));
#644=(BOUNDED_CURVE()
B_SPLINE_CURVE(2,(#639,#640,#641,#642,#643),.UNSPECIFIED.,.F.,.F.)
B_SPLINE_CURVE_WITH_KNOTS((3,2,3),(4.679452762,5.481319034,6.283185307),.UNSPECIFIED.)
CURVE()
GEOMETRIC_REPRESENTATION_ITEM()
RATIONAL_B_SPLINE_CURVE((1.,0.920697213,1.,0.920697213,1.))
REPRESENTATION_ITEM(''));
#645=EDGE_CURVE('',#554,#99,#644,.T.);
#646=ORIENTED_EDGE('',*,*,#645,.T.);
#647=ORIENTED_EDGE('',*,*,#122,.T.);
#648=CARTESIAN_POINT('',(24.468964756,-18.95,13.85));
#649=CARTESIAN_POINT('',(24.904499826,-18.95,13.85));
#650=CARTESIAN_POINT('',(24.904499826,-18.95,13.414464929));
#651=(BOUNDED_CURVE()
B_SPLINE_CURVE(2,(#648,#649,#650),.UNSPECIFIED.,.F.,.F.)
B_SPLINE_CURVE_WITH_KNOTS((3,3),(4.71238898,6.283185307),.UNSPECIFIED.)
CURVE()
GEOMETRIC_REPRESENTATION_ITEM()
RATIONAL_B_SPLINE_CURVE((1.,0.707106781,1.))
REPRESENTATION_ITEM(''));
#652=EDGE_CURVE('',#97,#556,#651,.T.);
#653=ORIENTED_EDGE('',*,*,#652,.T.);
#654=EDGE_LOOP('',(#638,#646,#647,#653));
#655=FACE_BOUND('',#654,.T.);
#656=ADVANCED_FACE('',(#655),#637,.T.);
#657=CARTESIAN_POINT('',(9.466087475,-3.51182386,13.400122644));
#658=CARTESIAN_POINT('',(9.466087475,-3.511587648,13.407291842));
#659=CARTESIAN_POINT('',(9.466087475,-3.511587648,13.414464929));
#660=CARTESIAN_POINT('',(5.329440645,-3.51182386,13.400122644));
#661=CARTESIAN_POINT('',(5.329377352,-3.511587648,13.407291842));
#662=CARTESIAN_POINT('',(5.329377352,-3.511587648,13.414464929));
#663=CARTESIAN_POINT('',(1.746999404,-5.580147275,13.400122644));
#664=CARTESIAN_POINT('',(1.746881299,-5.579942709,13.407291842));
#665=CARTESIAN_POINT('',(1.746881299,-5.579942709,13.414464929));
#666=CARTESIAN_POINT('',(-21.410264806,-18.95,13.400122644));
#667=CARTESIAN_POINT('',(-21.410737229,-18.95,13.407291842));
#668=CARTESIAN_POINT('',(-21.410737229,-18.95,13.414464929));
#669=CARTESIAN_POINT('',(1.746999404,-32.319852725,13.400122644));
#670=CARTESIAN_POINT('',(1.746881299,-32.320057291,13.407291842));
#671=CARTESIAN_POINT('',(1.746881299,-32.320057291,13.414464929));
#672=CARTESIAN_POINT('',(24.904263615,-45.689705451,13.400122644));
#673=CARTESIAN_POINT('',(24.904499826,-45.690114581,13.407291842));
#674=CARTESIAN_POINT('',(24.904499826,-45.690114581,13.414464929));
#675=CARTESIAN_POINT('',(24.904263615,-18.95,13.400122644));
#676=CARTESIAN_POINT('',(24.904499826,-18.95,13.407291842));
#677=CARTESIAN_POINT('',(24.904499826,-18.95,13.414464929));
#678=(BOUNDED_SURFACE()
B_SPLINE_SURFACE(2,2,((#657,#658,#659),(#660,#661,#662),(#663,#664,#665),(#666,#667,#668),(#669,#670,#671),(#672,#673,#674),(#675,#676,#677)),.UNSPECIFIED.,.F.,.F.,.U.)
B_SPLINE_SURFACE_WITH_KNOTS((3,2,2,3),(3,3),(1.533203626,2.094395102,4.188790205,6.283185307),(6.246846956,6.283185307),.UNSPECIFIED.)
GEOMETRIC_REPRESENTATION_ITEM()
RATIONAL_B_SPLINE_SURFACE(((0.793206307,0.798400941,0.803847577),(0.854561028,0.860157469,0.866025404),(0.986762079,0.993224292,1.),(0.49338104,0.496612146,0.5),(0.986762079,0.993224292,1.),(0.49338104,0.496612146,0.5),(0.986762079,0.993224292,1.)))
REPRESENTATION_ITEM('')
SURFACE()
);
#679=CARTESIAN_POINT('',(24.904499826,-18.95,13.414464929));
#680=CARTESIAN_POINT('',(24.904499826,-45.690114581,13.414464929));
#681=CARTESIAN_POINT('',(1.746881299,-32.320057291,13.414464929));
#682=CARTESIAN_POINT('',(-21.410737229,-18.95,13.414464929));
#683=CARTESIAN_POINT('',(1.746881299,-5.579942709,13.414464929));
#684=CARTESIAN_POINT('',(5.329377352,-3.511587648,13.414464929));
#685=CARTESIAN_POINT('',(9.466087475,-3.511587648,13.414464929));
#686=(BOUNDED_CURVE()
B_SPLINE_CURVE(2,(#679,#680,#681,#682,#683,#684,#685),.UNSPECIFIED.,.F.,.F.)
B_SPLINE_CURVE_WITH_KNOTS((3,2,2,3),(0.,2.094395102,4.188790205,4.749981681),.UNSPECIFIED.)
CURVE()
GEOMETRIC_REPRESENTATION_ITEM()
RATIONAL_B_SPLINE_CURVE((1.,0.5,1.,0.5,1.,0.866025404,0.803847577))
REPRESENTATION_ITEM(''));
#687=EDGE_CURVE('',#556,#554,#686,.T.);
#688=ORIENTED_EDGE('',*,*,#687,.T.);
#689=ORIENTED_EDGE('',*,*,#576,.F.);
#690=ORIENTED_EDGE('',*,*,#234,.T.);
#691=ORIENTED_EDGE('',*,*,#567,.F.);
#692=EDGE_LOOP('',(#688,#689,#690,#691));
#693=FACE_BOUND('',#692,.T.);
#694=ADVANCED_FACE('',(#693),#678,.T.);
#695=CARTESIAN_POINT('',(9.466087475,-3.511587648,13.414464929));
#696=CARTESIAN_POINT('',(9.466087475,-3.511587648,13.85));
#697=CARTESIAN_POINT('',(9.466087475,-3.947122719,13.85));
#698=CARTESIAN_POINT('',(5.329377352,-3.511587648,13.414464929));
#699=CARTESIAN_POINT('',(5.329377352,-3.511587648,13.85));
#700=CARTESIAN_POINT('',(5.446078623,-3.947122719,13.85));
#701=CARTESIAN_POINT('',(1.746881299,-5.579942709,13.414464929));
#702=CARTESIAN_POINT('',(1.746881299,-5.579942709,13.85));
#703=CARTESIAN_POINT('',(1.964648834,-5.957127145,13.85));
#704=CARTESIAN_POINT('',(-21.410737229,-18.95,13.414464929));
#705=CARTESIAN_POINT('',(-21.410737229,-18.95,13.85));
#706=CARTESIAN_POINT('',(-20.539667088,-18.95,13.85));
#707=CARTESIAN_POINT('',(1.746881299,-32.320057291,13.414464929));
#708=CARTESIAN_POINT('',(1.746881299,-32.320057291,13.85));
#709=CARTESIAN_POINT('',(1.964648834,-31.942872855,13.85));
#710=CARTESIAN_POINT('',(24.904499826,-45.690114581,13.414464929));
#711=CARTESIAN_POINT('',(24.904499826,-45.690114581,13.85));
#712=CARTESIAN_POINT('',(24.468964756,-44.935745711,13.85));
#713=CARTESIAN_POINT('',(24.904499826,-18.95,13.414464929));
#714=CARTESIAN_POINT('',(24.904499826,-18.95,13.85));
#715=CARTESIAN_POINT('',(24.468964756,-18.95,13.85));
#716=(BOUNDED_SURFACE()
B_SPLINE_SURFACE(2,2,((#695,#696,#697),(#698,#699,#700),(#701,#702,#703),(#704,#705,#706),(#707,#708,#709),(#710,#711,#712),(#713,#714,#715)),.UNSPECIFIED.,.F.,.F.,.U.)
B_SPLINE_SURFACE_WITH_KNOTS((3,2,2,3),(3,3),(1.533203626,2.094395102,4.188790205,6.283185307),(0.,1.570796327),.UNSPECIFIED.)
GEOMETRIC_REPRESENTATION_ITEM()
RATIONAL_B_SPLINE_SURFACE(((0.803847577,0.568406073,0.803847577),(0.866025404,0.612372436,0.866025404),(1.,0.707106781,1.),(0.5,0.353553391,0.5),(1.,0.707106781,1.),(0.5,0.353553391,0.5),(1.,0.707106781,1.)))
REPRESENTATION_ITEM('')
SURFACE()
);
#717=ORIENTED_EDGE('',*,*,#687,.F.);
#718=ORIENTED_EDGE('',*,*,#652,.F.);
#719=ORIENTED_EDGE('',*,*,#110,.T.);
#720=ORIENTED_EDGE('',*,*,#645,.F.);
#721=EDGE_LOOP('',(#717,#718,#719,#720));
#722=FACE_BOUND('',#721,.T.);
#723=ADVANCED_FACE('',(#722),#716,.T.);
#724=CARTESIAN_POINT('',(9.466087475,-3.713881924,1.838446128));
#725=CARTESIAN_POINT('',(9.466087475,-3.713881924,1.65));
#726=CARTESIAN_POINT('',(9.466087475,-3.902328052,1.65));
#727=CARTESIAN_POINT('',(35.855818092,-3.713881924,1.838446128));
#728=CARTESIAN_POINT('',(35.855818092,-3.713881924,1.65));
#729=CARTESIAN_POINT('',(35.529419824,-3.902328052,1.65));
#730=CARTESIAN_POINT('',(22.660952783,-26.568059038,1.838446128));
#731=CARTESIAN_POINT('',(22.660952783,-26.568059038,1.65));
#732=CARTESIAN_POINT('',(22.497753649,-26.473835974,1.65));
#733=CARTESIAN_POINT('',(9.466087475,-49.422236151,1.838446128));
#734=CARTESIAN_POINT('',(9.466087475,-49.422236151,1.65));
#735=CARTESIAN_POINT('',(9.466087475,-49.045343896,1.65));
#736=CARTESIAN_POINT('',(-3.728777834,-26.568059038,1.838446128));
#737=CARTESIAN_POINT('',(-3.728777834,-26.568059038,1.65));
#738=CARTESIAN_POINT('',(-3.5655787,-26.473835974,1.65));
#739=CARTESIAN_POINT('',(-16.923643143,-3.713881924,1.838446128));
#740=CARTESIAN_POINT('',(-16.923643143,-3.713881924,1.65));
#741=CARTESIAN_POINT('',(-16.597244875,-3.902328052,1.65));
#742=CARTESIAN_POINT('',(9.466087475,-3.713881924,1.838446128));
#743=CARTESIAN_POINT('',(9.466087475,-3.713881924,1.65));
#744=CARTESIAN_POINT('',(9.466087475,-3.902328052,1.65));
#745=(BOUNDED_SURFACE()
B_SPLINE_SURFACE(2,2,((#724,#725,#726),(#727,#728,#729),(#730,#731,#732),(#733,#734,#735),(#736,#737,#738),(#739,#740,#741),(#742,#743,#744)),.UNSPECIFIED.,.T.,.F.,.U.)
B_SPLINE_SURFACE_WITH_KNOTS((3,2,2,3),(3,3),(0.,2.094395102,4.188790205,6.283185307),(0.,1.570796327),.UNSPECIFIED.)
GEOMETRIC_REPRESENTATION_ITEM()
RATIONAL_B_SPLINE_SURFACE(((1.,0.707106781,1.),(0.5,0.353553391,0.5),(1.,0.707106781,1.),(0.5,0.353553391,0.5),(1.,0.707106781,1.),(0.5,0.353553391,0.5),(1.,0.707106781,1.)))
REPRESENTATION_ITEM('')
SURFACE()
);
#746=ORIENTED_EDGE('',*,*,#613,.F.);
#747=CARTESIAN_POINT('',(9.466087475,-3.902328052,1.65));
#748=CARTESIAN_POINT('',(9.466087475,-3.77571578,1.65));
#749=CARTESIAN_POINT('',(9.466087475,-3.727860839,1.767220186));
#750=CARTESIAN_POINT('',(9.466087475,-3.680005899,1.884440373));
#751=CARTESIAN_POINT('',(9.466087475,-3.770443236,1.973050505));
#752=(BOUNDED_CURVE()
B_SPLINE_CURVE(2,(#747,#748,#749,#750,#751),.UNSPECIFIED.,.F.,.F.)
B_SPLINE_CURVE_WITH_KNOTS((3,2,3),(6.283185307,7.466384947,8.649584587),.UNSPECIFIED.)
CURVE()
GEOMETRIC_REPRESENTATION_ITEM()
RATIONAL_B_SPLINE_CURVE((1.,0.830049539,1.,0.830049539,1.))
REPRESENTATION_ITEM(''));
#753=EDGE_CURVE('',#390,#604,#752,.T.);
#754=ORIENTED_EDGE('',*,*,#753,.F.);
#755=ORIENTED_EDGE('',*,*,#401,.T.);
#756=ORIENTED_EDGE('',*,*,#753,.T.);
#757=EDGE_LOOP('',(#746,#754,#755,#756));
#758=FACE_BOUND('',#757,.T.);
#759=ADVANCED_FACE('',(#758),#745,.T.);
#760=CLOSED_SHELL('',(#156,#238,#292,#383,#435,#475,#514,#542,#580,#627,#656,#694,#723,#759));
#761=MANIFOLD_SOLID_BREP('Swept.002',#760);
#90=STYLED_ITEM('',(),#761);
#71=SHAPE_REPRESENTATION('flywheel A',(#70),#65);
#72=ADVANCED_BREP_SHAPE_REPRESENTATION('flywheel A',(#761),#65);
#769=SHAPE_REPRESENTATION_RELATIONSHIP('','',#71,#72);
#770=APPLICATION_CONTEXT('configuration controlled 3D design of mechanical parts and assemblies');
#771=APPLICATION_PROTOCOL_DEFINITION('international standard','configuration_control_3d_design_ed2_mim',2004,#770);
#772=PRODUCT_CONTEXT('',#770,'mechanical');
#773=PRODUCT_DEFINITION_CONTEXT('part definition',#770,'design');
#79=PRODUCT('0','0','',(#772));
#774=PRODUCT_RELATED_PRODUCT_CATEGORY('part','',(#79));
#775=PRODUCT_DEFINITION_FORMATION_WITH_SPECIFIED_SOURCE('','',#79,.NOT_KNOWN.);
#80=PRODUCT_DEFINITION('design','',#775,#773);
#78=PRODUCT_DEFINITION_SHAPE('','',#80);
#776=SHAPE_DEFINITION_REPRESENTATION(#78,#71);
#66=DRAUGHTING_MODEL('',(),#65);
#39=SHAPE_REPRESENTATION('Flywheels',(#38,#84),#33);
#47=PRODUCT('0','0','',(#772));
#777=PRODUCT_RELATED_PRODUCT_CATEGORY('part','',(#47));
#778=PRODUCT_DEFINITION_FORMATION_WITH_SPECIFIED_SOURCE('','',#47,.NOT_KNOWN.);
#48=PRODUCT_DEFINITION('design','',#778,#773);
#46=PRODUCT_DEFINITION_SHAPE('','',#48);
#779=SHAPE_DEFINITION_REPRESENTATION(#46,#39);
#34=DRAUGHTING_MODEL('',(),#33);
#16=SHAPE_REPRESENTATION('root',(#15,#52),#10);
#24=PRODUCT('root','root','',(#772));
#780=PRODUCT_RELATED_PRODUCT_CATEGORY('part','',(#24));
#781=PRODUCT_DEFINITION_FORMATION_WITH_SPECIFIED_SOURCE('','',#24,.NOT_KNOWN.);
#25=PRODUCT_DEFINITION('design','',#781,#773);
#23=PRODUCT_DEFINITION_SHAPE('','',#25);
#782=SHAPE_DEFINITION_REPRESENTATION(#23,#16);
#11=DRAUGHTING_MODEL('',(),#10);
#1=MECHANICAL_DESIGN_GEOMETRIC_PRESENTATION_REPRESENTATION('',(#90),#10);
ENDSEC;
END-ISO-10303-21;
