ISO-10303-21;
HEADER;

/* File generated by HOOPS Exchange Version 25.8.0 */

FILE_DESCRIPTION(('HOOPS Exchange Step'),'2;1');

FILE_NAME('/home/tfannes/repo/klepto/cart/stl/nerf_pusher.step',
'2026-09-12T13:18:51+02:00',
('tfannes'),
('Unknown organisation'),
'HOOPS Exchange 2025.8',
'HOOPS Exchange',
'Unknown authorisation');

FILE_SCHEMA( ('AP203_CONFIGURATION_CONTROLLED_3D_DESIGN_OF_MECHANICAL_PARTS_AND_ASSEMBLIES_MIM_LF') );

ENDSEC;

DATA;
#3=(NAMED_UNIT(*)PLANE_ANGLE_UNIT()SI_UNIT($,.RADIAN.));
#4=PLANE_ANGLE_MEASURE_WITH_UNIT(PLANE_ANGLE_MEASURE(0.0174532925),#3);
#5=(CONVERSION_BASED_UNIT('DEGREE',#4)NAMED_UNIT(#6)PLANE_ANGLE_UNIT());
#6=DIMENSIONAL_EXPONENTS(0.,0.,0.,0.,0.,0.,0.);
#7=(NAMED_UNIT(*)SI_UNIT($,.STERADIAN.)SOLID_ANGLE_UNIT());
#8=(LENGTH_UNIT()NAMED_UNIT(*)SI_UNIT(.MILLI.,.METRE.));
#9=UNCERTAINTY_MEASURE_WITH_UNIT(LENGTH_MEASURE(1.000000E-03),#8,'DISTANCE_ACCURACY_VALUE','Maximum Tolerance applied to model');
#10=(GEOMETRIC_REPRESENTATION_CONTEXT(3)GLOBAL_UNCERTAINTY_ASSIGNED_CONTEXT((#9))GLOBAL_UNIT_ASSIGNED_CONTEXT((#8,#5,#7))REPRESENTATION_CONTEXT('','root'));
#12=CARTESIAN_POINT('',(0.,0.,0.));
#13=DIRECTION('',(0.,0.,1.));
#14=DIRECTION('',(1.,0.,0.));
#15=AXIS2_PLACEMENT_3D('TS3D_PRODUCT_CSYS',#12,#13,#14);
#26=(NAMED_UNIT(*)PLANE_ANGLE_UNIT()SI_UNIT($,.RADIAN.));
#27=PLANE_ANGLE_MEASURE_WITH_UNIT(PLANE_ANGLE_MEASURE(0.0174532925),#26);
#28=(CONVERSION_BASED_UNIT('DEGREE',#27)NAMED_UNIT(#29)PLANE_ANGLE_UNIT());
#29=DIMENSIONAL_EXPONENTS(0.,0.,0.,0.,0.,0.,0.);
#30=(NAMED_UNIT(*)SI_UNIT($,.STERADIAN.)SOLID_ANGLE_UNIT());
#31=(LENGTH_UNIT()NAMED_UNIT(*)SI_UNIT(.MILLI.,.METRE.));
#32=UNCERTAINTY_MEASURE_WITH_UNIT(LENGTH_MEASURE(1.000000E-05),#31,'DISTANCE_ACCURACY_VALUE','Maximum Tolerance applied to model');
#33=(GEOMETRIC_REPRESENTATION_CONTEXT(3)GLOBAL_UNCERTAINTY_ASSIGNED_CONTEXT((#32))GLOBAL_UNIT_ASSIGNED_CONTEXT((#31,#28,#30))REPRESENTATION_CONTEXT('','0'));
#45=CARTESIAN_POINT('',(0.,0.,0.));
#46=DIRECTION('',(0.,0.,1.));
#47=DIRECTION('',(1.,0.,-0.));
#48=AXIS2_PLACEMENT_3D('',#45,#46,#47);
#49=ITEM_DEFINED_TRANSFORMATION('','',#48,#15);
#50=(REPRESENTATION_RELATIONSHIP('','',#35,#16)REPRESENTATION_RELATIONSHIP_WITH_TRANSFORMATION(#49)SHAPE_REPRESENTATION_RELATIONSHIP());
#51=NEXT_ASSEMBLY_USAGE_OCCURRENCE('FiringMechanism_1','FiringMechanism','FiringMechanism',#25,#44,$);
#52=PRODUCT_DEFINITION_SHAPE('','',#51);
#53=CONTEXT_DEPENDENT_SHAPE_REPRESENTATION(#50,#52);
#55=CARTESIAN_POINT('',(-112.90420266,-15.9,32.542576801));
#56=CARTESIAN_POINT('',(-112.90420266,-17.9,32.542576801));
#57=CARTESIAN_POINT('',(-115.605451341,-15.9,28.943513638));
#58=CARTESIAN_POINT('',(-115.605451341,-17.9,28.943513638));
#59=CARTESIAN_POINT('',(-112.006388172,-15.9,26.242264964));
#60=CARTESIAN_POINT('',(-112.006388172,-17.9,26.242264964));
#61=(BOUNDED_SURFACE()
B_SPLINE_SURFACE(2,1,((#55,#56),(#57,#58),(#59,#60)),.UNSPECIFIED.,.F.,.F.,.U.)
B_SPLINE_SURFACE_WITH_KNOTS((3,3),(2,2),(0.,1.533203628),(0.030925002,0.032925002),.UNSPECIFIED.)
GEOMETRIC_REPRESENTATION_ITEM()
RATIONAL_B_SPLINE_SURFACE(((1.,1.),(0.633974596,0.633974596),(0.803847578,0.803847578)))
REPRESENTATION_ITEM('')
SURFACE()
);
#62=CARTESIAN_POINT('',(-112.90420266,-17.9,32.542576801));
#63=VERTEX_POINT('',#62);
#64=CARTESIAN_POINT('',(-112.90420266,-15.9,32.542576801));
#65=VERTEX_POINT('',#64);
#66=CARTESIAN_POINT('',(-112.90420266,-17.9,32.542576801));
#67=CARTESIAN_POINT('',(-112.90420266,-15.9,32.542576801));
#68=B_SPLINE_CURVE_WITH_KNOTS('',1,(#66,#67),.UNSPECIFIED.,.F.,.F.,(2,2),(0.030925002,0.032925002),.UNSPECIFIED.);
#69=EDGE_CURVE('',#63,#65,#68,.T.);
#70=ORIENTED_EDGE('',*,*,#69,.T.);
#71=CARTESIAN_POINT('',(-112.006388172,-15.9,26.242264964));
#72=VERTEX_POINT('',#71);
#73=CARTESIAN_POINT('',(-112.006388172,-15.9,26.242264964));
#74=CARTESIAN_POINT('',(-114.084308259,-15.9,27.801831611));
#75=CARTESIAN_POINT('',(-113.772643965,-15.9,30.381146516));
#76=CARTESIAN_POINT('',(-113.460979672,-15.9,32.960461421));
#77=CARTESIAN_POINT('',(-111.071395292,-15.9,33.980209676));
#78=CARTESIAN_POINT('',(-108.681810912,-15.9,34.999957931));
#79=CARTESIAN_POINT('',(-106.603890829,-15.9,33.44039128));
#80=(BOUNDED_CURVE()
B_SPLINE_CURVE(2,(#73,#74,#75,#76,#77,#78,#79),.UNSPECIFIED.,.F.,.F.)
B_SPLINE_CURVE_WITH_KNOTS((3,2,2,3),(1.570796325,2.617993877,3.665191428,4.71238898),.UNSPECIFIED.)
CURVE()
GEOMETRIC_REPRESENTATION_ITEM()
RATIONAL_B_SPLINE_CURVE((1.,0.866025404,1.,0.866025404,1.,0.866025404,1.))
REPRESENTATION_ITEM(''));
#81=EDGE_CURVE('',#72,#65,#80,.T.);
#82=ORIENTED_EDGE('',*,*,#81,.F.);
#83=CARTESIAN_POINT('',(-112.006388172,-17.9,26.242264964));
#84=VERTEX_POINT('',#83);
#85=CARTESIAN_POINT('',(-112.006388172,-15.9,26.242264964));
#86=CARTESIAN_POINT('',(-112.006388172,-17.9,26.242264964));
#87=B_SPLINE_CURVE_WITH_KNOTS('',1,(#85,#86),.UNSPECIFIED.,.F.,.F.,(2,2),(0.030925002,0.032925002),.UNSPECIFIED.);
#88=EDGE_CURVE('',#72,#84,#87,.T.);
#89=ORIENTED_EDGE('',*,*,#88,.T.);
#90=CARTESIAN_POINT('',(-106.603890829,-17.9,33.44039128));
#91=CARTESIAN_POINT('',(-108.681810912,-17.9,34.999957931));
#92=CARTESIAN_POINT('',(-111.071395292,-17.9,33.980209676));
#93=CARTESIAN_POINT('',(-113.460979672,-17.9,32.960461421));
#94=CARTESIAN_POINT('',(-113.772643965,-17.9,30.381146516));
#95=CARTESIAN_POINT('',(-114.084308259,-17.9,27.801831611));
#96=CARTESIAN_POINT('',(-112.006388172,-17.9,26.242264964));
#97=(BOUNDED_CURVE()
B_SPLINE_CURVE(2,(#90,#91,#92,#93,#94,#95,#96),.UNSPECIFIED.,.F.,.F.)
B_SPLINE_CURVE_WITH_KNOTS((3,2,2,3),(3.141592651,4.188790203,5.235987755,6.283185307),.UNSPECIFIED.)
CURVE()
GEOMETRIC_REPRESENTATION_ITEM()
RATIONAL_B_SPLINE_CURVE((1.,0.866025404,1.,0.866025404,1.,0.866025404,1.))
REPRESENTATION_ITEM(''));
#98=EDGE_CURVE('',#63,#84,#97,.T.);
#99=ORIENTED_EDGE('',*,*,#98,.F.);
#100=EDGE_LOOP('',(#70,#82,#89,#99));
#101=FACE_BOUND('',#100,.T.);
#102=ADVANCED_FACE('',(#101),#61,.T.);
#103=CARTESIAN_POINT('',(-106.505868168,-17.9,27.740356925));
#104=CARTESIAN_POINT('',(-106.505868168,-15.9,27.740356925));
#105=CARTESIAN_POINT('',(-108.117420373,-17.9,25.593172841));
#106=CARTESIAN_POINT('',(-108.117420373,-15.9,25.593172841));
#107=CARTESIAN_POINT('',(-109.171160234,-17.9,28.062410032));
#108=CARTESIAN_POINT('',(-109.171160234,-15.9,28.062410032));
#109=CARTESIAN_POINT('',(-110.224900095,-17.9,30.531647223));
#110=CARTESIAN_POINT('',(-110.224900095,-15.9,30.531647223));
#111=CARTESIAN_POINT('',(-107.559608029,-17.9,30.209594116));
#112=CARTESIAN_POINT('',(-107.559608029,-15.9,30.209594116));
#113=CARTESIAN_POINT('',(-104.894315963,-17.9,29.887541009));
#114=CARTESIAN_POINT('',(-104.894315963,-15.9,29.887541009));
#115=CARTESIAN_POINT('',(-106.505868168,-17.9,27.740356925));
#116=CARTESIAN_POINT('',(-106.505868168,-15.9,27.740356925));
#117=(BOUNDED_SURFACE()
B_SPLINE_SURFACE(2,1,((#103,#104),(#105,#106),(#107,#108),(#109,#110),(#111,#112),(#113,#114),(#115,#116)),.UNSPECIFIED.,.T.,.F.,.U.)
B_SPLINE_SURFACE_WITH_KNOTS((3,2,2,3),(2,2),(0.,2.094395102,4.188790205,6.283185307),(0.003616194,0.005616194),.UNSPECIFIED.)
GEOMETRIC_REPRESENTATION_ITEM()
RATIONAL_B_SPLINE_SURFACE(((1.,1.),(0.5,0.5),(1.,1.),(0.5,0.5),(1.,1.),(0.5,0.5),(1.,1.)))
REPRESENTATION_ITEM('')
SURFACE()
);
#118=CARTESIAN_POINT('',(-106.505868168,-15.9,27.740356925));
#119=VERTEX_POINT('',#118);
#120=CARTESIAN_POINT('',(-106.505868168,-17.9,27.740356925));
#121=VERTEX_POINT('',#120);
#122=CARTESIAN_POINT('',(-106.505868168,-15.9,27.740356925));
#123=CARTESIAN_POINT('',(-106.505868168,-17.9,27.740356925));
#124=B_SPLINE_CURVE_WITH_KNOTS('',1,(#122,#123),.UNSPECIFIED.,.F.,.F.,(2,2),(0.003616194,0.005616194),.UNSPECIFIED.);
#125=EDGE_CURVE('',#119,#121,#124,.T.);
#126=ORIENTED_EDGE('',*,*,#125,.F.);
#127=CARTESIAN_POINT('',(-106.505868168,-15.9,27.740356925));
#128=CARTESIAN_POINT('',(-105.575438069,-15.9,28.980034234));
#129=CARTESIAN_POINT('',(-106.815115378,-15.9,29.910464333));
#130=CARTESIAN_POINT('',(-108.054792686,-15.9,30.840894432));
#131=CARTESIAN_POINT('',(-108.985222786,-15.9,29.601217124));
#132=CARTESIAN_POINT('',(-109.915652885,-15.9,28.361539815));
#133=CARTESIAN_POINT('',(-108.675975576,-15.9,27.431109715));
#134=CARTESIAN_POINT('',(-107.436298267,-15.9,26.500679616));
#135=CARTESIAN_POINT('',(-106.505868168,-15.9,27.740356925));
#136=(BOUNDED_CURVE()
B_SPLINE_CURVE(2,(#127,#128,#129,#130,#131,#132,#133,#134,#135),.UNSPECIFIED.,.T.,.F.)
B_SPLINE_CURVE_WITH_KNOTS((3,2,2,2,3),(0.,1.570796327,3.141592654,4.71238898,6.283185307),.UNSPECIFIED.)
CURVE()
GEOMETRIC_REPRESENTATION_ITEM()
RATIONAL_B_SPLINE_CURVE((1.,0.707106781,1.,0.707106781,1.,0.707106781,1.,0.707106781,1.))
REPRESENTATION_ITEM(''));
#137=EDGE_CURVE('',#119,#119,#136,.T.);
#138=ORIENTED_EDGE('',*,*,#137,.F.);
#139=ORIENTED_EDGE('',*,*,#125,.T.);
#140=CARTESIAN_POINT('',(-108.985222786,-17.9,29.601217124));
#141=VERTEX_POINT('',#140);
#142=CARTESIAN_POINT('',(-108.985222786,-17.9,29.601217124));
#143=CARTESIAN_POINT('',(-108.054792686,-17.9,30.840894432));
#144=CARTESIAN_POINT('',(-106.815115378,-17.9,29.910464333));
#145=CARTESIAN_POINT('',(-105.575438069,-17.9,28.980034234));
#146=CARTESIAN_POINT('',(-106.505868168,-17.9,27.740356925));
#147=CARTESIAN_POINT('',(-107.436298267,-17.9,26.500679616));
#148=CARTESIAN_POINT('',(-108.675975576,-17.9,27.431109715));
#149=CARTESIAN_POINT('',(-109.915652885,-17.9,28.361539815));
#150=CARTESIAN_POINT('',(-108.985222786,-17.9,29.601217124));
#151=(BOUNDED_CURVE()
B_SPLINE_CURVE(2,(#142,#143,#144,#145,#146,#147,#148,#149,#150),.UNSPECIFIED.,.T.,.F.)
B_SPLINE_CURVE_WITH_KNOTS((3,2,2,2,3),(0.,1.570796327,3.141592654,4.71238898,6.283185307),.UNSPECIFIED.)
CURVE()
GEOMETRIC_REPRESENTATION_ITEM()
RATIONAL_B_SPLINE_CURVE((1.,0.707106781,1.,0.707106781,1.,0.707106781,1.,0.707106781,1.))
REPRESENTATION_ITEM(''));
#152=EDGE_CURVE('',#141,#121,#151,.T.);
#153=ORIENTED_EDGE('',*,*,#152,.F.);
#154=CARTESIAN_POINT('',(-108.985222786,-17.9,29.601217124));
#155=CARTESIAN_POINT('',(-108.054792686,-17.9,30.840894432));
#156=CARTESIAN_POINT('',(-106.815115378,-17.9,29.910464333));
#157=CARTESIAN_POINT('',(-105.575438069,-17.9,28.980034234));
#158=CARTESIAN_POINT('',(-106.505868168,-17.9,27.740356925));
#159=CARTESIAN_POINT('',(-107.436298267,-17.9,26.500679616));
#160=CARTESIAN_POINT('',(-108.675975576,-17.9,27.431109715));
#161=CARTESIAN_POINT('',(-109.915652885,-17.9,28.361539815));
#162=CARTESIAN_POINT('',(-108.985222786,-17.9,29.601217124));
#163=(BOUNDED_CURVE()
B_SPLINE_CURVE(2,(#154,#155,#156,#157,#158,#159,#160,#161,#162),.UNSPECIFIED.,.T.,.F.)
B_SPLINE_CURVE_WITH_KNOTS((3,2,2,2,3),(0.,1.570796327,3.141592654,4.71238898,6.283185307),.UNSPECIFIED.)
CURVE()
GEOMETRIC_REPRESENTATION_ITEM()
RATIONAL_B_SPLINE_CURVE((1.,0.707106781,1.,0.707106781,1.,0.707106781,1.,0.707106781,1.))
REPRESENTATION_ITEM(''));
#164=EDGE_CURVE('',#121,#141,#163,.T.);
#165=ORIENTED_EDGE('',*,*,#164,.F.);
#166=EDGE_LOOP('',(#126,#138,#139,#153,#165));
#167=FACE_BOUND('',#166,.T.);
#168=ADVANCED_FACE('',(#167),#117,.F.);
#169=CARTESIAN_POINT('',(-110.202953984,-15.9,36.141639955));
#170=CARTESIAN_POINT('',(-115.605451341,-15.9,28.943513638));
#171=CARTESIAN_POINT('',(-97.38852472,-15.9,26.523870389));
#172=CARTESIAN_POINT('',(-102.791022077,-15.9,19.325744071));
#173=B_SPLINE_SURFACE_WITH_KNOTS('',1,1,((#169,#170),(#171,#172)),.UNSPECIFIED.,.F.,.F.,.U.,(2,2),(2,2),(-0.000336831,0.015685375),(-0.009,0.),.UNSPECIFIED.);
#174=ORIENTED_EDGE('',*,*,#137,.T.);
#175=EDGE_LOOP('',(#174));
#176=FACE_BOUND('',#175,.T.);
#177=CARTESIAN_POINT('',(-102.791022077,-15.9,19.325744071));
#178=VERTEX_POINT('',#177);
#179=CARTESIAN_POINT('',(-112.006388178,-15.9,26.242264956));
#180=CARTESIAN_POINT('',(-102.791022077,-15.9,19.325744071));
#181=B_SPLINE_CURVE_WITH_KNOTS('',1,(#179,#180),.UNSPECIFIED.,.F.,.F.,(2,2),(0.004163169,0.015685375),.UNSPECIFIED.);
#182=EDGE_CURVE('',#72,#178,#181,.T.);
#183=ORIENTED_EDGE('',*,*,#182,.F.);
#184=ORIENTED_EDGE('',*,*,#81,.T.);
#185=CARTESIAN_POINT('',(-106.603890835,-15.9,33.440391272));
#186=VERTEX_POINT('',#185);
#187=CARTESIAN_POINT('',(-112.006388172,-15.9,26.242264964));
#188=CARTESIAN_POINT('',(-114.084308259,-15.9,27.801831611));
#189=CARTESIAN_POINT('',(-113.772643965,-15.9,30.381146516));
#190=CARTESIAN_POINT('',(-113.460979672,-15.9,32.960461421));
#191=CARTESIAN_POINT('',(-111.071395292,-15.9,33.980209676));
#192=CARTESIAN_POINT('',(-108.681810912,-15.9,34.999957931));
#193=CARTESIAN_POINT('',(-106.603890829,-15.9,33.44039128));
#194=(BOUNDED_CURVE()
B_SPLINE_CURVE(2,(#187,#188,#189,#190,#191,#192,#193),.UNSPECIFIED.,.F.,.F.)
B_SPLINE_CURVE_WITH_KNOTS((3,2,2,3),(1.570796325,2.617993877,3.665191428,4.71238898),.UNSPECIFIED.)
CURVE()
GEOMETRIC_REPRESENTATION_ITEM()
RATIONAL_B_SPLINE_CURVE((1.,0.866025404,1.,0.866025404,1.,0.866025404,1.))
REPRESENTATION_ITEM(''));
#195=EDGE_CURVE('',#65,#186,#194,.T.);
#196=ORIENTED_EDGE('',*,*,#195,.T.);
#197=CARTESIAN_POINT('',(-97.388524726,-15.9,26.523870381));
#198=VERTEX_POINT('',#197);
#199=CARTESIAN_POINT('',(-106.603890835,-15.9,33.440391272));
#200=CARTESIAN_POINT('',(-97.388524726,-15.9,26.523870381));
#201=B_SPLINE_CURVE_WITH_KNOTS('',1,(#199,#200),.UNSPECIFIED.,.F.,.F.,(2,2),(0.004163169,0.015685375),.UNSPECIFIED.);
#202=EDGE_CURVE('',#186,#198,#201,.T.);
#203=ORIENTED_EDGE('',*,*,#202,.T.);
#204=CARTESIAN_POINT('',(-102.791022077,-15.9,19.325744071));
#205=CARTESIAN_POINT('',(-97.388524726,-15.9,26.523870381));
#206=B_SPLINE_CURVE_WITH_KNOTS('',1,(#204,#205),.UNSPECIFIED.,.F.,.F.,(2,2),(-0.,0.009),.UNSPECIFIED.);
#207=EDGE_CURVE('',#178,#198,#206,.T.);
#208=ORIENTED_EDGE('',*,*,#207,.F.);
#209=EDGE_LOOP('',(#183,#184,#196,#203,#208));
#210=FACE_BOUND('',#209,.T.);
#211=ADVANCED_FACE('',(#176,#210),#173,.T.);
#212=CARTESIAN_POINT('',(-84.221373761,-17.9,5.3884399));
#213=CARTESIAN_POINT('',(-84.221373761,-9.7,5.3884399));
#214=CARTESIAN_POINT('',(-112.006388178,-17.9,26.242264956));
#215=CARTESIAN_POINT('',(-112.006388178,-9.7,26.242264956));
#216=B_SPLINE_SURFACE_WITH_KNOTS('',1,1,((#212,#213),(#214,#215)),.UNSPECIFIED.,.F.,.F.,.U.,(2,2),(2,2),(-0.038903478,-0.004163169),(0.,0.0082),.UNSPECIFIED.);
#217=ORIENTED_EDGE('',*,*,#182,.T.);
#218=CARTESIAN_POINT('',(-102.791022077,-11.7,19.325744071));
#219=VERTEX_POINT('',#218);
#220=CARTESIAN_POINT('',(-102.791022077,-11.7,19.325744071));
#221=CARTESIAN_POINT('',(-102.791022077,-15.9,19.325744071));
#222=B_SPLINE_CURVE_WITH_KNOTS('',1,(#220,#221),.UNSPECIFIED.,.F.,.F.,(2,2),(-0.0021,0.0021),.UNSPECIFIED.);
#223=EDGE_CURVE('',#219,#178,#222,.T.);
#224=ORIENTED_EDGE('',*,*,#223,.F.);
#225=CARTESIAN_POINT('',(-112.006388186,-11.7,26.242264962));
#226=VERTEX_POINT('',#225);
#227=CARTESIAN_POINT('',(-112.006388186,-11.7,26.242264962));
#228=CARTESIAN_POINT('',(-102.791022077,-11.7,19.325744071));
#229=B_SPLINE_CURVE_WITH_KNOTS('',1,(#227,#228),.UNSPECIFIED.,.F.,.F.,(2,2),(0.004163169,0.015685375),.UNSPECIFIED.);
#230=EDGE_CURVE('',#226,#219,#229,.T.);
#231=ORIENTED_EDGE('',*,*,#230,.F.);
#232=CARTESIAN_POINT('',(-112.006388172,-9.7,26.242264964));
#233=VERTEX_POINT('',#232);
#234=CARTESIAN_POINT('',(-112.006388172,-9.7,26.242264964));
#235=CARTESIAN_POINT('',(-112.006388172,-11.7,26.242264964));
#236=B_SPLINE_CURVE_WITH_KNOTS('',1,(#234,#235),.UNSPECIFIED.,.F.,.F.,(2,2),(0.024725002,0.026725002),.UNSPECIFIED.);
#237=EDGE_CURVE('',#233,#226,#236,.T.);
#238=ORIENTED_EDGE('',*,*,#237,.F.);
#239=CARTESIAN_POINT('',(-84.221373761,-9.7,5.3884399));
#240=VERTEX_POINT('',#239);
#241=CARTESIAN_POINT('',(-112.006388178,-9.7,26.242264956));
#242=CARTESIAN_POINT('',(-84.221373761,-9.7,5.3884399));
#243=B_SPLINE_CURVE_WITH_KNOTS('',1,(#241,#242),.UNSPECIFIED.,.F.,.F.,(2,2),(0.004163169,0.038903478),.UNSPECIFIED.);
#244=EDGE_CURVE('',#233,#240,#243,.T.);
#245=ORIENTED_EDGE('',*,*,#244,.T.);
#246=CARTESIAN_POINT('',(-84.221373761,-17.9,5.3884399));
#247=VERTEX_POINT('',#246);
#248=CARTESIAN_POINT('',(-84.221373761,-9.7,5.3884399));
#249=CARTESIAN_POINT('',(-84.221373761,-17.9,5.3884399));
#250=B_SPLINE_CURVE_WITH_KNOTS('',1,(#248,#249),.UNSPECIFIED.,.F.,.F.,(2,2),(0.007996474,0.016196474),.UNSPECIFIED.);
#251=EDGE_CURVE('',#240,#247,#250,.T.);
#252=ORIENTED_EDGE('',*,*,#251,.T.);
#253=CARTESIAN_POINT('',(-112.006388178,-17.9,26.242264956));
#254=CARTESIAN_POINT('',(-84.221373761,-17.9,5.3884399));
#255=B_SPLINE_CURVE_WITH_KNOTS('',1,(#253,#254),.UNSPECIFIED.,.F.,.F.,(2,2),(0.004163169,0.038903478),.UNSPECIFIED.);
#256=EDGE_CURVE('',#84,#247,#255,.T.);
#257=ORIENTED_EDGE('',*,*,#256,.F.);
#258=ORIENTED_EDGE('',*,*,#88,.F.);
#259=EDGE_LOOP('',(#217,#224,#231,#238,#245,#252,#257,#258));
#260=FACE_BOUND('',#259,.T.);
#261=ADVANCED_FACE('',(#260),#216,.T.);
#262=CARTESIAN_POINT('',(-106.603890835,-17.9,33.440391272));
#263=CARTESIAN_POINT('',(-106.603890835,-9.7,33.440391272));
#264=CARTESIAN_POINT('',(-78.81887641,-17.9,12.586566209));
#265=CARTESIAN_POINT('',(-78.81887641,-9.7,12.586566209));
#266=B_SPLINE_SURFACE_WITH_KNOTS('',1,1,((#262,#263),(#264,#265)),.UNSPECIFIED.,.F.,.F.,.U.,(2,2),(2,2),(0.004163169,0.038903478),(-0.002,0.0062),.UNSPECIFIED.);
#267=CARTESIAN_POINT('',(-106.603890829,-17.9,33.44039128));
#268=VERTEX_POINT('',#267);
#269=CARTESIAN_POINT('',(-78.81887641,-17.9,12.586566209));
#270=VERTEX_POINT('',#269);
#271=CARTESIAN_POINT('',(-106.603890835,-17.9,33.440391272));
#272=CARTESIAN_POINT('',(-78.81887641,-17.9,12.586566209));
#273=B_SPLINE_CURVE_WITH_KNOTS('',1,(#271,#272),.UNSPECIFIED.,.F.,.F.,(2,2),(0.004163169,0.038903478),.UNSPECIFIED.);
#274=EDGE_CURVE('',#268,#270,#273,.T.);
#275=ORIENTED_EDGE('',*,*,#274,.T.);
#276=CARTESIAN_POINT('',(-78.81887641,-9.7,12.586566209));
#277=VERTEX_POINT('',#276);
#278=CARTESIAN_POINT('',(-78.81887641,-9.7,12.586566209));
#279=CARTESIAN_POINT('',(-78.81887641,-17.9,12.586566209));
#280=B_SPLINE_CURVE_WITH_KNOTS('',1,(#278,#279),.UNSPECIFIED.,.F.,.F.,(2,2),(0.007996474,0.016196474),.UNSPECIFIED.);
#281=EDGE_CURVE('',#277,#270,#280,.T.);
#282=ORIENTED_EDGE('',*,*,#281,.F.);
#283=CARTESIAN_POINT('',(-106.603890829,-9.7,33.44039128));
#284=VERTEX_POINT('',#283);
#285=CARTESIAN_POINT('',(-106.603890835,-9.7,33.440391272));
#286=CARTESIAN_POINT('',(-78.81887641,-9.7,12.586566209));
#287=B_SPLINE_CURVE_WITH_KNOTS('',1,(#285,#286),.UNSPECIFIED.,.F.,.F.,(2,2),(0.004163169,0.038903478),.UNSPECIFIED.);
#288=EDGE_CURVE('',#284,#277,#287,.T.);
#289=ORIENTED_EDGE('',*,*,#288,.F.);
#290=CARTESIAN_POINT('',(-106.603890829,-11.7,33.44039128));
#291=VERTEX_POINT('',#290);
#292=CARTESIAN_POINT('',(-106.603890829,-9.7,33.44039128));
#293=CARTESIAN_POINT('',(-106.603890829,-11.7,33.44039128));
#294=B_SPLINE_CURVE_WITH_KNOTS('',1,(#292,#293),.UNSPECIFIED.,.F.,.F.,(2,2),(0.024725002,0.026725002),.UNSPECIFIED.);
#295=EDGE_CURVE('',#284,#291,#294,.T.);
#296=ORIENTED_EDGE('',*,*,#295,.T.);
#297=CARTESIAN_POINT('',(-97.388524726,-11.7,26.523870381));
#298=VERTEX_POINT('',#297);
#299=CARTESIAN_POINT('',(-106.603890835,-11.7,33.440391272));
#300=CARTESIAN_POINT('',(-97.388524726,-11.7,26.523870381));
#301=B_SPLINE_CURVE_WITH_KNOTS('',1,(#299,#300),.UNSPECIFIED.,.F.,.F.,(2,2),(0.004163169,0.015685375),.UNSPECIFIED.);
#302=EDGE_CURVE('',#291,#298,#301,.T.);
#303=ORIENTED_EDGE('',*,*,#302,.T.);
#304=CARTESIAN_POINT('',(-97.388524726,-15.9,26.523870381));
#305=CARTESIAN_POINT('',(-97.388524726,-11.7,26.523870381));
#306=B_SPLINE_CURVE_WITH_KNOTS('',1,(#304,#305),.UNSPECIFIED.,.F.,.F.,(2,2),(-0.0021,0.0021),.UNSPECIFIED.);
#307=EDGE_CURVE('',#198,#298,#306,.T.);
#308=ORIENTED_EDGE('',*,*,#307,.F.);
#309=ORIENTED_EDGE('',*,*,#202,.F.);
#310=CARTESIAN_POINT('',(-106.603890829,-15.9,33.44039128));
#311=CARTESIAN_POINT('',(-106.603890829,-17.9,33.44039128));
#312=B_SPLINE_CURVE_WITH_KNOTS('',1,(#310,#311),.UNSPECIFIED.,.F.,.F.,(2,2),(0.030925002,0.032925002),.UNSPECIFIED.);
#313=EDGE_CURVE('',#186,#268,#312,.T.);
#314=ORIENTED_EDGE('',*,*,#313,.T.);
#315=EDGE_LOOP('',(#275,#282,#289,#296,#303,#308,#309,#314));
#316=FACE_BOUND('',#315,.T.);
#317=ADVANCED_FACE('',(#316),#266,.T.);
#318=CARTESIAN_POINT('',(-75.219813249,-17.9,9.885317542));
#319=CARTESIAN_POINT('',(-80.622310606,-17.9,2.687191224));
#320=CARTESIAN_POINT('',(-110.202953984,-17.9,36.141639955));
#321=CARTESIAN_POINT('',(-115.605451341,-17.9,28.943513638));
#322=B_SPLINE_SURFACE_WITH_KNOTS('',1,1,((#318,#319),(#320,#321)),.UNSPECIFIED.,.F.,.F.,.U.,(2,2),(2,2),(-0.043403478,0.000336831),(-0.0045,0.0045),.UNSPECIFIED.);
#323=ORIENTED_EDGE('',*,*,#256,.T.);
#324=CARTESIAN_POINT('',(-84.221373761,-17.9,5.3884399));
#325=CARTESIAN_POINT('',(-80.622310606,-17.9,2.687191224));
#326=CARTESIAN_POINT('',(-77.921061931,-17.9,6.286254379));
#327=CARTESIAN_POINT('',(-75.219813255,-17.9,9.885317534));
#328=CARTESIAN_POINT('',(-78.81887641,-17.9,12.586566209));
#329=(BOUNDED_CURVE()
B_SPLINE_CURVE(2,(#324,#325,#326,#327,#328),.UNSPECIFIED.,.F.,.F.)
B_SPLINE_CURVE_WITH_KNOTS((3,2,3),(6.283185307,7.853981634,9.424777961),.UNSPECIFIED.)
CURVE()
GEOMETRIC_REPRESENTATION_ITEM()
RATIONAL_B_SPLINE_CURVE((1.,0.707106781,1.,0.707106781,1.))
REPRESENTATION_ITEM(''));
#330=EDGE_CURVE('',#247,#270,#329,.T.);
#331=ORIENTED_EDGE('',*,*,#330,.T.);
#332=ORIENTED_EDGE('',*,*,#274,.F.);
#333=CARTESIAN_POINT('',(-106.603890829,-17.9,33.44039128));
#334=CARTESIAN_POINT('',(-108.681810912,-17.9,34.999957931));
#335=CARTESIAN_POINT('',(-111.071395292,-17.9,33.980209676));
#336=CARTESIAN_POINT('',(-113.460979672,-17.9,32.960461421));
#337=CARTESIAN_POINT('',(-113.772643965,-17.9,30.381146516));
#338=CARTESIAN_POINT('',(-114.084308259,-17.9,27.801831611));
#339=CARTESIAN_POINT('',(-112.006388172,-17.9,26.242264964));
#340=(BOUNDED_CURVE()
B_SPLINE_CURVE(2,(#333,#334,#335,#336,#337,#338,#339),.UNSPECIFIED.,.F.,.F.)
B_SPLINE_CURVE_WITH_KNOTS((3,2,2,3),(3.141592651,4.188790203,5.235987755,6.283185307),.UNSPECIFIED.)
CURVE()
GEOMETRIC_REPRESENTATION_ITEM()
RATIONAL_B_SPLINE_CURVE((1.,0.866025404,1.,0.866025404,1.,0.866025404,1.))
REPRESENTATION_ITEM(''));
#341=EDGE_CURVE('',#268,#63,#340,.T.);
#342=ORIENTED_EDGE('',*,*,#341,.T.);
#343=ORIENTED_EDGE('',*,*,#98,.T.);
#344=EDGE_LOOP('',(#323,#331,#332,#342,#343));
#345=FACE_BOUND('',#344,.T.);
#346=ORIENTED_EDGE('',*,*,#152,.T.);
#347=ORIENTED_EDGE('',*,*,#164,.T.);
#348=EDGE_LOOP('',(#346,#347));
#349=FACE_BOUND('',#348,.T.);
#350=CARTESIAN_POINT('',(-82.359906488,-17.9,9.617794412));
#351=VERTEX_POINT('',#350);
#352=CARTESIAN_POINT('',(-81.22047584,-17.9,7.981167956));
#353=VERTEX_POINT('',#352);
#354=CARTESIAN_POINT('',(-81.22047584,-17.9,7.981167956));
#355=CARTESIAN_POINT('',(-80.214140742,-17.9,8.280817202));
#356=CARTESIAN_POINT('',(-80.513789987,-17.9,9.2871523));
#357=CARTESIAN_POINT('',(-80.813439233,-17.9,10.293487398));
#358=CARTESIAN_POINT('',(-81.819774331,-17.9,9.993838153));
#359=CARTESIAN_POINT('',(-82.826109429,-17.9,9.694188908));
#360=CARTESIAN_POINT('',(-82.526460184,-17.9,8.687853809));
#361=CARTESIAN_POINT('',(-82.226810938,-17.9,7.681518711));
#362=CARTESIAN_POINT('',(-81.22047584,-17.9,7.981167956));
#363=(BOUNDED_CURVE()
B_SPLINE_CURVE(2,(#354,#355,#356,#357,#358,#359,#360,#361,#362),.UNSPECIFIED.,.T.,.F.)
B_SPLINE_CURVE_WITH_KNOTS((3,2,2,2,3),(0.,1.570796327,3.141592654,4.71238898,6.283185307),.UNSPECIFIED.)
CURVE()
GEOMETRIC_REPRESENTATION_ITEM()
RATIONAL_B_SPLINE_CURVE((1.,0.707106781,1.,0.707106781,1.,0.707106781,1.,0.707106781,1.))
REPRESENTATION_ITEM(''));
#364=EDGE_CURVE('',#351,#353,#363,.T.);
#365=ORIENTED_EDGE('',*,*,#364,.F.);
#366=CARTESIAN_POINT('',(-81.22047584,-17.9,7.981167956));
#367=CARTESIAN_POINT('',(-80.214140742,-17.9,8.280817202));
#368=CARTESIAN_POINT('',(-80.513789987,-17.9,9.2871523));
#369=CARTESIAN_POINT('',(-80.813439233,-17.9,10.293487398));
#370=CARTESIAN_POINT('',(-81.819774331,-17.9,9.993838153));
#371=CARTESIAN_POINT('',(-82.826109429,-17.9,9.694188908));
#372=CARTESIAN_POINT('',(-82.526460184,-17.9,8.687853809));
#373=CARTESIAN_POINT('',(-82.226810938,-17.9,7.681518711));
#374=CARTESIAN_POINT('',(-81.22047584,-17.9,7.981167956));
#375=(BOUNDED_CURVE()
B_SPLINE_CURVE(2,(#366,#367,#368,#369,#370,#371,#372,#373,#374),.UNSPECIFIED.,.T.,.F.)
B_SPLINE_CURVE_WITH_KNOTS((3,2,2,2,3),(0.,1.570796327,3.141592654,4.71238898,6.283185307),.UNSPECIFIED.)
CURVE()
GEOMETRIC_REPRESENTATION_ITEM()
RATIONAL_B_SPLINE_CURVE((1.,0.707106781,1.,0.707106781,1.,0.707106781,1.,0.707106781,1.))
REPRESENTATION_ITEM(''));
#376=EDGE_CURVE('',#353,#351,#375,.T.);
#377=ORIENTED_EDGE('',*,*,#376,.F.);
#378=EDGE_LOOP('',(#365,#377));
#379=FACE_BOUND('',#378,.T.);
#380=ADVANCED_FACE('',(#345,#349,#379),#322,.T.);
#381=CARTESIAN_POINT('',(-112.90420266,-9.7,32.542576801));
#382=CARTESIAN_POINT('',(-112.90420266,-11.7,32.542576801));
#383=CARTESIAN_POINT('',(-115.605451341,-9.7,28.943513638));
#384=CARTESIAN_POINT('',(-115.605451341,-11.7,28.943513638));
#385=CARTESIAN_POINT('',(-112.006388172,-9.7,26.242264964));
#386=CARTESIAN_POINT('',(-112.006388172,-11.7,26.242264964));
#387=(BOUNDED_SURFACE()
B_SPLINE_SURFACE(2,1,((#381,#382),(#383,#384),(#385,#386)),.UNSPECIFIED.,.F.,.F.,.U.)
B_SPLINE_SURFACE_WITH_KNOTS((3,3),(2,2),(0.,1.533203628),(0.024725002,0.026725002),.UNSPECIFIED.)
GEOMETRIC_REPRESENTATION_ITEM()
RATIONAL_B_SPLINE_SURFACE(((1.,1.),(0.633974596,0.633974596),(0.803847578,0.803847578)))
REPRESENTATION_ITEM('')
SURFACE()
);
#388=CARTESIAN_POINT('',(-112.90420266,-11.7,32.542576801));
#389=VERTEX_POINT('',#388);
#390=CARTESIAN_POINT('',(-112.90420266,-9.7,32.542576801));
#391=VERTEX_POINT('',#390);
#392=CARTESIAN_POINT('',(-112.90420266,-11.7,32.542576801));
#393=CARTESIAN_POINT('',(-112.90420266,-9.7,32.542576801));
#394=B_SPLINE_CURVE_WITH_KNOTS('',1,(#392,#393),.UNSPECIFIED.,.F.,.F.,(2,2),(0.024725002,0.026725002),.UNSPECIFIED.);
#395=EDGE_CURVE('',#389,#391,#394,.T.);
#396=ORIENTED_EDGE('',*,*,#395,.T.);
#397=CARTESIAN_POINT('',(-112.006388172,-9.7,26.242264964));
#398=CARTESIAN_POINT('',(-114.084308259,-9.7,27.801831611));
#399=CARTESIAN_POINT('',(-113.772643965,-9.7,30.381146516));
#400=CARTESIAN_POINT('',(-113.460979672,-9.7,32.960461421));
#401=CARTESIAN_POINT('',(-111.071395292,-9.7,33.980209676));
#402=CARTESIAN_POINT('',(-108.681810912,-9.7,34.999957931));
#403=CARTESIAN_POINT('',(-106.603890829,-9.7,33.44039128));
#404=(BOUNDED_CURVE()
B_SPLINE_CURVE(2,(#397,#398,#399,#400,#401,#402,#403),.UNSPECIFIED.,.F.,.F.)
B_SPLINE_CURVE_WITH_KNOTS((3,2,2,3),(1.570796325,2.617993877,3.665191428,4.71238898),.UNSPECIFIED.)
CURVE()
GEOMETRIC_REPRESENTATION_ITEM()
RATIONAL_B_SPLINE_CURVE((1.,0.866025404,1.,0.866025404,1.,0.866025404,1.))
REPRESENTATION_ITEM(''));
#405=EDGE_CURVE('',#233,#391,#404,.T.);
#406=ORIENTED_EDGE('',*,*,#405,.F.);
#407=ORIENTED_EDGE('',*,*,#237,.T.);
#408=CARTESIAN_POINT('',(-106.603890829,-11.7,33.44039128));
#409=CARTESIAN_POINT('',(-110.202953984,-11.7,36.141639955));
#410=CARTESIAN_POINT('',(-112.90420266,-11.7,32.542576801));
#411=CARTESIAN_POINT('',(-115.605451335,-11.7,28.943513646));
#412=CARTESIAN_POINT('',(-112.00638818,-11.7,26.24226497));
#413=(BOUNDED_CURVE()
B_SPLINE_CURVE(2,(#408,#409,#410,#411,#412),.UNSPECIFIED.,.F.,.F.)
B_SPLINE_CURVE_WITH_KNOTS((3,2,3),(4.71238898,6.283185307,7.853981634),.UNSPECIFIED.)
CURVE()
GEOMETRIC_REPRESENTATION_ITEM()
RATIONAL_B_SPLINE_CURVE((1.,0.707106781,1.,0.707106781,1.))
REPRESENTATION_ITEM(''));
#414=EDGE_CURVE('',#389,#226,#413,.T.);
#415=ORIENTED_EDGE('',*,*,#414,.F.);
#416=EDGE_LOOP('',(#396,#406,#407,#415));
#417=FACE_BOUND('',#416,.T.);
#418=ADVANCED_FACE('',(#417),#387,.T.);
#419=CARTESIAN_POINT('',(-108.985222786,-9.7,29.601217124));
#420=CARTESIAN_POINT('',(-108.985222786,-11.7,29.601217124));
#421=CARTESIAN_POINT('',(-110.596774991,-9.7,27.45403304));
#422=CARTESIAN_POINT('',(-110.596774991,-11.7,27.45403304));
#423=CARTESIAN_POINT('',(-107.931482925,-9.7,27.131979932));
#424=CARTESIAN_POINT('',(-107.931482925,-11.7,27.131979932));
#425=CARTESIAN_POINT('',(-105.266190859,-9.7,26.809926825));
#426=CARTESIAN_POINT('',(-105.266190859,-11.7,26.809926825));
#427=CARTESIAN_POINT('',(-106.31993072,-9.7,29.279164016));
#428=CARTESIAN_POINT('',(-106.31993072,-11.7,29.279164016));
#429=CARTESIAN_POINT('',(-107.373670581,-9.7,31.748401208));
#430=CARTESIAN_POINT('',(-107.373670581,-11.7,31.748401208));
#431=CARTESIAN_POINT('',(-108.985222786,-9.7,29.601217124));
#432=CARTESIAN_POINT('',(-108.985222786,-11.7,29.601217124));
#433=(BOUNDED_SURFACE()
B_SPLINE_SURFACE(2,1,((#419,#420),(#421,#422),(#423,#424),(#425,#426),(#427,#428),(#429,#430),(#431,#432)),.UNSPECIFIED.,.T.,.F.,.U.)
B_SPLINE_SURFACE_WITH_KNOTS((3,2,2,3),(2,2),(0.,2.094395102,4.188790205,6.283185307),(0.007342348,0.009342348),.UNSPECIFIED.)
GEOMETRIC_REPRESENTATION_ITEM()
RATIONAL_B_SPLINE_SURFACE(((1.,1.),(0.5,0.5),(1.,1.),(0.5,0.5),(1.,1.),(0.5,0.5),(1.,1.)))
REPRESENTATION_ITEM('')
SURFACE()
);
#434=CARTESIAN_POINT('',(-108.985222786,-11.7,29.601217124));
#435=VERTEX_POINT('',#434);
#436=CARTESIAN_POINT('',(-108.985222786,-9.7,29.601217124));
#437=VERTEX_POINT('',#436);
#438=CARTESIAN_POINT('',(-108.985222786,-11.7,29.601217124));
#439=CARTESIAN_POINT('',(-108.985222786,-9.7,29.601217124));
#440=B_SPLINE_CURVE_WITH_KNOTS('',1,(#438,#439),.UNSPECIFIED.,.F.,.F.,(2,2),(0.007342348,0.009342348),.UNSPECIFIED.);
#441=EDGE_CURVE('',#435,#437,#440,.T.);
#442=ORIENTED_EDGE('',*,*,#441,.F.);
#443=CARTESIAN_POINT('',(-108.985222786,-11.7,29.601217124));
#444=CARTESIAN_POINT('',(-109.915652885,-11.7,28.361539815));
#445=CARTESIAN_POINT('',(-108.675975576,-11.7,27.431109715));
#446=CARTESIAN_POINT('',(-107.436298267,-11.7,26.500679616));
#447=CARTESIAN_POINT('',(-106.505868168,-11.7,27.740356925));
#448=CARTESIAN_POINT('',(-105.575438069,-11.7,28.980034234));
#449=CARTESIAN_POINT('',(-106.815115378,-11.7,29.910464333));
#450=CARTESIAN_POINT('',(-108.054792686,-11.7,30.840894432));
#451=CARTESIAN_POINT('',(-108.985222786,-11.7,29.601217124));
#452=(BOUNDED_CURVE()
B_SPLINE_CURVE(2,(#443,#444,#445,#446,#447,#448,#449,#450,#451),.UNSPECIFIED.,.T.,.F.)
B_SPLINE_CURVE_WITH_KNOTS((3,2,2,2,3),(0.,1.570796327,3.141592654,4.71238898,6.283185307),.UNSPECIFIED.)
CURVE()
GEOMETRIC_REPRESENTATION_ITEM()
RATIONAL_B_SPLINE_CURVE((1.,0.707106781,1.,0.707106781,1.,0.707106781,1.,0.707106781,1.))
REPRESENTATION_ITEM(''));
#453=EDGE_CURVE('',#435,#435,#452,.T.);
#454=ORIENTED_EDGE('',*,*,#453,.T.);
#455=ORIENTED_EDGE('',*,*,#441,.T.);
#456=CARTESIAN_POINT('',(-106.505868168,-9.7,27.740356925));
#457=VERTEX_POINT('',#456);
#458=CARTESIAN_POINT('',(-106.505868168,-9.7,27.740356925));
#459=CARTESIAN_POINT('',(-107.436298267,-9.7,26.500679616));
#460=CARTESIAN_POINT('',(-108.675975576,-9.7,27.431109715));
#461=CARTESIAN_POINT('',(-109.915652885,-9.7,28.361539815));
#462=CARTESIAN_POINT('',(-108.985222786,-9.7,29.601217124));
#463=CARTESIAN_POINT('',(-108.054792686,-9.7,30.840894432));
#464=CARTESIAN_POINT('',(-106.815115378,-9.7,29.910464333));
#465=CARTESIAN_POINT('',(-105.575438069,-9.7,28.980034234));
#466=CARTESIAN_POINT('',(-106.505868168,-9.7,27.740356925));
#467=(BOUNDED_CURVE()
B_SPLINE_CURVE(2,(#458,#459,#460,#461,#462,#463,#464,#465,#466),.UNSPECIFIED.,.T.,.F.)
B_SPLINE_CURVE_WITH_KNOTS((3,2,2,2,3),(0.,1.570796327,3.141592654,4.71238898,6.283185307),.UNSPECIFIED.)
CURVE()
GEOMETRIC_REPRESENTATION_ITEM()
RATIONAL_B_SPLINE_CURVE((1.,0.707106781,1.,0.707106781,1.,0.707106781,1.,0.707106781,1.))
REPRESENTATION_ITEM(''));
#468=EDGE_CURVE('',#437,#457,#467,.T.);
#469=ORIENTED_EDGE('',*,*,#468,.T.);
#470=CARTESIAN_POINT('',(-106.505868168,-9.7,27.740356925));
#471=CARTESIAN_POINT('',(-107.436298267,-9.7,26.500679616));
#472=CARTESIAN_POINT('',(-108.675975576,-9.7,27.431109715));
#473=CARTESIAN_POINT('',(-109.915652885,-9.7,28.361539815));
#474=CARTESIAN_POINT('',(-108.985222786,-9.7,29.601217124));
#475=CARTESIAN_POINT('',(-108.054792686,-9.7,30.840894432));
#476=CARTESIAN_POINT('',(-106.815115378,-9.7,29.910464333));
#477=CARTESIAN_POINT('',(-105.575438069,-9.7,28.980034234));
#478=CARTESIAN_POINT('',(-106.505868168,-9.7,27.740356925));
#479=(BOUNDED_CURVE()
B_SPLINE_CURVE(2,(#470,#471,#472,#473,#474,#475,#476,#477,#478),.UNSPECIFIED.,.T.,.F.)
B_SPLINE_CURVE_WITH_KNOTS((3,2,2,2,3),(0.,1.570796327,3.141592654,4.71238898,6.283185307),.UNSPECIFIED.)
CURVE()
GEOMETRIC_REPRESENTATION_ITEM()
RATIONAL_B_SPLINE_CURVE((1.,0.707106781,1.,0.707106781,1.,0.707106781,1.,0.707106781,1.))
REPRESENTATION_ITEM(''));
#480=EDGE_CURVE('',#457,#437,#479,.T.);
#481=ORIENTED_EDGE('',*,*,#480,.T.);
#482=EDGE_LOOP('',(#442,#454,#455,#469,#481));
#483=FACE_BOUND('',#482,.T.);
#484=ADVANCED_FACE('',(#483),#433,.F.);
#485=CARTESIAN_POINT('',(-97.38852472,-11.7,26.523870389));
#486=CARTESIAN_POINT('',(-102.791022077,-11.7,19.325744071));
#487=CARTESIAN_POINT('',(-110.202953984,-11.7,36.141639955));
#488=CARTESIAN_POINT('',(-115.605451341,-11.7,28.943513638));
#489=B_SPLINE_SURFACE_WITH_KNOTS('',1,1,((#485,#486),(#487,#488)),.UNSPECIFIED.,.F.,.F.,.U.,(2,2),(2,2),(-0.015685375,0.000336831),(-0.,0.009),.UNSPECIFIED.);
#490=ORIENTED_EDGE('',*,*,#453,.F.);
#491=EDGE_LOOP('',(#490));
#492=FACE_BOUND('',#491,.T.);
#493=CARTESIAN_POINT('',(-106.603890829,-11.7,33.44039128));
#494=CARTESIAN_POINT('',(-110.202953984,-11.7,36.141639955));
#495=CARTESIAN_POINT('',(-112.90420266,-11.7,32.542576801));
#496=CARTESIAN_POINT('',(-115.605451335,-11.7,28.943513646));
#497=CARTESIAN_POINT('',(-112.00638818,-11.7,26.24226497));
#498=(BOUNDED_CURVE()
B_SPLINE_CURVE(2,(#493,#494,#495,#496,#497),.UNSPECIFIED.,.F.,.F.)
B_SPLINE_CURVE_WITH_KNOTS((3,2,3),(4.71238898,6.283185307,7.853981634),.UNSPECIFIED.)
CURVE()
GEOMETRIC_REPRESENTATION_ITEM()
RATIONAL_B_SPLINE_CURVE((1.,0.707106781,1.,0.707106781,1.))
REPRESENTATION_ITEM(''));
#499=EDGE_CURVE('',#291,#389,#498,.T.);
#500=ORIENTED_EDGE('',*,*,#499,.T.);
#501=ORIENTED_EDGE('',*,*,#414,.T.);
#502=ORIENTED_EDGE('',*,*,#230,.T.);
#503=CARTESIAN_POINT('',(-97.388524726,-11.7,26.523870381));
#504=CARTESIAN_POINT('',(-102.791022077,-11.7,19.325744071));
#505=B_SPLINE_CURVE_WITH_KNOTS('',1,(#503,#504),.UNSPECIFIED.,.F.,.F.,(2,2),(0.,0.009),.UNSPECIFIED.);
#506=EDGE_CURVE('',#298,#219,#505,.T.);
#507=ORIENTED_EDGE('',*,*,#506,.F.);
#508=ORIENTED_EDGE('',*,*,#302,.F.);
#509=EDGE_LOOP('',(#500,#501,#502,#507,#508));
#510=FACE_BOUND('',#509,.T.);
#511=ADVANCED_FACE('',(#492,#510),#489,.T.);
#512=CARTESIAN_POINT('',(-110.202953984,-9.7,36.141639955));
#513=CARTESIAN_POINT('',(-115.605451341,-9.7,28.943513638));
#514=CARTESIAN_POINT('',(-75.219813249,-9.7,9.885317542));
#515=CARTESIAN_POINT('',(-80.622310606,-9.7,2.687191224));
#516=B_SPLINE_SURFACE_WITH_KNOTS('',1,1,((#512,#513),(#514,#515)),.UNSPECIFIED.,.F.,.F.,.U.,(2,2),(2,2),(-0.000336831,0.043403478),(-0.0045,0.0045),.UNSPECIFIED.);
#517=ORIENTED_EDGE('',*,*,#288,.T.);
#518=CARTESIAN_POINT('',(-78.81887641,-9.7,12.586566209));
#519=CARTESIAN_POINT('',(-75.219813255,-9.7,9.885317534));
#520=CARTESIAN_POINT('',(-77.921061931,-9.7,6.286254379));
#521=CARTESIAN_POINT('',(-80.622310606,-9.7,2.687191224));
#522=CARTESIAN_POINT('',(-84.221373761,-9.7,5.3884399));
#523=(BOUNDED_CURVE()
B_SPLINE_CURVE(2,(#518,#519,#520,#521,#522),.UNSPECIFIED.,.F.,.F.)
B_SPLINE_CURVE_WITH_KNOTS((3,2,3),(4.71238898,6.283185307,7.853981634),.UNSPECIFIED.)
CURVE()
GEOMETRIC_REPRESENTATION_ITEM()
RATIONAL_B_SPLINE_CURVE((1.,0.707106781,1.,0.707106781,1.))
REPRESENTATION_ITEM(''));
#524=EDGE_CURVE('',#277,#240,#523,.T.);
#525=ORIENTED_EDGE('',*,*,#524,.T.);
#526=ORIENTED_EDGE('',*,*,#244,.F.);
#527=ORIENTED_EDGE('',*,*,#405,.T.);
#528=CARTESIAN_POINT('',(-112.006388172,-9.7,26.242264964));
#529=CARTESIAN_POINT('',(-114.084308259,-9.7,27.801831611));
#530=CARTESIAN_POINT('',(-113.772643965,-9.7,30.381146516));
#531=CARTESIAN_POINT('',(-113.460979672,-9.7,32.960461421));
#532=CARTESIAN_POINT('',(-111.071395292,-9.7,33.980209676));
#533=CARTESIAN_POINT('',(-108.681810912,-9.7,34.999957931));
#534=CARTESIAN_POINT('',(-106.603890829,-9.7,33.44039128));
#535=(BOUNDED_CURVE()
B_SPLINE_CURVE(2,(#528,#529,#530,#531,#532,#533,#534),.UNSPECIFIED.,.F.,.F.)
B_SPLINE_CURVE_WITH_KNOTS((3,2,2,3),(1.570796325,2.617993877,3.665191428,4.71238898),.UNSPECIFIED.)
CURVE()
GEOMETRIC_REPRESENTATION_ITEM()
RATIONAL_B_SPLINE_CURVE((1.,0.866025404,1.,0.866025404,1.,0.866025404,1.))
REPRESENTATION_ITEM(''));
#536=EDGE_CURVE('',#391,#284,#535,.T.);
#537=ORIENTED_EDGE('',*,*,#536,.T.);
#538=EDGE_LOOP('',(#517,#525,#526,#527,#537));
#539=FACE_BOUND('',#538,.T.);
#540=ORIENTED_EDGE('',*,*,#468,.F.);
#541=ORIENTED_EDGE('',*,*,#480,.F.);
#542=EDGE_LOOP('',(#540,#541));
#543=FACE_BOUND('',#542,.T.);
#544=CARTESIAN_POINT('',(-82.359906488,-9.7,9.617794412));
#545=VERTEX_POINT('',#544);
#546=CARTESIAN_POINT('',(-80.680343683,-9.7,8.357211697));
#547=VERTEX_POINT('',#546);
#548=CARTESIAN_POINT('',(-80.680343683,-9.7,8.357211697));
#549=CARTESIAN_POINT('',(-81.31063504,-9.7,7.517430294));
#550=CARTESIAN_POINT('',(-82.150416443,-9.7,8.147721652));
#551=CARTESIAN_POINT('',(-82.990197846,-9.7,8.778013009));
#552=CARTESIAN_POINT('',(-82.359906488,-9.7,9.617794412));
#553=CARTESIAN_POINT('',(-81.729615131,-9.7,10.457575815));
#554=CARTESIAN_POINT('',(-80.889833728,-9.7,9.827284457));
#555=CARTESIAN_POINT('',(-80.050052325,-9.7,9.1969931));
#556=CARTESIAN_POINT('',(-80.680343683,-9.7,8.357211697));
#557=(BOUNDED_CURVE()
B_SPLINE_CURVE(2,(#548,#549,#550,#551,#552,#553,#554,#555,#556),.UNSPECIFIED.,.T.,.F.)
B_SPLINE_CURVE_WITH_KNOTS((3,2,2,2,3),(0.,1.570796327,3.141592654,4.71238898,6.283185307),.UNSPECIFIED.)
CURVE()
GEOMETRIC_REPRESENTATION_ITEM()
RATIONAL_B_SPLINE_CURVE((1.,0.707106781,1.,0.707106781,1.,0.707106781,1.,0.707106781,1.))
REPRESENTATION_ITEM(''));
#558=EDGE_CURVE('',#545,#547,#557,.T.);
#559=ORIENTED_EDGE('',*,*,#558,.F.);
#560=CARTESIAN_POINT('',(-80.680343683,-9.7,8.357211697));
#561=CARTESIAN_POINT('',(-81.31063504,-9.7,7.517430294));
#562=CARTESIAN_POINT('',(-82.150416443,-9.7,8.147721652));
#563=CARTESIAN_POINT('',(-82.990197846,-9.7,8.778013009));
#564=CARTESIAN_POINT('',(-82.359906488,-9.7,9.617794412));
#565=CARTESIAN_POINT('',(-81.729615131,-9.7,10.457575815));
#566=CARTESIAN_POINT('',(-80.889833728,-9.7,9.827284457));
#567=CARTESIAN_POINT('',(-80.050052325,-9.7,9.1969931));
#568=CARTESIAN_POINT('',(-80.680343683,-9.7,8.357211697));
#569=(BOUNDED_CURVE()
B_SPLINE_CURVE(2,(#560,#561,#562,#563,#564,#565,#566,#567,#568),.UNSPECIFIED.,.T.,.F.)
B_SPLINE_CURVE_WITH_KNOTS((3,2,2,2,3),(0.,1.570796327,3.141592654,4.71238898,6.283185307),.UNSPECIFIED.)
CURVE()
GEOMETRIC_REPRESENTATION_ITEM()
RATIONAL_B_SPLINE_CURVE((1.,0.707106781,1.,0.707106781,1.,0.707106781,1.,0.707106781,1.))
REPRESENTATION_ITEM(''));
#570=EDGE_CURVE('',#547,#545,#569,.T.);
#571=ORIENTED_EDGE('',*,*,#570,.F.);
#572=EDGE_LOOP('',(#559,#571));
#573=FACE_BOUND('',#572,.T.);
#574=ADVANCED_FACE('',(#539,#543,#573),#516,.T.);
#575=CARTESIAN_POINT('',(-102.791022077,-15.9,19.325744071));
#576=CARTESIAN_POINT('',(-102.791022077,-11.7,19.325744071));
#577=CARTESIAN_POINT('',(-97.388524726,-15.9,26.523870381));
#578=CARTESIAN_POINT('',(-97.388524726,-11.7,26.523870381));
#579=B_SPLINE_SURFACE_WITH_KNOTS('',1,1,((#575,#576),(#577,#578)),.UNSPECIFIED.,.F.,.F.,.U.,(2,2),(2,2),(-0.0045,0.0045),(-0.0021,0.0021),.UNSPECIFIED.);
#580=ORIENTED_EDGE('',*,*,#223,.T.);
#581=ORIENTED_EDGE('',*,*,#207,.T.);
#582=ORIENTED_EDGE('',*,*,#307,.T.);
#583=ORIENTED_EDGE('',*,*,#506,.T.);
#584=EDGE_LOOP('',(#580,#581,#582,#583));
#585=FACE_BOUND('',#584,.T.);
#586=ADVANCED_FACE('',(#585),#579,.T.);
#587=CARTESIAN_POINT('',(-84.221373761,-9.7,5.3884399));
#588=CARTESIAN_POINT('',(-84.221373761,-17.9,5.3884399));
#589=CARTESIAN_POINT('',(-83.257007695,-9.7,4.664642499));
#590=CARTESIAN_POINT('',(-83.257007695,-17.9,4.664642499));
#591=CARTESIAN_POINT('',(-82.059943483,-9.7,4.519998595));
#592=CARTESIAN_POINT('',(-82.059943483,-17.9,4.519998595));
#593=CARTESIAN_POINT('',(-74.321998776,-9.7,3.585005703));
#594=CARTESIAN_POINT('',(-74.321998776,-17.9,3.585005703));
#595=CARTESIAN_POINT('',(-77.381243533,-9.7,10.753758839));
#596=CARTESIAN_POINT('',(-77.381243533,-17.9,10.753758839));
#597=CARTESIAN_POINT('',(-77.854510344,-9.7,11.862768808));
#598=CARTESIAN_POINT('',(-77.854510344,-17.9,11.862768808));
#599=CARTESIAN_POINT('',(-78.81887641,-9.7,12.586566209));
#600=CARTESIAN_POINT('',(-78.81887641,-17.9,12.586566209));
#601=(BOUNDED_SURFACE()
B_SPLINE_SURFACE(2,1,((#587,#588),(#589,#590),(#591,#592),(#593,#594),(#595,#596),(#597,#598),(#599,#600)),.UNSPECIFIED.,.F.,.F.,.U.)
B_SPLINE_SURFACE_WITH_KNOTS((3,2,2,3),(2,2),(1.533203626,2.094395102,4.188790205,4.749981681),(0.007996474,0.016196474),.UNSPECIFIED.)
GEOMETRIC_REPRESENTATION_ITEM()
RATIONAL_B_SPLINE_SURFACE(((0.803847577,0.803847577),(0.866025404,0.866025404),(1.,1.),(0.5,0.5),(1.,1.),(0.866025404,0.866025404),(0.803847577,0.803847577)))
REPRESENTATION_ITEM('')
SURFACE()
);
#602=ORIENTED_EDGE('',*,*,#281,.T.);
#603=ORIENTED_EDGE('',*,*,#330,.F.);
#604=ORIENTED_EDGE('',*,*,#251,.F.);
#605=ORIENTED_EDGE('',*,*,#524,.F.);
#606=EDGE_LOOP('',(#602,#603,#604,#605));
#607=FACE_BOUND('',#606,.T.);
#608=ADVANCED_FACE('',(#607),#601,.T.);
#609=CARTESIAN_POINT('',(-82.359906488,-9.7,9.617794412));
#610=CARTESIAN_POINT('',(-82.359906488,-17.9,9.617794412));
#611=CARTESIAN_POINT('',(-83.451603143,-9.7,8.163250355));
#612=CARTESIAN_POINT('',(-83.451603143,-17.9,8.163250355));
#613=CARTESIAN_POINT('',(-81.646082712,-9.7,7.945085347));
#614=CARTESIAN_POINT('',(-81.646082712,-17.9,7.945085347));
#615=CARTESIAN_POINT('',(-79.84056228,-9.7,7.726920339));
#616=CARTESIAN_POINT('',(-79.84056228,-17.9,7.726920339));
#617=CARTESIAN_POINT('',(-80.554386057,-9.7,9.399629404));
#618=CARTESIAN_POINT('',(-80.554386057,-17.9,9.399629404));
#619=CARTESIAN_POINT('',(-81.268209833,-9.7,11.072338469));
#620=CARTESIAN_POINT('',(-81.268209833,-17.9,11.072338469));
#621=CARTESIAN_POINT('',(-82.359906488,-9.7,9.617794412));
#622=CARTESIAN_POINT('',(-82.359906488,-17.9,9.617794412));
#623=(BOUNDED_SURFACE()
B_SPLINE_SURFACE(2,1,((#609,#610),(#611,#612),(#613,#614),(#615,#616),(#617,#618),(#619,#620),(#621,#622)),.UNSPECIFIED.,.T.,.F.,.U.)
B_SPLINE_SURFACE_WITH_KNOTS((3,2,2,3),(2,2),(0.,2.094395102,4.188790205,6.283185307),(0.026034953,0.034234953),.UNSPECIFIED.)
GEOMETRIC_REPRESENTATION_ITEM()
RATIONAL_B_SPLINE_SURFACE(((1.,1.),(0.5,0.5),(1.,1.),(0.5,0.5),(1.,1.),(0.5,0.5),(1.,1.)))
REPRESENTATION_ITEM('')
SURFACE()
);
#624=CARTESIAN_POINT('',(-82.359906488,-17.9,9.617794412));
#625=CARTESIAN_POINT('',(-82.359906488,-9.7,9.617794412));
#626=B_SPLINE_CURVE_WITH_KNOTS('',1,(#624,#625),.UNSPECIFIED.,.F.,.F.,(2,2),(0.026034953,0.034234953),.UNSPECIFIED.);
#627=EDGE_CURVE('',#351,#545,#626,.T.);
#628=ORIENTED_EDGE('',*,*,#627,.F.);
#629=ORIENTED_EDGE('',*,*,#364,.T.);
#630=ORIENTED_EDGE('',*,*,#376,.T.);
#631=ORIENTED_EDGE('',*,*,#627,.T.);
#632=ORIENTED_EDGE('',*,*,#558,.T.);
#633=ORIENTED_EDGE('',*,*,#570,.T.);
#634=EDGE_LOOP('',(#628,#629,#630,#631,#632,#633));
#635=FACE_BOUND('',#634,.T.);
#636=ADVANCED_FACE('',(#635),#623,.F.);
#637=CARTESIAN_POINT('',(-106.603890829,-15.9,33.44039128));
#638=CARTESIAN_POINT('',(-106.603890829,-17.9,33.44039128));
#639=CARTESIAN_POINT('',(-110.202953984,-15.9,36.141639955));
#640=CARTESIAN_POINT('',(-110.202953984,-17.9,36.141639955));
#641=CARTESIAN_POINT('',(-112.90420266,-15.9,32.542576801));
#642=CARTESIAN_POINT('',(-112.90420266,-17.9,32.542576801));
#643=(BOUNDED_SURFACE()
B_SPLINE_SURFACE(2,1,((#637,#638),(#639,#640),(#641,#642)),.UNSPECIFIED.,.F.,.F.,.U.)
B_SPLINE_SURFACE_WITH_KNOTS((3,3),(2,2),(4.749981681,6.283185307),(0.030925002,0.032925002),.UNSPECIFIED.)
GEOMETRIC_REPRESENTATION_ITEM()
RATIONAL_B_SPLINE_SURFACE(((0.803847577,0.803847577),(0.633974596,0.633974596),(1.,1.)))
REPRESENTATION_ITEM('')
SURFACE()
);
#644=ORIENTED_EDGE('',*,*,#69,.F.);
#645=ORIENTED_EDGE('',*,*,#341,.F.);
#646=ORIENTED_EDGE('',*,*,#313,.F.);
#647=ORIENTED_EDGE('',*,*,#195,.F.);
#648=EDGE_LOOP('',(#644,#645,#646,#647));
#649=FACE_BOUND('',#648,.T.);
#650=ADVANCED_FACE('',(#649),#643,.T.);
#651=CARTESIAN_POINT('',(-106.603890829,-9.7,33.44039128));
#652=CARTESIAN_POINT('',(-106.603890829,-11.7,33.44039128));
#653=CARTESIAN_POINT('',(-110.202953984,-9.7,36.141639955));
#654=CARTESIAN_POINT('',(-110.202953984,-11.7,36.141639955));
#655=CARTESIAN_POINT('',(-112.90420266,-9.7,32.542576801));
#656=CARTESIAN_POINT('',(-112.90420266,-11.7,32.542576801));
#657=(BOUNDED_SURFACE()
B_SPLINE_SURFACE(2,1,((#651,#652),(#653,#654),(#655,#656)),.UNSPECIFIED.,.F.,.F.,.U.)
B_SPLINE_SURFACE_WITH_KNOTS((3,3),(2,2),(4.749981681,6.283185307),(0.024725002,0.026725002),.UNSPECIFIED.)
GEOMETRIC_REPRESENTATION_ITEM()
RATIONAL_B_SPLINE_SURFACE(((0.803847577,0.803847577),(0.633974596,0.633974596),(1.,1.)))
REPRESENTATION_ITEM('')
SURFACE()
);
#658=ORIENTED_EDGE('',*,*,#395,.F.);
#659=ORIENTED_EDGE('',*,*,#499,.F.);
#660=ORIENTED_EDGE('',*,*,#295,.F.);
#661=ORIENTED_EDGE('',*,*,#536,.F.);
#662=EDGE_LOOP('',(#658,#659,#660,#661));
#663=FACE_BOUND('',#662,.T.);
#664=ADVANCED_FACE('',(#663),#657,.T.);
#665=CLOSED_SHELL('',(#102,#168,#211,#261,#317,#380,#418,#484,#511,#574,#586,#608,#636,#650,#664));
#666=MANIFOLD_SOLID_BREP('Pusher',#665);
#54=STYLED_ITEM('',(),#666);
#35=SHAPE_REPRESENTATION('FiringMechanism',(#15),#33);
#36=ADVANCED_BREP_SHAPE_REPRESENTATION('FiringMechanism',(#666),#33);
#674=SHAPE_REPRESENTATION_RELATIONSHIP('','',#35,#36);
#675=APPLICATION_CONTEXT('configuration controlled 3D design of mechanical parts and assemblies');
#676=APPLICATION_PROTOCOL_DEFINITION('international standard','configuration_control_3d_design_ed2_mim',2004,#675);
#677=PRODUCT_CONTEXT('',#675,'mechanical');
#678=PRODUCT_DEFINITION_CONTEXT('part definition',#675,'design');
#43=PRODUCT('0','0','',(#677));
#679=PRODUCT_RELATED_PRODUCT_CATEGORY('part','',(#43));
#680=PRODUCT_DEFINITION_FORMATION_WITH_SPECIFIED_SOURCE('','',#43,.NOT_KNOWN.);
#44=PRODUCT_DEFINITION('design','',#680,#678);
#42=PRODUCT_DEFINITION_SHAPE('','',#44);
#681=SHAPE_DEFINITION_REPRESENTATION(#42,#35);
#34=DRAUGHTING_MODEL('',(),#33);
#16=SHAPE_REPRESENTATION('root',(#15,#48),#10);
#24=PRODUCT('root','root','',(#677));
#682=PRODUCT_RELATED_PRODUCT_CATEGORY('part','',(#24));
#683=PRODUCT_DEFINITION_FORMATION_WITH_SPECIFIED_SOURCE('','',#24,.NOT_KNOWN.);
#25=PRODUCT_DEFINITION('design','',#683,#678);
#23=PRODUCT_DEFINITION_SHAPE('','',#25);
#684=SHAPE_DEFINITION_REPRESENTATION(#23,#16);
#11=DRAUGHTING_MODEL('',(),#10);
#1=MECHANICAL_DESIGN_GEOMETRIC_PRESENTATION_REPRESENTATION('',(#54),#10);
ENDSEC;
END-ISO-10303-21;
