ISO-10303-21;
HEADER;

/* File generated by HOOPS Exchange Version 25.8.0 */

FILE_DESCRIPTION(('HOOPS Exchange Step'),'2;1');

FILE_NAME('/home/tfannes/repo/klepto/cart/stl/servo_holder.step',
'2026-09-12T13:18:35+02:00',
('tfannes'),
('Unknown organisation'),
'HOOPS Exchange 2025.8',
'HOOPS Exchange',
'Unknown authorisation');

FILE_SCHEMA( ('AP203_CONFIGURATION_CONTROLLED_3D_DESIGN_OF_MECHANICAL_PARTS_AND_ASSEMBLIES_MIM_LF') );

ENDSEC;

DATA;
#3=(NAMED_UNIT(*)PLANE_ANGLE_UNIT()SI_UNIT($,.RADIAN.));
#4=PLANE_ANGLE_MEASURE_WITH_UNIT(PLANE_ANGLE_MEASURE(0.0174532925),#3);
#5=(CONVERSION_BASED_UNIT('DEGREE',#4)NAMED_UNIT(#6)PLANE_ANGLE_UNIT());
#6=DIMENSIONAL_EXPONENTS(0.,0.,0.,0.,0.,0.,0.);
#7=(NAMED_UNIT(*)SI_UNIT($,.STERADIAN.)SOLID_ANGLE_UNIT());
#8=(LENGTH_UNIT()NAMED_UNIT(*)SI_UNIT(.MILLI.,.METRE.));
#9=UNCERTAINTY_MEASURE_WITH_UNIT(LENGTH_MEASURE(1.000000E-03),#8,'DISTANCE_ACCURACY_VALUE','Maximum Tolerance applied to model');
#10=(GEOMETRIC_REPRESENTATION_CONTEXT(3)GLOBAL_UNCERTAINTY_ASSIGNED_CONTEXT((#9))GLOBAL_UNIT_ASSIGNED_CONTEXT((#8,#5,#7))REPRESENTATION_CONTEXT('','root'));
#12=CARTESIAN_POINT('',(0.,0.,0.));
#13=DIRECTION('',(0.,0.,1.));
#14=DIRECTION('',(1.,0.,0.));
#15=AXIS2_PLACEMENT_3D('TS3D_PRODUCT_CSYS',#12,#13,#14);
#26=(NAMED_UNIT(*)PLANE_ANGLE_UNIT()SI_UNIT($,.RADIAN.));
#27=PLANE_ANGLE_MEASURE_WITH_UNIT(PLANE_ANGLE_MEASURE(0.0174532925),#26);
#28=(CONVERSION_BASED_UNIT('DEGREE',#27)NAMED_UNIT(#29)PLANE_ANGLE_UNIT());
#29=DIMENSIONAL_EXPONENTS(0.,0.,0.,0.,0.,0.,0.);
#30=(NAMED_UNIT(*)SI_UNIT($,.STERADIAN.)SOLID_ANGLE_UNIT());
#31=(LENGTH_UNIT()NAMED_UNIT(*)SI_UNIT(.MILLI.,.METRE.));
#32=UNCERTAINTY_MEASURE_WITH_UNIT(LENGTH_MEASURE(1.000000E-05),#31,'DISTANCE_ACCURACY_VALUE','Maximum Tolerance applied to model');
#33=(GEOMETRIC_REPRESENTATION_CONTEXT(3)GLOBAL_UNCERTAINTY_ASSIGNED_CONTEXT((#32))GLOBAL_UNIT_ASSIGNED_CONTEXT((#31,#28,#30))REPRESENTATION_CONTEXT('','0'));
#45=CARTESIAN_POINT('',(0.,0.,0.));
#46=DIRECTION('',(0.,0.,1.));
#47=DIRECTION('',(1.,0.,-0.));
#48=AXIS2_PLACEMENT_3D('',#45,#46,#47);
#49=ITEM_DEFINED_TRANSFORMATION('','',#48,#15);
#50=(REPRESENTATION_RELATIONSHIP('','',#35,#16)REPRESENTATION_RELATIONSHIP_WITH_TRANSFORMATION(#49)SHAPE_REPRESENTATION_RELATIONSHIP());
#51=NEXT_ASSEMBLY_USAGE_OCCURRENCE('Base_1','Base','Base',#25,#44,$);
#52=PRODUCT_DEFINITION_SHAPE('','',#51);
#53=CONTEXT_DEPENDENT_SHAPE_REPRESENTATION(#50,#52);
#55=CARTESIAN_POINT('',(-85.,-5.204471261,52.205647197));
#56=CARTESIAN_POINT('',(-85.,17.904471261,52.205647197));
#57=CARTESIAN_POINT('',(-111.9,-5.204471261,52.205647197));
#58=CARTESIAN_POINT('',(-111.9,17.904471261,52.205647197));
#59=B_SPLINE_SURFACE_WITH_KNOTS('',1,1,((#55,#56),(#57,#58)),.UNSPECIFIED.,.F.,.F.,.U.,(2,2),(2,2),(-0.028982704,-0.002082704),(-0.019154471,0.003954471),.UNSPECIFIED.);
#60=CARTESIAN_POINT('',(-95.3,13.95,52.205647197));
#61=VERTEX_POINT('',#60);
#62=CARTESIAN_POINT('',(-95.3,17.904471261,52.205647197));
#63=VERTEX_POINT('',#62);
#64=CARTESIAN_POINT('',(-95.3,13.95,52.205647197));
#65=CARTESIAN_POINT('',(-95.3,17.904471261,52.205647197));
#66=B_SPLINE_CURVE_WITH_KNOTS('',1,(#64,#65),.UNSPECIFIED.,.F.,.F.,(2,2),(0.,0.003954471),.UNSPECIFIED.);
#67=EDGE_CURVE('',#61,#63,#66,.T.);
#68=ORIENTED_EDGE('',*,*,#67,.T.);
#69=CARTESIAN_POINT('',(-111.9,17.904471261,52.205647197));
#70=VERTEX_POINT('',#69);
#71=CARTESIAN_POINT('',(-111.9,17.904471261,52.205647197));
#72=CARTESIAN_POINT('',(-95.3,17.904471261,52.205647197));
#73=B_SPLINE_CURVE_WITH_KNOTS('',1,(#71,#72),.UNSPECIFIED.,.F.,.F.,(2,2),(0.002082704,0.018682704),.UNSPECIFIED.);
#74=EDGE_CURVE('',#70,#63,#73,.T.);
#75=ORIENTED_EDGE('',*,*,#74,.F.);
#76=CARTESIAN_POINT('',(-111.9,1.45,52.205647197));
#77=VERTEX_POINT('',#76);
#78=CARTESIAN_POINT('',(-111.9,17.904471261,52.205647197));
#79=CARTESIAN_POINT('',(-111.9,1.45,52.205647197));
#80=B_SPLINE_CURVE_WITH_KNOTS('',1,(#78,#79),.UNSPECIFIED.,.F.,.F.,(2,2),(-0.008227236,0.008227236),.UNSPECIFIED.);
#81=EDGE_CURVE('',#70,#77,#80,.T.);
#82=ORIENTED_EDGE('',*,*,#81,.T.);
#83=CARTESIAN_POINT('',(-102.200032697,1.45,52.205647197));
#84=VERTEX_POINT('',#83);
#85=CARTESIAN_POINT('',(-111.9,1.45,52.205647197));
#86=CARTESIAN_POINT('',(-102.200032697,1.45,52.205647197));
#87=B_SPLINE_CURVE_WITH_KNOTS('',1,(#85,#86),.UNSPECIFIED.,.F.,.F.,(2,2),(-0.011152875,-0.001452907),.UNSPECIFIED.);
#88=EDGE_CURVE('',#77,#84,#87,.T.);
#89=ORIENTED_EDGE('',*,*,#88,.T.);
#90=CARTESIAN_POINT('',(-102.200032697,-5.204471261,52.205647197));
#91=VERTEX_POINT('',#90);
#92=CARTESIAN_POINT('',(-102.200032697,-5.204471261,52.205647197));
#93=CARTESIAN_POINT('',(-102.200032697,1.45,52.205647197));
#94=B_SPLINE_CURVE_WITH_KNOTS('',1,(#92,#93),.UNSPECIFIED.,.F.,.F.,(2,2),(-0.019154471,-0.0125),.UNSPECIFIED.);
#95=EDGE_CURVE('',#91,#84,#94,.T.);
#96=ORIENTED_EDGE('',*,*,#95,.F.);
#97=CARTESIAN_POINT('',(-85.,-5.204471261,52.205647197));
#98=VERTEX_POINT('',#97);
#99=CARTESIAN_POINT('',(-102.200032697,-5.204471261,52.205647197));
#100=CARTESIAN_POINT('',(-85.,-5.204471261,52.205647197));
#101=B_SPLINE_CURVE_WITH_KNOTS('',1,(#99,#100),.UNSPECIFIED.,.F.,.F.,(2,2),(-0.0015,0.015700033),.UNSPECIFIED.);
#102=EDGE_CURVE('',#91,#98,#101,.T.);
#103=ORIENTED_EDGE('',*,*,#102,.T.);
#104=CARTESIAN_POINT('',(-85.,-1.25,52.205647197));
#105=VERTEX_POINT('',#104);
#106=CARTESIAN_POINT('',(-85.,-5.204471261,52.205647197));
#107=CARTESIAN_POINT('',(-85.,-1.25,52.205647197));
#108=B_SPLINE_CURVE_WITH_KNOTS('',1,(#106,#107),.UNSPECIFIED.,.F.,.F.,(2,2),(0.,0.003954471),.UNSPECIFIED.);
#109=EDGE_CURVE('',#98,#105,#108,.T.);
#110=ORIENTED_EDGE('',*,*,#109,.T.);
#111=CARTESIAN_POINT('',(-98.700032697,-1.25,52.205647197));
#112=VERTEX_POINT('',#111);
#113=CARTESIAN_POINT('',(-98.700032697,-1.25,52.205647197));
#114=CARTESIAN_POINT('',(-85.,-1.25,52.205647197));
#115=B_SPLINE_CURVE_WITH_KNOTS('',1,(#113,#114),.UNSPECIFIED.,.F.,.F.,(2,2),(0.001292692,0.014992724),.UNSPECIFIED.);
#116=EDGE_CURVE('',#112,#105,#115,.T.);
#117=ORIENTED_EDGE('',*,*,#116,.F.);
#118=CARTESIAN_POINT('',(-98.700032697,1.45,52.205647197));
#119=VERTEX_POINT('',#118);
#120=CARTESIAN_POINT('',(-98.700032697,-1.25,52.205647197));
#121=CARTESIAN_POINT('',(-98.700032697,1.45,52.205647197));
#122=B_SPLINE_CURVE_WITH_KNOTS('',1,(#120,#121),.UNSPECIFIED.,.F.,.F.,(2,2),(0.003954471,0.006654471),.UNSPECIFIED.);
#123=EDGE_CURVE('',#112,#119,#122,.T.);
#124=ORIENTED_EDGE('',*,*,#123,.T.);
#125=CARTESIAN_POINT('',(-85.,1.45,52.205647197));
#126=VERTEX_POINT('',#125);
#127=CARTESIAN_POINT('',(-98.700032697,1.45,52.205647197));
#128=CARTESIAN_POINT('',(-85.,1.45,52.205647197));
#129=B_SPLINE_CURVE_WITH_KNOTS('',1,(#127,#128),.UNSPECIFIED.,.F.,.F.,(2,2),(0.002047093,0.015747125),.UNSPECIFIED.);
#130=EDGE_CURVE('',#119,#126,#129,.T.);
#131=ORIENTED_EDGE('',*,*,#130,.T.);
#132=CARTESIAN_POINT('',(-85.,11.25,52.205647197));
#133=VERTEX_POINT('',#132);
#134=CARTESIAN_POINT('',(-85.,11.25,52.205647197));
#135=CARTESIAN_POINT('',(-85.,1.45,52.205647197));
#136=B_SPLINE_CURVE_WITH_KNOTS('',1,(#134,#135),.UNSPECIFIED.,.F.,.F.,(2,2),(0.,0.0098),.UNSPECIFIED.);
#137=EDGE_CURVE('',#133,#126,#136,.T.);
#138=ORIENTED_EDGE('',*,*,#137,.F.);
#139=CARTESIAN_POINT('',(-109.4,11.25,52.205647197));
#140=VERTEX_POINT('',#139);
#141=CARTESIAN_POINT('',(-109.4,11.25,52.205647197));
#142=CARTESIAN_POINT('',(-85.,11.25,52.205647197));
#143=B_SPLINE_CURVE_WITH_KNOTS('',1,(#141,#142),.UNSPECIFIED.,.F.,.F.,(2,2),(-0.008652875,0.015747125),.UNSPECIFIED.);
#144=EDGE_CURVE('',#140,#133,#143,.T.);
#145=ORIENTED_EDGE('',*,*,#144,.F.);
#146=CARTESIAN_POINT('',(-109.4,13.95,52.205647197));
#147=VERTEX_POINT('',#146);
#148=CARTESIAN_POINT('',(-109.4,13.95,52.205647197));
#149=CARTESIAN_POINT('',(-109.4,11.25,52.205647197));
#150=B_SPLINE_CURVE_WITH_KNOTS('',1,(#148,#149),.UNSPECIFIED.,.F.,.F.,(2,2),(0.003954471,0.006654471),.UNSPECIFIED.);
#151=EDGE_CURVE('',#147,#140,#150,.T.);
#152=ORIENTED_EDGE('',*,*,#151,.F.);
#153=CARTESIAN_POINT('',(-109.4,13.95,52.205647197));
#154=CARTESIAN_POINT('',(-95.3,13.95,52.205647197));
#155=B_SPLINE_CURVE_WITH_KNOTS('',1,(#153,#154),.UNSPECIFIED.,.F.,.F.,(2,2),(0.004582704,0.018682704),.UNSPECIFIED.);
#156=EDGE_CURVE('',#147,#61,#155,.T.);
#157=ORIENTED_EDGE('',*,*,#156,.T.);
#158=EDGE_LOOP('',(#68,#75,#82,#89,#96,#103,#110,#117,#124,#131,#138,#145,#152,#157));
#159=FACE_BOUND('',#158,.T.);
#160=ADVANCED_FACE('',(#159),#59,.F.);
#161=CARTESIAN_POINT('',(-111.9,17.904471261,45.55));
#162=CARTESIAN_POINT('',(-111.9,17.904471261,52.205647197));
#163=CARTESIAN_POINT('',(-95.3,17.904471261,45.55));
#164=CARTESIAN_POINT('',(-95.3,17.904471261,52.205647197));
#165=B_SPLINE_SURFACE_WITH_KNOTS('',1,1,((#161,#162),(#163,#164)),.UNSPECIFIED.,.F.,.F.,.U.,(2,2),(2,2),(0.002082704,0.018682704),(-0.006655647,0.),.UNSPECIFIED.);
#166=CARTESIAN_POINT('',(-95.3,17.904471261,45.55));
#167=VERTEX_POINT('',#166);
#168=CARTESIAN_POINT('',(-95.3,17.904471261,52.205647197));
#169=CARTESIAN_POINT('',(-95.3,17.904471261,45.55));
#170=B_SPLINE_CURVE_WITH_KNOTS('',1,(#168,#169),.UNSPECIFIED.,.F.,.F.,(2,2),(0.,0.006655647),.UNSPECIFIED.);
#171=EDGE_CURVE('',#63,#167,#170,.T.);
#172=ORIENTED_EDGE('',*,*,#171,.T.);
#173=CARTESIAN_POINT('',(-111.9,17.904471261,45.55));
#174=VERTEX_POINT('',#173);
#175=CARTESIAN_POINT('',(-111.9,17.904471261,45.55));
#176=CARTESIAN_POINT('',(-95.3,17.904471261,45.55));
#177=B_SPLINE_CURVE_WITH_KNOTS('',1,(#175,#176),.UNSPECIFIED.,.F.,.F.,(2,2),(0.002082704,0.018682704),.UNSPECIFIED.);
#178=EDGE_CURVE('',#174,#167,#177,.T.);
#179=ORIENTED_EDGE('',*,*,#178,.F.);
#180=CARTESIAN_POINT('',(-111.9,17.904471261,45.55));
#181=CARTESIAN_POINT('',(-111.9,17.904471261,52.205647197));
#182=B_SPLINE_CURVE_WITH_KNOTS('',1,(#180,#181),.UNSPECIFIED.,.F.,.F.,(2,2),(0.0117,0.018355647),.UNSPECIFIED.);
#183=EDGE_CURVE('',#174,#70,#182,.T.);
#184=ORIENTED_EDGE('',*,*,#183,.T.);
#185=ORIENTED_EDGE('',*,*,#74,.T.);
#186=EDGE_LOOP('',(#172,#179,#184,#185));
#187=FACE_BOUND('',#186,.T.);
#188=ADVANCED_FACE('',(#187),#165,.F.);
#189=CARTESIAN_POINT('',(-111.9,-5.204471261,45.55));
#190=CARTESIAN_POINT('',(-111.9,17.904471261,45.55));
#191=CARTESIAN_POINT('',(-85.,-5.204471261,45.55));
#192=CARTESIAN_POINT('',(-85.,17.904471261,45.55));
#193=B_SPLINE_SURFACE_WITH_KNOTS('',1,1,((#189,#190),(#191,#192)),.UNSPECIFIED.,.F.,.F.,.U.,(2,2),(2,2),(0.002082704,0.028982704),(-0.023108943,0.),.UNSPECIFIED.);
#194=CARTESIAN_POINT('',(-95.3,13.95,45.55));
#195=VERTEX_POINT('',#194);
#196=CARTESIAN_POINT('',(-95.3,17.904471261,45.55));
#197=CARTESIAN_POINT('',(-95.3,13.95,45.55));
#198=B_SPLINE_CURVE_WITH_KNOTS('',1,(#196,#197),.UNSPECIFIED.,.F.,.F.,(2,2),(0.,0.003954471),.UNSPECIFIED.);
#199=EDGE_CURVE('',#167,#195,#198,.T.);
#200=ORIENTED_EDGE('',*,*,#199,.T.);
#201=CARTESIAN_POINT('',(-109.4,13.95,45.55));
#202=VERTEX_POINT('',#201);
#203=CARTESIAN_POINT('',(-109.4,13.95,45.55));
#204=CARTESIAN_POINT('',(-95.3,13.95,45.55));
#205=B_SPLINE_CURVE_WITH_KNOTS('',1,(#203,#204),.UNSPECIFIED.,.F.,.F.,(2,2),(0.004582704,0.018682704),.UNSPECIFIED.);
#206=EDGE_CURVE('',#202,#195,#205,.T.);
#207=ORIENTED_EDGE('',*,*,#206,.F.);
#208=CARTESIAN_POINT('',(-109.4,11.25,45.55));
#209=VERTEX_POINT('',#208);
#210=CARTESIAN_POINT('',(-109.4,11.25,45.55));
#211=CARTESIAN_POINT('',(-109.4,13.95,45.55));
#212=B_SPLINE_CURVE_WITH_KNOTS('',1,(#210,#211),.UNSPECIFIED.,.F.,.F.,(2,2),(0.0098,0.0125),.UNSPECIFIED.);
#213=EDGE_CURVE('',#209,#202,#212,.T.);
#214=ORIENTED_EDGE('',*,*,#213,.F.);
#215=CARTESIAN_POINT('',(-85.,11.25,45.55));
#216=VERTEX_POINT('',#215);
#217=CARTESIAN_POINT('',(-109.4,11.25,45.55));
#218=CARTESIAN_POINT('',(-85.,11.25,45.55));
#219=B_SPLINE_CURVE_WITH_KNOTS('',1,(#217,#218),.UNSPECIFIED.,.F.,.F.,(2,2),(-0.008652875,0.015747125),.UNSPECIFIED.);
#220=EDGE_CURVE('',#209,#216,#219,.T.);
#221=ORIENTED_EDGE('',*,*,#220,.T.);
#222=CARTESIAN_POINT('',(-85.,1.45,45.55));
#223=VERTEX_POINT('',#222);
#224=CARTESIAN_POINT('',(-85.,1.45,45.55));
#225=CARTESIAN_POINT('',(-85.,11.25,45.55));
#226=B_SPLINE_CURVE_WITH_KNOTS('',1,(#224,#225),.UNSPECIFIED.,.F.,.F.,(2,2),(0.,0.0098),.UNSPECIFIED.);
#227=EDGE_CURVE('',#223,#216,#226,.T.);
#228=ORIENTED_EDGE('',*,*,#227,.F.);
#229=CARTESIAN_POINT('',(-98.700032697,1.45,45.55));
#230=VERTEX_POINT('',#229);
#231=CARTESIAN_POINT('',(-98.700032697,1.45,45.55));
#232=CARTESIAN_POINT('',(-85.,1.45,45.55));
#233=B_SPLINE_CURVE_WITH_KNOTS('',1,(#231,#232),.UNSPECIFIED.,.F.,.F.,(2,2),(0.002047093,0.015747125),.UNSPECIFIED.);
#234=EDGE_CURVE('',#230,#223,#233,.T.);
#235=ORIENTED_EDGE('',*,*,#234,.F.);
#236=CARTESIAN_POINT('',(-98.700032697,-1.25,45.55));
#237=VERTEX_POINT('',#236);
#238=CARTESIAN_POINT('',(-98.700032697,1.45,45.55));
#239=CARTESIAN_POINT('',(-98.700032697,-1.25,45.55));
#240=B_SPLINE_CURVE_WITH_KNOTS('',1,(#238,#239),.UNSPECIFIED.,.F.,.F.,(2,2),(0.,0.0027),.UNSPECIFIED.);
#241=EDGE_CURVE('',#230,#237,#240,.T.);
#242=ORIENTED_EDGE('',*,*,#241,.T.);
#243=CARTESIAN_POINT('',(-85.,-1.25,45.55));
#244=VERTEX_POINT('',#243);
#245=CARTESIAN_POINT('',(-98.700032697,-1.25,45.55));
#246=CARTESIAN_POINT('',(-85.,-1.25,45.55));
#247=B_SPLINE_CURVE_WITH_KNOTS('',1,(#245,#246),.UNSPECIFIED.,.F.,.F.,(2,2),(0.001292692,0.014992724),.UNSPECIFIED.);
#248=EDGE_CURVE('',#237,#244,#247,.T.);
#249=ORIENTED_EDGE('',*,*,#248,.T.);
#250=CARTESIAN_POINT('',(-85.,-5.204471261,45.55));
#251=VERTEX_POINT('',#250);
#252=CARTESIAN_POINT('',(-85.,-1.25,45.55));
#253=CARTESIAN_POINT('',(-85.,-5.204471261,45.55));
#254=B_SPLINE_CURVE_WITH_KNOTS('',1,(#252,#253),.UNSPECIFIED.,.F.,.F.,(2,2),(0.,0.003954471),.UNSPECIFIED.);
#255=EDGE_CURVE('',#244,#251,#254,.T.);
#256=ORIENTED_EDGE('',*,*,#255,.T.);
#257=CARTESIAN_POINT('',(-102.200032697,-5.204471261,45.55));
#258=VERTEX_POINT('',#257);
#259=CARTESIAN_POINT('',(-102.200032697,-5.204471261,45.55));
#260=CARTESIAN_POINT('',(-85.,-5.204471261,45.55));
#261=B_SPLINE_CURVE_WITH_KNOTS('',1,(#259,#260),.UNSPECIFIED.,.F.,.F.,(2,2),(-0.0015,0.015700033),.UNSPECIFIED.);
#262=EDGE_CURVE('',#258,#251,#261,.T.);
#263=ORIENTED_EDGE('',*,*,#262,.F.);
#264=CARTESIAN_POINT('',(-102.200032697,1.45,45.55));
#265=VERTEX_POINT('',#264);
#266=CARTESIAN_POINT('',(-102.200032697,1.45,45.55));
#267=CARTESIAN_POINT('',(-102.200032697,-5.204471261,45.55));
#268=B_SPLINE_CURVE_WITH_KNOTS('',1,(#266,#267),.UNSPECIFIED.,.F.,.F.,(2,2),(0.016454471,0.023108943),.UNSPECIFIED.);
#269=EDGE_CURVE('',#265,#258,#268,.T.);
#270=ORIENTED_EDGE('',*,*,#269,.F.);
#271=CARTESIAN_POINT('',(-111.9,1.45,45.55));
#272=VERTEX_POINT('',#271);
#273=CARTESIAN_POINT('',(-111.9,1.45,45.55));
#274=CARTESIAN_POINT('',(-102.200032697,1.45,45.55));
#275=B_SPLINE_CURVE_WITH_KNOTS('',1,(#273,#274),.UNSPECIFIED.,.F.,.F.,(2,2),(-0.011152875,-0.001452907),.UNSPECIFIED.);
#276=EDGE_CURVE('',#272,#265,#275,.T.);
#277=ORIENTED_EDGE('',*,*,#276,.F.);
#278=CARTESIAN_POINT('',(-111.9,1.45,45.55));
#279=CARTESIAN_POINT('',(-111.9,17.904471261,45.55));
#280=B_SPLINE_CURVE_WITH_KNOTS('',1,(#278,#279),.UNSPECIFIED.,.F.,.F.,(2,2),(-0.008227236,0.008227236),.UNSPECIFIED.);
#281=EDGE_CURVE('',#272,#174,#280,.T.);
#282=ORIENTED_EDGE('',*,*,#281,.T.);
#283=ORIENTED_EDGE('',*,*,#178,.T.);
#284=EDGE_LOOP('',(#200,#207,#214,#221,#228,#235,#242,#249,#256,#263,#270,#277,#282,#283));
#285=FACE_BOUND('',#284,.T.);
#286=ADVANCED_FACE('',(#285),#193,.F.);
#287=CARTESIAN_POINT('',(-95.3,13.95,45.55));
#288=CARTESIAN_POINT('',(-95.3,13.95,52.205647197));
#289=CARTESIAN_POINT('',(-109.4,13.95,45.55));
#290=CARTESIAN_POINT('',(-109.4,13.95,52.205647197));
#291=B_SPLINE_SURFACE_WITH_KNOTS('',1,1,((#287,#288),(#289,#290)),.UNSPECIFIED.,.F.,.F.,.U.,(2,2),(2,2),(-0.018682704,-0.004582704),(0.,0.006655647),.UNSPECIFIED.);
#292=CARTESIAN_POINT('',(-95.3,13.95,45.55));
#293=CARTESIAN_POINT('',(-95.3,13.95,52.205647197));
#294=B_SPLINE_CURVE_WITH_KNOTS('',1,(#292,#293),.UNSPECIFIED.,.F.,.F.,(2,2),(0.,0.006655647),.UNSPECIFIED.);
#295=EDGE_CURVE('',#195,#61,#294,.T.);
#296=ORIENTED_EDGE('',*,*,#295,.T.);
#297=ORIENTED_EDGE('',*,*,#156,.F.);
#298=CARTESIAN_POINT('',(-109.4,13.95,45.55));
#299=CARTESIAN_POINT('',(-109.4,13.95,52.205647197));
#300=B_SPLINE_CURVE_WITH_KNOTS('',1,(#298,#299),.UNSPECIFIED.,.F.,.F.,(2,2),(0.,0.006655647),.UNSPECIFIED.);
#301=EDGE_CURVE('',#202,#147,#300,.T.);
#302=ORIENTED_EDGE('',*,*,#301,.F.);
#303=ORIENTED_EDGE('',*,*,#206,.T.);
#304=EDGE_LOOP('',(#296,#297,#302,#303));
#305=FACE_BOUND('',#304,.T.);
#306=ADVANCED_FACE('',(#305),#291,.F.);
#307=CARTESIAN_POINT('',(-95.3,13.95,45.55));
#308=CARTESIAN_POINT('',(-95.3,17.904471261,45.55));
#309=CARTESIAN_POINT('',(-95.3,13.95,52.205647197));
#310=CARTESIAN_POINT('',(-95.3,17.904471261,52.205647197));
#311=B_SPLINE_SURFACE_WITH_KNOTS('',1,1,((#307,#308),(#309,#310)),.UNSPECIFIED.,.F.,.F.,.U.,(2,2),(2,2),(-0.003327824,0.003327824),(-0.001977236,0.001977236),.UNSPECIFIED.);
#312=ORIENTED_EDGE('',*,*,#67,.F.);
#313=ORIENTED_EDGE('',*,*,#295,.F.);
#314=ORIENTED_EDGE('',*,*,#199,.F.);
#315=ORIENTED_EDGE('',*,*,#171,.F.);
#316=EDGE_LOOP('',(#312,#313,#314,#315));
#317=FACE_BOUND('',#316,.T.);
#318=ADVANCED_FACE('',(#317),#311,.F.);
#319=CARTESIAN_POINT('',(-109.4,11.25,45.55));
#320=CARTESIAN_POINT('',(-109.4,13.95,45.55));
#321=CARTESIAN_POINT('',(-109.4,11.25,52.205647197));
#322=CARTESIAN_POINT('',(-109.4,13.95,52.205647197));
#323=B_SPLINE_SURFACE_WITH_KNOTS('',1,1,((#319,#320),(#321,#322)),.UNSPECIFIED.,.F.,.F.,.U.,(2,2),(2,2),(0.0117,0.018355647),(0.001572764,0.004272764),.UNSPECIFIED.);
#324=ORIENTED_EDGE('',*,*,#213,.T.);
#325=ORIENTED_EDGE('',*,*,#301,.T.);
#326=ORIENTED_EDGE('',*,*,#151,.T.);
#327=CARTESIAN_POINT('',(-109.4,11.25,45.55));
#328=CARTESIAN_POINT('',(-109.4,11.25,52.205647197));
#329=B_SPLINE_CURVE_WITH_KNOTS('',1,(#327,#328),.UNSPECIFIED.,.F.,.F.,(2,2),(0.,0.006655647),.UNSPECIFIED.);
#330=EDGE_CURVE('',#209,#140,#329,.T.);
#331=ORIENTED_EDGE('',*,*,#330,.F.);
#332=EDGE_LOOP('',(#324,#325,#326,#331));
#333=FACE_BOUND('',#332,.T.);
#334=ADVANCED_FACE('',(#333),#323,.F.);
#335=CARTESIAN_POINT('',(-98.700032697,1.45,45.55));
#336=CARTESIAN_POINT('',(-98.700032697,1.45,52.205647197));
#337=CARTESIAN_POINT('',(-85.,1.45,45.55));
#338=CARTESIAN_POINT('',(-85.,1.45,52.205647197));
#339=B_SPLINE_SURFACE_WITH_KNOTS('',1,1,((#335,#336),(#337,#338)),.UNSPECIFIED.,.F.,.F.,.U.,(2,2),(2,2),(0.002047093,0.015747125),(-0.006655647,0.),.UNSPECIFIED.);
#340=ORIENTED_EDGE('',*,*,#130,.F.);
#341=CARTESIAN_POINT('',(-98.700032697,1.45,52.205647197));
#342=CARTESIAN_POINT('',(-98.700032697,1.45,45.55));
#343=B_SPLINE_CURVE_WITH_KNOTS('',1,(#341,#342),.UNSPECIFIED.,.F.,.F.,(2,2),(0.,0.006655647),.UNSPECIFIED.);
#344=EDGE_CURVE('',#119,#230,#343,.T.);
#345=ORIENTED_EDGE('',*,*,#344,.T.);
#346=ORIENTED_EDGE('',*,*,#234,.T.);
#347=CARTESIAN_POINT('',(-85.,1.45,52.205647197));
#348=CARTESIAN_POINT('',(-85.,1.45,45.55));
#349=B_SPLINE_CURVE_WITH_KNOTS('',1,(#347,#348),.UNSPECIFIED.,.F.,.F.,(2,2),(0.,0.006655647),.UNSPECIFIED.);
#350=EDGE_CURVE('',#126,#223,#349,.T.);
#351=ORIENTED_EDGE('',*,*,#350,.F.);
#352=EDGE_LOOP('',(#340,#345,#346,#351));
#353=FACE_BOUND('',#352,.T.);
#354=ADVANCED_FACE('',(#353),#339,.T.);
#355=CARTESIAN_POINT('',(-85.,11.25,45.55));
#356=CARTESIAN_POINT('',(-85.,11.25,52.205647197));
#357=CARTESIAN_POINT('',(-109.4,11.25,45.55));
#358=CARTESIAN_POINT('',(-109.4,11.25,52.205647197));
#359=B_SPLINE_SURFACE_WITH_KNOTS('',1,1,((#355,#356),(#357,#358)),.UNSPECIFIED.,.F.,.F.,.U.,(2,2),(2,2),(-0.015747125,0.008652875),(0.,0.006655647),.UNSPECIFIED.);
#360=CARTESIAN_POINT('',(-85.,11.25,45.55));
#361=CARTESIAN_POINT('',(-85.,11.25,52.205647197));
#362=B_SPLINE_CURVE_WITH_KNOTS('',1,(#360,#361),.UNSPECIFIED.,.F.,.F.,(2,2),(0.,0.006655647),.UNSPECIFIED.);
#363=EDGE_CURVE('',#216,#133,#362,.T.);
#364=ORIENTED_EDGE('',*,*,#363,.F.);
#365=ORIENTED_EDGE('',*,*,#220,.F.);
#366=ORIENTED_EDGE('',*,*,#330,.T.);
#367=ORIENTED_EDGE('',*,*,#144,.T.);
#368=EDGE_LOOP('',(#364,#365,#366,#367));
#369=FACE_BOUND('',#368,.T.);
#370=ADVANCED_FACE('',(#369),#359,.T.);
#371=CARTESIAN_POINT('',(-111.9,1.45,45.55));
#372=CARTESIAN_POINT('',(-111.9,1.45,52.205647197));
#373=CARTESIAN_POINT('',(-102.200032697,1.45,45.55));
#374=CARTESIAN_POINT('',(-102.200032697,1.45,52.205647197));
#375=B_SPLINE_SURFACE_WITH_KNOTS('',1,1,((#371,#372),(#373,#374)),.UNSPECIFIED.,.F.,.F.,.U.,(2,2),(2,2),(-0.011152875,-0.001452907),(-0.006655647,0.),.UNSPECIFIED.);
#376=CARTESIAN_POINT('',(-102.200032697,1.45,52.205647197));
#377=CARTESIAN_POINT('',(-102.200032697,1.45,45.55));
#378=B_SPLINE_CURVE_WITH_KNOTS('',1,(#376,#377),.UNSPECIFIED.,.F.,.F.,(2,2),(0.,0.006655647),.UNSPECIFIED.);
#379=EDGE_CURVE('',#84,#265,#378,.T.);
#380=ORIENTED_EDGE('',*,*,#379,.F.);
#381=ORIENTED_EDGE('',*,*,#88,.F.);
#382=CARTESIAN_POINT('',(-111.9,1.45,52.205647197));
#383=CARTESIAN_POINT('',(-111.9,1.45,45.55));
#384=B_SPLINE_CURVE_WITH_KNOTS('',1,(#382,#383),.UNSPECIFIED.,.F.,.F.,(2,2),(0.,0.006655647),.UNSPECIFIED.);
#385=EDGE_CURVE('',#77,#272,#384,.T.);
#386=ORIENTED_EDGE('',*,*,#385,.T.);
#387=ORIENTED_EDGE('',*,*,#276,.T.);
#388=EDGE_LOOP('',(#380,#381,#386,#387));
#389=FACE_BOUND('',#388,.T.);
#390=ADVANCED_FACE('',(#389),#375,.T.);
#391=CARTESIAN_POINT('',(-85.,1.45,45.55));
#392=CARTESIAN_POINT('',(-85.,11.25,45.55));
#393=CARTESIAN_POINT('',(-85.,1.45,52.205647197));
#394=CARTESIAN_POINT('',(-85.,11.25,52.205647197));
#395=B_SPLINE_SURFACE_WITH_KNOTS('',1,1,((#391,#392),(#393,#394)),.UNSPECIFIED.,.F.,.F.,.U.,(2,2),(2,2),(-0.003327824,0.003327824),(-0.014477236,-0.004677236),.UNSPECIFIED.);
#396=CARTESIAN_POINT('',(-85.,8.1,48.877823598));
#397=VERTEX_POINT('',#396);
#398=CARTESIAN_POINT('',(-85.,7.548468371,47.602608494));
#399=VERTEX_POINT('',#398);
#400=CARTESIAN_POINT('',(-85.,7.548468371,47.602608494));
#401=CARTESIAN_POINT('',(-85.,8.823683476,48.801076865));
#402=CARTESIAN_POINT('',(-85.,7.625215105,50.076291969));
#403=CARTESIAN_POINT('',(-85.,6.426746734,51.351507074));
#404=CARTESIAN_POINT('',(-85.,5.151531629,50.153038703));
#405=CARTESIAN_POINT('',(-85.,3.876316524,48.954570332));
#406=CARTESIAN_POINT('',(-85.,5.074784895,47.679355227));
#407=CARTESIAN_POINT('',(-85.,6.273253266,46.404140122));
#408=CARTESIAN_POINT('',(-85.,7.548468371,47.602608494));
#409=(BOUNDED_CURVE()
B_SPLINE_CURVE(2,(#400,#401,#402,#403,#404,#405,#406,#407,#408),.UNSPECIFIED.,.T.,.F.)
B_SPLINE_CURVE_WITH_KNOTS((3,2,2,2,3),(0.,1.570796327,3.141592654,4.71238898,6.283185307),.UNSPECIFIED.)
CURVE()
GEOMETRIC_REPRESENTATION_ITEM()
RATIONAL_B_SPLINE_CURVE((1.,0.707106781,1.,0.707106781,1.,0.707106781,1.,0.707106781,1.))
REPRESENTATION_ITEM(''));
#410=EDGE_CURVE('',#397,#399,#409,.T.);
#411=ORIENTED_EDGE('',*,*,#410,.F.);
#412=CARTESIAN_POINT('',(-85.,7.548468371,47.602608494));
#413=CARTESIAN_POINT('',(-85.,8.823683476,48.801076865));
#414=CARTESIAN_POINT('',(-85.,7.625215105,50.076291969));
#415=CARTESIAN_POINT('',(-85.,6.426746734,51.351507074));
#416=CARTESIAN_POINT('',(-85.,5.151531629,50.153038703));
#417=CARTESIAN_POINT('',(-85.,3.876316524,48.954570332));
#418=CARTESIAN_POINT('',(-85.,5.074784895,47.679355227));
#419=CARTESIAN_POINT('',(-85.,6.273253266,46.404140122));
#420=CARTESIAN_POINT('',(-85.,7.548468371,47.602608494));
#421=(BOUNDED_CURVE()
B_SPLINE_CURVE(2,(#412,#413,#414,#415,#416,#417,#418,#419,#420),.UNSPECIFIED.,.T.,.F.)
B_SPLINE_CURVE_WITH_KNOTS((3,2,2,2,3),(0.,1.570796327,3.141592654,4.71238898,6.283185307),.UNSPECIFIED.)
CURVE()
GEOMETRIC_REPRESENTATION_ITEM()
RATIONAL_B_SPLINE_CURVE((1.,0.707106781,1.,0.707106781,1.,0.707106781,1.,0.707106781,1.))
REPRESENTATION_ITEM(''));
#422=EDGE_CURVE('',#399,#397,#421,.T.);
#423=ORIENTED_EDGE('',*,*,#422,.F.);
#424=EDGE_LOOP('',(#411,#423));
#425=FACE_BOUND('',#424,.T.);
#426=ORIENTED_EDGE('',*,*,#363,.T.);
#427=ORIENTED_EDGE('',*,*,#137,.T.);
#428=ORIENTED_EDGE('',*,*,#350,.T.);
#429=ORIENTED_EDGE('',*,*,#227,.T.);
#430=EDGE_LOOP('',(#426,#427,#428,#429));
#431=FACE_BOUND('',#430,.T.);
#432=ADVANCED_FACE('',(#425,#431),#395,.F.);
#433=CARTESIAN_POINT('',(-111.9,1.45,45.55));
#434=CARTESIAN_POINT('',(-111.9,17.904471261,45.55));
#435=CARTESIAN_POINT('',(-111.9,1.45,52.205647197));
#436=CARTESIAN_POINT('',(-111.9,17.904471261,52.205647197));
#437=B_SPLINE_SURFACE_WITH_KNOTS('',1,1,((#433,#434),(#435,#436)),.UNSPECIFIED.,.F.,.F.,.U.,(2,2),(2,2),(0.0117,0.018355647),(-0.008227236,0.008227236),.UNSPECIFIED.);
#438=CARTESIAN_POINT('',(-111.9,8.1,48.877823598));
#439=VERTEX_POINT('',#438);
#440=CARTESIAN_POINT('',(-111.9,6.35,50.627823598));
#441=VERTEX_POINT('',#440);
#442=CARTESIAN_POINT('',(-111.9,6.35,50.627823598));
#443=CARTESIAN_POINT('',(-111.9,8.1,50.627823598));
#444=CARTESIAN_POINT('',(-111.9,8.1,48.877823598));
#445=CARTESIAN_POINT('',(-111.9,8.1,47.127823598));
#446=CARTESIAN_POINT('',(-111.9,6.35,47.127823598));
#447=CARTESIAN_POINT('',(-111.9,4.6,47.127823598));
#448=CARTESIAN_POINT('',(-111.9,4.6,48.877823598));
#449=CARTESIAN_POINT('',(-111.9,4.6,50.627823598));
#450=CARTESIAN_POINT('',(-111.9,6.35,50.627823598));
#451=(BOUNDED_CURVE()
B_SPLINE_CURVE(2,(#442,#443,#444,#445,#446,#447,#448,#449,#450),.UNSPECIFIED.,.T.,.F.)
B_SPLINE_CURVE_WITH_KNOTS((3,2,2,2,3),(0.,1.570796327,3.141592654,4.71238898,6.283185307),.UNSPECIFIED.)
CURVE()
GEOMETRIC_REPRESENTATION_ITEM()
RATIONAL_B_SPLINE_CURVE((1.,0.707106781,1.,0.707106781,1.,0.707106781,1.,0.707106781,1.))
REPRESENTATION_ITEM(''));
#452=EDGE_CURVE('',#439,#441,#451,.T.);
#453=ORIENTED_EDGE('',*,*,#452,.F.);
#454=CARTESIAN_POINT('',(-111.9,6.35,50.627823598));
#455=CARTESIAN_POINT('',(-111.9,8.1,50.627823598));
#456=CARTESIAN_POINT('',(-111.9,8.1,48.877823598));
#457=CARTESIAN_POINT('',(-111.9,8.1,47.127823598));
#458=CARTESIAN_POINT('',(-111.9,6.35,47.127823598));
#459=CARTESIAN_POINT('',(-111.9,4.6,47.127823598));
#460=CARTESIAN_POINT('',(-111.9,4.6,48.877823598));
#461=CARTESIAN_POINT('',(-111.9,4.6,50.627823598));
#462=CARTESIAN_POINT('',(-111.9,6.35,50.627823598));
#463=(BOUNDED_CURVE()
B_SPLINE_CURVE(2,(#454,#455,#456,#457,#458,#459,#460,#461,#462),.UNSPECIFIED.,.T.,.F.)
B_SPLINE_CURVE_WITH_KNOTS((3,2,2,2,3),(0.,1.570796327,3.141592654,4.71238898,6.283185307),.UNSPECIFIED.)
CURVE()
GEOMETRIC_REPRESENTATION_ITEM()
RATIONAL_B_SPLINE_CURVE((1.,0.707106781,1.,0.707106781,1.,0.707106781,1.,0.707106781,1.))
REPRESENTATION_ITEM(''));
#464=EDGE_CURVE('',#441,#439,#463,.T.);
#465=ORIENTED_EDGE('',*,*,#464,.F.);
#466=EDGE_LOOP('',(#453,#465));
#467=FACE_BOUND('',#466,.T.);
#468=ORIENTED_EDGE('',*,*,#183,.F.);
#469=ORIENTED_EDGE('',*,*,#281,.F.);
#470=ORIENTED_EDGE('',*,*,#385,.F.);
#471=ORIENTED_EDGE('',*,*,#81,.F.);
#472=EDGE_LOOP('',(#468,#469,#470,#471));
#473=FACE_BOUND('',#472,.T.);
#474=ADVANCED_FACE('',(#467,#473),#437,.T.);
#475=CARTESIAN_POINT('',(-85.,-5.204471261,45.55));
#476=CARTESIAN_POINT('',(-85.,-5.204471261,52.205647197));
#477=CARTESIAN_POINT('',(-102.200032697,-5.204471261,45.55));
#478=CARTESIAN_POINT('',(-102.200032697,-5.204471261,52.205647197));
#479=B_SPLINE_SURFACE_WITH_KNOTS('',1,1,((#475,#476),(#477,#478)),.UNSPECIFIED.,.F.,.F.,.U.,(2,2),(2,2),(-0.015700033,0.0015),(0.,0.006655647),.UNSPECIFIED.);
#480=ORIENTED_EDGE('',*,*,#262,.T.);
#481=CARTESIAN_POINT('',(-85.,-5.204471261,45.55));
#482=CARTESIAN_POINT('',(-85.,-5.204471261,52.205647197));
#483=B_SPLINE_CURVE_WITH_KNOTS('',1,(#481,#482),.UNSPECIFIED.,.F.,.F.,(2,2),(0.,0.006655647),.UNSPECIFIED.);
#484=EDGE_CURVE('',#251,#98,#483,.T.);
#485=ORIENTED_EDGE('',*,*,#484,.T.);
#486=ORIENTED_EDGE('',*,*,#102,.F.);
#487=CARTESIAN_POINT('',(-102.200032697,-5.204471261,45.55));
#488=CARTESIAN_POINT('',(-102.200032697,-5.204471261,52.205647197));
#489=B_SPLINE_CURVE_WITH_KNOTS('',1,(#487,#488),.UNSPECIFIED.,.F.,.F.,(2,2),(0.,0.006655647),.UNSPECIFIED.);
#490=EDGE_CURVE('',#258,#91,#489,.T.);
#491=ORIENTED_EDGE('',*,*,#490,.F.);
#492=EDGE_LOOP('',(#480,#485,#486,#491));
#493=FACE_BOUND('',#492,.T.);
#494=ADVANCED_FACE('',(#493),#479,.F.);
#495=CARTESIAN_POINT('',(-102.200032697,-5.204471261,45.55));
#496=CARTESIAN_POINT('',(-102.200032697,1.45,45.55));
#497=CARTESIAN_POINT('',(-102.200032697,-5.204471261,52.205647197));
#498=CARTESIAN_POINT('',(-102.200032697,1.45,52.205647197));
#499=B_SPLINE_SURFACE_WITH_KNOTS('',1,1,((#495,#496),(#497,#498)),.UNSPECIFIED.,.F.,.F.,.U.,(2,2),(2,2),(-0.003327824,0.003327824),(-0.003327236,0.003327236),.UNSPECIFIED.);
#500=ORIENTED_EDGE('',*,*,#269,.T.);
#501=ORIENTED_EDGE('',*,*,#490,.T.);
#502=ORIENTED_EDGE('',*,*,#95,.T.);
#503=ORIENTED_EDGE('',*,*,#379,.T.);
#504=EDGE_LOOP('',(#500,#501,#502,#503));
#505=FACE_BOUND('',#504,.T.);
#506=ADVANCED_FACE('',(#505),#499,.T.);
#507=CARTESIAN_POINT('',(-98.700032697,-1.25,45.55));
#508=CARTESIAN_POINT('',(-98.700032697,1.45,45.55));
#509=CARTESIAN_POINT('',(-98.700032697,-1.25,52.205647197));
#510=CARTESIAN_POINT('',(-98.700032697,1.45,52.205647197));
#511=B_SPLINE_SURFACE_WITH_KNOTS('',1,1,((#507,#508),(#509,#510)),.UNSPECIFIED.,.F.,.F.,.U.,(2,2),(2,2),(-0.003327824,0.003327824),(0.000627236,0.003327236),.UNSPECIFIED.);
#512=ORIENTED_EDGE('',*,*,#123,.F.);
#513=CARTESIAN_POINT('',(-98.700032697,-1.25,52.205647197));
#514=CARTESIAN_POINT('',(-98.700032697,-1.25,45.55));
#515=B_SPLINE_CURVE_WITH_KNOTS('',1,(#513,#514),.UNSPECIFIED.,.F.,.F.,(2,2),(0.,0.006655647),.UNSPECIFIED.);
#516=EDGE_CURVE('',#112,#237,#515,.T.);
#517=ORIENTED_EDGE('',*,*,#516,.T.);
#518=ORIENTED_EDGE('',*,*,#241,.F.);
#519=ORIENTED_EDGE('',*,*,#344,.F.);
#520=EDGE_LOOP('',(#512,#517,#518,#519));
#521=FACE_BOUND('',#520,.T.);
#522=ADVANCED_FACE('',(#521),#511,.F.);
#523=CARTESIAN_POINT('',(-98.700032697,-1.25,45.55));
#524=CARTESIAN_POINT('',(-98.700032697,-1.25,52.205647197));
#525=CARTESIAN_POINT('',(-85.,-1.25,45.55));
#526=CARTESIAN_POINT('',(-85.,-1.25,52.205647197));
#527=B_SPLINE_SURFACE_WITH_KNOTS('',1,1,((#523,#524),(#525,#526)),.UNSPECIFIED.,.F.,.F.,.U.,(2,2),(2,2),(0.001292692,0.014992724),(-0.006655647,0.),.UNSPECIFIED.);
#528=CARTESIAN_POINT('',(-85.,-1.25,52.205647197));
#529=CARTESIAN_POINT('',(-85.,-1.25,45.55));
#530=B_SPLINE_CURVE_WITH_KNOTS('',1,(#528,#529),.UNSPECIFIED.,.F.,.F.,(2,2),(0.,0.006655647),.UNSPECIFIED.);
#531=EDGE_CURVE('',#105,#244,#530,.T.);
#532=ORIENTED_EDGE('',*,*,#531,.T.);
#533=ORIENTED_EDGE('',*,*,#248,.F.);
#534=ORIENTED_EDGE('',*,*,#516,.F.);
#535=ORIENTED_EDGE('',*,*,#116,.T.);
#536=EDGE_LOOP('',(#532,#533,#534,#535));
#537=FACE_BOUND('',#536,.T.);
#538=ADVANCED_FACE('',(#537),#527,.F.);
#539=CARTESIAN_POINT('',(-85.,-5.204471261,45.55));
#540=CARTESIAN_POINT('',(-85.,-1.25,45.55));
#541=CARTESIAN_POINT('',(-85.,-5.204471261,52.205647197));
#542=CARTESIAN_POINT('',(-85.,-1.25,52.205647197));
#543=B_SPLINE_SURFACE_WITH_KNOTS('',1,1,((#539,#540),(#541,#542)),.UNSPECIFIED.,.F.,.F.,.U.,(2,2),(2,2),(-0.003327824,0.003327824),(-0.021131707,-0.017177236),.UNSPECIFIED.);
#544=ORIENTED_EDGE('',*,*,#109,.F.);
#545=ORIENTED_EDGE('',*,*,#484,.F.);
#546=ORIENTED_EDGE('',*,*,#255,.F.);
#547=ORIENTED_EDGE('',*,*,#531,.F.);
#548=EDGE_LOOP('',(#544,#545,#546,#547));
#549=FACE_BOUND('',#548,.T.);
#550=ADVANCED_FACE('',(#549),#543,.F.);
#551=CARTESIAN_POINT('',(-111.9,8.1,48.877823598));
#552=CARTESIAN_POINT('',(-85.,8.1,48.877823598));
#553=CARTESIAN_POINT('',(-111.9,8.1,51.908912512));
#554=CARTESIAN_POINT('',(-85.,8.1,51.908912512));
#555=CARTESIAN_POINT('',(-111.9,5.475,50.393368055));
#556=CARTESIAN_POINT('',(-85.,5.475,50.393368055));
#557=CARTESIAN_POINT('',(-111.9,2.85,48.877823598));
#558=CARTESIAN_POINT('',(-85.,2.85,48.877823598));
#559=CARTESIAN_POINT('',(-111.9,5.475,47.362279142));
#560=CARTESIAN_POINT('',(-85.,5.475,47.362279142));
#561=CARTESIAN_POINT('',(-111.9,8.1,45.846734685));
#562=CARTESIAN_POINT('',(-85.,8.1,45.846734685));
#563=CARTESIAN_POINT('',(-111.9,8.1,48.877823598));
#564=CARTESIAN_POINT('',(-85.,8.1,48.877823598));
#565=(BOUNDED_SURFACE()
B_SPLINE_SURFACE(2,1,((#551,#552),(#553,#554),(#555,#556),(#557,#558),(#559,#560),(#561,#562),(#563,#564)),.UNSPECIFIED.,.T.,.F.,.U.)
B_SPLINE_SURFACE_WITH_KNOTS((3,2,2,3),(2,2),(0.,2.094395102,4.188790205,6.283185307),(0.00740275,0.03430275),.UNSPECIFIED.)
GEOMETRIC_REPRESENTATION_ITEM()
RATIONAL_B_SPLINE_SURFACE(((1.,1.),(0.5,0.5),(1.,1.),(0.5,0.5),(1.,1.),(0.5,0.5),(1.,1.)))
REPRESENTATION_ITEM('')
SURFACE()
);
#566=CARTESIAN_POINT('',(-85.,8.1,48.877823598));
#567=CARTESIAN_POINT('',(-111.9,8.1,48.877823598));
#568=B_SPLINE_CURVE_WITH_KNOTS('',1,(#566,#567),.UNSPECIFIED.,.F.,.F.,(2,2),(0.00740275,0.03430275),.UNSPECIFIED.);
#569=EDGE_CURVE('',#397,#439,#568,.T.);
#570=ORIENTED_EDGE('',*,*,#569,.F.);
#571=ORIENTED_EDGE('',*,*,#410,.T.);
#572=ORIENTED_EDGE('',*,*,#422,.T.);
#573=ORIENTED_EDGE('',*,*,#569,.T.);
#574=ORIENTED_EDGE('',*,*,#452,.T.);
#575=ORIENTED_EDGE('',*,*,#464,.T.);
#576=EDGE_LOOP('',(#570,#571,#572,#573,#574,#575));
#577=FACE_BOUND('',#576,.T.);
#578=ADVANCED_FACE('',(#577),#565,.F.);
#579=CLOSED_SHELL('',(#160,#188,#286,#306,#318,#334,#354,#370,#390,#432,#474,#494,#506,#522,#538,#550,#578));
#580=MANIFOLD_SOLID_BREP('SG90 Holder A',#579);
#54=STYLED_ITEM('',(),#580);
#35=SHAPE_REPRESENTATION('Base',(#15),#33);
#36=ADVANCED_BREP_SHAPE_REPRESENTATION('Base',(#580),#33);
#588=SHAPE_REPRESENTATION_RELATIONSHIP('','',#35,#36);
#589=APPLICATION_CONTEXT('configuration controlled 3D design of mechanical parts and assemblies');
#590=APPLICATION_PROTOCOL_DEFINITION('international standard','configuration_control_3d_design_ed2_mim',2004,#589);
#591=PRODUCT_CONTEXT('',#589,'mechanical');
#592=PRODUCT_DEFINITION_CONTEXT('part definition',#589,'design');
#43=PRODUCT('0','0','',(#591));
#593=PRODUCT_RELATED_PRODUCT_CATEGORY('part','',(#43));
#594=PRODUCT_DEFINITION_FORMATION_WITH_SPECIFIED_SOURCE('','',#43,.NOT_KNOWN.);
#44=PRODUCT_DEFINITION('design','',#594,#592);
#42=PRODUCT_DEFINITION_SHAPE('','',#44);
#595=SHAPE_DEFINITION_REPRESENTATION(#42,#35);
#34=DRAUGHTING_MODEL('',(),#33);
#16=SHAPE_REPRESENTATION('root',(#15,#48),#10);
#24=PRODUCT('root','root','',(#591));
#596=PRODUCT_RELATED_PRODUCT_CATEGORY('part','',(#24));
#597=PRODUCT_DEFINITION_FORMATION_WITH_SPECIFIED_SOURCE('','',#24,.NOT_KNOWN.);
#25=PRODUCT_DEFINITION('design','',#597,#592);
#23=PRODUCT_DEFINITION_SHAPE('','',#25);
#598=SHAPE_DEFINITION_REPRESENTATION(#23,#16);
#11=DRAUGHTING_MODEL('',(),#10);
#1=MECHANICAL_DESIGN_GEOMETRIC_PRESENTATION_REPRESENTATION('',(#54),#10);
ENDSEC;
END-ISO-10303-21;
