ISO-10303-21;
HEADER;

/* File generated by HOOPS Exchange Version 25.8.0 */

FILE_DESCRIPTION(('HOOPS Exchange Step'),'2;1');

FILE_NAME('/home/tfannes/repo/klepto/cart/stl/servo_arm_nerf_pusher.step',
'2026-09-12T13:19:27+02:00',
('tfannes'),
('Unknown organisation'),
'HOOPS Exchange 2025.8',
'HOOPS Exchange',
'Unknown authorisation');

FILE_SCHEMA( ('AP203_CONFIGURATION_CONTROLLED_3D_DESIGN_OF_MECHANICAL_PARTS_AND_ASSEMBLIES_MIM_LF') );

ENDSEC;

DATA;
#3=(NAMED_UNIT(*)PLANE_ANGLE_UNIT()SI_UNIT($,.RADIAN.));
#4=PLANE_ANGLE_MEASURE_WITH_UNIT(PLANE_ANGLE_MEASURE(0.0174532925),#3);
#5=(CONVERSION_BASED_UNIT('DEGREE',#4)NAMED_UNIT(#6)PLANE_ANGLE_UNIT());
#6=DIMENSIONAL_EXPONENTS(0.,0.,0.,0.,0.,0.,0.);
#7=(NAMED_UNIT(*)SI_UNIT($,.STERADIAN.)SOLID_ANGLE_UNIT());
#8=(LENGTH_UNIT()NAMED_UNIT(*)SI_UNIT(.MILLI.,.METRE.));
#9=UNCERTAINTY_MEASURE_WITH_UNIT(LENGTH_MEASURE(1.000000E-03),#8,'DISTANCE_ACCURACY_VALUE','Maximum Tolerance applied to model');
#10=(GEOMETRIC_REPRESENTATION_CONTEXT(3)GLOBAL_UNCERTAINTY_ASSIGNED_CONTEXT((#9))GLOBAL_UNIT_ASSIGNED_CONTEXT((#8,#5,#7))REPRESENTATION_CONTEXT('','root'));
#12=CARTESIAN_POINT('',(0.,0.,0.));
#13=DIRECTION('',(0.,0.,1.));
#14=DIRECTION('',(1.,0.,0.));
#15=AXIS2_PLACEMENT_3D('TS3D_PRODUCT_CSYS',#12,#13,#14);
#26=(NAMED_UNIT(*)PLANE_ANGLE_UNIT()SI_UNIT($,.RADIAN.));
#27=PLANE_ANGLE_MEASURE_WITH_UNIT(PLANE_ANGLE_MEASURE(0.0174532925),#26);
#28=(CONVERSION_BASED_UNIT('DEGREE',#27)NAMED_UNIT(#29)PLANE_ANGLE_UNIT());
#29=DIMENSIONAL_EXPONENTS(0.,0.,0.,0.,0.,0.,0.);
#30=(NAMED_UNIT(*)SI_UNIT($,.STERADIAN.)SOLID_ANGLE_UNIT());
#31=(LENGTH_UNIT()NAMED_UNIT(*)SI_UNIT(.MILLI.,.METRE.));
#32=UNCERTAINTY_MEASURE_WITH_UNIT(LENGTH_MEASURE(1.000000E-05),#31,'DISTANCE_ACCURACY_VALUE','Maximum Tolerance applied to model');
#33=(GEOMETRIC_REPRESENTATION_CONTEXT(3)GLOBAL_UNCERTAINTY_ASSIGNED_CONTEXT((#32))GLOBAL_UNIT_ASSIGNED_CONTEXT((#31,#28,#30))REPRESENTATION_CONTEXT('','0'));
#45=CARTESIAN_POINT('',(0.,0.,0.));
#46=DIRECTION('',(0.,0.,1.));
#47=DIRECTION('',(1.,0.,-0.));
#48=AXIS2_PLACEMENT_3D('',#45,#46,#47);
#49=ITEM_DEFINED_TRANSFORMATION('','',#48,#15);
#50=(REPRESENTATION_RELATIONSHIP('','',#35,#16)REPRESENTATION_RELATIONSHIP_WITH_TRANSFORMATION(#49)SHAPE_REPRESENTATION_RELATIONSHIP());
#51=NEXT_ASSEMBLY_USAGE_OCCURRENCE('FiringMechanism_1','FiringMechanism','FiringMechanism',#25,#44,$);
#52=PRODUCT_DEFINITION_SHAPE('','',#51);
#53=CONTEXT_DEPENDENT_SHAPE_REPRESENTATION(#50,#52);
#55=CARTESIAN_POINT('',(-88.188661965,-11.8,48.603932455));
#56=CARTESIAN_POINT('',(-116.380508427,-11.8,30.569195402));
#57=CARTESIAN_POINT('',(-81.452622508,-11.8,38.074175932));
#58=CARTESIAN_POINT('',(-109.64446897,-11.8,20.039438879));
#59=B_SPLINE_SURFACE_WITH_KNOTS('',1,1,((#55,#56),(#57,#58)),.UNSPECIFIED.,.F.,.F.,.U.,(2,2),(2,2),(0.03800006,0.05050006),(-0.024508942,0.008957936),.UNSPECIFIED.);
#60=CARTESIAN_POINT('',(-106.831509071,-11.8,27.240289982));
#61=VERTEX_POINT('',#60);
#62=CARTESIAN_POINT('',(-108.663711803,-11.8,30.104383756));
#63=VERTEX_POINT('',#62);
#64=CARTESIAN_POINT('',(-106.831509071,-11.8,27.240289982));
#65=CARTESIAN_POINT('',(-105.399462184,-11.8,28.156391348));
#66=CARTESIAN_POINT('',(-106.31556355,-11.8,29.588438235));
#67=CARTESIAN_POINT('',(-107.231664916,-11.8,31.020485122));
#68=CARTESIAN_POINT('',(-108.663711803,-11.8,30.104383756));
#69=CARTESIAN_POINT('',(-110.09575869,-11.8,29.18828239));
#70=CARTESIAN_POINT('',(-109.179657324,-11.8,27.756235503));
#71=CARTESIAN_POINT('',(-108.263555958,-11.8,26.324188616));
#72=CARTESIAN_POINT('',(-106.831509071,-11.8,27.240289982));
#73=(BOUNDED_CURVE()
B_SPLINE_CURVE(2,(#64,#65,#66,#67,#68,#69,#70,#71,#72),.UNSPECIFIED.,.T.,.F.)
B_SPLINE_CURVE_WITH_KNOTS((3,2,2,2,3),(0.,1.570796327,3.141592654,4.71238898,6.283185307),.UNSPECIFIED.)
CURVE()
GEOMETRIC_REPRESENTATION_ITEM()
RATIONAL_B_SPLINE_CURVE((1.,0.707106781,1.,0.707106781,1.,0.707106781,1.,0.707106781,1.))
REPRESENTATION_ITEM(''));
#74=EDGE_CURVE('',#61,#63,#73,.T.);
#75=ORIENTED_EDGE('',*,*,#74,.T.);
#76=CARTESIAN_POINT('',(-106.831509071,-11.8,27.240289982));
#77=CARTESIAN_POINT('',(-105.399462184,-11.8,28.156391348));
#78=CARTESIAN_POINT('',(-106.31556355,-11.8,29.588438235));
#79=CARTESIAN_POINT('',(-107.231664916,-11.8,31.020485122));
#80=CARTESIAN_POINT('',(-108.663711803,-11.8,30.104383756));
#81=CARTESIAN_POINT('',(-110.09575869,-11.8,29.18828239));
#82=CARTESIAN_POINT('',(-109.179657324,-11.8,27.756235503));
#83=CARTESIAN_POINT('',(-108.263555958,-11.8,26.324188616));
#84=CARTESIAN_POINT('',(-106.831509071,-11.8,27.240289982));
#85=(BOUNDED_CURVE()
B_SPLINE_CURVE(2,(#76,#77,#78,#79,#80,#81,#82,#83,#84),.UNSPECIFIED.,.T.,.F.)
B_SPLINE_CURVE_WITH_KNOTS((3,2,2,2,3),(0.,1.570796327,3.141592654,4.71238898,6.283185307),.UNSPECIFIED.)
CURVE()
GEOMETRIC_REPRESENTATION_ITEM()
RATIONAL_B_SPLINE_CURVE((1.,0.707106781,1.,0.707106781,1.,0.707106781,1.,0.707106781,1.))
REPRESENTATION_ITEM(''));
#86=EDGE_CURVE('',#63,#61,#85,.T.);
#87=ORIENTED_EDGE('',*,*,#86,.T.);
#88=EDGE_LOOP('',(#75,#87));
#89=FACE_BOUND('',#88,.T.);
#90=CARTESIAN_POINT('',(-93.118207301,-11.8,42.411343676));
#91=VERTEX_POINT('',#90);
#92=CARTESIAN_POINT('',(-105.56990151,-11.8,33.084348222));
#93=VERTEX_POINT('',#92);
#94=CARTESIAN_POINT('',(-93.118207301,-11.8,42.411343676));
#95=CARTESIAN_POINT('',(-105.56990151,-11.8,33.084348222));
#96=B_SPLINE_CURVE_WITH_KNOTS('',1,(#94,#95),.UNSPECIFIED.,.F.,.F.,(2,2),(0.,0.015557555),.UNSPECIFIED.);
#97=EDGE_CURVE('',#91,#93,#96,.T.);
#98=ORIENTED_EDGE('',*,*,#97,.T.);
#99=CARTESIAN_POINT('',(-102.829075207,-11.8,28.799896828));
#100=VERTEX_POINT('',#99);
#101=CARTESIAN_POINT('',(-105.56990151,-11.8,33.084348222));
#102=CARTESIAN_POINT('',(-107.465532446,-11.8,31.664417662));
#103=CARTESIAN_POINT('',(-106.18920735,-11.8,29.669270127));
#104=CARTESIAN_POINT('',(-104.912882253,-11.8,27.674122591));
#105=CARTESIAN_POINT('',(-102.82907519,-11.8,28.799896796));
#106=(BOUNDED_CURVE()
B_SPLINE_CURVE(2,(#101,#102,#103,#104,#105),.UNSPECIFIED.,.F.,.F.)
B_SPLINE_CURVE_WITH_KNOTS((3,2,3),(3.510823188,5.007834638,6.504846087),.UNSPECIFIED.)
CURVE()
GEOMETRIC_REPRESENTATION_ITEM()
RATIONAL_B_SPLINE_CURVE((1.,0.732706608,1.,0.732706608,1.))
REPRESENTATION_ITEM(''));
#107=EDGE_CURVE('',#93,#100,#106,.T.);
#108=ORIENTED_EDGE('',*,*,#107,.T.);
#109=CARTESIAN_POINT('',(-89.141322049,-11.8,36.194688668));
#110=VERTEX_POINT('',#109);
#111=CARTESIAN_POINT('',(-89.141322049,-11.8,36.194688668));
#112=CARTESIAN_POINT('',(-102.829075207,-11.8,28.799896828));
#113=B_SPLINE_CURVE_WITH_KNOTS('',1,(#111,#112),.UNSPECIFIED.,.F.,.F.,(2,2),(0.,0.015557555),.UNSPECIFIED.);
#114=EDGE_CURVE('',#110,#100,#113,.T.);
#115=ORIENTED_EDGE('',*,*,#114,.F.);
#116=CARTESIAN_POINT('',(-88.906132321,-11.8,36.333192069));
#117=VERTEX_POINT('',#116);
#118=CARTESIAN_POINT('',(-89.141322049,-11.8,36.194688668));
#119=CARTESIAN_POINT('',(-87.153554981,-11.8,37.268577387));
#120=CARTESIAN_POINT('',(-87.200809384,-11.8,39.527387233));
#121=CARTESIAN_POINT('',(-87.248063786,-11.8,41.786197079));
#122=CARTESIAN_POINT('',(-89.279003675,-11.8,42.776014268));
#123=CARTESIAN_POINT('',(-91.309943563,-11.8,43.765831458));
#124=CARTESIAN_POINT('',(-93.118207301,-11.8,42.411343676));
#125=(BOUNDED_CURVE()
B_SPLINE_CURVE(2,(#118,#119,#120,#121,#122,#123,#124),.UNSPECIFIED.,.F.,.F.)
B_SPLINE_CURVE_WITH_KNOTS((3,2,2,3),(6.14943248,7.245819949,8.342207418,9.438594887),.UNSPECIFIED.)
CURVE()
GEOMETRIC_REPRESENTATION_ITEM()
RATIONAL_B_SPLINE_CURVE((1.,0.853467243,1.,0.853467243,1.,0.853467243,1.))
REPRESENTATION_ITEM(''));
#126=EDGE_CURVE('',#110,#117,#125,.T.);
#127=ORIENTED_EDGE('',*,*,#126,.T.);
#128=CARTESIAN_POINT('',(-89.141322049,-11.8,36.194688668));
#129=CARTESIAN_POINT('',(-87.153554981,-11.8,37.268577387));
#130=CARTESIAN_POINT('',(-87.200809384,-11.8,39.527387233));
#131=CARTESIAN_POINT('',(-87.248063786,-11.8,41.786197079));
#132=CARTESIAN_POINT('',(-89.279003675,-11.8,42.776014268));
#133=CARTESIAN_POINT('',(-91.309943563,-11.8,43.765831458));
#134=CARTESIAN_POINT('',(-93.118207301,-11.8,42.411343676));
#135=(BOUNDED_CURVE()
B_SPLINE_CURVE(2,(#128,#129,#130,#131,#132,#133,#134),.UNSPECIFIED.,.F.,.F.)
B_SPLINE_CURVE_WITH_KNOTS((3,2,2,3),(6.14943248,7.245819949,8.342207418,9.438594887),.UNSPECIFIED.)
CURVE()
GEOMETRIC_REPRESENTATION_ITEM()
RATIONAL_B_SPLINE_CURVE((1.,0.853467243,1.,0.853467243,1.,0.853467243,1.))
REPRESENTATION_ITEM(''));
#136=EDGE_CURVE('',#117,#91,#135,.T.);
#137=ORIENTED_EDGE('',*,*,#136,.T.);
#138=EDGE_LOOP('',(#98,#108,#115,#127,#137));
#139=FACE_BOUND('',#138,.T.);
#140=CARTESIAN_POINT('',(-87.531980272,-11.8,34.185121738));
#141=VERTEX_POINT('',#140);
#142=CARTESIAN_POINT('',(-104.379590708,-11.8,23.407458607));
#143=VERTEX_POINT('',#142);
#144=CARTESIAN_POINT('',(-87.531980272,-11.8,34.185121738));
#145=CARTESIAN_POINT('',(-104.379590708,-11.8,23.407458607));
#146=B_SPLINE_CURVE_WITH_KNOTS('',1,(#144,#145),.UNSPECIFIED.,.F.,.F.,(2,2),(-0.,0.02),.UNSPECIFIED.);
#147=EDGE_CURVE('',#141,#143,#146,.T.);
#148=ORIENTED_EDGE('',*,*,#147,.T.);
#149=CARTESIAN_POINT('',(-111.115630165,-11.8,33.93721513));
#150=VERTEX_POINT('',#149);
#151=CARTESIAN_POINT('',(-104.379590708,-11.8,23.407458607));
#152=CARTESIAN_POINT('',(-109.64446897,-11.8,20.039438879));
#153=CARTESIAN_POINT('',(-113.012488698,-11.8,25.30431714));
#154=CARTESIAN_POINT('',(-116.380508427,-11.8,30.569195402));
#155=CARTESIAN_POINT('',(-111.115630165,-11.8,33.93721513));
#156=(BOUNDED_CURVE()
B_SPLINE_CURVE(2,(#151,#152,#153,#154,#155),.UNSPECIFIED.,.F.,.F.)
B_SPLINE_CURVE_WITH_KNOTS((3,2,3),(6.283185307,7.853981634,9.424777961),.UNSPECIFIED.)
CURVE()
GEOMETRIC_REPRESENTATION_ITEM()
RATIONAL_B_SPLINE_CURVE((1.,0.707106781,1.,0.707106781,1.))
REPRESENTATION_ITEM(''));
#157=EDGE_CURVE('',#143,#150,#156,.T.);
#158=ORIENTED_EDGE('',*,*,#157,.T.);
#159=CARTESIAN_POINT('',(-94.268019728,-11.8,44.714878262));
#160=VERTEX_POINT('',#159);
#161=CARTESIAN_POINT('',(-111.115630165,-11.8,33.93721513));
#162=CARTESIAN_POINT('',(-94.268019728,-11.8,44.714878262));
#163=B_SPLINE_CURVE_WITH_KNOTS('',1,(#161,#162),.UNSPECIFIED.,.F.,.F.,(2,2),(0.005,0.025),.UNSPECIFIED.);
#164=EDGE_CURVE('',#150,#160,#163,.T.);
#165=ORIENTED_EDGE('',*,*,#164,.T.);
#166=CARTESIAN_POINT('',(-87.531980272,-11.8,34.185121738));
#167=CARTESIAN_POINT('',(-84.49230139,-11.8,36.129648835));
#168=CARTESIAN_POINT('',(-84.656471813,-11.8,39.734351515));
#169=CARTESIAN_POINT('',(-84.820642237,-11.8,43.339054194));
#170=CARTESIAN_POINT('',(-88.024491542,-11.8,44.999229776));
#171=CARTESIAN_POINT('',(-91.228340847,-11.8,46.659405358));
#172=CARTESIAN_POINT('',(-94.268019728,-11.8,44.714878262));
#173=(BOUNDED_CURVE()
B_SPLINE_CURVE(2,(#166,#167,#168,#169,#170,#171,#172),.UNSPECIFIED.,.F.,.F.)
B_SPLINE_CURVE_WITH_KNOTS((3,2,2,3),(5.944031623,6.991229175,8.038426726,9.085624277),.UNSPECIFIED.)
CURVE()
GEOMETRIC_REPRESENTATION_ITEM()
RATIONAL_B_SPLINE_CURVE((1.,0.866025404,1.,0.866025404,1.,0.866025404,1.))
REPRESENTATION_ITEM(''));
#174=EDGE_CURVE('',#141,#160,#173,.T.);
#175=ORIENTED_EDGE('',*,*,#174,.F.);
#176=EDGE_LOOP('',(#148,#158,#165,#175));
#177=FACE_BOUND('',#176,.T.);
#178=ADVANCED_FACE('',(#89,#139,#177),#59,.T.);
#179=CARTESIAN_POINT('',(-94.268019728,-15.8,44.714878262));
#180=CARTESIAN_POINT('',(-111.115630165,-15.8,33.93721513));
#181=CARTESIAN_POINT('',(-94.268019728,-11.8,44.714878262));
#182=CARTESIAN_POINT('',(-111.115630165,-11.8,33.93721513));
#183=B_SPLINE_SURFACE_WITH_KNOTS('',1,1,((#179,#180),(#181,#182)),.UNSPECIFIED.,.F.,.F.,.U.,(2,2),(2,2),(-0.001,0.003),(-0.025,-0.005),.UNSPECIFIED.);
#184=ORIENTED_EDGE('',*,*,#164,.F.);
#185=CARTESIAN_POINT('',(-111.115630165,-15.8,33.93721513));
#186=VERTEX_POINT('',#185);
#187=CARTESIAN_POINT('',(-111.115630165,-11.8,33.93721513));
#188=CARTESIAN_POINT('',(-111.115630165,-15.8,33.93721513));
#189=B_SPLINE_CURVE_WITH_KNOTS('',1,(#187,#188),.UNSPECIFIED.,.F.,.F.,(2,2),(0.008684184,0.012684184),.UNSPECIFIED.);
#190=EDGE_CURVE('',#150,#186,#189,.T.);
#191=ORIENTED_EDGE('',*,*,#190,.T.);
#192=CARTESIAN_POINT('',(-94.268019728,-15.8,44.714878262));
#193=VERTEX_POINT('',#192);
#194=CARTESIAN_POINT('',(-111.115630165,-15.8,33.93721513));
#195=CARTESIAN_POINT('',(-94.268019728,-15.8,44.714878262));
#196=B_SPLINE_CURVE_WITH_KNOTS('',1,(#194,#195),.UNSPECIFIED.,.F.,.F.,(2,2),(0.005,0.025),.UNSPECIFIED.);
#197=EDGE_CURVE('',#186,#193,#196,.T.);
#198=ORIENTED_EDGE('',*,*,#197,.T.);
#199=CARTESIAN_POINT('',(-94.268019728,-15.8,44.714878262));
#200=CARTESIAN_POINT('',(-94.268019728,-11.8,44.714878262));
#201=B_SPLINE_CURVE_WITH_KNOTS('',1,(#199,#200),.UNSPECIFIED.,.F.,.F.,(2,2),(-0.001,0.003),.UNSPECIFIED.);
#202=EDGE_CURVE('',#193,#160,#201,.T.);
#203=ORIENTED_EDGE('',*,*,#202,.T.);
#204=EDGE_LOOP('',(#184,#191,#198,#203));
#205=FACE_BOUND('',#204,.T.);
#206=ADVANCED_FACE('',(#205),#183,.T.);
#207=CARTESIAN_POINT('',(-87.531980272,-11.8,34.185121738));
#208=CARTESIAN_POINT('',(-104.379590708,-11.8,23.407458607));
#209=CARTESIAN_POINT('',(-87.531980272,-15.8,34.185121738));
#210=CARTESIAN_POINT('',(-104.379590708,-15.8,23.407458607));
#211=B_SPLINE_SURFACE_WITH_KNOTS('',1,1,((#207,#208),(#209,#210)),.UNSPECIFIED.,.F.,.F.,.U.,(2,2),(2,2),(-0.003,0.001),(-0.,0.02),.UNSPECIFIED.);
#212=CARTESIAN_POINT('',(-104.379590708,-15.8,23.407458607));
#213=VERTEX_POINT('',#212);
#214=CARTESIAN_POINT('',(-104.379590708,-11.8,23.407458607));
#215=CARTESIAN_POINT('',(-104.379590708,-15.8,23.407458607));
#216=B_SPLINE_CURVE_WITH_KNOTS('',1,(#214,#215),.UNSPECIFIED.,.F.,.F.,(2,2),(0.008684184,0.012684184),.UNSPECIFIED.);
#217=EDGE_CURVE('',#143,#213,#216,.T.);
#218=ORIENTED_EDGE('',*,*,#217,.F.);
#219=ORIENTED_EDGE('',*,*,#147,.F.);
#220=CARTESIAN_POINT('',(-87.531980272,-15.8,34.185121738));
#221=VERTEX_POINT('',#220);
#222=CARTESIAN_POINT('',(-87.531980272,-15.8,34.185121738));
#223=CARTESIAN_POINT('',(-87.531980272,-11.8,34.185121738));
#224=B_SPLINE_CURVE_WITH_KNOTS('',1,(#222,#223),.UNSPECIFIED.,.F.,.F.,(2,2),(-0.001,0.003),.UNSPECIFIED.);
#225=EDGE_CURVE('',#221,#141,#224,.T.);
#226=ORIENTED_EDGE('',*,*,#225,.F.);
#227=CARTESIAN_POINT('',(-87.531980272,-15.8,34.185121738));
#228=CARTESIAN_POINT('',(-104.379590708,-15.8,23.407458607));
#229=B_SPLINE_CURVE_WITH_KNOTS('',1,(#227,#228),.UNSPECIFIED.,.F.,.F.,(2,2),(-0.,0.02),.UNSPECIFIED.);
#230=EDGE_CURVE('',#221,#213,#229,.T.);
#231=ORIENTED_EDGE('',*,*,#230,.T.);
#232=EDGE_LOOP('',(#218,#219,#226,#231));
#233=FACE_BOUND('',#232,.T.);
#234=ADVANCED_FACE('',(#233),#211,.T.);
#235=CARTESIAN_POINT('',(-94.268019729,-15.8,44.714878261));
#236=CARTESIAN_POINT('',(-94.268019729,-11.8,44.714878261));
#237=CARTESIAN_POINT('',(-91.228340847,-15.8,46.659405358));
#238=CARTESIAN_POINT('',(-91.228340847,-11.8,46.659405358));
#239=CARTESIAN_POINT('',(-88.024491542,-15.8,44.999229776));
#240=CARTESIAN_POINT('',(-88.024491542,-11.8,44.999229776));
#241=CARTESIAN_POINT('',(-78.412943627,-15.8,40.018703029));
#242=CARTESIAN_POINT('',(-78.412943627,-11.8,40.018703029));
#243=CARTESIAN_POINT('',(-87.531980272,-15.8,34.185121738));
#244=CARTESIAN_POINT('',(-87.531980272,-11.8,34.185121738));
#245=(BOUNDED_SURFACE()
B_SPLINE_SURFACE(2,1,((#235,#236),(#237,#238),(#239,#240),(#241,#242),(#243,#244)),.UNSPECIFIED.,.F.,.F.,.U.)
B_SPLINE_SURFACE_WITH_KNOTS((3,2,3),(2,2),(3.141592654,4.188790205,6.283185307),(-0.001,0.003),.UNSPECIFIED.)
GEOMETRIC_REPRESENTATION_ITEM()
RATIONAL_B_SPLINE_SURFACE(((0.75,0.75),(0.75,0.75),(1.,1.),(0.5,0.5),(1.,1.)))
REPRESENTATION_ITEM('')
SURFACE()
);
#246=ORIENTED_EDGE('',*,*,#174,.T.);
#247=ORIENTED_EDGE('',*,*,#202,.F.);
#248=CARTESIAN_POINT('',(-87.531980272,-15.8,34.185121738));
#249=CARTESIAN_POINT('',(-84.49230139,-15.8,36.129648835));
#250=CARTESIAN_POINT('',(-84.656471813,-15.8,39.734351515));
#251=CARTESIAN_POINT('',(-84.820642237,-15.8,43.339054194));
#252=CARTESIAN_POINT('',(-88.024491542,-15.8,44.999229776));
#253=CARTESIAN_POINT('',(-91.228340847,-15.8,46.659405358));
#254=CARTESIAN_POINT('',(-94.268019728,-15.8,44.714878262));
#255=(BOUNDED_CURVE()
B_SPLINE_CURVE(2,(#248,#249,#250,#251,#252,#253,#254),.UNSPECIFIED.,.F.,.F.)
B_SPLINE_CURVE_WITH_KNOTS((3,2,2,3),(1.570796327,2.617993878,3.665191429,4.71238898),.UNSPECIFIED.)
CURVE()
GEOMETRIC_REPRESENTATION_ITEM()
RATIONAL_B_SPLINE_CURVE((1.,0.866025404,1.,0.866025404,1.,0.866025404,1.))
REPRESENTATION_ITEM(''));
#256=EDGE_CURVE('',#221,#193,#255,.T.);
#257=ORIENTED_EDGE('',*,*,#256,.F.);
#258=ORIENTED_EDGE('',*,*,#225,.T.);
#259=EDGE_LOOP('',(#246,#247,#257,#258));
#260=FACE_BOUND('',#259,.T.);
#261=ADVANCED_FACE('',(#260),#245,.T.);
#262=CARTESIAN_POINT('',(-105.56990151,-11.8,33.084348222));
#263=CARTESIAN_POINT('',(-105.56990151,-15.,33.084348222));
#264=CARTESIAN_POINT('',(-93.118207301,-11.8,42.411343676));
#265=CARTESIAN_POINT('',(-93.118207301,-15.,42.411343676));
#266=B_SPLINE_SURFACE_WITH_KNOTS('',1,1,((#262,#263),(#264,#265)),.UNSPECIFIED.,.F.,.F.,.U.,(2,2),(2,2),(-0.015557555,0.),(-0.0021,0.0011),.UNSPECIFIED.);
#267=ORIENTED_EDGE('',*,*,#97,.F.);
#268=CARTESIAN_POINT('',(-93.118207301,-15.,42.411343676));
#269=VERTEX_POINT('',#268);
#270=CARTESIAN_POINT('',(-93.118207301,-15.,42.411343676));
#271=CARTESIAN_POINT('',(-93.118207301,-11.8,42.411343676));
#272=B_SPLINE_CURVE_WITH_KNOTS('',1,(#270,#271),.UNSPECIFIED.,.F.,.F.,(2,2),(-0.,0.0032),.UNSPECIFIED.);
#273=EDGE_CURVE('',#269,#91,#272,.T.);
#274=ORIENTED_EDGE('',*,*,#273,.F.);
#275=CARTESIAN_POINT('',(-96.911605481,-15.,39.569882347));
#276=VERTEX_POINT('',#275);
#277=CARTESIAN_POINT('',(-93.118207301,-15.,42.411343676));
#278=CARTESIAN_POINT('',(-96.911605481,-15.,39.569882347));
#279=B_SPLINE_CURVE_WITH_KNOTS('',1,(#277,#278),.UNSPECIFIED.,.F.,.F.,(2,2),(0.,0.004739596),.UNSPECIFIED.);
#280=EDGE_CURVE('',#269,#276,#279,.T.);
#281=ORIENTED_EDGE('',*,*,#280,.T.);
#282=CARTESIAN_POINT('',(-96.911605481,-13.9,39.569882347));
#283=VERTEX_POINT('',#282);
#284=CARTESIAN_POINT('',(-96.911605481,-15.,39.569882347));
#285=CARTESIAN_POINT('',(-96.911605481,-13.9,39.569882347));
#286=B_SPLINE_CURVE_WITH_KNOTS('',1,(#284,#285),.UNSPECIFIED.,.F.,.F.,(2,2),(-0.,0.0011),.UNSPECIFIED.);
#287=EDGE_CURVE('',#276,#283,#286,.T.);
#288=ORIENTED_EDGE('',*,*,#287,.T.);
#289=CARTESIAN_POINT('',(-105.56990151,-13.9,33.084348222));
#290=VERTEX_POINT('',#289);
#291=CARTESIAN_POINT('',(-96.911605481,-13.9,39.569882347));
#292=CARTESIAN_POINT('',(-105.56990151,-13.9,33.084348222));
#293=B_SPLINE_CURVE_WITH_KNOTS('',1,(#291,#292),.UNSPECIFIED.,.F.,.F.,(2,2),(0.004739596,0.015557555),.UNSPECIFIED.);
#294=EDGE_CURVE('',#283,#290,#293,.T.);
#295=ORIENTED_EDGE('',*,*,#294,.T.);
#296=CARTESIAN_POINT('',(-105.56990151,-13.9,33.084348222));
#297=CARTESIAN_POINT('',(-105.56990151,-11.8,33.084348222));
#298=B_SPLINE_CURVE_WITH_KNOTS('',1,(#296,#297),.UNSPECIFIED.,.F.,.F.,(2,2),(-0.,0.0021),.UNSPECIFIED.);
#299=EDGE_CURVE('',#290,#93,#298,.T.);
#300=ORIENTED_EDGE('',*,*,#299,.T.);
#301=EDGE_LOOP('',(#267,#274,#281,#288,#295,#300));
#302=FACE_BOUND('',#301,.T.);
#303=ADVANCED_FACE('',(#302),#266,.T.);
#304=CARTESIAN_POINT('',(-102.82907519,-13.9,28.799896796));
#305=CARTESIAN_POINT('',(-102.82907519,-11.8,28.799896796));
#306=CARTESIAN_POINT('',(-106.403650875,-13.9,26.868736675));
#307=CARTESIAN_POINT('',(-106.403650875,-11.8,26.868736675));
#308=CARTESIAN_POINT('',(-106.588496518,-13.9,30.927406757));
#309=CARTESIAN_POINT('',(-106.588496518,-11.8,30.927406757));
#310=CARTESIAN_POINT('',(-106.649887797,-13.9,32.275379818));
#311=CARTESIAN_POINT('',(-106.649887797,-11.8,32.275379818));
#312=CARTESIAN_POINT('',(-105.569901509,-13.9,33.084348223));
#313=CARTESIAN_POINT('',(-105.569901509,-11.8,33.084348223));
#314=(BOUNDED_SURFACE()
B_SPLINE_SURFACE(2,1,((#304,#305),(#306,#307),(#308,#309),(#310,#311),(#312,#313)),.UNSPECIFIED.,.F.,.F.,.U.)
B_SPLINE_SURFACE_WITH_KNOTS((3,2,3),(2,2),(0.087398718,2.094395102,3.074646798),(-0.,0.0021),.UNSPECIFIED.)
GEOMETRIC_REPRESENTATION_ITEM()
RATIONAL_B_SPLINE_SURFACE(((0.960011564,0.960011564),(0.520864907,0.520864907),(1.,1.),(0.765982146,0.765982146),(0.751021716,0.751021716)))
REPRESENTATION_ITEM('')
SURFACE()
);
#315=ORIENTED_EDGE('',*,*,#107,.F.);
#316=ORIENTED_EDGE('',*,*,#299,.F.);
#317=CARTESIAN_POINT('',(-102.829075207,-13.9,28.799896828));
#318=VERTEX_POINT('',#317);
#319=CARTESIAN_POINT('',(-105.56990151,-13.9,33.084348222));
#320=CARTESIAN_POINT('',(-107.465532446,-13.9,31.664417662));
#321=CARTESIAN_POINT('',(-106.18920735,-13.9,29.669270127));
#322=CARTESIAN_POINT('',(-104.912882253,-13.9,27.674122591));
#323=CARTESIAN_POINT('',(-102.82907519,-13.9,28.799896796));
#324=(BOUNDED_CURVE()
B_SPLINE_CURVE(2,(#319,#320,#321,#322,#323),.UNSPECIFIED.,.F.,.F.)
B_SPLINE_CURVE_WITH_KNOTS((3,2,3),(3.510823188,5.007834638,6.504846087),.UNSPECIFIED.)
CURVE()
GEOMETRIC_REPRESENTATION_ITEM()
RATIONAL_B_SPLINE_CURVE((1.,0.732706608,1.,0.732706608,1.))
REPRESENTATION_ITEM(''));
#325=EDGE_CURVE('',#290,#318,#324,.T.);
#326=ORIENTED_EDGE('',*,*,#325,.T.);
#327=CARTESIAN_POINT('',(-102.829075207,-13.9,28.799896828));
#328=CARTESIAN_POINT('',(-102.829075207,-11.8,28.799896828));
#329=B_SPLINE_CURVE_WITH_KNOTS('',1,(#327,#328),.UNSPECIFIED.,.F.,.F.,(2,2),(-0.,0.0021),.UNSPECIFIED.);
#330=EDGE_CURVE('',#318,#100,#329,.T.);
#331=ORIENTED_EDGE('',*,*,#330,.T.);
#332=EDGE_LOOP('',(#315,#316,#326,#331));
#333=FACE_BOUND('',#332,.T.);
#334=ADVANCED_FACE('',(#333),#314,.F.);
#335=CARTESIAN_POINT('',(-102.829075207,-11.8,28.799896828));
#336=CARTESIAN_POINT('',(-102.829075207,-15.,28.799896828));
#337=CARTESIAN_POINT('',(-89.141322049,-11.8,36.194688668));
#338=CARTESIAN_POINT('',(-89.141322049,-15.,36.194688668));
#339=B_SPLINE_SURFACE_WITH_KNOTS('',1,1,((#335,#336),(#337,#338)),.UNSPECIFIED.,.F.,.F.,.U.,(2,2),(2,2),(-0.015557555,0.),(-0.0021,0.0011),.UNSPECIFIED.);
#340=ORIENTED_EDGE('',*,*,#114,.T.);
#341=ORIENTED_EDGE('',*,*,#330,.F.);
#342=CARTESIAN_POINT('',(-93.311284549,-13.9,33.941871547));
#343=VERTEX_POINT('',#342);
#344=CARTESIAN_POINT('',(-93.311284549,-13.9,33.941871547));
#345=CARTESIAN_POINT('',(-102.829075207,-13.9,28.799896828));
#346=B_SPLINE_CURVE_WITH_KNOTS('',1,(#344,#345),.UNSPECIFIED.,.F.,.F.,(2,2),(0.004739596,0.015557555),.UNSPECIFIED.);
#347=EDGE_CURVE('',#343,#318,#346,.T.);
#348=ORIENTED_EDGE('',*,*,#347,.F.);
#349=CARTESIAN_POINT('',(-93.311284549,-15.,33.941871547));
#350=VERTEX_POINT('',#349);
#351=CARTESIAN_POINT('',(-93.311284549,-15.,33.941871547));
#352=CARTESIAN_POINT('',(-93.311284549,-13.9,33.941871547));
#353=B_SPLINE_CURVE_WITH_KNOTS('',1,(#351,#352),.UNSPECIFIED.,.F.,.F.,(2,2),(-0.,0.0011),.UNSPECIFIED.);
#354=EDGE_CURVE('',#350,#343,#353,.T.);
#355=ORIENTED_EDGE('',*,*,#354,.F.);
#356=CARTESIAN_POINT('',(-89.141322049,-15.,36.194688668));
#357=VERTEX_POINT('',#356);
#358=CARTESIAN_POINT('',(-89.141322049,-15.,36.194688668));
#359=CARTESIAN_POINT('',(-93.311284549,-15.,33.941871547));
#360=B_SPLINE_CURVE_WITH_KNOTS('',1,(#358,#359),.UNSPECIFIED.,.F.,.F.,(2,2),(0.,0.004739596),.UNSPECIFIED.);
#361=EDGE_CURVE('',#357,#350,#360,.T.);
#362=ORIENTED_EDGE('',*,*,#361,.F.);
#363=CARTESIAN_POINT('',(-89.141322049,-15.,36.194688668));
#364=CARTESIAN_POINT('',(-89.141322049,-11.8,36.194688668));
#365=B_SPLINE_CURVE_WITH_KNOTS('',1,(#363,#364),.UNSPECIFIED.,.F.,.F.,(2,2),(0.,0.0032),.UNSPECIFIED.);
#366=EDGE_CURVE('',#357,#110,#365,.T.);
#367=ORIENTED_EDGE('',*,*,#366,.T.);
#368=EDGE_LOOP('',(#340,#341,#348,#355,#362,#367));
#369=FACE_BOUND('',#368,.T.);
#370=ADVANCED_FACE('',(#369),#339,.F.);
#371=CARTESIAN_POINT('',(-96.911605481,-13.9,39.569882347));
#372=CARTESIAN_POINT('',(-93.311284549,-13.9,33.941871547));
#373=CARTESIAN_POINT('',(-107.989367825,-13.9,32.48327554));
#374=CARTESIAN_POINT('',(-104.389046894,-13.9,26.85526474));
#375=B_SPLINE_SURFACE_WITH_KNOTS('',1,1,((#371,#372),(#373,#374)),.UNSPECIFIED.,.F.,.F.,.U.,(2,2),(2,2),(0.004999457,0.018150001),(-0.003340539,0.003340539),.UNSPECIFIED.);
#376=ORIENTED_EDGE('',*,*,#347,.T.);
#377=ORIENTED_EDGE('',*,*,#325,.F.);
#378=ORIENTED_EDGE('',*,*,#294,.F.);
#379=CARTESIAN_POINT('',(-96.911605481,-13.9,39.569882347));
#380=CARTESIAN_POINT('',(-93.311284549,-13.9,33.941871547));
#381=B_SPLINE_CURVE_WITH_KNOTS('',1,(#379,#380),.UNSPECIFIED.,.F.,.F.,(2,2),(0.000050053,0.006731132),.UNSPECIFIED.);
#382=EDGE_CURVE('',#283,#343,#381,.T.);
#383=ORIENTED_EDGE('',*,*,#382,.T.);
#384=EDGE_LOOP('',(#376,#377,#378,#383));
#385=FACE_BOUND('',#384,.T.);
#386=ADVANCED_FACE('',(#385),#375,.F.);
#387=CARTESIAN_POINT('',(-88.906132321,-15.,36.333192069));
#388=CARTESIAN_POINT('',(-88.906132321,-11.8,36.333192069));
#389=CARTESIAN_POINT('',(-89.021171161,-15.,36.259600038));
#390=CARTESIAN_POINT('',(-89.021171161,-11.8,36.259600038));
#391=CARTESIAN_POINT('',(-89.141322049,-15.,36.194688668));
#392=CARTESIAN_POINT('',(-89.141322049,-11.8,36.194688668));
#393=(BOUNDED_SURFACE()
B_SPLINE_SURFACE(2,1,((#387,#388),(#389,#390),(#391,#392)),.UNSPECIFIED.,.F.,.F.,.U.)
B_SPLINE_SURFACE_WITH_KNOTS((3,3),(2,2),(0.,0.087398716),(-0.,0.0032),.UNSPECIFIED.)
GEOMETRIC_REPRESENTATION_ITEM()
RATIONAL_B_SPLINE_SURFACE(((1.,1.),(0.979135093,0.979135093),(0.960011564,0.960011564)))
REPRESENTATION_ITEM('')
SURFACE()
);
#394=CARTESIAN_POINT('',(-88.906132321,-15.,36.333192069));
#395=VERTEX_POINT('',#394);
#396=CARTESIAN_POINT('',(-88.906132321,-11.8,36.333192069));
#397=CARTESIAN_POINT('',(-88.906132321,-15.,36.333192069));
#398=B_SPLINE_CURVE_WITH_KNOTS('',1,(#396,#397),.UNSPECIFIED.,.F.,.F.,(2,2),(-0.,0.0032),.UNSPECIFIED.);
#399=EDGE_CURVE('',#117,#395,#398,.T.);
#400=ORIENTED_EDGE('',*,*,#399,.F.);
#401=ORIENTED_EDGE('',*,*,#126,.F.);
#402=ORIENTED_EDGE('',*,*,#366,.F.);
#403=CARTESIAN_POINT('',(-89.141322049,-15.,36.194688668));
#404=CARTESIAN_POINT('',(-87.153554981,-15.,37.268577387));
#405=CARTESIAN_POINT('',(-87.200809384,-15.,39.527387233));
#406=CARTESIAN_POINT('',(-87.248063786,-15.,41.786197079));
#407=CARTESIAN_POINT('',(-89.279003675,-15.,42.776014268));
#408=CARTESIAN_POINT('',(-91.309943563,-15.,43.765831458));
#409=CARTESIAN_POINT('',(-93.118207301,-15.,42.411343676));
#410=(BOUNDED_CURVE()
B_SPLINE_CURVE(2,(#403,#404,#405,#406,#407,#408,#409),.UNSPECIFIED.,.F.,.F.)
B_SPLINE_CURVE_WITH_KNOTS((3,2,2,3),(6.14943248,7.245819949,8.342207418,9.438594887),.UNSPECIFIED.)
CURVE()
GEOMETRIC_REPRESENTATION_ITEM()
RATIONAL_B_SPLINE_CURVE((1.,0.853467243,1.,0.853467243,1.,0.853467243,1.))
REPRESENTATION_ITEM(''));
#411=EDGE_CURVE('',#357,#395,#410,.T.);
#412=ORIENTED_EDGE('',*,*,#411,.T.);
#413=EDGE_LOOP('',(#400,#401,#402,#412));
#414=FACE_BOUND('',#413,.T.);
#415=ADVANCED_FACE('',(#414),#393,.F.);
#416=CARTESIAN_POINT('',(-93.311284549,-13.9,33.941871547));
#417=CARTESIAN_POINT('',(-93.311284549,-15.,33.941871547));
#418=CARTESIAN_POINT('',(-96.911605481,-13.9,39.569882347));
#419=CARTESIAN_POINT('',(-96.911605481,-15.,39.569882347));
#420=B_SPLINE_SURFACE_WITH_KNOTS('',1,1,((#416,#417),(#418,#419)),.UNSPECIFIED.,.F.,.F.,.U.,(2,2),(2,2),(-0.006731132,-0.000050053),(-0.0011,0.),.UNSPECIFIED.);
#421=ORIENTED_EDGE('',*,*,#287,.F.);
#422=CARTESIAN_POINT('',(-96.911605481,-15.,39.569882347));
#423=CARTESIAN_POINT('',(-93.311284549,-15.,33.941871547));
#424=B_SPLINE_CURVE_WITH_KNOTS('',1,(#422,#423),.UNSPECIFIED.,.F.,.F.,(2,2),(0.000050053,0.006731132),.UNSPECIFIED.);
#425=EDGE_CURVE('',#276,#350,#424,.T.);
#426=ORIENTED_EDGE('',*,*,#425,.T.);
#427=ORIENTED_EDGE('',*,*,#354,.T.);
#428=ORIENTED_EDGE('',*,*,#382,.F.);
#429=EDGE_LOOP('',(#421,#426,#427,#428));
#430=FACE_BOUND('',#429,.T.);
#431=ADVANCED_FACE('',(#430),#420,.T.);
#432=CARTESIAN_POINT('',(-89.326258078,-15.,45.034824114));
#433=CARTESIAN_POINT('',(-85.254196107,-15.,38.669389148));
#434=CARTESIAN_POINT('',(-97.189639306,-15.,40.004503982));
#435=CARTESIAN_POINT('',(-93.117577336,-15.,33.639069016));
#436=B_SPLINE_SURFACE_WITH_KNOTS('',1,1,((#432,#433),(#434,#435)),.UNSPECIFIED.,.F.,.F.,.U.,(2,2),(2,2),(-0.004335257,0.004999457),(-0.003856484,0.0037),.UNSPECIFIED.);
#437=CARTESIAN_POINT('',(-90.9,-15.,37.95));
#438=VERTEX_POINT('',#437);
#439=CARTESIAN_POINT('',(-90.9,-15.,37.95));
#440=CARTESIAN_POINT('',(-89.4,-15.,37.95));
#441=CARTESIAN_POINT('',(-89.4,-15.,39.45));
#442=CARTESIAN_POINT('',(-89.4,-15.,40.95));
#443=CARTESIAN_POINT('',(-90.9,-15.,40.95));
#444=CARTESIAN_POINT('',(-92.4,-15.,40.95));
#445=CARTESIAN_POINT('',(-92.4,-15.,39.45));
#446=CARTESIAN_POINT('',(-92.4,-15.,37.95));
#447=CARTESIAN_POINT('',(-90.9,-15.,37.95));
#448=(BOUNDED_CURVE()
B_SPLINE_CURVE(2,(#439,#440,#441,#442,#443,#444,#445,#446,#447),.UNSPECIFIED.,.T.,.F.)
B_SPLINE_CURVE_WITH_KNOTS((3,2,2,2,3),(0.,1.570796327,3.141592654,4.71238898,6.283185307),.UNSPECIFIED.)
CURVE()
GEOMETRIC_REPRESENTATION_ITEM()
RATIONAL_B_SPLINE_CURVE((1.,0.707106781,1.,0.707106781,1.,0.707106781,1.,0.707106781,1.))
REPRESENTATION_ITEM(''));
#449=EDGE_CURVE('',#438,#438,#448,.T.);
#450=ORIENTED_EDGE('',*,*,#449,.T.);
#451=EDGE_LOOP('',(#450));
#452=FACE_BOUND('',#451,.T.);
#453=CARTESIAN_POINT('',(-89.141322049,-15.,36.194688668));
#454=CARTESIAN_POINT('',(-87.153554981,-15.,37.268577387));
#455=CARTESIAN_POINT('',(-87.200809384,-15.,39.527387233));
#456=CARTESIAN_POINT('',(-87.248063786,-15.,41.786197079));
#457=CARTESIAN_POINT('',(-89.279003675,-15.,42.776014268));
#458=CARTESIAN_POINT('',(-91.309943563,-15.,43.765831458));
#459=CARTESIAN_POINT('',(-93.118207301,-15.,42.411343676));
#460=(BOUNDED_CURVE()
B_SPLINE_CURVE(2,(#453,#454,#455,#456,#457,#458,#459),.UNSPECIFIED.,.F.,.F.)
B_SPLINE_CURVE_WITH_KNOTS((3,2,2,3),(6.14943248,7.245819949,8.342207418,9.438594887),.UNSPECIFIED.)
CURVE()
GEOMETRIC_REPRESENTATION_ITEM()
RATIONAL_B_SPLINE_CURVE((1.,0.853467243,1.,0.853467243,1.,0.853467243,1.))
REPRESENTATION_ITEM(''));
#461=EDGE_CURVE('',#395,#269,#460,.T.);
#462=ORIENTED_EDGE('',*,*,#461,.F.);
#463=ORIENTED_EDGE('',*,*,#411,.F.);
#464=ORIENTED_EDGE('',*,*,#361,.T.);
#465=ORIENTED_EDGE('',*,*,#425,.F.);
#466=ORIENTED_EDGE('',*,*,#280,.F.);
#467=EDGE_LOOP('',(#462,#463,#464,#465,#466));
#468=FACE_BOUND('',#467,.T.);
#469=ADVANCED_FACE('',(#452,#468),#436,.F.);
#470=CARTESIAN_POINT('',(-88.188661965,-15.8,48.603932455));
#471=CARTESIAN_POINT('',(-116.380508427,-15.8,30.569195402));
#472=CARTESIAN_POINT('',(-81.452622508,-15.8,38.074175932));
#473=CARTESIAN_POINT('',(-109.64446897,-15.8,20.039438879));
#474=B_SPLINE_SURFACE_WITH_KNOTS('',1,1,((#470,#471),(#472,#473)),.UNSPECIFIED.,.F.,.F.,.U.,(2,2),(2,2),(0.03800006,0.05050006),(-0.024508942,0.008957936),.UNSPECIFIED.);
#475=CARTESIAN_POINT('',(-90.9,-15.8,37.95));
#476=VERTEX_POINT('',#475);
#477=CARTESIAN_POINT('',(-89.737020995,-15.8,40.397354123));
#478=VERTEX_POINT('',#477);
#479=CARTESIAN_POINT('',(-89.737020995,-15.8,40.397354123));
#480=CARTESIAN_POINT('',(-90.684375118,-15.8,41.560333128));
#481=CARTESIAN_POINT('',(-91.847354123,-15.8,40.612979005));
#482=CARTESIAN_POINT('',(-93.010333128,-15.8,39.665624882));
#483=CARTESIAN_POINT('',(-92.062979005,-15.8,38.502645877));
#484=CARTESIAN_POINT('',(-91.115624882,-15.8,37.339666872));
#485=CARTESIAN_POINT('',(-89.952645877,-15.8,38.287020995));
#486=CARTESIAN_POINT('',(-88.789666872,-15.8,39.234375118));
#487=CARTESIAN_POINT('',(-89.737020995,-15.8,40.397354123));
#488=(BOUNDED_CURVE()
B_SPLINE_CURVE(2,(#479,#480,#481,#482,#483,#484,#485,#486,#487),.UNSPECIFIED.,.T.,.F.)
B_SPLINE_CURVE_WITH_KNOTS((3,2,2,2,3),(0.,1.570796327,3.141592654,4.71238898,6.283185307),.UNSPECIFIED.)
CURVE()
GEOMETRIC_REPRESENTATION_ITEM()
RATIONAL_B_SPLINE_CURVE((1.,0.707106781,1.,0.707106781,1.,0.707106781,1.,0.707106781,1.))
REPRESENTATION_ITEM(''));
#489=EDGE_CURVE('',#476,#478,#488,.T.);
#490=ORIENTED_EDGE('',*,*,#489,.F.);
#491=CARTESIAN_POINT('',(-89.737020995,-15.8,40.397354123));
#492=CARTESIAN_POINT('',(-90.684375118,-15.8,41.560333128));
#493=CARTESIAN_POINT('',(-91.847354123,-15.8,40.612979005));
#494=CARTESIAN_POINT('',(-93.010333128,-15.8,39.665624882));
#495=CARTESIAN_POINT('',(-92.062979005,-15.8,38.502645877));
#496=CARTESIAN_POINT('',(-91.115624882,-15.8,37.339666872));
#497=CARTESIAN_POINT('',(-89.952645877,-15.8,38.287020995));
#498=CARTESIAN_POINT('',(-88.789666872,-15.8,39.234375118));
#499=CARTESIAN_POINT('',(-89.737020995,-15.8,40.397354123));
#500=(BOUNDED_CURVE()
B_SPLINE_CURVE(2,(#491,#492,#493,#494,#495,#496,#497,#498,#499),.UNSPECIFIED.,.T.,.F.)
B_SPLINE_CURVE_WITH_KNOTS((3,2,2,2,3),(0.,1.570796327,3.141592654,4.71238898,6.283185307),.UNSPECIFIED.)
CURVE()
GEOMETRIC_REPRESENTATION_ITEM()
RATIONAL_B_SPLINE_CURVE((1.,0.707106781,1.,0.707106781,1.,0.707106781,1.,0.707106781,1.))
REPRESENTATION_ITEM(''));
#501=EDGE_CURVE('',#478,#476,#500,.T.);
#502=ORIENTED_EDGE('',*,*,#501,.F.);
#503=EDGE_LOOP('',(#490,#502));
#504=FACE_BOUND('',#503,.T.);
#505=CARTESIAN_POINT('',(-107.767814495,-15.8,26.972456933));
#506=VERTEX_POINT('',#505);
#507=CARTESIAN_POINT('',(-108.663711803,-15.8,30.104383756));
#508=VERTEX_POINT('',#507);
#509=CARTESIAN_POINT('',(-107.767814495,-15.8,26.972456933));
#510=CARTESIAN_POINT('',(-109.467694431,-15.8,26.992660992));
#511=CARTESIAN_POINT('',(-109.447490373,-15.8,28.692540927));
#512=CARTESIAN_POINT('',(-109.427286314,-15.8,30.392420863));
#513=CARTESIAN_POINT('',(-107.727406378,-15.8,30.372216805));
#514=CARTESIAN_POINT('',(-106.027526442,-15.8,30.352012746));
#515=CARTESIAN_POINT('',(-106.047730501,-15.8,28.65213281));
#516=CARTESIAN_POINT('',(-106.06793456,-15.8,26.952252874));
#517=CARTESIAN_POINT('',(-107.767814495,-15.8,26.972456933));
#518=(BOUNDED_CURVE()
B_SPLINE_CURVE(2,(#509,#510,#511,#512,#513,#514,#515,#516,#517),.UNSPECIFIED.,.T.,.F.)
B_SPLINE_CURVE_WITH_KNOTS((3,2,2,2,3),(0.,1.570796327,3.141592654,4.71238898,6.283185307),.UNSPECIFIED.)
CURVE()
GEOMETRIC_REPRESENTATION_ITEM()
RATIONAL_B_SPLINE_CURVE((1.,0.707106781,1.,0.707106781,1.,0.707106781,1.,0.707106781,1.))
REPRESENTATION_ITEM(''));
#519=EDGE_CURVE('',#506,#508,#518,.T.);
#520=ORIENTED_EDGE('',*,*,#519,.T.);
#521=CARTESIAN_POINT('',(-107.767814495,-15.8,26.972456933));
#522=CARTESIAN_POINT('',(-109.467694431,-15.8,26.992660992));
#523=CARTESIAN_POINT('',(-109.447490373,-15.8,28.692540927));
#524=CARTESIAN_POINT('',(-109.427286314,-15.8,30.392420863));
#525=CARTESIAN_POINT('',(-107.727406378,-15.8,30.372216805));
#526=CARTESIAN_POINT('',(-106.027526442,-15.8,30.352012746));
#527=CARTESIAN_POINT('',(-106.047730501,-15.8,28.65213281));
#528=CARTESIAN_POINT('',(-106.06793456,-15.8,26.952252874));
#529=CARTESIAN_POINT('',(-107.767814495,-15.8,26.972456933));
#530=(BOUNDED_CURVE()
B_SPLINE_CURVE(2,(#521,#522,#523,#524,#525,#526,#527,#528,#529),.UNSPECIFIED.,.T.,.F.)
B_SPLINE_CURVE_WITH_KNOTS((3,2,2,2,3),(0.,1.570796327,3.141592654,4.71238898,6.283185307),.UNSPECIFIED.)
CURVE()
GEOMETRIC_REPRESENTATION_ITEM()
RATIONAL_B_SPLINE_CURVE((1.,0.707106781,1.,0.707106781,1.,0.707106781,1.,0.707106781,1.))
REPRESENTATION_ITEM(''));
#531=EDGE_CURVE('',#508,#506,#530,.T.);
#532=ORIENTED_EDGE('',*,*,#531,.T.);
#533=EDGE_LOOP('',(#520,#532));
#534=FACE_BOUND('',#533,.T.);
#535=ORIENTED_EDGE('',*,*,#197,.F.);
#536=CARTESIAN_POINT('',(-111.115630165,-15.8,33.93721513));
#537=CARTESIAN_POINT('',(-116.380508427,-15.8,30.569195402));
#538=CARTESIAN_POINT('',(-113.012488698,-15.8,25.30431714));
#539=CARTESIAN_POINT('',(-109.64446897,-15.8,20.039438879));
#540=CARTESIAN_POINT('',(-104.379590708,-15.8,23.407458607));
#541=(BOUNDED_CURVE()
B_SPLINE_CURVE(2,(#536,#537,#538,#539,#540),.UNSPECIFIED.,.F.,.F.)
B_SPLINE_CURVE_WITH_KNOTS((3,2,3),(3.141592654,4.71238898,6.283185307),.UNSPECIFIED.)
CURVE()
GEOMETRIC_REPRESENTATION_ITEM()
RATIONAL_B_SPLINE_CURVE((1.,0.707106781,1.,0.707106781,1.))
REPRESENTATION_ITEM(''));
#542=EDGE_CURVE('',#186,#213,#541,.T.);
#543=ORIENTED_EDGE('',*,*,#542,.T.);
#544=ORIENTED_EDGE('',*,*,#230,.F.);
#545=ORIENTED_EDGE('',*,*,#256,.T.);
#546=EDGE_LOOP('',(#535,#543,#544,#545));
#547=FACE_BOUND('',#546,.T.);
#548=ADVANCED_FACE('',(#504,#534,#547),#474,.F.);
#549=CARTESIAN_POINT('',(-111.115630165,-11.8,33.93721513));
#550=CARTESIAN_POINT('',(-111.115630165,-15.8,33.93721513));
#551=CARTESIAN_POINT('',(-120.23466681,-11.8,28.10363384));
#552=CARTESIAN_POINT('',(-120.23466681,-15.8,28.10363384));
#553=CARTESIAN_POINT('',(-110.623118895,-11.8,23.123107093));
#554=CARTESIAN_POINT('',(-110.623118895,-15.8,23.123107093));
#555=CARTESIAN_POINT('',(-107.41926959,-11.8,21.46293151));
#556=CARTESIAN_POINT('',(-107.41926959,-15.8,21.46293151));
#557=CARTESIAN_POINT('',(-104.379590708,-11.8,23.407458607));
#558=CARTESIAN_POINT('',(-104.379590708,-15.8,23.407458607));
#559=(BOUNDED_SURFACE()
B_SPLINE_SURFACE(2,1,((#549,#550),(#551,#552),(#553,#554),(#555,#556),(#557,#558)),.UNSPECIFIED.,.F.,.F.,.U.)
B_SPLINE_SURFACE_WITH_KNOTS((3,2,3),(2,2),(0.,2.094395102,3.141592654),(0.008684184,0.012684184),.UNSPECIFIED.)
GEOMETRIC_REPRESENTATION_ITEM()
RATIONAL_B_SPLINE_SURFACE(((1.,1.),(0.5,0.5),(1.,1.),(0.75,0.75),(0.75,0.75)))
REPRESENTATION_ITEM('')
SURFACE()
);
#560=ORIENTED_EDGE('',*,*,#217,.T.);
#561=ORIENTED_EDGE('',*,*,#542,.F.);
#562=ORIENTED_EDGE('',*,*,#190,.F.);
#563=ORIENTED_EDGE('',*,*,#157,.F.);
#564=EDGE_LOOP('',(#560,#561,#562,#563));
#565=FACE_BOUND('',#564,.T.);
#566=ADVANCED_FACE('',(#565),#559,.T.);
#567=CARTESIAN_POINT('',(-108.663711803,-11.8,30.104383756));
#568=CARTESIAN_POINT('',(-108.663711803,-15.8,30.104383756));
#569=CARTESIAN_POINT('',(-111.14408977,-11.8,28.517649645));
#570=CARTESIAN_POINT('',(-111.14408977,-15.8,28.517649645));
#571=CARTESIAN_POINT('',(-108.529748737,-11.8,27.16294637));
#572=CARTESIAN_POINT('',(-108.529748737,-15.8,27.16294637));
#573=CARTESIAN_POINT('',(-105.915407705,-11.8,25.808243095));
#574=CARTESIAN_POINT('',(-105.915407705,-15.8,25.808243095));
#575=CARTESIAN_POINT('',(-106.04937077,-11.8,28.749680481));
#576=CARTESIAN_POINT('',(-106.04937077,-15.8,28.749680481));
#577=CARTESIAN_POINT('',(-106.183333836,-11.8,31.691117867));
#578=CARTESIAN_POINT('',(-106.183333836,-15.8,31.691117867));
#579=CARTESIAN_POINT('',(-108.663711803,-11.8,30.104383756));
#580=CARTESIAN_POINT('',(-108.663711803,-15.8,30.104383756));
#581=(BOUNDED_SURFACE()
B_SPLINE_SURFACE(2,1,((#567,#568),(#569,#570),(#571,#572),(#573,#574),(#575,#576),(#577,#578),(#579,#580)),.UNSPECIFIED.,.T.,.F.,.U.)
B_SPLINE_SURFACE_WITH_KNOTS((3,2,2,3),(2,2),(0.,2.094395102,4.188790205,6.283185307),(0.01395731,0.01795731),.UNSPECIFIED.)
GEOMETRIC_REPRESENTATION_ITEM()
RATIONAL_B_SPLINE_SURFACE(((1.,1.),(0.5,0.5),(1.,1.),(0.5,0.5),(1.,1.),(0.5,0.5),(1.,1.)))
REPRESENTATION_ITEM('')
SURFACE()
);
#582=CARTESIAN_POINT('',(-108.663711803,-15.8,30.104383756));
#583=CARTESIAN_POINT('',(-108.663711803,-11.8,30.104383756));
#584=B_SPLINE_CURVE_WITH_KNOTS('',1,(#582,#583),.UNSPECIFIED.,.F.,.F.,(2,2),(0.01395731,0.01795731),.UNSPECIFIED.);
#585=EDGE_CURVE('',#508,#63,#584,.T.);
#586=ORIENTED_EDGE('',*,*,#585,.F.);
#587=ORIENTED_EDGE('',*,*,#519,.F.);
#588=ORIENTED_EDGE('',*,*,#531,.F.);
#589=ORIENTED_EDGE('',*,*,#585,.T.);
#590=ORIENTED_EDGE('',*,*,#74,.F.);
#591=ORIENTED_EDGE('',*,*,#86,.F.);
#592=EDGE_LOOP('',(#586,#587,#588,#589,#590,#591));
#593=FACE_BOUND('',#592,.T.);
#594=ADVANCED_FACE('',(#593),#581,.F.);
#595=CARTESIAN_POINT('',(-90.9,-15.,37.95));
#596=CARTESIAN_POINT('',(-90.9,-15.8,37.95));
#597=CARTESIAN_POINT('',(-88.301923789,-15.,37.95));
#598=CARTESIAN_POINT('',(-88.301923789,-15.8,37.95));
#599=CARTESIAN_POINT('',(-89.600961894,-15.,40.2));
#600=CARTESIAN_POINT('',(-89.600961894,-15.8,40.2));
#601=CARTESIAN_POINT('',(-90.9,-15.,42.45));
#602=CARTESIAN_POINT('',(-90.9,-15.8,42.45));
#603=CARTESIAN_POINT('',(-92.199038106,-15.,40.2));
#604=CARTESIAN_POINT('',(-92.199038106,-15.8,40.2));
#605=CARTESIAN_POINT('',(-93.498076211,-15.,37.95));
#606=CARTESIAN_POINT('',(-93.498076211,-15.8,37.95));
#607=CARTESIAN_POINT('',(-90.9,-15.,37.95));
#608=CARTESIAN_POINT('',(-90.9,-15.8,37.95));
#609=(BOUNDED_SURFACE()
B_SPLINE_SURFACE(2,1,((#595,#596),(#597,#598),(#599,#600),(#601,#602),(#603,#604),(#605,#606),(#607,#608)),.UNSPECIFIED.,.T.,.F.,.U.)
B_SPLINE_SURFACE_WITH_KNOTS((3,2,2,3),(2,2),(0.,2.094395102,4.188790205,6.283185307),(0.011370937,0.012170937),.UNSPECIFIED.)
GEOMETRIC_REPRESENTATION_ITEM()
RATIONAL_B_SPLINE_SURFACE(((1.,1.),(0.5,0.5),(1.,1.),(0.5,0.5),(1.,1.),(0.5,0.5),(1.,1.)))
REPRESENTATION_ITEM('')
SURFACE()
);
#610=CARTESIAN_POINT('',(-90.9,-15.8,37.95));
#611=CARTESIAN_POINT('',(-90.9,-15.,37.95));
#612=B_SPLINE_CURVE_WITH_KNOTS('',1,(#610,#611),.UNSPECIFIED.,.F.,.F.,(2,2),(0.011370937,0.012170937),.UNSPECIFIED.);
#613=EDGE_CURVE('',#476,#438,#612,.T.);
#614=ORIENTED_EDGE('',*,*,#613,.F.);
#615=ORIENTED_EDGE('',*,*,#489,.T.);
#616=ORIENTED_EDGE('',*,*,#501,.T.);
#617=ORIENTED_EDGE('',*,*,#613,.T.);
#618=ORIENTED_EDGE('',*,*,#449,.F.);
#619=EDGE_LOOP('',(#614,#615,#616,#617,#618));
#620=FACE_BOUND('',#619,.T.);
#621=ADVANCED_FACE('',(#620),#609,.F.);
#622=CARTESIAN_POINT('',(-93.118207301,-15.,42.411343676));
#623=CARTESIAN_POINT('',(-93.118207301,-11.8,42.411343676));
#624=CARTESIAN_POINT('',(-91.259567208,-15.,43.803566085));
#625=CARTESIAN_POINT('',(-91.259567208,-11.8,43.803566085));
#626=CARTESIAN_POINT('',(-89.197698993,-15.,42.735144027));
#627=CARTESIAN_POINT('',(-89.197698993,-11.8,42.735144027));
#628=CARTESIAN_POINT('',(-83.507662627,-15.,39.786672193));
#629=CARTESIAN_POINT('',(-83.507662627,-11.8,39.786672193));
#630=CARTESIAN_POINT('',(-88.906132321,-15.,36.333192069));
#631=CARTESIAN_POINT('',(-88.906132321,-11.8,36.333192069));
#632=(BOUNDED_SURFACE()
B_SPLINE_SURFACE(2,1,((#622,#623),(#624,#625),(#626,#627),(#628,#629),(#630,#631)),.UNSPECIFIED.,.F.,.F.,.U.)
B_SPLINE_SURFACE_WITH_KNOTS((3,2,3),(2,2),(3.074646797,4.188790205,6.283185307),(-0.,0.0032),.UNSPECIFIED.)
GEOMETRIC_REPRESENTATION_ITEM()
RATIONAL_B_SPLINE_SURFACE(((0.751021716,0.751021716),(0.734017854,0.734017854),(1.,1.),(0.5,0.5),(1.,1.)))
REPRESENTATION_ITEM('')
SURFACE()
);
#633=ORIENTED_EDGE('',*,*,#399,.T.);
#634=ORIENTED_EDGE('',*,*,#461,.T.);
#635=ORIENTED_EDGE('',*,*,#273,.T.);
#636=ORIENTED_EDGE('',*,*,#136,.F.);
#637=EDGE_LOOP('',(#633,#634,#635,#636));
#638=FACE_BOUND('',#637,.T.);
#639=ADVANCED_FACE('',(#638),#632,.F.);
#640=CLOSED_SHELL('',(#178,#206,#234,#261,#303,#334,#370,#386,#415,#431,#469,#548,#566,#594,#621,#639));
#641=MANIFOLD_SOLID_BREP('Horn',#640);
#54=STYLED_ITEM('',(),#641);
#35=SHAPE_REPRESENTATION('FiringMechanism',(#15),#33);
#36=ADVANCED_BREP_SHAPE_REPRESENTATION('FiringMechanism',(#641),#33);
#649=SHAPE_REPRESENTATION_RELATIONSHIP('','',#35,#36);
#650=APPLICATION_CONTEXT('configuration controlled 3D design of mechanical parts and assemblies');
#651=APPLICATION_PROTOCOL_DEFINITION('international standard','configuration_control_3d_design_ed2_mim',2004,#650);
#652=PRODUCT_CONTEXT('',#650,'mechanical');
#653=PRODUCT_DEFINITION_CONTEXT('part definition',#650,'design');
#43=PRODUCT('0','0','',(#652));
#654=PRODUCT_RELATED_PRODUCT_CATEGORY('part','',(#43));
#655=PRODUCT_DEFINITION_FORMATION_WITH_SPECIFIED_SOURCE('','',#43,.NOT_KNOWN.);
#44=PRODUCT_DEFINITION('design','',#655,#653);
#42=PRODUCT_DEFINITION_SHAPE('','',#44);
#656=SHAPE_DEFINITION_REPRESENTATION(#42,#35);
#34=DRAUGHTING_MODEL('',(),#33);
#16=SHAPE_REPRESENTATION('root',(#15,#48),#10);
#24=PRODUCT('root','root','',(#652));
#657=PRODUCT_RELATED_PRODUCT_CATEGORY('part','',(#24));
#658=PRODUCT_DEFINITION_FORMATION_WITH_SPECIFIED_SOURCE('','',#24,.NOT_KNOWN.);
#25=PRODUCT_DEFINITION('design','',#658,#653);
#23=PRODUCT_DEFINITION_SHAPE('','',#25);
#659=SHAPE_DEFINITION_REPRESENTATION(#23,#16);
#11=DRAUGHTING_MODEL('',(),#10);
#1=MECHANICAL_DESIGN_GEOMETRIC_PRESENTATION_REPRESENTATION('',(#54),#10);
ENDSEC;
END-ISO-10303-21;
