ISO-10303-21;
HEADER;

/* File generated by HOOPS Exchange Version 25.8.0 */

FILE_DESCRIPTION(('HOOPS Exchange Step'),'2;1');

FILE_NAME('/home/tfannes/repo/klepto/cart/stl/servo_arm_tilt.step',
'2026-09-12T13:19:40+02:00',
('tfannes'),
('Unknown organisation'),
'HOOPS Exchange 2025.8',
'HOOPS Exchange',
'Unknown authorisation');

FILE_SCHEMA( ('AP203_CONFIGURATION_CONTROLLED_3D_DESIGN_OF_MECHANICAL_PARTS_AND_ASSEMBLIES_MIM_LF') );

ENDSEC;

DATA;
#3=(NAMED_UNIT(*)PLANE_ANGLE_UNIT()SI_UNIT($,.RADIAN.));
#4=PLANE_ANGLE_MEASURE_WITH_UNIT(PLANE_ANGLE_MEASURE(0.0174532925),#3);
#5=(CONVERSION_BASED_UNIT('DEGREE',#4)NAMED_UNIT(#6)PLANE_ANGLE_UNIT());
#6=DIMENSIONAL_EXPONENTS(0.,0.,0.,0.,0.,0.,0.);
#7=(NAMED_UNIT(*)SI_UNIT($,.STERADIAN.)SOLID_ANGLE_UNIT());
#8=(LENGTH_UNIT()NAMED_UNIT(*)SI_UNIT(.MILLI.,.METRE.));
#9=UNCERTAINTY_MEASURE_WITH_UNIT(LENGTH_MEASURE(1.000000E-03),#8,'DISTANCE_ACCURACY_VALUE','Maximum Tolerance applied to model');
#10=(GEOMETRIC_REPRESENTATION_CONTEXT(3)GLOBAL_UNCERTAINTY_ASSIGNED_CONTEXT((#9))GLOBAL_UNIT_ASSIGNED_CONTEXT((#8,#5,#7))REPRESENTATION_CONTEXT('','root'));
#12=CARTESIAN_POINT('',(0.,0.,0.));
#13=DIRECTION('',(0.,0.,1.));
#14=DIRECTION('',(1.,0.,0.));
#15=AXIS2_PLACEMENT_3D('TS3D_PRODUCT_CSYS',#12,#13,#14);
#26=(NAMED_UNIT(*)PLANE_ANGLE_UNIT()SI_UNIT($,.RADIAN.));
#27=PLANE_ANGLE_MEASURE_WITH_UNIT(PLANE_ANGLE_MEASURE(0.0174532925),#26);
#28=(CONVERSION_BASED_UNIT('DEGREE',#27)NAMED_UNIT(#29)PLANE_ANGLE_UNIT());
#29=DIMENSIONAL_EXPONENTS(0.,0.,0.,0.,0.,0.,0.);
#30=(NAMED_UNIT(*)SI_UNIT($,.STERADIAN.)SOLID_ANGLE_UNIT());
#31=(LENGTH_UNIT()NAMED_UNIT(*)SI_UNIT(.MILLI.,.METRE.));
#32=UNCERTAINTY_MEASURE_WITH_UNIT(LENGTH_MEASURE(1.000000E-05),#31,'DISTANCE_ACCURACY_VALUE','Maximum Tolerance applied to model');
#33=(GEOMETRIC_REPRESENTATION_CONTEXT(3)GLOBAL_UNCERTAINTY_ASSIGNED_CONTEXT((#32))GLOBAL_UNIT_ASSIGNED_CONTEXT((#31,#28,#30))REPRESENTATION_CONTEXT('','0'));
#45=CARTESIAN_POINT('',(0.,0.,0.));
#46=DIRECTION('',(0.,0.,1.));
#47=DIRECTION('',(1.,0.,-0.));
#48=AXIS2_PLACEMENT_3D('',#45,#46,#47);
#49=ITEM_DEFINED_TRANSFORMATION('','',#48,#15);
#50=(REPRESENTATION_RELATIONSHIP('','',#35,#16)REPRESENTATION_RELATIONSHIP_WITH_TRANSFORMATION(#49)SHAPE_REPRESENTATION_RELATIONSHIP());
#51=NEXT_ASSEMBLY_USAGE_OCCURRENCE('TiltMechanism_1','TiltMechanism','TiltMechanism',#25,#44,$);
#52=PRODUCT_DEFINITION_SHAPE('','',#51);
#53=CONTEXT_DEPENDENT_SHAPE_REPRESENTATION(#50,#52);
#55=CARTESIAN_POINT('',(-93.765060444,24.5,37.448968675));
#56=CARTESIAN_POINT('',(-99.785957848,24.5,48.403364799));
#57=CARTESIAN_POINT('',(-121.998376244,24.5,21.931007129));
#58=CARTESIAN_POINT('',(-128.019273648,24.5,32.885403254));
#59=B_SPLINE_SURFACE_WITH_KNOTS('',1,1,((#55,#56),(#57,#58)),.UNSPECIFIED.,.F.,.F.,.U.,(2,2),(2,2),(-0.007216878,0.025),(-0.00625,0.00625),.UNSPECIFIED.);
#60=CARTESIAN_POINT('',(-105.116399764,24.5,42.552299769));
#61=VERTEX_POINT('',#60);
#62=CARTESIAN_POINT('',(-118.160778358,24.5,34.073990978));
#63=VERTEX_POINT('',#62);
#64=CARTESIAN_POINT('',(-105.116399764,24.5,42.552299769));
#65=CARTESIAN_POINT('',(-118.160778358,24.5,34.073990978));
#66=B_SPLINE_CURVE_WITH_KNOTS('',1,(#64,#65),.UNSPECIFIED.,.F.,.F.,(2,2),(-0.,0.015557555),.UNSPECIFIED.);
#67=EDGE_CURVE('',#61,#63,#66,.T.);
#68=ORIENTED_EDGE('',*,*,#67,.F.);
#69=CARTESIAN_POINT('',(-104.882218329,24.5,42.692501253));
#70=VERTEX_POINT('',#69);
#71=CARTESIAN_POINT('',(-105.116399764,24.5,42.552299769));
#72=CARTESIAN_POINT('',(-103.222065032,24.5,43.783539317));
#73=CARTESIAN_POINT('',(-101.261443883,24.5,42.660855209));
#74=CARTESIAN_POINT('',(-99.300822733,24.5,41.538171101));
#75=CARTESIAN_POINT('',(-99.403884305,24.5,39.281218906));
#76=CARTESIAN_POINT('',(-99.506945876,24.5,37.02426671));
#77=CARTESIAN_POINT('',(-101.561726689,24.5,36.084942107));
#78=(BOUNDED_CURVE()
B_SPLINE_CURVE(2,(#71,#72,#73,#74,#75,#76,#77),.UNSPECIFIED.,.F.,.F.)
B_SPLINE_CURVE_WITH_KNOTS((3,2,2,3),(6.14943248,7.245819949,8.342207418,9.438594887),.UNSPECIFIED.)
CURVE()
GEOMETRIC_REPRESENTATION_ITEM()
RATIONAL_B_SPLINE_CURVE((1.,0.853467243,1.,0.853467243,1.,0.853467243,1.))
REPRESENTATION_ITEM(''));
#79=EDGE_CURVE('',#61,#70,#78,.T.);
#80=ORIENTED_EDGE('',*,*,#79,.T.);
#81=CARTESIAN_POINT('',(-101.561726689,24.5,36.084942107));
#82=VERTEX_POINT('',#81);
#83=CARTESIAN_POINT('',(-105.116399764,24.5,42.552299769));
#84=CARTESIAN_POINT('',(-103.222065032,24.5,43.783539317));
#85=CARTESIAN_POINT('',(-101.261443883,24.5,42.660855209));
#86=CARTESIAN_POINT('',(-99.300822733,24.5,41.538171101));
#87=CARTESIAN_POINT('',(-99.403884305,24.5,39.281218906));
#88=CARTESIAN_POINT('',(-99.506945876,24.5,37.02426671));
#89=CARTESIAN_POINT('',(-101.561726689,24.5,36.084942107));
#90=(BOUNDED_CURVE()
B_SPLINE_CURVE(2,(#83,#84,#85,#86,#87,#88,#89),.UNSPECIFIED.,.F.,.F.)
B_SPLINE_CURVE_WITH_KNOTS((3,2,2,3),(6.14943248,7.245819949,8.342207418,9.438594887),.UNSPECIFIED.)
CURVE()
GEOMETRIC_REPRESENTATION_ITEM()
RATIONAL_B_SPLINE_CURVE((1.,0.853467243,1.,0.853467243,1.,0.853467243,1.))
REPRESENTATION_ITEM(''));
#91=EDGE_CURVE('',#70,#82,#90,.T.);
#92=ORIENTED_EDGE('',*,*,#91,.T.);
#93=CARTESIAN_POINT('',(-115.710936121,24.5,29.616758027));
#94=VERTEX_POINT('',#93);
#95=CARTESIAN_POINT('',(-101.561726689,24.5,36.084942107));
#96=CARTESIAN_POINT('',(-115.710936121,24.5,29.616758027));
#97=B_SPLINE_CURVE_WITH_KNOTS('',1,(#95,#96),.UNSPECIFIED.,.F.,.F.,(2,2),(-0.,0.015557555),.UNSPECIFIED.);
#98=EDGE_CURVE('',#82,#94,#97,.T.);
#99=ORIENTED_EDGE('',*,*,#98,.T.);
#100=CARTESIAN_POINT('',(-115.710936121,24.5,29.616758027));
#101=CARTESIAN_POINT('',(-117.864994732,24.5,28.63204947));
#102=CARTESIAN_POINT('',(-119.005816801,24.5,30.707656477));
#103=CARTESIAN_POINT('',(-120.14663887,24.5,32.783263483));
#104=CARTESIAN_POINT('',(-118.160778378,24.5,34.073991009));
#105=(BOUNDED_CURVE()
B_SPLINE_CURVE(2,(#100,#101,#102,#103,#104),.UNSPECIFIED.,.F.,.F.)
B_SPLINE_CURVE_WITH_KNOTS((3,2,3),(3.510823188,5.007834638,6.504846087),.UNSPECIFIED.)
CURVE()
GEOMETRIC_REPRESENTATION_ITEM()
RATIONAL_B_SPLINE_CURVE((1.,0.732706608,1.,0.732706608,1.))
REPRESENTATION_ITEM(''));
#106=EDGE_CURVE('',#94,#63,#105,.T.);
#107=ORIENTED_EDGE('',*,*,#106,.T.);
#108=EDGE_LOOP('',(#68,#80,#92,#99,#107));
#109=FACE_BOUND('',#108,.T.);
#110=CARTESIAN_POINT('',(-106.110481399,24.5,44.927198062));
#111=VERTEX_POINT('',#110);
#112=CARTESIAN_POINT('',(-128.019273648,24.5,32.885403254));
#113=VERTEX_POINT('',#112);
#114=CARTESIAN_POINT('',(-106.110481399,24.5,44.927198062));
#115=CARTESIAN_POINT('',(-128.019273648,24.5,32.885403254));
#116=B_SPLINE_CURVE_WITH_KNOTS('',1,(#114,#115),.UNSPECIFIED.,.F.,.F.,(2,2),(-0.,0.025),.UNSPECIFIED.);
#117=EDGE_CURVE('',#111,#113,#116,.T.);
#118=ORIENTED_EDGE('',*,*,#117,.T.);
#119=CARTESIAN_POINT('',(-119.531626884,24.5,30.418653894));
#120=VERTEX_POINT('',#119);
#121=CARTESIAN_POINT('',(-128.019273648,24.5,32.885403254));
#122=CARTESIAN_POINT('',(-122.542075586,24.5,35.895851956));
#123=CARTESIAN_POINT('',(-119.531626884,24.5,30.418653894));
#124=CARTESIAN_POINT('',(-116.521178182,24.5,24.941455832));
#125=CARTESIAN_POINT('',(-121.998376244,24.5,21.93100713));
#126=(BOUNDED_CURVE()
B_SPLINE_CURVE(2,(#121,#122,#123,#124,#125),.UNSPECIFIED.,.F.,.F.)
B_SPLINE_CURVE_WITH_KNOTS((3,2,3),(6.283185307,7.853981634,9.424777961),.UNSPECIFIED.)
CURVE()
GEOMETRIC_REPRESENTATION_ITEM()
RATIONAL_B_SPLINE_CURVE((1.,0.707106781,1.,0.707106781,1.))
REPRESENTATION_ITEM(''));
#127=EDGE_CURVE('',#113,#120,#126,.T.);
#128=ORIENTED_EDGE('',*,*,#127,.T.);
#129=CARTESIAN_POINT('',(-121.998376244,24.5,21.93100713));
#130=VERTEX_POINT('',#129);
#131=CARTESIAN_POINT('',(-128.019273648,24.5,32.885403254));
#132=CARTESIAN_POINT('',(-122.542075586,24.5,35.895851956));
#133=CARTESIAN_POINT('',(-119.531626884,24.5,30.418653894));
#134=CARTESIAN_POINT('',(-116.521178182,24.5,24.941455832));
#135=CARTESIAN_POINT('',(-121.998376244,24.5,21.93100713));
#136=(BOUNDED_CURVE()
B_SPLINE_CURVE(2,(#131,#132,#133,#134,#135),.UNSPECIFIED.,.F.,.F.)
B_SPLINE_CURVE_WITH_KNOTS((3,2,3),(6.283185307,7.853981634,9.424777961),.UNSPECIFIED.)
CURVE()
GEOMETRIC_REPRESENTATION_ITEM()
RATIONAL_B_SPLINE_CURVE((1.,0.707106781,1.,0.707106781,1.))
REPRESENTATION_ITEM(''));
#137=EDGE_CURVE('',#120,#130,#136,.T.);
#138=ORIENTED_EDGE('',*,*,#137,.T.);
#139=CARTESIAN_POINT('',(-100.089583995,24.5,33.972801938));
#140=VERTEX_POINT('',#139);
#141=CARTESIAN_POINT('',(-121.998376244,24.5,21.93100713));
#142=CARTESIAN_POINT('',(-100.089583995,24.5,33.972801938));
#143=B_SPLINE_CURVE_WITH_KNOTS('',1,(#141,#142),.UNSPECIFIED.,.F.,.F.,(2,2),(0.,0.025),.UNSPECIFIED.);
#144=EDGE_CURVE('',#130,#140,#143,.T.);
#145=ORIENTED_EDGE('',*,*,#144,.T.);
#146=CARTESIAN_POINT('',(-106.110481399,24.5,44.927198062));
#147=CARTESIAN_POINT('',(-102.948219624,24.5,46.665281431));
#148=CARTESIAN_POINT('',(-99.861864385,24.5,44.795724084));
#149=CARTESIAN_POINT('',(-96.775509146,24.5,42.926166737));
#150=CARTESIAN_POINT('',(-96.851415683,24.5,39.318526022));
#151=CARTESIAN_POINT('',(-96.92732222,24.5,35.710885306));
#152=CARTESIAN_POINT('',(-100.089583995,24.5,33.972801938));
#153=(BOUNDED_CURVE()
B_SPLINE_CURVE(2,(#146,#147,#148,#149,#150,#151,#152),.UNSPECIFIED.,.F.,.F.)
B_SPLINE_CURVE_WITH_KNOTS((3,2,2,3),(5.944031623,6.991229175,8.038426726,9.085624277),.UNSPECIFIED.)
CURVE()
GEOMETRIC_REPRESENTATION_ITEM()
RATIONAL_B_SPLINE_CURVE((1.,0.866025404,1.,0.866025404,1.,0.866025404,1.))
REPRESENTATION_ITEM(''));
#154=EDGE_CURVE('',#111,#140,#153,.T.);
#155=ORIENTED_EDGE('',*,*,#154,.F.);
#156=EDGE_LOOP('',(#118,#128,#138,#145,#155));
#157=FACE_BOUND('',#156,.T.);
#158=ADVANCED_FACE('',(#109,#157),#59,.F.);
#159=CARTESIAN_POINT('',(-100.089583995,28.5,33.972801938));
#160=CARTESIAN_POINT('',(-121.998376244,28.5,21.93100713));
#161=CARTESIAN_POINT('',(-100.089583995,24.5,33.972801938));
#162=CARTESIAN_POINT('',(-121.998376244,24.5,21.93100713));
#163=B_SPLINE_SURFACE_WITH_KNOTS('',1,1,((#159,#160),(#161,#162)),.UNSPECIFIED.,.F.,.F.,.U.,(2,2),(2,2),(-0.001,0.003),(-0.025,0.),.UNSPECIFIED.);
#164=ORIENTED_EDGE('',*,*,#144,.F.);
#165=CARTESIAN_POINT('',(-121.998376244,25.375,21.93100713));
#166=VERTEX_POINT('',#165);
#167=CARTESIAN_POINT('',(-121.998376244,25.375,21.93100713));
#168=CARTESIAN_POINT('',(-121.998376244,24.5,21.93100713));
#169=B_SPLINE_CURVE_WITH_KNOTS('',1,(#167,#168),.UNSPECIFIED.,.F.,.F.,(2,2),(0.002125,0.003),.UNSPECIFIED.);
#170=EDGE_CURVE('',#166,#130,#169,.T.);
#171=ORIENTED_EDGE('',*,*,#170,.F.);
#172=CARTESIAN_POINT('',(-121.998376244,28.5,21.93100713));
#173=VERTEX_POINT('',#172);
#174=CARTESIAN_POINT('',(-121.998376244,28.5,21.93100713));
#175=CARTESIAN_POINT('',(-121.998376244,25.375,21.93100713));
#176=B_SPLINE_CURVE_WITH_KNOTS('',1,(#174,#175),.UNSPECIFIED.,.F.,.F.,(2,2),(-0.001,0.002125),.UNSPECIFIED.);
#177=EDGE_CURVE('',#173,#166,#176,.T.);
#178=ORIENTED_EDGE('',*,*,#177,.F.);
#179=CARTESIAN_POINT('',(-100.089583995,28.5,33.972801938));
#180=VERTEX_POINT('',#179);
#181=CARTESIAN_POINT('',(-121.998376244,28.5,21.93100713));
#182=CARTESIAN_POINT('',(-100.089583995,28.5,33.972801938));
#183=B_SPLINE_CURVE_WITH_KNOTS('',1,(#181,#182),.UNSPECIFIED.,.F.,.F.,(2,2),(0.,0.025),.UNSPECIFIED.);
#184=EDGE_CURVE('',#173,#180,#183,.T.);
#185=ORIENTED_EDGE('',*,*,#184,.T.);
#186=CARTESIAN_POINT('',(-100.089583995,28.5,33.972801938));
#187=CARTESIAN_POINT('',(-100.089583995,24.5,33.972801938));
#188=B_SPLINE_CURVE_WITH_KNOTS('',1,(#186,#187),.UNSPECIFIED.,.F.,.F.,(2,2),(-0.001,0.003),.UNSPECIFIED.);
#189=EDGE_CURVE('',#180,#140,#188,.T.);
#190=ORIENTED_EDGE('',*,*,#189,.T.);
#191=EDGE_LOOP('',(#164,#171,#178,#185,#190));
#192=FACE_BOUND('',#191,.T.);
#193=ADVANCED_FACE('',(#192),#163,.T.);
#194=CARTESIAN_POINT('',(-128.019273648,28.5,32.885403254));
#195=CARTESIAN_POINT('',(-128.019273648,25.375,32.885403254));
#196=CARTESIAN_POINT('',(-137.506058975,28.5,27.671153148));
#197=CARTESIAN_POINT('',(-137.506058975,25.375,27.671153148));
#198=CARTESIAN_POINT('',(-128.246993258,28.5,22.062481108));
#199=CARTESIAN_POINT('',(-128.246993258,25.375,22.062481108));
#200=CARTESIAN_POINT('',(-125.16063802,28.5,20.192923761));
#201=CARTESIAN_POINT('',(-125.16063802,25.375,20.192923761));
#202=CARTESIAN_POINT('',(-121.998376244,28.5,21.93100713));
#203=CARTESIAN_POINT('',(-121.998376244,25.375,21.93100713));
#204=(BOUNDED_SURFACE()
B_SPLINE_SURFACE(2,1,((#194,#195),(#196,#197),(#198,#199),(#200,#201),(#202,#203)),.UNSPECIFIED.,.F.,.F.,.U.)
B_SPLINE_SURFACE_WITH_KNOTS((3,2,3),(2,2),(0.,2.094395102,3.141592654),(-0.001,0.002125),.UNSPECIFIED.)
GEOMETRIC_REPRESENTATION_ITEM()
RATIONAL_B_SPLINE_SURFACE(((1.,1.),(0.5,0.5),(1.,1.),(0.75,0.75),(0.75,0.75)))
REPRESENTATION_ITEM('')
SURFACE()
);
#205=ORIENTED_EDGE('',*,*,#177,.T.);
#206=CARTESIAN_POINT('',(-128.019273648,25.375,32.885403254));
#207=VERTEX_POINT('',#206);
#208=CARTESIAN_POINT('',(-121.998376244,25.375,21.93100713));
#209=CARTESIAN_POINT('',(-125.16063802,25.375,20.192923761));
#210=CARTESIAN_POINT('',(-128.246993258,25.375,22.062481108));
#211=CARTESIAN_POINT('',(-131.333348497,25.375,23.932038455));
#212=CARTESIAN_POINT('',(-131.25744196,25.375,27.53967917));
#213=CARTESIAN_POINT('',(-131.181535424,25.375,31.147319885));
#214=CARTESIAN_POINT('',(-128.019273648,25.375,32.885403254));
#215=(BOUNDED_CURVE()
B_SPLINE_CURVE(2,(#208,#209,#210,#211,#212,#213,#214),.UNSPECIFIED.,.F.,.F.)
B_SPLINE_CURVE_WITH_KNOTS((3,2,2,3),(3.141592654,4.188790205,5.235987756,6.283185307),.UNSPECIFIED.)
CURVE()
GEOMETRIC_REPRESENTATION_ITEM()
RATIONAL_B_SPLINE_CURVE((1.,0.866025404,1.,0.866025404,1.,0.866025404,1.))
REPRESENTATION_ITEM(''));
#216=EDGE_CURVE('',#166,#207,#215,.T.);
#217=ORIENTED_EDGE('',*,*,#216,.T.);
#218=CARTESIAN_POINT('',(-128.019273648,28.5,32.885403254));
#219=VERTEX_POINT('',#218);
#220=CARTESIAN_POINT('',(-128.019273648,28.5,32.885403254));
#221=CARTESIAN_POINT('',(-128.019273648,25.375,32.885403254));
#222=B_SPLINE_CURVE_WITH_KNOTS('',1,(#220,#221),.UNSPECIFIED.,.F.,.F.,(2,2),(-0.001,0.002125),.UNSPECIFIED.);
#223=EDGE_CURVE('',#219,#207,#222,.T.);
#224=ORIENTED_EDGE('',*,*,#223,.F.);
#225=CARTESIAN_POINT('',(-121.998376244,28.5,21.93100713));
#226=CARTESIAN_POINT('',(-125.16063802,28.5,20.192923761));
#227=CARTESIAN_POINT('',(-128.246993258,28.5,22.062481108));
#228=CARTESIAN_POINT('',(-131.333348497,28.5,23.932038455));
#229=CARTESIAN_POINT('',(-131.25744196,28.5,27.53967917));
#230=CARTESIAN_POINT('',(-131.181535424,28.5,31.147319885));
#231=CARTESIAN_POINT('',(-128.019273648,28.5,32.885403254));
#232=(BOUNDED_CURVE()
B_SPLINE_CURVE(2,(#225,#226,#227,#228,#229,#230,#231),.UNSPECIFIED.,.F.,.F.)
B_SPLINE_CURVE_WITH_KNOTS((3,2,2,3),(4.71238898,5.759586532,6.806784083,7.853981634),.UNSPECIFIED.)
CURVE()
GEOMETRIC_REPRESENTATION_ITEM()
RATIONAL_B_SPLINE_CURVE((1.,0.866025404,1.,0.866025404,1.,0.866025404,1.))
REPRESENTATION_ITEM(''));
#233=EDGE_CURVE('',#173,#219,#232,.T.);
#234=ORIENTED_EDGE('',*,*,#233,.F.);
#235=EDGE_LOOP('',(#205,#217,#224,#234));
#236=FACE_BOUND('',#235,.T.);
#237=ADVANCED_FACE('',(#236),#204,.T.);
#238=CARTESIAN_POINT('',(-106.110481399,24.5,44.927198062));
#239=CARTESIAN_POINT('',(-128.019273648,24.5,32.885403254));
#240=CARTESIAN_POINT('',(-106.110481399,28.5,44.927198062));
#241=CARTESIAN_POINT('',(-128.019273648,28.5,32.885403254));
#242=B_SPLINE_SURFACE_WITH_KNOTS('',1,1,((#238,#239),(#240,#241)),.UNSPECIFIED.,.F.,.F.,.U.,(2,2),(2,2),(-0.003,0.001),(-0.,0.025),.UNSPECIFIED.);
#243=ORIENTED_EDGE('',*,*,#117,.F.);
#244=CARTESIAN_POINT('',(-106.110481399,28.5,44.927198062));
#245=VERTEX_POINT('',#244);
#246=CARTESIAN_POINT('',(-106.110481399,28.5,44.927198062));
#247=CARTESIAN_POINT('',(-106.110481399,24.5,44.927198062));
#248=B_SPLINE_CURVE_WITH_KNOTS('',1,(#246,#247),.UNSPECIFIED.,.F.,.F.,(2,2),(-0.001,0.003),.UNSPECIFIED.);
#249=EDGE_CURVE('',#245,#111,#248,.T.);
#250=ORIENTED_EDGE('',*,*,#249,.F.);
#251=CARTESIAN_POINT('',(-106.110481399,28.5,44.927198062));
#252=CARTESIAN_POINT('',(-128.019273648,28.5,32.885403254));
#253=B_SPLINE_CURVE_WITH_KNOTS('',1,(#251,#252),.UNSPECIFIED.,.F.,.F.,(2,2),(-0.,0.025),.UNSPECIFIED.);
#254=EDGE_CURVE('',#245,#219,#253,.T.);
#255=ORIENTED_EDGE('',*,*,#254,.T.);
#256=ORIENTED_EDGE('',*,*,#223,.T.);
#257=CARTESIAN_POINT('',(-128.019273648,25.375,32.885403254));
#258=CARTESIAN_POINT('',(-128.019273648,24.5,32.885403254));
#259=B_SPLINE_CURVE_WITH_KNOTS('',1,(#257,#258),.UNSPECIFIED.,.F.,.F.,(2,2),(0.002125,0.003),.UNSPECIFIED.);
#260=EDGE_CURVE('',#207,#113,#259,.T.);
#261=ORIENTED_EDGE('',*,*,#260,.T.);
#262=EDGE_LOOP('',(#243,#250,#255,#256,#261));
#263=FACE_BOUND('',#262,.T.);
#264=ADVANCED_FACE('',(#263),#242,.T.);
#265=CARTESIAN_POINT('',(-100.089583995,28.5,33.972801938));
#266=CARTESIAN_POINT('',(-100.089583995,24.5,33.972801938));
#267=CARTESIAN_POINT('',(-96.92732222,28.5,35.710885306));
#268=CARTESIAN_POINT('',(-96.92732222,24.5,35.710885306));
#269=CARTESIAN_POINT('',(-96.851415683,28.5,39.318526022));
#270=CARTESIAN_POINT('',(-96.851415683,24.5,39.318526022));
#271=CARTESIAN_POINT('',(-96.623696073,28.5,50.141448168));
#272=CARTESIAN_POINT('',(-96.623696073,24.5,50.141448168));
#273=CARTESIAN_POINT('',(-106.110481399,28.5,44.927198062));
#274=CARTESIAN_POINT('',(-106.110481399,24.5,44.927198062));
#275=(BOUNDED_SURFACE()
B_SPLINE_SURFACE(2,1,((#265,#266),(#267,#268),(#269,#270),(#271,#272),(#273,#274)),.UNSPECIFIED.,.F.,.F.,.U.)
B_SPLINE_SURFACE_WITH_KNOTS((3,2,3),(2,2),(3.141592654,4.188790205,6.283185307),(-0.001,0.003),.UNSPECIFIED.)
GEOMETRIC_REPRESENTATION_ITEM()
RATIONAL_B_SPLINE_SURFACE(((0.75,0.75),(0.75,0.75),(1.,1.),(0.5,0.5),(1.,1.)))
REPRESENTATION_ITEM('')
SURFACE()
);
#276=ORIENTED_EDGE('',*,*,#154,.T.);
#277=ORIENTED_EDGE('',*,*,#189,.F.);
#278=CARTESIAN_POINT('',(-106.110481399,28.5,44.927198062));
#279=CARTESIAN_POINT('',(-102.948219624,28.5,46.665281431));
#280=CARTESIAN_POINT('',(-99.861864385,28.5,44.795724084));
#281=CARTESIAN_POINT('',(-96.775509146,28.5,42.926166737));
#282=CARTESIAN_POINT('',(-96.851415683,28.5,39.318526022));
#283=CARTESIAN_POINT('',(-96.92732222,28.5,35.710885306));
#284=CARTESIAN_POINT('',(-100.089583995,28.5,33.972801938));
#285=(BOUNDED_CURVE()
B_SPLINE_CURVE(2,(#278,#279,#280,#281,#282,#283,#284),.UNSPECIFIED.,.F.,.F.)
B_SPLINE_CURVE_WITH_KNOTS((3,2,2,3),(1.570796327,2.617993878,3.665191429,4.71238898),.UNSPECIFIED.)
CURVE()
GEOMETRIC_REPRESENTATION_ITEM()
RATIONAL_B_SPLINE_CURVE((1.,0.866025404,1.,0.866025404,1.,0.866025404,1.))
REPRESENTATION_ITEM(''));
#286=EDGE_CURVE('',#245,#180,#285,.T.);
#287=ORIENTED_EDGE('',*,*,#286,.F.);
#288=ORIENTED_EDGE('',*,*,#249,.T.);
#289=EDGE_LOOP('',(#276,#277,#287,#288));
#290=FACE_BOUND('',#289,.T.);
#291=ADVANCED_FACE('',(#290),#275,.T.);
#292=CARTESIAN_POINT('',(-126.694676219,28.5,30.475436106));
#293=CARTESIAN_POINT('',(-126.694676219,25.375,30.475436106));
#294=CARTESIAN_POINT('',(-132.007276002,28.5,27.555456047));
#295=CARTESIAN_POINT('',(-132.007276002,25.375,27.555456047));
#296=CARTESIAN_POINT('',(-126.822199201,28.5,24.414599705));
#297=CARTESIAN_POINT('',(-126.822199201,25.375,24.414599705));
#298=CARTESIAN_POINT('',(-121.6371224,28.5,21.273743362));
#299=CARTESIAN_POINT('',(-121.6371224,25.375,21.273743362));
#300=CARTESIAN_POINT('',(-121.509599418,28.5,27.334579764));
#301=CARTESIAN_POINT('',(-121.509599418,25.375,27.334579764));
#302=CARTESIAN_POINT('',(-121.382076436,28.5,33.395416166));
#303=CARTESIAN_POINT('',(-121.382076436,25.375,33.395416166));
#304=CARTESIAN_POINT('',(-126.694676219,28.5,30.475436106));
#305=CARTESIAN_POINT('',(-126.694676219,25.375,30.475436106));
#306=(BOUNDED_SURFACE()
B_SPLINE_SURFACE(2,1,((#292,#293),(#294,#295),(#296,#297),(#298,#299),(#300,#301),(#302,#303),(#304,#305)),.UNSPECIFIED.,.T.,.F.,.U.)
B_SPLINE_SURFACE_WITH_KNOTS((3,2,2,3),(2,2),(0.,2.094395102,4.188790205,6.283185307),(-0.001,0.002125),.UNSPECIFIED.)
GEOMETRIC_REPRESENTATION_ITEM()
RATIONAL_B_SPLINE_SURFACE(((1.,1.),(0.5,0.5),(1.,1.),(0.5,0.5),(1.,1.),(0.5,0.5),(1.,1.)))
REPRESENTATION_ITEM('')
SURFACE()
);
#307=CARTESIAN_POINT('',(-126.694676219,25.375,30.475436106));
#308=VERTEX_POINT('',#307);
#309=CARTESIAN_POINT('',(-126.694676219,28.5,30.475436106));
#310=VERTEX_POINT('',#309);
#311=CARTESIAN_POINT('',(-126.694676219,25.375,30.475436106));
#312=CARTESIAN_POINT('',(-126.694676219,28.5,30.475436106));
#313=B_SPLINE_CURVE_WITH_KNOTS('',1,(#311,#312),.UNSPECIFIED.,.F.,.F.,(2,2),(-0.001,0.002125),.UNSPECIFIED.);
#314=EDGE_CURVE('',#308,#310,#313,.T.);
#315=ORIENTED_EDGE('',*,*,#314,.F.);
#316=CARTESIAN_POINT('',(-128.076055861,25.375,25.722353919));
#317=VERTEX_POINT('',#316);
#318=CARTESIAN_POINT('',(-128.076055861,25.375,25.722353919));
#319=CARTESIAN_POINT('',(-126.390204588,25.375,22.655123004));
#320=CARTESIAN_POINT('',(-123.322973673,25.375,24.340974277));
#321=CARTESIAN_POINT('',(-120.255742758,25.375,26.02682555));
#322=CARTESIAN_POINT('',(-121.941594031,25.375,29.094056465));
#323=CARTESIAN_POINT('',(-123.627445304,25.375,32.16128738));
#324=CARTESIAN_POINT('',(-126.694676219,25.375,30.475436106));
#325=CARTESIAN_POINT('',(-129.761907134,25.375,28.789584833));
#326=CARTESIAN_POINT('',(-128.076055861,25.375,25.722353919));
#327=(BOUNDED_CURVE()
B_SPLINE_CURVE(2,(#318,#319,#320,#321,#322,#323,#324,#325,#326),.UNSPECIFIED.,.T.,.F.)
B_SPLINE_CURVE_WITH_KNOTS((3,2,2,2,3),(0.,1.570796327,3.141592654,4.71238898,6.283185307),.UNSPECIFIED.)
CURVE()
GEOMETRIC_REPRESENTATION_ITEM()
RATIONAL_B_SPLINE_CURVE((1.,0.707106781,1.,0.707106781,1.,0.707106781,1.,0.707106781,1.))
REPRESENTATION_ITEM(''));
#328=EDGE_CURVE('',#308,#317,#327,.T.);
#329=ORIENTED_EDGE('',*,*,#328,.T.);
#330=CARTESIAN_POINT('',(-128.076055861,25.375,25.722353919));
#331=CARTESIAN_POINT('',(-126.390204588,25.375,22.655123004));
#332=CARTESIAN_POINT('',(-123.322973673,25.375,24.340974277));
#333=CARTESIAN_POINT('',(-120.255742758,25.375,26.02682555));
#334=CARTESIAN_POINT('',(-121.941594031,25.375,29.094056465));
#335=CARTESIAN_POINT('',(-123.627445304,25.375,32.16128738));
#336=CARTESIAN_POINT('',(-126.694676219,25.375,30.475436106));
#337=CARTESIAN_POINT('',(-129.761907134,25.375,28.789584833));
#338=CARTESIAN_POINT('',(-128.076055861,25.375,25.722353919));
#339=(BOUNDED_CURVE()
B_SPLINE_CURVE(2,(#330,#331,#332,#333,#334,#335,#336,#337,#338),.UNSPECIFIED.,.T.,.F.)
B_SPLINE_CURVE_WITH_KNOTS((3,2,2,2,3),(0.,1.570796327,3.141592654,4.71238898,6.283185307),.UNSPECIFIED.)
CURVE()
GEOMETRIC_REPRESENTATION_ITEM()
RATIONAL_B_SPLINE_CURVE((1.,0.707106781,1.,0.707106781,1.,0.707106781,1.,0.707106781,1.))
REPRESENTATION_ITEM(''));
#340=EDGE_CURVE('',#317,#308,#339,.T.);
#341=ORIENTED_EDGE('',*,*,#340,.T.);
#342=ORIENTED_EDGE('',*,*,#314,.T.);
#343=CARTESIAN_POINT('',(-128.076055861,28.5,25.722353919));
#344=VERTEX_POINT('',#343);
#345=CARTESIAN_POINT('',(-128.076055861,28.5,25.722353919));
#346=CARTESIAN_POINT('',(-126.390204588,28.5,22.655123004));
#347=CARTESIAN_POINT('',(-123.322973673,28.5,24.340974277));
#348=CARTESIAN_POINT('',(-120.255742758,28.5,26.02682555));
#349=CARTESIAN_POINT('',(-121.941594031,28.5,29.094056465));
#350=CARTESIAN_POINT('',(-123.627445304,28.5,32.16128738));
#351=CARTESIAN_POINT('',(-126.694676219,28.5,30.475436106));
#352=CARTESIAN_POINT('',(-129.761907134,28.5,28.789584833));
#353=CARTESIAN_POINT('',(-128.076055861,28.5,25.722353919));
#354=(BOUNDED_CURVE()
B_SPLINE_CURVE(2,(#345,#346,#347,#348,#349,#350,#351,#352,#353),.UNSPECIFIED.,.T.,.F.)
B_SPLINE_CURVE_WITH_KNOTS((3,2,2,2,3),(0.,1.570796327,3.141592654,4.71238898,6.283185307),.UNSPECIFIED.)
CURVE()
GEOMETRIC_REPRESENTATION_ITEM()
RATIONAL_B_SPLINE_CURVE((1.,0.707106781,1.,0.707106781,1.,0.707106781,1.,0.707106781,1.))
REPRESENTATION_ITEM(''));
#355=EDGE_CURVE('',#344,#310,#354,.T.);
#356=ORIENTED_EDGE('',*,*,#355,.F.);
#357=CARTESIAN_POINT('',(-128.076055861,28.5,25.722353919));
#358=CARTESIAN_POINT('',(-126.390204588,28.5,22.655123004));
#359=CARTESIAN_POINT('',(-123.322973673,28.5,24.340974277));
#360=CARTESIAN_POINT('',(-120.255742758,28.5,26.02682555));
#361=CARTESIAN_POINT('',(-121.941594031,28.5,29.094056465));
#362=CARTESIAN_POINT('',(-123.627445304,28.5,32.16128738));
#363=CARTESIAN_POINT('',(-126.694676219,28.5,30.475436106));
#364=CARTESIAN_POINT('',(-129.761907134,28.5,28.789584833));
#365=CARTESIAN_POINT('',(-128.076055861,28.5,25.722353919));
#366=(BOUNDED_CURVE()
B_SPLINE_CURVE(2,(#357,#358,#359,#360,#361,#362,#363,#364,#365),.UNSPECIFIED.,.T.,.F.)
B_SPLINE_CURVE_WITH_KNOTS((3,2,2,2,3),(0.,1.570796327,3.141592654,4.71238898,6.283185307),.UNSPECIFIED.)
CURVE()
GEOMETRIC_REPRESENTATION_ITEM()
RATIONAL_B_SPLINE_CURVE((1.,0.707106781,1.,0.707106781,1.,0.707106781,1.,0.707106781,1.))
REPRESENTATION_ITEM(''));
#367=EDGE_CURVE('',#310,#344,#366,.T.);
#368=ORIENTED_EDGE('',*,*,#367,.F.);
#369=EDGE_LOOP('',(#315,#329,#341,#342,#356,#368));
#370=FACE_BOUND('',#369,.T.);
#371=ADVANCED_FACE('',(#370),#306,.F.);
#372=CARTESIAN_POINT('',(-93.765060444,28.5,37.448968675));
#373=CARTESIAN_POINT('',(-99.785957848,28.5,48.403364799));
#374=CARTESIAN_POINT('',(-128.322899795,28.5,18.454840392));
#375=CARTESIAN_POINT('',(-134.343797199,28.5,29.409236517));
#376=B_SPLINE_SURFACE_WITH_KNOTS('',1,1,((#372,#373),(#374,#375)),.UNSPECIFIED.,.F.,.F.,.U.,(2,2),(2,2),(-0.007216878,0.032216878),(-0.00625,0.00625),.UNSPECIFIED.);
#377=CARTESIAN_POINT('',(-104.599804803,28.5,39.423853671));
#378=VERTEX_POINT('',#377);
#379=CARTESIAN_POINT('',(-102.377525009,28.5,38.135472465));
#380=VERTEX_POINT('',#379);
#381=CARTESIAN_POINT('',(-104.599804803,28.5,39.423853671));
#382=CARTESIAN_POINT('',(-104.573658474,28.5,37.924081565));
#383=CARTESIAN_POINT('',(-103.073886369,28.5,37.950227894));
#384=CARTESIAN_POINT('',(-101.574114263,28.5,37.976374223));
#385=CARTESIAN_POINT('',(-101.600260592,28.5,39.476146329));
#386=CARTESIAN_POINT('',(-101.62640692,28.5,40.975918435));
#387=CARTESIAN_POINT('',(-103.126179026,28.5,40.949772106));
#388=CARTESIAN_POINT('',(-104.625951132,28.5,40.923625777));
#389=CARTESIAN_POINT('',(-104.599804803,28.5,39.423853671));
#390=(BOUNDED_CURVE()
B_SPLINE_CURVE(2,(#381,#382,#383,#384,#385,#386,#387,#388,#389),.UNSPECIFIED.,.T.,.F.)
B_SPLINE_CURVE_WITH_KNOTS((3,2,2,2,3),(0.,1.570796327,3.141592654,4.71238898,6.283185307),.UNSPECIFIED.)
CURVE()
GEOMETRIC_REPRESENTATION_ITEM()
RATIONAL_B_SPLINE_CURVE((1.,0.707106781,1.,0.707106781,1.,0.707106781,1.,0.707106781,1.))
REPRESENTATION_ITEM(''));
#391=EDGE_CURVE('',#378,#380,#390,.T.);
#392=ORIENTED_EDGE('',*,*,#391,.T.);
#393=CARTESIAN_POINT('',(-104.599804803,28.5,39.423853671));
#394=CARTESIAN_POINT('',(-104.573658474,28.5,37.924081565));
#395=CARTESIAN_POINT('',(-103.073886369,28.5,37.950227894));
#396=CARTESIAN_POINT('',(-101.574114263,28.5,37.976374223));
#397=CARTESIAN_POINT('',(-101.600260592,28.5,39.476146329));
#398=CARTESIAN_POINT('',(-101.62640692,28.5,40.975918435));
#399=CARTESIAN_POINT('',(-103.126179026,28.5,40.949772106));
#400=CARTESIAN_POINT('',(-104.625951132,28.5,40.923625777));
#401=CARTESIAN_POINT('',(-104.599804803,28.5,39.423853671));
#402=(BOUNDED_CURVE()
B_SPLINE_CURVE(2,(#393,#394,#395,#396,#397,#398,#399,#400,#401),.UNSPECIFIED.,.T.,.F.)
B_SPLINE_CURVE_WITH_KNOTS((3,2,2,2,3),(0.,1.570796327,3.141592654,4.71238898,6.283185307),.UNSPECIFIED.)
CURVE()
GEOMETRIC_REPRESENTATION_ITEM()
RATIONAL_B_SPLINE_CURVE((1.,0.707106781,1.,0.707106781,1.,0.707106781,1.,0.707106781,1.))
REPRESENTATION_ITEM(''));
#403=EDGE_CURVE('',#380,#378,#402,.T.);
#404=ORIENTED_EDGE('',*,*,#403,.T.);
#405=EDGE_LOOP('',(#392,#404));
#406=FACE_BOUND('',#405,.T.);
#407=ORIENTED_EDGE('',*,*,#184,.F.);
#408=ORIENTED_EDGE('',*,*,#233,.T.);
#409=ORIENTED_EDGE('',*,*,#254,.F.);
#410=ORIENTED_EDGE('',*,*,#286,.T.);
#411=EDGE_LOOP('',(#407,#408,#409,#410));
#412=FACE_BOUND('',#411,.T.);
#413=ORIENTED_EDGE('',*,*,#355,.T.);
#414=ORIENTED_EDGE('',*,*,#367,.T.);
#415=EDGE_LOOP('',(#413,#414));
#416=FACE_BOUND('',#415,.T.);
#417=ADVANCED_FACE('',(#406,#412,#416),#376,.T.);
#418=CARTESIAN_POINT('',(-115.710936121,24.5,29.616758027));
#419=CARTESIAN_POINT('',(-115.710936121,27.7,29.616758027));
#420=CARTESIAN_POINT('',(-101.561726689,24.5,36.084942107));
#421=CARTESIAN_POINT('',(-101.561726689,27.7,36.084942107));
#422=B_SPLINE_SURFACE_WITH_KNOTS('',1,1,((#418,#419),(#420,#421)),.UNSPECIFIED.,.F.,.F.,.U.,(2,2),(2,2),(-0.015557555,0.),(-0.0021,0.0011),.UNSPECIFIED.);
#423=ORIENTED_EDGE('',*,*,#98,.F.);
#424=CARTESIAN_POINT('',(-101.561726689,27.7,36.084942107));
#425=VERTEX_POINT('',#424);
#426=CARTESIAN_POINT('',(-101.561726689,27.7,36.084942107));
#427=CARTESIAN_POINT('',(-101.561726689,24.5,36.084942107));
#428=B_SPLINE_CURVE_WITH_KNOTS('',1,(#426,#427),.UNSPECIFIED.,.F.,.F.,(2,2),(-0.,0.0032),.UNSPECIFIED.);
#429=EDGE_CURVE('',#425,#82,#428,.T.);
#430=ORIENTED_EDGE('',*,*,#429,.F.);
#431=CARTESIAN_POINT('',(-105.872271455,27.7,34.114415261));
#432=VERTEX_POINT('',#431);
#433=CARTESIAN_POINT('',(-101.561726689,27.7,36.084942107));
#434=CARTESIAN_POINT('',(-105.872271455,27.7,34.114415261));
#435=B_SPLINE_CURVE_WITH_KNOTS('',1,(#433,#434),.UNSPECIFIED.,.F.,.F.,(2,2),(-0.,0.004739596),.UNSPECIFIED.);
#436=EDGE_CURVE('',#425,#432,#435,.T.);
#437=ORIENTED_EDGE('',*,*,#436,.T.);
#438=CARTESIAN_POINT('',(-105.872271455,26.6,34.114415261));
#439=VERTEX_POINT('',#438);
#440=CARTESIAN_POINT('',(-105.872271455,27.7,34.114415261));
#441=CARTESIAN_POINT('',(-105.872271455,26.6,34.114415261));
#442=B_SPLINE_CURVE_WITH_KNOTS('',1,(#440,#441),.UNSPECIFIED.,.F.,.F.,(2,2),(-0.,0.0011),.UNSPECIFIED.);
#443=EDGE_CURVE('',#432,#439,#442,.T.);
#444=ORIENTED_EDGE('',*,*,#443,.T.);
#445=CARTESIAN_POINT('',(-115.710936121,26.6,29.616758027));
#446=VERTEX_POINT('',#445);
#447=CARTESIAN_POINT('',(-105.872271455,26.6,34.114415261));
#448=CARTESIAN_POINT('',(-115.710936121,26.6,29.616758027));
#449=B_SPLINE_CURVE_WITH_KNOTS('',1,(#447,#448),.UNSPECIFIED.,.F.,.F.,(2,2),(0.004739596,0.015557555),.UNSPECIFIED.);
#450=EDGE_CURVE('',#439,#446,#449,.T.);
#451=ORIENTED_EDGE('',*,*,#450,.T.);
#452=CARTESIAN_POINT('',(-115.710936121,26.6,29.616758027));
#453=CARTESIAN_POINT('',(-115.710936121,24.5,29.616758027));
#454=B_SPLINE_CURVE_WITH_KNOTS('',1,(#452,#453),.UNSPECIFIED.,.F.,.F.,(2,2),(-0.,0.0021),.UNSPECIFIED.);
#455=EDGE_CURVE('',#446,#94,#454,.T.);
#456=ORIENTED_EDGE('',*,*,#455,.T.);
#457=EDGE_LOOP('',(#423,#430,#437,#444,#451,#456));
#458=FACE_BOUND('',#457,.T.);
#459=ADVANCED_FACE('',(#458),#422,.T.);
#460=CARTESIAN_POINT('',(-118.160778378,26.6,34.073991009));
#461=CARTESIAN_POINT('',(-118.160778378,24.5,34.073991009));
#462=CARTESIAN_POINT('',(-121.567335901,26.6,31.859868929));
#463=CARTESIAN_POINT('',(-121.567335901,24.5,31.859868929));
#464=CARTESIAN_POINT('',(-118.092292664,26.6,29.754864122));
#465=CARTESIAN_POINT('',(-118.092292664,24.5,29.754864122));
#466=CARTESIAN_POINT('',(-116.938154836,26.6,29.055746008));
#467=CARTESIAN_POINT('',(-116.938154836,24.5,29.055746008));
#468=CARTESIAN_POINT('',(-115.71093612,26.6,29.616758028));
#469=CARTESIAN_POINT('',(-115.71093612,24.5,29.616758028));
#470=(BOUNDED_SURFACE()
B_SPLINE_SURFACE(2,1,((#460,#461),(#462,#463),(#464,#465),(#466,#467),(#468,#469)),.UNSPECIFIED.,.F.,.F.,.U.)
B_SPLINE_SURFACE_WITH_KNOTS((3,2,3),(2,2),(0.087398718,2.094395102,3.074646798),(-0.,0.0021),.UNSPECIFIED.)
GEOMETRIC_REPRESENTATION_ITEM()
RATIONAL_B_SPLINE_SURFACE(((0.960011564,0.960011564),(0.520864907,0.520864907),(1.,1.),(0.765982146,0.765982146),(0.751021716,0.751021716)))
REPRESENTATION_ITEM('')
SURFACE()
);
#471=ORIENTED_EDGE('',*,*,#106,.F.);
#472=ORIENTED_EDGE('',*,*,#455,.F.);
#473=CARTESIAN_POINT('',(-118.160778358,26.6,34.073990978));
#474=VERTEX_POINT('',#473);
#475=CARTESIAN_POINT('',(-115.710936121,26.6,29.616758027));
#476=CARTESIAN_POINT('',(-117.864994732,26.6,28.63204947));
#477=CARTESIAN_POINT('',(-119.005816801,26.6,30.707656477));
#478=CARTESIAN_POINT('',(-120.14663887,26.6,32.783263483));
#479=CARTESIAN_POINT('',(-118.160778378,26.6,34.073991009));
#480=(BOUNDED_CURVE()
B_SPLINE_CURVE(2,(#475,#476,#477,#478,#479),.UNSPECIFIED.,.F.,.F.)
B_SPLINE_CURVE_WITH_KNOTS((3,2,3),(3.510823188,5.007834638,6.504846087),.UNSPECIFIED.)
CURVE()
GEOMETRIC_REPRESENTATION_ITEM()
RATIONAL_B_SPLINE_CURVE((1.,0.732706608,1.,0.732706608,1.))
REPRESENTATION_ITEM(''));
#481=EDGE_CURVE('',#446,#474,#480,.T.);
#482=ORIENTED_EDGE('',*,*,#481,.T.);
#483=CARTESIAN_POINT('',(-118.160778358,26.6,34.073990978));
#484=CARTESIAN_POINT('',(-118.160778358,24.5,34.073990978));
#485=B_SPLINE_CURVE_WITH_KNOTS('',1,(#483,#484),.UNSPECIFIED.,.F.,.F.,(2,2),(0.,0.0021),.UNSPECIFIED.);
#486=EDGE_CURVE('',#474,#63,#485,.T.);
#487=ORIENTED_EDGE('',*,*,#486,.T.);
#488=EDGE_LOOP('',(#471,#472,#482,#487));
#489=FACE_BOUND('',#488,.T.);
#490=ADVANCED_FACE('',(#489),#470,.F.);
#491=CARTESIAN_POINT('',(-118.160778358,24.5,34.073990978));
#492=CARTESIAN_POINT('',(-118.160778358,27.7,34.073990978));
#493=CARTESIAN_POINT('',(-105.116399764,24.5,42.552299769));
#494=CARTESIAN_POINT('',(-105.116399764,27.7,42.552299769));
#495=B_SPLINE_SURFACE_WITH_KNOTS('',1,1,((#491,#492),(#493,#494)),.UNSPECIFIED.,.F.,.F.,.U.,(2,2),(2,2),(-0.015557555,0.),(-0.0021,0.0011),.UNSPECIFIED.);
#496=ORIENTED_EDGE('',*,*,#67,.T.);
#497=ORIENTED_EDGE('',*,*,#486,.F.);
#498=CARTESIAN_POINT('',(-109.090358744,26.6,39.969390118));
#499=VERTEX_POINT('',#498);
#500=CARTESIAN_POINT('',(-109.090358744,26.6,39.969390118));
#501=CARTESIAN_POINT('',(-118.160778358,26.6,34.073990978));
#502=B_SPLINE_CURVE_WITH_KNOTS('',1,(#500,#501),.UNSPECIFIED.,.F.,.F.,(2,2),(0.004739596,0.015557555),.UNSPECIFIED.);
#503=EDGE_CURVE('',#499,#474,#502,.T.);
#504=ORIENTED_EDGE('',*,*,#503,.F.);
#505=CARTESIAN_POINT('',(-109.090358744,27.7,39.969390118));
#506=VERTEX_POINT('',#505);
#507=CARTESIAN_POINT('',(-109.090358744,27.7,39.969390118));
#508=CARTESIAN_POINT('',(-109.090358744,26.6,39.969390118));
#509=B_SPLINE_CURVE_WITH_KNOTS('',1,(#507,#508),.UNSPECIFIED.,.F.,.F.,(2,2),(0.,0.0011),.UNSPECIFIED.);
#510=EDGE_CURVE('',#506,#499,#509,.T.);
#511=ORIENTED_EDGE('',*,*,#510,.F.);
#512=CARTESIAN_POINT('',(-105.116399764,27.7,42.552299769));
#513=VERTEX_POINT('',#512);
#514=CARTESIAN_POINT('',(-105.116399764,27.7,42.552299769));
#515=CARTESIAN_POINT('',(-109.090358744,27.7,39.969390118));
#516=B_SPLINE_CURVE_WITH_KNOTS('',1,(#514,#515),.UNSPECIFIED.,.F.,.F.,(2,2),(-0.,0.004739596),.UNSPECIFIED.);
#517=EDGE_CURVE('',#513,#506,#516,.T.);
#518=ORIENTED_EDGE('',*,*,#517,.F.);
#519=CARTESIAN_POINT('',(-105.116399764,27.7,42.552299769));
#520=CARTESIAN_POINT('',(-105.116399764,24.5,42.552299769));
#521=B_SPLINE_CURVE_WITH_KNOTS('',1,(#519,#520),.UNSPECIFIED.,.F.,.F.,(2,2),(-0.,0.0032),.UNSPECIFIED.);
#522=EDGE_CURVE('',#513,#61,#521,.T.);
#523=ORIENTED_EDGE('',*,*,#522,.T.);
#524=EDGE_LOOP('',(#496,#497,#504,#511,#518,#523));
#525=FACE_BOUND('',#524,.T.);
#526=ADVANCED_FACE('',(#525),#495,.F.);
#527=CARTESIAN_POINT('',(-105.872271455,26.6,34.114415261));
#528=CARTESIAN_POINT('',(-109.090358744,26.6,39.969390118));
#529=CARTESIAN_POINT('',(-117.39677315,26.6,27.780169033));
#530=CARTESIAN_POINT('',(-120.614860438,26.6,33.63514389));
#531=B_SPLINE_SURFACE_WITH_KNOTS('',1,1,((#527,#528),(#529,#530)),.UNSPECIFIED.,.F.,.F.,.U.,(2,2),(2,2),(0.004999457,0.018150001),(-0.003340539,0.003340539),.UNSPECIFIED.);
#532=CARTESIAN_POINT('',(-105.872271455,26.6,34.114415261));
#533=CARTESIAN_POINT('',(-109.090358744,26.6,39.969390118));
#534=B_SPLINE_CURVE_WITH_KNOTS('',1,(#532,#533),.UNSPECIFIED.,.F.,.F.,(2,2),(0.000050053,0.006731132),.UNSPECIFIED.);
#535=EDGE_CURVE('',#439,#499,#534,.T.);
#536=ORIENTED_EDGE('',*,*,#535,.T.);
#537=ORIENTED_EDGE('',*,*,#503,.T.);
#538=ORIENTED_EDGE('',*,*,#481,.F.);
#539=ORIENTED_EDGE('',*,*,#450,.F.);
#540=EDGE_LOOP('',(#536,#537,#538,#539));
#541=FACE_BOUND('',#540,.T.);
#542=ADVANCED_FACE('',(#541),#531,.F.);
#543=CARTESIAN_POINT('',(-104.882218329,27.7,42.692501253));
#544=CARTESIAN_POINT('',(-104.882218329,24.5,42.692501253));
#545=CARTESIAN_POINT('',(-105.001896408,27.7,42.626722234));
#546=CARTESIAN_POINT('',(-105.001896408,24.5,42.626722234));
#547=CARTESIAN_POINT('',(-105.116399764,27.7,42.552299769));
#548=CARTESIAN_POINT('',(-105.116399764,24.5,42.552299769));
#549=(BOUNDED_SURFACE()
B_SPLINE_SURFACE(2,1,((#543,#544),(#545,#546),(#547,#548)),.UNSPECIFIED.,.F.,.F.,.U.)
B_SPLINE_SURFACE_WITH_KNOTS((3,3),(2,2),(0.,0.087398716),(-0.,0.0032),.UNSPECIFIED.)
GEOMETRIC_REPRESENTATION_ITEM()
RATIONAL_B_SPLINE_SURFACE(((1.,1.),(0.979135093,0.979135093),(0.960011564,0.960011564)))
REPRESENTATION_ITEM('')
SURFACE()
);
#550=CARTESIAN_POINT('',(-104.882218329,27.7,42.692501253));
#551=VERTEX_POINT('',#550);
#552=CARTESIAN_POINT('',(-104.882218329,24.5,42.692501253));
#553=CARTESIAN_POINT('',(-104.882218329,27.7,42.692501253));
#554=B_SPLINE_CURVE_WITH_KNOTS('',1,(#552,#553),.UNSPECIFIED.,.F.,.F.,(2,2),(0.,0.0032),.UNSPECIFIED.);
#555=EDGE_CURVE('',#70,#551,#554,.T.);
#556=ORIENTED_EDGE('',*,*,#555,.F.);
#557=ORIENTED_EDGE('',*,*,#79,.F.);
#558=ORIENTED_EDGE('',*,*,#522,.F.);
#559=CARTESIAN_POINT('',(-105.116399764,27.7,42.552299769));
#560=CARTESIAN_POINT('',(-103.222065032,27.7,43.783539317));
#561=CARTESIAN_POINT('',(-101.261443883,27.7,42.660855209));
#562=CARTESIAN_POINT('',(-99.300822733,27.7,41.538171101));
#563=CARTESIAN_POINT('',(-99.403884305,27.7,39.281218906));
#564=CARTESIAN_POINT('',(-99.506945876,27.7,37.02426671));
#565=CARTESIAN_POINT('',(-101.561726689,27.7,36.084942107));
#566=(BOUNDED_CURVE()
B_SPLINE_CURVE(2,(#559,#560,#561,#562,#563,#564,#565),.UNSPECIFIED.,.F.,.F.)
B_SPLINE_CURVE_WITH_KNOTS((3,2,2,3),(6.14943248,7.245819949,8.342207418,9.438594887),.UNSPECIFIED.)
CURVE()
GEOMETRIC_REPRESENTATION_ITEM()
RATIONAL_B_SPLINE_CURVE((1.,0.853467243,1.,0.853467243,1.,0.853467243,1.))
REPRESENTATION_ITEM(''));
#567=EDGE_CURVE('',#513,#551,#566,.T.);
#568=ORIENTED_EDGE('',*,*,#567,.T.);
#569=EDGE_LOOP('',(#556,#557,#558,#568));
#570=FACE_BOUND('',#569,.T.);
#571=ADVANCED_FACE('',(#570),#549,.F.);
#572=CARTESIAN_POINT('',(-109.090358744,26.6,39.969390118));
#573=CARTESIAN_POINT('',(-109.090358744,27.7,39.969390118));
#574=CARTESIAN_POINT('',(-105.872271455,26.6,34.114415261));
#575=CARTESIAN_POINT('',(-105.872271455,27.7,34.114415261));
#576=B_SPLINE_SURFACE_WITH_KNOTS('',1,1,((#572,#573),(#574,#575)),.UNSPECIFIED.,.F.,.F.,.U.,(2,2),(2,2),(-0.006731132,-0.000050053),(-0.0011,0.),.UNSPECIFIED.);
#577=ORIENTED_EDGE('',*,*,#443,.F.);
#578=CARTESIAN_POINT('',(-105.872271455,27.7,34.114415261));
#579=CARTESIAN_POINT('',(-109.090358744,27.7,39.969390118));
#580=B_SPLINE_CURVE_WITH_KNOTS('',1,(#578,#579),.UNSPECIFIED.,.F.,.F.,(2,2),(0.000050053,0.006731132),.UNSPECIFIED.);
#581=EDGE_CURVE('',#432,#506,#580,.T.);
#582=ORIENTED_EDGE('',*,*,#581,.T.);
#583=ORIENTED_EDGE('',*,*,#510,.T.);
#584=ORIENTED_EDGE('',*,*,#535,.F.);
#585=EDGE_LOOP('',(#577,#582,#583,#584));
#586=FACE_BOUND('',#585,.T.);
#587=ADVANCED_FACE('',(#586),#576,.T.);
#588=CARTESIAN_POINT('',(-97.443263155,27.7,38.158534798));
#589=CARTESIAN_POINT('',(-101.083008365,27.7,44.780672353));
#590=CARTESIAN_POINT('',(-105.623755521,27.7,33.662266387));
#591=CARTESIAN_POINT('',(-109.263500731,27.7,40.284403943));
#592=B_SPLINE_SURFACE_WITH_KNOTS('',1,1,((#588,#589),(#590,#591)),.UNSPECIFIED.,.F.,.F.,.U.,(2,2),(2,2),(-0.004335257,0.004999457),(-0.003856484,0.0037),.UNSPECIFIED.);
#593=CARTESIAN_POINT('',(-102.377525009,27.7,38.135472465));
#594=VERTEX_POINT('',#593);
#595=CARTESIAN_POINT('',(-102.377525009,27.7,38.135472465));
#596=CARTESIAN_POINT('',(-101.062997474,27.7,38.857980154));
#597=CARTESIAN_POINT('',(-101.785505162,27.7,40.172507688));
#598=CARTESIAN_POINT('',(-102.508012851,27.7,41.487035223));
#599=CARTESIAN_POINT('',(-103.822540386,27.7,40.764527535));
#600=CARTESIAN_POINT('',(-105.137067921,27.7,40.042019846));
#601=CARTESIAN_POINT('',(-104.414560232,27.7,38.727492312));
#602=CARTESIAN_POINT('',(-103.692052544,27.7,37.412964777));
#603=CARTESIAN_POINT('',(-102.377525009,27.7,38.135472465));
#604=(BOUNDED_CURVE()
B_SPLINE_CURVE(2,(#595,#596,#597,#598,#599,#600,#601,#602,#603),.UNSPECIFIED.,.T.,.F.)
B_SPLINE_CURVE_WITH_KNOTS((3,2,2,2,3),(0.,1.570796327,3.141592654,4.71238898,6.283185307),.UNSPECIFIED.)
CURVE()
GEOMETRIC_REPRESENTATION_ITEM()
RATIONAL_B_SPLINE_CURVE((1.,0.707106781,1.,0.707106781,1.,0.707106781,1.,0.707106781,1.))
REPRESENTATION_ITEM(''));
#605=EDGE_CURVE('',#594,#594,#604,.T.);
#606=ORIENTED_EDGE('',*,*,#605,.F.);
#607=EDGE_LOOP('',(#606));
#608=FACE_BOUND('',#607,.T.);
#609=CARTESIAN_POINT('',(-105.116399764,27.7,42.552299769));
#610=CARTESIAN_POINT('',(-103.222065032,27.7,43.783539317));
#611=CARTESIAN_POINT('',(-101.261443883,27.7,42.660855209));
#612=CARTESIAN_POINT('',(-99.300822733,27.7,41.538171101));
#613=CARTESIAN_POINT('',(-99.403884305,27.7,39.281218906));
#614=CARTESIAN_POINT('',(-99.506945876,27.7,37.02426671));
#615=CARTESIAN_POINT('',(-101.561726689,27.7,36.084942107));
#616=(BOUNDED_CURVE()
B_SPLINE_CURVE(2,(#609,#610,#611,#612,#613,#614,#615),.UNSPECIFIED.,.F.,.F.)
B_SPLINE_CURVE_WITH_KNOTS((3,2,2,3),(6.14943248,7.245819949,8.342207418,9.438594887),.UNSPECIFIED.)
CURVE()
GEOMETRIC_REPRESENTATION_ITEM()
RATIONAL_B_SPLINE_CURVE((1.,0.853467243,1.,0.853467243,1.,0.853467243,1.))
REPRESENTATION_ITEM(''));
#617=EDGE_CURVE('',#551,#425,#616,.T.);
#618=ORIENTED_EDGE('',*,*,#617,.F.);
#619=ORIENTED_EDGE('',*,*,#567,.F.);
#620=ORIENTED_EDGE('',*,*,#517,.T.);
#621=ORIENTED_EDGE('',*,*,#581,.F.);
#622=ORIENTED_EDGE('',*,*,#436,.F.);
#623=EDGE_LOOP('',(#618,#619,#620,#621,#622));
#624=FACE_BOUND('',#623,.T.);
#625=ADVANCED_FACE('',(#608,#624),#592,.F.);
#626=CARTESIAN_POINT('',(-116.521178182,25.375,24.941455832));
#627=CARTESIAN_POINT('',(-122.542075586,25.375,35.895851956));
#628=CARTESIAN_POINT('',(-128.322899795,25.375,18.454840392));
#629=CARTESIAN_POINT('',(-134.343797199,25.375,29.409236517));
#630=B_SPLINE_SURFACE_WITH_KNOTS('',1,1,((#626,#627),(#628,#629)),.UNSPECIFIED.,.F.,.F.,.U.,(2,2),(2,2),(0.01875,0.032216878),(-0.00625,0.00625),.UNSPECIFIED.);
#631=CARTESIAN_POINT('',(-119.531626884,25.375,30.418653894));
#632=VERTEX_POINT('',#631);
#633=CARTESIAN_POINT('',(-128.019273648,25.375,32.885403254));
#634=CARTESIAN_POINT('',(-122.542075586,25.375,35.895851956));
#635=CARTESIAN_POINT('',(-119.531626884,25.375,30.418653894));
#636=CARTESIAN_POINT('',(-116.521178182,25.375,24.941455832));
#637=CARTESIAN_POINT('',(-121.998376244,25.375,21.93100713));
#638=(BOUNDED_CURVE()
B_SPLINE_CURVE(2,(#633,#634,#635,#636,#637),.UNSPECIFIED.,.F.,.F.)
B_SPLINE_CURVE_WITH_KNOTS((3,2,3),(6.283185307,7.853981634,9.424777961),.UNSPECIFIED.)
CURVE()
GEOMETRIC_REPRESENTATION_ITEM()
RATIONAL_B_SPLINE_CURVE((1.,0.707106781,1.,0.707106781,1.))
REPRESENTATION_ITEM(''));
#639=EDGE_CURVE('',#632,#166,#638,.T.);
#640=ORIENTED_EDGE('',*,*,#639,.F.);
#641=CARTESIAN_POINT('',(-128.019273648,25.375,32.885403254));
#642=CARTESIAN_POINT('',(-122.542075586,25.375,35.895851956));
#643=CARTESIAN_POINT('',(-119.531626884,25.375,30.418653894));
#644=CARTESIAN_POINT('',(-116.521178182,25.375,24.941455832));
#645=CARTESIAN_POINT('',(-121.998376244,25.375,21.93100713));
#646=(BOUNDED_CURVE()
B_SPLINE_CURVE(2,(#641,#642,#643,#644,#645),.UNSPECIFIED.,.F.,.F.)
B_SPLINE_CURVE_WITH_KNOTS((3,2,3),(6.283185307,7.853981634,9.424777961),.UNSPECIFIED.)
CURVE()
GEOMETRIC_REPRESENTATION_ITEM()
RATIONAL_B_SPLINE_CURVE((1.,0.707106781,1.,0.707106781,1.))
REPRESENTATION_ITEM(''));
#647=EDGE_CURVE('',#207,#632,#646,.T.);
#648=ORIENTED_EDGE('',*,*,#647,.F.);
#649=ORIENTED_EDGE('',*,*,#216,.F.);
#650=EDGE_LOOP('',(#640,#648,#649));
#651=FACE_BOUND('',#650,.T.);
#652=ORIENTED_EDGE('',*,*,#328,.F.);
#653=ORIENTED_EDGE('',*,*,#340,.F.);
#654=EDGE_LOOP('',(#652,#653));
#655=FACE_BOUND('',#654,.T.);
#656=ADVANCED_FACE('',(#651,#655),#630,.F.);
#657=CARTESIAN_POINT('',(-119.531626884,25.375,30.418653894));
#658=CARTESIAN_POINT('',(-119.531626884,24.5,30.418653894));
#659=CARTESIAN_POINT('',(-122.542075586,25.375,35.895851956));
#660=CARTESIAN_POINT('',(-122.542075586,24.5,35.895851956));
#661=CARTESIAN_POINT('',(-128.019273648,25.375,32.885403254));
#662=CARTESIAN_POINT('',(-128.019273648,24.5,32.885403254));
#663=(BOUNDED_SURFACE()
B_SPLINE_SURFACE(2,1,((#657,#658),(#659,#660),(#661,#662)),.UNSPECIFIED.,.F.,.F.,.U.)
B_SPLINE_SURFACE_WITH_KNOTS((3,3),(2,2),(0.,1.533203626),(-0.,0.000875),.UNSPECIFIED.)
GEOMETRIC_REPRESENTATION_ITEM()
RATIONAL_B_SPLINE_SURFACE(((1.,1.),(0.633974596,0.633974596),(0.803847577,0.803847577)))
REPRESENTATION_ITEM('')
SURFACE()
);
#664=CARTESIAN_POINT('',(-119.531626884,24.5,30.418653894));
#665=CARTESIAN_POINT('',(-119.531626884,25.375,30.418653894));
#666=B_SPLINE_CURVE_WITH_KNOTS('',1,(#664,#665),.UNSPECIFIED.,.F.,.F.,(2,2),(0.,0.000875),.UNSPECIFIED.);
#667=EDGE_CURVE('',#120,#632,#666,.T.);
#668=ORIENTED_EDGE('',*,*,#667,.F.);
#669=ORIENTED_EDGE('',*,*,#127,.F.);
#670=ORIENTED_EDGE('',*,*,#260,.F.);
#671=ORIENTED_EDGE('',*,*,#647,.T.);
#672=EDGE_LOOP('',(#668,#669,#670,#671));
#673=FACE_BOUND('',#672,.T.);
#674=ADVANCED_FACE('',(#673),#663,.F.);
#675=CARTESIAN_POINT('',(-102.377525009,27.7,38.135472465));
#676=CARTESIAN_POINT('',(-102.377525009,28.5,38.135472465));
#677=CARTESIAN_POINT('',(-104.654353487,27.7,36.88405244));
#678=CARTESIAN_POINT('',(-104.654353487,28.5,36.88405244));
#679=CARTESIAN_POINT('',(-104.599700781,27.7,39.481553755));
#680=CARTESIAN_POINT('',(-104.599700781,28.5,39.481553755));
#681=CARTESIAN_POINT('',(-104.545048074,27.7,42.07905507));
#682=CARTESIAN_POINT('',(-104.545048074,28.5,42.07905507));
#683=CARTESIAN_POINT('',(-102.322872302,27.7,40.73297378));
#684=CARTESIAN_POINT('',(-102.322872302,28.5,40.73297378));
#685=CARTESIAN_POINT('',(-100.10069653,27.7,39.38689249));
#686=CARTESIAN_POINT('',(-100.10069653,28.5,39.38689249));
#687=CARTESIAN_POINT('',(-102.377525009,27.7,38.135472465));
#688=CARTESIAN_POINT('',(-102.377525009,28.5,38.135472465));
#689=(BOUNDED_SURFACE()
B_SPLINE_SURFACE(2,1,((#675,#676),(#677,#678),(#679,#680),(#681,#682),(#683,#684),(#685,#686),(#687,#688)),.UNSPECIFIED.,.T.,.F.,.U.)
B_SPLINE_SURFACE_WITH_KNOTS((3,2,2,3),(2,2),(0.,2.094395102,4.188790205,6.283185307),(0.037914768,0.038714768),.UNSPECIFIED.)
GEOMETRIC_REPRESENTATION_ITEM()
RATIONAL_B_SPLINE_SURFACE(((1.,1.),(0.5,0.5),(1.,1.),(0.5,0.5),(1.,1.),(0.5,0.5),(1.,1.)))
REPRESENTATION_ITEM('')
SURFACE()
);
#690=CARTESIAN_POINT('',(-102.377525009,28.5,38.135472465));
#691=CARTESIAN_POINT('',(-102.377525009,27.7,38.135472465));
#692=B_SPLINE_CURVE_WITH_KNOTS('',1,(#690,#691),.UNSPECIFIED.,.F.,.F.,(2,2),(0.037914768,0.038714768),.UNSPECIFIED.);
#693=EDGE_CURVE('',#380,#594,#692,.T.);
#694=ORIENTED_EDGE('',*,*,#693,.F.);
#695=ORIENTED_EDGE('',*,*,#391,.F.);
#696=ORIENTED_EDGE('',*,*,#403,.F.);
#697=ORIENTED_EDGE('',*,*,#693,.T.);
#698=ORIENTED_EDGE('',*,*,#605,.T.);
#699=EDGE_LOOP('',(#694,#695,#696,#697,#698));
#700=FACE_BOUND('',#699,.T.);
#701=ADVANCED_FACE('',(#700),#689,.F.);
#702=CARTESIAN_POINT('',(-101.561726689,27.7,36.084942107));
#703=CARTESIAN_POINT('',(-101.561726689,24.5,36.084942107));
#704=CARTESIAN_POINT('',(-99.449701811,27.7,37.050435321));
#705=CARTESIAN_POINT('',(-99.449701811,24.5,37.050435321));
#706=CARTESIAN_POINT('',(-99.400851425,27.7,39.372167405));
#707=CARTESIAN_POINT('',(-99.400851425,24.5,39.372167405));
#708=CARTESIAN_POINT('',(-99.266041416,27.7,45.779337315));
#709=CARTESIAN_POINT('',(-99.266041416,24.5,45.779337315));
#710=CARTESIAN_POINT('',(-104.882218329,27.7,42.692501253));
#711=CARTESIAN_POINT('',(-104.882218329,24.5,42.692501253));
#712=(BOUNDED_SURFACE()
B_SPLINE_SURFACE(2,1,((#702,#703),(#704,#705),(#706,#707),(#708,#709),(#710,#711)),.UNSPECIFIED.,.F.,.F.,.U.)
B_SPLINE_SURFACE_WITH_KNOTS((3,2,3),(2,2),(3.074646797,4.188790205,6.283185307),(-0.,0.0032),.UNSPECIFIED.)
GEOMETRIC_REPRESENTATION_ITEM()
RATIONAL_B_SPLINE_SURFACE(((0.751021716,0.751021716),(0.734017854,0.734017854),(1.,1.),(0.5,0.5),(1.,1.)))
REPRESENTATION_ITEM('')
SURFACE()
);
#713=ORIENTED_EDGE('',*,*,#555,.T.);
#714=ORIENTED_EDGE('',*,*,#617,.T.);
#715=ORIENTED_EDGE('',*,*,#429,.T.);
#716=ORIENTED_EDGE('',*,*,#91,.F.);
#717=EDGE_LOOP('',(#713,#714,#715,#716));
#718=FACE_BOUND('',#717,.T.);
#719=ADVANCED_FACE('',(#718),#712,.F.);
#720=CARTESIAN_POINT('',(-121.998376244,25.375,21.93100713));
#721=CARTESIAN_POINT('',(-121.998376244,24.5,21.93100713));
#722=CARTESIAN_POINT('',(-116.521178182,25.375,24.941455832));
#723=CARTESIAN_POINT('',(-116.521178182,24.5,24.941455832));
#724=CARTESIAN_POINT('',(-119.531626884,25.375,30.418653894));
#725=CARTESIAN_POINT('',(-119.531626884,24.5,30.418653894));
#726=(BOUNDED_SURFACE()
B_SPLINE_SURFACE(2,1,((#720,#721),(#722,#723),(#724,#725)),.UNSPECIFIED.,.F.,.F.,.U.)
B_SPLINE_SURFACE_WITH_KNOTS((3,3),(2,2),(4.749981681,6.283185307),(-0.,0.000875),.UNSPECIFIED.)
GEOMETRIC_REPRESENTATION_ITEM()
RATIONAL_B_SPLINE_SURFACE(((0.803847577,0.803847577),(0.633974596,0.633974596),(1.,1.)))
REPRESENTATION_ITEM('')
SURFACE()
);
#727=ORIENTED_EDGE('',*,*,#667,.T.);
#728=ORIENTED_EDGE('',*,*,#639,.T.);
#729=ORIENTED_EDGE('',*,*,#170,.T.);
#730=ORIENTED_EDGE('',*,*,#137,.F.);
#731=EDGE_LOOP('',(#727,#728,#729,#730));
#732=FACE_BOUND('',#731,.T.);
#733=ADVANCED_FACE('',(#732),#726,.F.);
#734=CLOSED_SHELL('',(#158,#193,#237,#264,#291,#371,#417,#459,#490,#526,#542,#571,#587,#625,#656,#674,#701,#719,#733));
#735=MANIFOLD_SOLID_BREP('Horn',#734);
#54=STYLED_ITEM('',(),#735);
#35=SHAPE_REPRESENTATION('TiltMechanism',(#15),#33);
#36=ADVANCED_BREP_SHAPE_REPRESENTATION('TiltMechanism',(#735),#33);
#743=SHAPE_REPRESENTATION_RELATIONSHIP('','',#35,#36);
#744=APPLICATION_CONTEXT('configuration controlled 3D design of mechanical parts and assemblies');
#745=APPLICATION_PROTOCOL_DEFINITION('international standard','configuration_control_3d_design_ed2_mim',2004,#744);
#746=PRODUCT_CONTEXT('',#744,'mechanical');
#747=PRODUCT_DEFINITION_CONTEXT('part definition',#744,'design');
#43=PRODUCT('0','0','',(#746));
#748=PRODUCT_RELATED_PRODUCT_CATEGORY('part','',(#43));
#749=PRODUCT_DEFINITION_FORMATION_WITH_SPECIFIED_SOURCE('','',#43,.NOT_KNOWN.);
#44=PRODUCT_DEFINITION('design','',#749,#747);
#42=PRODUCT_DEFINITION_SHAPE('','',#44);
#750=SHAPE_DEFINITION_REPRESENTATION(#42,#35);
#34=DRAUGHTING_MODEL('',(),#33);
#16=SHAPE_REPRESENTATION('root',(#15,#48),#10);
#24=PRODUCT('root','root','',(#746));
#751=PRODUCT_RELATED_PRODUCT_CATEGORY('part','',(#24));
#752=PRODUCT_DEFINITION_FORMATION_WITH_SPECIFIED_SOURCE('','',#24,.NOT_KNOWN.);
#25=PRODUCT_DEFINITION('design','',#752,#747);
#23=PRODUCT_DEFINITION_SHAPE('','',#25);
#753=SHAPE_DEFINITION_REPRESENTATION(#23,#16);
#11=DRAUGHTING_MODEL('',(),#10);
#1=MECHANICAL_DESIGN_GEOMETRIC_PRESENTATION_REPRESENTATION('',(#54),#10);
ENDSEC;
END-ISO-10303-21;
