ISO-10303-21;
HEADER;

/* File generated by HOOPS Exchange Version 25.8.0 */

FILE_DESCRIPTION(('HOOPS Exchange Step'),'2;1');

FILE_NAME('/home/tfannes/prints/260705_nerf_shooter/NerfShooter_MotorHolder_A.step',
'2026-07-05T16:21:07+02:00',
('tfannes'),
('Unknown organisation'),
'HOOPS Exchange 2025.8',
'HOOPS Exchange',
'Unknown authorisation');

FILE_SCHEMA( ('AP203_CONFIGURATION_CONTROLLED_3D_DESIGN_OF_MECHANICAL_PARTS_AND_ASSEMBLIES_MIM_LF') );

ENDSEC;

DATA;
#3=(NAMED_UNIT(*)PLANE_ANGLE_UNIT()SI_UNIT($,.RADIAN.));
#4=PLANE_ANGLE_MEASURE_WITH_UNIT(PLANE_ANGLE_MEASURE(0.0174532925),#3);
#5=(CONVERSION_BASED_UNIT('DEGREE',#4)NAMED_UNIT(#6)PLANE_ANGLE_UNIT());
#6=DIMENSIONAL_EXPONENTS(0.,0.,0.,0.,0.,0.,0.);
#7=(NAMED_UNIT(*)SI_UNIT($,.STERADIAN.)SOLID_ANGLE_UNIT());
#8=(LENGTH_UNIT()NAMED_UNIT(*)SI_UNIT(.MILLI.,.METRE.));
#9=UNCERTAINTY_MEASURE_WITH_UNIT(LENGTH_MEASURE(1.000000E-03),#8,'DISTANCE_ACCURACY_VALUE','Maximum Tolerance applied to model');
#10=(GEOMETRIC_REPRESENTATION_CONTEXT(3)GLOBAL_UNCERTAINTY_ASSIGNED_CONTEXT((#9))GLOBAL_UNIT_ASSIGNED_CONTEXT((#8,#5,#7))REPRESENTATION_CONTEXT('','root'));
#12=CARTESIAN_POINT('',(0.,0.,0.));
#13=DIRECTION('',(0.,0.,1.));
#14=DIRECTION('',(1.,0.,0.));
#15=AXIS2_PLACEMENT_3D('',#12,#13,#14);
#26=(NAMED_UNIT(*)PLANE_ANGLE_UNIT()SI_UNIT($,.RADIAN.));
#27=PLANE_ANGLE_MEASURE_WITH_UNIT(PLANE_ANGLE_MEASURE(0.0174532925),#26);
#28=(CONVERSION_BASED_UNIT('DEGREE',#27)NAMED_UNIT(#29)PLANE_ANGLE_UNIT());
#29=DIMENSIONAL_EXPONENTS(0.,0.,0.,0.,0.,0.,0.);
#30=(NAMED_UNIT(*)SI_UNIT($,.STERADIAN.)SOLID_ANGLE_UNIT());
#31=(LENGTH_UNIT()NAMED_UNIT(*)SI_UNIT(.MILLI.,.METRE.));
#32=UNCERTAINTY_MEASURE_WITH_UNIT(LENGTH_MEASURE(1.000000E-05),#31,'DISTANCE_ACCURACY_VALUE','Maximum Tolerance applied to model');
#33=(GEOMETRIC_REPRESENTATION_CONTEXT(3)GLOBAL_UNCERTAINTY_ASSIGNED_CONTEXT((#32))GLOBAL_UNIT_ASSIGNED_CONTEXT((#31,#28,#30))REPRESENTATION_CONTEXT('','0'));
#35=CARTESIAN_POINT('',(0.,0.,0.));
#36=DIRECTION('',(0.,0.,1.));
#37=DIRECTION('',(1.,0.,0.));
#38=AXIS2_PLACEMENT_3D('',#35,#36,#37);
#49=CARTESIAN_POINT('',(0.,0.,0.));
#50=DIRECTION('',(0.,0.,1.));
#51=DIRECTION('',(1.,0.,-0.));
#52=AXIS2_PLACEMENT_3D('',#49,#50,#51);
#53=ITEM_DEFINED_TRANSFORMATION('','',#52,#38);
#54=(REPRESENTATION_RELATIONSHIP('','',#39,#16)REPRESENTATION_RELATIONSHIP_WITH_TRANSFORMATION(#53)SHAPE_REPRESENTATION_RELATIONSHIP());
#55=NEXT_ASSEMBLY_USAGE_OCCURRENCE('flywheel_holder_tester.plasticity_1','flywheel_holder_tester.plasticity','flywheel_holder_tester.plasticity',#25,#48,$);
#56=PRODUCT_DEFINITION_SHAPE('','',#55);
#57=CONTEXT_DEPENDENT_SHAPE_REPRESENTATION(#54,#56);
#59=CARTESIAN_POINT('',(8.256264064,-17.5,-4.5));
#60=DIRECTION('',(0.,1.,0.));
#61=DIRECTION('',(0.,0.,1.));
#62=AXIS2_PLACEMENT_3D('',#59,#60,#61);
#63=PLANE('',#62);
#64=CARTESIAN_POINT('',(8.256264064,-17.5,-2.));
#65=VERTEX_POINT('',#64);
#66=CARTESIAN_POINT('',(-5.5,-17.5,-2.));
#67=VERTEX_POINT('',#66);
#68=CARTESIAN_POINT('',(8.256264064,-17.5,-2.));
#69=DIRECTION('',(-1.,0.,0.));
#70=VECTOR('',#69,13.756264064);
#71=LINE('',#68,#70);
#72=EDGE_CURVE('',#65,#67,#71,.T.);
#73=ORIENTED_EDGE('',*,*,#72,.T.);
#74=CARTESIAN_POINT('',(-5.5,-17.5,-4.5));
#75=VERTEX_POINT('',#74);
#76=CARTESIAN_POINT('',(-5.5,-17.5,-4.5));
#77=DIRECTION('',(0.,0.,1.));
#78=VECTOR('',#77,2.5);
#79=LINE('',#76,#78);
#80=EDGE_CURVE('',#75,#67,#79,.T.);
#81=ORIENTED_EDGE('',*,*,#80,.F.);
#82=CARTESIAN_POINT('',(8.256264064,-17.5,-4.5));
#83=VERTEX_POINT('',#82);
#84=CARTESIAN_POINT('',(8.256264064,-17.5,-4.5));
#85=DIRECTION('',(-1.,0.,0.));
#86=VECTOR('',#85,13.756264064);
#87=LINE('',#84,#86);
#88=EDGE_CURVE('',#83,#75,#87,.T.);
#89=ORIENTED_EDGE('',*,*,#88,.F.);
#90=CARTESIAN_POINT('',(8.256264064,-17.5,-4.5));
#91=DIRECTION('',(0.,0.,1.));
#92=VECTOR('',#91,2.5);
#93=LINE('',#90,#92);
#94=EDGE_CURVE('',#83,#65,#93,.T.);
#95=ORIENTED_EDGE('',*,*,#94,.T.);
#96=EDGE_LOOP('',(#73,#81,#89,#95));
#97=FACE_BOUND('',#96,.T.);
#98=ADVANCED_FACE('',(#97),#63,.F.);
#99=CARTESIAN_POINT('',(-5.5,-17.5,-4.5));
#100=DIRECTION('',(1.,0.,0.));
#101=DIRECTION('',(0.,0.,-1.));
#102=AXIS2_PLACEMENT_3D('',#99,#100,#101);
#103=PLANE('',#102);
#104=CARTESIAN_POINT('',(-5.5,17.5,-2.));
#105=VERTEX_POINT('',#104);
#106=CARTESIAN_POINT('',(-5.5,-17.5,-2.));
#107=DIRECTION('',(0.,1.,0.));
#108=VECTOR('',#107,35.);
#109=LINE('',#106,#108);
#110=EDGE_CURVE('',#67,#105,#109,.T.);
#111=ORIENTED_EDGE('',*,*,#110,.T.);
#112=CARTESIAN_POINT('',(-5.5,17.5,-4.5));
#113=VERTEX_POINT('',#112);
#114=CARTESIAN_POINT('',(-5.5,17.5,-4.5));
#115=DIRECTION('',(0.,0.,1.));
#116=VECTOR('',#115,2.5);
#117=LINE('',#114,#116);
#118=EDGE_CURVE('',#113,#105,#117,.T.);
#119=ORIENTED_EDGE('',*,*,#118,.F.);
#120=CARTESIAN_POINT('',(-5.5,-17.5,-4.5));
#121=DIRECTION('',(0.,1.,0.));
#122=VECTOR('',#121,35.);
#123=LINE('',#120,#122);
#124=EDGE_CURVE('',#75,#113,#123,.T.);
#125=ORIENTED_EDGE('',*,*,#124,.F.);
#126=ORIENTED_EDGE('',*,*,#80,.T.);
#127=EDGE_LOOP('',(#111,#119,#125,#126));
#128=FACE_BOUND('',#127,.T.);
#129=ADVANCED_FACE('',(#128),#103,.F.);
#130=CARTESIAN_POINT('',(-5.5,17.5,-4.5));
#131=DIRECTION('',(0.,-1.,0.));
#132=DIRECTION('',(0.,0.,-1.));
#133=AXIS2_PLACEMENT_3D('',#130,#131,#132);
#134=PLANE('',#133);
#135=CARTESIAN_POINT('',(8.256264064,17.5,-2.));
#136=VERTEX_POINT('',#135);
#137=CARTESIAN_POINT('',(-5.5,17.5,-2.));
#138=DIRECTION('',(1.,0.,-0.));
#139=VECTOR('',#138,13.756264064);
#140=LINE('',#137,#139);
#141=EDGE_CURVE('',#105,#136,#140,.T.);
#142=ORIENTED_EDGE('',*,*,#141,.T.);
#143=CARTESIAN_POINT('',(8.256264064,17.5,-4.5));
#144=VERTEX_POINT('',#143);
#145=CARTESIAN_POINT('',(8.256264064,17.5,-4.5));
#146=DIRECTION('',(0.,0.,1.));
#147=VECTOR('',#146,2.5);
#148=LINE('',#145,#147);
#149=EDGE_CURVE('',#144,#136,#148,.T.);
#150=ORIENTED_EDGE('',*,*,#149,.F.);
#151=CARTESIAN_POINT('',(-5.5,17.5,-4.5));
#152=DIRECTION('',(1.,0.,-0.));
#153=VECTOR('',#152,13.756264064);
#154=LINE('',#151,#153);
#155=EDGE_CURVE('',#113,#144,#154,.T.);
#156=ORIENTED_EDGE('',*,*,#155,.F.);
#157=ORIENTED_EDGE('',*,*,#118,.T.);
#158=EDGE_LOOP('',(#142,#150,#156,#157));
#159=FACE_BOUND('',#158,.T.);
#160=ADVANCED_FACE('',(#159),#134,.F.);
#161=CARTESIAN_POINT('',(8.256264064,17.5,-4.5));
#162=DIRECTION('',(-1.,0.,0.));
#163=DIRECTION('',(0.,0.,1.));
#164=AXIS2_PLACEMENT_3D('',#161,#162,#163);
#165=PLANE('',#164);
#166=CARTESIAN_POINT('',(8.256264064,17.5,-2.));
#167=DIRECTION('',(0.,-1.,0.));
#168=VECTOR('',#167,35.);
#169=LINE('',#166,#168);
#170=EDGE_CURVE('',#136,#65,#169,.T.);
#171=ORIENTED_EDGE('',*,*,#170,.T.);
#172=ORIENTED_EDGE('',*,*,#94,.F.);
#173=CARTESIAN_POINT('',(8.256264064,17.5,-4.5));
#174=DIRECTION('',(0.,-1.,0.));
#175=VECTOR('',#174,35.);
#176=LINE('',#173,#175);
#177=EDGE_CURVE('',#144,#83,#176,.T.);
#178=ORIENTED_EDGE('',*,*,#177,.F.);
#179=ORIENTED_EDGE('',*,*,#149,.T.);
#180=EDGE_LOOP('',(#171,#172,#178,#179));
#181=FACE_BOUND('',#180,.T.);
#182=ADVANCED_FACE('',(#181),#165,.F.);
#183=CARTESIAN_POINT('',(1.378132032,0.,-4.5));
#184=DIRECTION('',(0.,0.,-1.));
#185=DIRECTION('',(-1.,0.,0.));
#186=AXIS2_PLACEMENT_3D('',#183,#184,#185);
#187=PLANE('',#186);
#188=CARTESIAN_POINT('',(-1.5,-15.35,-4.5));
#189=VERTEX_POINT('',#188);
#190=CARTESIAN_POINT('',(-3.35,-13.5,-4.5));
#191=VERTEX_POINT('',#190);
#192=CARTESIAN_POINT('',(-1.5,-13.5,-4.5));
#193=DIRECTION('',(0.,0.,-1.));
#194=DIRECTION('',(-1.,0.,0.));
#195=AXIS2_PLACEMENT_3D('',#192,#193,#194);
#196=CIRCLE('',#195,1.85);
#197=EDGE_CURVE('',#189,#191,#196,.T.);
#198=ORIENTED_EDGE('',*,*,#197,.F.);
#199=CARTESIAN_POINT('',(-1.5,-13.5,-4.5));
#200=DIRECTION('',(0.,0.,-1.));
#201=DIRECTION('',(-1.,0.,0.));
#202=AXIS2_PLACEMENT_3D('',#199,#200,#201);
#203=CIRCLE('',#202,1.85);
#204=EDGE_CURVE('',#191,#189,#203,.T.);
#205=ORIENTED_EDGE('',*,*,#204,.F.);
#206=EDGE_LOOP('',(#198,#205));
#207=FACE_BOUND('',#206,.T.);
#208=CARTESIAN_POINT('',(-1.5,11.65,-4.5));
#209=VERTEX_POINT('',#208);
#210=CARTESIAN_POINT('',(-3.35,13.5,-4.5));
#211=VERTEX_POINT('',#210);
#212=CARTESIAN_POINT('',(-1.5,13.5,-4.5));
#213=DIRECTION('',(0.,0.,-1.));
#214=DIRECTION('',(-1.,0.,0.));
#215=AXIS2_PLACEMENT_3D('',#212,#213,#214);
#216=CIRCLE('',#215,1.85);
#217=EDGE_CURVE('',#209,#211,#216,.T.);
#218=ORIENTED_EDGE('',*,*,#217,.F.);
#219=CARTESIAN_POINT('',(-1.5,13.5,-4.5));
#220=DIRECTION('',(0.,0.,-1.));
#221=DIRECTION('',(-1.,0.,0.));
#222=AXIS2_PLACEMENT_3D('',#219,#220,#221);
#223=CIRCLE('',#222,1.85);
#224=EDGE_CURVE('',#211,#209,#223,.T.);
#225=ORIENTED_EDGE('',*,*,#224,.F.);
#226=EDGE_LOOP('',(#218,#225));
#227=FACE_BOUND('',#226,.T.);
#228=ORIENTED_EDGE('',*,*,#88,.T.);
#229=ORIENTED_EDGE('',*,*,#124,.T.);
#230=ORIENTED_EDGE('',*,*,#155,.T.);
#231=ORIENTED_EDGE('',*,*,#177,.T.);
#232=EDGE_LOOP('',(#228,#229,#230,#231));
#233=FACE_BOUND('',#232,.T.);
#234=ADVANCED_FACE('',(#207,#227,#233),#187,.T.);
#235=CARTESIAN_POINT('',(1.378132032,0.,-2.));
#236=DIRECTION('',(0.,0.,-1.));
#237=DIRECTION('',(-1.,0.,0.));
#238=AXIS2_PLACEMENT_3D('',#235,#236,#237);
#239=PLANE('',#238);
#240=CARTESIAN_POINT('',(-3.35,-13.5,-2.));
#241=VERTEX_POINT('',#240);
#242=CARTESIAN_POINT('',(-1.5,-15.35,-2.));
#243=VERTEX_POINT('',#242);
#244=CARTESIAN_POINT('',(-1.5,-13.5,-2.));
#245=DIRECTION('',(0.,0.,-1.));
#246=DIRECTION('',(-1.,0.,0.));
#247=AXIS2_PLACEMENT_3D('',#244,#245,#246);
#248=CIRCLE('',#247,1.85);
#249=EDGE_CURVE('',#241,#243,#248,.T.);
#250=ORIENTED_EDGE('',*,*,#249,.T.);
#251=CARTESIAN_POINT('',(-1.5,-13.5,-2.));
#252=DIRECTION('',(0.,0.,-1.));
#253=DIRECTION('',(-1.,0.,0.));
#254=AXIS2_PLACEMENT_3D('',#251,#252,#253);
#255=CIRCLE('',#254,1.85);
#256=EDGE_CURVE('',#243,#241,#255,.T.);
#257=ORIENTED_EDGE('',*,*,#256,.T.);
#258=EDGE_LOOP('',(#250,#257));
#259=FACE_BOUND('',#258,.T.);
#260=CARTESIAN_POINT('',(-3.35,13.5,-2.));
#261=VERTEX_POINT('',#260);
#262=CARTESIAN_POINT('',(-1.5,11.65,-2.));
#263=VERTEX_POINT('',#262);
#264=CARTESIAN_POINT('',(-1.5,13.5,-2.));
#265=DIRECTION('',(0.,0.,-1.));
#266=DIRECTION('',(-1.,0.,0.));
#267=AXIS2_PLACEMENT_3D('',#264,#265,#266);
#268=CIRCLE('',#267,1.85);
#269=EDGE_CURVE('',#261,#263,#268,.T.);
#270=ORIENTED_EDGE('',*,*,#269,.T.);
#271=CARTESIAN_POINT('',(-1.5,13.5,-2.));
#272=DIRECTION('',(0.,0.,-1.));
#273=DIRECTION('',(-1.,0.,0.));
#274=AXIS2_PLACEMENT_3D('',#271,#272,#273);
#275=CIRCLE('',#274,1.85);
#276=EDGE_CURVE('',#263,#261,#275,.T.);
#277=ORIENTED_EDGE('',*,*,#276,.T.);
#278=EDGE_LOOP('',(#270,#277));
#279=FACE_BOUND('',#278,.T.);
#280=ORIENTED_EDGE('',*,*,#72,.F.);
#281=ORIENTED_EDGE('',*,*,#170,.F.);
#282=ORIENTED_EDGE('',*,*,#141,.F.);
#283=ORIENTED_EDGE('',*,*,#110,.F.);
#284=EDGE_LOOP('',(#280,#281,#282,#283));
#285=FACE_BOUND('',#284,.T.);
#286=ADVANCED_FACE('',(#259,#279,#285),#239,.F.);
#287=CARTESIAN_POINT('',(-1.5,13.5,-23.308321521));
#288=DIRECTION('',(0.,0.,1.));
#289=DIRECTION('',(0.,-1.,0.));
#290=AXIS2_PLACEMENT_3D('',#287,#288,#289);
#291=CYLINDRICAL_SURFACE('',#290,1.85);
#292=CARTESIAN_POINT('',(-1.5,11.65,-2.));
#293=DIRECTION('',(-0.,-0.,-1.));
#294=VECTOR('',#293,2.5);
#295=LINE('',#292,#294);
#296=EDGE_CURVE('',#263,#209,#295,.T.);
#297=ORIENTED_EDGE('',*,*,#296,.F.);
#298=ORIENTED_EDGE('',*,*,#269,.F.);
#299=ORIENTED_EDGE('',*,*,#276,.F.);
#300=ORIENTED_EDGE('',*,*,#296,.T.);
#301=ORIENTED_EDGE('',*,*,#217,.T.);
#302=ORIENTED_EDGE('',*,*,#224,.T.);
#303=EDGE_LOOP('',(#297,#298,#299,#300,#301,#302));
#304=FACE_BOUND('',#303,.T.);
#305=ADVANCED_FACE('',(#304),#291,.F.);
#306=CARTESIAN_POINT('',(-1.5,-13.5,-23.308321521));
#307=DIRECTION('',(0.,0.,1.));
#308=DIRECTION('',(0.,-1.,0.));
#309=AXIS2_PLACEMENT_3D('',#306,#307,#308);
#310=CYLINDRICAL_SURFACE('',#309,1.85);
#311=CARTESIAN_POINT('',(-1.5,-15.35,-2.));
#312=DIRECTION('',(-0.,-0.,-1.));
#313=VECTOR('',#312,2.5);
#314=LINE('',#311,#313);
#315=EDGE_CURVE('',#243,#189,#314,.T.);
#316=ORIENTED_EDGE('',*,*,#315,.F.);
#317=ORIENTED_EDGE('',*,*,#249,.F.);
#318=ORIENTED_EDGE('',*,*,#256,.F.);
#319=ORIENTED_EDGE('',*,*,#315,.T.);
#320=ORIENTED_EDGE('',*,*,#197,.T.);
#321=ORIENTED_EDGE('',*,*,#204,.T.);
#322=EDGE_LOOP('',(#316,#317,#318,#319,#320,#321));
#323=FACE_BOUND('',#322,.T.);
#324=ADVANCED_FACE('',(#323),#310,.F.);
#325=CLOSED_SHELL('',(#98,#129,#160,#182,#234,#286,#305,#324));
#326=MANIFOLD_SOLID_BREP('Extruded.011',#325);
#58=STYLED_ITEM('',(),#326);
#328=CARTESIAN_POINT('',(18.256264064,0.,-11.));
#329=DIRECTION('',(1.,0.,0.));
#330=DIRECTION('',(0.,0.,-1.));
#331=AXIS2_PLACEMENT_3D('',#328,#329,#330);
#332=PLANE('',#331);
#333=CARTESIAN_POINT('',(18.256264064,-1.591709129,-7.44284784));
#334=VERTEX_POINT('',#333);
#335=CARTESIAN_POINT('',(18.256264064,-1.85,-6.5));
#336=VERTEX_POINT('',#335);
#337=CARTESIAN_POINT('',(18.256264064,0.,-6.5));
#338=DIRECTION('',(-1.,-0.,-0.));
#339=DIRECTION('',(0.,-0.860383313,-0.509647481));
#340=AXIS2_PLACEMENT_3D('',#337,#338,#339);
#341=CIRCLE('',#340,1.85);
#342=EDGE_CURVE('',#334,#336,#341,.T.);
#343=ORIENTED_EDGE('',*,*,#342,.T.);
#344=CARTESIAN_POINT('',(18.256264064,0.,-6.5));
#345=DIRECTION('',(-1.,-0.,-0.));
#346=DIRECTION('',(0.,-0.860383313,-0.509647481));
#347=AXIS2_PLACEMENT_3D('',#344,#345,#346);
#348=CIRCLE('',#347,1.85);
#349=EDGE_CURVE('',#336,#334,#348,.T.);
#350=ORIENTED_EDGE('',*,*,#349,.T.);
#351=EDGE_LOOP('',(#343,#350));
#352=FACE_BOUND('',#351,.T.);
#353=CARTESIAN_POINT('',(18.256264064,4.5,-2.));
#354=VERTEX_POINT('',#353);
#355=CARTESIAN_POINT('',(18.256264064,-4.5,-2.));
#356=VERTEX_POINT('',#355);
#357=CARTESIAN_POINT('',(18.256264064,4.5,-2.));
#358=DIRECTION('',(0.,-1.,0.));
#359=VECTOR('',#358,9.);
#360=LINE('',#357,#359);
#361=EDGE_CURVE('',#354,#356,#360,.T.);
#362=ORIENTED_EDGE('',*,*,#361,.T.);
#363=CARTESIAN_POINT('',(18.256264064,-4.5,-20.));
#364=VERTEX_POINT('',#363);
#365=CARTESIAN_POINT('',(18.256264064,-4.5,-2.));
#366=DIRECTION('',(0.,0.,-1.));
#367=VECTOR('',#366,18.);
#368=LINE('',#365,#367);
#369=EDGE_CURVE('',#356,#364,#368,.T.);
#370=ORIENTED_EDGE('',*,*,#369,.T.);
#371=CARTESIAN_POINT('',(18.256264064,4.5,-20.));
#372=VERTEX_POINT('',#371);
#373=CARTESIAN_POINT('',(18.256264064,-4.5,-20.));
#374=DIRECTION('',(0.,1.,0.));
#375=VECTOR('',#374,9.);
#376=LINE('',#373,#375);
#377=EDGE_CURVE('',#364,#372,#376,.T.);
#378=ORIENTED_EDGE('',*,*,#377,.T.);
#379=CARTESIAN_POINT('',(18.256264064,4.5,-20.));
#380=DIRECTION('',(-0.,0.,1.));
#381=VECTOR('',#380,18.);
#382=LINE('',#379,#381);
#383=EDGE_CURVE('',#372,#354,#382,.T.);
#384=ORIENTED_EDGE('',*,*,#383,.T.);
#385=EDGE_LOOP('',(#362,#370,#378,#384));
#386=FACE_BOUND('',#385,.T.);
#387=CARTESIAN_POINT('',(18.256264064,-1.85,-15.5));
#388=VERTEX_POINT('',#387);
#389=CARTESIAN_POINT('',(18.256264064,-1.591709129,-14.55715216));
#390=VERTEX_POINT('',#389);
#391=CARTESIAN_POINT('',(18.256264064,0.,-15.5));
#392=DIRECTION('',(1.,0.,0.));
#393=DIRECTION('',(0.,-0.860383313,0.509647481));
#394=AXIS2_PLACEMENT_3D('',#391,#392,#393);
#395=CIRCLE('',#394,1.85);
#396=EDGE_CURVE('',#388,#390,#395,.T.);
#397=ORIENTED_EDGE('',*,*,#396,.F.);
#398=CARTESIAN_POINT('',(18.256264064,0.,-15.5));
#399=DIRECTION('',(1.,0.,0.));
#400=DIRECTION('',(0.,-0.860383313,0.509647481));
#401=AXIS2_PLACEMENT_3D('',#398,#399,#400);
#402=CIRCLE('',#401,1.85);
#403=EDGE_CURVE('',#390,#388,#402,.T.);
#404=ORIENTED_EDGE('',*,*,#403,.F.);
#405=EDGE_LOOP('',(#397,#404));
#406=FACE_BOUND('',#405,.T.);
#407=ADVANCED_FACE('',(#352,#386,#406),#332,.T.);
#408=CARTESIAN_POINT('',(18.256264064,4.5,-2.));
#409=DIRECTION('',(0.,0.,-1.));
#410=DIRECTION('',(-1.,0.,-0.));
#411=AXIS2_PLACEMENT_3D('',#408,#409,#410);
#412=PLANE('',#411);
#413=CARTESIAN_POINT('',(11.256264064,4.5,-2.));
#414=VERTEX_POINT('',#413);
#415=CARTESIAN_POINT('',(18.256264064,4.5,-2.));
#416=DIRECTION('',(-1.,0.,-0.));
#417=VECTOR('',#416,7.);
#418=LINE('',#415,#417);
#419=EDGE_CURVE('',#354,#414,#418,.T.);
#420=ORIENTED_EDGE('',*,*,#419,.T.);
#421=CARTESIAN_POINT('',(11.256264064,31.5,-2.));
#422=VERTEX_POINT('',#421);
#423=CARTESIAN_POINT('',(11.256264064,4.5,-2.));
#424=DIRECTION('',(-0.,1.,-0.));
#425=VECTOR('',#424,27.);
#426=LINE('',#423,#425);
#427=EDGE_CURVE('',#414,#422,#426,.T.);
#428=ORIENTED_EDGE('',*,*,#427,.T.);
#429=CARTESIAN_POINT('',(18.256264064,31.5,-2.));
#430=VERTEX_POINT('',#429);
#431=CARTESIAN_POINT('',(18.256264064,31.5,-2.));
#432=DIRECTION('',(-1.,0.,-0.));
#433=VECTOR('',#432,7.);
#434=LINE('',#431,#433);
#435=EDGE_CURVE('',#430,#422,#434,.T.);
#436=ORIENTED_EDGE('',*,*,#435,.F.);
#437=CARTESIAN_POINT('',(18.256264064,40.5,-2.));
#438=VERTEX_POINT('',#437);
#439=CARTESIAN_POINT('',(18.256264064,40.5,-2.));
#440=DIRECTION('',(0.,-1.,0.));
#441=VECTOR('',#440,9.);
#442=LINE('',#439,#441);
#443=EDGE_CURVE('',#438,#430,#442,.T.);
#444=ORIENTED_EDGE('',*,*,#443,.F.);
#445=CARTESIAN_POINT('',(8.256264064,40.5,-2.));
#446=VERTEX_POINT('',#445);
#447=CARTESIAN_POINT('',(18.256264064,40.5,-2.));
#448=DIRECTION('',(-1.,0.,-0.));
#449=VECTOR('',#448,10.);
#450=LINE('',#447,#449);
#451=EDGE_CURVE('',#438,#446,#450,.T.);
#452=ORIENTED_EDGE('',*,*,#451,.T.);
#453=CARTESIAN_POINT('',(8.256264064,-40.5,-2.));
#454=VERTEX_POINT('',#453);
#455=CARTESIAN_POINT('',(8.256264064,-40.5,-2.));
#456=DIRECTION('',(-0.,1.,-0.));
#457=VECTOR('',#456,81.);
#458=LINE('',#455,#457);
#459=EDGE_CURVE('',#454,#446,#458,.T.);
#460=ORIENTED_EDGE('',*,*,#459,.F.);
#461=CARTESIAN_POINT('',(18.256264064,-40.5,-2.));
#462=VERTEX_POINT('',#461);
#463=CARTESIAN_POINT('',(18.256264064,-40.5,-2.));
#464=DIRECTION('',(-1.,0.,-0.));
#465=VECTOR('',#464,10.);
#466=LINE('',#463,#465);
#467=EDGE_CURVE('',#462,#454,#466,.T.);
#468=ORIENTED_EDGE('',*,*,#467,.F.);
#469=CARTESIAN_POINT('',(18.256264064,-31.5,-2.));
#470=VERTEX_POINT('',#469);
#471=CARTESIAN_POINT('',(18.256264064,-40.5,-2.));
#472=DIRECTION('',(-0.,1.,-0.));
#473=VECTOR('',#472,9.);
#474=LINE('',#471,#473);
#475=EDGE_CURVE('',#462,#470,#474,.T.);
#476=ORIENTED_EDGE('',*,*,#475,.T.);
#477=CARTESIAN_POINT('',(11.256264064,-31.5,-2.));
#478=VERTEX_POINT('',#477);
#479=CARTESIAN_POINT('',(18.256264064,-31.5,-2.));
#480=DIRECTION('',(-1.,0.,-0.));
#481=VECTOR('',#480,7.);
#482=LINE('',#479,#481);
#483=EDGE_CURVE('',#470,#478,#482,.T.);
#484=ORIENTED_EDGE('',*,*,#483,.T.);
#485=CARTESIAN_POINT('',(11.256264064,-4.5,-2.));
#486=VERTEX_POINT('',#485);
#487=CARTESIAN_POINT('',(11.256264064,-31.5,-2.));
#488=DIRECTION('',(-0.,1.,-0.));
#489=VECTOR('',#488,27.);
#490=LINE('',#487,#489);
#491=EDGE_CURVE('',#478,#486,#490,.T.);
#492=ORIENTED_EDGE('',*,*,#491,.T.);
#493=CARTESIAN_POINT('',(18.256264064,-4.5,-2.));
#494=DIRECTION('',(-1.,0.,-0.));
#495=VECTOR('',#494,7.);
#496=LINE('',#493,#495);
#497=EDGE_CURVE('',#356,#486,#496,.T.);
#498=ORIENTED_EDGE('',*,*,#497,.F.);
#499=ORIENTED_EDGE('',*,*,#361,.F.);
#500=EDGE_LOOP('',(#420,#428,#436,#444,#452,#460,#468,#476,#484,#492,#498,#499));
#501=FACE_BOUND('',#500,.T.);
#502=ADVANCED_FACE('',(#501),#412,.F.);
#503=CARTESIAN_POINT('',(18.256264064,-4.5,-2.));
#504=DIRECTION('',(0.,1.,0.));
#505=DIRECTION('',(1.,0.,0.));
#506=AXIS2_PLACEMENT_3D('',#503,#504,#505);
#507=PLANE('',#506);
#508=CARTESIAN_POINT('',(11.256264064,-4.5,-20.));
#509=VERTEX_POINT('',#508);
#510=CARTESIAN_POINT('',(11.256264064,-4.5,-2.));
#511=DIRECTION('',(0.,0.,-1.));
#512=VECTOR('',#511,18.);
#513=LINE('',#510,#512);
#514=EDGE_CURVE('',#486,#509,#513,.T.);
#515=ORIENTED_EDGE('',*,*,#514,.T.);
#516=CARTESIAN_POINT('',(18.256264064,-4.5,-20.));
#517=DIRECTION('',(-1.,0.,-0.));
#518=VECTOR('',#517,7.);
#519=LINE('',#516,#518);
#520=EDGE_CURVE('',#364,#509,#519,.T.);
#521=ORIENTED_EDGE('',*,*,#520,.F.);
#522=ORIENTED_EDGE('',*,*,#369,.F.);
#523=ORIENTED_EDGE('',*,*,#497,.T.);
#524=EDGE_LOOP('',(#515,#521,#522,#523));
#525=FACE_BOUND('',#524,.T.);
#526=ADVANCED_FACE('',(#525),#507,.F.);
#527=CARTESIAN_POINT('',(18.256264064,-4.5,-20.));
#528=DIRECTION('',(-0.,0.,1.));
#529=DIRECTION('',(1.,0.,0.));
#530=AXIS2_PLACEMENT_3D('',#527,#528,#529);
#531=PLANE('',#530);
#532=ORIENTED_EDGE('',*,*,#520,.T.);
#533=CARTESIAN_POINT('',(11.256264064,-31.5,-20.));
#534=VERTEX_POINT('',#533);
#535=CARTESIAN_POINT('',(11.256264064,-4.5,-20.));
#536=DIRECTION('',(0.,-1.,0.));
#537=VECTOR('',#536,27.);
#538=LINE('',#535,#537);
#539=EDGE_CURVE('',#509,#534,#538,.T.);
#540=ORIENTED_EDGE('',*,*,#539,.T.);
#541=CARTESIAN_POINT('',(18.256264064,-31.5,-20.));
#542=VERTEX_POINT('',#541);
#543=CARTESIAN_POINT('',(18.256264064,-31.5,-20.));
#544=DIRECTION('',(-1.,0.,-0.));
#545=VECTOR('',#544,7.);
#546=LINE('',#543,#545);
#547=EDGE_CURVE('',#542,#534,#546,.T.);
#548=ORIENTED_EDGE('',*,*,#547,.F.);
#549=CARTESIAN_POINT('',(18.256264064,-40.5,-20.));
#550=VERTEX_POINT('',#549);
#551=CARTESIAN_POINT('',(18.256264064,-31.5,-20.));
#552=DIRECTION('',(0.,-1.,0.));
#553=VECTOR('',#552,9.);
#554=LINE('',#551,#553);
#555=EDGE_CURVE('',#542,#550,#554,.T.);
#556=ORIENTED_EDGE('',*,*,#555,.T.);
#557=CARTESIAN_POINT('',(8.256264064,-40.5,-20.));
#558=VERTEX_POINT('',#557);
#559=CARTESIAN_POINT('',(18.256264064,-40.5,-20.));
#560=DIRECTION('',(-1.,0.,-0.));
#561=VECTOR('',#560,10.);
#562=LINE('',#559,#561);
#563=EDGE_CURVE('',#550,#558,#562,.T.);
#564=ORIENTED_EDGE('',*,*,#563,.T.);
#565=CARTESIAN_POINT('',(8.256264064,40.5,-20.));
#566=VERTEX_POINT('',#565);
#567=CARTESIAN_POINT('',(8.256264064,40.5,-20.));
#568=DIRECTION('',(0.,-1.,0.));
#569=VECTOR('',#568,81.);
#570=LINE('',#567,#569);
#571=EDGE_CURVE('',#566,#558,#570,.T.);
#572=ORIENTED_EDGE('',*,*,#571,.F.);
#573=CARTESIAN_POINT('',(18.256264064,40.5,-20.));
#574=VERTEX_POINT('',#573);
#575=CARTESIAN_POINT('',(18.256264064,40.5,-20.));
#576=DIRECTION('',(-1.,0.,-0.));
#577=VECTOR('',#576,10.);
#578=LINE('',#575,#577);
#579=EDGE_CURVE('',#574,#566,#578,.T.);
#580=ORIENTED_EDGE('',*,*,#579,.F.);
#581=CARTESIAN_POINT('',(18.256264064,31.5,-20.));
#582=VERTEX_POINT('',#581);
#583=CARTESIAN_POINT('',(18.256264064,31.5,-20.));
#584=DIRECTION('',(0.,1.,0.));
#585=VECTOR('',#584,9.);
#586=LINE('',#583,#585);
#587=EDGE_CURVE('',#582,#574,#586,.T.);
#588=ORIENTED_EDGE('',*,*,#587,.F.);
#589=CARTESIAN_POINT('',(11.256264064,31.5,-20.));
#590=VERTEX_POINT('',#589);
#591=CARTESIAN_POINT('',(18.256264064,31.5,-20.));
#592=DIRECTION('',(-1.,0.,-0.));
#593=VECTOR('',#592,7.);
#594=LINE('',#591,#593);
#595=EDGE_CURVE('',#582,#590,#594,.T.);
#596=ORIENTED_EDGE('',*,*,#595,.T.);
#597=CARTESIAN_POINT('',(11.256264064,4.5,-20.));
#598=VERTEX_POINT('',#597);
#599=CARTESIAN_POINT('',(11.256264064,31.5,-20.));
#600=DIRECTION('',(0.,-1.,0.));
#601=VECTOR('',#600,27.);
#602=LINE('',#599,#601);
#603=EDGE_CURVE('',#590,#598,#602,.T.);
#604=ORIENTED_EDGE('',*,*,#603,.T.);
#605=CARTESIAN_POINT('',(18.256264064,4.5,-20.));
#606=DIRECTION('',(-1.,0.,-0.));
#607=VECTOR('',#606,7.);
#608=LINE('',#605,#607);
#609=EDGE_CURVE('',#372,#598,#608,.T.);
#610=ORIENTED_EDGE('',*,*,#609,.F.);
#611=ORIENTED_EDGE('',*,*,#377,.F.);
#612=EDGE_LOOP('',(#532,#540,#548,#556,#564,#572,#580,#588,#596,#604,#610,#611));
#613=FACE_BOUND('',#612,.T.);
#614=ADVANCED_FACE('',(#613),#531,.F.);
#615=CARTESIAN_POINT('',(18.256264064,4.5,-20.));
#616=DIRECTION('',(0.,-1.,0.));
#617=DIRECTION('',(-1.,0.,-0.));
#618=AXIS2_PLACEMENT_3D('',#615,#616,#617);
#619=PLANE('',#618);
#620=CARTESIAN_POINT('',(11.256264064,4.5,-20.));
#621=DIRECTION('',(-0.,0.,1.));
#622=VECTOR('',#621,18.);
#623=LINE('',#620,#622);
#624=EDGE_CURVE('',#598,#414,#623,.T.);
#625=ORIENTED_EDGE('',*,*,#624,.T.);
#626=ORIENTED_EDGE('',*,*,#419,.F.);
#627=ORIENTED_EDGE('',*,*,#383,.F.);
#628=ORIENTED_EDGE('',*,*,#609,.T.);
#629=EDGE_LOOP('',(#625,#626,#627,#628));
#630=FACE_BOUND('',#629,.T.);
#631=ADVANCED_FACE('',(#630),#619,.F.);
#632=CARTESIAN_POINT('',(-16.70978876,-0.,-6.5));
#633=DIRECTION('',(1.,0.,0.));
#634=DIRECTION('',(0.,-1.,0.));
#635=AXIS2_PLACEMENT_3D('',#632,#633,#634);
#636=CYLINDRICAL_SURFACE('',#635,1.85);
#637=CARTESIAN_POINT('',(8.256264064,-1.85,-6.5));
#638=VERTEX_POINT('',#637);
#639=CARTESIAN_POINT('',(18.256264064,-1.85,-6.5));
#640=DIRECTION('',(-1.,-0.,-0.));
#641=VECTOR('',#640,10.);
#642=LINE('',#639,#641);
#643=EDGE_CURVE('',#336,#638,#642,.T.);
#644=ORIENTED_EDGE('',*,*,#643,.F.);
#645=ORIENTED_EDGE('',*,*,#342,.F.);
#646=ORIENTED_EDGE('',*,*,#349,.F.);
#647=ORIENTED_EDGE('',*,*,#643,.T.);
#648=CARTESIAN_POINT('',(8.256264064,-0.,-8.35));
#649=VERTEX_POINT('',#648);
#650=CARTESIAN_POINT('',(8.256264064,-0.,-6.5));
#651=DIRECTION('',(-1.,-0.,-0.));
#652=DIRECTION('',(0.,0.,-1.));
#653=AXIS2_PLACEMENT_3D('',#650,#651,#652);
#654=CIRCLE('',#653,1.85);
#655=EDGE_CURVE('',#638,#649,#654,.T.);
#656=ORIENTED_EDGE('',*,*,#655,.T.);
#657=CARTESIAN_POINT('',(8.256264064,-0.,-6.5));
#658=DIRECTION('',(-1.,-0.,-0.));
#659=DIRECTION('',(0.,0.,-1.));
#660=AXIS2_PLACEMENT_3D('',#657,#658,#659);
#661=CIRCLE('',#660,1.85);
#662=EDGE_CURVE('',#649,#638,#661,.T.);
#663=ORIENTED_EDGE('',*,*,#662,.T.);
#664=EDGE_LOOP('',(#644,#645,#646,#647,#656,#663));
#665=FACE_BOUND('',#664,.T.);
#666=ADVANCED_FACE('',(#665),#636,.F.);
#667=CARTESIAN_POINT('',(-16.70978876,-0.,-15.5));
#668=DIRECTION('',(1.,0.,0.));
#669=DIRECTION('',(0.,-1.,0.));
#670=AXIS2_PLACEMENT_3D('',#667,#668,#669);
#671=CYLINDRICAL_SURFACE('',#670,1.85);
#672=CARTESIAN_POINT('',(8.256264064,-1.85,-15.5));
#673=VERTEX_POINT('',#672);
#674=CARTESIAN_POINT('',(18.256264064,-1.85,-15.5));
#675=DIRECTION('',(-1.,-0.,-0.));
#676=VECTOR('',#675,10.);
#677=LINE('',#674,#676);
#678=EDGE_CURVE('',#388,#673,#677,.T.);
#679=ORIENTED_EDGE('',*,*,#678,.F.);
#680=ORIENTED_EDGE('',*,*,#396,.T.);
#681=ORIENTED_EDGE('',*,*,#403,.T.);
#682=ORIENTED_EDGE('',*,*,#678,.T.);
#683=CARTESIAN_POINT('',(8.256264064,-0.,-17.35));
#684=VERTEX_POINT('',#683);
#685=CARTESIAN_POINT('',(8.256264064,-0.,-15.5));
#686=DIRECTION('',(1.,0.,0.));
#687=DIRECTION('',(0.,0.,-1.));
#688=AXIS2_PLACEMENT_3D('',#685,#686,#687);
#689=CIRCLE('',#688,1.85);
#690=EDGE_CURVE('',#684,#673,#689,.T.);
#691=ORIENTED_EDGE('',*,*,#690,.F.);
#692=CARTESIAN_POINT('',(8.256264064,-0.,-15.5));
#693=DIRECTION('',(1.,0.,0.));
#694=DIRECTION('',(0.,0.,-1.));
#695=AXIS2_PLACEMENT_3D('',#692,#693,#694);
#696=CIRCLE('',#695,1.85);
#697=EDGE_CURVE('',#673,#684,#696,.T.);
#698=ORIENTED_EDGE('',*,*,#697,.F.);
#699=EDGE_LOOP('',(#679,#680,#681,#682,#691,#698));
#700=FACE_BOUND('',#699,.T.);
#701=ADVANCED_FACE('',(#700),#671,.F.);
#702=CARTESIAN_POINT('',(11.256264064,0.,-11.));
#703=DIRECTION('',(1.,0.,0.));
#704=DIRECTION('',(0.,0.,-1.));
#705=AXIS2_PLACEMENT_3D('',#702,#703,#704);
#706=PLANE('',#705);
#707=ORIENTED_EDGE('',*,*,#624,.F.);
#708=ORIENTED_EDGE('',*,*,#603,.F.);
#709=CARTESIAN_POINT('',(11.256264064,31.5,-2.));
#710=DIRECTION('',(0.,0.,-1.));
#711=VECTOR('',#710,18.);
#712=LINE('',#709,#711);
#713=EDGE_CURVE('',#422,#590,#712,.T.);
#714=ORIENTED_EDGE('',*,*,#713,.F.);
#715=ORIENTED_EDGE('',*,*,#427,.F.);
#716=EDGE_LOOP('',(#707,#708,#714,#715));
#717=FACE_BOUND('',#716,.T.);
#718=ADVANCED_FACE('',(#717),#706,.T.);
#719=CARTESIAN_POINT('',(11.256264064,0.,-11.));
#720=DIRECTION('',(1.,0.,0.));
#721=DIRECTION('',(0.,0.,-1.));
#722=AXIS2_PLACEMENT_3D('',#719,#720,#721);
#723=PLANE('',#722);
#724=ORIENTED_EDGE('',*,*,#514,.F.);
#725=ORIENTED_EDGE('',*,*,#491,.F.);
#726=CARTESIAN_POINT('',(11.256264064,-31.5,-20.));
#727=DIRECTION('',(-0.,0.,1.));
#728=VECTOR('',#727,18.);
#729=LINE('',#726,#728);
#730=EDGE_CURVE('',#534,#478,#729,.T.);
#731=ORIENTED_EDGE('',*,*,#730,.F.);
#732=ORIENTED_EDGE('',*,*,#539,.F.);
#733=EDGE_LOOP('',(#724,#725,#731,#732));
#734=FACE_BOUND('',#733,.T.);
#735=ADVANCED_FACE('',(#734),#723,.T.);
#736=CARTESIAN_POINT('',(18.256264064,0.,-11.));
#737=DIRECTION('',(1.,0.,0.));
#738=DIRECTION('',(0.,0.,-1.));
#739=AXIS2_PLACEMENT_3D('',#736,#737,#738);
#740=PLANE('',#739);
#741=CARTESIAN_POINT('',(18.256264064,37.591709129,-14.55715216));
#742=VERTEX_POINT('',#741);
#743=CARTESIAN_POINT('',(18.256264064,34.15,-15.5));
#744=VERTEX_POINT('',#743);
#745=CARTESIAN_POINT('',(18.256264064,36.,-15.5));
#746=DIRECTION('',(-1.,0.,-0.));
#747=DIRECTION('',(-0.,0.860383313,0.509647481));
#748=AXIS2_PLACEMENT_3D('',#745,#746,#747);
#749=CIRCLE('',#748,1.85);
#750=EDGE_CURVE('',#742,#744,#749,.T.);
#751=ORIENTED_EDGE('',*,*,#750,.T.);
#752=CARTESIAN_POINT('',(18.256264064,36.,-15.5));
#753=DIRECTION('',(-1.,0.,-0.));
#754=DIRECTION('',(-0.,0.860383313,0.509647481));
#755=AXIS2_PLACEMENT_3D('',#752,#753,#754);
#756=CIRCLE('',#755,1.85);
#757=EDGE_CURVE('',#744,#742,#756,.T.);
#758=ORIENTED_EDGE('',*,*,#757,.T.);
#759=EDGE_LOOP('',(#751,#758));
#760=FACE_BOUND('',#759,.T.);
#761=CARTESIAN_POINT('',(18.256264064,40.5,-20.));
#762=DIRECTION('',(-0.,0.,1.));
#763=VECTOR('',#762,18.);
#764=LINE('',#761,#763);
#765=EDGE_CURVE('',#574,#438,#764,.T.);
#766=ORIENTED_EDGE('',*,*,#765,.T.);
#767=ORIENTED_EDGE('',*,*,#443,.T.);
#768=CARTESIAN_POINT('',(18.256264064,31.5,-2.));
#769=DIRECTION('',(0.,0.,-1.));
#770=VECTOR('',#769,18.);
#771=LINE('',#768,#770);
#772=EDGE_CURVE('',#430,#582,#771,.T.);
#773=ORIENTED_EDGE('',*,*,#772,.T.);
#774=ORIENTED_EDGE('',*,*,#587,.T.);
#775=EDGE_LOOP('',(#766,#767,#773,#774));
#776=FACE_BOUND('',#775,.T.);
#777=CARTESIAN_POINT('',(18.256264064,34.15,-6.5));
#778=VERTEX_POINT('',#777);
#779=CARTESIAN_POINT('',(18.256264064,37.591709129,-7.44284784));
#780=VERTEX_POINT('',#779);
#781=CARTESIAN_POINT('',(18.256264064,36.,-6.5));
#782=DIRECTION('',(1.,0.,0.));
#783=DIRECTION('',(0.,0.860383313,-0.509647481));
#784=AXIS2_PLACEMENT_3D('',#781,#782,#783);
#785=CIRCLE('',#784,1.85);
#786=EDGE_CURVE('',#778,#780,#785,.T.);
#787=ORIENTED_EDGE('',*,*,#786,.F.);
#788=CARTESIAN_POINT('',(18.256264064,36.,-6.5));
#789=DIRECTION('',(1.,0.,0.));
#790=DIRECTION('',(0.,0.860383313,-0.509647481));
#791=AXIS2_PLACEMENT_3D('',#788,#789,#790);
#792=CIRCLE('',#791,1.85);
#793=EDGE_CURVE('',#780,#778,#792,.T.);
#794=ORIENTED_EDGE('',*,*,#793,.F.);
#795=EDGE_LOOP('',(#787,#794));
#796=FACE_BOUND('',#795,.T.);
#797=ADVANCED_FACE('',(#760,#776,#796),#740,.T.);
#798=CARTESIAN_POINT('',(18.256264064,40.5,-20.));
#799=DIRECTION('',(0.,-1.,0.));
#800=DIRECTION('',(-1.,0.,-0.));
#801=AXIS2_PLACEMENT_3D('',#798,#799,#800);
#802=PLANE('',#801);
#803=ORIENTED_EDGE('',*,*,#579,.T.);
#804=CARTESIAN_POINT('',(8.256264064,40.5,-20.));
#805=DIRECTION('',(-0.,0.,1.));
#806=VECTOR('',#805,18.);
#807=LINE('',#804,#806);
#808=EDGE_CURVE('',#566,#446,#807,.T.);
#809=ORIENTED_EDGE('',*,*,#808,.T.);
#810=ORIENTED_EDGE('',*,*,#451,.F.);
#811=ORIENTED_EDGE('',*,*,#765,.F.);
#812=EDGE_LOOP('',(#803,#809,#810,#811));
#813=FACE_BOUND('',#812,.T.);
#814=ADVANCED_FACE('',(#813),#802,.F.);
#815=CARTESIAN_POINT('',(18.256264064,31.5,-2.));
#816=DIRECTION('',(0.,1.,0.));
#817=DIRECTION('',(1.,0.,0.));
#818=AXIS2_PLACEMENT_3D('',#815,#816,#817);
#819=PLANE('',#818);
#820=ORIENTED_EDGE('',*,*,#713,.T.);
#821=ORIENTED_EDGE('',*,*,#595,.F.);
#822=ORIENTED_EDGE('',*,*,#772,.F.);
#823=ORIENTED_EDGE('',*,*,#435,.T.);
#824=EDGE_LOOP('',(#820,#821,#822,#823));
#825=FACE_BOUND('',#824,.T.);
#826=ADVANCED_FACE('',(#825),#819,.F.);
#827=CARTESIAN_POINT('',(-16.70978876,36.,-15.5));
#828=DIRECTION('',(1.,0.,0.));
#829=DIRECTION('',(0.,-1.,0.));
#830=AXIS2_PLACEMENT_3D('',#827,#828,#829);
#831=CYLINDRICAL_SURFACE('',#830,1.85);
#832=CARTESIAN_POINT('',(8.256264064,34.15,-15.5));
#833=VERTEX_POINT('',#832);
#834=CARTESIAN_POINT('',(18.256264064,34.15,-15.5));
#835=DIRECTION('',(-1.,-0.,-0.));
#836=VECTOR('',#835,10.);
#837=LINE('',#834,#836);
#838=EDGE_CURVE('',#744,#833,#837,.T.);
#839=ORIENTED_EDGE('',*,*,#838,.F.);
#840=ORIENTED_EDGE('',*,*,#750,.F.);
#841=ORIENTED_EDGE('',*,*,#757,.F.);
#842=ORIENTED_EDGE('',*,*,#838,.T.);
#843=CARTESIAN_POINT('',(8.256264064,36.,-17.35));
#844=VERTEX_POINT('',#843);
#845=CARTESIAN_POINT('',(8.256264064,36.,-15.5));
#846=DIRECTION('',(-1.,-0.,-0.));
#847=DIRECTION('',(0.,0.,-1.));
#848=AXIS2_PLACEMENT_3D('',#845,#846,#847);
#849=CIRCLE('',#848,1.85);
#850=EDGE_CURVE('',#833,#844,#849,.T.);
#851=ORIENTED_EDGE('',*,*,#850,.T.);
#852=CARTESIAN_POINT('',(8.256264064,36.,-15.5));
#853=DIRECTION('',(-1.,-0.,-0.));
#854=DIRECTION('',(0.,0.,-1.));
#855=AXIS2_PLACEMENT_3D('',#852,#853,#854);
#856=CIRCLE('',#855,1.85);
#857=EDGE_CURVE('',#844,#833,#856,.T.);
#858=ORIENTED_EDGE('',*,*,#857,.T.);
#859=EDGE_LOOP('',(#839,#840,#841,#842,#851,#858));
#860=FACE_BOUND('',#859,.T.);
#861=ADVANCED_FACE('',(#860),#831,.F.);
#862=CARTESIAN_POINT('',(-16.70978876,36.,-6.5));
#863=DIRECTION('',(1.,0.,0.));
#864=DIRECTION('',(0.,-1.,0.));
#865=AXIS2_PLACEMENT_3D('',#862,#863,#864);
#866=CYLINDRICAL_SURFACE('',#865,1.85);
#867=CARTESIAN_POINT('',(8.256264064,34.15,-6.5));
#868=VERTEX_POINT('',#867);
#869=CARTESIAN_POINT('',(18.256264064,34.15,-6.5));
#870=DIRECTION('',(-1.,-0.,-0.));
#871=VECTOR('',#870,10.);
#872=LINE('',#869,#871);
#873=EDGE_CURVE('',#778,#868,#872,.T.);
#874=ORIENTED_EDGE('',*,*,#873,.F.);
#875=ORIENTED_EDGE('',*,*,#786,.T.);
#876=ORIENTED_EDGE('',*,*,#793,.T.);
#877=ORIENTED_EDGE('',*,*,#873,.T.);
#878=CARTESIAN_POINT('',(8.256264064,36.,-8.35));
#879=VERTEX_POINT('',#878);
#880=CARTESIAN_POINT('',(8.256264064,36.,-6.5));
#881=DIRECTION('',(1.,0.,0.));
#882=DIRECTION('',(0.,0.,-1.));
#883=AXIS2_PLACEMENT_3D('',#880,#881,#882);
#884=CIRCLE('',#883,1.85);
#885=EDGE_CURVE('',#879,#868,#884,.T.);
#886=ORIENTED_EDGE('',*,*,#885,.F.);
#887=CARTESIAN_POINT('',(8.256264064,36.,-6.5));
#888=DIRECTION('',(1.,0.,0.));
#889=DIRECTION('',(0.,0.,-1.));
#890=AXIS2_PLACEMENT_3D('',#887,#888,#889);
#891=CIRCLE('',#890,1.85);
#892=EDGE_CURVE('',#868,#879,#891,.T.);
#893=ORIENTED_EDGE('',*,*,#892,.F.);
#894=EDGE_LOOP('',(#874,#875,#876,#877,#886,#893));
#895=FACE_BOUND('',#894,.T.);
#896=ADVANCED_FACE('',(#895),#866,.F.);
#897=CARTESIAN_POINT('',(18.256264064,0.,-11.));
#898=DIRECTION('',(1.,0.,0.));
#899=DIRECTION('',(0.,0.,-1.));
#900=AXIS2_PLACEMENT_3D('',#897,#898,#899);
#901=PLANE('',#900);
#902=CARTESIAN_POINT('',(18.256264064,-37.591709129,-7.44284784));
#903=VERTEX_POINT('',#902);
#904=CARTESIAN_POINT('',(18.256264064,-37.85,-6.5));
#905=VERTEX_POINT('',#904);
#906=CARTESIAN_POINT('',(18.256264064,-36.,-6.5));
#907=DIRECTION('',(-1.,-0.,-0.));
#908=DIRECTION('',(0.,-0.860383313,-0.509647481));
#909=AXIS2_PLACEMENT_3D('',#906,#907,#908);
#910=CIRCLE('',#909,1.85);
#911=EDGE_CURVE('',#903,#905,#910,.T.);
#912=ORIENTED_EDGE('',*,*,#911,.T.);
#913=CARTESIAN_POINT('',(18.256264064,-36.,-6.5));
#914=DIRECTION('',(-1.,-0.,-0.));
#915=DIRECTION('',(0.,-0.860383313,-0.509647481));
#916=AXIS2_PLACEMENT_3D('',#913,#914,#915);
#917=CIRCLE('',#916,1.85);
#918=EDGE_CURVE('',#905,#903,#917,.T.);
#919=ORIENTED_EDGE('',*,*,#918,.T.);
#920=EDGE_LOOP('',(#912,#919));
#921=FACE_BOUND('',#920,.T.);
#922=ORIENTED_EDGE('',*,*,#555,.F.);
#923=CARTESIAN_POINT('',(18.256264064,-31.5,-20.));
#924=DIRECTION('',(-0.,0.,1.));
#925=VECTOR('',#924,18.);
#926=LINE('',#923,#925);
#927=EDGE_CURVE('',#542,#470,#926,.T.);
#928=ORIENTED_EDGE('',*,*,#927,.T.);
#929=ORIENTED_EDGE('',*,*,#475,.F.);
#930=CARTESIAN_POINT('',(18.256264064,-40.5,-20.));
#931=DIRECTION('',(-0.,0.,1.));
#932=VECTOR('',#931,18.);
#933=LINE('',#930,#932);
#934=EDGE_CURVE('',#550,#462,#933,.T.);
#935=ORIENTED_EDGE('',*,*,#934,.F.);
#936=EDGE_LOOP('',(#922,#928,#929,#935));
#937=FACE_BOUND('',#936,.T.);
#938=CARTESIAN_POINT('',(18.256264064,-37.85,-15.5));
#939=VERTEX_POINT('',#938);
#940=CARTESIAN_POINT('',(18.256264064,-37.591709129,-14.55715216));
#941=VERTEX_POINT('',#940);
#942=CARTESIAN_POINT('',(18.256264064,-36.,-15.5));
#943=DIRECTION('',(1.,0.,0.));
#944=DIRECTION('',(0.,-0.860383313,0.509647481));
#945=AXIS2_PLACEMENT_3D('',#942,#943,#944);
#946=CIRCLE('',#945,1.85);
#947=EDGE_CURVE('',#939,#941,#946,.T.);
#948=ORIENTED_EDGE('',*,*,#947,.F.);
#949=CARTESIAN_POINT('',(18.256264064,-36.,-15.5));
#950=DIRECTION('',(1.,0.,0.));
#951=DIRECTION('',(0.,-0.860383313,0.509647481));
#952=AXIS2_PLACEMENT_3D('',#949,#950,#951);
#953=CIRCLE('',#952,1.85);
#954=EDGE_CURVE('',#941,#939,#953,.T.);
#955=ORIENTED_EDGE('',*,*,#954,.F.);
#956=EDGE_LOOP('',(#948,#955));
#957=FACE_BOUND('',#956,.T.);
#958=ADVANCED_FACE('',(#921,#937,#957),#901,.T.);
#959=CARTESIAN_POINT('',(18.256264064,-31.5,-20.));
#960=DIRECTION('',(0.,-1.,0.));
#961=DIRECTION('',(-1.,0.,-0.));
#962=AXIS2_PLACEMENT_3D('',#959,#960,#961);
#963=PLANE('',#962);
#964=ORIENTED_EDGE('',*,*,#730,.T.);
#965=ORIENTED_EDGE('',*,*,#483,.F.);
#966=ORIENTED_EDGE('',*,*,#927,.F.);
#967=ORIENTED_EDGE('',*,*,#547,.T.);
#968=EDGE_LOOP('',(#964,#965,#966,#967));
#969=FACE_BOUND('',#968,.T.);
#970=ADVANCED_FACE('',(#969),#963,.F.);
#971=CARTESIAN_POINT('',(18.256264064,-40.5,-20.));
#972=DIRECTION('',(0.,-1.,0.));
#973=DIRECTION('',(-1.,0.,-0.));
#974=AXIS2_PLACEMENT_3D('',#971,#972,#973);
#975=PLANE('',#974);
#976=ORIENTED_EDGE('',*,*,#467,.T.);
#977=CARTESIAN_POINT('',(8.256264064,-40.5,-20.));
#978=DIRECTION('',(-0.,0.,1.));
#979=VECTOR('',#978,18.);
#980=LINE('',#977,#979);
#981=EDGE_CURVE('',#558,#454,#980,.T.);
#982=ORIENTED_EDGE('',*,*,#981,.F.);
#983=ORIENTED_EDGE('',*,*,#563,.F.);
#984=ORIENTED_EDGE('',*,*,#934,.T.);
#985=EDGE_LOOP('',(#976,#982,#983,#984));
#986=FACE_BOUND('',#985,.T.);
#987=ADVANCED_FACE('',(#986),#975,.T.);
#988=CARTESIAN_POINT('',(-16.70978876,-36.,-6.5));
#989=DIRECTION('',(1.,0.,0.));
#990=DIRECTION('',(0.,-1.,0.));
#991=AXIS2_PLACEMENT_3D('',#988,#989,#990);
#992=CYLINDRICAL_SURFACE('',#991,1.85);
#993=CARTESIAN_POINT('',(8.256264064,-37.85,-6.5));
#994=VERTEX_POINT('',#993);
#995=CARTESIAN_POINT('',(18.256264064,-37.85,-6.5));
#996=DIRECTION('',(-1.,-0.,-0.));
#997=VECTOR('',#996,10.);
#998=LINE('',#995,#997);
#999=EDGE_CURVE('',#905,#994,#998,.T.);
#1000=ORIENTED_EDGE('',*,*,#999,.F.);
#1001=ORIENTED_EDGE('',*,*,#911,.F.);
#1002=ORIENTED_EDGE('',*,*,#918,.F.);
#1003=ORIENTED_EDGE('',*,*,#999,.T.);
#1004=CARTESIAN_POINT('',(8.256264064,-36.,-8.35));
#1005=VERTEX_POINT('',#1004);
#1006=CARTESIAN_POINT('',(8.256264064,-36.,-6.5));
#1007=DIRECTION('',(-1.,-0.,-0.));
#1008=DIRECTION('',(0.,0.,-1.));
#1009=AXIS2_PLACEMENT_3D('',#1006,#1007,#1008);
#1010=CIRCLE('',#1009,1.85);
#1011=EDGE_CURVE('',#994,#1005,#1010,.T.);
#1012=ORIENTED_EDGE('',*,*,#1011,.T.);
#1013=CARTESIAN_POINT('',(8.256264064,-36.,-6.5));
#1014=DIRECTION('',(-1.,-0.,-0.));
#1015=DIRECTION('',(0.,0.,-1.));
#1016=AXIS2_PLACEMENT_3D('',#1013,#1014,#1015);
#1017=CIRCLE('',#1016,1.85);
#1018=EDGE_CURVE('',#1005,#994,#1017,.T.);
#1019=ORIENTED_EDGE('',*,*,#1018,.T.);
#1020=EDGE_LOOP('',(#1000,#1001,#1002,#1003,#1012,#1019));
#1021=FACE_BOUND('',#1020,.T.);
#1022=ADVANCED_FACE('',(#1021),#992,.F.);
#1023=CARTESIAN_POINT('',(-16.70978876,-36.,-15.5));
#1024=DIRECTION('',(1.,0.,0.));
#1025=DIRECTION('',(0.,-1.,0.));
#1026=AXIS2_PLACEMENT_3D('',#1023,#1024,#1025);
#1027=CYLINDRICAL_SURFACE('',#1026,1.85);
#1028=CARTESIAN_POINT('',(8.256264064,-37.85,-15.5));
#1029=VERTEX_POINT('',#1028);
#1030=CARTESIAN_POINT('',(18.256264064,-37.85,-15.5));
#1031=DIRECTION('',(-1.,-0.,-0.));
#1032=VECTOR('',#1031,10.);
#1033=LINE('',#1030,#1032);
#1034=EDGE_CURVE('',#939,#1029,#1033,.T.);
#1035=ORIENTED_EDGE('',*,*,#1034,.F.);
#1036=ORIENTED_EDGE('',*,*,#947,.T.);
#1037=ORIENTED_EDGE('',*,*,#954,.T.);
#1038=ORIENTED_EDGE('',*,*,#1034,.T.);
#1039=CARTESIAN_POINT('',(8.256264064,-36.,-17.35));
#1040=VERTEX_POINT('',#1039);
#1041=CARTESIAN_POINT('',(8.256264064,-36.,-15.5));
#1042=DIRECTION('',(1.,0.,0.));
#1043=DIRECTION('',(0.,0.,-1.));
#1044=AXIS2_PLACEMENT_3D('',#1041,#1042,#1043);
#1045=CIRCLE('',#1044,1.85);
#1046=EDGE_CURVE('',#1040,#1029,#1045,.T.);
#1047=ORIENTED_EDGE('',*,*,#1046,.F.);
#1048=CARTESIAN_POINT('',(8.256264064,-36.,-15.5));
#1049=DIRECTION('',(1.,0.,0.));
#1050=DIRECTION('',(0.,0.,-1.));
#1051=AXIS2_PLACEMENT_3D('',#1048,#1049,#1050);
#1052=CIRCLE('',#1051,1.85);
#1053=EDGE_CURVE('',#1029,#1040,#1052,.T.);
#1054=ORIENTED_EDGE('',*,*,#1053,.F.);
#1055=EDGE_LOOP('',(#1035,#1036,#1037,#1038,#1047,#1054));
#1056=FACE_BOUND('',#1055,.T.);
#1057=ADVANCED_FACE('',(#1056),#1027,.F.);
#1058=CARTESIAN_POINT('',(8.256264064,0.,-11.));
#1059=DIRECTION('',(1.,0.,0.));
#1060=DIRECTION('',(0.,0.,-1.));
#1061=AXIS2_PLACEMENT_3D('',#1058,#1059,#1060);
#1062=PLANE('',#1061);
#1063=ORIENTED_EDGE('',*,*,#690,.T.);
#1064=ORIENTED_EDGE('',*,*,#697,.T.);
#1065=EDGE_LOOP('',(#1063,#1064));
#1066=FACE_BOUND('',#1065,.T.);
#1067=ORIENTED_EDGE('',*,*,#655,.F.);
#1068=ORIENTED_EDGE('',*,*,#662,.F.);
#1069=EDGE_LOOP('',(#1067,#1068));
#1070=FACE_BOUND('',#1069,.T.);
#1071=ORIENTED_EDGE('',*,*,#571,.T.);
#1072=ORIENTED_EDGE('',*,*,#981,.T.);
#1073=ORIENTED_EDGE('',*,*,#459,.T.);
#1074=ORIENTED_EDGE('',*,*,#808,.F.);
#1075=EDGE_LOOP('',(#1071,#1072,#1073,#1074));
#1076=FACE_BOUND('',#1075,.T.);
#1077=ORIENTED_EDGE('',*,*,#1011,.F.);
#1078=ORIENTED_EDGE('',*,*,#1018,.F.);
#1079=EDGE_LOOP('',(#1077,#1078));
#1080=FACE_BOUND('',#1079,.T.);
#1081=ORIENTED_EDGE('',*,*,#850,.F.);
#1082=ORIENTED_EDGE('',*,*,#857,.F.);
#1083=EDGE_LOOP('',(#1081,#1082));
#1084=FACE_BOUND('',#1083,.T.);
#1085=ORIENTED_EDGE('',*,*,#1046,.T.);
#1086=ORIENTED_EDGE('',*,*,#1053,.T.);
#1087=EDGE_LOOP('',(#1085,#1086));
#1088=FACE_BOUND('',#1087,.T.);
#1089=ORIENTED_EDGE('',*,*,#885,.T.);
#1090=ORIENTED_EDGE('',*,*,#892,.T.);
#1091=EDGE_LOOP('',(#1089,#1090));
#1092=FACE_BOUND('',#1091,.T.);
#1093=ADVANCED_FACE('',(#1066,#1070,#1076,#1080,#1084,#1088,#1092),#1062,.F.);
#1094=CLOSED_SHELL('',(#407,#502,#526,#614,#631,#666,#701,#718,#735,#797,#814,#826,#861,#896,#958,#970,#987,#1022,#1057,#1093));
#1095=MANIFOLD_SOLID_BREP('Extruded.001',#1094);
#327=STYLED_ITEM('',(),#1095);
#39=SHAPE_REPRESENTATION('flywheel_holder_tester.plasticity',(#38),#33);
#40=ADVANCED_BREP_SHAPE_REPRESENTATION('flywheel_holder_tester.plasticity',(#326,#1095),#33);
#1103=SHAPE_REPRESENTATION_RELATIONSHIP('','',#39,#40);
#1104=APPLICATION_CONTEXT('configuration controlled 3D design of mechanical parts and assemblies');
#1105=APPLICATION_PROTOCOL_DEFINITION('international standard','configuration_control_3d_design_ed2_mim',2004,#1104);
#1106=PRODUCT_CONTEXT('',#1104,'mechanical');
#1107=PRODUCT_DEFINITION_CONTEXT('part definition',#1104,'design');
#47=PRODUCT('0','0','',(#1106));
#1108=PRODUCT_RELATED_PRODUCT_CATEGORY('part','',(#47));
#1109=PRODUCT_DEFINITION_FORMATION_WITH_SPECIFIED_SOURCE('','',#47,.NOT_KNOWN.);
#48=PRODUCT_DEFINITION('design','',#1109,#1107);
#46=PRODUCT_DEFINITION_SHAPE('','',#48);
#1110=SHAPE_DEFINITION_REPRESENTATION(#46,#39);
#34=DRAUGHTING_MODEL('',(),#33);
#16=SHAPE_REPRESENTATION('root',(#15,#52),#10);
#24=PRODUCT('root','root','',(#1106));
#1111=PRODUCT_RELATED_PRODUCT_CATEGORY('part','',(#24));
#1112=PRODUCT_DEFINITION_FORMATION_WITH_SPECIFIED_SOURCE('','',#24,.NOT_KNOWN.);
#25=PRODUCT_DEFINITION('design','',#1112,#1107);
#23=PRODUCT_DEFINITION_SHAPE('','',#25);
#1113=SHAPE_DEFINITION_REPRESENTATION(#23,#16);
#11=DRAUGHTING_MODEL('',(),#10);
#1=MECHANICAL_DESIGN_GEOMETRIC_PRESENTATION_REPRESENTATION('',(#58,#327),#10);
ENDSEC;
END-ISO-10303-21;
