ISO-10303-21;
HEADER;

/* File generated by HOOPS Exchange Version 25.8.0 */

FILE_DESCRIPTION(('HOOPS Exchange Step'),'2;1');

FILE_NAME('/home/tfannes/prints/260705_nerf_shooter/NerfShooter_PartR.step',
'2026-07-11T17:12:03+02:00',
('tfannes'),
('Unknown organisation'),
'HOOPS Exchange 2025.8',
'HOOPS Exchange',
'Unknown authorisation');

FILE_SCHEMA( ('AP203_CONFIGURATION_CONTROLLED_3D_DESIGN_OF_MECHANICAL_PARTS_AND_ASSEMBLIES_MIM_LF') );

ENDSEC;

DATA;
#3=(NAMED_UNIT(*)PLANE_ANGLE_UNIT()SI_UNIT($,.RADIAN.));
#4=PLANE_ANGLE_MEASURE_WITH_UNIT(PLANE_ANGLE_MEASURE(0.0174532925),#3);
#5=(CONVERSION_BASED_UNIT('DEGREE',#4)NAMED_UNIT(#6)PLANE_ANGLE_UNIT());
#6=DIMENSIONAL_EXPONENTS(0.,0.,0.,0.,0.,0.,0.);
#7=(NAMED_UNIT(*)SI_UNIT($,.STERADIAN.)SOLID_ANGLE_UNIT());
#8=(LENGTH_UNIT()NAMED_UNIT(*)SI_UNIT(.MILLI.,.METRE.));
#9=UNCERTAINTY_MEASURE_WITH_UNIT(LENGTH_MEASURE(1.000000E-05),#8,'DISTANCE_ACCURACY_VALUE','Maximum Tolerance applied to model');
#10=(GEOMETRIC_REPRESENTATION_CONTEXT(3)GLOBAL_UNCERTAINTY_ASSIGNED_CONTEXT((#9))GLOBAL_UNIT_ASSIGNED_CONTEXT((#8,#5,#7))REPRESENTATION_CONTEXT('','root'));
#12=CARTESIAN_POINT('',(0.,0.,0.));
#13=DIRECTION('',(0.,0.,1.));
#14=DIRECTION('',(1.,0.,0.));
#15=AXIS2_PLACEMENT_3D('TS3D_PRODUCT_CSYS',#12,#13,#14);
#27=CARTESIAN_POINT('',(-94.55,-11.8,20.8));
#28=CARTESIAN_POINT('',(-62.05,-11.8,20.8));
#29=CARTESIAN_POINT('',(-94.55,-11.8,33.3));
#30=CARTESIAN_POINT('',(-62.05,-11.8,33.3));
#31=B_SPLINE_SURFACE_WITH_KNOTS('',1,1,((#27,#28),(#29,#30)),.UNSPECIFIED.,.F.,.F.,.U.,(2,2),(2,2),(0.03800006,0.05050006),(-0.023542064,0.008957936),.UNSPECIFIED.);
#32=CARTESIAN_POINT('',(-68.3,-11.8,28.75));
#33=VERTEX_POINT('',#32);
#34=CARTESIAN_POINT('',(-68.3,-11.8,25.35));
#35=VERTEX_POINT('',#34);
#36=CARTESIAN_POINT('',(-68.3,-11.8,28.75));
#37=CARTESIAN_POINT('',(-70.,-11.8,28.75));
#38=CARTESIAN_POINT('',(-70.,-11.8,27.05));
#39=CARTESIAN_POINT('',(-70.,-11.8,25.35));
#40=CARTESIAN_POINT('',(-68.3,-11.8,25.35));
#41=CARTESIAN_POINT('',(-66.6,-11.8,25.35));
#42=CARTESIAN_POINT('',(-66.6,-11.8,27.05));
#43=CARTESIAN_POINT('',(-66.6,-11.8,28.75));
#44=CARTESIAN_POINT('',(-68.3,-11.8,28.75));
#45=(BOUNDED_CURVE()
B_SPLINE_CURVE(2,(#36,#37,#38,#39,#40,#41,#42,#43,#44),.UNSPECIFIED.,.T.,.F.)
B_SPLINE_CURVE_WITH_KNOTS((3,2,2,2,3),(0.,1.570796327,3.141592654,4.71238898,6.283185307),.UNSPECIFIED.)
CURVE()
GEOMETRIC_REPRESENTATION_ITEM()
RATIONAL_B_SPLINE_CURVE((1.,0.707106781,1.,0.707106781,1.,0.707106781,1.,0.707106781,1.))
REPRESENTATION_ITEM(''));
#46=EDGE_CURVE('',#33,#35,#45,.T.);
#47=ORIENTED_EDGE('',*,*,#46,.T.);
#48=CARTESIAN_POINT('',(-68.3,-11.8,28.75));
#49=CARTESIAN_POINT('',(-70.,-11.8,28.75));
#50=CARTESIAN_POINT('',(-70.,-11.8,27.05));
#51=CARTESIAN_POINT('',(-70.,-11.8,25.35));
#52=CARTESIAN_POINT('',(-68.3,-11.8,25.35));
#53=CARTESIAN_POINT('',(-66.6,-11.8,25.35));
#54=CARTESIAN_POINT('',(-66.6,-11.8,27.05));
#55=CARTESIAN_POINT('',(-66.6,-11.8,28.75));
#56=CARTESIAN_POINT('',(-68.3,-11.8,28.75));
#57=(BOUNDED_CURVE()
B_SPLINE_CURVE(2,(#48,#49,#50,#51,#52,#53,#54,#55,#56),.UNSPECIFIED.,.T.,.F.)
B_SPLINE_CURVE_WITH_KNOTS((3,2,2,2,3),(0.,1.570796327,3.141592654,4.71238898,6.283185307),.UNSPECIFIED.)
CURVE()
GEOMETRIC_REPRESENTATION_ITEM()
RATIONAL_B_SPLINE_CURVE((1.,0.707106781,1.,0.707106781,1.,0.707106781,1.,0.707106781,1.))
REPRESENTATION_ITEM(''));
#58=EDGE_CURVE('',#35,#33,#57,.T.);
#59=ORIENTED_EDGE('',*,*,#58,.T.);
#60=EDGE_LOOP('',(#47,#59));
#61=FACE_BOUND('',#60,.T.);
#62=CARTESIAN_POINT('',(-88.027243604,-11.8,23.360067216));
#63=VERTEX_POINT('',#62);
#64=CARTESIAN_POINT('',(-72.512018187,-11.8,24.506938235));
#65=VERTEX_POINT('',#64);
#66=CARTESIAN_POINT('',(-88.027243604,-11.8,23.360067216));
#67=CARTESIAN_POINT('',(-72.512018187,-11.8,24.506938235));
#68=B_SPLINE_CURVE_WITH_KNOTS('',1,(#66,#67),.UNSPECIFIED.,.F.,.F.,(2,2),(-0.,0.015557555),.UNSPECIFIED.);
#69=EDGE_CURVE('',#63,#65,#68,.T.);
#70=ORIENTED_EDGE('',*,*,#69,.T.);
#71=CARTESIAN_POINT('',(-72.512018187,-11.8,29.593061765));
#72=VERTEX_POINT('',#71);
#73=CARTESIAN_POINT('',(-72.512018187,-11.8,24.506938235));
#74=CARTESIAN_POINT('',(-70.149998948,-11.8,24.681536498));
#75=CARTESIAN_POINT('',(-70.149998947,-11.8,27.050000017));
#76=CARTESIAN_POINT('',(-70.149998945,-11.8,29.418463536));
#77=CARTESIAN_POINT('',(-72.512018185,-11.8,29.593061801));
#78=(BOUNDED_CURVE()
B_SPLINE_CURVE(2,(#73,#74,#75,#76,#77),.UNSPECIFIED.,.F.,.F.)
B_SPLINE_CURVE_WITH_KNOTS((3,2,3),(3.510823188,5.007834638,6.504846087),.UNSPECIFIED.)
CURVE()
GEOMETRIC_REPRESENTATION_ITEM()
RATIONAL_B_SPLINE_CURVE((1.,0.732706608,1.,0.732706608,1.))
REPRESENTATION_ITEM(''));
#79=EDGE_CURVE('',#65,#72,#78,.T.);
#80=ORIENTED_EDGE('',*,*,#79,.T.);
#81=CARTESIAN_POINT('',(-88.027243604,-11.8,30.739932784));
#82=VERTEX_POINT('',#81);
#83=CARTESIAN_POINT('',(-88.027243604,-11.8,30.739932784));
#84=CARTESIAN_POINT('',(-72.512018187,-11.8,29.593061765));
#85=B_SPLINE_CURVE_WITH_KNOTS('',1,(#83,#84),.UNSPECIFIED.,.F.,.F.,(2,2),(0.,0.015557555),.UNSPECIFIED.);
#86=EDGE_CURVE('',#82,#72,#85,.T.);
#87=ORIENTED_EDGE('',*,*,#86,.F.);
#88=CARTESIAN_POINT('',(-88.3,-11.8,30.75));
#89=VERTEX_POINT('',#88);
#90=CARTESIAN_POINT('',(-88.027243604,-11.8,30.739932784));
#91=CARTESIAN_POINT('',(-90.280400407,-11.8,30.906484037));
#92=CARTESIAN_POINT('',(-91.457828798,-11.8,28.978242018));
#93=CARTESIAN_POINT('',(-92.635257189,-11.8,27.05));
#94=CARTESIAN_POINT('',(-91.457828798,-11.8,25.121757982));
#95=CARTESIAN_POINT('',(-90.280400407,-11.8,23.193515963));
#96=CARTESIAN_POINT('',(-88.027243604,-11.8,23.360067216));
#97=(BOUNDED_CURVE()
B_SPLINE_CURVE(2,(#90,#91,#92,#93,#94,#95,#96),.UNSPECIFIED.,.F.,.F.)
B_SPLINE_CURVE_WITH_KNOTS((3,2,2,3),(6.14943248,7.245819949,8.342207418,9.438594887),.UNSPECIFIED.)
CURVE()
GEOMETRIC_REPRESENTATION_ITEM()
RATIONAL_B_SPLINE_CURVE((1.,0.853467243,1.,0.853467243,1.,0.853467243,1.))
REPRESENTATION_ITEM(''));
#98=EDGE_CURVE('',#82,#89,#97,.T.);
#99=ORIENTED_EDGE('',*,*,#98,.T.);
#100=CARTESIAN_POINT('',(-88.027243604,-11.8,30.739932784));
#101=CARTESIAN_POINT('',(-90.280400407,-11.8,30.906484037));
#102=CARTESIAN_POINT('',(-91.457828798,-11.8,28.978242018));
#103=CARTESIAN_POINT('',(-92.635257189,-11.8,27.05));
#104=CARTESIAN_POINT('',(-91.457828798,-11.8,25.121757982));
#105=CARTESIAN_POINT('',(-90.280400407,-11.8,23.193515963));
#106=CARTESIAN_POINT('',(-88.027243604,-11.8,23.360067216));
#107=(BOUNDED_CURVE()
B_SPLINE_CURVE(2,(#100,#101,#102,#103,#104,#105,#106),.UNSPECIFIED.,.F.,.F.)
B_SPLINE_CURVE_WITH_KNOTS((3,2,2,3),(6.14943248,7.245819949,8.342207418,9.438594887),.UNSPECIFIED.)
CURVE()
GEOMETRIC_REPRESENTATION_ITEM()
RATIONAL_B_SPLINE_CURVE((1.,0.853467243,1.,0.853467243,1.,0.853467243,1.))
REPRESENTATION_ITEM(''));
#108=EDGE_CURVE('',#89,#63,#107,.T.);
#109=ORIENTED_EDGE('',*,*,#108,.T.);
#110=EDGE_LOOP('',(#70,#80,#87,#99,#109));
#111=FACE_BOUND('',#110,.T.);
#112=CARTESIAN_POINT('',(-88.3,-11.8,33.3));
#113=VERTEX_POINT('',#112);
#114=CARTESIAN_POINT('',(-68.3,-11.8,33.3));
#115=VERTEX_POINT('',#114);
#116=CARTESIAN_POINT('',(-88.3,-11.8,33.3));
#117=CARTESIAN_POINT('',(-68.3,-11.8,33.3));
#118=B_SPLINE_CURVE_WITH_KNOTS('',1,(#116,#117),.UNSPECIFIED.,.F.,.F.,(2,2),(0.,0.02),.UNSPECIFIED.);
#119=EDGE_CURVE('',#113,#115,#118,.T.);
#120=ORIENTED_EDGE('',*,*,#119,.T.);
#121=CARTESIAN_POINT('',(-68.3,-11.8,20.8));
#122=VERTEX_POINT('',#121);
#123=CARTESIAN_POINT('',(-68.3,-11.8,33.3));
#124=CARTESIAN_POINT('',(-62.05,-11.8,33.3));
#125=CARTESIAN_POINT('',(-62.05,-11.8,27.05));
#126=CARTESIAN_POINT('',(-62.05,-11.8,20.8));
#127=CARTESIAN_POINT('',(-68.3,-11.8,20.8));
#128=(BOUNDED_CURVE()
B_SPLINE_CURVE(2,(#123,#124,#125,#126,#127),.UNSPECIFIED.,.F.,.F.)
B_SPLINE_CURVE_WITH_KNOTS((3,2,3),(6.283185307,7.853981634,9.424777961),.UNSPECIFIED.)
CURVE()
GEOMETRIC_REPRESENTATION_ITEM()
RATIONAL_B_SPLINE_CURVE((1.,0.707106781,1.,0.707106781,1.))
REPRESENTATION_ITEM(''));
#129=EDGE_CURVE('',#115,#122,#128,.T.);
#130=ORIENTED_EDGE('',*,*,#129,.T.);
#131=CARTESIAN_POINT('',(-88.3,-11.8,20.8));
#132=VERTEX_POINT('',#131);
#133=CARTESIAN_POINT('',(-68.3,-11.8,20.8));
#134=CARTESIAN_POINT('',(-88.3,-11.8,20.8));
#135=B_SPLINE_CURVE_WITH_KNOTS('',1,(#133,#134),.UNSPECIFIED.,.F.,.F.,(2,2),(0.005,0.025),.UNSPECIFIED.);
#136=EDGE_CURVE('',#122,#132,#135,.T.);
#137=ORIENTED_EDGE('',*,*,#136,.T.);
#138=CARTESIAN_POINT('',(-88.3,-11.8,33.3));
#139=CARTESIAN_POINT('',(-94.55,-11.8,33.3));
#140=CARTESIAN_POINT('',(-94.55,-11.8,27.05));
#141=CARTESIAN_POINT('',(-94.55,-11.8,20.8));
#142=CARTESIAN_POINT('',(-88.3,-11.8,20.8));
#143=(BOUNDED_CURVE()
B_SPLINE_CURVE(2,(#138,#139,#140,#141,#142),.UNSPECIFIED.,.F.,.F.)
B_SPLINE_CURVE_WITH_KNOTS((3,2,3),(5.944031623,7.51482795,9.085624277),.UNSPECIFIED.)
CURVE()
GEOMETRIC_REPRESENTATION_ITEM()
RATIONAL_B_SPLINE_CURVE((1.,0.707106781,1.,0.707106781,1.))
REPRESENTATION_ITEM(''));
#144=EDGE_CURVE('',#113,#132,#143,.T.);
#145=ORIENTED_EDGE('',*,*,#144,.F.);
#146=EDGE_LOOP('',(#120,#130,#137,#145));
#147=FACE_BOUND('',#146,.T.);
#148=ADVANCED_FACE('',(#61,#111,#147),#31,.T.);
#149=CARTESIAN_POINT('',(-88.3,-15.8,20.8));
#150=CARTESIAN_POINT('',(-68.3,-15.8,20.8));
#151=CARTESIAN_POINT('',(-88.3,-11.8,20.8));
#152=CARTESIAN_POINT('',(-68.3,-11.8,20.8));
#153=B_SPLINE_SURFACE_WITH_KNOTS('',1,1,((#149,#150),(#151,#152)),.UNSPECIFIED.,.F.,.F.,.U.,(2,2),(2,2),(-0.001,0.003),(-0.025,-0.005),.UNSPECIFIED.);
#154=ORIENTED_EDGE('',*,*,#136,.F.);
#155=CARTESIAN_POINT('',(-68.3,-15.8,20.8));
#156=VERTEX_POINT('',#155);
#157=CARTESIAN_POINT('',(-68.3,-11.8,20.8));
#158=CARTESIAN_POINT('',(-68.3,-15.8,20.8));
#159=B_SPLINE_CURVE_WITH_KNOTS('',1,(#157,#158),.UNSPECIFIED.,.F.,.F.,(2,2),(0.008684184,0.012684184),.UNSPECIFIED.);
#160=EDGE_CURVE('',#122,#156,#159,.T.);
#161=ORIENTED_EDGE('',*,*,#160,.T.);
#162=CARTESIAN_POINT('',(-88.3,-15.8,20.8));
#163=VERTEX_POINT('',#162);
#164=CARTESIAN_POINT('',(-68.3,-15.8,20.8));
#165=CARTESIAN_POINT('',(-88.3,-15.8,20.8));
#166=B_SPLINE_CURVE_WITH_KNOTS('',1,(#164,#165),.UNSPECIFIED.,.F.,.F.,(2,2),(0.005,0.025),.UNSPECIFIED.);
#167=EDGE_CURVE('',#156,#163,#166,.T.);
#168=ORIENTED_EDGE('',*,*,#167,.T.);
#169=CARTESIAN_POINT('',(-88.3,-15.8,20.8));
#170=CARTESIAN_POINT('',(-88.3,-11.8,20.8));
#171=B_SPLINE_CURVE_WITH_KNOTS('',1,(#169,#170),.UNSPECIFIED.,.F.,.F.,(2,2),(-0.001,0.003),.UNSPECIFIED.);
#172=EDGE_CURVE('',#163,#132,#171,.T.);
#173=ORIENTED_EDGE('',*,*,#172,.T.);
#174=EDGE_LOOP('',(#154,#161,#168,#173));
#175=FACE_BOUND('',#174,.T.);
#176=ADVANCED_FACE('',(#175),#153,.T.);
#177=CARTESIAN_POINT('',(-88.3,-11.8,33.3));
#178=CARTESIAN_POINT('',(-68.3,-11.8,33.3));
#179=CARTESIAN_POINT('',(-88.3,-15.8,33.3));
#180=CARTESIAN_POINT('',(-68.3,-15.8,33.3));
#181=B_SPLINE_SURFACE_WITH_KNOTS('',1,1,((#177,#178),(#179,#180)),.UNSPECIFIED.,.F.,.F.,.U.,(2,2),(2,2),(-0.003,0.001),(0.,0.02),.UNSPECIFIED.);
#182=CARTESIAN_POINT('',(-68.3,-15.8,33.3));
#183=VERTEX_POINT('',#182);
#184=CARTESIAN_POINT('',(-68.3,-11.8,33.3));
#185=CARTESIAN_POINT('',(-68.3,-15.8,33.3));
#186=B_SPLINE_CURVE_WITH_KNOTS('',1,(#184,#185),.UNSPECIFIED.,.F.,.F.,(2,2),(0.008684184,0.012684184),.UNSPECIFIED.);
#187=EDGE_CURVE('',#115,#183,#186,.T.);
#188=ORIENTED_EDGE('',*,*,#187,.F.);
#189=ORIENTED_EDGE('',*,*,#119,.F.);
#190=CARTESIAN_POINT('',(-88.3,-15.8,33.3));
#191=VERTEX_POINT('',#190);
#192=CARTESIAN_POINT('',(-88.3,-15.8,33.3));
#193=CARTESIAN_POINT('',(-88.3,-11.8,33.3));
#194=B_SPLINE_CURVE_WITH_KNOTS('',1,(#192,#193),.UNSPECIFIED.,.F.,.F.,(2,2),(-0.001,0.003),.UNSPECIFIED.);
#195=EDGE_CURVE('',#191,#113,#194,.T.);
#196=ORIENTED_EDGE('',*,*,#195,.F.);
#197=CARTESIAN_POINT('',(-88.3,-15.8,33.3));
#198=CARTESIAN_POINT('',(-68.3,-15.8,33.3));
#199=B_SPLINE_CURVE_WITH_KNOTS('',1,(#197,#198),.UNSPECIFIED.,.F.,.F.,(2,2),(0.,0.02),.UNSPECIFIED.);
#200=EDGE_CURVE('',#191,#183,#199,.T.);
#201=ORIENTED_EDGE('',*,*,#200,.T.);
#202=EDGE_LOOP('',(#188,#189,#196,#201));
#203=FACE_BOUND('',#202,.T.);
#204=ADVANCED_FACE('',(#203),#181,.T.);
#205=CARTESIAN_POINT('',(-88.3,-15.8,20.8));
#206=CARTESIAN_POINT('',(-88.3,-11.8,20.8));
#207=CARTESIAN_POINT('',(-91.908439182,-15.8,20.8));
#208=CARTESIAN_POINT('',(-91.908439182,-11.8,20.8));
#209=CARTESIAN_POINT('',(-93.712658774,-15.8,23.925));
#210=CARTESIAN_POINT('',(-93.712658774,-11.8,23.925));
#211=CARTESIAN_POINT('',(-99.125317547,-15.8,33.3));
#212=CARTESIAN_POINT('',(-99.125317547,-11.8,33.3));
#213=CARTESIAN_POINT('',(-88.3,-15.8,33.3));
#214=CARTESIAN_POINT('',(-88.3,-11.8,33.3));
#215=(BOUNDED_SURFACE()
B_SPLINE_SURFACE(2,1,((#205,#206),(#207,#208),(#209,#210),(#211,#212),(#213,#214)),.UNSPECIFIED.,.F.,.F.,.U.)
B_SPLINE_SURFACE_WITH_KNOTS((3,2,3),(2,2),(3.141592654,4.188790205,6.283185307),(-0.001,0.003),.UNSPECIFIED.)
GEOMETRIC_REPRESENTATION_ITEM()
RATIONAL_B_SPLINE_SURFACE(((0.75,0.75),(0.75,0.75),(1.,1.),(0.5,0.5),(1.,1.)))
REPRESENTATION_ITEM('')
SURFACE()
);
#216=ORIENTED_EDGE('',*,*,#144,.T.);
#217=ORIENTED_EDGE('',*,*,#172,.F.);
#218=CARTESIAN_POINT('',(-88.3,-15.8,33.3));
#219=CARTESIAN_POINT('',(-94.55,-15.8,33.3));
#220=CARTESIAN_POINT('',(-94.55,-15.8,27.05));
#221=CARTESIAN_POINT('',(-94.55,-15.8,20.8));
#222=CARTESIAN_POINT('',(-88.3,-15.8,20.8));
#223=(BOUNDED_CURVE()
B_SPLINE_CURVE(2,(#218,#219,#220,#221,#222),.UNSPECIFIED.,.F.,.F.)
B_SPLINE_CURVE_WITH_KNOTS((3,2,3),(1.570796327,3.141592654,4.71238898),.UNSPECIFIED.)
CURVE()
GEOMETRIC_REPRESENTATION_ITEM()
RATIONAL_B_SPLINE_CURVE((1.,0.707106781,1.,0.707106781,1.))
REPRESENTATION_ITEM(''));
#224=EDGE_CURVE('',#191,#163,#223,.T.);
#225=ORIENTED_EDGE('',*,*,#224,.F.);
#226=ORIENTED_EDGE('',*,*,#195,.T.);
#227=EDGE_LOOP('',(#216,#217,#225,#226));
#228=FACE_BOUND('',#227,.T.);
#229=ADVANCED_FACE('',(#228),#215,.T.);
#230=CARTESIAN_POINT('',(-72.512018187,-11.8,24.506938235));
#231=CARTESIAN_POINT('',(-72.512018187,-15.,24.506938235));
#232=CARTESIAN_POINT('',(-88.027243604,-11.8,23.360067216));
#233=CARTESIAN_POINT('',(-88.027243604,-15.,23.360067216));
#234=B_SPLINE_SURFACE_WITH_KNOTS('',1,1,((#230,#231),(#232,#233)),.UNSPECIFIED.,.F.,.F.,.U.,(2,2),(2,2),(-0.015557555,0.),(-0.0021,0.0011),.UNSPECIFIED.);
#235=ORIENTED_EDGE('',*,*,#69,.F.);
#236=CARTESIAN_POINT('',(-88.027243604,-15.,23.360067216));
#237=VERTEX_POINT('',#236);
#238=CARTESIAN_POINT('',(-88.027243604,-15.,23.360067216));
#239=CARTESIAN_POINT('',(-88.027243604,-11.8,23.360067216));
#240=B_SPLINE_CURVE_WITH_KNOTS('',1,(#238,#239),.UNSPECIFIED.,.F.,.F.,(2,2),(-0.,0.0032),.UNSPECIFIED.);
#241=EDGE_CURVE('',#237,#63,#240,.T.);
#242=ORIENTED_EDGE('',*,*,#241,.F.);
#243=CARTESIAN_POINT('',(-83.300543215,-15.,23.709460509));
#244=VERTEX_POINT('',#243);
#245=CARTESIAN_POINT('',(-88.027243604,-15.,23.360067216));
#246=CARTESIAN_POINT('',(-83.300543215,-15.,23.709460509));
#247=B_SPLINE_CURVE_WITH_KNOTS('',1,(#245,#246),.UNSPECIFIED.,.F.,.F.,(2,2),(-0.,0.004739596),.UNSPECIFIED.);
#248=EDGE_CURVE('',#237,#244,#247,.T.);
#249=ORIENTED_EDGE('',*,*,#248,.T.);
#250=CARTESIAN_POINT('',(-83.300543215,-13.9,23.709460509));
#251=VERTEX_POINT('',#250);
#252=CARTESIAN_POINT('',(-83.300543215,-15.,23.709460509));
#253=CARTESIAN_POINT('',(-83.300543215,-13.9,23.709460509));
#254=B_SPLINE_CURVE_WITH_KNOTS('',1,(#252,#253),.UNSPECIFIED.,.F.,.F.,(2,2),(-0.,0.0011),.UNSPECIFIED.);
#255=EDGE_CURVE('',#244,#251,#254,.T.);
#256=ORIENTED_EDGE('',*,*,#255,.T.);
#257=CARTESIAN_POINT('',(-72.512018187,-13.9,24.506938235));
#258=VERTEX_POINT('',#257);
#259=CARTESIAN_POINT('',(-83.300543215,-13.9,23.709460509));
#260=CARTESIAN_POINT('',(-72.512018187,-13.9,24.506938235));
#261=B_SPLINE_CURVE_WITH_KNOTS('',1,(#259,#260),.UNSPECIFIED.,.F.,.F.,(2,2),(0.004739596,0.015557555),.UNSPECIFIED.);
#262=EDGE_CURVE('',#251,#258,#261,.T.);
#263=ORIENTED_EDGE('',*,*,#262,.T.);
#264=CARTESIAN_POINT('',(-72.512018187,-13.9,24.506938235));
#265=CARTESIAN_POINT('',(-72.512018187,-11.8,24.506938235));
#266=B_SPLINE_CURVE_WITH_KNOTS('',1,(#264,#265),.UNSPECIFIED.,.F.,.F.,(2,2),(0.,0.0021),.UNSPECIFIED.);
#267=EDGE_CURVE('',#258,#65,#266,.T.);
#268=ORIENTED_EDGE('',*,*,#267,.T.);
#269=EDGE_LOOP('',(#235,#242,#249,#256,#263,#268));
#270=FACE_BOUND('',#269,.T.);
#271=ADVANCED_FACE('',(#270),#234,.T.);
#272=CARTESIAN_POINT('',(-72.512018185,-13.9,29.593061801));
#273=CARTESIAN_POINT('',(-72.512018185,-11.8,29.593061801));
#274=CARTESIAN_POINT('',(-68.460195592,-13.9,29.293554843));
#275=CARTESIAN_POINT('',(-68.460195592,-11.8,29.293554843));
#276=CARTESIAN_POINT('',(-70.491634167,-13.9,25.775000018));
#277=CARTESIAN_POINT('',(-70.491634167,-11.8,25.775000018));
#278=CARTESIAN_POINT('',(-71.166319327,-13.9,24.606411042));
#279=CARTESIAN_POINT('',(-71.166319327,-11.8,24.606411042));
#280=CARTESIAN_POINT('',(-72.512018187,-13.9,24.506938235));
#281=CARTESIAN_POINT('',(-72.512018187,-11.8,24.506938235));
#282=(BOUNDED_SURFACE()
B_SPLINE_SURFACE(2,1,((#272,#273),(#274,#275),(#276,#277),(#278,#279),(#280,#281)),.UNSPECIFIED.,.F.,.F.,.U.)
B_SPLINE_SURFACE_WITH_KNOTS((3,2,3),(2,2),(0.087398718,2.094395102,3.074646797),(-0.,0.0021),.UNSPECIFIED.)
GEOMETRIC_REPRESENTATION_ITEM()
RATIONAL_B_SPLINE_SURFACE(((0.960011564,0.960011564),(0.520864907,0.520864907),(1.,1.),(0.765982146,0.765982146),(0.751021716,0.751021716)))
REPRESENTATION_ITEM('')
SURFACE()
);
#283=ORIENTED_EDGE('',*,*,#79,.F.);
#284=ORIENTED_EDGE('',*,*,#267,.F.);
#285=CARTESIAN_POINT('',(-72.512018187,-13.9,29.593061765));
#286=VERTEX_POINT('',#285);
#287=CARTESIAN_POINT('',(-72.512018187,-13.9,24.506938235));
#288=CARTESIAN_POINT('',(-70.149998948,-13.9,24.681536498));
#289=CARTESIAN_POINT('',(-70.149998947,-13.9,27.050000017));
#290=CARTESIAN_POINT('',(-70.149998945,-13.9,29.418463536));
#291=CARTESIAN_POINT('',(-72.512018185,-13.9,29.593061801));
#292=(BOUNDED_CURVE()
B_SPLINE_CURVE(2,(#287,#288,#289,#290,#291),.UNSPECIFIED.,.F.,.F.)
B_SPLINE_CURVE_WITH_KNOTS((3,2,3),(3.510823188,5.007834638,6.504846087),.UNSPECIFIED.)
CURVE()
GEOMETRIC_REPRESENTATION_ITEM()
RATIONAL_B_SPLINE_CURVE((1.,0.732706608,1.,0.732706608,1.))
REPRESENTATION_ITEM(''));
#293=EDGE_CURVE('',#258,#286,#292,.T.);
#294=ORIENTED_EDGE('',*,*,#293,.T.);
#295=CARTESIAN_POINT('',(-72.512018187,-13.9,29.593061765));
#296=CARTESIAN_POINT('',(-72.512018187,-11.8,29.593061765));
#297=B_SPLINE_CURVE_WITH_KNOTS('',1,(#295,#296),.UNSPECIFIED.,.F.,.F.,(2,2),(-0.,0.0021),.UNSPECIFIED.);
#298=EDGE_CURVE('',#286,#72,#297,.T.);
#299=ORIENTED_EDGE('',*,*,#298,.T.);
#300=EDGE_LOOP('',(#283,#284,#294,#299));
#301=FACE_BOUND('',#300,.T.);
#302=ADVANCED_FACE('',(#301),#282,.F.);
#303=CARTESIAN_POINT('',(-72.512018187,-11.8,29.593061765));
#304=CARTESIAN_POINT('',(-72.512018187,-15.,29.593061765));
#305=CARTESIAN_POINT('',(-88.027243604,-11.8,30.739932784));
#306=CARTESIAN_POINT('',(-88.027243604,-15.,30.739932784));
#307=B_SPLINE_SURFACE_WITH_KNOTS('',1,1,((#303,#304),(#305,#306)),.UNSPECIFIED.,.F.,.F.,.U.,(2,2),(2,2),(-0.015557555,0.),(-0.0021,0.0011),.UNSPECIFIED.);
#308=ORIENTED_EDGE('',*,*,#86,.T.);
#309=ORIENTED_EDGE('',*,*,#298,.F.);
#310=CARTESIAN_POINT('',(-83.300543215,-13.9,30.390539491));
#311=VERTEX_POINT('',#310);
#312=CARTESIAN_POINT('',(-83.300543215,-13.9,30.390539491));
#313=CARTESIAN_POINT('',(-72.512018187,-13.9,29.593061765));
#314=B_SPLINE_CURVE_WITH_KNOTS('',1,(#312,#313),.UNSPECIFIED.,.F.,.F.,(2,2),(0.004739596,0.015557555),.UNSPECIFIED.);
#315=EDGE_CURVE('',#311,#286,#314,.T.);
#316=ORIENTED_EDGE('',*,*,#315,.F.);
#317=CARTESIAN_POINT('',(-83.300543215,-15.,30.390539491));
#318=VERTEX_POINT('',#317);
#319=CARTESIAN_POINT('',(-83.300543215,-15.,30.390539491));
#320=CARTESIAN_POINT('',(-83.300543215,-13.9,30.390539491));
#321=B_SPLINE_CURVE_WITH_KNOTS('',1,(#319,#320),.UNSPECIFIED.,.F.,.F.,(2,2),(-0.,0.0011),.UNSPECIFIED.);
#322=EDGE_CURVE('',#318,#311,#321,.T.);
#323=ORIENTED_EDGE('',*,*,#322,.F.);
#324=CARTESIAN_POINT('',(-88.027243604,-15.,30.739932784));
#325=VERTEX_POINT('',#324);
#326=CARTESIAN_POINT('',(-88.027243604,-15.,30.739932784));
#327=CARTESIAN_POINT('',(-83.300543215,-15.,30.390539491));
#328=B_SPLINE_CURVE_WITH_KNOTS('',1,(#326,#327),.UNSPECIFIED.,.F.,.F.,(2,2),(0.,0.004739596),.UNSPECIFIED.);
#329=EDGE_CURVE('',#325,#318,#328,.T.);
#330=ORIENTED_EDGE('',*,*,#329,.F.);
#331=CARTESIAN_POINT('',(-88.027243604,-15.,30.739932784));
#332=CARTESIAN_POINT('',(-88.027243604,-11.8,30.739932784));
#333=B_SPLINE_CURVE_WITH_KNOTS('',1,(#331,#332),.UNSPECIFIED.,.F.,.F.,(2,2),(-0.,0.0032),.UNSPECIFIED.);
#334=EDGE_CURVE('',#325,#82,#333,.T.);
#335=ORIENTED_EDGE('',*,*,#334,.T.);
#336=EDGE_LOOP('',(#308,#309,#316,#323,#330,#335));
#337=FACE_BOUND('',#336,.T.);
#338=ADVANCED_FACE('',(#337),#307,.F.);
#339=CARTESIAN_POINT('',(-83.300543215,-13.9,23.709460509));
#340=CARTESIAN_POINT('',(-83.300543215,-13.9,30.390539491));
#341=CARTESIAN_POINT('',(-70.149998945,-13.9,23.709460509));
#342=CARTESIAN_POINT('',(-70.149998945,-13.9,30.390539491));
#343=B_SPLINE_SURFACE_WITH_KNOTS('',1,1,((#339,#340),(#341,#342)),.UNSPECIFIED.,.F.,.F.,.U.,(2,2),(2,2),(0.004999457,0.018150001),(-0.003340539,0.003340539),.UNSPECIFIED.);
#344=ORIENTED_EDGE('',*,*,#315,.T.);
#345=ORIENTED_EDGE('',*,*,#293,.F.);
#346=ORIENTED_EDGE('',*,*,#262,.F.);
#347=CARTESIAN_POINT('',(-83.300543215,-13.9,23.709460509));
#348=CARTESIAN_POINT('',(-83.300543215,-13.9,30.390539491));
#349=B_SPLINE_CURVE_WITH_KNOTS('',1,(#347,#348),.UNSPECIFIED.,.F.,.F.,(2,2),(0.000050053,0.006731132),.UNSPECIFIED.);
#350=EDGE_CURVE('',#251,#311,#349,.T.);
#351=ORIENTED_EDGE('',*,*,#350,.T.);
#352=EDGE_LOOP('',(#344,#345,#346,#351));
#353=FACE_BOUND('',#352,.T.);
#354=ADVANCED_FACE('',(#353),#343,.F.);
#355=CARTESIAN_POINT('',(-88.3,-15.,30.75));
#356=CARTESIAN_POINT('',(-88.3,-11.8,30.75));
#357=CARTESIAN_POINT('',(-88.163436016,-15.,30.75));
#358=CARTESIAN_POINT('',(-88.163436016,-11.8,30.75));
#359=CARTESIAN_POINT('',(-88.027243604,-15.,30.739932784));
#360=CARTESIAN_POINT('',(-88.027243604,-11.8,30.739932784));
#361=(BOUNDED_SURFACE()
B_SPLINE_SURFACE(2,1,((#355,#356),(#357,#358),(#359,#360)),.UNSPECIFIED.,.F.,.F.,.U.)
B_SPLINE_SURFACE_WITH_KNOTS((3,3),(2,2),(0.,0.087398716),(-0.,0.0032),.UNSPECIFIED.)
GEOMETRIC_REPRESENTATION_ITEM()
RATIONAL_B_SPLINE_SURFACE(((1.,1.),(0.979135093,0.979135093),(0.960011564,0.960011564)))
REPRESENTATION_ITEM('')
SURFACE()
);
#362=CARTESIAN_POINT('',(-88.3,-15.,30.75));
#363=VERTEX_POINT('',#362);
#364=CARTESIAN_POINT('',(-88.3,-11.8,30.75));
#365=CARTESIAN_POINT('',(-88.3,-15.,30.75));
#366=B_SPLINE_CURVE_WITH_KNOTS('',1,(#364,#365),.UNSPECIFIED.,.F.,.F.,(2,2),(0.,0.0032),.UNSPECIFIED.);
#367=EDGE_CURVE('',#89,#363,#366,.T.);
#368=ORIENTED_EDGE('',*,*,#367,.F.);
#369=ORIENTED_EDGE('',*,*,#98,.F.);
#370=ORIENTED_EDGE('',*,*,#334,.F.);
#371=CARTESIAN_POINT('',(-88.027243604,-15.,30.739932784));
#372=CARTESIAN_POINT('',(-90.280400407,-15.,30.906484037));
#373=CARTESIAN_POINT('',(-91.457828798,-15.,28.978242018));
#374=CARTESIAN_POINT('',(-92.635257189,-15.,27.05));
#375=CARTESIAN_POINT('',(-91.457828798,-15.,25.121757982));
#376=CARTESIAN_POINT('',(-90.280400407,-15.,23.193515963));
#377=CARTESIAN_POINT('',(-88.027243604,-15.,23.360067216));
#378=(BOUNDED_CURVE()
B_SPLINE_CURVE(2,(#371,#372,#373,#374,#375,#376,#377),.UNSPECIFIED.,.F.,.F.)
B_SPLINE_CURVE_WITH_KNOTS((3,2,2,3),(6.14943248,7.245819949,8.342207418,9.438594887),.UNSPECIFIED.)
CURVE()
GEOMETRIC_REPRESENTATION_ITEM()
RATIONAL_B_SPLINE_CURVE((1.,0.853467243,1.,0.853467243,1.,0.853467243,1.))
REPRESENTATION_ITEM(''));
#379=EDGE_CURVE('',#325,#363,#378,.T.);
#380=ORIENTED_EDGE('',*,*,#379,.T.);
#381=EDGE_LOOP('',(#368,#369,#370,#380));
#382=FACE_BOUND('',#381,.T.);
#383=ADVANCED_FACE('',(#382),#361,.F.);
#384=CARTESIAN_POINT('',(-83.300543215,-13.9,30.390539491));
#385=CARTESIAN_POINT('',(-83.300543215,-15.,30.390539491));
#386=CARTESIAN_POINT('',(-83.300543215,-13.9,23.709460509));
#387=CARTESIAN_POINT('',(-83.300543215,-15.,23.709460509));
#388=B_SPLINE_SURFACE_WITH_KNOTS('',1,1,((#384,#385),(#386,#387)),.UNSPECIFIED.,.F.,.F.,.U.,(2,2),(2,2),(-0.006731132,-0.000050053),(-0.0011,0.),.UNSPECIFIED.);
#389=ORIENTED_EDGE('',*,*,#255,.F.);
#390=CARTESIAN_POINT('',(-83.300543215,-15.,23.709460509));
#391=CARTESIAN_POINT('',(-83.300543215,-15.,30.390539491));
#392=B_SPLINE_CURVE_WITH_KNOTS('',1,(#390,#391),.UNSPECIFIED.,.F.,.F.,(2,2),(0.000050053,0.006731132),.UNSPECIFIED.);
#393=EDGE_CURVE('',#244,#318,#392,.T.);
#394=ORIENTED_EDGE('',*,*,#393,.T.);
#395=ORIENTED_EDGE('',*,*,#322,.T.);
#396=ORIENTED_EDGE('',*,*,#350,.F.);
#397=EDGE_LOOP('',(#389,#394,#395,#396));
#398=FACE_BOUND('',#397,.T.);
#399=ADVANCED_FACE('',(#398),#388,.T.);
#400=CARTESIAN_POINT('',(-92.635257189,-15.,23.193515963));
#401=CARTESIAN_POINT('',(-92.635257189,-15.,30.75));
#402=CARTESIAN_POINT('',(-83.300543215,-15.,23.193515963));
#403=CARTESIAN_POINT('',(-83.300543215,-15.,30.75));
#404=B_SPLINE_SURFACE_WITH_KNOTS('',1,1,((#400,#401),(#402,#403)),.UNSPECIFIED.,.F.,.F.,.U.,(2,2),(2,2),(-0.004335257,0.004999457),(-0.003856484,0.0037),.UNSPECIFIED.);
#405=CARTESIAN_POINT('',(-88.3,-15.,29.8));
#406=VERTEX_POINT('',#405);
#407=CARTESIAN_POINT('',(-85.55,-15.,27.05));
#408=VERTEX_POINT('',#407);
#409=CARTESIAN_POINT('',(-85.55,-15.,27.05));
#410=CARTESIAN_POINT('',(-85.55,-15.,24.3));
#411=CARTESIAN_POINT('',(-88.3,-15.,24.3));
#412=CARTESIAN_POINT('',(-91.05,-15.,24.3));
#413=CARTESIAN_POINT('',(-91.05,-15.,27.05));
#414=CARTESIAN_POINT('',(-91.05,-15.,29.8));
#415=CARTESIAN_POINT('',(-88.3,-15.,29.8));
#416=CARTESIAN_POINT('',(-85.55,-15.,29.8));
#417=CARTESIAN_POINT('',(-85.55,-15.,27.05));
#418=(BOUNDED_CURVE()
B_SPLINE_CURVE(2,(#409,#410,#411,#412,#413,#414,#415,#416,#417),.UNSPECIFIED.,.T.,.F.)
B_SPLINE_CURVE_WITH_KNOTS((3,2,2,2,3),(0.,1.570796327,3.141592654,4.71238898,6.283185307),.UNSPECIFIED.)
CURVE()
GEOMETRIC_REPRESENTATION_ITEM()
RATIONAL_B_SPLINE_CURVE((1.,0.707106781,1.,0.707106781,1.,0.707106781,1.,0.707106781,1.))
REPRESENTATION_ITEM(''));
#419=EDGE_CURVE('',#406,#408,#418,.T.);
#420=ORIENTED_EDGE('',*,*,#419,.F.);
#421=CARTESIAN_POINT('',(-85.55,-15.,27.05));
#422=CARTESIAN_POINT('',(-85.55,-15.,24.3));
#423=CARTESIAN_POINT('',(-88.3,-15.,24.3));
#424=CARTESIAN_POINT('',(-91.05,-15.,24.3));
#425=CARTESIAN_POINT('',(-91.05,-15.,27.05));
#426=CARTESIAN_POINT('',(-91.05,-15.,29.8));
#427=CARTESIAN_POINT('',(-88.3,-15.,29.8));
#428=CARTESIAN_POINT('',(-85.55,-15.,29.8));
#429=CARTESIAN_POINT('',(-85.55,-15.,27.05));
#430=(BOUNDED_CURVE()
B_SPLINE_CURVE(2,(#421,#422,#423,#424,#425,#426,#427,#428,#429),.UNSPECIFIED.,.T.,.F.)
B_SPLINE_CURVE_WITH_KNOTS((3,2,2,2,3),(0.,1.570796327,3.141592654,4.71238898,6.283185307),.UNSPECIFIED.)
CURVE()
GEOMETRIC_REPRESENTATION_ITEM()
RATIONAL_B_SPLINE_CURVE((1.,0.707106781,1.,0.707106781,1.,0.707106781,1.,0.707106781,1.))
REPRESENTATION_ITEM(''));
#431=EDGE_CURVE('',#408,#406,#430,.T.);
#432=ORIENTED_EDGE('',*,*,#431,.F.);
#433=EDGE_LOOP('',(#420,#432));
#434=FACE_BOUND('',#433,.T.);
#435=CARTESIAN_POINT('',(-88.027243604,-15.,30.739932784));
#436=CARTESIAN_POINT('',(-90.280400407,-15.,30.906484037));
#437=CARTESIAN_POINT('',(-91.457828798,-15.,28.978242018));
#438=CARTESIAN_POINT('',(-92.635257189,-15.,27.05));
#439=CARTESIAN_POINT('',(-91.457828798,-15.,25.121757982));
#440=CARTESIAN_POINT('',(-90.280400407,-15.,23.193515963));
#441=CARTESIAN_POINT('',(-88.027243604,-15.,23.360067216));
#442=(BOUNDED_CURVE()
B_SPLINE_CURVE(2,(#435,#436,#437,#438,#439,#440,#441),.UNSPECIFIED.,.F.,.F.)
B_SPLINE_CURVE_WITH_KNOTS((3,2,2,3),(6.14943248,7.245819949,8.342207418,9.438594887),.UNSPECIFIED.)
CURVE()
GEOMETRIC_REPRESENTATION_ITEM()
RATIONAL_B_SPLINE_CURVE((1.,0.853467243,1.,0.853467243,1.,0.853467243,1.))
REPRESENTATION_ITEM(''));
#443=EDGE_CURVE('',#363,#237,#442,.T.);
#444=ORIENTED_EDGE('',*,*,#443,.F.);
#445=ORIENTED_EDGE('',*,*,#379,.F.);
#446=ORIENTED_EDGE('',*,*,#329,.T.);
#447=ORIENTED_EDGE('',*,*,#393,.F.);
#448=ORIENTED_EDGE('',*,*,#248,.F.);
#449=EDGE_LOOP('',(#444,#445,#446,#447,#448));
#450=FACE_BOUND('',#449,.T.);
#451=ADVANCED_FACE('',(#434,#450),#404,.F.);
#452=CARTESIAN_POINT('',(-88.3,-15.8,29.8));
#453=CARTESIAN_POINT('',(-88.3,-15.,29.8));
#454=CARTESIAN_POINT('',(-83.536860279,-15.8,29.8));
#455=CARTESIAN_POINT('',(-83.536860279,-15.,29.8));
#456=CARTESIAN_POINT('',(-85.91843014,-15.8,25.675));
#457=CARTESIAN_POINT('',(-85.91843014,-15.,25.675));
#458=CARTESIAN_POINT('',(-88.3,-15.8,21.55));
#459=CARTESIAN_POINT('',(-88.3,-15.,21.55));
#460=CARTESIAN_POINT('',(-90.68156986,-15.8,25.675));
#461=CARTESIAN_POINT('',(-90.68156986,-15.,25.675));
#462=CARTESIAN_POINT('',(-93.063139721,-15.8,29.8));
#463=CARTESIAN_POINT('',(-93.063139721,-15.,29.8));
#464=CARTESIAN_POINT('',(-88.3,-15.8,29.8));
#465=CARTESIAN_POINT('',(-88.3,-15.,29.8));
#466=(BOUNDED_SURFACE()
B_SPLINE_SURFACE(2,1,((#452,#453),(#454,#455),(#456,#457),(#458,#459),(#460,#461),(#462,#463),(#464,#465)),.UNSPECIFIED.,.T.,.F.,.U.)
B_SPLINE_SURFACE_WITH_KNOTS((3,2,2,3),(2,2),(0.,2.094395102,4.188790205,6.283185307),(0.011432261,0.012232261),.UNSPECIFIED.)
GEOMETRIC_REPRESENTATION_ITEM()
RATIONAL_B_SPLINE_SURFACE(((1.,1.),(0.5,0.5),(1.,1.),(0.5,0.5),(1.,1.),(0.5,0.5),(1.,1.)))
REPRESENTATION_ITEM('')
SURFACE()
);
#467=CARTESIAN_POINT('',(-88.3,-15.8,29.8));
#468=VERTEX_POINT('',#467);
#469=CARTESIAN_POINT('',(-88.3,-15.,29.8));
#470=CARTESIAN_POINT('',(-88.3,-15.8,29.8));
#471=B_SPLINE_CURVE_WITH_KNOTS('',1,(#469,#470),.UNSPECIFIED.,.F.,.F.,(2,2),(0.011432261,0.012232261),.UNSPECIFIED.);
#472=EDGE_CURVE('',#406,#468,#471,.T.);
#473=ORIENTED_EDGE('',*,*,#472,.F.);
#474=ORIENTED_EDGE('',*,*,#419,.T.);
#475=ORIENTED_EDGE('',*,*,#431,.T.);
#476=ORIENTED_EDGE('',*,*,#472,.T.);
#477=CARTESIAN_POINT('',(-85.55,-15.8,27.05));
#478=VERTEX_POINT('',#477);
#479=CARTESIAN_POINT('',(-85.55,-15.8,27.05));
#480=CARTESIAN_POINT('',(-85.55,-15.8,24.3));
#481=CARTESIAN_POINT('',(-88.3,-15.8,24.3));
#482=CARTESIAN_POINT('',(-91.05,-15.8,24.3));
#483=CARTESIAN_POINT('',(-91.05,-15.8,27.05));
#484=CARTESIAN_POINT('',(-91.05,-15.8,29.8));
#485=CARTESIAN_POINT('',(-88.3,-15.8,29.8));
#486=CARTESIAN_POINT('',(-85.55,-15.8,29.8));
#487=CARTESIAN_POINT('',(-85.55,-15.8,27.05));
#488=(BOUNDED_CURVE()
B_SPLINE_CURVE(2,(#479,#480,#481,#482,#483,#484,#485,#486,#487),.UNSPECIFIED.,.T.,.F.)
B_SPLINE_CURVE_WITH_KNOTS((3,2,2,2,3),(0.,1.570796327,3.141592654,4.71238898,6.283185307),.UNSPECIFIED.)
CURVE()
GEOMETRIC_REPRESENTATION_ITEM()
RATIONAL_B_SPLINE_CURVE((1.,0.707106781,1.,0.707106781,1.,0.707106781,1.,0.707106781,1.))
REPRESENTATION_ITEM(''));
#489=EDGE_CURVE('',#478,#468,#488,.T.);
#490=ORIENTED_EDGE('',*,*,#489,.F.);
#491=CARTESIAN_POINT('',(-85.55,-15.8,27.05));
#492=CARTESIAN_POINT('',(-85.55,-15.8,24.3));
#493=CARTESIAN_POINT('',(-88.3,-15.8,24.3));
#494=CARTESIAN_POINT('',(-91.05,-15.8,24.3));
#495=CARTESIAN_POINT('',(-91.05,-15.8,27.05));
#496=CARTESIAN_POINT('',(-91.05,-15.8,29.8));
#497=CARTESIAN_POINT('',(-88.3,-15.8,29.8));
#498=CARTESIAN_POINT('',(-85.55,-15.8,29.8));
#499=CARTESIAN_POINT('',(-85.55,-15.8,27.05));
#500=(BOUNDED_CURVE()
B_SPLINE_CURVE(2,(#491,#492,#493,#494,#495,#496,#497,#498,#499),.UNSPECIFIED.,.T.,.F.)
B_SPLINE_CURVE_WITH_KNOTS((3,2,2,2,3),(0.,1.570796327,3.141592654,4.71238898,6.283185307),.UNSPECIFIED.)
CURVE()
GEOMETRIC_REPRESENTATION_ITEM()
RATIONAL_B_SPLINE_CURVE((1.,0.707106781,1.,0.707106781,1.,0.707106781,1.,0.707106781,1.))
REPRESENTATION_ITEM(''));
#501=EDGE_CURVE('',#468,#478,#500,.T.);
#502=ORIENTED_EDGE('',*,*,#501,.F.);
#503=EDGE_LOOP('',(#473,#474,#475,#476,#490,#502));
#504=FACE_BOUND('',#503,.T.);
#505=ADVANCED_FACE('',(#504),#466,.F.);
#506=CARTESIAN_POINT('',(-94.55,-15.8,20.8));
#507=CARTESIAN_POINT('',(-62.05,-15.8,20.8));
#508=CARTESIAN_POINT('',(-94.55,-15.8,33.3));
#509=CARTESIAN_POINT('',(-62.05,-15.8,33.3));
#510=B_SPLINE_SURFACE_WITH_KNOTS('',1,1,((#506,#507),(#508,#509)),.UNSPECIFIED.,.F.,.F.,.U.,(2,2),(2,2),(0.03800006,0.05050006),(-0.023542064,0.008957936),.UNSPECIFIED.);
#511=CARTESIAN_POINT('',(-67.366943829,-15.8,28.47105812));
#512=VERTEX_POINT('',#511);
#513=CARTESIAN_POINT('',(-68.3,-15.8,25.35));
#514=VERTEX_POINT('',#513);
#515=CARTESIAN_POINT('',(-67.366943829,-15.8,28.47105812));
#516=CARTESIAN_POINT('',(-65.945885709,-15.8,27.538001949));
#517=CARTESIAN_POINT('',(-66.87894188,-15.8,26.116943829));
#518=CARTESIAN_POINT('',(-67.811998051,-15.8,24.695885709));
#519=CARTESIAN_POINT('',(-69.233056171,-15.8,25.62894188));
#520=CARTESIAN_POINT('',(-70.654114291,-15.8,26.561998051));
#521=CARTESIAN_POINT('',(-69.72105812,-15.8,27.983056171));
#522=CARTESIAN_POINT('',(-68.788001949,-15.8,29.404114291));
#523=CARTESIAN_POINT('',(-67.366943829,-15.8,28.47105812));
#524=(BOUNDED_CURVE()
B_SPLINE_CURVE(2,(#515,#516,#517,#518,#519,#520,#521,#522,#523),.UNSPECIFIED.,.T.,.F.)
B_SPLINE_CURVE_WITH_KNOTS((3,2,2,2,3),(0.,1.570796327,3.141592654,4.71238898,6.283185307),.UNSPECIFIED.)
CURVE()
GEOMETRIC_REPRESENTATION_ITEM()
RATIONAL_B_SPLINE_CURVE((1.,0.707106781,1.,0.707106781,1.,0.707106781,1.,0.707106781,1.))
REPRESENTATION_ITEM(''));
#525=EDGE_CURVE('',#512,#514,#524,.T.);
#526=ORIENTED_EDGE('',*,*,#525,.T.);
#527=CARTESIAN_POINT('',(-67.366943829,-15.8,28.47105812));
#528=CARTESIAN_POINT('',(-65.945885709,-15.8,27.538001949));
#529=CARTESIAN_POINT('',(-66.87894188,-15.8,26.116943829));
#530=CARTESIAN_POINT('',(-67.811998051,-15.8,24.695885709));
#531=CARTESIAN_POINT('',(-69.233056171,-15.8,25.62894188));
#532=CARTESIAN_POINT('',(-70.654114291,-15.8,26.561998051));
#533=CARTESIAN_POINT('',(-69.72105812,-15.8,27.983056171));
#534=CARTESIAN_POINT('',(-68.788001949,-15.8,29.404114291));
#535=CARTESIAN_POINT('',(-67.366943829,-15.8,28.47105812));
#536=(BOUNDED_CURVE()
B_SPLINE_CURVE(2,(#527,#528,#529,#530,#531,#532,#533,#534,#535),.UNSPECIFIED.,.T.,.F.)
B_SPLINE_CURVE_WITH_KNOTS((3,2,2,2,3),(0.,1.570796327,3.141592654,4.71238898,6.283185307),.UNSPECIFIED.)
CURVE()
GEOMETRIC_REPRESENTATION_ITEM()
RATIONAL_B_SPLINE_CURVE((1.,0.707106781,1.,0.707106781,1.,0.707106781,1.,0.707106781,1.))
REPRESENTATION_ITEM(''));
#537=EDGE_CURVE('',#514,#512,#536,.T.);
#538=ORIENTED_EDGE('',*,*,#537,.T.);
#539=EDGE_LOOP('',(#526,#538));
#540=FACE_BOUND('',#539,.T.);
#541=ORIENTED_EDGE('',*,*,#489,.T.);
#542=ORIENTED_EDGE('',*,*,#501,.T.);
#543=EDGE_LOOP('',(#541,#542));
#544=FACE_BOUND('',#543,.T.);
#545=ORIENTED_EDGE('',*,*,#167,.F.);
#546=CARTESIAN_POINT('',(-68.3,-15.8,20.8));
#547=CARTESIAN_POINT('',(-62.05,-15.8,20.8));
#548=CARTESIAN_POINT('',(-62.05,-15.8,27.05));
#549=CARTESIAN_POINT('',(-62.05,-15.8,33.3));
#550=CARTESIAN_POINT('',(-68.3,-15.8,33.3));
#551=(BOUNDED_CURVE()
B_SPLINE_CURVE(2,(#546,#547,#548,#549,#550),.UNSPECIFIED.,.F.,.F.)
B_SPLINE_CURVE_WITH_KNOTS((3,2,3),(3.141592654,4.71238898,6.283185307),.UNSPECIFIED.)
CURVE()
GEOMETRIC_REPRESENTATION_ITEM()
RATIONAL_B_SPLINE_CURVE((1.,0.707106781,1.,0.707106781,1.))
REPRESENTATION_ITEM(''));
#552=EDGE_CURVE('',#156,#183,#551,.T.);
#553=ORIENTED_EDGE('',*,*,#552,.T.);
#554=ORIENTED_EDGE('',*,*,#200,.F.);
#555=ORIENTED_EDGE('',*,*,#224,.T.);
#556=EDGE_LOOP('',(#545,#553,#554,#555));
#557=FACE_BOUND('',#556,.T.);
#558=ADVANCED_FACE('',(#540,#544,#557),#510,.F.);
#559=CARTESIAN_POINT('',(-68.3,-11.8,20.8));
#560=CARTESIAN_POINT('',(-68.3,-15.8,20.8));
#561=CARTESIAN_POINT('',(-57.474682453,-11.8,20.8));
#562=CARTESIAN_POINT('',(-57.474682453,-15.8,20.8));
#563=CARTESIAN_POINT('',(-62.887341226,-11.8,30.175));
#564=CARTESIAN_POINT('',(-62.887341226,-15.8,30.175));
#565=CARTESIAN_POINT('',(-64.691560818,-11.8,33.3));
#566=CARTESIAN_POINT('',(-64.691560818,-15.8,33.3));
#567=CARTESIAN_POINT('',(-68.3,-11.8,33.3));
#568=CARTESIAN_POINT('',(-68.3,-15.8,33.3));
#569=(BOUNDED_SURFACE()
B_SPLINE_SURFACE(2,1,((#559,#560),(#561,#562),(#563,#564),(#565,#566),(#567,#568)),.UNSPECIFIED.,.F.,.F.,.U.)
B_SPLINE_SURFACE_WITH_KNOTS((3,2,3),(2,2),(0.,2.094395102,3.141592654),(0.008684184,0.012684184),.UNSPECIFIED.)
GEOMETRIC_REPRESENTATION_ITEM()
RATIONAL_B_SPLINE_SURFACE(((1.,1.),(0.5,0.5),(1.,1.),(0.75,0.75),(0.75,0.75)))
REPRESENTATION_ITEM('')
SURFACE()
);
#570=ORIENTED_EDGE('',*,*,#187,.T.);
#571=ORIENTED_EDGE('',*,*,#552,.F.);
#572=ORIENTED_EDGE('',*,*,#160,.F.);
#573=ORIENTED_EDGE('',*,*,#129,.F.);
#574=EDGE_LOOP('',(#570,#571,#572,#573));
#575=FACE_BOUND('',#574,.T.);
#576=ADVANCED_FACE('',(#575),#569,.T.);
#577=CARTESIAN_POINT('',(-68.3,-11.8,25.35));
#578=CARTESIAN_POINT('',(-68.3,-15.8,25.35));
#579=CARTESIAN_POINT('',(-65.355513627,-11.8,25.35));
#580=CARTESIAN_POINT('',(-65.355513627,-15.8,25.35));
#581=CARTESIAN_POINT('',(-66.827756814,-11.8,27.9));
#582=CARTESIAN_POINT('',(-66.827756814,-15.8,27.9));
#583=CARTESIAN_POINT('',(-68.3,-11.8,30.45));
#584=CARTESIAN_POINT('',(-68.3,-15.8,30.45));
#585=CARTESIAN_POINT('',(-69.772243186,-11.8,27.9));
#586=CARTESIAN_POINT('',(-69.772243186,-15.8,27.9));
#587=CARTESIAN_POINT('',(-71.244486373,-11.8,25.35));
#588=CARTESIAN_POINT('',(-71.244486373,-15.8,25.35));
#589=CARTESIAN_POINT('',(-68.3,-11.8,25.35));
#590=CARTESIAN_POINT('',(-68.3,-15.8,25.35));
#591=(BOUNDED_SURFACE()
B_SPLINE_SURFACE(2,1,((#577,#578),(#579,#580),(#581,#582),(#583,#584),(#585,#586),(#587,#588),(#589,#590)),.UNSPECIFIED.,.T.,.F.,.U.)
B_SPLINE_SURFACE_WITH_KNOTS((3,2,2,3),(2,2),(0.,2.094395102,4.188790205,6.283185307),(0.01395731,0.01795731),.UNSPECIFIED.)
GEOMETRIC_REPRESENTATION_ITEM()
RATIONAL_B_SPLINE_SURFACE(((1.,1.),(0.5,0.5),(1.,1.),(0.5,0.5),(1.,1.),(0.5,0.5),(1.,1.)))
REPRESENTATION_ITEM('')
SURFACE()
);
#592=CARTESIAN_POINT('',(-68.3,-15.8,25.35));
#593=CARTESIAN_POINT('',(-68.3,-11.8,25.35));
#594=B_SPLINE_CURVE_WITH_KNOTS('',1,(#592,#593),.UNSPECIFIED.,.F.,.F.,(2,2),(0.01395731,0.01795731),.UNSPECIFIED.);
#595=EDGE_CURVE('',#514,#35,#594,.T.);
#596=ORIENTED_EDGE('',*,*,#595,.F.);
#597=ORIENTED_EDGE('',*,*,#525,.F.);
#598=ORIENTED_EDGE('',*,*,#537,.F.);
#599=ORIENTED_EDGE('',*,*,#595,.T.);
#600=ORIENTED_EDGE('',*,*,#46,.F.);
#601=ORIENTED_EDGE('',*,*,#58,.F.);
#602=EDGE_LOOP('',(#596,#597,#598,#599,#600,#601));
#603=FACE_BOUND('',#602,.T.);
#604=ADVANCED_FACE('',(#603),#591,.F.);
#605=CARTESIAN_POINT('',(-88.027243604,-15.,23.360067216));
#606=CARTESIAN_POINT('',(-88.027243604,-11.8,23.360067216));
#607=CARTESIAN_POINT('',(-90.343171021,-15.,23.188876018));
#608=CARTESIAN_POINT('',(-90.343171021,-11.8,23.188876018));
#609=CARTESIAN_POINT('',(-91.504293994,-15.,25.2));
#610=CARTESIAN_POINT('',(-91.504293994,-11.8,25.2));
#611=CARTESIAN_POINT('',(-94.708587988,-15.,30.75));
#612=CARTESIAN_POINT('',(-94.708587988,-11.8,30.75));
#613=CARTESIAN_POINT('',(-88.3,-15.,30.75));
#614=CARTESIAN_POINT('',(-88.3,-11.8,30.75));
#615=(BOUNDED_SURFACE()
B_SPLINE_SURFACE(2,1,((#605,#606),(#607,#608),(#609,#610),(#611,#612),(#613,#614)),.UNSPECIFIED.,.F.,.F.,.U.)
B_SPLINE_SURFACE_WITH_KNOTS((3,2,3),(2,2),(3.074646797,4.188790205,6.283185307),(-0.,0.0032),.UNSPECIFIED.)
GEOMETRIC_REPRESENTATION_ITEM()
RATIONAL_B_SPLINE_SURFACE(((0.751021716,0.751021716),(0.734017854,0.734017854),(1.,1.),(0.5,0.5),(1.,1.)))
REPRESENTATION_ITEM('')
SURFACE()
);
#616=ORIENTED_EDGE('',*,*,#367,.T.);
#617=ORIENTED_EDGE('',*,*,#443,.T.);
#618=ORIENTED_EDGE('',*,*,#241,.T.);
#619=ORIENTED_EDGE('',*,*,#108,.F.);
#620=EDGE_LOOP('',(#616,#617,#618,#619));
#621=FACE_BOUND('',#620,.T.);
#622=ADVANCED_FACE('',(#621),#615,.F.);
#623=CLOSED_SHELL('',(#148,#176,#204,#229,#271,#302,#338,#354,#383,#399,#451,#505,#558,#576,#604,#622));
#624=MANIFOLD_SOLID_BREP('Extruded.006',#623);
#26=STYLED_ITEM('',(),#624);
#16=SHAPE_REPRESENTATION('root',(#15),#10);
#17=ADVANCED_BREP_SHAPE_REPRESENTATION('root',(#624),#10);
#632=SHAPE_REPRESENTATION_RELATIONSHIP('','',#16,#17);
#633=APPLICATION_CONTEXT('configuration controlled 3D design of mechanical parts and assemblies');
#634=APPLICATION_PROTOCOL_DEFINITION('international standard','configuration_control_3d_design_ed2_mim',2004,#633);
#635=PRODUCT_CONTEXT('',#633,'mechanical');
#636=PRODUCT_DEFINITION_CONTEXT('part definition',#633,'design');
#24=PRODUCT('root','root','',(#635));
#637=PRODUCT_RELATED_PRODUCT_CATEGORY('part','',(#24));
#638=PRODUCT_DEFINITION_FORMATION_WITH_SPECIFIED_SOURCE('','',#24,.NOT_KNOWN.);
#25=PRODUCT_DEFINITION('design','',#638,#636);
#23=PRODUCT_DEFINITION_SHAPE('','',#25);
#639=SHAPE_DEFINITION_REPRESENTATION(#23,#16);
#11=DRAUGHTING_MODEL('',(),#10);
#1=MECHANICAL_DESIGN_GEOMETRIC_PRESENTATION_REPRESENTATION('',(#26),#10);
ENDSEC;
END-ISO-10303-21;
