ISO-10303-21;
HEADER;

/* File generated by HOOPS Exchange Version 25.8.0 */

FILE_DESCRIPTION(('HOOPS Exchange Step'),'2;1');

FILE_NAME('/home/tfannes/prints/260705_nerf_shooter/NerfShooter_PartL.step',
'2026-07-13T19:50:00+02:00',
('tfannes'),
('Unknown organisation'),
'HOOPS Exchange 2025.8',
'HOOPS Exchange',
'Unknown authorisation');

FILE_SCHEMA( ('AP203_CONFIGURATION_CONTROLLED_3D_DESIGN_OF_MECHANICAL_PARTS_AND_ASSEMBLIES_MIM_LF') );

ENDSEC;

DATA;
#3=(NAMED_UNIT(*)PLANE_ANGLE_UNIT()SI_UNIT($,.RADIAN.));
#4=PLANE_ANGLE_MEASURE_WITH_UNIT(PLANE_ANGLE_MEASURE(0.0174532925),#3);
#5=(CONVERSION_BASED_UNIT('DEGREE',#4)NAMED_UNIT(#6)PLANE_ANGLE_UNIT());
#6=DIMENSIONAL_EXPONENTS(0.,0.,0.,0.,0.,0.,0.);
#7=(NAMED_UNIT(*)SI_UNIT($,.STERADIAN.)SOLID_ANGLE_UNIT());
#8=(LENGTH_UNIT()NAMED_UNIT(*)SI_UNIT(.MILLI.,.METRE.));
#9=UNCERTAINTY_MEASURE_WITH_UNIT(LENGTH_MEASURE(1.000000E-03),#8,'DISTANCE_ACCURACY_VALUE','Maximum Tolerance applied to model');
#10=(GEOMETRIC_REPRESENTATION_CONTEXT(3)GLOBAL_UNCERTAINTY_ASSIGNED_CONTEXT((#9))GLOBAL_UNIT_ASSIGNED_CONTEXT((#8,#5,#7))REPRESENTATION_CONTEXT('','root'));
#12=CARTESIAN_POINT('',(0.,0.,0.));
#13=DIRECTION('',(0.,0.,1.));
#14=DIRECTION('',(1.,0.,0.));
#15=AXIS2_PLACEMENT_3D('',#12,#13,#14);
#26=(NAMED_UNIT(*)PLANE_ANGLE_UNIT()SI_UNIT($,.RADIAN.));
#27=PLANE_ANGLE_MEASURE_WITH_UNIT(PLANE_ANGLE_MEASURE(0.0174532925),#26);
#28=(CONVERSION_BASED_UNIT('DEGREE',#27)NAMED_UNIT(#29)PLANE_ANGLE_UNIT());
#29=DIMENSIONAL_EXPONENTS(0.,0.,0.,0.,0.,0.,0.);
#30=(NAMED_UNIT(*)SI_UNIT($,.STERADIAN.)SOLID_ANGLE_UNIT());
#31=(LENGTH_UNIT()NAMED_UNIT(*)SI_UNIT(.MILLI.,.METRE.));
#32=UNCERTAINTY_MEASURE_WITH_UNIT(LENGTH_MEASURE(1.000000E-05),#31,'DISTANCE_ACCURACY_VALUE','Maximum Tolerance applied to model');
#33=(GEOMETRIC_REPRESENTATION_CONTEXT(3)GLOBAL_UNCERTAINTY_ASSIGNED_CONTEXT((#32))GLOBAL_UNIT_ASSIGNED_CONTEXT((#31,#28,#30))REPRESENTATION_CONTEXT('','0'));
#35=CARTESIAN_POINT('',(0.,0.,0.));
#36=DIRECTION('',(0.,0.,1.));
#37=DIRECTION('',(1.,0.,0.));
#38=AXIS2_PLACEMENT_3D('',#35,#36,#37);
#49=CARTESIAN_POINT('',(0.,0.,0.));
#50=DIRECTION('',(0.,0.,1.));
#51=DIRECTION('',(1.,0.,-0.));
#52=AXIS2_PLACEMENT_3D('',#49,#50,#51);
#53=ITEM_DEFINED_TRANSFORMATION('','',#52,#38);
#54=(REPRESENTATION_RELATIONSHIP('','',#39,#16)REPRESENTATION_RELATIONSHIP_WITH_TRANSFORMATION(#53)SHAPE_REPRESENTATION_RELATIONSHIP());
#55=NEXT_ASSEMBLY_USAGE_OCCURRENCE('Group 1_1','Group 1','Group 1',#25,#48,$);
#56=PRODUCT_DEFINITION_SHAPE('','',#55);
#57=CONTEXT_DEPENDENT_SHAPE_REPRESENTATION(#54,#56);
#59=CARTESIAN_POINT('',(-110.30420266,-15.9,30.542576801));
#60=CARTESIAN_POINT('',(-110.30420266,-17.9,30.542576801));
#61=CARTESIAN_POINT('',(-113.005451341,-15.9,26.943513638));
#62=CARTESIAN_POINT('',(-113.005451341,-17.9,26.943513638));
#63=CARTESIAN_POINT('',(-109.406388172,-15.9,24.242264964));
#64=CARTESIAN_POINT('',(-109.406388172,-17.9,24.242264964));
#65=(BOUNDED_SURFACE()
B_SPLINE_SURFACE(2,1,((#59,#60),(#61,#62),(#63,#64)),.UNSPECIFIED.,.F.,.F.,.U.)
B_SPLINE_SURFACE_WITH_KNOTS((3,3),(2,2),(0.,1.533203628),(0.030925002,0.032925002),.UNSPECIFIED.)
GEOMETRIC_REPRESENTATION_ITEM()
RATIONAL_B_SPLINE_SURFACE(((1.,1.),(0.633974596,0.633974596),(0.803847578,0.803847578)))
REPRESENTATION_ITEM('')
SURFACE()
);
#66=CARTESIAN_POINT('',(-110.30420266,-17.9,30.542576801));
#67=VERTEX_POINT('',#66);
#68=CARTESIAN_POINT('',(-110.30420266,-15.9,30.542576801));
#69=VERTEX_POINT('',#68);
#70=CARTESIAN_POINT('',(-110.30420266,-17.9,30.542576801));
#71=CARTESIAN_POINT('',(-110.30420266,-15.9,30.542576801));
#72=B_SPLINE_CURVE_WITH_KNOTS('',1,(#70,#71),.UNSPECIFIED.,.F.,.F.,(2,2),(0.030925002,0.032925002),.UNSPECIFIED.);
#73=EDGE_CURVE('',#67,#69,#72,.T.);
#74=ORIENTED_EDGE('',*,*,#73,.T.);
#75=CARTESIAN_POINT('',(-109.406388172,-15.9,24.242264964));
#76=VERTEX_POINT('',#75);
#77=CARTESIAN_POINT('',(-109.406388172,-15.9,24.242264964));
#78=CARTESIAN_POINT('',(-111.484308259,-15.9,25.801831611));
#79=CARTESIAN_POINT('',(-111.172643965,-15.9,28.381146516));
#80=CARTESIAN_POINT('',(-110.860979672,-15.9,30.960461421));
#81=CARTESIAN_POINT('',(-108.471395292,-15.9,31.980209676));
#82=CARTESIAN_POINT('',(-106.081810912,-15.9,32.999957931));
#83=CARTESIAN_POINT('',(-104.003890829,-15.9,31.44039128));
#84=(BOUNDED_CURVE()
B_SPLINE_CURVE(2,(#77,#78,#79,#80,#81,#82,#83),.UNSPECIFIED.,.F.,.F.)
B_SPLINE_CURVE_WITH_KNOTS((3,2,2,3),(1.570796325,2.617993877,3.665191428,4.71238898),.UNSPECIFIED.)
CURVE()
GEOMETRIC_REPRESENTATION_ITEM()
RATIONAL_B_SPLINE_CURVE((1.,0.866025404,1.,0.866025404,1.,0.866025404,1.))
REPRESENTATION_ITEM(''));
#85=EDGE_CURVE('',#76,#69,#84,.T.);
#86=ORIENTED_EDGE('',*,*,#85,.F.);
#87=CARTESIAN_POINT('',(-109.406388172,-17.9,24.242264964));
#88=VERTEX_POINT('',#87);
#89=CARTESIAN_POINT('',(-109.406388172,-15.9,24.242264964));
#90=CARTESIAN_POINT('',(-109.406388172,-17.9,24.242264964));
#91=B_SPLINE_CURVE_WITH_KNOTS('',1,(#89,#90),.UNSPECIFIED.,.F.,.F.,(2,2),(0.030925002,0.032925002),.UNSPECIFIED.);
#92=EDGE_CURVE('',#76,#88,#91,.T.);
#93=ORIENTED_EDGE('',*,*,#92,.T.);
#94=CARTESIAN_POINT('',(-104.003890829,-17.9,31.44039128));
#95=CARTESIAN_POINT('',(-106.081810912,-17.9,32.999957931));
#96=CARTESIAN_POINT('',(-108.471395292,-17.9,31.980209676));
#97=CARTESIAN_POINT('',(-110.860979672,-17.9,30.960461421));
#98=CARTESIAN_POINT('',(-111.172643965,-17.9,28.381146516));
#99=CARTESIAN_POINT('',(-111.484308259,-17.9,25.801831611));
#100=CARTESIAN_POINT('',(-109.406388172,-17.9,24.242264964));
#101=(BOUNDED_CURVE()
B_SPLINE_CURVE(2,(#94,#95,#96,#97,#98,#99,#100),.UNSPECIFIED.,.F.,.F.)
B_SPLINE_CURVE_WITH_KNOTS((3,2,2,3),(3.141592651,4.188790203,5.235987755,6.283185307),.UNSPECIFIED.)
CURVE()
GEOMETRIC_REPRESENTATION_ITEM()
RATIONAL_B_SPLINE_CURVE((1.,0.866025404,1.,0.866025404,1.,0.866025404,1.))
REPRESENTATION_ITEM(''));
#102=EDGE_CURVE('',#67,#88,#101,.T.);
#103=ORIENTED_EDGE('',*,*,#102,.F.);
#104=EDGE_LOOP('',(#74,#86,#93,#103));
#105=FACE_BOUND('',#104,.T.);
#106=ADVANCED_FACE('',(#105),#65,.T.);
#107=CARTESIAN_POINT('',(-103.905868168,-17.9,25.740356925));
#108=CARTESIAN_POINT('',(-103.905868168,-15.9,25.740356925));
#109=CARTESIAN_POINT('',(-105.517420373,-17.9,23.593172841));
#110=CARTESIAN_POINT('',(-105.517420373,-15.9,23.593172841));
#111=CARTESIAN_POINT('',(-106.571160234,-17.9,26.062410032));
#112=CARTESIAN_POINT('',(-106.571160234,-15.9,26.062410032));
#113=CARTESIAN_POINT('',(-107.624900095,-17.9,28.531647223));
#114=CARTESIAN_POINT('',(-107.624900095,-15.9,28.531647223));
#115=CARTESIAN_POINT('',(-104.959608029,-17.9,28.209594116));
#116=CARTESIAN_POINT('',(-104.959608029,-15.9,28.209594116));
#117=CARTESIAN_POINT('',(-102.294315963,-17.9,27.887541009));
#118=CARTESIAN_POINT('',(-102.294315963,-15.9,27.887541009));
#119=CARTESIAN_POINT('',(-103.905868168,-17.9,25.740356925));
#120=CARTESIAN_POINT('',(-103.905868168,-15.9,25.740356925));
#121=(BOUNDED_SURFACE()
B_SPLINE_SURFACE(2,1,((#107,#108),(#109,#110),(#111,#112),(#113,#114),(#115,#116),(#117,#118),(#119,#120)),.UNSPECIFIED.,.T.,.F.,.U.)
B_SPLINE_SURFACE_WITH_KNOTS((3,2,2,3),(2,2),(0.,2.094395102,4.188790205,6.283185307),(0.003616194,0.005616194),.UNSPECIFIED.)
GEOMETRIC_REPRESENTATION_ITEM()
RATIONAL_B_SPLINE_SURFACE(((1.,1.),(0.5,0.5),(1.,1.),(0.5,0.5),(1.,1.),(0.5,0.5),(1.,1.)))
REPRESENTATION_ITEM('')
SURFACE()
);
#122=CARTESIAN_POINT('',(-103.905868168,-15.9,25.740356925));
#123=VERTEX_POINT('',#122);
#124=CARTESIAN_POINT('',(-103.905868168,-17.9,25.740356925));
#125=VERTEX_POINT('',#124);
#126=CARTESIAN_POINT('',(-103.905868168,-15.9,25.740356925));
#127=CARTESIAN_POINT('',(-103.905868168,-17.9,25.740356925));
#128=B_SPLINE_CURVE_WITH_KNOTS('',1,(#126,#127),.UNSPECIFIED.,.F.,.F.,(2,2),(0.003616194,0.005616194),.UNSPECIFIED.);
#129=EDGE_CURVE('',#123,#125,#128,.T.);
#130=ORIENTED_EDGE('',*,*,#129,.F.);
#131=CARTESIAN_POINT('',(-103.905868168,-15.9,25.740356925));
#132=CARTESIAN_POINT('',(-102.975438069,-15.9,26.980034234));
#133=CARTESIAN_POINT('',(-104.215115378,-15.9,27.910464333));
#134=CARTESIAN_POINT('',(-105.454792686,-15.9,28.840894432));
#135=CARTESIAN_POINT('',(-106.385222786,-15.9,27.601217124));
#136=CARTESIAN_POINT('',(-107.315652885,-15.9,26.361539815));
#137=CARTESIAN_POINT('',(-106.075975576,-15.9,25.431109715));
#138=CARTESIAN_POINT('',(-104.836298267,-15.9,24.500679616));
#139=CARTESIAN_POINT('',(-103.905868168,-15.9,25.740356925));
#140=(BOUNDED_CURVE()
B_SPLINE_CURVE(2,(#131,#132,#133,#134,#135,#136,#137,#138,#139),.UNSPECIFIED.,.T.,.F.)
B_SPLINE_CURVE_WITH_KNOTS((3,2,2,2,3),(0.,1.570796327,3.141592654,4.71238898,6.283185307),.UNSPECIFIED.)
CURVE()
GEOMETRIC_REPRESENTATION_ITEM()
RATIONAL_B_SPLINE_CURVE((1.,0.707106781,1.,0.707106781,1.,0.707106781,1.,0.707106781,1.))
REPRESENTATION_ITEM(''));
#141=EDGE_CURVE('',#123,#123,#140,.T.);
#142=ORIENTED_EDGE('',*,*,#141,.F.);
#143=ORIENTED_EDGE('',*,*,#129,.T.);
#144=CARTESIAN_POINT('',(-106.385222786,-17.9,27.601217124));
#145=VERTEX_POINT('',#144);
#146=CARTESIAN_POINT('',(-106.385222786,-17.9,27.601217124));
#147=CARTESIAN_POINT('',(-105.454792686,-17.9,28.840894432));
#148=CARTESIAN_POINT('',(-104.215115378,-17.9,27.910464333));
#149=CARTESIAN_POINT('',(-102.975438069,-17.9,26.980034234));
#150=CARTESIAN_POINT('',(-103.905868168,-17.9,25.740356925));
#151=CARTESIAN_POINT('',(-104.836298267,-17.9,24.500679616));
#152=CARTESIAN_POINT('',(-106.075975576,-17.9,25.431109715));
#153=CARTESIAN_POINT('',(-107.315652885,-17.9,26.361539815));
#154=CARTESIAN_POINT('',(-106.385222786,-17.9,27.601217124));
#155=(BOUNDED_CURVE()
B_SPLINE_CURVE(2,(#146,#147,#148,#149,#150,#151,#152,#153,#154),.UNSPECIFIED.,.T.,.F.)
B_SPLINE_CURVE_WITH_KNOTS((3,2,2,2,3),(0.,1.570796327,3.141592654,4.71238898,6.283185307),.UNSPECIFIED.)
CURVE()
GEOMETRIC_REPRESENTATION_ITEM()
RATIONAL_B_SPLINE_CURVE((1.,0.707106781,1.,0.707106781,1.,0.707106781,1.,0.707106781,1.))
REPRESENTATION_ITEM(''));
#156=EDGE_CURVE('',#145,#125,#155,.T.);
#157=ORIENTED_EDGE('',*,*,#156,.F.);
#158=CARTESIAN_POINT('',(-106.385222786,-17.9,27.601217124));
#159=CARTESIAN_POINT('',(-105.454792686,-17.9,28.840894432));
#160=CARTESIAN_POINT('',(-104.215115378,-17.9,27.910464333));
#161=CARTESIAN_POINT('',(-102.975438069,-17.9,26.980034234));
#162=CARTESIAN_POINT('',(-103.905868168,-17.9,25.740356925));
#163=CARTESIAN_POINT('',(-104.836298267,-17.9,24.500679616));
#164=CARTESIAN_POINT('',(-106.075975576,-17.9,25.431109715));
#165=CARTESIAN_POINT('',(-107.315652885,-17.9,26.361539815));
#166=CARTESIAN_POINT('',(-106.385222786,-17.9,27.601217124));
#167=(BOUNDED_CURVE()
B_SPLINE_CURVE(2,(#158,#159,#160,#161,#162,#163,#164,#165,#166),.UNSPECIFIED.,.T.,.F.)
B_SPLINE_CURVE_WITH_KNOTS((3,2,2,2,3),(0.,1.570796327,3.141592654,4.71238898,6.283185307),.UNSPECIFIED.)
CURVE()
GEOMETRIC_REPRESENTATION_ITEM()
RATIONAL_B_SPLINE_CURVE((1.,0.707106781,1.,0.707106781,1.,0.707106781,1.,0.707106781,1.))
REPRESENTATION_ITEM(''));
#168=EDGE_CURVE('',#125,#145,#167,.T.);
#169=ORIENTED_EDGE('',*,*,#168,.F.);
#170=EDGE_LOOP('',(#130,#142,#143,#157,#169));
#171=FACE_BOUND('',#170,.T.);
#172=ADVANCED_FACE('',(#171),#121,.F.);
#173=CARTESIAN_POINT('',(-107.602953984,-15.9,34.141639955));
#174=CARTESIAN_POINT('',(-113.005451341,-15.9,26.943513638));
#175=CARTESIAN_POINT('',(-94.78852472,-15.9,24.523870389));
#176=CARTESIAN_POINT('',(-100.191022077,-15.9,17.325744071));
#177=B_SPLINE_SURFACE_WITH_KNOTS('',1,1,((#173,#174),(#175,#176)),.UNSPECIFIED.,.F.,.F.,.U.,(2,2),(2,2),(-0.000336831,0.015685375),(-0.009,0.),.UNSPECIFIED.);
#178=ORIENTED_EDGE('',*,*,#141,.T.);
#179=EDGE_LOOP('',(#178));
#180=FACE_BOUND('',#179,.T.);
#181=CARTESIAN_POINT('',(-100.191022077,-15.9,17.325744071));
#182=VERTEX_POINT('',#181);
#183=CARTESIAN_POINT('',(-109.406388178,-15.9,24.242264956));
#184=CARTESIAN_POINT('',(-100.191022077,-15.9,17.325744071));
#185=B_SPLINE_CURVE_WITH_KNOTS('',1,(#183,#184),.UNSPECIFIED.,.F.,.F.,(2,2),(0.004163169,0.015685375),.UNSPECIFIED.);
#186=EDGE_CURVE('',#76,#182,#185,.T.);
#187=ORIENTED_EDGE('',*,*,#186,.F.);
#188=ORIENTED_EDGE('',*,*,#85,.T.);
#189=CARTESIAN_POINT('',(-104.003890835,-15.9,31.440391272));
#190=VERTEX_POINT('',#189);
#191=CARTESIAN_POINT('',(-109.406388172,-15.9,24.242264964));
#192=CARTESIAN_POINT('',(-111.484308259,-15.9,25.801831611));
#193=CARTESIAN_POINT('',(-111.172643965,-15.9,28.381146516));
#194=CARTESIAN_POINT('',(-110.860979672,-15.9,30.960461421));
#195=CARTESIAN_POINT('',(-108.471395292,-15.9,31.980209676));
#196=CARTESIAN_POINT('',(-106.081810912,-15.9,32.999957931));
#197=CARTESIAN_POINT('',(-104.003890829,-15.9,31.44039128));
#198=(BOUNDED_CURVE()
B_SPLINE_CURVE(2,(#191,#192,#193,#194,#195,#196,#197),.UNSPECIFIED.,.F.,.F.)
B_SPLINE_CURVE_WITH_KNOTS((3,2,2,3),(1.570796325,2.617993877,3.665191428,4.71238898),.UNSPECIFIED.)
CURVE()
GEOMETRIC_REPRESENTATION_ITEM()
RATIONAL_B_SPLINE_CURVE((1.,0.866025404,1.,0.866025404,1.,0.866025404,1.))
REPRESENTATION_ITEM(''));
#199=EDGE_CURVE('',#69,#190,#198,.T.);
#200=ORIENTED_EDGE('',*,*,#199,.T.);
#201=CARTESIAN_POINT('',(-94.788524726,-15.9,24.523870381));
#202=VERTEX_POINT('',#201);
#203=CARTESIAN_POINT('',(-104.003890835,-15.9,31.440391272));
#204=CARTESIAN_POINT('',(-94.788524726,-15.9,24.523870381));
#205=B_SPLINE_CURVE_WITH_KNOTS('',1,(#203,#204),.UNSPECIFIED.,.F.,.F.,(2,2),(0.004163169,0.015685375),.UNSPECIFIED.);
#206=EDGE_CURVE('',#190,#202,#205,.T.);
#207=ORIENTED_EDGE('',*,*,#206,.T.);
#208=CARTESIAN_POINT('',(-100.191022077,-15.9,17.325744071));
#209=CARTESIAN_POINT('',(-94.788524726,-15.9,24.523870381));
#210=B_SPLINE_CURVE_WITH_KNOTS('',1,(#208,#209),.UNSPECIFIED.,.F.,.F.,(2,2),(0.,0.009),.UNSPECIFIED.);
#211=EDGE_CURVE('',#182,#202,#210,.T.);
#212=ORIENTED_EDGE('',*,*,#211,.F.);
#213=EDGE_LOOP('',(#187,#188,#200,#207,#212));
#214=FACE_BOUND('',#213,.T.);
#215=ADVANCED_FACE('',(#180,#214),#177,.T.);
#216=CARTESIAN_POINT('',(-81.621373761,-17.9,3.3884399));
#217=CARTESIAN_POINT('',(-81.621373761,-9.7,3.3884399));
#218=CARTESIAN_POINT('',(-109.406388178,-17.9,24.242264956));
#219=CARTESIAN_POINT('',(-109.406388178,-9.7,24.242264956));
#220=B_SPLINE_SURFACE_WITH_KNOTS('',1,1,((#216,#217),(#218,#219)),.UNSPECIFIED.,.F.,.F.,.U.,(2,2),(2,2),(-0.038903478,-0.004163169),(0.,0.0082),.UNSPECIFIED.);
#221=ORIENTED_EDGE('',*,*,#186,.T.);
#222=CARTESIAN_POINT('',(-100.191022077,-11.7,17.325744071));
#223=VERTEX_POINT('',#222);
#224=CARTESIAN_POINT('',(-100.191022077,-11.7,17.325744071));
#225=CARTESIAN_POINT('',(-100.191022077,-15.9,17.325744071));
#226=B_SPLINE_CURVE_WITH_KNOTS('',1,(#224,#225),.UNSPECIFIED.,.F.,.F.,(2,2),(-0.0021,0.0021),.UNSPECIFIED.);
#227=EDGE_CURVE('',#223,#182,#226,.T.);
#228=ORIENTED_EDGE('',*,*,#227,.F.);
#229=CARTESIAN_POINT('',(-109.406388186,-11.7,24.242264962));
#230=VERTEX_POINT('',#229);
#231=CARTESIAN_POINT('',(-109.406388186,-11.7,24.242264962));
#232=CARTESIAN_POINT('',(-100.191022077,-11.7,17.325744071));
#233=B_SPLINE_CURVE_WITH_KNOTS('',1,(#231,#232),.UNSPECIFIED.,.F.,.F.,(2,2),(0.004163169,0.015685375),.UNSPECIFIED.);
#234=EDGE_CURVE('',#230,#223,#233,.T.);
#235=ORIENTED_EDGE('',*,*,#234,.F.);
#236=CARTESIAN_POINT('',(-109.406388172,-9.7,24.242264964));
#237=VERTEX_POINT('',#236);
#238=CARTESIAN_POINT('',(-109.406388172,-9.7,24.242264964));
#239=CARTESIAN_POINT('',(-109.406388172,-11.7,24.242264964));
#240=B_SPLINE_CURVE_WITH_KNOTS('',1,(#238,#239),.UNSPECIFIED.,.F.,.F.,(2,2),(0.024725002,0.026725002),.UNSPECIFIED.);
#241=EDGE_CURVE('',#237,#230,#240,.T.);
#242=ORIENTED_EDGE('',*,*,#241,.F.);
#243=CARTESIAN_POINT('',(-81.621373761,-9.7,3.3884399));
#244=VERTEX_POINT('',#243);
#245=CARTESIAN_POINT('',(-109.406388178,-9.7,24.242264956));
#246=CARTESIAN_POINT('',(-81.621373761,-9.7,3.3884399));
#247=B_SPLINE_CURVE_WITH_KNOTS('',1,(#245,#246),.UNSPECIFIED.,.F.,.F.,(2,2),(0.004163169,0.038903478),.UNSPECIFIED.);
#248=EDGE_CURVE('',#237,#244,#247,.T.);
#249=ORIENTED_EDGE('',*,*,#248,.T.);
#250=CARTESIAN_POINT('',(-81.621373761,-17.9,3.3884399));
#251=VERTEX_POINT('',#250);
#252=CARTESIAN_POINT('',(-81.621373761,-9.7,3.3884399));
#253=CARTESIAN_POINT('',(-81.621373761,-17.9,3.3884399));
#254=B_SPLINE_CURVE_WITH_KNOTS('',1,(#252,#253),.UNSPECIFIED.,.F.,.F.,(2,2),(0.007996474,0.016196474),.UNSPECIFIED.);
#255=EDGE_CURVE('',#244,#251,#254,.T.);
#256=ORIENTED_EDGE('',*,*,#255,.T.);
#257=CARTESIAN_POINT('',(-109.406388178,-17.9,24.242264956));
#258=CARTESIAN_POINT('',(-81.621373761,-17.9,3.3884399));
#259=B_SPLINE_CURVE_WITH_KNOTS('',1,(#257,#258),.UNSPECIFIED.,.F.,.F.,(2,2),(0.004163169,0.038903478),.UNSPECIFIED.);
#260=EDGE_CURVE('',#88,#251,#259,.T.);
#261=ORIENTED_EDGE('',*,*,#260,.F.);
#262=ORIENTED_EDGE('',*,*,#92,.F.);
#263=EDGE_LOOP('',(#221,#228,#235,#242,#249,#256,#261,#262));
#264=FACE_BOUND('',#263,.T.);
#265=ADVANCED_FACE('',(#264),#220,.T.);
#266=CARTESIAN_POINT('',(-104.003890835,-17.9,31.440391272));
#267=CARTESIAN_POINT('',(-104.003890835,-9.7,31.440391272));
#268=CARTESIAN_POINT('',(-76.21887641,-17.9,10.586566209));
#269=CARTESIAN_POINT('',(-76.21887641,-9.7,10.586566209));
#270=B_SPLINE_SURFACE_WITH_KNOTS('',1,1,((#266,#267),(#268,#269)),.UNSPECIFIED.,.F.,.F.,.U.,(2,2),(2,2),(0.004163169,0.038903478),(-0.002,0.0062),.UNSPECIFIED.);
#271=CARTESIAN_POINT('',(-104.003890829,-17.9,31.44039128));
#272=VERTEX_POINT('',#271);
#273=CARTESIAN_POINT('',(-76.21887641,-17.9,10.586566209));
#274=VERTEX_POINT('',#273);
#275=CARTESIAN_POINT('',(-104.003890835,-17.9,31.440391272));
#276=CARTESIAN_POINT('',(-76.21887641,-17.9,10.586566209));
#277=B_SPLINE_CURVE_WITH_KNOTS('',1,(#275,#276),.UNSPECIFIED.,.F.,.F.,(2,2),(0.004163169,0.038903478),.UNSPECIFIED.);
#278=EDGE_CURVE('',#272,#274,#277,.T.);
#279=ORIENTED_EDGE('',*,*,#278,.T.);
#280=CARTESIAN_POINT('',(-76.21887641,-9.7,10.586566209));
#281=VERTEX_POINT('',#280);
#282=CARTESIAN_POINT('',(-76.21887641,-9.7,10.586566209));
#283=CARTESIAN_POINT('',(-76.21887641,-17.9,10.586566209));
#284=B_SPLINE_CURVE_WITH_KNOTS('',1,(#282,#283),.UNSPECIFIED.,.F.,.F.,(2,2),(0.007996474,0.016196474),.UNSPECIFIED.);
#285=EDGE_CURVE('',#281,#274,#284,.T.);
#286=ORIENTED_EDGE('',*,*,#285,.F.);
#287=CARTESIAN_POINT('',(-104.003890829,-9.7,31.44039128));
#288=VERTEX_POINT('',#287);
#289=CARTESIAN_POINT('',(-104.003890835,-9.7,31.440391272));
#290=CARTESIAN_POINT('',(-76.21887641,-9.7,10.586566209));
#291=B_SPLINE_CURVE_WITH_KNOTS('',1,(#289,#290),.UNSPECIFIED.,.F.,.F.,(2,2),(0.004163169,0.038903478),.UNSPECIFIED.);
#292=EDGE_CURVE('',#288,#281,#291,.T.);
#293=ORIENTED_EDGE('',*,*,#292,.F.);
#294=CARTESIAN_POINT('',(-104.003890829,-11.7,31.44039128));
#295=VERTEX_POINT('',#294);
#296=CARTESIAN_POINT('',(-104.003890829,-9.7,31.44039128));
#297=CARTESIAN_POINT('',(-104.003890829,-11.7,31.44039128));
#298=B_SPLINE_CURVE_WITH_KNOTS('',1,(#296,#297),.UNSPECIFIED.,.F.,.F.,(2,2),(0.024725002,0.026725002),.UNSPECIFIED.);
#299=EDGE_CURVE('',#288,#295,#298,.T.);
#300=ORIENTED_EDGE('',*,*,#299,.T.);
#301=CARTESIAN_POINT('',(-94.788524726,-11.7,24.523870381));
#302=VERTEX_POINT('',#301);
#303=CARTESIAN_POINT('',(-104.003890835,-11.7,31.440391272));
#304=CARTESIAN_POINT('',(-94.788524726,-11.7,24.523870381));
#305=B_SPLINE_CURVE_WITH_KNOTS('',1,(#303,#304),.UNSPECIFIED.,.F.,.F.,(2,2),(0.004163169,0.015685375),.UNSPECIFIED.);
#306=EDGE_CURVE('',#295,#302,#305,.T.);
#307=ORIENTED_EDGE('',*,*,#306,.T.);
#308=CARTESIAN_POINT('',(-94.788524726,-15.9,24.523870381));
#309=CARTESIAN_POINT('',(-94.788524726,-11.7,24.523870381));
#310=B_SPLINE_CURVE_WITH_KNOTS('',1,(#308,#309),.UNSPECIFIED.,.F.,.F.,(2,2),(-0.0021,0.0021),.UNSPECIFIED.);
#311=EDGE_CURVE('',#202,#302,#310,.T.);
#312=ORIENTED_EDGE('',*,*,#311,.F.);
#313=ORIENTED_EDGE('',*,*,#206,.F.);
#314=CARTESIAN_POINT('',(-104.003890829,-15.9,31.44039128));
#315=CARTESIAN_POINT('',(-104.003890829,-17.9,31.44039128));
#316=B_SPLINE_CURVE_WITH_KNOTS('',1,(#314,#315),.UNSPECIFIED.,.F.,.F.,(2,2),(0.030925002,0.032925002),.UNSPECIFIED.);
#317=EDGE_CURVE('',#190,#272,#316,.T.);
#318=ORIENTED_EDGE('',*,*,#317,.T.);
#319=EDGE_LOOP('',(#279,#286,#293,#300,#307,#312,#313,#318));
#320=FACE_BOUND('',#319,.T.);
#321=ADVANCED_FACE('',(#320),#270,.T.);
#322=CARTESIAN_POINT('',(-72.619813249,-17.9,7.885317542));
#323=CARTESIAN_POINT('',(-78.022310606,-17.9,0.687191224));
#324=CARTESIAN_POINT('',(-107.602953984,-17.9,34.141639955));
#325=CARTESIAN_POINT('',(-113.005451341,-17.9,26.943513638));
#326=B_SPLINE_SURFACE_WITH_KNOTS('',1,1,((#322,#323),(#324,#325)),.UNSPECIFIED.,.F.,.F.,.U.,(2,2),(2,2),(-0.043403478,0.000336831),(-0.0045,0.0045),.UNSPECIFIED.);
#327=ORIENTED_EDGE('',*,*,#260,.T.);
#328=CARTESIAN_POINT('',(-81.621373761,-17.9,3.3884399));
#329=CARTESIAN_POINT('',(-78.022310606,-17.9,0.687191224));
#330=CARTESIAN_POINT('',(-75.321061931,-17.9,4.286254379));
#331=CARTESIAN_POINT('',(-72.619813255,-17.9,7.885317534));
#332=CARTESIAN_POINT('',(-76.21887641,-17.9,10.586566209));
#333=(BOUNDED_CURVE()
B_SPLINE_CURVE(2,(#328,#329,#330,#331,#332),.UNSPECIFIED.,.F.,.F.)
B_SPLINE_CURVE_WITH_KNOTS((3,2,3),(6.283185307,7.853981634,9.424777961),.UNSPECIFIED.)
CURVE()
GEOMETRIC_REPRESENTATION_ITEM()
RATIONAL_B_SPLINE_CURVE((1.,0.707106781,1.,0.707106781,1.))
REPRESENTATION_ITEM(''));
#334=EDGE_CURVE('',#251,#274,#333,.T.);
#335=ORIENTED_EDGE('',*,*,#334,.T.);
#336=ORIENTED_EDGE('',*,*,#278,.F.);
#337=CARTESIAN_POINT('',(-104.003890829,-17.9,31.44039128));
#338=CARTESIAN_POINT('',(-106.081810912,-17.9,32.999957931));
#339=CARTESIAN_POINT('',(-108.471395292,-17.9,31.980209676));
#340=CARTESIAN_POINT('',(-110.860979672,-17.9,30.960461421));
#341=CARTESIAN_POINT('',(-111.172643965,-17.9,28.381146516));
#342=CARTESIAN_POINT('',(-111.484308259,-17.9,25.801831611));
#343=CARTESIAN_POINT('',(-109.406388172,-17.9,24.242264964));
#344=(BOUNDED_CURVE()
B_SPLINE_CURVE(2,(#337,#338,#339,#340,#341,#342,#343),.UNSPECIFIED.,.F.,.F.)
B_SPLINE_CURVE_WITH_KNOTS((3,2,2,3),(3.141592651,4.188790203,5.235987755,6.283185307),.UNSPECIFIED.)
CURVE()
GEOMETRIC_REPRESENTATION_ITEM()
RATIONAL_B_SPLINE_CURVE((1.,0.866025404,1.,0.866025404,1.,0.866025404,1.))
REPRESENTATION_ITEM(''));
#345=EDGE_CURVE('',#272,#67,#344,.T.);
#346=ORIENTED_EDGE('',*,*,#345,.T.);
#347=ORIENTED_EDGE('',*,*,#102,.T.);
#348=EDGE_LOOP('',(#327,#335,#336,#346,#347));
#349=FACE_BOUND('',#348,.T.);
#350=ORIENTED_EDGE('',*,*,#156,.T.);
#351=ORIENTED_EDGE('',*,*,#168,.T.);
#352=EDGE_LOOP('',(#350,#351));
#353=FACE_BOUND('',#352,.T.);
#354=CARTESIAN_POINT('',(-79.759906488,-17.9,7.617794412));
#355=VERTEX_POINT('',#354);
#356=CARTESIAN_POINT('',(-78.62047584,-17.9,5.981167956));
#357=VERTEX_POINT('',#356);
#358=CARTESIAN_POINT('',(-78.62047584,-17.9,5.981167956));
#359=CARTESIAN_POINT('',(-77.614140742,-17.9,6.280817202));
#360=CARTESIAN_POINT('',(-77.913789987,-17.9,7.2871523));
#361=CARTESIAN_POINT('',(-78.213439233,-17.9,8.293487398));
#362=CARTESIAN_POINT('',(-79.219774331,-17.9,7.993838153));
#363=CARTESIAN_POINT('',(-80.226109429,-17.9,7.694188908));
#364=CARTESIAN_POINT('',(-79.926460184,-17.9,6.687853809));
#365=CARTESIAN_POINT('',(-79.626810938,-17.9,5.681518711));
#366=CARTESIAN_POINT('',(-78.62047584,-17.9,5.981167956));
#367=(BOUNDED_CURVE()
B_SPLINE_CURVE(2,(#358,#359,#360,#361,#362,#363,#364,#365,#366),.UNSPECIFIED.,.T.,.F.)
B_SPLINE_CURVE_WITH_KNOTS((3,2,2,2,3),(0.,1.570796327,3.141592654,4.71238898,6.283185307),.UNSPECIFIED.)
CURVE()
GEOMETRIC_REPRESENTATION_ITEM()
RATIONAL_B_SPLINE_CURVE((1.,0.707106781,1.,0.707106781,1.,0.707106781,1.,0.707106781,1.))
REPRESENTATION_ITEM(''));
#368=EDGE_CURVE('',#355,#357,#367,.T.);
#369=ORIENTED_EDGE('',*,*,#368,.F.);
#370=CARTESIAN_POINT('',(-78.62047584,-17.9,5.981167956));
#371=CARTESIAN_POINT('',(-77.614140742,-17.9,6.280817202));
#372=CARTESIAN_POINT('',(-77.913789987,-17.9,7.2871523));
#373=CARTESIAN_POINT('',(-78.213439233,-17.9,8.293487398));
#374=CARTESIAN_POINT('',(-79.219774331,-17.9,7.993838153));
#375=CARTESIAN_POINT('',(-80.226109429,-17.9,7.694188908));
#376=CARTESIAN_POINT('',(-79.926460184,-17.9,6.687853809));
#377=CARTESIAN_POINT('',(-79.626810938,-17.9,5.681518711));
#378=CARTESIAN_POINT('',(-78.62047584,-17.9,5.981167956));
#379=(BOUNDED_CURVE()
B_SPLINE_CURVE(2,(#370,#371,#372,#373,#374,#375,#376,#377,#378),.UNSPECIFIED.,.T.,.F.)
B_SPLINE_CURVE_WITH_KNOTS((3,2,2,2,3),(0.,1.570796327,3.141592654,4.71238898,6.283185307),.UNSPECIFIED.)
CURVE()
GEOMETRIC_REPRESENTATION_ITEM()
RATIONAL_B_SPLINE_CURVE((1.,0.707106781,1.,0.707106781,1.,0.707106781,1.,0.707106781,1.))
REPRESENTATION_ITEM(''));
#380=EDGE_CURVE('',#357,#355,#379,.T.);
#381=ORIENTED_EDGE('',*,*,#380,.F.);
#382=EDGE_LOOP('',(#369,#381));
#383=FACE_BOUND('',#382,.T.);
#384=ADVANCED_FACE('',(#349,#353,#383),#326,.T.);
#385=CARTESIAN_POINT('',(-110.30420266,-9.7,30.542576801));
#386=CARTESIAN_POINT('',(-110.30420266,-11.7,30.542576801));
#387=CARTESIAN_POINT('',(-113.005451341,-9.7,26.943513638));
#388=CARTESIAN_POINT('',(-113.005451341,-11.7,26.943513638));
#389=CARTESIAN_POINT('',(-109.406388172,-9.7,24.242264964));
#390=CARTESIAN_POINT('',(-109.406388172,-11.7,24.242264964));
#391=(BOUNDED_SURFACE()
B_SPLINE_SURFACE(2,1,((#385,#386),(#387,#388),(#389,#390)),.UNSPECIFIED.,.F.,.F.,.U.)
B_SPLINE_SURFACE_WITH_KNOTS((3,3),(2,2),(0.,1.533203628),(0.024725002,0.026725002),.UNSPECIFIED.)
GEOMETRIC_REPRESENTATION_ITEM()
RATIONAL_B_SPLINE_SURFACE(((1.,1.),(0.633974596,0.633974596),(0.803847578,0.803847578)))
REPRESENTATION_ITEM('')
SURFACE()
);
#392=CARTESIAN_POINT('',(-110.30420266,-11.7,30.542576801));
#393=VERTEX_POINT('',#392);
#394=CARTESIAN_POINT('',(-110.30420266,-9.7,30.542576801));
#395=VERTEX_POINT('',#394);
#396=CARTESIAN_POINT('',(-110.30420266,-11.7,30.542576801));
#397=CARTESIAN_POINT('',(-110.30420266,-9.7,30.542576801));
#398=B_SPLINE_CURVE_WITH_KNOTS('',1,(#396,#397),.UNSPECIFIED.,.F.,.F.,(2,2),(0.024725002,0.026725002),.UNSPECIFIED.);
#399=EDGE_CURVE('',#393,#395,#398,.T.);
#400=ORIENTED_EDGE('',*,*,#399,.T.);
#401=CARTESIAN_POINT('',(-109.406388172,-9.7,24.242264964));
#402=CARTESIAN_POINT('',(-111.484308259,-9.7,25.801831611));
#403=CARTESIAN_POINT('',(-111.172643965,-9.7,28.381146516));
#404=CARTESIAN_POINT('',(-110.860979672,-9.7,30.960461421));
#405=CARTESIAN_POINT('',(-108.471395292,-9.7,31.980209676));
#406=CARTESIAN_POINT('',(-106.081810912,-9.7,32.999957931));
#407=CARTESIAN_POINT('',(-104.003890829,-9.7,31.44039128));
#408=(BOUNDED_CURVE()
B_SPLINE_CURVE(2,(#401,#402,#403,#404,#405,#406,#407),.UNSPECIFIED.,.F.,.F.)
B_SPLINE_CURVE_WITH_KNOTS((3,2,2,3),(1.570796325,2.617993877,3.665191428,4.71238898),.UNSPECIFIED.)
CURVE()
GEOMETRIC_REPRESENTATION_ITEM()
RATIONAL_B_SPLINE_CURVE((1.,0.866025404,1.,0.866025404,1.,0.866025404,1.))
REPRESENTATION_ITEM(''));
#409=EDGE_CURVE('',#237,#395,#408,.T.);
#410=ORIENTED_EDGE('',*,*,#409,.F.);
#411=ORIENTED_EDGE('',*,*,#241,.T.);
#412=CARTESIAN_POINT('',(-104.003890829,-11.7,31.44039128));
#413=CARTESIAN_POINT('',(-106.08181091,-11.7,32.99995793));
#414=CARTESIAN_POINT('',(-108.471395289,-11.7,31.980209677));
#415=CARTESIAN_POINT('',(-110.860979667,-11.7,30.960461425));
#416=CARTESIAN_POINT('',(-111.172643964,-11.7,28.381146523));
#417=CARTESIAN_POINT('',(-111.484308262,-11.7,25.80183162));
#418=CARTESIAN_POINT('',(-109.40638818,-11.7,24.24226497));
#419=(BOUNDED_CURVE()
B_SPLINE_CURVE(2,(#412,#413,#414,#415,#416,#417,#418),.UNSPECIFIED.,.F.,.F.)
B_SPLINE_CURVE_WITH_KNOTS((3,2,2,3),(4.71238898,5.759586532,6.806784083,7.853981634),.UNSPECIFIED.)
CURVE()
GEOMETRIC_REPRESENTATION_ITEM()
RATIONAL_B_SPLINE_CURVE((1.,0.866025404,1.,0.866025404,1.,0.866025404,1.))
REPRESENTATION_ITEM(''));
#420=EDGE_CURVE('',#393,#230,#419,.T.);
#421=ORIENTED_EDGE('',*,*,#420,.F.);
#422=EDGE_LOOP('',(#400,#410,#411,#421));
#423=FACE_BOUND('',#422,.T.);
#424=ADVANCED_FACE('',(#423),#391,.T.);
#425=CARTESIAN_POINT('',(-106.385222786,-9.7,27.601217124));
#426=CARTESIAN_POINT('',(-106.385222786,-11.7,27.601217124));
#427=CARTESIAN_POINT('',(-107.996774991,-9.7,25.45403304));
#428=CARTESIAN_POINT('',(-107.996774991,-11.7,25.45403304));
#429=CARTESIAN_POINT('',(-105.331482925,-9.7,25.131979932));
#430=CARTESIAN_POINT('',(-105.331482925,-11.7,25.131979932));
#431=CARTESIAN_POINT('',(-102.666190859,-9.7,24.809926825));
#432=CARTESIAN_POINT('',(-102.666190859,-11.7,24.809926825));
#433=CARTESIAN_POINT('',(-103.71993072,-9.7,27.279164016));
#434=CARTESIAN_POINT('',(-103.71993072,-11.7,27.279164016));
#435=CARTESIAN_POINT('',(-104.773670581,-9.7,29.748401208));
#436=CARTESIAN_POINT('',(-104.773670581,-11.7,29.748401208));
#437=CARTESIAN_POINT('',(-106.385222786,-9.7,27.601217124));
#438=CARTESIAN_POINT('',(-106.385222786,-11.7,27.601217124));
#439=(BOUNDED_SURFACE()
B_SPLINE_SURFACE(2,1,((#425,#426),(#427,#428),(#429,#430),(#431,#432),(#433,#434),(#435,#436),(#437,#438)),.UNSPECIFIED.,.T.,.F.,.U.)
B_SPLINE_SURFACE_WITH_KNOTS((3,2,2,3),(2,2),(0.,2.094395102,4.188790205,6.283185307),(0.007342348,0.009342348),.UNSPECIFIED.)
GEOMETRIC_REPRESENTATION_ITEM()
RATIONAL_B_SPLINE_SURFACE(((1.,1.),(0.5,0.5),(1.,1.),(0.5,0.5),(1.,1.),(0.5,0.5),(1.,1.)))
REPRESENTATION_ITEM('')
SURFACE()
);
#440=CARTESIAN_POINT('',(-106.385222786,-11.7,27.601217124));
#441=VERTEX_POINT('',#440);
#442=CARTESIAN_POINT('',(-106.385222786,-9.7,27.601217124));
#443=VERTEX_POINT('',#442);
#444=CARTESIAN_POINT('',(-106.385222786,-11.7,27.601217124));
#445=CARTESIAN_POINT('',(-106.385222786,-9.7,27.601217124));
#446=B_SPLINE_CURVE_WITH_KNOTS('',1,(#444,#445),.UNSPECIFIED.,.F.,.F.,(2,2),(0.007342348,0.009342348),.UNSPECIFIED.);
#447=EDGE_CURVE('',#441,#443,#446,.T.);
#448=ORIENTED_EDGE('',*,*,#447,.F.);
#449=CARTESIAN_POINT('',(-106.385222786,-11.7,27.601217124));
#450=CARTESIAN_POINT('',(-107.315652885,-11.7,26.361539815));
#451=CARTESIAN_POINT('',(-106.075975576,-11.7,25.431109715));
#452=CARTESIAN_POINT('',(-104.836298267,-11.7,24.500679616));
#453=CARTESIAN_POINT('',(-103.905868168,-11.7,25.740356925));
#454=CARTESIAN_POINT('',(-102.975438069,-11.7,26.980034234));
#455=CARTESIAN_POINT('',(-104.215115378,-11.7,27.910464333));
#456=CARTESIAN_POINT('',(-105.454792686,-11.7,28.840894432));
#457=CARTESIAN_POINT('',(-106.385222786,-11.7,27.601217124));
#458=(BOUNDED_CURVE()
B_SPLINE_CURVE(2,(#449,#450,#451,#452,#453,#454,#455,#456,#457),.UNSPECIFIED.,.T.,.F.)
B_SPLINE_CURVE_WITH_KNOTS((3,2,2,2,3),(0.,1.570796327,3.141592654,4.71238898,6.283185307),.UNSPECIFIED.)
CURVE()
GEOMETRIC_REPRESENTATION_ITEM()
RATIONAL_B_SPLINE_CURVE((1.,0.707106781,1.,0.707106781,1.,0.707106781,1.,0.707106781,1.))
REPRESENTATION_ITEM(''));
#459=EDGE_CURVE('',#441,#441,#458,.T.);
#460=ORIENTED_EDGE('',*,*,#459,.T.);
#461=ORIENTED_EDGE('',*,*,#447,.T.);
#462=CARTESIAN_POINT('',(-103.905868168,-9.7,25.740356925));
#463=VERTEX_POINT('',#462);
#464=CARTESIAN_POINT('',(-103.905868168,-9.7,25.740356925));
#465=CARTESIAN_POINT('',(-104.836298267,-9.7,24.500679616));
#466=CARTESIAN_POINT('',(-106.075975576,-9.7,25.431109715));
#467=CARTESIAN_POINT('',(-107.315652885,-9.7,26.361539815));
#468=CARTESIAN_POINT('',(-106.385222786,-9.7,27.601217124));
#469=CARTESIAN_POINT('',(-105.454792686,-9.7,28.840894432));
#470=CARTESIAN_POINT('',(-104.215115378,-9.7,27.910464333));
#471=CARTESIAN_POINT('',(-102.975438069,-9.7,26.980034234));
#472=CARTESIAN_POINT('',(-103.905868168,-9.7,25.740356925));
#473=(BOUNDED_CURVE()
B_SPLINE_CURVE(2,(#464,#465,#466,#467,#468,#469,#470,#471,#472),.UNSPECIFIED.,.T.,.F.)
B_SPLINE_CURVE_WITH_KNOTS((3,2,2,2,3),(0.,1.570796327,3.141592654,4.71238898,6.283185307),.UNSPECIFIED.)
CURVE()
GEOMETRIC_REPRESENTATION_ITEM()
RATIONAL_B_SPLINE_CURVE((1.,0.707106781,1.,0.707106781,1.,0.707106781,1.,0.707106781,1.))
REPRESENTATION_ITEM(''));
#474=EDGE_CURVE('',#443,#463,#473,.T.);
#475=ORIENTED_EDGE('',*,*,#474,.T.);
#476=CARTESIAN_POINT('',(-103.905868168,-9.7,25.740356925));
#477=CARTESIAN_POINT('',(-104.836298267,-9.7,24.500679616));
#478=CARTESIAN_POINT('',(-106.075975576,-9.7,25.431109715));
#479=CARTESIAN_POINT('',(-107.315652885,-9.7,26.361539815));
#480=CARTESIAN_POINT('',(-106.385222786,-9.7,27.601217124));
#481=CARTESIAN_POINT('',(-105.454792686,-9.7,28.840894432));
#482=CARTESIAN_POINT('',(-104.215115378,-9.7,27.910464333));
#483=CARTESIAN_POINT('',(-102.975438069,-9.7,26.980034234));
#484=CARTESIAN_POINT('',(-103.905868168,-9.7,25.740356925));
#485=(BOUNDED_CURVE()
B_SPLINE_CURVE(2,(#476,#477,#478,#479,#480,#481,#482,#483,#484),.UNSPECIFIED.,.T.,.F.)
B_SPLINE_CURVE_WITH_KNOTS((3,2,2,2,3),(0.,1.570796327,3.141592654,4.71238898,6.283185307),.UNSPECIFIED.)
CURVE()
GEOMETRIC_REPRESENTATION_ITEM()
RATIONAL_B_SPLINE_CURVE((1.,0.707106781,1.,0.707106781,1.,0.707106781,1.,0.707106781,1.))
REPRESENTATION_ITEM(''));
#486=EDGE_CURVE('',#463,#443,#485,.T.);
#487=ORIENTED_EDGE('',*,*,#486,.T.);
#488=EDGE_LOOP('',(#448,#460,#461,#475,#487));
#489=FACE_BOUND('',#488,.T.);
#490=ADVANCED_FACE('',(#489),#439,.F.);
#491=CARTESIAN_POINT('',(-94.78852472,-11.7,24.523870389));
#492=CARTESIAN_POINT('',(-100.191022077,-11.7,17.325744071));
#493=CARTESIAN_POINT('',(-107.602953984,-11.7,34.141639955));
#494=CARTESIAN_POINT('',(-113.005451341,-11.7,26.943513638));
#495=B_SPLINE_SURFACE_WITH_KNOTS('',1,1,((#491,#492),(#493,#494)),.UNSPECIFIED.,.F.,.F.,.U.,(2,2),(2,2),(-0.015685375,0.000336831),(-0.,0.009),.UNSPECIFIED.);
#496=ORIENTED_EDGE('',*,*,#459,.F.);
#497=EDGE_LOOP('',(#496));
#498=FACE_BOUND('',#497,.T.);
#499=CARTESIAN_POINT('',(-104.003890829,-11.7,31.44039128));
#500=CARTESIAN_POINT('',(-106.08181091,-11.7,32.99995793));
#501=CARTESIAN_POINT('',(-108.471395289,-11.7,31.980209677));
#502=CARTESIAN_POINT('',(-110.860979667,-11.7,30.960461425));
#503=CARTESIAN_POINT('',(-111.172643964,-11.7,28.381146523));
#504=CARTESIAN_POINT('',(-111.484308262,-11.7,25.80183162));
#505=CARTESIAN_POINT('',(-109.40638818,-11.7,24.24226497));
#506=(BOUNDED_CURVE()
B_SPLINE_CURVE(2,(#499,#500,#501,#502,#503,#504,#505),.UNSPECIFIED.,.F.,.F.)
B_SPLINE_CURVE_WITH_KNOTS((3,2,2,3),(4.71238898,5.759586532,6.806784083,7.853981634),.UNSPECIFIED.)
CURVE()
GEOMETRIC_REPRESENTATION_ITEM()
RATIONAL_B_SPLINE_CURVE((1.,0.866025404,1.,0.866025404,1.,0.866025404,1.))
REPRESENTATION_ITEM(''));
#507=EDGE_CURVE('',#295,#393,#506,.T.);
#508=ORIENTED_EDGE('',*,*,#507,.T.);
#509=ORIENTED_EDGE('',*,*,#420,.T.);
#510=ORIENTED_EDGE('',*,*,#234,.T.);
#511=CARTESIAN_POINT('',(-94.788524726,-11.7,24.523870381));
#512=CARTESIAN_POINT('',(-100.191022077,-11.7,17.325744071));
#513=B_SPLINE_CURVE_WITH_KNOTS('',1,(#511,#512),.UNSPECIFIED.,.F.,.F.,(2,2),(0.,0.009),.UNSPECIFIED.);
#514=EDGE_CURVE('',#302,#223,#513,.T.);
#515=ORIENTED_EDGE('',*,*,#514,.F.);
#516=ORIENTED_EDGE('',*,*,#306,.F.);
#517=EDGE_LOOP('',(#508,#509,#510,#515,#516));
#518=FACE_BOUND('',#517,.T.);
#519=ADVANCED_FACE('',(#498,#518),#495,.T.);
#520=CARTESIAN_POINT('',(-107.602953984,-9.7,34.141639955));
#521=CARTESIAN_POINT('',(-113.005451341,-9.7,26.943513638));
#522=CARTESIAN_POINT('',(-72.619813249,-9.7,7.885317542));
#523=CARTESIAN_POINT('',(-78.022310606,-9.7,0.687191224));
#524=B_SPLINE_SURFACE_WITH_KNOTS('',1,1,((#520,#521),(#522,#523)),.UNSPECIFIED.,.F.,.F.,.U.,(2,2),(2,2),(-0.000336831,0.043403478),(-0.0045,0.0045),.UNSPECIFIED.);
#525=ORIENTED_EDGE('',*,*,#292,.T.);
#526=CARTESIAN_POINT('',(-76.21887641,-9.7,10.586566209));
#527=CARTESIAN_POINT('',(-72.619813255,-9.7,7.885317534));
#528=CARTESIAN_POINT('',(-75.321061931,-9.7,4.286254379));
#529=CARTESIAN_POINT('',(-78.022310606,-9.7,0.687191224));
#530=CARTESIAN_POINT('',(-81.621373761,-9.7,3.3884399));
#531=(BOUNDED_CURVE()
B_SPLINE_CURVE(2,(#526,#527,#528,#529,#530),.UNSPECIFIED.,.F.,.F.)
B_SPLINE_CURVE_WITH_KNOTS((3,2,3),(4.71238898,6.283185307,7.853981634),.UNSPECIFIED.)
CURVE()
GEOMETRIC_REPRESENTATION_ITEM()
RATIONAL_B_SPLINE_CURVE((1.,0.707106781,1.,0.707106781,1.))
REPRESENTATION_ITEM(''));
#532=EDGE_CURVE('',#281,#244,#531,.T.);
#533=ORIENTED_EDGE('',*,*,#532,.T.);
#534=ORIENTED_EDGE('',*,*,#248,.F.);
#535=ORIENTED_EDGE('',*,*,#409,.T.);
#536=CARTESIAN_POINT('',(-109.406388172,-9.7,24.242264964));
#537=CARTESIAN_POINT('',(-111.484308259,-9.7,25.801831611));
#538=CARTESIAN_POINT('',(-111.172643965,-9.7,28.381146516));
#539=CARTESIAN_POINT('',(-110.860979672,-9.7,30.960461421));
#540=CARTESIAN_POINT('',(-108.471395292,-9.7,31.980209676));
#541=CARTESIAN_POINT('',(-106.081810912,-9.7,32.999957931));
#542=CARTESIAN_POINT('',(-104.003890829,-9.7,31.44039128));
#543=(BOUNDED_CURVE()
B_SPLINE_CURVE(2,(#536,#537,#538,#539,#540,#541,#542),.UNSPECIFIED.,.F.,.F.)
B_SPLINE_CURVE_WITH_KNOTS((3,2,2,3),(1.570796325,2.617993877,3.665191428,4.71238898),.UNSPECIFIED.)
CURVE()
GEOMETRIC_REPRESENTATION_ITEM()
RATIONAL_B_SPLINE_CURVE((1.,0.866025404,1.,0.866025404,1.,0.866025404,1.))
REPRESENTATION_ITEM(''));
#544=EDGE_CURVE('',#395,#288,#543,.T.);
#545=ORIENTED_EDGE('',*,*,#544,.T.);
#546=EDGE_LOOP('',(#525,#533,#534,#535,#545));
#547=FACE_BOUND('',#546,.T.);
#548=ORIENTED_EDGE('',*,*,#474,.F.);
#549=ORIENTED_EDGE('',*,*,#486,.F.);
#550=EDGE_LOOP('',(#548,#549));
#551=FACE_BOUND('',#550,.T.);
#552=CARTESIAN_POINT('',(-79.759906488,-9.7,7.617794412));
#553=VERTEX_POINT('',#552);
#554=CARTESIAN_POINT('',(-78.080343683,-9.7,6.357211697));
#555=VERTEX_POINT('',#554);
#556=CARTESIAN_POINT('',(-78.080343683,-9.7,6.357211697));
#557=CARTESIAN_POINT('',(-78.71063504,-9.7,5.517430294));
#558=CARTESIAN_POINT('',(-79.550416443,-9.7,6.147721652));
#559=CARTESIAN_POINT('',(-80.390197846,-9.7,6.778013009));
#560=CARTESIAN_POINT('',(-79.759906488,-9.7,7.617794412));
#561=CARTESIAN_POINT('',(-79.129615131,-9.7,8.457575815));
#562=CARTESIAN_POINT('',(-78.289833728,-9.7,7.827284457));
#563=CARTESIAN_POINT('',(-77.450052325,-9.7,7.1969931));
#564=CARTESIAN_POINT('',(-78.080343683,-9.7,6.357211697));
#565=(BOUNDED_CURVE()
B_SPLINE_CURVE(2,(#556,#557,#558,#559,#560,#561,#562,#563,#564),.UNSPECIFIED.,.T.,.F.)
B_SPLINE_CURVE_WITH_KNOTS((3,2,2,2,3),(0.,1.570796327,3.141592654,4.71238898,6.283185307),.UNSPECIFIED.)
CURVE()
GEOMETRIC_REPRESENTATION_ITEM()
RATIONAL_B_SPLINE_CURVE((1.,0.707106781,1.,0.707106781,1.,0.707106781,1.,0.707106781,1.))
REPRESENTATION_ITEM(''));
#566=EDGE_CURVE('',#553,#555,#565,.T.);
#567=ORIENTED_EDGE('',*,*,#566,.F.);
#568=CARTESIAN_POINT('',(-78.080343683,-9.7,6.357211697));
#569=CARTESIAN_POINT('',(-78.71063504,-9.7,5.517430294));
#570=CARTESIAN_POINT('',(-79.550416443,-9.7,6.147721652));
#571=CARTESIAN_POINT('',(-80.390197846,-9.7,6.778013009));
#572=CARTESIAN_POINT('',(-79.759906488,-9.7,7.617794412));
#573=CARTESIAN_POINT('',(-79.129615131,-9.7,8.457575815));
#574=CARTESIAN_POINT('',(-78.289833728,-9.7,7.827284457));
#575=CARTESIAN_POINT('',(-77.450052325,-9.7,7.1969931));
#576=CARTESIAN_POINT('',(-78.080343683,-9.7,6.357211697));
#577=(BOUNDED_CURVE()
B_SPLINE_CURVE(2,(#568,#569,#570,#571,#572,#573,#574,#575,#576),.UNSPECIFIED.,.T.,.F.)
B_SPLINE_CURVE_WITH_KNOTS((3,2,2,2,3),(0.,1.570796327,3.141592654,4.71238898,6.283185307),.UNSPECIFIED.)
CURVE()
GEOMETRIC_REPRESENTATION_ITEM()
RATIONAL_B_SPLINE_CURVE((1.,0.707106781,1.,0.707106781,1.,0.707106781,1.,0.707106781,1.))
REPRESENTATION_ITEM(''));
#578=EDGE_CURVE('',#555,#553,#577,.T.);
#579=ORIENTED_EDGE('',*,*,#578,.F.);
#580=EDGE_LOOP('',(#567,#579));
#581=FACE_BOUND('',#580,.T.);
#582=ADVANCED_FACE('',(#547,#551,#581),#524,.T.);
#583=CARTESIAN_POINT('',(-100.191022077,-15.9,17.325744071));
#584=CARTESIAN_POINT('',(-100.191022077,-11.7,17.325744071));
#585=CARTESIAN_POINT('',(-94.788524726,-15.9,24.523870381));
#586=CARTESIAN_POINT('',(-94.788524726,-11.7,24.523870381));
#587=B_SPLINE_SURFACE_WITH_KNOTS('',1,1,((#583,#584),(#585,#586)),.UNSPECIFIED.,.F.,.F.,.U.,(2,2),(2,2),(-0.0045,0.0045),(-0.0021,0.0021),.UNSPECIFIED.);
#588=ORIENTED_EDGE('',*,*,#227,.T.);
#589=ORIENTED_EDGE('',*,*,#211,.T.);
#590=ORIENTED_EDGE('',*,*,#311,.T.);
#591=ORIENTED_EDGE('',*,*,#514,.T.);
#592=EDGE_LOOP('',(#588,#589,#590,#591));
#593=FACE_BOUND('',#592,.T.);
#594=ADVANCED_FACE('',(#593),#587,.T.);
#595=CARTESIAN_POINT('',(-81.621373761,-9.7,3.3884399));
#596=CARTESIAN_POINT('',(-81.621373761,-17.9,3.3884399));
#597=CARTESIAN_POINT('',(-80.657007695,-9.7,2.664642499));
#598=CARTESIAN_POINT('',(-80.657007695,-17.9,2.664642499));
#599=CARTESIAN_POINT('',(-79.459943483,-9.7,2.519998595));
#600=CARTESIAN_POINT('',(-79.459943483,-17.9,2.519998595));
#601=CARTESIAN_POINT('',(-71.721998776,-9.7,1.585005703));
#602=CARTESIAN_POINT('',(-71.721998776,-17.9,1.585005703));
#603=CARTESIAN_POINT('',(-74.781243533,-9.7,8.753758839));
#604=CARTESIAN_POINT('',(-74.781243533,-17.9,8.753758839));
#605=CARTESIAN_POINT('',(-75.254510344,-9.7,9.862768808));
#606=CARTESIAN_POINT('',(-75.254510344,-17.9,9.862768808));
#607=CARTESIAN_POINT('',(-76.21887641,-9.7,10.586566209));
#608=CARTESIAN_POINT('',(-76.21887641,-17.9,10.586566209));
#609=(BOUNDED_SURFACE()
B_SPLINE_SURFACE(2,1,((#595,#596),(#597,#598),(#599,#600),(#601,#602),(#603,#604),(#605,#606),(#607,#608)),.UNSPECIFIED.,.F.,.F.,.U.)
B_SPLINE_SURFACE_WITH_KNOTS((3,2,2,3),(2,2),(1.533203626,2.094395102,4.188790205,4.749981681),(0.007996474,0.016196474),.UNSPECIFIED.)
GEOMETRIC_REPRESENTATION_ITEM()
RATIONAL_B_SPLINE_SURFACE(((0.803847577,0.803847577),(0.866025404,0.866025404),(1.,1.),(0.5,0.5),(1.,1.),(0.866025404,0.866025404),(0.803847577,0.803847577)))
REPRESENTATION_ITEM('')
SURFACE()
);
#610=ORIENTED_EDGE('',*,*,#285,.T.);
#611=ORIENTED_EDGE('',*,*,#334,.F.);
#612=ORIENTED_EDGE('',*,*,#255,.F.);
#613=ORIENTED_EDGE('',*,*,#532,.F.);
#614=EDGE_LOOP('',(#610,#611,#612,#613));
#615=FACE_BOUND('',#614,.T.);
#616=ADVANCED_FACE('',(#615),#609,.T.);
#617=CARTESIAN_POINT('',(-79.759906488,-9.7,7.617794412));
#618=CARTESIAN_POINT('',(-79.759906488,-17.9,7.617794412));
#619=CARTESIAN_POINT('',(-80.851603143,-9.7,6.163250355));
#620=CARTESIAN_POINT('',(-80.851603143,-17.9,6.163250355));
#621=CARTESIAN_POINT('',(-79.046082712,-9.7,5.945085347));
#622=CARTESIAN_POINT('',(-79.046082712,-17.9,5.945085347));
#623=CARTESIAN_POINT('',(-77.24056228,-9.7,5.726920339));
#624=CARTESIAN_POINT('',(-77.24056228,-17.9,5.726920339));
#625=CARTESIAN_POINT('',(-77.954386057,-9.7,7.399629404));
#626=CARTESIAN_POINT('',(-77.954386057,-17.9,7.399629404));
#627=CARTESIAN_POINT('',(-78.668209833,-9.7,9.072338469));
#628=CARTESIAN_POINT('',(-78.668209833,-17.9,9.072338469));
#629=CARTESIAN_POINT('',(-79.759906488,-9.7,7.617794412));
#630=CARTESIAN_POINT('',(-79.759906488,-17.9,7.617794412));
#631=(BOUNDED_SURFACE()
B_SPLINE_SURFACE(2,1,((#617,#618),(#619,#620),(#621,#622),(#623,#624),(#625,#626),(#627,#628),(#629,#630)),.UNSPECIFIED.,.T.,.F.,.U.)
B_SPLINE_SURFACE_WITH_KNOTS((3,2,2,3),(2,2),(0.,2.094395102,4.188790205,6.283185307),(0.026034953,0.034234953),.UNSPECIFIED.)
GEOMETRIC_REPRESENTATION_ITEM()
RATIONAL_B_SPLINE_SURFACE(((1.,1.),(0.5,0.5),(1.,1.),(0.5,0.5),(1.,1.),(0.5,0.5),(1.,1.)))
REPRESENTATION_ITEM('')
SURFACE()
);
#632=CARTESIAN_POINT('',(-79.759906488,-17.9,7.617794412));
#633=CARTESIAN_POINT('',(-79.759906488,-9.7,7.617794412));
#634=B_SPLINE_CURVE_WITH_KNOTS('',1,(#632,#633),.UNSPECIFIED.,.F.,.F.,(2,2),(0.026034953,0.034234953),.UNSPECIFIED.);
#635=EDGE_CURVE('',#355,#553,#634,.T.);
#636=ORIENTED_EDGE('',*,*,#635,.F.);
#637=ORIENTED_EDGE('',*,*,#368,.T.);
#638=ORIENTED_EDGE('',*,*,#380,.T.);
#639=ORIENTED_EDGE('',*,*,#635,.T.);
#640=ORIENTED_EDGE('',*,*,#566,.T.);
#641=ORIENTED_EDGE('',*,*,#578,.T.);
#642=EDGE_LOOP('',(#636,#637,#638,#639,#640,#641));
#643=FACE_BOUND('',#642,.T.);
#644=ADVANCED_FACE('',(#643),#631,.F.);
#645=CARTESIAN_POINT('',(-104.003890829,-15.9,31.44039128));
#646=CARTESIAN_POINT('',(-104.003890829,-17.9,31.44039128));
#647=CARTESIAN_POINT('',(-107.602953984,-15.9,34.141639955));
#648=CARTESIAN_POINT('',(-107.602953984,-17.9,34.141639955));
#649=CARTESIAN_POINT('',(-110.30420266,-15.9,30.542576801));
#650=CARTESIAN_POINT('',(-110.30420266,-17.9,30.542576801));
#651=(BOUNDED_SURFACE()
B_SPLINE_SURFACE(2,1,((#645,#646),(#647,#648),(#649,#650)),.UNSPECIFIED.,.F.,.F.,.U.)
B_SPLINE_SURFACE_WITH_KNOTS((3,3),(2,2),(4.749981681,6.283185307),(0.030925002,0.032925002),.UNSPECIFIED.)
GEOMETRIC_REPRESENTATION_ITEM()
RATIONAL_B_SPLINE_SURFACE(((0.803847577,0.803847577),(0.633974596,0.633974596),(1.,1.)))
REPRESENTATION_ITEM('')
SURFACE()
);
#652=ORIENTED_EDGE('',*,*,#73,.F.);
#653=ORIENTED_EDGE('',*,*,#345,.F.);
#654=ORIENTED_EDGE('',*,*,#317,.F.);
#655=ORIENTED_EDGE('',*,*,#199,.F.);
#656=EDGE_LOOP('',(#652,#653,#654,#655));
#657=FACE_BOUND('',#656,.T.);
#658=ADVANCED_FACE('',(#657),#651,.T.);
#659=CARTESIAN_POINT('',(-104.003890829,-9.7,31.44039128));
#660=CARTESIAN_POINT('',(-104.003890829,-11.7,31.44039128));
#661=CARTESIAN_POINT('',(-107.602953984,-9.7,34.141639955));
#662=CARTESIAN_POINT('',(-107.602953984,-11.7,34.141639955));
#663=CARTESIAN_POINT('',(-110.30420266,-9.7,30.542576801));
#664=CARTESIAN_POINT('',(-110.30420266,-11.7,30.542576801));
#665=(BOUNDED_SURFACE()
B_SPLINE_SURFACE(2,1,((#659,#660),(#661,#662),(#663,#664)),.UNSPECIFIED.,.F.,.F.,.U.)
B_SPLINE_SURFACE_WITH_KNOTS((3,3),(2,2),(4.749981681,6.283185307),(0.024725002,0.026725002),.UNSPECIFIED.)
GEOMETRIC_REPRESENTATION_ITEM()
RATIONAL_B_SPLINE_SURFACE(((0.803847577,0.803847577),(0.633974596,0.633974596),(1.,1.)))
REPRESENTATION_ITEM('')
SURFACE()
);
#666=ORIENTED_EDGE('',*,*,#399,.F.);
#667=ORIENTED_EDGE('',*,*,#507,.F.);
#668=ORIENTED_EDGE('',*,*,#299,.F.);
#669=ORIENTED_EDGE('',*,*,#544,.F.);
#670=EDGE_LOOP('',(#666,#667,#668,#669));
#671=FACE_BOUND('',#670,.T.);
#672=ADVANCED_FACE('',(#671),#665,.T.);
#673=CLOSED_SHELL('',(#106,#172,#215,#265,#321,#384,#424,#490,#519,#582,#594,#616,#644,#658,#672));
#674=MANIFOLD_SOLID_BREP('Solid 50',#673);
#58=STYLED_ITEM('',(),#674);
#39=SHAPE_REPRESENTATION('Group 1',(#38),#33);
#40=ADVANCED_BREP_SHAPE_REPRESENTATION('Group 1',(#674),#33);
#682=SHAPE_REPRESENTATION_RELATIONSHIP('','',#39,#40);
#683=APPLICATION_CONTEXT('configuration controlled 3D design of mechanical parts and assemblies');
#684=APPLICATION_PROTOCOL_DEFINITION('international standard','configuration_control_3d_design_ed2_mim',2004,#683);
#685=PRODUCT_CONTEXT('',#683,'mechanical');
#686=PRODUCT_DEFINITION_CONTEXT('part definition',#683,'design');
#47=PRODUCT('0','0','',(#685));
#687=PRODUCT_RELATED_PRODUCT_CATEGORY('part','',(#47));
#688=PRODUCT_DEFINITION_FORMATION_WITH_SPECIFIED_SOURCE('','',#47,.NOT_KNOWN.);
#48=PRODUCT_DEFINITION('design','',#688,#686);
#46=PRODUCT_DEFINITION_SHAPE('','',#48);
#689=SHAPE_DEFINITION_REPRESENTATION(#46,#39);
#34=DRAUGHTING_MODEL('',(),#33);
#16=SHAPE_REPRESENTATION('root',(#15,#52),#10);
#24=PRODUCT('root','root','',(#685));
#690=PRODUCT_RELATED_PRODUCT_CATEGORY('part','',(#24));
#691=PRODUCT_DEFINITION_FORMATION_WITH_SPECIFIED_SOURCE('','',#24,.NOT_KNOWN.);
#25=PRODUCT_DEFINITION('design','',#691,#686);
#23=PRODUCT_DEFINITION_SHAPE('','',#25);
#692=SHAPE_DEFINITION_REPRESENTATION(#23,#16);
#11=DRAUGHTING_MODEL('',(),#10);
#1=MECHANICAL_DESIGN_GEOMETRIC_PRESENTATION_REPRESENTATION('',(#58),#10);
ENDSEC;
END-ISO-10303-21;
