ISO-10303-21;
HEADER;

/* File generated by HOOPS Exchange Version 25.8.0 */

FILE_DESCRIPTION(('HOOPS Exchange Step'),'2;1');

FILE_NAME('/home/tfannes/prints/260705_nerf_shooter/NerfShooter.step',
'2026-07-05T11:57:22+02:00',
('tfannes'),
('Unknown organisation'),
'HOOPS Exchange 2025.8',
'HOOPS Exchange',
'Unknown authorisation');

FILE_SCHEMA( ('AP203_CONFIGURATION_CONTROLLED_3D_DESIGN_OF_MECHANICAL_PARTS_AND_ASSEMBLIES_MIM_LF') );

ENDSEC;

DATA;
#3=(NAMED_UNIT(*)PLANE_ANGLE_UNIT()SI_UNIT($,.RADIAN.));
#4=PLANE_ANGLE_MEASURE_WITH_UNIT(PLANE_ANGLE_MEASURE(0.0174532925),#3);
#5=(CONVERSION_BASED_UNIT('DEGREE',#4)NAMED_UNIT(#6)PLANE_ANGLE_UNIT());
#6=DIMENSIONAL_EXPONENTS(0.,0.,0.,0.,0.,0.,0.);
#7=(NAMED_UNIT(*)SI_UNIT($,.STERADIAN.)SOLID_ANGLE_UNIT());
#8=(LENGTH_UNIT()NAMED_UNIT(*)SI_UNIT(.MILLI.,.METRE.));
#9=UNCERTAINTY_MEASURE_WITH_UNIT(LENGTH_MEASURE(1.000000E-03),#8,'DISTANCE_ACCURACY_VALUE','Maximum Tolerance applied to model');
#10=(GEOMETRIC_REPRESENTATION_CONTEXT(3)GLOBAL_UNCERTAINTY_ASSIGNED_CONTEXT((#9))GLOBAL_UNIT_ASSIGNED_CONTEXT((#8,#5,#7))REPRESENTATION_CONTEXT('','root'));
#12=CARTESIAN_POINT('',(0.,0.,0.));
#13=DIRECTION('',(0.,0.,1.));
#14=DIRECTION('',(1.,0.,0.));
#15=AXIS2_PLACEMENT_3D('TS3D_PRODUCT_CSYS',#12,#13,#14);
#27=CARTESIAN_POINT('',(0.,0.,0.));
#28=DIRECTION('',(1.,0.,0.));
#29=DIRECTION('',(0.,0.,-1.));
#30=AXIS2_PLACEMENT_3D('',#27,#28,#29);
#31=PLANE('',#30);
#32=CARTESIAN_POINT('',(0.,-7.5,0.));
#33=VERTEX_POINT('',#32);
#34=CARTESIAN_POINT('',(0.,-7.5,5.556440403));
#35=VERTEX_POINT('',#34);
#36=CARTESIAN_POINT('',(0.,-7.5,0.));
#37=DIRECTION('',(0.,0.,1.));
#38=VECTOR('',#37,5.556440403);
#39=LINE('',#36,#38);
#40=EDGE_CURVE('',#33,#35,#39,.T.);
#41=ORIENTED_EDGE('',*,*,#40,.T.);
#42=CARTESIAN_POINT('',(0.,-2.449489802,0.));
#43=VERTEX_POINT('',#42);
#44=CARTESIAN_POINT('',(0.,0.,7.29999998));
#45=DIRECTION('',(1.,0.,-0.));
#46=DIRECTION('',(0.,0.,1.));
#47=AXIS2_PLACEMENT_3D('',#44,#45,#46);
#48=CIRCLE('',#47,7.7);
#49=EDGE_CURVE('',#35,#43,#48,.T.);
#50=ORIENTED_EDGE('',*,*,#49,.T.);
#51=CARTESIAN_POINT('',(0.,-2.449489802,0.));
#52=DIRECTION('',(0.,-1.,0.));
#53=VECTOR('',#52,5.050510198);
#54=LINE('',#51,#53);
#55=EDGE_CURVE('',#43,#33,#54,.T.);
#56=ORIENTED_EDGE('',*,*,#55,.T.);
#57=EDGE_LOOP('',(#41,#50,#56));
#58=FACE_BOUND('',#57,.T.);
#59=ADVANCED_FACE('',(#58),#31,.F.);
#60=CARTESIAN_POINT('',(0.,0.,0.));
#61=DIRECTION('',(1.,0.,0.));
#62=DIRECTION('',(0.,0.,-1.));
#63=AXIS2_PLACEMENT_3D('',#60,#61,#62);
#64=PLANE('',#63);
#65=CARTESIAN_POINT('',(0.,7.5,0.));
#66=VERTEX_POINT('',#65);
#67=CARTESIAN_POINT('',(0.,2.449489802,0.));
#68=VERTEX_POINT('',#67);
#69=CARTESIAN_POINT('',(0.,7.5,0.));
#70=DIRECTION('',(0.,-1.,0.));
#71=VECTOR('',#70,5.050510198);
#72=LINE('',#69,#71);
#73=EDGE_CURVE('',#66,#68,#72,.T.);
#74=ORIENTED_EDGE('',*,*,#73,.T.);
#75=CARTESIAN_POINT('',(0.,7.5,5.556440403));
#76=VERTEX_POINT('',#75);
#77=CARTESIAN_POINT('',(0.,0.,7.29999998));
#78=DIRECTION('',(1.,0.,-0.));
#79=DIRECTION('',(0.,0.,1.));
#80=AXIS2_PLACEMENT_3D('',#77,#78,#79);
#81=CIRCLE('',#80,7.7);
#82=EDGE_CURVE('',#68,#76,#81,.T.);
#83=ORIENTED_EDGE('',*,*,#82,.T.);
#84=CARTESIAN_POINT('',(0.,7.5,5.556440403));
#85=DIRECTION('',(0.,0.,-1.));
#86=VECTOR('',#85,5.556440403);
#87=LINE('',#84,#86);
#88=EDGE_CURVE('',#76,#66,#87,.T.);
#89=ORIENTED_EDGE('',*,*,#88,.T.);
#90=EDGE_LOOP('',(#74,#83,#89));
#91=FACE_BOUND('',#90,.T.);
#92=ADVANCED_FACE('',(#91),#64,.F.);
#93=CARTESIAN_POINT('',(2.5,-7.5,0.));
#94=DIRECTION('',(0.,-1.,0.));
#95=DIRECTION('',(1.,0.,0.));
#96=AXIS2_PLACEMENT_3D('',#93,#94,#95);
#97=PLANE('',#96);
#98=CARTESIAN_POINT('',(0.,-7.5,9.043559557));
#99=VERTEX_POINT('',#98);
#100=CARTESIAN_POINT('',(0.,-7.5,5.556440403));
#101=CARTESIAN_POINT('',(0.09511723,-7.5,5.682458922));
#102=CARTESIAN_POINT('',(0.184911013,-7.5,5.814427822));
#103=CARTESIAN_POINT('',(0.26563841,-7.5,5.951259338));
#104=CARTESIAN_POINT('',(0.346365806,-7.5,6.088090854));
#105=CARTESIAN_POINT('',(0.417810169,-7.5,6.229215684));
#106=CARTESIAN_POINT('',(0.477552379,-7.5,6.375752648));
#107=CARTESIAN_POINT('',(0.537294589,-7.5,6.522289612));
#108=CARTESIAN_POINT('',(0.585564814,-7.5,6.675970539));
#109=CARTESIAN_POINT('',(0.617780795,-7.5,6.830743564));
#110=CARTESIAN_POINT('',(0.649996775,-7.5,6.98551659));
#111=CARTESIAN_POINT('',(0.666632136,-7.5,7.141738324));
#112=CARTESIAN_POINT('',(0.66666663,-7.5,7.299503631));
#113=CARTESIAN_POINT('',(0.666701123,-7.5,7.457268938));
#114=CARTESIAN_POINT('',(0.649524204,-7.5,7.61794563));
#115=CARTESIAN_POINT('',(0.617014385,-7.5,7.772924101));
#116=CARTESIAN_POINT('',(0.584504566,-7.5,7.927902572));
#117=CARTESIAN_POINT('',(0.53697113,-7.5,8.078825595));
#118=CARTESIAN_POINT('',(0.476709384,-7.5,8.226312761));
#119=CARTESIAN_POINT('',(0.416447638,-7.5,8.373799928));
#120=CARTESIAN_POINT('',(0.344205167,-7.5,8.515845183));
#121=CARTESIAN_POINT('',(0.263961507,-7.5,8.651580047));
#122=CARTESIAN_POINT('',(0.183717848,-7.5,8.787314911));
#123=CARTESIAN_POINT('',(0.09510233,-7.5,8.917562934));
#124=CARTESIAN_POINT('',(0.,-7.5,9.043559558));
#125=B_SPLINE_CURVE_WITH_KNOTS('',3,(#100,#101,#102,#103,#104,#105,#106,#107,#108,#109,#110,#111,#112,#113,#114,#115,#116,#117,#118,#119,#120,#121,#122,#123,#124),.UNSPECIFIED.,.F.,.F.,(4,3,3,3,3,3,3,3,4),(0.017298698,0.01777226,0.018245823,0.018719385,0.019192947,0.01966651,0.020140072,0.020613634,0.021087197),.UNSPECIFIED.);
#126=EDGE_CURVE('',#35,#99,#125,.T.);
#127=ORIENTED_EDGE('',*,*,#126,.F.);
#128=ORIENTED_EDGE('',*,*,#40,.F.);
#129=CARTESIAN_POINT('',(2.5,-7.5,0.));
#130=VERTEX_POINT('',#129);
#131=CARTESIAN_POINT('',(2.5,-7.5,0.));
#132=DIRECTION('',(-1.,-0.,0.));
#133=VECTOR('',#132,2.5);
#134=LINE('',#131,#133);
#135=EDGE_CURVE('',#130,#33,#134,.T.);
#136=ORIENTED_EDGE('',*,*,#135,.F.);
#137=CARTESIAN_POINT('',(2.5,-7.5,16.));
#138=VERTEX_POINT('',#137);
#139=CARTESIAN_POINT('',(2.5,-7.5,0.));
#140=DIRECTION('',(0.,0.,1.));
#141=VECTOR('',#140,16.);
#142=LINE('',#139,#141);
#143=EDGE_CURVE('',#130,#138,#142,.T.);
#144=ORIENTED_EDGE('',*,*,#143,.T.);
#145=CARTESIAN_POINT('',(0.,-7.5,16.));
#146=VERTEX_POINT('',#145);
#147=CARTESIAN_POINT('',(2.5,-7.5,16.));
#148=DIRECTION('',(-1.,-0.,0.));
#149=VECTOR('',#148,2.5);
#150=LINE('',#147,#149);
#151=EDGE_CURVE('',#138,#146,#150,.T.);
#152=ORIENTED_EDGE('',*,*,#151,.T.);
#153=CARTESIAN_POINT('',(0.,-7.5,9.043559557));
#154=DIRECTION('',(0.,0.,1.));
#155=VECTOR('',#154,6.956440443);
#156=LINE('',#153,#155);
#157=EDGE_CURVE('',#99,#146,#156,.T.);
#158=ORIENTED_EDGE('',*,*,#157,.F.);
#159=EDGE_LOOP('',(#127,#128,#136,#144,#152,#158));
#160=FACE_BOUND('',#159,.T.);
#161=ADVANCED_FACE('',(#160),#97,.T.);
#162=CARTESIAN_POINT('',(2.5,7.5,0.));
#163=DIRECTION('',(0.,0.,-1.));
#164=DIRECTION('',(-1.,0.,0.));
#165=AXIS2_PLACEMENT_3D('',#162,#163,#164);
#166=PLANE('',#165);
#167=CARTESIAN_POINT('',(0.,2.449489802,0.));
#168=CARTESIAN_POINT('',(0.173341935,2.286019084,0.));
#169=CARTESIAN_POINT('',(0.339243373,2.115157123,0.));
#170=CARTESIAN_POINT('',(0.494278072,1.933500357,0.));
#171=CARTESIAN_POINT('',(0.649312771,1.751843591,0.));
#172=CARTESIAN_POINT('',(0.794273551,1.558057286,0.));
#173=CARTESIAN_POINT('',(0.918395668,1.353854855,0.));
#174=CARTESIAN_POINT('',(0.980456727,1.251753639,0.));
#175=CARTESIAN_POINT('',(1.037479065,1.146833566,0.));
#176=CARTESIAN_POINT('',(1.088350808,1.038472609,0.));
#177=CARTESIAN_POINT('',(1.139222552,0.930111651,0.));
#178=CARTESIAN_POINT('',(1.184167053,0.817481734,0.));
#179=CARTESIAN_POINT('',(1.220674686,0.703269216,0.));
#180=CARTESIAN_POINT('',(1.257182318,0.589056697,0.));
#181=CARTESIAN_POINT('',(1.285425086,0.473161033,0.));
#182=CARTESIAN_POINT('',(1.304512648,0.355400902,0.));
#183=CARTESIAN_POINT('',(1.32360021,0.237640772,0.));
#184=CARTESIAN_POINT('',(1.333513381,0.117079441,0.));
#185=CARTESIAN_POINT('',(1.33333092,-0.003319531,0.));
#186=CARTESIAN_POINT('',(1.332965998,-0.244117476,0.));
#187=CARTESIAN_POINT('',(1.29292815,-0.479012204,0.));
#188=CARTESIAN_POINT('',(1.218884754,-0.708847005,0.));
#189=CARTESIAN_POINT('',(1.144841358,-0.938681805,0.));
#190=CARTESIAN_POINT('',(1.040668105,-1.153116749,0.));
#191=CARTESIAN_POINT('',(0.916619827,-1.356773405,0.));
#192=CARTESIAN_POINT('',(0.792571549,-1.56043006,0.));
#193=CARTESIAN_POINT('',(0.64755341,-1.754050863,0.));
#194=CARTESIAN_POINT('',(0.492849277,-1.935173823,0.));
#195=CARTESIAN_POINT('',(0.338145145,-2.116296784,0.));
#196=CARTESIAN_POINT('',(0.172732676,-2.286593647,0.));
#197=CARTESIAN_POINT('',(0.,-2.449489802,0.));
#198=B_SPLINE_CURVE_WITH_KNOTS('',3,(#167,#168,#169,#170,#171,#172,#173,#174,#175,#176,#177,#178,#179,#180,#181,#182,#183,#184,#185,#186,#187,#188,#189,#190,#191,#192,
#193,#194,#195,#196,#197),.UNSPECIFIED.,.F.,.F.,(4,3,3,3,3,3,3,3,3,3,4),(0.016991524,0.017708406,0.018425288,0.018783728,0.019142169,0.01950061,0.019859051,0.020575933,0.021292815,0.022009697,0.022726579),.UNSPECIFIED.);
#199=EDGE_CURVE('',#68,#43,#198,.T.);
#200=ORIENTED_EDGE('',*,*,#199,.F.);
#201=ORIENTED_EDGE('',*,*,#73,.F.);
#202=CARTESIAN_POINT('',(2.5,7.5,0.));
#203=VERTEX_POINT('',#202);
#204=CARTESIAN_POINT('',(2.5,7.5,0.));
#205=DIRECTION('',(-1.,-0.,0.));
#206=VECTOR('',#205,2.5);
#207=LINE('',#204,#206);
#208=EDGE_CURVE('',#203,#66,#207,.T.);
#209=ORIENTED_EDGE('',*,*,#208,.F.);
#210=CARTESIAN_POINT('',(2.5,7.5,0.));
#211=DIRECTION('',(0.,-1.,0.));
#212=VECTOR('',#211,15.);
#213=LINE('',#210,#212);
#214=EDGE_CURVE('',#203,#130,#213,.T.);
#215=ORIENTED_EDGE('',*,*,#214,.T.);
#216=ORIENTED_EDGE('',*,*,#135,.T.);
#217=ORIENTED_EDGE('',*,*,#55,.F.);
#218=EDGE_LOOP('',(#200,#201,#209,#215,#216,#217));
#219=FACE_BOUND('',#218,.T.);
#220=ADVANCED_FACE('',(#219),#166,.T.);
#221=CARTESIAN_POINT('',(2.5,7.5,15.));
#222=DIRECTION('',(-0.,1.,0.));
#223=DIRECTION('',(-1.,-0.,0.));
#224=AXIS2_PLACEMENT_3D('',#221,#222,#223);
#225=PLANE('',#224);
#226=CARTESIAN_POINT('',(0.,7.5,9.043559557));
#227=VERTEX_POINT('',#226);
#228=CARTESIAN_POINT('',(0.,7.5,9.043559557));
#229=CARTESIAN_POINT('',(0.09511723,7.5,8.917541038));
#230=CARTESIAN_POINT('',(0.184911013,7.5,8.785572138));
#231=CARTESIAN_POINT('',(0.26563841,7.5,8.648740622));
#232=CARTESIAN_POINT('',(0.346365806,7.5,8.511909106));
#233=CARTESIAN_POINT('',(0.417810169,7.5,8.370784276));
#234=CARTESIAN_POINT('',(0.477552379,7.5,8.224247312));
#235=CARTESIAN_POINT('',(0.537294589,7.5,8.077710348));
#236=CARTESIAN_POINT('',(0.585564814,7.5,7.924029421));
#237=CARTESIAN_POINT('',(0.617780795,7.5,7.769256396));
#238=CARTESIAN_POINT('',(0.649996775,7.5,7.61448337));
#239=CARTESIAN_POINT('',(0.666632136,7.5,7.458261636));
#240=CARTESIAN_POINT('',(0.66666663,7.5,7.300496329));
#241=CARTESIAN_POINT('',(0.666701123,7.5,7.142731022));
#242=CARTESIAN_POINT('',(0.649524204,7.5,6.98205433));
#243=CARTESIAN_POINT('',(0.617014385,7.5,6.827075859));
#244=CARTESIAN_POINT('',(0.584504566,7.5,6.672097388));
#245=CARTESIAN_POINT('',(0.53697113,7.5,6.521174365));
#246=CARTESIAN_POINT('',(0.476709384,7.5,6.373687199));
#247=CARTESIAN_POINT('',(0.416447638,7.5,6.226200032));
#248=CARTESIAN_POINT('',(0.344205167,7.5,6.084154777));
#249=CARTESIAN_POINT('',(0.263961507,7.5,5.948419913));
#250=CARTESIAN_POINT('',(0.183717848,7.5,5.812685049));
#251=CARTESIAN_POINT('',(0.09510233,7.5,5.682437026));
#252=CARTESIAN_POINT('',(0.,7.5,5.556440402));
#253=B_SPLINE_CURVE_WITH_KNOTS('',3,(#228,#229,#230,#231,#232,#233,#234,#235,#236,#237,#238,#239,#240,#241,#242,#243,#244,#245,#246,#247,#248,#249,#250,#251,#252),.UNSPECIFIED.,.F.,.F.,(4,3,3,3,3,3,3,3,4),(0.017298698,0.01777226,0.018245823,0.018719385,0.019192947,0.01966651,0.020140072,0.020613634,0.021087197),.UNSPECIFIED.);
#254=EDGE_CURVE('',#227,#76,#253,.T.);
#255=ORIENTED_EDGE('',*,*,#254,.F.);
#256=CARTESIAN_POINT('',(0.,7.5,16.));
#257=VERTEX_POINT('',#256);
#258=CARTESIAN_POINT('',(0.,7.5,16.));
#259=DIRECTION('',(0.,0.,-1.));
#260=VECTOR('',#259,6.956440443);
#261=LINE('',#258,#260);
#262=EDGE_CURVE('',#257,#227,#261,.T.);
#263=ORIENTED_EDGE('',*,*,#262,.F.);
#264=CARTESIAN_POINT('',(2.5,7.5,16.));
#265=VERTEX_POINT('',#264);
#266=CARTESIAN_POINT('',(2.5,7.5,16.));
#267=DIRECTION('',(-1.,-0.,0.));
#268=VECTOR('',#267,2.5);
#269=LINE('',#266,#268);
#270=EDGE_CURVE('',#265,#257,#269,.T.);
#271=ORIENTED_EDGE('',*,*,#270,.F.);
#272=CARTESIAN_POINT('',(2.5,7.5,16.));
#273=DIRECTION('',(0.,0.,-1.));
#274=VECTOR('',#273,16.);
#275=LINE('',#272,#274);
#276=EDGE_CURVE('',#265,#203,#275,.T.);
#277=ORIENTED_EDGE('',*,*,#276,.T.);
#278=ORIENTED_EDGE('',*,*,#208,.T.);
#279=ORIENTED_EDGE('',*,*,#88,.F.);
#280=EDGE_LOOP('',(#255,#263,#271,#277,#278,#279));
#281=FACE_BOUND('',#280,.T.);
#282=ADVANCED_FACE('',(#281),#225,.T.);
#283=CARTESIAN_POINT('',(2.5,-7.5,16.));
#284=DIRECTION('',(0.,0.,1.));
#285=DIRECTION('',(1.,0.,0.));
#286=AXIS2_PLACEMENT_3D('',#283,#284,#285);
#287=PLANE('',#286);
#288=CARTESIAN_POINT('',(0.,-7.5,16.));
#289=DIRECTION('',(0.,1.,0.));
#290=VECTOR('',#289,15.);
#291=LINE('',#288,#290);
#292=EDGE_CURVE('',#146,#257,#291,.T.);
#293=ORIENTED_EDGE('',*,*,#292,.F.);
#294=ORIENTED_EDGE('',*,*,#151,.F.);
#295=CARTESIAN_POINT('',(2.5,-7.5,16.));
#296=DIRECTION('',(0.,1.,0.));
#297=VECTOR('',#296,15.);
#298=LINE('',#295,#297);
#299=EDGE_CURVE('',#138,#265,#298,.T.);
#300=ORIENTED_EDGE('',*,*,#299,.T.);
#301=ORIENTED_EDGE('',*,*,#270,.T.);
#302=EDGE_LOOP('',(#293,#294,#300,#301));
#303=FACE_BOUND('',#302,.T.);
#304=ADVANCED_FACE('',(#303),#287,.T.);
#305=CARTESIAN_POINT('',(2.5,0.,0.));
#306=DIRECTION('',(1.,0.,0.));
#307=DIRECTION('',(0.,0.,-1.));
#308=AXIS2_PLACEMENT_3D('',#305,#306,#307);
#309=PLANE('',#308);
#310=CARTESIAN_POINT('',(2.5,0.,14.25));
#311=VERTEX_POINT('',#310);
#312=CARTESIAN_POINT('',(2.5,0.,7.3));
#313=DIRECTION('',(1.,0.,-0.));
#314=DIRECTION('',(0.,0.,1.));
#315=AXIS2_PLACEMENT_3D('',#312,#313,#314);
#316=CIRCLE('',#315,6.95);
#317=EDGE_CURVE('',#311,#311,#316,.T.);
#318=ORIENTED_EDGE('',*,*,#317,.F.);
#319=EDGE_LOOP('',(#318));
#320=FACE_BOUND('',#319,.T.);
#321=ORIENTED_EDGE('',*,*,#143,.F.);
#322=ORIENTED_EDGE('',*,*,#214,.F.);
#323=ORIENTED_EDGE('',*,*,#276,.F.);
#324=ORIENTED_EDGE('',*,*,#299,.F.);
#325=EDGE_LOOP('',(#321,#322,#323,#324));
#326=FACE_BOUND('',#325,.T.);
#327=ADVANCED_FACE('',(#320,#326),#309,.T.);
#328=CARTESIAN_POINT('',(0.,0.,0.));
#329=DIRECTION('',(1.,0.,0.));
#330=DIRECTION('',(0.,0.,-1.));
#331=AXIS2_PLACEMENT_3D('',#328,#329,#330);
#332=PLANE('',#331);
#333=ORIENTED_EDGE('',*,*,#262,.T.);
#334=CARTESIAN_POINT('',(0.,0.,14.99999998));
#335=VERTEX_POINT('',#334);
#336=CARTESIAN_POINT('',(0.,0.,7.29999998));
#337=DIRECTION('',(1.,0.,-0.));
#338=DIRECTION('',(0.,0.,1.));
#339=AXIS2_PLACEMENT_3D('',#336,#337,#338);
#340=CIRCLE('',#339,7.7);
#341=EDGE_CURVE('',#227,#335,#340,.T.);
#342=ORIENTED_EDGE('',*,*,#341,.T.);
#343=CARTESIAN_POINT('',(0.,0.,7.29999998));
#344=DIRECTION('',(1.,0.,-0.));
#345=DIRECTION('',(0.,0.,1.));
#346=AXIS2_PLACEMENT_3D('',#343,#344,#345);
#347=CIRCLE('',#346,7.7);
#348=EDGE_CURVE('',#335,#99,#347,.T.);
#349=ORIENTED_EDGE('',*,*,#348,.T.);
#350=ORIENTED_EDGE('',*,*,#157,.T.);
#351=ORIENTED_EDGE('',*,*,#292,.T.);
#352=EDGE_LOOP('',(#333,#342,#349,#350,#351));
#353=FACE_BOUND('',#352,.T.);
#354=ADVANCED_FACE('',(#353),#332,.F.);
#355=CARTESIAN_POINT('',(0.,0.,7.29999998));
#356=DIRECTION('',(-1.,0.,0.));
#357=DIRECTION('',(0.,0.,1.));
#358=AXIS2_PLACEMENT_3D('',#355,#356,#357);
#359=CONICAL_SURFACE('',#358,7.7,16.699243813);
#360=CARTESIAN_POINT('',(0.,0.,14.99999998));
#361=DIRECTION('',(0.957826287,-0.,-0.287347879));
#362=VECTOR('',#361,2.610076621);
#363=LINE('',#360,#362);
#364=EDGE_CURVE('',#335,#311,#363,.T.);
#365=ORIENTED_EDGE('',*,*,#364,.F.);
#366=ORIENTED_EDGE('',*,*,#341,.F.);
#367=ORIENTED_EDGE('',*,*,#254,.T.);
#368=ORIENTED_EDGE('',*,*,#82,.F.);
#369=ORIENTED_EDGE('',*,*,#199,.T.);
#370=ORIENTED_EDGE('',*,*,#49,.F.);
#371=ORIENTED_EDGE('',*,*,#126,.T.);
#372=ORIENTED_EDGE('',*,*,#348,.F.);
#373=ORIENTED_EDGE('',*,*,#364,.T.);
#374=ORIENTED_EDGE('',*,*,#317,.T.);
#375=EDGE_LOOP('',(#365,#366,#367,#368,#369,#370,#371,#372,#373,#374));
#376=FACE_BOUND('',#375,.T.);
#377=ADVANCED_FACE('',(#376),#359,.F.);
#378=CLOSED_SHELL('',(#59,#92,#161,#220,#282,#304,#327,#354,#377));
#379=MANIFOLD_SOLID_BREP('Extruded.004',#378);
#26=STYLED_ITEM('',(),#379);
#380=CARTESIAN_POINT('',(0.,-7.5,0.));
#381=DIRECTION('',(0.,0.,1.));
#382=VECTOR('',#381,15.);
#383=LINE('',#380,#382);
#384=TRIMMED_CURVE('Rectangle.001',#383,(PARAMETER_VALUE(0.)),(PARAMETER_VALUE(1.)),.T.,.PARAMETER.);
#385=CARTESIAN_POINT('',(0.,7.5,0.));
#386=DIRECTION('',(0.,-1.,0.));
#387=VECTOR('',#386,15.);
#388=LINE('',#385,#387);
#389=TRIMMED_CURVE('Rectangle.001',#388,(PARAMETER_VALUE(0.)),(PARAMETER_VALUE(1.)),.T.,.PARAMETER.);
#390=CARTESIAN_POINT('',(0.,7.5,15.));
#391=DIRECTION('',(0.,0.,-1.));
#392=VECTOR('',#391,15.);
#393=LINE('',#390,#392);
#394=TRIMMED_CURVE('Rectangle.001',#393,(PARAMETER_VALUE(0.)),(PARAMETER_VALUE(1.)),.T.,.PARAMETER.);
#395=CARTESIAN_POINT('',(0.,-7.5,15.));
#396=DIRECTION('',(0.,1.,0.));
#397=VECTOR('',#396,15.);
#398=LINE('',#395,#397);
#399=TRIMMED_CURVE('Rectangle.001',#398,(PARAMETER_VALUE(0.)),(PARAMETER_VALUE(1.)),.T.,.PARAMETER.);
#400=GEOMETRIC_CURVE_SET('',(#384,#389,#394,#399));
#402=CARTESIAN_POINT('',(-77.,9.618242991,8.3));
#403=DIRECTION('',(0.,0.,1.));
#404=DIRECTION('',(1.,0.,0.));
#405=AXIS2_PLACEMENT_3D('',#402,#403,#404);
#406=PLANE('',#405);
#407=CARTESIAN_POINT('',(-77.,-9.5,8.3));
#408=VERTEX_POINT('',#407);
#409=CARTESIAN_POINT('',(-79.352534255,-9.5,8.3));
#410=VERTEX_POINT('',#409);
#411=CARTESIAN_POINT('',(-77.,-9.5,8.3));
#412=DIRECTION('',(-1.,0.,0.));
#413=VECTOR('',#412,2.352534255);
#414=LINE('',#411,#413);
#415=EDGE_CURVE('',#408,#410,#414,.T.);
#416=ORIENTED_EDGE('',*,*,#415,.T.);
#417=CARTESIAN_POINT('',(-79.352534255,9.5,8.3));
#418=VERTEX_POINT('',#417);
#419=CARTESIAN_POINT('',(-79.352534255,-9.5,8.3));
#420=DIRECTION('',(-0.,1.,-0.));
#421=VECTOR('',#420,19.);
#422=LINE('',#419,#421);
#423=EDGE_CURVE('',#410,#418,#422,.T.);
#424=ORIENTED_EDGE('',*,*,#423,.T.);
#425=CARTESIAN_POINT('',(-77.,9.5,8.3));
#426=VERTEX_POINT('',#425);
#427=CARTESIAN_POINT('',(-77.,9.5,8.3));
#428=DIRECTION('',(-1.,0.,0.));
#429=VECTOR('',#428,2.352534255);
#430=LINE('',#427,#429);
#431=EDGE_CURVE('',#426,#418,#430,.T.);
#432=ORIENTED_EDGE('',*,*,#431,.F.);
#433=CARTESIAN_POINT('',(-77.,9.5,8.3));
#434=DIRECTION('',(-0.,-1.,-0.));
#435=VECTOR('',#434,19.);
#436=LINE('',#433,#435);
#437=EDGE_CURVE('',#426,#408,#436,.T.);
#438=ORIENTED_EDGE('',*,*,#437,.T.);
#439=EDGE_LOOP('',(#416,#424,#432,#438));
#440=FACE_BOUND('',#439,.T.);
#441=ADVANCED_FACE('',(#440),#406,.F.);
#442=CARTESIAN_POINT('',(-77.,9.618242991,-2.));
#443=DIRECTION('',(1.,0.,0.));
#444=DIRECTION('',(0.,0.,-1.));
#445=AXIS2_PLACEMENT_3D('',#442,#443,#444);
#446=PLANE('',#445);
#447=CARTESIAN_POINT('',(-77.,-9.5,16.));
#448=VERTEX_POINT('',#447);
#449=CARTESIAN_POINT('',(-77.,-9.5,8.3));
#450=DIRECTION('',(0.,0.,1.));
#451=VECTOR('',#450,7.7);
#452=LINE('',#449,#451);
#453=EDGE_CURVE('',#408,#448,#452,.T.);
#454=ORIENTED_EDGE('',*,*,#453,.F.);
#455=ORIENTED_EDGE('',*,*,#437,.F.);
#456=CARTESIAN_POINT('',(-77.,9.5,16.));
#457=VERTEX_POINT('',#456);
#458=CARTESIAN_POINT('',(-77.,9.5,8.3));
#459=DIRECTION('',(0.,0.,1.));
#460=VECTOR('',#459,7.7);
#461=LINE('',#458,#460);
#462=EDGE_CURVE('',#426,#457,#461,.T.);
#463=ORIENTED_EDGE('',*,*,#462,.T.);
#464=CARTESIAN_POINT('',(-77.,9.5,16.));
#465=DIRECTION('',(0.,-1.,0.));
#466=VECTOR('',#465,19.);
#467=LINE('',#464,#466);
#468=EDGE_CURVE('',#457,#448,#467,.T.);
#469=ORIENTED_EDGE('',*,*,#468,.T.);
#470=EDGE_LOOP('',(#454,#455,#463,#469));
#471=FACE_BOUND('',#470,.T.);
#472=ADVANCED_FACE('',(#471),#446,.T.);
#473=CARTESIAN_POINT('',(-77.,9.618242991,16.));
#474=DIRECTION('',(0.,0.,1.));
#475=DIRECTION('',(1.,0.,0.));
#476=AXIS2_PLACEMENT_3D('',#473,#474,#475);
#477=PLANE('',#476);
#478=CARTESIAN_POINT('',(-82.,-9.5,16.));
#479=VERTEX_POINT('',#478);
#480=CARTESIAN_POINT('',(-77.,-9.5,16.));
#481=DIRECTION('',(-1.,0.,0.));
#482=VECTOR('',#481,5.);
#483=LINE('',#480,#482);
#484=EDGE_CURVE('',#448,#479,#483,.T.);
#485=ORIENTED_EDGE('',*,*,#484,.F.);
#486=ORIENTED_EDGE('',*,*,#468,.F.);
#487=CARTESIAN_POINT('',(-82.,9.5,16.));
#488=VERTEX_POINT('',#487);
#489=CARTESIAN_POINT('',(-77.,9.5,16.));
#490=DIRECTION('',(-1.,0.,0.));
#491=VECTOR('',#490,5.);
#492=LINE('',#489,#491);
#493=EDGE_CURVE('',#457,#488,#492,.T.);
#494=ORIENTED_EDGE('',*,*,#493,.T.);
#495=CARTESIAN_POINT('',(-82.,9.5,16.));
#496=DIRECTION('',(0.,-1.,0.));
#497=VECTOR('',#496,19.);
#498=LINE('',#495,#497);
#499=EDGE_CURVE('',#488,#479,#498,.T.);
#500=ORIENTED_EDGE('',*,*,#499,.T.);
#501=EDGE_LOOP('',(#485,#486,#494,#500));
#502=FACE_BOUND('',#501,.T.);
#503=ADVANCED_FACE('',(#502),#477,.T.);
#504=CARTESIAN_POINT('',(-82.,9.618242991,15.));
#505=DIRECTION('',(-1.,0.,0.));
#506=DIRECTION('',(0.,0.,1.));
#507=AXIS2_PLACEMENT_3D('',#504,#505,#506);
#508=PLANE('',#507);
#509=CARTESIAN_POINT('',(-82.,-9.5,-2.));
#510=VERTEX_POINT('',#509);
#511=CARTESIAN_POINT('',(-82.,-9.5,16.));
#512=DIRECTION('',(0.,-0.,-1.));
#513=VECTOR('',#512,18.);
#514=LINE('',#511,#513);
#515=EDGE_CURVE('',#479,#510,#514,.T.);
#516=ORIENTED_EDGE('',*,*,#515,.F.);
#517=ORIENTED_EDGE('',*,*,#499,.F.);
#518=CARTESIAN_POINT('',(-82.,9.5,-2.));
#519=VERTEX_POINT('',#518);
#520=CARTESIAN_POINT('',(-82.,9.5,16.));
#521=DIRECTION('',(0.,0.,-1.));
#522=VECTOR('',#521,18.);
#523=LINE('',#520,#522);
#524=EDGE_CURVE('',#488,#519,#523,.T.);
#525=ORIENTED_EDGE('',*,*,#524,.T.);
#526=CARTESIAN_POINT('',(-82.,9.5,-2.));
#527=DIRECTION('',(0.,-1.,0.));
#528=VECTOR('',#527,19.);
#529=LINE('',#526,#528);
#530=EDGE_CURVE('',#519,#510,#529,.T.);
#531=ORIENTED_EDGE('',*,*,#530,.T.);
#532=EDGE_LOOP('',(#516,#517,#525,#531));
#533=FACE_BOUND('',#532,.T.);
#534=ADVANCED_FACE('',(#533),#508,.T.);
#535=CARTESIAN_POINT('',(-82.,9.618242991,-2.));
#536=DIRECTION('',(0.,0.,-1.));
#537=DIRECTION('',(-1.,0.,0.));
#538=AXIS2_PLACEMENT_3D('',#535,#536,#537);
#539=PLANE('',#538);
#540=CARTESIAN_POINT('',(-77.,-9.5,-2.));
#541=VERTEX_POINT('',#540);
#542=CARTESIAN_POINT('',(-82.,-9.5,-2.));
#543=DIRECTION('',(1.,-0.,0.));
#544=VECTOR('',#543,5.);
#545=LINE('',#542,#544);
#546=EDGE_CURVE('',#510,#541,#545,.T.);
#547=ORIENTED_EDGE('',*,*,#546,.F.);
#548=ORIENTED_EDGE('',*,*,#530,.F.);
#549=CARTESIAN_POINT('',(-77.,9.5,-2.));
#550=VERTEX_POINT('',#549);
#551=CARTESIAN_POINT('',(-82.,9.5,-2.));
#552=DIRECTION('',(1.,0.,-0.));
#553=VECTOR('',#552,5.);
#554=LINE('',#551,#553);
#555=EDGE_CURVE('',#519,#550,#554,.T.);
#556=ORIENTED_EDGE('',*,*,#555,.T.);
#557=CARTESIAN_POINT('',(-77.,9.5,-2.));
#558=DIRECTION('',(0.,-1.,0.));
#559=VECTOR('',#558,19.);
#560=LINE('',#557,#559);
#561=EDGE_CURVE('',#550,#541,#560,.T.);
#562=ORIENTED_EDGE('',*,*,#561,.T.);
#563=EDGE_LOOP('',(#547,#548,#556,#562));
#564=FACE_BOUND('',#563,.T.);
#565=ADVANCED_FACE('',(#564),#539,.T.);
#566=CARTESIAN_POINT('',(-77.,9.618242991,-2.));
#567=DIRECTION('',(1.,0.,0.));
#568=DIRECTION('',(0.,0.,-1.));
#569=AXIS2_PLACEMENT_3D('',#566,#567,#568);
#570=PLANE('',#569);
#571=CARTESIAN_POINT('',(-77.,-9.5,6.3));
#572=VERTEX_POINT('',#571);
#573=CARTESIAN_POINT('',(-77.,-9.5,-2.));
#574=DIRECTION('',(0.,0.,1.));
#575=VECTOR('',#574,8.3);
#576=LINE('',#573,#575);
#577=EDGE_CURVE('',#541,#572,#576,.T.);
#578=ORIENTED_EDGE('',*,*,#577,.F.);
#579=ORIENTED_EDGE('',*,*,#561,.F.);
#580=CARTESIAN_POINT('',(-77.,9.5,6.3));
#581=VERTEX_POINT('',#580);
#582=CARTESIAN_POINT('',(-77.,9.5,-2.));
#583=DIRECTION('',(0.,0.,1.));
#584=VECTOR('',#583,8.3);
#585=LINE('',#582,#584);
#586=EDGE_CURVE('',#550,#581,#585,.T.);
#587=ORIENTED_EDGE('',*,*,#586,.T.);
#588=CARTESIAN_POINT('',(-77.,9.5,6.3));
#589=DIRECTION('',(0.,-1.,0.));
#590=VECTOR('',#589,19.);
#591=LINE('',#588,#590);
#592=EDGE_CURVE('',#581,#572,#591,.T.);
#593=ORIENTED_EDGE('',*,*,#592,.T.);
#594=EDGE_LOOP('',(#578,#579,#587,#593));
#595=FACE_BOUND('',#594,.T.);
#596=ADVANCED_FACE('',(#595),#570,.T.);
#597=CARTESIAN_POINT('',(-80.,9.618242991,6.3));
#598=DIRECTION('',(0.,0.,-1.));
#599=DIRECTION('',(-1.,0.,0.));
#600=AXIS2_PLACEMENT_3D('',#597,#598,#599);
#601=PLANE('',#600);
#602=CARTESIAN_POINT('',(-79.352534255,9.5,6.3));
#603=VERTEX_POINT('',#602);
#604=CARTESIAN_POINT('',(-79.352534255,9.5,6.3));
#605=DIRECTION('',(1.,0.,-0.));
#606=VECTOR('',#605,2.352534255);
#607=LINE('',#604,#606);
#608=EDGE_CURVE('',#603,#581,#607,.T.);
#609=ORIENTED_EDGE('',*,*,#608,.F.);
#610=CARTESIAN_POINT('',(-79.352534255,-9.5,6.3));
#611=VERTEX_POINT('',#610);
#612=CARTESIAN_POINT('',(-79.352534255,9.5,6.3));
#613=DIRECTION('',(0.,-1.,0.));
#614=VECTOR('',#613,19.);
#615=LINE('',#612,#614);
#616=EDGE_CURVE('',#603,#611,#615,.T.);
#617=ORIENTED_EDGE('',*,*,#616,.T.);
#618=CARTESIAN_POINT('',(-79.352534255,-9.5,6.3));
#619=DIRECTION('',(1.,0.,-0.));
#620=VECTOR('',#619,2.352534255);
#621=LINE('',#618,#620);
#622=EDGE_CURVE('',#611,#572,#621,.T.);
#623=ORIENTED_EDGE('',*,*,#622,.T.);
#624=ORIENTED_EDGE('',*,*,#592,.F.);
#625=EDGE_LOOP('',(#609,#617,#623,#624));
#626=FACE_BOUND('',#625,.T.);
#627=ADVANCED_FACE('',(#626),#601,.F.);
#628=CARTESIAN_POINT('',(-80.,9.618242991,8.3));
#629=DIRECTION('',(-1.,0.,0.));
#630=DIRECTION('',(0.,0.,1.));
#631=AXIS2_PLACEMENT_3D('',#628,#629,#630);
#632=PLANE('',#631);
#633=CARTESIAN_POINT('',(-80.,9.5,7.652534255));
#634=VERTEX_POINT('',#633);
#635=CARTESIAN_POINT('',(-80.,9.5,6.947465745));
#636=VERTEX_POINT('',#635);
#637=CARTESIAN_POINT('',(-80.,9.5,7.652534255));
#638=DIRECTION('',(0.,0.,-1.));
#639=VECTOR('',#638,0.705068509);
#640=LINE('',#637,#639);
#641=EDGE_CURVE('',#634,#636,#640,.T.);
#642=ORIENTED_EDGE('',*,*,#641,.F.);
#643=CARTESIAN_POINT('',(-80.,-9.5,7.652534255));
#644=VERTEX_POINT('',#643);
#645=CARTESIAN_POINT('',(-80.,9.5,7.652534255));
#646=DIRECTION('',(0.,-1.,0.));
#647=VECTOR('',#646,19.);
#648=LINE('',#645,#647);
#649=EDGE_CURVE('',#634,#644,#648,.T.);
#650=ORIENTED_EDGE('',*,*,#649,.T.);
#651=CARTESIAN_POINT('',(-80.,-9.5,6.947465745));
#652=VERTEX_POINT('',#651);
#653=CARTESIAN_POINT('',(-80.,-9.5,7.652534255));
#654=DIRECTION('',(0.,0.,-1.));
#655=VECTOR('',#654,0.705068509);
#656=LINE('',#653,#655);
#657=EDGE_CURVE('',#644,#652,#656,.T.);
#658=ORIENTED_EDGE('',*,*,#657,.T.);
#659=CARTESIAN_POINT('',(-80.,-9.5,6.947465745));
#660=DIRECTION('',(-0.,1.,-0.));
#661=VECTOR('',#660,19.);
#662=LINE('',#659,#661);
#663=EDGE_CURVE('',#652,#636,#662,.T.);
#664=ORIENTED_EDGE('',*,*,#663,.T.);
#665=EDGE_LOOP('',(#642,#650,#658,#664));
#666=FACE_BOUND('',#665,.T.);
#667=ADVANCED_FACE('',(#666),#632,.F.);
#668=CARTESIAN_POINT('',(-77.,9.5,3.15));
#669=DIRECTION('',(0.,-1.,0.));
#670=DIRECTION('',(0.,0.,-1.));
#671=AXIS2_PLACEMENT_3D('',#668,#669,#670);
#672=PLANE('',#671);
#673=ORIENTED_EDGE('',*,*,#431,.T.);
#674=CARTESIAN_POINT('',(-79.352534255,9.5,7.652534255));
#675=DIRECTION('',(0.,-1.,0.));
#676=DIRECTION('',(0.,0.,-1.));
#677=AXIS2_PLACEMENT_3D('',#674,#675,#676);
#678=CIRCLE('',#677,0.647465745);
#679=EDGE_CURVE('',#418,#634,#678,.T.);
#680=ORIENTED_EDGE('',*,*,#679,.T.);
#681=ORIENTED_EDGE('',*,*,#641,.T.);
#682=CARTESIAN_POINT('',(-79.352534255,9.5,6.947465745));
#683=DIRECTION('',(0.,-1.,0.));
#684=DIRECTION('',(0.,0.,-1.));
#685=AXIS2_PLACEMENT_3D('',#682,#683,#684);
#686=CIRCLE('',#685,0.647465745);
#687=EDGE_CURVE('',#636,#603,#686,.T.);
#688=ORIENTED_EDGE('',*,*,#687,.T.);
#689=ORIENTED_EDGE('',*,*,#608,.T.);
#690=ORIENTED_EDGE('',*,*,#586,.F.);
#691=ORIENTED_EDGE('',*,*,#555,.F.);
#692=ORIENTED_EDGE('',*,*,#524,.F.);
#693=ORIENTED_EDGE('',*,*,#493,.F.);
#694=ORIENTED_EDGE('',*,*,#462,.F.);
#695=EDGE_LOOP('',(#673,#680,#681,#688,#689,#690,#691,#692,#693,#694));
#696=FACE_BOUND('',#695,.T.);
#697=ADVANCED_FACE('',(#696),#672,.F.);
#698=CARTESIAN_POINT('',(-77.,-9.5,3.15));
#699=DIRECTION('',(0.,-1.,0.));
#700=DIRECTION('',(0.,0.,-1.));
#701=AXIS2_PLACEMENT_3D('',#698,#699,#700);
#702=PLANE('',#701);
#703=ORIENTED_EDGE('',*,*,#415,.F.);
#704=ORIENTED_EDGE('',*,*,#453,.T.);
#705=ORIENTED_EDGE('',*,*,#484,.T.);
#706=ORIENTED_EDGE('',*,*,#515,.T.);
#707=ORIENTED_EDGE('',*,*,#546,.T.);
#708=ORIENTED_EDGE('',*,*,#577,.T.);
#709=ORIENTED_EDGE('',*,*,#622,.F.);
#710=CARTESIAN_POINT('',(-79.352534255,-9.5,6.947465745));
#711=DIRECTION('',(-0.,1.,-0.));
#712=DIRECTION('',(0.,0.,-1.));
#713=AXIS2_PLACEMENT_3D('',#710,#711,#712);
#714=CIRCLE('',#713,0.647465745);
#715=EDGE_CURVE('',#611,#652,#714,.T.);
#716=ORIENTED_EDGE('',*,*,#715,.T.);
#717=ORIENTED_EDGE('',*,*,#657,.F.);
#718=CARTESIAN_POINT('',(-79.352534255,-9.5,7.652534255));
#719=DIRECTION('',(-0.,1.,-0.));
#720=DIRECTION('',(0.,0.,-1.));
#721=AXIS2_PLACEMENT_3D('',#718,#719,#720);
#722=CIRCLE('',#721,0.647465745);
#723=EDGE_CURVE('',#644,#410,#722,.T.);
#724=ORIENTED_EDGE('',*,*,#723,.T.);
#725=EDGE_LOOP('',(#703,#704,#705,#706,#707,#708,#709,#716,#717,#724));
#726=FACE_BOUND('',#725,.T.);
#727=ADVANCED_FACE('',(#726),#702,.T.);
#728=CARTESIAN_POINT('',(-79.352534255,9.618242991,7.652534255));
#729=DIRECTION('',(0.,1.,0.));
#730=DIRECTION('',(0.,-0.,1.));
#731=AXIS2_PLACEMENT_3D('',#728,#729,#730);
#732=CYLINDRICAL_SURFACE('',#731,0.647465745);
#733=ORIENTED_EDGE('',*,*,#679,.F.);
#734=ORIENTED_EDGE('',*,*,#423,.F.);
#735=ORIENTED_EDGE('',*,*,#723,.F.);
#736=ORIENTED_EDGE('',*,*,#649,.F.);
#737=EDGE_LOOP('',(#733,#734,#735,#736));
#738=FACE_BOUND('',#737,.T.);
#739=ADVANCED_FACE('',(#738),#732,.F.);
#740=CARTESIAN_POINT('',(-79.352534255,9.618242991,6.947465745));
#741=DIRECTION('',(0.,1.,0.));
#742=DIRECTION('',(0.,-0.,1.));
#743=AXIS2_PLACEMENT_3D('',#740,#741,#742);
#744=CYLINDRICAL_SURFACE('',#743,0.647465745);
#745=ORIENTED_EDGE('',*,*,#687,.F.);
#746=ORIENTED_EDGE('',*,*,#663,.F.);
#747=ORIENTED_EDGE('',*,*,#715,.F.);
#748=ORIENTED_EDGE('',*,*,#616,.F.);
#749=EDGE_LOOP('',(#745,#746,#747,#748));
#750=FACE_BOUND('',#749,.T.);
#751=ADVANCED_FACE('',(#750),#744,.F.);
#752=CLOSED_SHELL('',(#441,#472,#503,#534,#565,#596,#627,#667,#697,#727,#739,#751));
#753=MANIFOLD_SOLID_BREP('Extruded.003',#752);
#401=STYLED_ITEM('',(),#753);
#755=CARTESIAN_POINT('',(2.5,7.5,-2.));
#756=DIRECTION('',(-1.,0.,0.));
#757=DIRECTION('',(0.,0.,1.));
#758=AXIS2_PLACEMENT_3D('',#755,#756,#757);
#759=PLANE('',#758);
#760=CARTESIAN_POINT('',(2.5,9.5,0.));
#761=VERTEX_POINT('',#760);
#762=CARTESIAN_POINT('',(2.5,-9.5,0.));
#763=VERTEX_POINT('',#762);
#764=CARTESIAN_POINT('',(2.5,9.5,0.));
#765=DIRECTION('',(0.,-1.,0.));
#766=VECTOR('',#765,19.);
#767=LINE('',#764,#766);
#768=EDGE_CURVE('',#761,#763,#767,.T.);
#769=ORIENTED_EDGE('',*,*,#768,.T.);
#770=CARTESIAN_POINT('',(2.5,-9.5,-2.));
#771=VERTEX_POINT('',#770);
#772=CARTESIAN_POINT('',(2.5,-9.5,-2.));
#773=DIRECTION('',(0.,0.,1.));
#774=VECTOR('',#773,2.);
#775=LINE('',#772,#774);
#776=EDGE_CURVE('',#771,#763,#775,.T.);
#777=ORIENTED_EDGE('',*,*,#776,.F.);
#778=CARTESIAN_POINT('',(2.5,9.5,-2.));
#779=VERTEX_POINT('',#778);
#780=CARTESIAN_POINT('',(2.5,9.5,-2.));
#781=DIRECTION('',(0.,-1.,0.));
#782=VECTOR('',#781,19.);
#783=LINE('',#780,#782);
#784=EDGE_CURVE('',#779,#771,#783,.T.);
#785=ORIENTED_EDGE('',*,*,#784,.F.);
#786=CARTESIAN_POINT('',(2.5,9.5,-2.));
#787=DIRECTION('',(0.,0.,1.));
#788=VECTOR('',#787,2.);
#789=LINE('',#786,#788);
#790=EDGE_CURVE('',#779,#761,#789,.T.);
#791=ORIENTED_EDGE('',*,*,#790,.T.);
#792=EDGE_LOOP('',(#769,#777,#785,#791));
#793=FACE_BOUND('',#792,.T.);
#794=ADVANCED_FACE('',(#793),#759,.F.);
#795=CARTESIAN_POINT('',(0.,9.5,-2.));
#796=DIRECTION('',(0.,1.,-0.));
#797=DIRECTION('',(0.,0.,1.));
#798=AXIS2_PLACEMENT_3D('',#795,#796,#797);
#799=PLANE('',#798);
#800=CARTESIAN_POINT('',(-77.,9.5,0.));
#801=VERTEX_POINT('',#800);
#802=CARTESIAN_POINT('',(2.5,9.5,0.));
#803=DIRECTION('',(-1.,0.,0.));
#804=VECTOR('',#803,79.5);
#805=LINE('',#802,#804);
#806=EDGE_CURVE('',#761,#801,#805,.T.);
#807=ORIENTED_EDGE('',*,*,#806,.F.);
#808=ORIENTED_EDGE('',*,*,#790,.F.);
#809=CARTESIAN_POINT('',(-77.,9.5,-2.));
#810=VERTEX_POINT('',#809);
#811=CARTESIAN_POINT('',(2.5,9.5,-2.));
#812=DIRECTION('',(-1.,0.,0.));
#813=VECTOR('',#812,79.5);
#814=LINE('',#811,#813);
#815=EDGE_CURVE('',#779,#810,#814,.T.);
#816=ORIENTED_EDGE('',*,*,#815,.T.);
#817=CARTESIAN_POINT('',(-77.,9.5,-2.));
#818=DIRECTION('',(0.,0.,1.));
#819=VECTOR('',#818,2.);
#820=LINE('',#817,#819);
#821=EDGE_CURVE('',#810,#801,#820,.T.);
#822=ORIENTED_EDGE('',*,*,#821,.T.);
#823=EDGE_LOOP('',(#807,#808,#816,#822));
#824=FACE_BOUND('',#823,.T.);
#825=ADVANCED_FACE('',(#824),#799,.T.);
#826=CARTESIAN_POINT('',(-77.,9.5,-2.));
#827=DIRECTION('',(-1.,0.,0.));
#828=DIRECTION('',(0.,0.,1.));
#829=AXIS2_PLACEMENT_3D('',#826,#827,#828);
#830=PLANE('',#829);
#831=CARTESIAN_POINT('',(-77.,-9.5,0.));
#832=VERTEX_POINT('',#831);
#833=CARTESIAN_POINT('',(-77.,9.5,0.));
#834=DIRECTION('',(0.,-1.,0.));
#835=VECTOR('',#834,19.);
#836=LINE('',#833,#835);
#837=EDGE_CURVE('',#801,#832,#836,.T.);
#838=ORIENTED_EDGE('',*,*,#837,.F.);
#839=ORIENTED_EDGE('',*,*,#821,.F.);
#840=CARTESIAN_POINT('',(-77.,-9.5,-2.));
#841=VERTEX_POINT('',#840);
#842=CARTESIAN_POINT('',(-77.,9.5,-2.));
#843=DIRECTION('',(0.,-1.,0.));
#844=VECTOR('',#843,19.);
#845=LINE('',#842,#844);
#846=EDGE_CURVE('',#810,#841,#845,.T.);
#847=ORIENTED_EDGE('',*,*,#846,.T.);
#848=CARTESIAN_POINT('',(-77.,-9.5,-2.));
#849=DIRECTION('',(0.,0.,1.));
#850=VECTOR('',#849,2.);
#851=LINE('',#848,#850);
#852=EDGE_CURVE('',#841,#832,#851,.T.);
#853=ORIENTED_EDGE('',*,*,#852,.T.);
#854=EDGE_LOOP('',(#838,#839,#847,#853));
#855=FACE_BOUND('',#854,.T.);
#856=ADVANCED_FACE('',(#855),#830,.T.);
#857=CARTESIAN_POINT('',(-77.,-9.5,-2.));
#858=DIRECTION('',(0.,-1.,0.));
#859=DIRECTION('',(0.,-0.,-1.));
#860=AXIS2_PLACEMENT_3D('',#857,#858,#859);
#861=PLANE('',#860);
#862=CARTESIAN_POINT('',(-77.,-9.5,0.));
#863=DIRECTION('',(1.,0.,-0.));
#864=VECTOR('',#863,79.5);
#865=LINE('',#862,#864);
#866=EDGE_CURVE('',#832,#763,#865,.T.);
#867=ORIENTED_EDGE('',*,*,#866,.F.);
#868=ORIENTED_EDGE('',*,*,#852,.F.);
#869=CARTESIAN_POINT('',(-77.,-9.5,-2.));
#870=DIRECTION('',(1.,0.,-0.));
#871=VECTOR('',#870,79.5);
#872=LINE('',#869,#871);
#873=EDGE_CURVE('',#841,#771,#872,.T.);
#874=ORIENTED_EDGE('',*,*,#873,.T.);
#875=ORIENTED_EDGE('',*,*,#776,.T.);
#876=EDGE_LOOP('',(#867,#868,#874,#875));
#877=FACE_BOUND('',#876,.T.);
#878=ADVANCED_FACE('',(#877),#861,.T.);
#879=CARTESIAN_POINT('',(0.,-0.,-2.));
#880=DIRECTION('',(0.,0.,1.));
#881=DIRECTION('',(1.,0.,0.));
#882=AXIS2_PLACEMENT_3D('',#879,#880,#881);
#883=PLANE('',#882);
#884=ORIENTED_EDGE('',*,*,#784,.T.);
#885=ORIENTED_EDGE('',*,*,#873,.F.);
#886=ORIENTED_EDGE('',*,*,#846,.F.);
#887=ORIENTED_EDGE('',*,*,#815,.F.);
#888=EDGE_LOOP('',(#884,#885,#886,#887));
#889=FACE_BOUND('',#888,.T.);
#890=ADVANCED_FACE('',(#889),#883,.F.);
#891=CARTESIAN_POINT('',(0.,0.,0.));
#892=DIRECTION('',(0.,0.,1.));
#893=DIRECTION('',(1.,0.,0.));
#894=AXIS2_PLACEMENT_3D('',#891,#892,#893);
#895=PLANE('',#894);
#896=ORIENTED_EDGE('',*,*,#768,.F.);
#897=ORIENTED_EDGE('',*,*,#806,.T.);
#898=ORIENTED_EDGE('',*,*,#837,.T.);
#899=ORIENTED_EDGE('',*,*,#866,.T.);
#900=EDGE_LOOP('',(#896,#897,#898,#899));
#901=FACE_BOUND('',#900,.T.);
#902=ADVANCED_FACE('',(#901),#895,.T.);
#903=CLOSED_SHELL('',(#794,#825,#856,#878,#890,#902));
#904=MANIFOLD_SOLID_BREP('Extruded.002',#903);
#754=STYLED_ITEM('',(),#904);
#906=CARTESIAN_POINT('',(-77.,9.5,15.));
#907=DIRECTION('',(1.,0.,0.));
#908=DIRECTION('',(0.,0.,-1.));
#909=AXIS2_PLACEMENT_3D('',#906,#907,#908);
#910=PLANE('',#909);
#911=CARTESIAN_POINT('',(-77.,9.5,6.3));
#912=VERTEX_POINT('',#911);
#913=CARTESIAN_POINT('',(-77.,-9.5,6.3));
#914=VERTEX_POINT('',#913);
#915=CARTESIAN_POINT('',(-77.,9.5,6.3));
#916=DIRECTION('',(0.,-1.,0.));
#917=VECTOR('',#916,19.);
#918=LINE('',#915,#917);
#919=EDGE_CURVE('',#912,#914,#918,.T.);
#920=ORIENTED_EDGE('',*,*,#919,.F.);
#921=CARTESIAN_POINT('',(-77.,9.5,0.));
#922=VERTEX_POINT('',#921);
#923=CARTESIAN_POINT('',(-77.,9.5,6.3));
#924=DIRECTION('',(0.,-0.,-1.));
#925=VECTOR('',#924,6.3);
#926=LINE('',#923,#925);
#927=EDGE_CURVE('',#912,#922,#926,.T.);
#928=ORIENTED_EDGE('',*,*,#927,.T.);
#929=CARTESIAN_POINT('',(-77.,-9.5,0.));
#930=VERTEX_POINT('',#929);
#931=CARTESIAN_POINT('',(-77.,9.5,0.));
#932=DIRECTION('',(0.,-1.,0.));
#933=VECTOR('',#932,19.);
#934=LINE('',#931,#933);
#935=EDGE_CURVE('',#922,#930,#934,.T.);
#936=ORIENTED_EDGE('',*,*,#935,.T.);
#937=CARTESIAN_POINT('',(-77.,-9.5,6.3));
#938=DIRECTION('',(0.,-0.,-1.));
#939=VECTOR('',#938,6.3);
#940=LINE('',#937,#939);
#941=EDGE_CURVE('',#914,#930,#940,.T.);
#942=ORIENTED_EDGE('',*,*,#941,.F.);
#943=EDGE_LOOP('',(#920,#928,#936,#942));
#944=FACE_BOUND('',#943,.T.);
#945=ADVANCED_FACE('',(#944),#910,.F.);
#946=CARTESIAN_POINT('',(-77.,-9.5,15.));
#947=DIRECTION('',(0.,1.,-0.));
#948=DIRECTION('',(0.,0.,1.));
#949=AXIS2_PLACEMENT_3D('',#946,#947,#948);
#950=PLANE('',#949);
#951=CARTESIAN_POINT('',(-52.647465745,-9.5,6.3));
#952=VERTEX_POINT('',#951);
#953=CARTESIAN_POINT('',(-77.,-9.5,6.3));
#954=DIRECTION('',(1.,0.,-0.));
#955=VECTOR('',#954,24.352534255);
#956=LINE('',#953,#955);
#957=EDGE_CURVE('',#914,#952,#956,.T.);
#958=ORIENTED_EDGE('',*,*,#957,.F.);
#959=ORIENTED_EDGE('',*,*,#941,.T.);
#960=CARTESIAN_POINT('',(2.5,-9.5,0.));
#961=VERTEX_POINT('',#960);
#962=CARTESIAN_POINT('',(-77.,-9.5,0.));
#963=DIRECTION('',(1.,0.,-0.));
#964=VECTOR('',#963,79.5);
#965=LINE('',#962,#964);
#966=EDGE_CURVE('',#930,#961,#965,.T.);
#967=ORIENTED_EDGE('',*,*,#966,.T.);
#968=CARTESIAN_POINT('',(2.5,-9.5,16.));
#969=VERTEX_POINT('',#968);
#970=CARTESIAN_POINT('',(2.5,-9.5,16.));
#971=DIRECTION('',(0.,-0.,-1.));
#972=VECTOR('',#971,16.);
#973=LINE('',#970,#972);
#974=EDGE_CURVE('',#969,#961,#973,.T.);
#975=ORIENTED_EDGE('',*,*,#974,.F.);
#976=CARTESIAN_POINT('',(-77.,-9.5,16.));
#977=VERTEX_POINT('',#976);
#978=CARTESIAN_POINT('',(-77.,-9.5,16.));
#979=DIRECTION('',(1.,0.,-0.));
#980=VECTOR('',#979,79.5);
#981=LINE('',#978,#980);
#982=EDGE_CURVE('',#977,#969,#981,.T.);
#983=ORIENTED_EDGE('',*,*,#982,.F.);
#984=CARTESIAN_POINT('',(-77.,-9.5,8.3));
#985=VERTEX_POINT('',#984);
#986=CARTESIAN_POINT('',(-77.,-9.5,16.));
#987=DIRECTION('',(0.,-0.,-1.));
#988=VECTOR('',#987,7.7);
#989=LINE('',#986,#988);
#990=EDGE_CURVE('',#977,#985,#989,.T.);
#991=ORIENTED_EDGE('',*,*,#990,.T.);
#992=CARTESIAN_POINT('',(-52.647465745,-9.5,8.3));
#993=VERTEX_POINT('',#992);
#994=CARTESIAN_POINT('',(-52.647465745,-9.5,8.3));
#995=DIRECTION('',(-1.,0.,0.));
#996=VECTOR('',#995,24.352534255);
#997=LINE('',#994,#996);
#998=EDGE_CURVE('',#993,#985,#997,.T.);
#999=ORIENTED_EDGE('',*,*,#998,.F.);
#1000=CARTESIAN_POINT('',(-52.,-9.5,7.652534255));
#1001=VERTEX_POINT('',#1000);
#1002=CARTESIAN_POINT('',(-52.647465745,-9.5,7.652534255));
#1003=DIRECTION('',(0.,1.,-0.));
#1004=DIRECTION('',(0.,0.,1.));
#1005=AXIS2_PLACEMENT_3D('',#1002,#1003,#1004);
#1006=CIRCLE('',#1005,0.647465745);
#1007=EDGE_CURVE('',#993,#1001,#1006,.T.);
#1008=ORIENTED_EDGE('',*,*,#1007,.T.);
#1009=CARTESIAN_POINT('',(-52.,-9.5,6.947465745));
#1010=VERTEX_POINT('',#1009);
#1011=CARTESIAN_POINT('',(-52.,-9.5,6.947465745));
#1012=DIRECTION('',(0.,0.,1.));
#1013=VECTOR('',#1012,0.705068509);
#1014=LINE('',#1011,#1013);
#1015=EDGE_CURVE('',#1010,#1001,#1014,.T.);
#1016=ORIENTED_EDGE('',*,*,#1015,.F.);
#1017=CARTESIAN_POINT('',(-52.647465745,-9.5,6.947465745));
#1018=DIRECTION('',(0.,1.,-0.));
#1019=DIRECTION('',(0.,0.,1.));
#1020=AXIS2_PLACEMENT_3D('',#1017,#1018,#1019);
#1021=CIRCLE('',#1020,0.647465745);
#1022=EDGE_CURVE('',#1010,#952,#1021,.T.);
#1023=ORIENTED_EDGE('',*,*,#1022,.T.);
#1024=EDGE_LOOP('',(#958,#959,#967,#975,#983,#991,#999,#1008,#1016,#1023));
#1025=FACE_BOUND('',#1024,.T.);
#1026=ADVANCED_FACE('',(#1025),#950,.F.);
#1027=CARTESIAN_POINT('',(-75.,0.,15.));
#1028=DIRECTION('',(1.,0.,0.));
#1029=DIRECTION('',(0.,0.,-1.));
#1030=AXIS2_PLACEMENT_3D('',#1027,#1028,#1029);
#1031=PLANE('',#1030);
#1032=CARTESIAN_POINT('',(-75.,-7.5,6.3));
#1033=VERTEX_POINT('',#1032);
#1034=CARTESIAN_POINT('',(-75.,7.5,6.3));
#1035=VERTEX_POINT('',#1034);
#1036=CARTESIAN_POINT('',(-75.,-7.5,6.3));
#1037=DIRECTION('',(0.,1.,0.));
#1038=VECTOR('',#1037,15.);
#1039=LINE('',#1036,#1038);
#1040=EDGE_CURVE('',#1033,#1035,#1039,.T.);
#1041=ORIENTED_EDGE('',*,*,#1040,.F.);
#1042=CARTESIAN_POINT('',(-75.,-7.5,0.));
#1043=VERTEX_POINT('',#1042);
#1044=CARTESIAN_POINT('',(-75.,-7.5,6.3));
#1045=DIRECTION('',(0.,0.,-1.));
#1046=VECTOR('',#1045,6.3);
#1047=LINE('',#1044,#1046);
#1048=EDGE_CURVE('',#1033,#1043,#1047,.T.);
#1049=ORIENTED_EDGE('',*,*,#1048,.T.);
#1050=CARTESIAN_POINT('',(-75.,7.5,0.));
#1051=VERTEX_POINT('',#1050);
#1052=CARTESIAN_POINT('',(-75.,7.5,-0.));
#1053=DIRECTION('',(0.,-1.,0.));
#1054=VECTOR('',#1053,15.);
#1055=LINE('',#1052,#1054);
#1056=EDGE_CURVE('',#1051,#1043,#1055,.T.);
#1057=ORIENTED_EDGE('',*,*,#1056,.F.);
#1058=CARTESIAN_POINT('',(-75.,7.5,6.3));
#1059=DIRECTION('',(0.,-0.,-1.));
#1060=VECTOR('',#1059,6.3);
#1061=LINE('',#1058,#1060);
#1062=EDGE_CURVE('',#1035,#1051,#1061,.T.);
#1063=ORIENTED_EDGE('',*,*,#1062,.F.);
#1064=EDGE_LOOP('',(#1041,#1049,#1057,#1063));
#1065=FACE_BOUND('',#1064,.T.);
#1066=ADVANCED_FACE('',(#1065),#1031,.T.);
#1067=CARTESIAN_POINT('',(2.5,7.5,15.));
#1068=DIRECTION('',(-1.,0.,0.));
#1069=DIRECTION('',(0.,0.,1.));
#1070=AXIS2_PLACEMENT_3D('',#1067,#1068,#1069);
#1071=PLANE('',#1070);
#1072=CARTESIAN_POINT('',(2.5,7.5,0.));
#1073=VERTEX_POINT('',#1072);
#1074=CARTESIAN_POINT('',(2.5,9.5,0.));
#1075=VERTEX_POINT('',#1074);
#1076=CARTESIAN_POINT('',(2.5,7.5,0.));
#1077=DIRECTION('',(0.,1.,0.));
#1078=VECTOR('',#1077,2.);
#1079=LINE('',#1076,#1078);
#1080=EDGE_CURVE('',#1073,#1075,#1079,.T.);
#1081=ORIENTED_EDGE('',*,*,#1080,.T.);
#1082=CARTESIAN_POINT('',(2.5,9.5,16.));
#1083=VERTEX_POINT('',#1082);
#1084=CARTESIAN_POINT('',(2.5,9.5,16.));
#1085=DIRECTION('',(0.,-0.,-1.));
#1086=VECTOR('',#1085,16.);
#1087=LINE('',#1084,#1086);
#1088=EDGE_CURVE('',#1083,#1075,#1087,.T.);
#1089=ORIENTED_EDGE('',*,*,#1088,.F.);
#1090=CARTESIAN_POINT('',(2.5,7.5,16.));
#1091=VERTEX_POINT('',#1090);
#1092=CARTESIAN_POINT('',(2.5,7.5,16.));
#1093=DIRECTION('',(0.,1.,0.));
#1094=VECTOR('',#1093,2.);
#1095=LINE('',#1092,#1094);
#1096=EDGE_CURVE('',#1091,#1083,#1095,.T.);
#1097=ORIENTED_EDGE('',*,*,#1096,.F.);
#1098=CARTESIAN_POINT('',(2.5,7.5,16.));
#1099=DIRECTION('',(0.,-0.,-1.));
#1100=VECTOR('',#1099,16.);
#1101=LINE('',#1098,#1100);
#1102=EDGE_CURVE('',#1091,#1073,#1101,.T.);
#1103=ORIENTED_EDGE('',*,*,#1102,.T.);
#1104=EDGE_LOOP('',(#1081,#1089,#1097,#1103));
#1105=FACE_BOUND('',#1104,.T.);
#1106=ADVANCED_FACE('',(#1105),#1071,.F.);
#1107=CARTESIAN_POINT('',(0.,9.5,15.));
#1108=DIRECTION('',(0.,-1.,0.));
#1109=DIRECTION('',(0.,-0.,-1.));
#1110=AXIS2_PLACEMENT_3D('',#1107,#1108,#1109);
#1111=PLANE('',#1110);
#1112=ORIENTED_EDGE('',*,*,#927,.F.);
#1113=CARTESIAN_POINT('',(-52.647465745,9.5,6.3));
#1114=VERTEX_POINT('',#1113);
#1115=CARTESIAN_POINT('',(-77.,9.5,6.3));
#1116=DIRECTION('',(1.,0.,-0.));
#1117=VECTOR('',#1116,24.352534255);
#1118=LINE('',#1115,#1117);
#1119=EDGE_CURVE('',#912,#1114,#1118,.T.);
#1120=ORIENTED_EDGE('',*,*,#1119,.T.);
#1121=CARTESIAN_POINT('',(-52.,9.5,6.947465745));
#1122=VERTEX_POINT('',#1121);
#1123=CARTESIAN_POINT('',(-52.647465745,9.5,6.947465745));
#1124=DIRECTION('',(0.,-1.,0.));
#1125=DIRECTION('',(0.,-0.,-1.));
#1126=AXIS2_PLACEMENT_3D('',#1123,#1124,#1125);
#1127=CIRCLE('',#1126,0.647465745);
#1128=EDGE_CURVE('',#1114,#1122,#1127,.T.);
#1129=ORIENTED_EDGE('',*,*,#1128,.T.);
#1130=CARTESIAN_POINT('',(-52.,9.5,7.652534255));
#1131=VERTEX_POINT('',#1130);
#1132=CARTESIAN_POINT('',(-52.,9.5,6.947465745));
#1133=DIRECTION('',(0.,0.,1.));
#1134=VECTOR('',#1133,0.705068509);
#1135=LINE('',#1132,#1134);
#1136=EDGE_CURVE('',#1122,#1131,#1135,.T.);
#1137=ORIENTED_EDGE('',*,*,#1136,.T.);
#1138=CARTESIAN_POINT('',(-52.647465745,9.5,8.3));
#1139=VERTEX_POINT('',#1138);
#1140=CARTESIAN_POINT('',(-52.647465745,9.5,7.652534255));
#1141=DIRECTION('',(0.,-1.,0.));
#1142=DIRECTION('',(0.,-0.,-1.));
#1143=AXIS2_PLACEMENT_3D('',#1140,#1141,#1142);
#1144=CIRCLE('',#1143,0.647465745);
#1145=EDGE_CURVE('',#1131,#1139,#1144,.T.);
#1146=ORIENTED_EDGE('',*,*,#1145,.T.);
#1147=CARTESIAN_POINT('',(-77.,9.5,8.3));
#1148=VERTEX_POINT('',#1147);
#1149=CARTESIAN_POINT('',(-52.647465745,9.5,8.3));
#1150=DIRECTION('',(-1.,0.,0.));
#1151=VECTOR('',#1150,24.352534255);
#1152=LINE('',#1149,#1151);
#1153=EDGE_CURVE('',#1139,#1148,#1152,.T.);
#1154=ORIENTED_EDGE('',*,*,#1153,.T.);
#1155=CARTESIAN_POINT('',(-77.,9.5,16.));
#1156=VERTEX_POINT('',#1155);
#1157=CARTESIAN_POINT('',(-77.,9.5,16.));
#1158=DIRECTION('',(0.,-0.,-1.));
#1159=VECTOR('',#1158,7.7);
#1160=LINE('',#1157,#1159);
#1161=EDGE_CURVE('',#1156,#1148,#1160,.T.);
#1162=ORIENTED_EDGE('',*,*,#1161,.F.);
#1163=CARTESIAN_POINT('',(2.5,9.5,16.));
#1164=DIRECTION('',(-1.,0.,0.));
#1165=VECTOR('',#1164,79.5);
#1166=LINE('',#1163,#1165);
#1167=EDGE_CURVE('',#1083,#1156,#1166,.T.);
#1168=ORIENTED_EDGE('',*,*,#1167,.F.);
#1169=ORIENTED_EDGE('',*,*,#1088,.T.);
#1170=CARTESIAN_POINT('',(2.5,9.5,0.));
#1171=DIRECTION('',(-1.,0.,0.));
#1172=VECTOR('',#1171,79.5);
#1173=LINE('',#1170,#1172);
#1174=EDGE_CURVE('',#1075,#922,#1173,.T.);
#1175=ORIENTED_EDGE('',*,*,#1174,.T.);
#1176=EDGE_LOOP('',(#1112,#1120,#1129,#1137,#1146,#1154,#1162,#1168,#1169,#1175));
#1177=FACE_BOUND('',#1176,.T.);
#1178=ADVANCED_FACE('',(#1177),#1111,.F.);
#1179=CARTESIAN_POINT('',(-77.,9.5,15.));
#1180=DIRECTION('',(1.,0.,0.));
#1181=DIRECTION('',(0.,0.,-1.));
#1182=AXIS2_PLACEMENT_3D('',#1179,#1180,#1181);
#1183=PLANE('',#1182);
#1184=ORIENTED_EDGE('',*,*,#1161,.T.);
#1185=CARTESIAN_POINT('',(-77.,9.5,8.3));
#1186=DIRECTION('',(0.,-1.,0.));
#1187=VECTOR('',#1186,19.);
#1188=LINE('',#1185,#1187);
#1189=EDGE_CURVE('',#1148,#985,#1188,.T.);
#1190=ORIENTED_EDGE('',*,*,#1189,.T.);
#1191=ORIENTED_EDGE('',*,*,#990,.F.);
#1192=CARTESIAN_POINT('',(-77.,9.5,16.));
#1193=DIRECTION('',(0.,-1.,0.));
#1194=VECTOR('',#1193,19.);
#1195=LINE('',#1192,#1194);
#1196=EDGE_CURVE('',#1156,#977,#1195,.T.);
#1197=ORIENTED_EDGE('',*,*,#1196,.F.);
#1198=EDGE_LOOP('',(#1184,#1190,#1191,#1197));
#1199=FACE_BOUND('',#1198,.T.);
#1200=ADVANCED_FACE('',(#1199),#1183,.F.);
#1201=CARTESIAN_POINT('',(2.5,-9.5,15.));
#1202=DIRECTION('',(-1.,0.,0.));
#1203=DIRECTION('',(0.,0.,1.));
#1204=AXIS2_PLACEMENT_3D('',#1201,#1202,#1203);
#1205=PLANE('',#1204);
#1206=CARTESIAN_POINT('',(2.5,-7.5,0.));
#1207=VERTEX_POINT('',#1206);
#1208=CARTESIAN_POINT('',(2.5,-9.5,0.));
#1209=DIRECTION('',(0.,1.,0.));
#1210=VECTOR('',#1209,2.);
#1211=LINE('',#1208,#1210);
#1212=EDGE_CURVE('',#961,#1207,#1211,.T.);
#1213=ORIENTED_EDGE('',*,*,#1212,.T.);
#1214=CARTESIAN_POINT('',(2.5,-7.5,16.));
#1215=VERTEX_POINT('',#1214);
#1216=CARTESIAN_POINT('',(2.5,-7.5,16.));
#1217=DIRECTION('',(0.,-0.,-1.));
#1218=VECTOR('',#1217,16.);
#1219=LINE('',#1216,#1218);
#1220=EDGE_CURVE('',#1215,#1207,#1219,.T.);
#1221=ORIENTED_EDGE('',*,*,#1220,.F.);
#1222=CARTESIAN_POINT('',(2.5,-9.5,16.));
#1223=DIRECTION('',(0.,1.,0.));
#1224=VECTOR('',#1223,2.);
#1225=LINE('',#1222,#1224);
#1226=EDGE_CURVE('',#969,#1215,#1225,.T.);
#1227=ORIENTED_EDGE('',*,*,#1226,.F.);
#1228=ORIENTED_EDGE('',*,*,#974,.T.);
#1229=EDGE_LOOP('',(#1213,#1221,#1227,#1228));
#1230=FACE_BOUND('',#1229,.T.);
#1231=ADVANCED_FACE('',(#1230),#1205,.F.);
#1232=CARTESIAN_POINT('',(-75.,-7.5,15.));
#1233=DIRECTION('',(0.,1.,-0.));
#1234=DIRECTION('',(0.,0.,1.));
#1235=AXIS2_PLACEMENT_3D('',#1232,#1233,#1234);
#1236=PLANE('',#1235);
#1237=CARTESIAN_POINT('',(-52.647465745,-7.5,6.3));
#1238=VERTEX_POINT('',#1237);
#1239=CARTESIAN_POINT('',(-52.647465745,-7.5,6.3));
#1240=DIRECTION('',(-1.,0.,0.));
#1241=VECTOR('',#1240,22.352534255);
#1242=LINE('',#1239,#1241);
#1243=EDGE_CURVE('',#1238,#1033,#1242,.T.);
#1244=ORIENTED_EDGE('',*,*,#1243,.F.);
#1245=CARTESIAN_POINT('',(-52.,-7.5,6.947465745));
#1246=VERTEX_POINT('',#1245);
#1247=CARTESIAN_POINT('',(-52.647465745,-7.5,6.947465745));
#1248=DIRECTION('',(-0.,-1.,0.));
#1249=DIRECTION('',(0.,0.,1.));
#1250=AXIS2_PLACEMENT_3D('',#1247,#1248,#1249);
#1251=CIRCLE('',#1250,0.647465745);
#1252=EDGE_CURVE('',#1238,#1246,#1251,.T.);
#1253=ORIENTED_EDGE('',*,*,#1252,.T.);
#1254=CARTESIAN_POINT('',(-52.,-7.5,7.652534255));
#1255=VERTEX_POINT('',#1254);
#1256=CARTESIAN_POINT('',(-52.,-7.5,7.652534255));
#1257=DIRECTION('',(0.,-0.,-1.));
#1258=VECTOR('',#1257,0.705068509);
#1259=LINE('',#1256,#1258);
#1260=EDGE_CURVE('',#1255,#1246,#1259,.T.);
#1261=ORIENTED_EDGE('',*,*,#1260,.F.);
#1262=CARTESIAN_POINT('',(-52.647465745,-7.5,8.3));
#1263=VERTEX_POINT('',#1262);
#1264=CARTESIAN_POINT('',(-52.647465745,-7.5,7.652534255));
#1265=DIRECTION('',(-0.,-1.,0.));
#1266=DIRECTION('',(0.,0.,1.));
#1267=AXIS2_PLACEMENT_3D('',#1264,#1265,#1266);
#1268=CIRCLE('',#1267,0.647465745);
#1269=EDGE_CURVE('',#1255,#1263,#1268,.T.);
#1270=ORIENTED_EDGE('',*,*,#1269,.T.);
#1271=CARTESIAN_POINT('',(-75.,-7.5,8.3));
#1272=VERTEX_POINT('',#1271);
#1273=CARTESIAN_POINT('',(-75.,-7.5,8.3));
#1274=DIRECTION('',(1.,0.,-0.));
#1275=VECTOR('',#1274,22.352534255);
#1276=LINE('',#1273,#1275);
#1277=EDGE_CURVE('',#1272,#1263,#1276,.T.);
#1278=ORIENTED_EDGE('',*,*,#1277,.F.);
#1279=CARTESIAN_POINT('',(-75.,-7.5,16.));
#1280=VERTEX_POINT('',#1279);
#1281=CARTESIAN_POINT('',(-75.,-7.5,16.));
#1282=DIRECTION('',(-0.,-0.,-1.));
#1283=VECTOR('',#1282,7.7);
#1284=LINE('',#1281,#1283);
#1285=EDGE_CURVE('',#1280,#1272,#1284,.T.);
#1286=ORIENTED_EDGE('',*,*,#1285,.F.);
#1287=CARTESIAN_POINT('',(-75.,-7.5,16.));
#1288=DIRECTION('',(1.,0.,-0.));
#1289=VECTOR('',#1288,77.5);
#1290=LINE('',#1287,#1289);
#1291=EDGE_CURVE('',#1280,#1215,#1290,.T.);
#1292=ORIENTED_EDGE('',*,*,#1291,.T.);
#1293=ORIENTED_EDGE('',*,*,#1220,.T.);
#1294=CARTESIAN_POINT('',(-75.,-7.5,0.));
#1295=DIRECTION('',(1.,0.,-0.));
#1296=VECTOR('',#1295,77.5);
#1297=LINE('',#1294,#1296);
#1298=EDGE_CURVE('',#1043,#1207,#1297,.T.);
#1299=ORIENTED_EDGE('',*,*,#1298,.F.);
#1300=ORIENTED_EDGE('',*,*,#1048,.F.);
#1301=EDGE_LOOP('',(#1244,#1253,#1261,#1270,#1278,#1286,#1292,#1293,#1299,#1300));
#1302=FACE_BOUND('',#1301,.T.);
#1303=ADVANCED_FACE('',(#1302),#1236,.T.);
#1304=CARTESIAN_POINT('',(-75.,0.,15.));
#1305=DIRECTION('',(1.,0.,0.));
#1306=DIRECTION('',(0.,0.,-1.));
#1307=AXIS2_PLACEMENT_3D('',#1304,#1305,#1306);
#1308=PLANE('',#1307);
#1309=CARTESIAN_POINT('',(-75.,7.5,8.3));
#1310=VERTEX_POINT('',#1309);
#1311=CARTESIAN_POINT('',(-75.,7.5,8.3));
#1312=DIRECTION('',(0.,-1.,0.));
#1313=VECTOR('',#1312,15.);
#1314=LINE('',#1311,#1313);
#1315=EDGE_CURVE('',#1310,#1272,#1314,.T.);
#1316=ORIENTED_EDGE('',*,*,#1315,.F.);
#1317=CARTESIAN_POINT('',(-75.,7.5,16.));
#1318=VERTEX_POINT('',#1317);
#1319=CARTESIAN_POINT('',(-75.,7.5,16.));
#1320=DIRECTION('',(0.,-0.,-1.));
#1321=VECTOR('',#1320,7.7);
#1322=LINE('',#1319,#1321);
#1323=EDGE_CURVE('',#1318,#1310,#1322,.T.);
#1324=ORIENTED_EDGE('',*,*,#1323,.F.);
#1325=CARTESIAN_POINT('',(-75.,7.5,16.));
#1326=DIRECTION('',(0.,-1.,0.));
#1327=VECTOR('',#1326,15.);
#1328=LINE('',#1325,#1327);
#1329=EDGE_CURVE('',#1318,#1280,#1328,.T.);
#1330=ORIENTED_EDGE('',*,*,#1329,.T.);
#1331=ORIENTED_EDGE('',*,*,#1285,.T.);
#1332=EDGE_LOOP('',(#1316,#1324,#1330,#1331));
#1333=FACE_BOUND('',#1332,.T.);
#1334=ADVANCED_FACE('',(#1333),#1308,.T.);
#1335=CARTESIAN_POINT('',(-75.,7.5,15.));
#1336=DIRECTION('',(0.,1.,-0.));
#1337=DIRECTION('',(0.,0.,1.));
#1338=AXIS2_PLACEMENT_3D('',#1335,#1336,#1337);
#1339=PLANE('',#1338);
#1340=CARTESIAN_POINT('',(-52.647465745,7.5,8.3));
#1341=VERTEX_POINT('',#1340);
#1342=CARTESIAN_POINT('',(-75.,7.5,8.3));
#1343=DIRECTION('',(1.,0.,-0.));
#1344=VECTOR('',#1343,22.352534255);
#1345=LINE('',#1342,#1344);
#1346=EDGE_CURVE('',#1310,#1341,#1345,.T.);
#1347=ORIENTED_EDGE('',*,*,#1346,.T.);
#1348=CARTESIAN_POINT('',(-52.,7.5,7.652534255));
#1349=VERTEX_POINT('',#1348);
#1350=CARTESIAN_POINT('',(-52.647465745,7.5,7.652534255));
#1351=DIRECTION('',(0.,1.,-0.));
#1352=DIRECTION('',(0.,0.,1.));
#1353=AXIS2_PLACEMENT_3D('',#1350,#1351,#1352);
#1354=CIRCLE('',#1353,0.647465745);
#1355=EDGE_CURVE('',#1341,#1349,#1354,.T.);
#1356=ORIENTED_EDGE('',*,*,#1355,.T.);
#1357=CARTESIAN_POINT('',(-52.,7.5,6.947465745));
#1358=VERTEX_POINT('',#1357);
#1359=CARTESIAN_POINT('',(-52.,7.5,7.652534255));
#1360=DIRECTION('',(0.,-0.,-1.));
#1361=VECTOR('',#1360,0.705068509);
#1362=LINE('',#1359,#1361);
#1363=EDGE_CURVE('',#1349,#1358,#1362,.T.);
#1364=ORIENTED_EDGE('',*,*,#1363,.T.);
#1365=CARTESIAN_POINT('',(-52.647465745,7.5,6.3));
#1366=VERTEX_POINT('',#1365);
#1367=CARTESIAN_POINT('',(-52.647465745,7.5,6.947465745));
#1368=DIRECTION('',(0.,1.,-0.));
#1369=DIRECTION('',(0.,0.,1.));
#1370=AXIS2_PLACEMENT_3D('',#1367,#1368,#1369);
#1371=CIRCLE('',#1370,0.647465745);
#1372=EDGE_CURVE('',#1358,#1366,#1371,.T.);
#1373=ORIENTED_EDGE('',*,*,#1372,.T.);
#1374=CARTESIAN_POINT('',(-52.647465745,7.5,6.3));
#1375=DIRECTION('',(-1.,0.,0.));
#1376=VECTOR('',#1375,22.352534255);
#1377=LINE('',#1374,#1376);
#1378=EDGE_CURVE('',#1366,#1035,#1377,.T.);
#1379=ORIENTED_EDGE('',*,*,#1378,.T.);
#1380=ORIENTED_EDGE('',*,*,#1062,.T.);
#1381=CARTESIAN_POINT('',(-75.,7.5,0.));
#1382=DIRECTION('',(1.,0.,-0.));
#1383=VECTOR('',#1382,77.5);
#1384=LINE('',#1381,#1383);
#1385=EDGE_CURVE('',#1051,#1073,#1384,.T.);
#1386=ORIENTED_EDGE('',*,*,#1385,.T.);
#1387=ORIENTED_EDGE('',*,*,#1102,.F.);
#1388=CARTESIAN_POINT('',(-75.,7.5,16.));
#1389=DIRECTION('',(1.,0.,-0.));
#1390=VECTOR('',#1389,77.5);
#1391=LINE('',#1388,#1390);
#1392=EDGE_CURVE('',#1318,#1091,#1391,.T.);
#1393=ORIENTED_EDGE('',*,*,#1392,.F.);
#1394=ORIENTED_EDGE('',*,*,#1323,.T.);
#1395=EDGE_LOOP('',(#1347,#1356,#1364,#1373,#1379,#1380,#1386,#1387,#1393,#1394));
#1396=FACE_BOUND('',#1395,.T.);
#1397=ADVANCED_FACE('',(#1396),#1339,.F.);
#1398=CARTESIAN_POINT('',(0.,0.,16.));
#1399=DIRECTION('',(0.,0.,1.));
#1400=DIRECTION('',(1.,0.,0.));
#1401=AXIS2_PLACEMENT_3D('',#1398,#1399,#1400);
#1402=PLANE('',#1401);
#1403=ORIENTED_EDGE('',*,*,#1096,.T.);
#1404=ORIENTED_EDGE('',*,*,#1167,.T.);
#1405=ORIENTED_EDGE('',*,*,#1196,.T.);
#1406=ORIENTED_EDGE('',*,*,#982,.T.);
#1407=ORIENTED_EDGE('',*,*,#1226,.T.);
#1408=ORIENTED_EDGE('',*,*,#1291,.F.);
#1409=ORIENTED_EDGE('',*,*,#1329,.F.);
#1410=ORIENTED_EDGE('',*,*,#1392,.T.);
#1411=EDGE_LOOP('',(#1403,#1404,#1405,#1406,#1407,#1408,#1409,#1410));
#1412=FACE_BOUND('',#1411,.T.);
#1413=ADVANCED_FACE('',(#1412),#1402,.T.);
#1414=CARTESIAN_POINT('',(0.,0.,0.));
#1415=DIRECTION('',(0.,0.,1.));
#1416=DIRECTION('',(1.,0.,0.));
#1417=AXIS2_PLACEMENT_3D('',#1414,#1415,#1416);
#1418=PLANE('',#1417);
#1419=ORIENTED_EDGE('',*,*,#1080,.F.);
#1420=ORIENTED_EDGE('',*,*,#1385,.F.);
#1421=ORIENTED_EDGE('',*,*,#1056,.T.);
#1422=ORIENTED_EDGE('',*,*,#1298,.T.);
#1423=ORIENTED_EDGE('',*,*,#1212,.F.);
#1424=ORIENTED_EDGE('',*,*,#966,.F.);
#1425=ORIENTED_EDGE('',*,*,#935,.F.);
#1426=ORIENTED_EDGE('',*,*,#1174,.F.);
#1427=EDGE_LOOP('',(#1419,#1420,#1421,#1422,#1423,#1424,#1425,#1426));
#1428=FACE_BOUND('',#1427,.T.);
#1429=ADVANCED_FACE('',(#1428),#1418,.F.);
#1430=CARTESIAN_POINT('',(-77.,77.990558303,6.3));
#1431=DIRECTION('',(0.,0.,-1.));
#1432=DIRECTION('',(-1.,0.,0.));
#1433=AXIS2_PLACEMENT_3D('',#1430,#1431,#1432);
#1434=PLANE('',#1433);
#1435=ORIENTED_EDGE('',*,*,#957,.T.);
#1436=CARTESIAN_POINT('',(-52.647465745,-9.5,6.3));
#1437=DIRECTION('',(-0.,1.,-0.));
#1438=VECTOR('',#1437,2.);
#1439=LINE('',#1436,#1438);
#1440=EDGE_CURVE('',#952,#1238,#1439,.T.);
#1441=ORIENTED_EDGE('',*,*,#1440,.T.);
#1442=ORIENTED_EDGE('',*,*,#1243,.T.);
#1443=ORIENTED_EDGE('',*,*,#1040,.T.);
#1444=ORIENTED_EDGE('',*,*,#1378,.F.);
#1445=CARTESIAN_POINT('',(-52.647465745,7.5,6.3));
#1446=DIRECTION('',(-0.,1.,-0.));
#1447=VECTOR('',#1446,2.);
#1448=LINE('',#1445,#1447);
#1449=EDGE_CURVE('',#1366,#1114,#1448,.T.);
#1450=ORIENTED_EDGE('',*,*,#1449,.T.);
#1451=ORIENTED_EDGE('',*,*,#1119,.F.);
#1452=ORIENTED_EDGE('',*,*,#919,.T.);
#1453=EDGE_LOOP('',(#1435,#1441,#1442,#1443,#1444,#1450,#1451,#1452));
#1454=FACE_BOUND('',#1453,.T.);
#1455=ADVANCED_FACE('',(#1454),#1434,.F.);
#1456=CARTESIAN_POINT('',(-52.,77.990558303,6.3));
#1457=DIRECTION('',(1.,0.,0.));
#1458=DIRECTION('',(0.,0.,-1.));
#1459=AXIS2_PLACEMENT_3D('',#1456,#1457,#1458);
#1460=PLANE('',#1459);
#1461=ORIENTED_EDGE('',*,*,#1363,.F.);
#1462=CARTESIAN_POINT('',(-52.,7.5,7.652534255));
#1463=DIRECTION('',(-0.,1.,-0.));
#1464=VECTOR('',#1463,2.);
#1465=LINE('',#1462,#1464);
#1466=EDGE_CURVE('',#1349,#1131,#1465,.T.);
#1467=ORIENTED_EDGE('',*,*,#1466,.T.);
#1468=ORIENTED_EDGE('',*,*,#1136,.F.);
#1469=CARTESIAN_POINT('',(-52.,9.5,6.947465745));
#1470=DIRECTION('',(0.,-1.,0.));
#1471=VECTOR('',#1470,2.);
#1472=LINE('',#1469,#1471);
#1473=EDGE_CURVE('',#1122,#1358,#1472,.T.);
#1474=ORIENTED_EDGE('',*,*,#1473,.T.);
#1475=EDGE_LOOP('',(#1461,#1467,#1468,#1474));
#1476=FACE_BOUND('',#1475,.T.);
#1477=ADVANCED_FACE('',(#1476),#1460,.F.);
#1478=CARTESIAN_POINT('',(-52.,77.990558303,8.3));
#1479=DIRECTION('',(0.,0.,1.));
#1480=DIRECTION('',(1.,0.,0.));
#1481=AXIS2_PLACEMENT_3D('',#1478,#1479,#1480);
#1482=PLANE('',#1481);
#1483=ORIENTED_EDGE('',*,*,#1277,.T.);
#1484=CARTESIAN_POINT('',(-52.647465745,-7.5,8.3));
#1485=DIRECTION('',(0.,-1.,0.));
#1486=VECTOR('',#1485,2.);
#1487=LINE('',#1484,#1486);
#1488=EDGE_CURVE('',#1263,#993,#1487,.T.);
#1489=ORIENTED_EDGE('',*,*,#1488,.T.);
#1490=ORIENTED_EDGE('',*,*,#998,.T.);
#1491=ORIENTED_EDGE('',*,*,#1189,.F.);
#1492=ORIENTED_EDGE('',*,*,#1153,.F.);
#1493=CARTESIAN_POINT('',(-52.647465745,9.5,8.3));
#1494=DIRECTION('',(0.,-1.,0.));
#1495=VECTOR('',#1494,2.);
#1496=LINE('',#1493,#1495);
#1497=EDGE_CURVE('',#1139,#1341,#1496,.T.);
#1498=ORIENTED_EDGE('',*,*,#1497,.T.);
#1499=ORIENTED_EDGE('',*,*,#1346,.F.);
#1500=ORIENTED_EDGE('',*,*,#1315,.T.);
#1501=EDGE_LOOP('',(#1483,#1489,#1490,#1491,#1492,#1498,#1499,#1500));
#1502=FACE_BOUND('',#1501,.T.);
#1503=ADVANCED_FACE('',(#1502),#1482,.F.);
#1504=CARTESIAN_POINT('',(-52.,77.990558303,6.3));
#1505=DIRECTION('',(1.,0.,0.));
#1506=DIRECTION('',(0.,0.,-1.));
#1507=AXIS2_PLACEMENT_3D('',#1504,#1505,#1506);
#1508=PLANE('',#1507);
#1509=ORIENTED_EDGE('',*,*,#1015,.T.);
#1510=CARTESIAN_POINT('',(-52.,-9.5,7.652534255));
#1511=DIRECTION('',(-0.,1.,-0.));
#1512=VECTOR('',#1511,2.);
#1513=LINE('',#1510,#1512);
#1514=EDGE_CURVE('',#1001,#1255,#1513,.T.);
#1515=ORIENTED_EDGE('',*,*,#1514,.T.);
#1516=ORIENTED_EDGE('',*,*,#1260,.T.);
#1517=CARTESIAN_POINT('',(-52.,-7.5,6.947465745));
#1518=DIRECTION('',(0.,-1.,0.));
#1519=VECTOR('',#1518,2.);
#1520=LINE('',#1517,#1519);
#1521=EDGE_CURVE('',#1246,#1010,#1520,.T.);
#1522=ORIENTED_EDGE('',*,*,#1521,.T.);
#1523=EDGE_LOOP('',(#1509,#1515,#1516,#1522));
#1524=FACE_BOUND('',#1523,.T.);
#1525=ADVANCED_FACE('',(#1524),#1508,.F.);
#1526=CARTESIAN_POINT('',(-52.647465745,77.990558303,7.652534255));
#1527=DIRECTION('',(0.,1.,0.));
#1528=DIRECTION('',(0.,-0.,1.));
#1529=AXIS2_PLACEMENT_3D('',#1526,#1527,#1528);
#1530=CYLINDRICAL_SURFACE('',#1529,0.647465745);
#1531=ORIENTED_EDGE('',*,*,#1269,.F.);
#1532=ORIENTED_EDGE('',*,*,#1514,.F.);
#1533=ORIENTED_EDGE('',*,*,#1007,.F.);
#1534=ORIENTED_EDGE('',*,*,#1488,.F.);
#1535=EDGE_LOOP('',(#1531,#1532,#1533,#1534));
#1536=FACE_BOUND('',#1535,.T.);
#1537=ADVANCED_FACE('',(#1536),#1530,.F.);
#1538=CARTESIAN_POINT('',(-52.647465745,77.990558303,6.947465745));
#1539=DIRECTION('',(0.,1.,0.));
#1540=DIRECTION('',(0.,-0.,1.));
#1541=AXIS2_PLACEMENT_3D('',#1538,#1539,#1540);
#1542=CYLINDRICAL_SURFACE('',#1541,0.647465745);
#1543=ORIENTED_EDGE('',*,*,#1252,.F.);
#1544=ORIENTED_EDGE('',*,*,#1440,.F.);
#1545=ORIENTED_EDGE('',*,*,#1022,.F.);
#1546=ORIENTED_EDGE('',*,*,#1521,.F.);
#1547=EDGE_LOOP('',(#1543,#1544,#1545,#1546));
#1548=FACE_BOUND('',#1547,.T.);
#1549=ADVANCED_FACE('',(#1548),#1542,.F.);
#1550=CARTESIAN_POINT('',(-52.647465745,77.990558303,7.652534255));
#1551=DIRECTION('',(0.,1.,0.));
#1552=DIRECTION('',(0.,-0.,1.));
#1553=AXIS2_PLACEMENT_3D('',#1550,#1551,#1552);
#1554=CYLINDRICAL_SURFACE('',#1553,0.647465745);
#1555=ORIENTED_EDGE('',*,*,#1145,.F.);
#1556=ORIENTED_EDGE('',*,*,#1466,.F.);
#1557=ORIENTED_EDGE('',*,*,#1355,.F.);
#1558=ORIENTED_EDGE('',*,*,#1497,.F.);
#1559=EDGE_LOOP('',(#1555,#1556,#1557,#1558));
#1560=FACE_BOUND('',#1559,.T.);
#1561=ADVANCED_FACE('',(#1560),#1554,.F.);
#1562=CARTESIAN_POINT('',(-52.647465745,77.990558303,6.947465745));
#1563=DIRECTION('',(0.,1.,0.));
#1564=DIRECTION('',(0.,-0.,1.));
#1565=AXIS2_PLACEMENT_3D('',#1562,#1563,#1564);
#1566=CYLINDRICAL_SURFACE('',#1565,0.647465745);
#1567=ORIENTED_EDGE('',*,*,#1128,.F.);
#1568=ORIENTED_EDGE('',*,*,#1449,.F.);
#1569=ORIENTED_EDGE('',*,*,#1372,.F.);
#1570=ORIENTED_EDGE('',*,*,#1473,.F.);
#1571=EDGE_LOOP('',(#1567,#1568,#1569,#1570));
#1572=FACE_BOUND('',#1571,.T.);
#1573=ADVANCED_FACE('',(#1572),#1566,.F.);
#1574=CLOSED_SHELL('',(#945,#1026,#1066,#1106,#1178,#1200,#1231,#1303,#1334,#1397,#1413,#1429,#1455,#1477,#1503,#1525,#1537,#1549,#1561,#1573));
#1575=MANIFOLD_SOLID_BREP('Extruded.001',#1574);
#905=STYLED_ITEM('',(),#1575);
#16=SHAPE_REPRESENTATION('root',(#15),#10);
#17=ADVANCED_BREP_SHAPE_REPRESENTATION('root',(#379,#753,#904,#1575),#10);
#1583=SHAPE_REPRESENTATION_RELATIONSHIP('','',#16,#17);
#18=GEOMETRICALLY_BOUNDED_WIREFRAME_SHAPE_REPRESENTATION('root',(#400),#10);
#1591=SHAPE_REPRESENTATION_RELATIONSHIP('','',#16,#18);
#1592=APPLICATION_CONTEXT('configuration controlled 3D design of mechanical parts and assemblies');
#1593=APPLICATION_PROTOCOL_DEFINITION('international standard','configuration_control_3d_design_ed2_mim',2004,#1592);
#1594=PRODUCT_CONTEXT('',#1592,'mechanical');
#1595=PRODUCT_DEFINITION_CONTEXT('part definition',#1592,'design');
#24=PRODUCT('root','root','',(#1594));
#1596=PRODUCT_RELATED_PRODUCT_CATEGORY('part','',(#24));
#1597=PRODUCT_DEFINITION_FORMATION_WITH_SPECIFIED_SOURCE('','',#24,.NOT_KNOWN.);
#25=PRODUCT_DEFINITION('design','',#1597,#1595);
#23=PRODUCT_DEFINITION_SHAPE('','',#25);
#1598=SHAPE_DEFINITION_REPRESENTATION(#23,#16);
#11=DRAUGHTING_MODEL('',(),#10);
#1=MECHANICAL_DESIGN_GEOMETRIC_PRESENTATION_REPRESENTATION('',(#26,#401,#754,#905),#10);
ENDSEC;
END-ISO-10303-21;
