ISO-10303-21;
HEADER;

/* File generated by HOOPS Exchange Version 25.8.0 */

FILE_DESCRIPTION(('HOOPS Exchange Step'),'2;1');

FILE_NAME('/home/tfannes/prints/260705_nerf_shooter/NerfShooter_SG90_Holder.step',
'2026-07-11T17:12:41+02:00',
('tfannes'),
('Unknown organisation'),
'HOOPS Exchange 2025.8',
'HOOPS Exchange',
'Unknown authorisation');

FILE_SCHEMA( ('AP203_CONFIGURATION_CONTROLLED_3D_DESIGN_OF_MECHANICAL_PARTS_AND_ASSEMBLIES_MIM_LF') );

ENDSEC;

DATA;
#3=(NAMED_UNIT(*)PLANE_ANGLE_UNIT()SI_UNIT($,.RADIAN.));
#4=PLANE_ANGLE_MEASURE_WITH_UNIT(PLANE_ANGLE_MEASURE(0.0174532925),#3);
#5=(CONVERSION_BASED_UNIT('DEGREE',#4)NAMED_UNIT(#6)PLANE_ANGLE_UNIT());
#6=DIMENSIONAL_EXPONENTS(0.,0.,0.,0.,0.,0.,0.);
#7=(NAMED_UNIT(*)SI_UNIT($,.STERADIAN.)SOLID_ANGLE_UNIT());
#8=(LENGTH_UNIT()NAMED_UNIT(*)SI_UNIT(.MILLI.,.METRE.));
#9=UNCERTAINTY_MEASURE_WITH_UNIT(LENGTH_MEASURE(1.000000E-05),#8,'DISTANCE_ACCURACY_VALUE','Maximum Tolerance applied to model');
#10=(GEOMETRIC_REPRESENTATION_CONTEXT(3)GLOBAL_UNCERTAINTY_ASSIGNED_CONTEXT((#9))GLOBAL_UNIT_ASSIGNED_CONTEXT((#8,#5,#7))REPRESENTATION_CONTEXT('','root'));
#12=CARTESIAN_POINT('',(0.,0.,0.));
#13=DIRECTION('',(0.,0.,1.));
#14=DIRECTION('',(1.,0.,0.));
#15=AXIS2_PLACEMENT_3D('TS3D_PRODUCT_CSYS',#12,#13,#14);
#27=CARTESIAN_POINT('',(-94.6,1.4,16.061294394));
#28=CARTESIAN_POINT('',(-94.6,9.5,16.061294394));
#29=CARTESIAN_POINT('',(-82.,1.4,16.061294394));
#30=CARTESIAN_POINT('',(-82.,9.5,16.061294394));
#31=B_SPLINE_SURFACE_WITH_KNOTS('',1,1,((#27,#28),(#29,#30)),.UNSPECIFIED.,.F.,.F.,.U.,(2,2),(2,2),(-0.000128962,0.012471038),(-0.0081,0.),.UNSPECIFIED.);
#32=CARTESIAN_POINT('',(-82.,9.5,16.061294394));
#33=VERTEX_POINT('',#32);
#34=CARTESIAN_POINT('',(-82.,1.4,16.061294394));
#35=VERTEX_POINT('',#34);
#36=CARTESIAN_POINT('',(-82.,9.5,16.061294394));
#37=CARTESIAN_POINT('',(-82.,1.4,16.061294394));
#38=B_SPLINE_CURVE_WITH_KNOTS('',1,(#36,#37),.UNSPECIFIED.,.F.,.F.,(2,2),(-0.00575,0.00235),.UNSPECIFIED.);
#39=EDGE_CURVE('',#33,#35,#38,.T.);
#40=ORIENTED_EDGE('',*,*,#39,.T.);
#41=CARTESIAN_POINT('',(-94.6,1.4,16.061294394));
#42=VERTEX_POINT('',#41);
#43=CARTESIAN_POINT('',(-94.6,1.4,16.061294394));
#44=CARTESIAN_POINT('',(-82.,1.4,16.061294394));
#45=B_SPLINE_CURVE_WITH_KNOTS('',1,(#43,#44),.UNSPECIFIED.,.F.,.F.,(2,2),(-0.000128962,0.012471038),.UNSPECIFIED.);
#46=EDGE_CURVE('',#42,#35,#45,.T.);
#47=ORIENTED_EDGE('',*,*,#46,.F.);
#48=CARTESIAN_POINT('',(-94.6,9.5,16.061294394));
#49=VERTEX_POINT('',#48);
#50=CARTESIAN_POINT('',(-94.6,9.5,16.061294394));
#51=CARTESIAN_POINT('',(-94.6,1.4,16.061294394));
#52=B_SPLINE_CURVE_WITH_KNOTS('',1,(#50,#51),.UNSPECIFIED.,.F.,.F.,(2,2),(-0.00575,0.00235),.UNSPECIFIED.);
#53=EDGE_CURVE('',#49,#42,#52,.T.);
#54=ORIENTED_EDGE('',*,*,#53,.F.);
#55=CARTESIAN_POINT('',(-94.6,9.5,16.061294394));
#56=CARTESIAN_POINT('',(-82.,9.5,16.061294394));
#57=B_SPLINE_CURVE_WITH_KNOTS('',1,(#55,#56),.UNSPECIFIED.,.F.,.F.,(2,2),(-0.000128962,0.012471038),.UNSPECIFIED.);
#58=EDGE_CURVE('',#49,#33,#57,.T.);
#59=ORIENTED_EDGE('',*,*,#58,.T.);
#60=EDGE_LOOP('',(#40,#47,#54,#59));
#61=FACE_BOUND('',#60,.T.);
#62=ADVANCED_FACE('',(#61),#31,.F.);
#63=CARTESIAN_POINT('',(-96.6,9.5,16.05));
#64=CARTESIAN_POINT('',(-96.6,9.5,48.45));
#65=CARTESIAN_POINT('',(-82.,9.5,16.05));
#66=CARTESIAN_POINT('',(-82.,9.5,48.45));
#67=B_SPLINE_SURFACE_WITH_KNOTS('',1,1,((#63,#64),(#65,#66)),.UNSPECIFIED.,.F.,.F.,.U.,(2,2),(2,2),(-0.002128962,0.012471038),(-0.0049,0.0275),.UNSPECIFIED.);
#68=CARTESIAN_POINT('',(-82.,9.5,20.85));
#69=VERTEX_POINT('',#68);
#70=CARTESIAN_POINT('',(-82.,9.5,20.85));
#71=CARTESIAN_POINT('',(-82.,9.5,16.061294394));
#72=B_SPLINE_CURVE_WITH_KNOTS('',1,(#70,#71),.UNSPECIFIED.,.F.,.F.,(2,2),(-0.00235,0.002438706),.UNSPECIFIED.);
#73=EDGE_CURVE('',#69,#33,#72,.T.);
#74=ORIENTED_EDGE('',*,*,#73,.T.);
#75=ORIENTED_EDGE('',*,*,#58,.F.);
#76=CARTESIAN_POINT('',(-94.6,9.5,16.05));
#77=VERTEX_POINT('',#76);
#78=CARTESIAN_POINT('',(-94.6,9.5,16.061294394));
#79=CARTESIAN_POINT('',(-94.6,9.5,16.05));
#80=B_SPLINE_CURVE_WITH_KNOTS('',1,(#78,#79),.UNSPECIFIED.,.F.,.F.,(2,2),(0.032388706,0.0324),.UNSPECIFIED.);
#81=EDGE_CURVE('',#49,#77,#80,.T.);
#82=ORIENTED_EDGE('',*,*,#81,.T.);
#83=CARTESIAN_POINT('',(-96.6,9.5,16.05));
#84=VERTEX_POINT('',#83);
#85=CARTESIAN_POINT('',(-96.6,9.5,16.05));
#86=CARTESIAN_POINT('',(-94.6,9.5,16.05));
#87=B_SPLINE_CURVE_WITH_KNOTS('',1,(#85,#86),.UNSPECIFIED.,.F.,.F.,(2,2),(-0.,0.002),.UNSPECIFIED.);
#88=EDGE_CURVE('',#84,#77,#87,.T.);
#89=ORIENTED_EDGE('',*,*,#88,.F.);
#90=CARTESIAN_POINT('',(-96.6,9.5,48.45));
#91=VERTEX_POINT('',#90);
#92=CARTESIAN_POINT('',(-96.6,9.5,48.45));
#93=CARTESIAN_POINT('',(-96.6,9.5,16.05));
#94=B_SPLINE_CURVE_WITH_KNOTS('',1,(#92,#93),.UNSPECIFIED.,.F.,.F.,(2,2),(0.,0.0324),.UNSPECIFIED.);
#95=EDGE_CURVE('',#91,#84,#94,.T.);
#96=ORIENTED_EDGE('',*,*,#95,.F.);
#97=CARTESIAN_POINT('',(-82.,9.5,48.45));
#98=VERTEX_POINT('',#97);
#99=CARTESIAN_POINT('',(-96.6,9.5,48.45));
#100=CARTESIAN_POINT('',(-82.,9.5,48.45));
#101=B_SPLINE_CURVE_WITH_KNOTS('',1,(#99,#100),.UNSPECIFIED.,.F.,.F.,(2,2),(-0.,0.0146),.UNSPECIFIED.);
#102=EDGE_CURVE('',#91,#98,#101,.T.);
#103=ORIENTED_EDGE('',*,*,#102,.T.);
#104=CARTESIAN_POINT('',(-82.,9.5,43.661294394));
#105=VERTEX_POINT('',#104);
#106=CARTESIAN_POINT('',(-82.,9.5,48.45));
#107=CARTESIAN_POINT('',(-82.,9.5,43.661294394));
#108=B_SPLINE_CURVE_WITH_KNOTS('',1,(#106,#107),.UNSPECIFIED.,.F.,.F.,(2,2),(-0.00245,0.002338706),.UNSPECIFIED.);
#109=EDGE_CURVE('',#98,#105,#108,.T.);
#110=ORIENTED_EDGE('',*,*,#109,.T.);
#111=CARTESIAN_POINT('',(-94.6,9.5,43.661294394));
#112=VERTEX_POINT('',#111);
#113=CARTESIAN_POINT('',(-94.6,9.5,43.661294394));
#114=CARTESIAN_POINT('',(-82.,9.5,43.661294394));
#115=B_SPLINE_CURVE_WITH_KNOTS('',1,(#113,#114),.UNSPECIFIED.,.F.,.F.,(2,2),(-0.000128962,0.012471038),.UNSPECIFIED.);
#116=EDGE_CURVE('',#112,#105,#115,.T.);
#117=ORIENTED_EDGE('',*,*,#116,.F.);
#118=CARTESIAN_POINT('',(-94.6,9.5,20.85));
#119=VERTEX_POINT('',#118);
#120=CARTESIAN_POINT('',(-94.6,9.5,43.661294394));
#121=CARTESIAN_POINT('',(-94.6,9.5,20.85));
#122=B_SPLINE_CURVE_WITH_KNOTS('',1,(#120,#121),.UNSPECIFIED.,.F.,.F.,(2,2),(0.004788706,0.0276),.UNSPECIFIED.);
#123=EDGE_CURVE('',#112,#119,#122,.T.);
#124=ORIENTED_EDGE('',*,*,#123,.T.);
#125=CARTESIAN_POINT('',(-94.6,9.5,20.85));
#126=CARTESIAN_POINT('',(-82.,9.5,20.85));
#127=B_SPLINE_CURVE_WITH_KNOTS('',1,(#125,#126),.UNSPECIFIED.,.F.,.F.,(2,2),(-0.000128962,0.012471038),.UNSPECIFIED.);
#128=EDGE_CURVE('',#119,#69,#127,.T.);
#129=ORIENTED_EDGE('',*,*,#128,.T.);
#130=EDGE_LOOP('',(#74,#75,#82,#89,#96,#103,#110,#117,#124,#129));
#131=FACE_BOUND('',#130,.T.);
#132=ADVANCED_FACE('',(#131),#67,.F.);
#133=CARTESIAN_POINT('',(-82.,1.4,20.85));
#134=CARTESIAN_POINT('',(-82.,9.5,20.85));
#135=CARTESIAN_POINT('',(-94.6,1.4,20.85));
#136=CARTESIAN_POINT('',(-94.6,9.5,20.85));
#137=B_SPLINE_SURFACE_WITH_KNOTS('',1,1,((#133,#134),(#135,#136)),.UNSPECIFIED.,.F.,.F.,.U.,(2,2),(2,2),(-0.012471038,0.000128962),(0.0001,0.0082),.UNSPECIFIED.);
#138=CARTESIAN_POINT('',(-82.,1.4,20.85));
#139=VERTEX_POINT('',#138);
#140=CARTESIAN_POINT('',(-82.,1.4,20.85));
#141=CARTESIAN_POINT('',(-82.,9.5,20.85));
#142=B_SPLINE_CURVE_WITH_KNOTS('',1,(#140,#141),.UNSPECIFIED.,.F.,.F.,(2,2),(-0.00235,0.00575),.UNSPECIFIED.);
#143=EDGE_CURVE('',#139,#69,#142,.T.);
#144=ORIENTED_EDGE('',*,*,#143,.T.);
#145=ORIENTED_EDGE('',*,*,#128,.F.);
#146=CARTESIAN_POINT('',(-94.6,1.4,20.85));
#147=VERTEX_POINT('',#146);
#148=CARTESIAN_POINT('',(-94.6,1.4,20.85));
#149=CARTESIAN_POINT('',(-94.6,9.5,20.85));
#150=B_SPLINE_CURVE_WITH_KNOTS('',1,(#148,#149),.UNSPECIFIED.,.F.,.F.,(2,2),(0.0001,0.0082),.UNSPECIFIED.);
#151=EDGE_CURVE('',#147,#119,#150,.T.);
#152=ORIENTED_EDGE('',*,*,#151,.F.);
#153=CARTESIAN_POINT('',(-94.6,1.4,20.85));
#154=CARTESIAN_POINT('',(-82.,1.4,20.85));
#155=B_SPLINE_CURVE_WITH_KNOTS('',1,(#153,#154),.UNSPECIFIED.,.F.,.F.,(2,2),(-0.000128962,0.012471038),.UNSPECIFIED.);
#156=EDGE_CURVE('',#147,#139,#155,.T.);
#157=ORIENTED_EDGE('',*,*,#156,.T.);
#158=EDGE_LOOP('',(#144,#145,#152,#157));
#159=FACE_BOUND('',#158,.T.);
#160=ADVANCED_FACE('',(#159),#137,.F.);
#161=CARTESIAN_POINT('',(-82.,1.4,16.061294394));
#162=CARTESIAN_POINT('',(-82.,1.4,20.85));
#163=CARTESIAN_POINT('',(-94.6,1.4,16.061294394));
#164=CARTESIAN_POINT('',(-94.6,1.4,20.85));
#165=B_SPLINE_SURFACE_WITH_KNOTS('',1,1,((#161,#162),(#163,#164)),.UNSPECIFIED.,.F.,.F.,.U.,(2,2),(2,2),(-0.012471038,0.000128962),(0.,0.004788706),.UNSPECIFIED.);
#166=CARTESIAN_POINT('',(-82.,1.4,16.061294394));
#167=CARTESIAN_POINT('',(-82.,1.4,20.85));
#168=B_SPLINE_CURVE_WITH_KNOTS('',1,(#166,#167),.UNSPECIFIED.,.F.,.F.,(2,2),(-0.002438706,0.00235),.UNSPECIFIED.);
#169=EDGE_CURVE('',#35,#139,#168,.T.);
#170=ORIENTED_EDGE('',*,*,#169,.T.);
#171=ORIENTED_EDGE('',*,*,#156,.F.);
#172=CARTESIAN_POINT('',(-94.6,1.4,16.061294394));
#173=CARTESIAN_POINT('',(-94.6,1.4,20.85));
#174=B_SPLINE_CURVE_WITH_KNOTS('',1,(#172,#173),.UNSPECIFIED.,.F.,.F.,(2,2),(0.,0.004788706),.UNSPECIFIED.);
#175=EDGE_CURVE('',#42,#147,#174,.T.);
#176=ORIENTED_EDGE('',*,*,#175,.F.);
#177=ORIENTED_EDGE('',*,*,#46,.T.);
#178=EDGE_LOOP('',(#170,#171,#176,#177));
#179=FACE_BOUND('',#178,.T.);
#180=ADVANCED_FACE('',(#179),#165,.F.);
#181=CARTESIAN_POINT('',(-82.,1.4,20.85));
#182=CARTESIAN_POINT('',(-82.,9.5,20.85));
#183=CARTESIAN_POINT('',(-82.,1.4,16.061294394));
#184=CARTESIAN_POINT('',(-82.,9.5,16.061294394));
#185=B_SPLINE_SURFACE_WITH_KNOTS('',1,1,((#181,#182),(#183,#184)),.UNSPECIFIED.,.F.,.F.,.U.,(2,2),(2,2),(-0.00235,0.002438706),(-0.00235,0.00575),.UNSPECIFIED.);
#186=CARTESIAN_POINT('',(-82.,5.4,16.805647197));
#187=VERTEX_POINT('',#186);
#188=CARTESIAN_POINT('',(-82.,3.7,18.505647197));
#189=VERTEX_POINT('',#188);
#190=CARTESIAN_POINT('',(-82.,5.4,16.805647197));
#191=CARTESIAN_POINT('',(-82.,3.7,16.805647197));
#192=CARTESIAN_POINT('',(-82.,3.7,18.505647197));
#193=CARTESIAN_POINT('',(-82.,3.7,20.205647197));
#194=CARTESIAN_POINT('',(-82.,5.4,20.205647197));
#195=CARTESIAN_POINT('',(-82.,7.1,20.205647197));
#196=CARTESIAN_POINT('',(-82.,7.1,18.505647197));
#197=CARTESIAN_POINT('',(-82.,7.1,16.805647197));
#198=CARTESIAN_POINT('',(-82.,5.4,16.805647197));
#199=(BOUNDED_CURVE()
B_SPLINE_CURVE(2,(#190,#191,#192,#193,#194,#195,#196,#197,#198),.UNSPECIFIED.,.T.,.F.)
B_SPLINE_CURVE_WITH_KNOTS((3,2,2,2,3),(0.,1.570796327,3.141592654,4.71238898,6.283185307),.UNSPECIFIED.)
CURVE()
GEOMETRIC_REPRESENTATION_ITEM()
RATIONAL_B_SPLINE_CURVE((1.,0.707106781,1.,0.707106781,1.,0.707106781,1.,0.707106781,1.))
REPRESENTATION_ITEM(''));
#200=EDGE_CURVE('',#187,#189,#199,.T.);
#201=ORIENTED_EDGE('',*,*,#200,.T.);
#202=CARTESIAN_POINT('',(-82.,5.4,16.805647197));
#203=CARTESIAN_POINT('',(-82.,3.7,16.805647197));
#204=CARTESIAN_POINT('',(-82.,3.7,18.505647197));
#205=CARTESIAN_POINT('',(-82.,3.7,20.205647197));
#206=CARTESIAN_POINT('',(-82.,5.4,20.205647197));
#207=CARTESIAN_POINT('',(-82.,7.1,20.205647197));
#208=CARTESIAN_POINT('',(-82.,7.1,18.505647197));
#209=CARTESIAN_POINT('',(-82.,7.1,16.805647197));
#210=CARTESIAN_POINT('',(-82.,5.4,16.805647197));
#211=(BOUNDED_CURVE()
B_SPLINE_CURVE(2,(#202,#203,#204,#205,#206,#207,#208,#209,#210),.UNSPECIFIED.,.T.,.F.)
B_SPLINE_CURVE_WITH_KNOTS((3,2,2,2,3),(0.,1.570796327,3.141592654,4.71238898,6.283185307),.UNSPECIFIED.)
CURVE()
GEOMETRIC_REPRESENTATION_ITEM()
RATIONAL_B_SPLINE_CURVE((1.,0.707106781,1.,0.707106781,1.,0.707106781,1.,0.707106781,1.))
REPRESENTATION_ITEM(''));
#212=EDGE_CURVE('',#189,#187,#211,.T.);
#213=ORIENTED_EDGE('',*,*,#212,.T.);
#214=EDGE_LOOP('',(#201,#213));
#215=FACE_BOUND('',#214,.T.);
#216=ORIENTED_EDGE('',*,*,#39,.F.);
#217=ORIENTED_EDGE('',*,*,#73,.F.);
#218=ORIENTED_EDGE('',*,*,#143,.F.);
#219=ORIENTED_EDGE('',*,*,#169,.F.);
#220=EDGE_LOOP('',(#216,#217,#218,#219));
#221=FACE_BOUND('',#220,.T.);
#222=ADVANCED_FACE('',(#215,#221),#185,.T.);
#223=CARTESIAN_POINT('',(-94.6,-5.4,16.05));
#224=CARTESIAN_POINT('',(-94.6,9.5,16.05));
#225=CARTESIAN_POINT('',(-94.6,-5.4,48.45));
#226=CARTESIAN_POINT('',(-94.6,9.5,48.45));
#227=B_SPLINE_SURFACE_WITH_KNOTS('',1,1,((#223,#224),(#225,#226)),.UNSPECIFIED.,.F.,.F.,.U.,(2,2),(2,2),(-0.0162,0.0162),(-0.00745,0.00745),.UNSPECIFIED.);
#228=ORIENTED_EDGE('',*,*,#81,.F.);
#229=ORIENTED_EDGE('',*,*,#53,.T.);
#230=ORIENTED_EDGE('',*,*,#175,.T.);
#231=ORIENTED_EDGE('',*,*,#151,.T.);
#232=ORIENTED_EDGE('',*,*,#123,.F.);
#233=CARTESIAN_POINT('',(-94.6,1.4,43.661294394));
#234=VERTEX_POINT('',#233);
#235=CARTESIAN_POINT('',(-94.6,9.5,43.661294394));
#236=CARTESIAN_POINT('',(-94.6,1.4,43.661294394));
#237=B_SPLINE_CURVE_WITH_KNOTS('',1,(#235,#236),.UNSPECIFIED.,.F.,.F.,(2,2),(0.,0.0081),.UNSPECIFIED.);
#238=EDGE_CURVE('',#112,#234,#237,.T.);
#239=ORIENTED_EDGE('',*,*,#238,.T.);
#240=CARTESIAN_POINT('',(-94.6,1.4,48.45));
#241=VERTEX_POINT('',#240);
#242=CARTESIAN_POINT('',(-94.6,1.4,43.661294394));
#243=CARTESIAN_POINT('',(-94.6,1.4,48.45));
#244=B_SPLINE_CURVE_WITH_KNOTS('',1,(#242,#243),.UNSPECIFIED.,.F.,.F.,(2,2),(0.0001,0.004888706),.UNSPECIFIED.);
#245=EDGE_CURVE('',#234,#241,#244,.T.);
#246=ORIENTED_EDGE('',*,*,#245,.T.);
#247=CARTESIAN_POINT('',(-94.6,-1.2,48.45));
#248=VERTEX_POINT('',#247);
#249=CARTESIAN_POINT('',(-94.6,-1.2,48.45));
#250=CARTESIAN_POINT('',(-94.6,1.4,48.45));
#251=B_SPLINE_CURVE_WITH_KNOTS('',1,(#249,#250),.UNSPECIFIED.,.F.,.F.,(2,2),(0.0042,0.0068),.UNSPECIFIED.);
#252=EDGE_CURVE('',#248,#241,#251,.T.);
#253=ORIENTED_EDGE('',*,*,#252,.F.);
#254=CARTESIAN_POINT('',(-94.6,-1.2,43.65));
#255=VERTEX_POINT('',#254);
#256=CARTESIAN_POINT('',(-94.6,-1.2,48.45));
#257=CARTESIAN_POINT('',(-94.6,-1.2,43.65));
#258=B_SPLINE_CURVE_WITH_KNOTS('',1,(#256,#257),.UNSPECIFIED.,.F.,.F.,(2,2),(0.,0.0048),.UNSPECIFIED.);
#259=EDGE_CURVE('',#248,#255,#258,.T.);
#260=ORIENTED_EDGE('',*,*,#259,.T.);
#261=CARTESIAN_POINT('',(-94.6,-5.4,43.65));
#262=VERTEX_POINT('',#261);
#263=CARTESIAN_POINT('',(-94.6,-1.2,43.65));
#264=CARTESIAN_POINT('',(-94.6,-5.4,43.65));
#265=B_SPLINE_CURVE_WITH_KNOTS('',1,(#263,#264),.UNSPECIFIED.,.F.,.F.,(2,2),(0.0001,0.0043),.UNSPECIFIED.);
#266=EDGE_CURVE('',#255,#262,#265,.T.);
#267=ORIENTED_EDGE('',*,*,#266,.T.);
#268=CARTESIAN_POINT('',(-94.6,-5.4,20.85));
#269=VERTEX_POINT('',#268);
#270=CARTESIAN_POINT('',(-94.6,-5.4,20.85));
#271=CARTESIAN_POINT('',(-94.6,-5.4,43.65));
#272=B_SPLINE_CURVE_WITH_KNOTS('',1,(#270,#271),.UNSPECIFIED.,.F.,.F.,(2,2),(0.0048,0.0276),.UNSPECIFIED.);
#273=EDGE_CURVE('',#269,#262,#272,.T.);
#274=ORIENTED_EDGE('',*,*,#273,.F.);
#275=CARTESIAN_POINT('',(-94.6,-1.2,20.85));
#276=VERTEX_POINT('',#275);
#277=CARTESIAN_POINT('',(-94.6,-5.4,20.85));
#278=CARTESIAN_POINT('',(-94.6,-1.2,20.85));
#279=B_SPLINE_CURVE_WITH_KNOTS('',1,(#277,#278),.UNSPECIFIED.,.F.,.F.,(2,2),(0.,0.0042),.UNSPECIFIED.);
#280=EDGE_CURVE('',#269,#276,#279,.T.);
#281=ORIENTED_EDGE('',*,*,#280,.T.);
#282=CARTESIAN_POINT('',(-94.6,-1.2,16.05));
#283=VERTEX_POINT('',#282);
#284=CARTESIAN_POINT('',(-94.6,-1.2,20.85));
#285=CARTESIAN_POINT('',(-94.6,-1.2,16.05));
#286=B_SPLINE_CURVE_WITH_KNOTS('',1,(#284,#285),.UNSPECIFIED.,.F.,.F.,(2,2),(0.0001,0.0049),.UNSPECIFIED.);
#287=EDGE_CURVE('',#276,#283,#286,.T.);
#288=ORIENTED_EDGE('',*,*,#287,.T.);
#289=CARTESIAN_POINT('',(-94.6,9.5,16.05));
#290=CARTESIAN_POINT('',(-94.6,-1.2,16.05));
#291=B_SPLINE_CURVE_WITH_KNOTS('',1,(#289,#290),.UNSPECIFIED.,.F.,.F.,(2,2),(0.,0.0107),.UNSPECIFIED.);
#292=EDGE_CURVE('',#77,#283,#291,.T.);
#293=ORIENTED_EDGE('',*,*,#292,.F.);
#294=EDGE_LOOP('',(#228,#229,#230,#231,#232,#239,#246,#253,#260,#267,#274,#281,#288,#293));
#295=FACE_BOUND('',#294,.T.);
#296=ADVANCED_FACE('',(#295),#227,.F.);
#297=CARTESIAN_POINT('',(-94.6,-1.2,16.05));
#298=CARTESIAN_POINT('',(-94.6,-1.2,20.85));
#299=CARTESIAN_POINT('',(-88.,-1.2,16.05));
#300=CARTESIAN_POINT('',(-88.,-1.2,20.85));
#301=B_SPLINE_SURFACE_WITH_KNOTS('',1,1,((#297,#298),(#299,#300)),.UNSPECIFIED.,.F.,.F.,.U.,(2,2),(2,2),(-0.000128962,0.006471038),(-0.0049,-0.0001),.UNSPECIFIED.);
#302=CARTESIAN_POINT('',(-88.,-1.2,20.85));
#303=VERTEX_POINT('',#302);
#304=CARTESIAN_POINT('',(-88.,-1.2,16.05));
#305=VERTEX_POINT('',#304);
#306=CARTESIAN_POINT('',(-88.,-1.2,20.85));
#307=CARTESIAN_POINT('',(-88.,-1.2,16.05));
#308=B_SPLINE_CURVE_WITH_KNOTS('',1,(#306,#307),.UNSPECIFIED.,.F.,.F.,(2,2),(-0.00235,0.00245),.UNSPECIFIED.);
#309=EDGE_CURVE('',#303,#305,#308,.T.);
#310=ORIENTED_EDGE('',*,*,#309,.T.);
#311=CARTESIAN_POINT('',(-94.6,-1.2,16.05));
#312=CARTESIAN_POINT('',(-88.,-1.2,16.05));
#313=B_SPLINE_CURVE_WITH_KNOTS('',1,(#311,#312),.UNSPECIFIED.,.F.,.F.,(2,2),(-0.000128962,0.006471038),.UNSPECIFIED.);
#314=EDGE_CURVE('',#283,#305,#313,.T.);
#315=ORIENTED_EDGE('',*,*,#314,.F.);
#316=ORIENTED_EDGE('',*,*,#287,.F.);
#317=CARTESIAN_POINT('',(-94.6,-1.2,20.85));
#318=CARTESIAN_POINT('',(-88.,-1.2,20.85));
#319=B_SPLINE_CURVE_WITH_KNOTS('',1,(#317,#318),.UNSPECIFIED.,.F.,.F.,(2,2),(-0.000128962,0.006471038),.UNSPECIFIED.);
#320=EDGE_CURVE('',#276,#303,#319,.T.);
#321=ORIENTED_EDGE('',*,*,#320,.T.);
#322=EDGE_LOOP('',(#310,#315,#316,#321));
#323=FACE_BOUND('',#322,.T.);
#324=ADVANCED_FACE('',(#323),#301,.F.);
#325=CARTESIAN_POINT('',(-88.,-5.4,20.85));
#326=CARTESIAN_POINT('',(-88.,-1.2,20.85));
#327=CARTESIAN_POINT('',(-94.6,-5.4,20.85));
#328=CARTESIAN_POINT('',(-94.6,-1.2,20.85));
#329=B_SPLINE_SURFACE_WITH_KNOTS('',1,1,((#325,#326),(#327,#328)),.UNSPECIFIED.,.F.,.F.,.U.,(2,2),(2,2),(-0.006471038,0.000128962),(0.,0.0042),.UNSPECIFIED.);
#330=CARTESIAN_POINT('',(-88.,-5.4,20.85));
#331=VERTEX_POINT('',#330);
#332=CARTESIAN_POINT('',(-88.,-5.4,20.85));
#333=CARTESIAN_POINT('',(-88.,-1.2,20.85));
#334=B_SPLINE_CURVE_WITH_KNOTS('',1,(#332,#333),.UNSPECIFIED.,.F.,.F.,(2,2),(-0.00915,-0.00495),.UNSPECIFIED.);
#335=EDGE_CURVE('',#331,#303,#334,.T.);
#336=ORIENTED_EDGE('',*,*,#335,.T.);
#337=ORIENTED_EDGE('',*,*,#320,.F.);
#338=ORIENTED_EDGE('',*,*,#280,.F.);
#339=CARTESIAN_POINT('',(-94.6,-5.4,20.85));
#340=CARTESIAN_POINT('',(-88.,-5.4,20.85));
#341=B_SPLINE_CURVE_WITH_KNOTS('',1,(#339,#340),.UNSPECIFIED.,.F.,.F.,(2,2),(-0.000128962,0.006471038),.UNSPECIFIED.);
#342=EDGE_CURVE('',#269,#331,#341,.T.);
#343=ORIENTED_EDGE('',*,*,#342,.T.);
#344=EDGE_LOOP('',(#336,#337,#338,#343));
#345=FACE_BOUND('',#344,.T.);
#346=ADVANCED_FACE('',(#345),#329,.F.);
#347=CARTESIAN_POINT('',(-88.,-5.4,16.05));
#348=CARTESIAN_POINT('',(-88.,-5.4,48.45));
#349=CARTESIAN_POINT('',(-96.6,-5.4,16.05));
#350=CARTESIAN_POINT('',(-96.6,-5.4,48.45));
#351=B_SPLINE_SURFACE_WITH_KNOTS('',1,1,((#347,#348),(#349,#350)),.UNSPECIFIED.,.F.,.F.,.U.,(2,2),(2,2),(-0.006471038,0.002128962),(0.,0.0324),.UNSPECIFIED.);
#352=CARTESIAN_POINT('',(-88.,-5.4,16.05));
#353=VERTEX_POINT('',#352);
#354=CARTESIAN_POINT('',(-88.,-5.4,16.05));
#355=CARTESIAN_POINT('',(-88.,-5.4,20.85));
#356=B_SPLINE_CURVE_WITH_KNOTS('',1,(#354,#355),.UNSPECIFIED.,.F.,.F.,(2,2),(-0.00245,0.00235),.UNSPECIFIED.);
#357=EDGE_CURVE('',#353,#331,#356,.T.);
#358=ORIENTED_EDGE('',*,*,#357,.T.);
#359=ORIENTED_EDGE('',*,*,#342,.F.);
#360=ORIENTED_EDGE('',*,*,#273,.T.);
#361=CARTESIAN_POINT('',(-88.,-5.4,43.65));
#362=VERTEX_POINT('',#361);
#363=CARTESIAN_POINT('',(-94.6,-5.4,43.65));
#364=CARTESIAN_POINT('',(-88.,-5.4,43.65));
#365=B_SPLINE_CURVE_WITH_KNOTS('',1,(#363,#364),.UNSPECIFIED.,.F.,.F.,(2,2),(-0.000128962,0.006471038),.UNSPECIFIED.);
#366=EDGE_CURVE('',#262,#362,#365,.T.);
#367=ORIENTED_EDGE('',*,*,#366,.T.);
#368=CARTESIAN_POINT('',(-88.,-5.4,48.45));
#369=VERTEX_POINT('',#368);
#370=CARTESIAN_POINT('',(-88.,-5.4,43.65));
#371=CARTESIAN_POINT('',(-88.,-5.4,48.45));
#372=B_SPLINE_CURVE_WITH_KNOTS('',1,(#370,#371),.UNSPECIFIED.,.F.,.F.,(2,2),(-0.00235,0.00245),.UNSPECIFIED.);
#373=EDGE_CURVE('',#362,#369,#372,.T.);
#374=ORIENTED_EDGE('',*,*,#373,.T.);
#375=CARTESIAN_POINT('',(-96.6,-5.4,48.45));
#376=VERTEX_POINT('',#375);
#377=CARTESIAN_POINT('',(-96.6,-5.4,48.45));
#378=CARTESIAN_POINT('',(-88.,-5.4,48.45));
#379=B_SPLINE_CURVE_WITH_KNOTS('',1,(#377,#378),.UNSPECIFIED.,.F.,.F.,(2,2),(0.,0.0086),.UNSPECIFIED.);
#380=EDGE_CURVE('',#376,#369,#379,.T.);
#381=ORIENTED_EDGE('',*,*,#380,.F.);
#382=CARTESIAN_POINT('',(-96.6,-5.4,16.05));
#383=VERTEX_POINT('',#382);
#384=CARTESIAN_POINT('',(-96.6,-5.4,16.05));
#385=CARTESIAN_POINT('',(-96.6,-5.4,48.45));
#386=B_SPLINE_CURVE_WITH_KNOTS('',1,(#384,#385),.UNSPECIFIED.,.F.,.F.,(2,2),(0.,0.0324),.UNSPECIFIED.);
#387=EDGE_CURVE('',#383,#376,#386,.T.);
#388=ORIENTED_EDGE('',*,*,#387,.F.);
#389=CARTESIAN_POINT('',(-96.6,-5.4,16.05));
#390=CARTESIAN_POINT('',(-88.,-5.4,16.05));
#391=B_SPLINE_CURVE_WITH_KNOTS('',1,(#389,#390),.UNSPECIFIED.,.F.,.F.,(2,2),(-0.002128962,0.006471038),.UNSPECIFIED.);
#392=EDGE_CURVE('',#383,#353,#391,.T.);
#393=ORIENTED_EDGE('',*,*,#392,.T.);
#394=EDGE_LOOP('',(#358,#359,#360,#367,#374,#381,#388,#393));
#395=FACE_BOUND('',#394,.T.);
#396=ADVANCED_FACE('',(#395),#351,.F.);
#397=CARTESIAN_POINT('',(-96.6,-5.4,16.05));
#398=CARTESIAN_POINT('',(-96.6,9.5,16.05));
#399=CARTESIAN_POINT('',(-88.,-5.4,16.05));
#400=CARTESIAN_POINT('',(-88.,9.5,16.05));
#401=B_SPLINE_SURFACE_WITH_KNOTS('',1,1,((#397,#398),(#399,#400)),.UNSPECIFIED.,.F.,.F.,.U.,(2,2),(2,2),(-0.002128962,0.006471038),(-0.0043,0.0106),.UNSPECIFIED.);
#402=CARTESIAN_POINT('',(-88.,-1.2,16.05));
#403=CARTESIAN_POINT('',(-88.,-5.4,16.05));
#404=B_SPLINE_CURVE_WITH_KNOTS('',1,(#402,#403),.UNSPECIFIED.,.F.,.F.,(2,2),(0.00495,0.00915),.UNSPECIFIED.);
#405=EDGE_CURVE('',#305,#353,#404,.T.);
#406=ORIENTED_EDGE('',*,*,#405,.T.);
#407=ORIENTED_EDGE('',*,*,#392,.F.);
#408=CARTESIAN_POINT('',(-96.6,9.5,16.05));
#409=CARTESIAN_POINT('',(-96.6,-5.4,16.05));
#410=B_SPLINE_CURVE_WITH_KNOTS('',1,(#408,#409),.UNSPECIFIED.,.F.,.F.,(2,2),(0.,0.0149),.UNSPECIFIED.);
#411=EDGE_CURVE('',#84,#383,#410,.T.);
#412=ORIENTED_EDGE('',*,*,#411,.F.);
#413=ORIENTED_EDGE('',*,*,#88,.T.);
#414=ORIENTED_EDGE('',*,*,#292,.T.);
#415=ORIENTED_EDGE('',*,*,#314,.T.);
#416=EDGE_LOOP('',(#406,#407,#412,#413,#414,#415));
#417=FACE_BOUND('',#416,.T.);
#418=ADVANCED_FACE('',(#417),#401,.F.);
#419=CARTESIAN_POINT('',(-88.,-5.4,20.85));
#420=CARTESIAN_POINT('',(-88.,-1.2,20.85));
#421=CARTESIAN_POINT('',(-88.,-5.4,16.05));
#422=CARTESIAN_POINT('',(-88.,-1.2,16.05));
#423=B_SPLINE_SURFACE_WITH_KNOTS('',1,1,((#419,#420),(#421,#422)),.UNSPECIFIED.,.F.,.F.,.U.,(2,2),(2,2),(-0.00235,0.00245),(-0.00915,-0.00495),.UNSPECIFIED.);
#424=ORIENTED_EDGE('',*,*,#309,.F.);
#425=ORIENTED_EDGE('',*,*,#335,.F.);
#426=ORIENTED_EDGE('',*,*,#357,.F.);
#427=ORIENTED_EDGE('',*,*,#405,.F.);
#428=EDGE_LOOP('',(#424,#425,#426,#427));
#429=FACE_BOUND('',#428,.T.);
#430=ADVANCED_FACE('',(#429),#423,.T.);
#431=CARTESIAN_POINT('',(-82.,-5.4,48.45));
#432=CARTESIAN_POINT('',(-82.,9.5,48.45));
#433=CARTESIAN_POINT('',(-96.6,-5.4,48.45));
#434=CARTESIAN_POINT('',(-96.6,9.5,48.45));
#435=B_SPLINE_SURFACE_WITH_KNOTS('',1,1,((#431,#432),(#433,#434)),.UNSPECIFIED.,.F.,.F.,.U.,(2,2),(2,2),(-0.0146,0.),(-0.,0.0149),.UNSPECIFIED.);
#436=ORIENTED_EDGE('',*,*,#380,.T.);
#437=CARTESIAN_POINT('',(-88.,-1.2,48.45));
#438=VERTEX_POINT('',#437);
#439=CARTESIAN_POINT('',(-88.,-5.4,48.45));
#440=CARTESIAN_POINT('',(-88.,-1.2,48.45));
#441=B_SPLINE_CURVE_WITH_KNOTS('',1,(#439,#440),.UNSPECIFIED.,.F.,.F.,(2,2),(-0.00915,-0.00495),.UNSPECIFIED.);
#442=EDGE_CURVE('',#369,#438,#441,.T.);
#443=ORIENTED_EDGE('',*,*,#442,.T.);
#444=CARTESIAN_POINT('',(-94.6,-1.2,48.45));
#445=CARTESIAN_POINT('',(-88.,-1.2,48.45));
#446=B_SPLINE_CURVE_WITH_KNOTS('',1,(#444,#445),.UNSPECIFIED.,.F.,.F.,(2,2),(-0.000128962,0.006471038),.UNSPECIFIED.);
#447=EDGE_CURVE('',#248,#438,#446,.T.);
#448=ORIENTED_EDGE('',*,*,#447,.F.);
#449=ORIENTED_EDGE('',*,*,#252,.T.);
#450=CARTESIAN_POINT('',(-82.,1.4,48.45));
#451=VERTEX_POINT('',#450);
#452=CARTESIAN_POINT('',(-94.6,1.4,48.45));
#453=CARTESIAN_POINT('',(-82.,1.4,48.45));
#454=B_SPLINE_CURVE_WITH_KNOTS('',1,(#452,#453),.UNSPECIFIED.,.F.,.F.,(2,2),(0.002,0.0146),.UNSPECIFIED.);
#455=EDGE_CURVE('',#241,#451,#454,.T.);
#456=ORIENTED_EDGE('',*,*,#455,.T.);
#457=CARTESIAN_POINT('',(-82.,1.4,48.45));
#458=CARTESIAN_POINT('',(-82.,9.5,48.45));
#459=B_SPLINE_CURVE_WITH_KNOTS('',1,(#457,#458),.UNSPECIFIED.,.F.,.F.,(2,2),(-0.00235,0.00575),.UNSPECIFIED.);
#460=EDGE_CURVE('',#451,#98,#459,.T.);
#461=ORIENTED_EDGE('',*,*,#460,.T.);
#462=ORIENTED_EDGE('',*,*,#102,.F.);
#463=CARTESIAN_POINT('',(-96.6,-5.4,48.45));
#464=CARTESIAN_POINT('',(-96.6,9.5,48.45));
#465=B_SPLINE_CURVE_WITH_KNOTS('',1,(#463,#464),.UNSPECIFIED.,.F.,.F.,(2,2),(0.,0.0149),.UNSPECIFIED.);
#466=EDGE_CURVE('',#376,#91,#465,.T.);
#467=ORIENTED_EDGE('',*,*,#466,.F.);
#468=EDGE_LOOP('',(#436,#443,#448,#449,#456,#461,#462,#467));
#469=FACE_BOUND('',#468,.T.);
#470=ADVANCED_FACE('',(#469),#435,.F.);
#471=CARTESIAN_POINT('',(-96.6,-5.4,16.05));
#472=CARTESIAN_POINT('',(-96.6,9.5,16.05));
#473=CARTESIAN_POINT('',(-96.6,-5.4,48.471504509));
#474=CARTESIAN_POINT('',(-96.6,9.5,48.471504509));
#475=B_SPLINE_SURFACE_WITH_KNOTS('',1,1,((#471,#472),(#473,#474)),.UNSPECIFIED.,.F.,.F.,.U.,(2,2),(2,2),(-0.0162,0.016221505),(-0.00745,0.00745),.UNSPECIFIED.);
#476=CARTESIAN_POINT('',(-96.6,6.609456187,19.700308542));
#477=VERTEX_POINT('',#476);
#478=CARTESIAN_POINT('',(-96.6,3.7,18.505647197));
#479=VERTEX_POINT('',#478);
#480=CARTESIAN_POINT('',(-96.6,6.609456187,19.700308542));
#481=CARTESIAN_POINT('',(-96.6,5.414794842,20.90976473));
#482=CARTESIAN_POINT('',(-96.6,4.205338654,19.715103384));
#483=CARTESIAN_POINT('',(-96.6,2.995882467,18.520442039));
#484=CARTESIAN_POINT('',(-96.6,4.190543813,17.310985851));
#485=CARTESIAN_POINT('',(-96.6,5.385205158,16.101529664));
#486=CARTESIAN_POINT('',(-96.6,6.594661346,17.296191009));
#487=CARTESIAN_POINT('',(-96.6,7.804117533,18.490852355));
#488=CARTESIAN_POINT('',(-96.6,6.609456187,19.700308542));
#489=(BOUNDED_CURVE()
B_SPLINE_CURVE(2,(#480,#481,#482,#483,#484,#485,#486,#487,#488),.UNSPECIFIED.,.T.,.F.)
B_SPLINE_CURVE_WITH_KNOTS((3,2,2,2,3),(0.,1.570796327,3.141592654,4.71238898,6.283185307),.UNSPECIFIED.)
CURVE()
GEOMETRIC_REPRESENTATION_ITEM()
RATIONAL_B_SPLINE_CURVE((1.,0.707106781,1.,0.707106781,1.,0.707106781,1.,0.707106781,1.))
REPRESENTATION_ITEM(''));
#490=EDGE_CURVE('',#477,#479,#489,.T.);
#491=ORIENTED_EDGE('',*,*,#490,.T.);
#492=CARTESIAN_POINT('',(-96.6,6.609456187,19.700308542));
#493=CARTESIAN_POINT('',(-96.6,5.414794842,20.90976473));
#494=CARTESIAN_POINT('',(-96.6,4.205338654,19.715103384));
#495=CARTESIAN_POINT('',(-96.6,2.995882467,18.520442039));
#496=CARTESIAN_POINT('',(-96.6,4.190543813,17.310985851));
#497=CARTESIAN_POINT('',(-96.6,5.385205158,16.101529664));
#498=CARTESIAN_POINT('',(-96.6,6.594661346,17.296191009));
#499=CARTESIAN_POINT('',(-96.6,7.804117533,18.490852355));
#500=CARTESIAN_POINT('',(-96.6,6.609456187,19.700308542));
#501=(BOUNDED_CURVE()
B_SPLINE_CURVE(2,(#492,#493,#494,#495,#496,#497,#498,#499,#500),.UNSPECIFIED.,.T.,.F.)
B_SPLINE_CURVE_WITH_KNOTS((3,2,2,2,3),(0.,1.570796327,3.141592654,4.71238898,6.283185307),.UNSPECIFIED.)
CURVE()
GEOMETRIC_REPRESENTATION_ITEM()
RATIONAL_B_SPLINE_CURVE((1.,0.707106781,1.,0.707106781,1.,0.707106781,1.,0.707106781,1.))
REPRESENTATION_ITEM(''));
#502=EDGE_CURVE('',#479,#477,#501,.T.);
#503=ORIENTED_EDGE('',*,*,#502,.T.);
#504=EDGE_LOOP('',(#491,#503));
#505=FACE_BOUND('',#504,.T.);
#506=CARTESIAN_POINT('',(-96.6,4.061539696,47.133044205));
#507=VERTEX_POINT('',#506);
#508=CARTESIAN_POINT('',(-96.6,3.65,46.005647197));
#509=VERTEX_POINT('',#508);
#510=CARTESIAN_POINT('',(-96.6,4.061539696,47.133044205));
#511=CARTESIAN_POINT('',(-96.6,2.934142688,45.794583901));
#512=CARTESIAN_POINT('',(-96.6,4.272602992,44.667186893));
#513=CARTESIAN_POINT('',(-96.6,5.611063296,43.539789884));
#514=CARTESIAN_POINT('',(-96.6,6.738460304,44.878250188));
#515=CARTESIAN_POINT('',(-96.6,7.865857312,46.216710493));
#516=CARTESIAN_POINT('',(-96.6,6.527397008,47.344107501));
#517=CARTESIAN_POINT('',(-96.6,5.188936704,48.471504509));
#518=CARTESIAN_POINT('',(-96.6,4.061539696,47.133044205));
#519=(BOUNDED_CURVE()
B_SPLINE_CURVE(2,(#510,#511,#512,#513,#514,#515,#516,#517,#518),.UNSPECIFIED.,.T.,.F.)
B_SPLINE_CURVE_WITH_KNOTS((3,2,2,2,3),(0.,1.570796327,3.141592654,4.71238898,6.283185307),.UNSPECIFIED.)
CURVE()
GEOMETRIC_REPRESENTATION_ITEM()
RATIONAL_B_SPLINE_CURVE((1.,0.707106781,1.,0.707106781,1.,0.707106781,1.,0.707106781,1.))
REPRESENTATION_ITEM(''));
#520=EDGE_CURVE('',#507,#509,#519,.T.);
#521=ORIENTED_EDGE('',*,*,#520,.T.);
#522=CARTESIAN_POINT('',(-96.6,4.061539696,47.133044205));
#523=CARTESIAN_POINT('',(-96.6,2.934142688,45.794583901));
#524=CARTESIAN_POINT('',(-96.6,4.272602992,44.667186893));
#525=CARTESIAN_POINT('',(-96.6,5.611063296,43.539789884));
#526=CARTESIAN_POINT('',(-96.6,6.738460304,44.878250188));
#527=CARTESIAN_POINT('',(-96.6,7.865857312,46.216710493));
#528=CARTESIAN_POINT('',(-96.6,6.527397008,47.344107501));
#529=CARTESIAN_POINT('',(-96.6,5.188936704,48.471504509));
#530=CARTESIAN_POINT('',(-96.6,4.061539696,47.133044205));
#531=(BOUNDED_CURVE()
B_SPLINE_CURVE(2,(#522,#523,#524,#525,#526,#527,#528,#529,#530),.UNSPECIFIED.,.T.,.F.)
B_SPLINE_CURVE_WITH_KNOTS((3,2,2,2,3),(0.,1.570796327,3.141592654,4.71238898,6.283185307),.UNSPECIFIED.)
CURVE()
GEOMETRIC_REPRESENTATION_ITEM()
RATIONAL_B_SPLINE_CURVE((1.,0.707106781,1.,0.707106781,1.,0.707106781,1.,0.707106781,1.))
REPRESENTATION_ITEM(''));
#532=EDGE_CURVE('',#509,#507,#531,.T.);
#533=ORIENTED_EDGE('',*,*,#532,.T.);
#534=EDGE_LOOP('',(#521,#533));
#535=FACE_BOUND('',#534,.T.);
#536=ORIENTED_EDGE('',*,*,#387,.T.);
#537=ORIENTED_EDGE('',*,*,#466,.T.);
#538=ORIENTED_EDGE('',*,*,#95,.T.);
#539=ORIENTED_EDGE('',*,*,#411,.T.);
#540=EDGE_LOOP('',(#536,#537,#538,#539));
#541=FACE_BOUND('',#540,.T.);
#542=ADVANCED_FACE('',(#505,#535,#541),#475,.T.);
#543=CARTESIAN_POINT('',(-94.6,1.4,43.661294394));
#544=CARTESIAN_POINT('',(-94.6,9.5,43.661294394));
#545=CARTESIAN_POINT('',(-82.,1.4,43.661294394));
#546=CARTESIAN_POINT('',(-82.,9.5,43.661294394));
#547=B_SPLINE_SURFACE_WITH_KNOTS('',1,1,((#543,#544),(#545,#546)),.UNSPECIFIED.,.F.,.F.,.U.,(2,2),(2,2),(-0.000128962,0.012471038),(-0.0081,0.),.UNSPECIFIED.);
#548=CARTESIAN_POINT('',(-82.,1.4,43.661294394));
#549=VERTEX_POINT('',#548);
#550=CARTESIAN_POINT('',(-82.,9.5,43.661294394));
#551=CARTESIAN_POINT('',(-82.,1.4,43.661294394));
#552=B_SPLINE_CURVE_WITH_KNOTS('',1,(#550,#551),.UNSPECIFIED.,.F.,.F.,(2,2),(-0.00575,0.00235),.UNSPECIFIED.);
#553=EDGE_CURVE('',#105,#549,#552,.T.);
#554=ORIENTED_EDGE('',*,*,#553,.T.);
#555=CARTESIAN_POINT('',(-94.6,1.4,43.661294394));
#556=CARTESIAN_POINT('',(-82.,1.4,43.661294394));
#557=B_SPLINE_CURVE_WITH_KNOTS('',1,(#555,#556),.UNSPECIFIED.,.F.,.F.,(2,2),(-0.000128962,0.012471038),.UNSPECIFIED.);
#558=EDGE_CURVE('',#234,#549,#557,.T.);
#559=ORIENTED_EDGE('',*,*,#558,.F.);
#560=ORIENTED_EDGE('',*,*,#238,.F.);
#561=ORIENTED_EDGE('',*,*,#116,.T.);
#562=EDGE_LOOP('',(#554,#559,#560,#561));
#563=FACE_BOUND('',#562,.T.);
#564=ADVANCED_FACE('',(#563),#547,.F.);
#565=CARTESIAN_POINT('',(-82.,1.4,43.661294394));
#566=CARTESIAN_POINT('',(-82.,1.4,48.45));
#567=CARTESIAN_POINT('',(-94.6,1.4,43.661294394));
#568=CARTESIAN_POINT('',(-94.6,1.4,48.45));
#569=B_SPLINE_SURFACE_WITH_KNOTS('',1,1,((#565,#566),(#567,#568)),.UNSPECIFIED.,.F.,.F.,.U.,(2,2),(2,2),(-0.012471038,0.000128962),(0.0001,0.004888706),.UNSPECIFIED.);
#570=CARTESIAN_POINT('',(-82.,1.4,43.661294394));
#571=CARTESIAN_POINT('',(-82.,1.4,48.45));
#572=B_SPLINE_CURVE_WITH_KNOTS('',1,(#570,#571),.UNSPECIFIED.,.F.,.F.,(2,2),(-0.002338706,0.00245),.UNSPECIFIED.);
#573=EDGE_CURVE('',#549,#451,#572,.T.);
#574=ORIENTED_EDGE('',*,*,#573,.T.);
#575=ORIENTED_EDGE('',*,*,#455,.F.);
#576=ORIENTED_EDGE('',*,*,#245,.F.);
#577=ORIENTED_EDGE('',*,*,#558,.T.);
#578=EDGE_LOOP('',(#574,#575,#576,#577));
#579=FACE_BOUND('',#578,.T.);
#580=ADVANCED_FACE('',(#579),#569,.F.);
#581=CARTESIAN_POINT('',(-82.,1.4,48.45));
#582=CARTESIAN_POINT('',(-82.,9.5,48.45));
#583=CARTESIAN_POINT('',(-82.,1.4,43.661294394));
#584=CARTESIAN_POINT('',(-82.,9.5,43.661294394));
#585=B_SPLINE_SURFACE_WITH_KNOTS('',1,1,((#581,#582),(#583,#584)),.UNSPECIFIED.,.F.,.F.,.U.,(2,2),(2,2),(-0.00245,0.002338706),(-0.00235,0.00575),.UNSPECIFIED.);
#586=CARTESIAN_POINT('',(-82.,5.4,44.255647197));
#587=VERTEX_POINT('',#586);
#588=CARTESIAN_POINT('',(-82.,3.65,46.005647197));
#589=VERTEX_POINT('',#588);
#590=CARTESIAN_POINT('',(-82.,5.4,44.255647197));
#591=CARTESIAN_POINT('',(-82.,3.65,44.255647197));
#592=CARTESIAN_POINT('',(-82.,3.65,46.005647197));
#593=CARTESIAN_POINT('',(-82.,3.65,47.755647197));
#594=CARTESIAN_POINT('',(-82.,5.4,47.755647197));
#595=CARTESIAN_POINT('',(-82.,7.15,47.755647197));
#596=CARTESIAN_POINT('',(-82.,7.15,46.005647197));
#597=CARTESIAN_POINT('',(-82.,7.15,44.255647197));
#598=CARTESIAN_POINT('',(-82.,5.4,44.255647197));
#599=(BOUNDED_CURVE()
B_SPLINE_CURVE(2,(#590,#591,#592,#593,#594,#595,#596,#597,#598),.UNSPECIFIED.,.T.,.F.)
B_SPLINE_CURVE_WITH_KNOTS((3,2,2,2,3),(0.,1.570796327,3.141592654,4.71238898,6.283185307),.UNSPECIFIED.)
CURVE()
GEOMETRIC_REPRESENTATION_ITEM()
RATIONAL_B_SPLINE_CURVE((1.,0.707106781,1.,0.707106781,1.,0.707106781,1.,0.707106781,1.))
REPRESENTATION_ITEM(''));
#600=EDGE_CURVE('',#587,#589,#599,.T.);
#601=ORIENTED_EDGE('',*,*,#600,.T.);
#602=CARTESIAN_POINT('',(-82.,5.4,44.255647197));
#603=CARTESIAN_POINT('',(-82.,3.65,44.255647197));
#604=CARTESIAN_POINT('',(-82.,3.65,46.005647197));
#605=CARTESIAN_POINT('',(-82.,3.65,47.755647197));
#606=CARTESIAN_POINT('',(-82.,5.4,47.755647197));
#607=CARTESIAN_POINT('',(-82.,7.15,47.755647197));
#608=CARTESIAN_POINT('',(-82.,7.15,46.005647197));
#609=CARTESIAN_POINT('',(-82.,7.15,44.255647197));
#610=CARTESIAN_POINT('',(-82.,5.4,44.255647197));
#611=(BOUNDED_CURVE()
B_SPLINE_CURVE(2,(#602,#603,#604,#605,#606,#607,#608,#609,#610),.UNSPECIFIED.,.T.,.F.)
B_SPLINE_CURVE_WITH_KNOTS((3,2,2,2,3),(0.,1.570796327,3.141592654,4.71238898,6.283185307),.UNSPECIFIED.)
CURVE()
GEOMETRIC_REPRESENTATION_ITEM()
RATIONAL_B_SPLINE_CURVE((1.,0.707106781,1.,0.707106781,1.,0.707106781,1.,0.707106781,1.))
REPRESENTATION_ITEM(''));
#612=EDGE_CURVE('',#589,#587,#611,.T.);
#613=ORIENTED_EDGE('',*,*,#612,.T.);
#614=EDGE_LOOP('',(#601,#613));
#615=FACE_BOUND('',#614,.T.);
#616=ORIENTED_EDGE('',*,*,#553,.F.);
#617=ORIENTED_EDGE('',*,*,#109,.F.);
#618=ORIENTED_EDGE('',*,*,#460,.F.);
#619=ORIENTED_EDGE('',*,*,#573,.F.);
#620=EDGE_LOOP('',(#616,#617,#618,#619));
#621=FACE_BOUND('',#620,.T.);
#622=ADVANCED_FACE('',(#615,#621),#585,.T.);
#623=CARTESIAN_POINT('',(-94.6,-1.2,43.65));
#624=CARTESIAN_POINT('',(-94.6,-1.2,48.45));
#625=CARTESIAN_POINT('',(-88.,-1.2,43.65));
#626=CARTESIAN_POINT('',(-88.,-1.2,48.45));
#627=B_SPLINE_SURFACE_WITH_KNOTS('',1,1,((#623,#624),(#625,#626)),.UNSPECIFIED.,.F.,.F.,.U.,(2,2),(2,2),(-0.000128962,0.006471038),(-0.0048,0.),.UNSPECIFIED.);
#628=CARTESIAN_POINT('',(-88.,-1.2,43.65));
#629=VERTEX_POINT('',#628);
#630=CARTESIAN_POINT('',(-88.,-1.2,48.45));
#631=CARTESIAN_POINT('',(-88.,-1.2,43.65));
#632=B_SPLINE_CURVE_WITH_KNOTS('',1,(#630,#631),.UNSPECIFIED.,.F.,.F.,(2,2),(-0.00245,0.00235),.UNSPECIFIED.);
#633=EDGE_CURVE('',#438,#629,#632,.T.);
#634=ORIENTED_EDGE('',*,*,#633,.T.);
#635=CARTESIAN_POINT('',(-94.6,-1.2,43.65));
#636=CARTESIAN_POINT('',(-88.,-1.2,43.65));
#637=B_SPLINE_CURVE_WITH_KNOTS('',1,(#635,#636),.UNSPECIFIED.,.F.,.F.,(2,2),(-0.000128962,0.006471038),.UNSPECIFIED.);
#638=EDGE_CURVE('',#255,#629,#637,.T.);
#639=ORIENTED_EDGE('',*,*,#638,.F.);
#640=ORIENTED_EDGE('',*,*,#259,.F.);
#641=ORIENTED_EDGE('',*,*,#447,.T.);
#642=EDGE_LOOP('',(#634,#639,#640,#641));
#643=FACE_BOUND('',#642,.T.);
#644=ADVANCED_FACE('',(#643),#627,.F.);
#645=CARTESIAN_POINT('',(-94.6,-5.4,43.65));
#646=CARTESIAN_POINT('',(-94.6,-1.2,43.65));
#647=CARTESIAN_POINT('',(-88.,-5.4,43.65));
#648=CARTESIAN_POINT('',(-88.,-1.2,43.65));
#649=B_SPLINE_SURFACE_WITH_KNOTS('',1,1,((#645,#646),(#647,#648)),.UNSPECIFIED.,.F.,.F.,.U.,(2,2),(2,2),(-0.000128962,0.006471038),(-0.0043,-0.0001),.UNSPECIFIED.);
#650=CARTESIAN_POINT('',(-88.,-1.2,43.65));
#651=CARTESIAN_POINT('',(-88.,-5.4,43.65));
#652=B_SPLINE_CURVE_WITH_KNOTS('',1,(#650,#651),.UNSPECIFIED.,.F.,.F.,(2,2),(0.00495,0.00915),.UNSPECIFIED.);
#653=EDGE_CURVE('',#629,#362,#652,.T.);
#654=ORIENTED_EDGE('',*,*,#653,.T.);
#655=ORIENTED_EDGE('',*,*,#366,.F.);
#656=ORIENTED_EDGE('',*,*,#266,.F.);
#657=ORIENTED_EDGE('',*,*,#638,.T.);
#658=EDGE_LOOP('',(#654,#655,#656,#657));
#659=FACE_BOUND('',#658,.T.);
#660=ADVANCED_FACE('',(#659),#649,.F.);
#661=CARTESIAN_POINT('',(-88.,-5.4,48.45));
#662=CARTESIAN_POINT('',(-88.,-1.2,48.45));
#663=CARTESIAN_POINT('',(-88.,-5.4,43.65));
#664=CARTESIAN_POINT('',(-88.,-1.2,43.65));
#665=B_SPLINE_SURFACE_WITH_KNOTS('',1,1,((#661,#662),(#663,#664)),.UNSPECIFIED.,.F.,.F.,.U.,(2,2),(2,2),(-0.00245,0.00235),(-0.00915,-0.00495),.UNSPECIFIED.);
#666=ORIENTED_EDGE('',*,*,#633,.F.);
#667=ORIENTED_EDGE('',*,*,#442,.F.);
#668=ORIENTED_EDGE('',*,*,#373,.F.);
#669=ORIENTED_EDGE('',*,*,#653,.F.);
#670=EDGE_LOOP('',(#666,#667,#668,#669));
#671=FACE_BOUND('',#670,.T.);
#672=ADVANCED_FACE('',(#671),#665,.T.);
#673=CARTESIAN_POINT('',(-82.,3.65,46.005647197));
#674=CARTESIAN_POINT('',(-96.6,3.65,46.005647197));
#675=CARTESIAN_POINT('',(-82.,3.65,49.03673611));
#676=CARTESIAN_POINT('',(-96.6,3.65,49.03673611));
#677=CARTESIAN_POINT('',(-82.,6.275,47.521191653));
#678=CARTESIAN_POINT('',(-96.6,6.275,47.521191653));
#679=CARTESIAN_POINT('',(-82.,8.9,46.005647197));
#680=CARTESIAN_POINT('',(-96.6,8.9,46.005647197));
#681=CARTESIAN_POINT('',(-82.,6.275,44.49010274));
#682=CARTESIAN_POINT('',(-96.6,6.275,44.49010274));
#683=CARTESIAN_POINT('',(-82.,3.65,42.974558284));
#684=CARTESIAN_POINT('',(-96.6,3.65,42.974558284));
#685=CARTESIAN_POINT('',(-82.,3.65,46.005647197));
#686=CARTESIAN_POINT('',(-96.6,3.65,46.005647197));
#687=(BOUNDED_SURFACE()
B_SPLINE_SURFACE(2,1,((#673,#674),(#675,#676),(#677,#678),(#679,#680),(#681,#682),(#683,#684),(#685,#686)),.UNSPECIFIED.,.T.,.F.,.U.)
B_SPLINE_SURFACE_WITH_KNOTS((3,2,2,3),(2,2),(0.,2.094395102,4.188790205,6.283185307),(0.0159752,0.0305752),.UNSPECIFIED.)
GEOMETRIC_REPRESENTATION_ITEM()
RATIONAL_B_SPLINE_SURFACE(((1.,1.),(0.5,0.5),(1.,1.),(0.5,0.5),(1.,1.),(0.5,0.5),(1.,1.)))
REPRESENTATION_ITEM('')
SURFACE()
);
#688=CARTESIAN_POINT('',(-96.6,3.65,46.005647197));
#689=CARTESIAN_POINT('',(-82.,3.65,46.005647197));
#690=B_SPLINE_CURVE_WITH_KNOTS('',1,(#688,#689),.UNSPECIFIED.,.F.,.F.,(2,2),(0.0159752,0.0305752),.UNSPECIFIED.);
#691=EDGE_CURVE('',#509,#589,#690,.T.);
#692=ORIENTED_EDGE('',*,*,#691,.F.);
#693=ORIENTED_EDGE('',*,*,#520,.F.);
#694=ORIENTED_EDGE('',*,*,#532,.F.);
#695=ORIENTED_EDGE('',*,*,#691,.T.);
#696=ORIENTED_EDGE('',*,*,#600,.F.);
#697=ORIENTED_EDGE('',*,*,#612,.F.);
#698=EDGE_LOOP('',(#692,#693,#694,#695,#696,#697));
#699=FACE_BOUND('',#698,.T.);
#700=ADVANCED_FACE('',(#699),#687,.F.);
#701=CARTESIAN_POINT('',(-82.,3.7,18.505647197));
#702=CARTESIAN_POINT('',(-96.6,3.7,18.505647197));
#703=CARTESIAN_POINT('',(-82.,3.7,21.45013357));
#704=CARTESIAN_POINT('',(-96.6,3.7,21.45013357));
#705=CARTESIAN_POINT('',(-82.,6.25,19.977890383));
#706=CARTESIAN_POINT('',(-96.6,6.25,19.977890383));
#707=CARTESIAN_POINT('',(-82.,8.8,18.505647197));
#708=CARTESIAN_POINT('',(-96.6,8.8,18.505647197));
#709=CARTESIAN_POINT('',(-82.,6.25,17.03340401));
#710=CARTESIAN_POINT('',(-96.6,6.25,17.03340401));
#711=CARTESIAN_POINT('',(-82.,3.7,15.561160824));
#712=CARTESIAN_POINT('',(-96.6,3.7,15.561160824));
#713=CARTESIAN_POINT('',(-82.,3.7,18.505647197));
#714=CARTESIAN_POINT('',(-96.6,3.7,18.505647197));
#715=(BOUNDED_SURFACE()
B_SPLINE_SURFACE(2,1,((#701,#702),(#703,#704),(#705,#706),(#707,#708),(#709,#710),(#711,#712),(#713,#714)),.UNSPECIFIED.,.T.,.F.,.U.)
B_SPLINE_SURFACE_WITH_KNOTS((3,2,2,3),(2,2),(0.,2.094395102,4.188790205,6.283185307),(0.015661295,0.030261295),.UNSPECIFIED.)
GEOMETRIC_REPRESENTATION_ITEM()
RATIONAL_B_SPLINE_SURFACE(((1.,1.),(0.5,0.5),(1.,1.),(0.5,0.5),(1.,1.),(0.5,0.5),(1.,1.)))
REPRESENTATION_ITEM('')
SURFACE()
);
#716=CARTESIAN_POINT('',(-96.6,3.7,18.505647197));
#717=CARTESIAN_POINT('',(-82.,3.7,18.505647197));
#718=B_SPLINE_CURVE_WITH_KNOTS('',1,(#716,#717),.UNSPECIFIED.,.F.,.F.,(2,2),(0.015661295,0.030261295),.UNSPECIFIED.);
#719=EDGE_CURVE('',#479,#189,#718,.T.);
#720=ORIENTED_EDGE('',*,*,#719,.F.);
#721=ORIENTED_EDGE('',*,*,#490,.F.);
#722=ORIENTED_EDGE('',*,*,#502,.F.);
#723=ORIENTED_EDGE('',*,*,#719,.T.);
#724=ORIENTED_EDGE('',*,*,#200,.F.);
#725=ORIENTED_EDGE('',*,*,#212,.F.);
#726=EDGE_LOOP('',(#720,#721,#722,#723,#724,#725));
#727=FACE_BOUND('',#726,.T.);
#728=ADVANCED_FACE('',(#727),#715,.F.);
#729=CLOSED_SHELL('',(#62,#132,#160,#180,#222,#296,#324,#346,#396,#418,#430,#470,#542,#564,#580,#622,#644,#660,#672,#700,#728));
#730=MANIFOLD_SOLID_BREP('Extruded.012',#729);
#26=STYLED_ITEM('',(),#730);
#16=SHAPE_REPRESENTATION('root',(#15),#10);
#17=ADVANCED_BREP_SHAPE_REPRESENTATION('root',(#730),#10);
#738=SHAPE_REPRESENTATION_RELATIONSHIP('','',#16,#17);
#739=APPLICATION_CONTEXT('configuration controlled 3D design of mechanical parts and assemblies');
#740=APPLICATION_PROTOCOL_DEFINITION('international standard','configuration_control_3d_design_ed2_mim',2004,#739);
#741=PRODUCT_CONTEXT('',#739,'mechanical');
#742=PRODUCT_DEFINITION_CONTEXT('part definition',#739,'design');
#24=PRODUCT('root','root','',(#741));
#743=PRODUCT_RELATED_PRODUCT_CATEGORY('part','',(#24));
#744=PRODUCT_DEFINITION_FORMATION_WITH_SPECIFIED_SOURCE('','',#24,.NOT_KNOWN.);
#25=PRODUCT_DEFINITION('design','',#744,#742);
#23=PRODUCT_DEFINITION_SHAPE('','',#25);
#745=SHAPE_DEFINITION_REPRESENTATION(#23,#16);
#11=DRAUGHTING_MODEL('',(),#10);
#1=MECHANICAL_DESIGN_GEOMETRIC_PRESENTATION_REPRESENTATION('',(#26),#10);
ENDSEC;
END-ISO-10303-21;
