ISO-10303-21;
HEADER;

/* File generated by HOOPS Exchange Version 25.8.0 */

FILE_DESCRIPTION(('HOOPS Exchange Step'),'2;1');

FILE_NAME('/home/tfannes/prints/260618_flywheel_holder_tester/flywheel_holder_tester.step',
'2026-06-18T12:15:54+02:00',
('tfannes'),
('Unknown organisation'),
'HOOPS Exchange 2025.8',
'HOOPS Exchange',
'Unknown authorisation');

FILE_SCHEMA( ('AP203_CONFIGURATION_CONTROLLED_3D_DESIGN_OF_MECHANICAL_PARTS_AND_ASSEMBLIES_MIM_LF') );

ENDSEC;

DATA;
#3=(NAMED_UNIT(*)PLANE_ANGLE_UNIT()SI_UNIT($,.RADIAN.));
#4=PLANE_ANGLE_MEASURE_WITH_UNIT(PLANE_ANGLE_MEASURE(0.0174532925),#3);
#5=(CONVERSION_BASED_UNIT('DEGREE',#4)NAMED_UNIT(#6)PLANE_ANGLE_UNIT());
#6=DIMENSIONAL_EXPONENTS(0.,0.,0.,0.,0.,0.,0.);
#7=(NAMED_UNIT(*)SI_UNIT($,.STERADIAN.)SOLID_ANGLE_UNIT());
#8=(LENGTH_UNIT()NAMED_UNIT(*)SI_UNIT(.MILLI.,.METRE.));
#9=UNCERTAINTY_MEASURE_WITH_UNIT(LENGTH_MEASURE(1.000000E-05),#8,'DISTANCE_ACCURACY_VALUE','Maximum Tolerance applied to model');
#10=(GEOMETRIC_REPRESENTATION_CONTEXT(3)GLOBAL_UNCERTAINTY_ASSIGNED_CONTEXT((#9))GLOBAL_UNIT_ASSIGNED_CONTEXT((#8,#5,#7))REPRESENTATION_CONTEXT('','root'));
#12=CARTESIAN_POINT('',(0.,0.,0.));
#13=DIRECTION('',(0.,0.,1.));
#14=DIRECTION('',(1.,0.,0.));
#15=AXIS2_PLACEMENT_3D('TS3D_PRODUCT_CSYS',#12,#13,#14);
#27=CARTESIAN_POINT('',(-9.,-40.5,-3.));
#28=CARTESIAN_POINT('',(-9.,40.5,-3.));
#29=CARTESIAN_POINT('',(9.,-40.5,-3.));
#30=CARTESIAN_POINT('',(9.,40.5,-3.));
#31=B_SPLINE_SURFACE_WITH_KNOTS('',1,1,((#27,#28),(#29,#30)),.UNSPECIFIED.,.F.,.F.,.U.,(2,2),(2,2),(-0.009,0.009),(-0.0405,0.0405),.UNSPECIFIED.);
#32=CARTESIAN_POINT('',(6.35,-0.,-3.));
#33=VERTEX_POINT('',#32);
#34=CARTESIAN_POINT('',(4.5,-1.85,-3.));
#35=VERTEX_POINT('',#34);
#36=CARTESIAN_POINT('',(6.35,-0.,-3.));
#37=CARTESIAN_POINT('',(6.35,1.85,-3.));
#38=CARTESIAN_POINT('',(4.5,1.85,-3.));
#39=CARTESIAN_POINT('',(2.65,1.85,-3.));
#40=CARTESIAN_POINT('',(2.65,-0.,-3.));
#41=CARTESIAN_POINT('',(2.65,-1.85,-3.));
#42=CARTESIAN_POINT('',(4.5,-1.85,-3.));
#43=CARTESIAN_POINT('',(6.35,-1.85,-3.));
#44=CARTESIAN_POINT('',(6.35,-0.,-3.));
#45=(BOUNDED_CURVE()
B_SPLINE_CURVE(2,(#36,#37,#38,#39,#40,#41,#42,#43,#44),.UNSPECIFIED.,.T.,.F.)
B_SPLINE_CURVE_WITH_KNOTS((3,2,2,2,3),(0.,1.570796327,3.141592654,4.71238898,6.283185307),.UNSPECIFIED.)
CURVE()
GEOMETRIC_REPRESENTATION_ITEM()
RATIONAL_B_SPLINE_CURVE((1.,0.707106781,1.,0.707106781,1.,0.707106781,1.,0.707106781,1.))
REPRESENTATION_ITEM(''));
#46=EDGE_CURVE('',#33,#35,#45,.T.);
#47=ORIENTED_EDGE('',*,*,#46,.T.);
#48=CARTESIAN_POINT('',(6.35,-0.,-3.));
#49=CARTESIAN_POINT('',(6.35,1.85,-3.));
#50=CARTESIAN_POINT('',(4.5,1.85,-3.));
#51=CARTESIAN_POINT('',(2.65,1.85,-3.));
#52=CARTESIAN_POINT('',(2.65,-0.,-3.));
#53=CARTESIAN_POINT('',(2.65,-1.85,-3.));
#54=CARTESIAN_POINT('',(4.5,-1.85,-3.));
#55=CARTESIAN_POINT('',(6.35,-1.85,-3.));
#56=CARTESIAN_POINT('',(6.35,-0.,-3.));
#57=(BOUNDED_CURVE()
B_SPLINE_CURVE(2,(#48,#49,#50,#51,#52,#53,#54,#55,#56),.UNSPECIFIED.,.T.,.F.)
B_SPLINE_CURVE_WITH_KNOTS((3,2,2,2,3),(0.,1.570796327,3.141592654,4.71238898,6.283185307),.UNSPECIFIED.)
CURVE()
GEOMETRIC_REPRESENTATION_ITEM()
RATIONAL_B_SPLINE_CURVE((1.,0.707106781,1.,0.707106781,1.,0.707106781,1.,0.707106781,1.))
REPRESENTATION_ITEM(''));
#58=EDGE_CURVE('',#35,#33,#57,.T.);
#59=ORIENTED_EDGE('',*,*,#58,.T.);
#60=EDGE_LOOP('',(#47,#59));
#61=FACE_BOUND('',#60,.T.);
#62=CARTESIAN_POINT('',(-4.5,-1.85,-3.));
#63=VERTEX_POINT('',#62);
#64=CARTESIAN_POINT('',(-2.65,-0.,-3.));
#65=VERTEX_POINT('',#64);
#66=CARTESIAN_POINT('',(-2.65,-0.,-3.));
#67=CARTESIAN_POINT('',(-2.65,-1.85,-3.));
#68=CARTESIAN_POINT('',(-4.5,-1.85,-3.));
#69=CARTESIAN_POINT('',(-6.35,-1.85,-3.));
#70=CARTESIAN_POINT('',(-6.35,-0.,-3.));
#71=CARTESIAN_POINT('',(-6.35,1.85,-3.));
#72=CARTESIAN_POINT('',(-4.5,1.85,-3.));
#73=CARTESIAN_POINT('',(-2.65,1.85,-3.));
#74=CARTESIAN_POINT('',(-2.65,-0.,-3.));
#75=(BOUNDED_CURVE()
B_SPLINE_CURVE(2,(#66,#67,#68,#69,#70,#71,#72,#73,#74),.UNSPECIFIED.,.T.,.F.)
B_SPLINE_CURVE_WITH_KNOTS((3,2,2,2,3),(0.,1.570796327,3.141592654,4.71238898,6.283185307),.UNSPECIFIED.)
CURVE()
GEOMETRIC_REPRESENTATION_ITEM()
RATIONAL_B_SPLINE_CURVE((1.,0.707106781,1.,0.707106781,1.,0.707106781,1.,0.707106781,1.))
REPRESENTATION_ITEM(''));
#76=EDGE_CURVE('',#63,#65,#75,.T.);
#77=ORIENTED_EDGE('',*,*,#76,.F.);
#78=CARTESIAN_POINT('',(-2.65,-0.,-3.));
#79=CARTESIAN_POINT('',(-2.65,-1.85,-3.));
#80=CARTESIAN_POINT('',(-4.5,-1.85,-3.));
#81=CARTESIAN_POINT('',(-6.35,-1.85,-3.));
#82=CARTESIAN_POINT('',(-6.35,-0.,-3.));
#83=CARTESIAN_POINT('',(-6.35,1.85,-3.));
#84=CARTESIAN_POINT('',(-4.5,1.85,-3.));
#85=CARTESIAN_POINT('',(-2.65,1.85,-3.));
#86=CARTESIAN_POINT('',(-2.65,-0.,-3.));
#87=(BOUNDED_CURVE()
B_SPLINE_CURVE(2,(#78,#79,#80,#81,#82,#83,#84,#85,#86),.UNSPECIFIED.,.T.,.F.)
B_SPLINE_CURVE_WITH_KNOTS((3,2,2,2,3),(0.,1.570796327,3.141592654,4.71238898,6.283185307),.UNSPECIFIED.)
CURVE()
GEOMETRIC_REPRESENTATION_ITEM()
RATIONAL_B_SPLINE_CURVE((1.,0.707106781,1.,0.707106781,1.,0.707106781,1.,0.707106781,1.))
REPRESENTATION_ITEM(''));
#88=EDGE_CURVE('',#65,#63,#87,.T.);
#89=ORIENTED_EDGE('',*,*,#88,.F.);
#90=EDGE_LOOP('',(#77,#89));
#91=FACE_BOUND('',#90,.T.);
#92=CARTESIAN_POINT('',(9.,40.5,-3.));
#93=VERTEX_POINT('',#92);
#94=CARTESIAN_POINT('',(9.,-40.5,-3.));
#95=VERTEX_POINT('',#94);
#96=CARTESIAN_POINT('',(9.,40.5,-3.));
#97=CARTESIAN_POINT('',(9.,-40.5,-3.));
#98=B_SPLINE_CURVE_WITH_KNOTS('',1,(#96,#97),.UNSPECIFIED.,.F.,.F.,(2,2),(-0.072,0.009),.UNSPECIFIED.);
#99=EDGE_CURVE('',#93,#95,#98,.T.);
#100=ORIENTED_EDGE('',*,*,#99,.T.);
#101=CARTESIAN_POINT('',(-9.,-40.5,-3.));
#102=VERTEX_POINT('',#101);
#103=CARTESIAN_POINT('',(9.,-40.5,-3.));
#104=CARTESIAN_POINT('',(-9.,-40.5,-3.));
#105=B_SPLINE_CURVE_WITH_KNOTS('',1,(#103,#104),.UNSPECIFIED.,.F.,.F.,(2,2),(0.,0.018),.UNSPECIFIED.);
#106=EDGE_CURVE('',#95,#102,#105,.T.);
#107=ORIENTED_EDGE('',*,*,#106,.T.);
#108=CARTESIAN_POINT('',(-9.,40.5,-3.));
#109=VERTEX_POINT('',#108);
#110=CARTESIAN_POINT('',(-9.,-40.5,-3.));
#111=CARTESIAN_POINT('',(-9.,40.5,-3.));
#112=B_SPLINE_CURVE_WITH_KNOTS('',1,(#110,#111),.UNSPECIFIED.,.F.,.F.,(2,2),(0.,0.081),.UNSPECIFIED.);
#113=EDGE_CURVE('',#102,#109,#112,.T.);
#114=ORIENTED_EDGE('',*,*,#113,.T.);
#115=CARTESIAN_POINT('',(9.,40.5,-3.));
#116=CARTESIAN_POINT('',(-9.,40.5,-3.));
#117=B_SPLINE_CURVE_WITH_KNOTS('',1,(#115,#116),.UNSPECIFIED.,.F.,.F.,(2,2),(0.,0.018),.UNSPECIFIED.);
#118=EDGE_CURVE('',#93,#109,#117,.T.);
#119=ORIENTED_EDGE('',*,*,#118,.F.);
#120=EDGE_LOOP('',(#100,#107,#114,#119));
#121=FACE_BOUND('',#120,.T.);
#122=CARTESIAN_POINT('',(-4.5,-37.85,-3.));
#123=VERTEX_POINT('',#122);
#124=CARTESIAN_POINT('',(-2.65,-36.,-3.));
#125=VERTEX_POINT('',#124);
#126=CARTESIAN_POINT('',(-2.65,-36.,-3.));
#127=CARTESIAN_POINT('',(-2.65,-37.85,-3.));
#128=CARTESIAN_POINT('',(-4.5,-37.85,-3.));
#129=CARTESIAN_POINT('',(-6.35,-37.85,-3.));
#130=CARTESIAN_POINT('',(-6.35,-36.,-3.));
#131=CARTESIAN_POINT('',(-6.35,-34.15,-3.));
#132=CARTESIAN_POINT('',(-4.5,-34.15,-3.));
#133=CARTESIAN_POINT('',(-2.65,-34.15,-3.));
#134=CARTESIAN_POINT('',(-2.65,-36.,-3.));
#135=(BOUNDED_CURVE()
B_SPLINE_CURVE(2,(#126,#127,#128,#129,#130,#131,#132,#133,#134),.UNSPECIFIED.,.T.,.F.)
B_SPLINE_CURVE_WITH_KNOTS((3,2,2,2,3),(0.,1.570796327,3.141592654,4.71238898,6.283185307),.UNSPECIFIED.)
CURVE()
GEOMETRIC_REPRESENTATION_ITEM()
RATIONAL_B_SPLINE_CURVE((1.,0.707106781,1.,0.707106781,1.,0.707106781,1.,0.707106781,1.))
REPRESENTATION_ITEM(''));
#136=EDGE_CURVE('',#123,#125,#135,.T.);
#137=ORIENTED_EDGE('',*,*,#136,.F.);
#138=CARTESIAN_POINT('',(-2.65,-36.,-3.));
#139=CARTESIAN_POINT('',(-2.65,-37.85,-3.));
#140=CARTESIAN_POINT('',(-4.5,-37.85,-3.));
#141=CARTESIAN_POINT('',(-6.35,-37.85,-3.));
#142=CARTESIAN_POINT('',(-6.35,-36.,-3.));
#143=CARTESIAN_POINT('',(-6.35,-34.15,-3.));
#144=CARTESIAN_POINT('',(-4.5,-34.15,-3.));
#145=CARTESIAN_POINT('',(-2.65,-34.15,-3.));
#146=CARTESIAN_POINT('',(-2.65,-36.,-3.));
#147=(BOUNDED_CURVE()
B_SPLINE_CURVE(2,(#138,#139,#140,#141,#142,#143,#144,#145,#146),.UNSPECIFIED.,.T.,.F.)
B_SPLINE_CURVE_WITH_KNOTS((3,2,2,2,3),(0.,1.570796327,3.141592654,4.71238898,6.283185307),.UNSPECIFIED.)
CURVE()
GEOMETRIC_REPRESENTATION_ITEM()
RATIONAL_B_SPLINE_CURVE((1.,0.707106781,1.,0.707106781,1.,0.707106781,1.,0.707106781,1.))
REPRESENTATION_ITEM(''));
#148=EDGE_CURVE('',#125,#123,#147,.T.);
#149=ORIENTED_EDGE('',*,*,#148,.F.);
#150=EDGE_LOOP('',(#137,#149));
#151=FACE_BOUND('',#150,.T.);
#152=CARTESIAN_POINT('',(4.5,34.15,-3.));
#153=VERTEX_POINT('',#152);
#154=CARTESIAN_POINT('',(6.35,36.,-3.));
#155=VERTEX_POINT('',#154);
#156=CARTESIAN_POINT('',(6.35,36.,-3.));
#157=CARTESIAN_POINT('',(6.35,34.15,-3.));
#158=CARTESIAN_POINT('',(4.5,34.15,-3.));
#159=CARTESIAN_POINT('',(2.65,34.15,-3.));
#160=CARTESIAN_POINT('',(2.65,36.,-3.));
#161=CARTESIAN_POINT('',(2.65,37.85,-3.));
#162=CARTESIAN_POINT('',(4.5,37.85,-3.));
#163=CARTESIAN_POINT('',(6.35,37.85,-3.));
#164=CARTESIAN_POINT('',(6.35,36.,-3.));
#165=(BOUNDED_CURVE()
B_SPLINE_CURVE(2,(#156,#157,#158,#159,#160,#161,#162,#163,#164),.UNSPECIFIED.,.T.,.F.)
B_SPLINE_CURVE_WITH_KNOTS((3,2,2,2,3),(0.,1.570796327,3.141592654,4.71238898,6.283185307),.UNSPECIFIED.)
CURVE()
GEOMETRIC_REPRESENTATION_ITEM()
RATIONAL_B_SPLINE_CURVE((1.,0.707106781,1.,0.707106781,1.,0.707106781,1.,0.707106781,1.))
REPRESENTATION_ITEM(''));
#166=EDGE_CURVE('',#153,#155,#165,.T.);
#167=ORIENTED_EDGE('',*,*,#166,.F.);
#168=CARTESIAN_POINT('',(6.35,36.,-3.));
#169=CARTESIAN_POINT('',(6.35,34.15,-3.));
#170=CARTESIAN_POINT('',(4.5,34.15,-3.));
#171=CARTESIAN_POINT('',(2.65,34.15,-3.));
#172=CARTESIAN_POINT('',(2.65,36.,-3.));
#173=CARTESIAN_POINT('',(2.65,37.85,-3.));
#174=CARTESIAN_POINT('',(4.5,37.85,-3.));
#175=CARTESIAN_POINT('',(6.35,37.85,-3.));
#176=CARTESIAN_POINT('',(6.35,36.,-3.));
#177=(BOUNDED_CURVE()
B_SPLINE_CURVE(2,(#168,#169,#170,#171,#172,#173,#174,#175,#176),.UNSPECIFIED.,.T.,.F.)
B_SPLINE_CURVE_WITH_KNOTS((3,2,2,2,3),(0.,1.570796327,3.141592654,4.71238898,6.283185307),.UNSPECIFIED.)
CURVE()
GEOMETRIC_REPRESENTATION_ITEM()
RATIONAL_B_SPLINE_CURVE((1.,0.707106781,1.,0.707106781,1.,0.707106781,1.,0.707106781,1.))
REPRESENTATION_ITEM(''));
#178=EDGE_CURVE('',#155,#153,#177,.T.);
#179=ORIENTED_EDGE('',*,*,#178,.F.);
#180=EDGE_LOOP('',(#167,#179));
#181=FACE_BOUND('',#180,.T.);
#182=CARTESIAN_POINT('',(6.35,-36.,-3.));
#183=VERTEX_POINT('',#182);
#184=CARTESIAN_POINT('',(4.5,-37.85,-3.));
#185=VERTEX_POINT('',#184);
#186=CARTESIAN_POINT('',(6.35,-36.,-3.));
#187=CARTESIAN_POINT('',(6.35,-34.15,-3.));
#188=CARTESIAN_POINT('',(4.5,-34.15,-3.));
#189=CARTESIAN_POINT('',(2.65,-34.15,-3.));
#190=CARTESIAN_POINT('',(2.65,-36.,-3.));
#191=CARTESIAN_POINT('',(2.65,-37.85,-3.));
#192=CARTESIAN_POINT('',(4.5,-37.85,-3.));
#193=CARTESIAN_POINT('',(6.35,-37.85,-3.));
#194=CARTESIAN_POINT('',(6.35,-36.,-3.));
#195=(BOUNDED_CURVE()
B_SPLINE_CURVE(2,(#186,#187,#188,#189,#190,#191,#192,#193,#194),.UNSPECIFIED.,.T.,.F.)
B_SPLINE_CURVE_WITH_KNOTS((3,2,2,2,3),(0.,1.570796327,3.141592654,4.71238898,6.283185307),.UNSPECIFIED.)
CURVE()
GEOMETRIC_REPRESENTATION_ITEM()
RATIONAL_B_SPLINE_CURVE((1.,0.707106781,1.,0.707106781,1.,0.707106781,1.,0.707106781,1.))
REPRESENTATION_ITEM(''));
#196=EDGE_CURVE('',#183,#185,#195,.T.);
#197=ORIENTED_EDGE('',*,*,#196,.T.);
#198=CARTESIAN_POINT('',(6.35,-36.,-3.));
#199=CARTESIAN_POINT('',(6.35,-34.15,-3.));
#200=CARTESIAN_POINT('',(4.5,-34.15,-3.));
#201=CARTESIAN_POINT('',(2.65,-34.15,-3.));
#202=CARTESIAN_POINT('',(2.65,-36.,-3.));
#203=CARTESIAN_POINT('',(2.65,-37.85,-3.));
#204=CARTESIAN_POINT('',(4.5,-37.85,-3.));
#205=CARTESIAN_POINT('',(6.35,-37.85,-3.));
#206=CARTESIAN_POINT('',(6.35,-36.,-3.));
#207=(BOUNDED_CURVE()
B_SPLINE_CURVE(2,(#198,#199,#200,#201,#202,#203,#204,#205,#206),.UNSPECIFIED.,.T.,.F.)
B_SPLINE_CURVE_WITH_KNOTS((3,2,2,2,3),(0.,1.570796327,3.141592654,4.71238898,6.283185307),.UNSPECIFIED.)
CURVE()
GEOMETRIC_REPRESENTATION_ITEM()
RATIONAL_B_SPLINE_CURVE((1.,0.707106781,1.,0.707106781,1.,0.707106781,1.,0.707106781,1.))
REPRESENTATION_ITEM(''));
#208=EDGE_CURVE('',#185,#183,#207,.T.);
#209=ORIENTED_EDGE('',*,*,#208,.T.);
#210=EDGE_LOOP('',(#197,#209));
#211=FACE_BOUND('',#210,.T.);
#212=CARTESIAN_POINT('',(-2.65,36.,-3.));
#213=VERTEX_POINT('',#212);
#214=CARTESIAN_POINT('',(-4.5,34.15,-3.));
#215=VERTEX_POINT('',#214);
#216=CARTESIAN_POINT('',(-2.65,36.,-3.));
#217=CARTESIAN_POINT('',(-2.65,37.85,-3.));
#218=CARTESIAN_POINT('',(-4.5,37.85,-3.));
#219=CARTESIAN_POINT('',(-6.35,37.85,-3.));
#220=CARTESIAN_POINT('',(-6.35,36.,-3.));
#221=CARTESIAN_POINT('',(-6.35,34.15,-3.));
#222=CARTESIAN_POINT('',(-4.5,34.15,-3.));
#223=CARTESIAN_POINT('',(-2.65,34.15,-3.));
#224=CARTESIAN_POINT('',(-2.65,36.,-3.));
#225=(BOUNDED_CURVE()
B_SPLINE_CURVE(2,(#216,#217,#218,#219,#220,#221,#222,#223,#224),.UNSPECIFIED.,.T.,.F.)
B_SPLINE_CURVE_WITH_KNOTS((3,2,2,2,3),(0.,1.570796327,3.141592654,4.71238898,6.283185307),.UNSPECIFIED.)
CURVE()
GEOMETRIC_REPRESENTATION_ITEM()
RATIONAL_B_SPLINE_CURVE((1.,0.707106781,1.,0.707106781,1.,0.707106781,1.,0.707106781,1.))
REPRESENTATION_ITEM(''));
#226=EDGE_CURVE('',#213,#215,#225,.T.);
#227=ORIENTED_EDGE('',*,*,#226,.T.);
#228=CARTESIAN_POINT('',(-2.65,36.,-3.));
#229=CARTESIAN_POINT('',(-2.65,37.85,-3.));
#230=CARTESIAN_POINT('',(-4.5,37.85,-3.));
#231=CARTESIAN_POINT('',(-6.35,37.85,-3.));
#232=CARTESIAN_POINT('',(-6.35,36.,-3.));
#233=CARTESIAN_POINT('',(-6.35,34.15,-3.));
#234=CARTESIAN_POINT('',(-4.5,34.15,-3.));
#235=CARTESIAN_POINT('',(-2.65,34.15,-3.));
#236=CARTESIAN_POINT('',(-2.65,36.,-3.));
#237=(BOUNDED_CURVE()
B_SPLINE_CURVE(2,(#228,#229,#230,#231,#232,#233,#234,#235,#236),.UNSPECIFIED.,.T.,.F.)
B_SPLINE_CURVE_WITH_KNOTS((3,2,2,2,3),(0.,1.570796327,3.141592654,4.71238898,6.283185307),.UNSPECIFIED.)
CURVE()
GEOMETRIC_REPRESENTATION_ITEM()
RATIONAL_B_SPLINE_CURVE((1.,0.707106781,1.,0.707106781,1.,0.707106781,1.,0.707106781,1.))
REPRESENTATION_ITEM(''));
#238=EDGE_CURVE('',#215,#213,#237,.T.);
#239=ORIENTED_EDGE('',*,*,#238,.T.);
#240=EDGE_LOOP('',(#227,#239));
#241=FACE_BOUND('',#240,.T.);
#242=ADVANCED_FACE('',(#61,#91,#121,#151,#181,#211,#241),#31,.F.);
#243=CARTESIAN_POINT('',(-9.,-40.5,0.));
#244=CARTESIAN_POINT('',(-9.,40.5,0.));
#245=CARTESIAN_POINT('',(9.,-40.5,0.));
#246=CARTESIAN_POINT('',(9.,40.5,0.));
#247=B_SPLINE_SURFACE_WITH_KNOTS('',1,1,((#243,#244),(#245,#246)),.UNSPECIFIED.,.F.,.F.,.U.,(2,2),(2,2),(-0.009,0.009),(-0.0405,0.0405),.UNSPECIFIED.);
#248=CARTESIAN_POINT('',(-2.65,-0.,0.));
#249=VERTEX_POINT('',#248);
#250=CARTESIAN_POINT('',(-4.5,-1.85,0.));
#251=VERTEX_POINT('',#250);
#252=CARTESIAN_POINT('',(-2.65,-0.,0.));
#253=CARTESIAN_POINT('',(-2.65,-1.85,0.));
#254=CARTESIAN_POINT('',(-4.5,-1.85,0.));
#255=CARTESIAN_POINT('',(-6.35,-1.85,0.));
#256=CARTESIAN_POINT('',(-6.35,-0.,0.));
#257=CARTESIAN_POINT('',(-6.35,1.85,0.));
#258=CARTESIAN_POINT('',(-4.5,1.85,0.));
#259=CARTESIAN_POINT('',(-2.65,1.85,0.));
#260=CARTESIAN_POINT('',(-2.65,-0.,0.));
#261=(BOUNDED_CURVE()
B_SPLINE_CURVE(2,(#252,#253,#254,#255,#256,#257,#258,#259,#260),.UNSPECIFIED.,.T.,.F.)
B_SPLINE_CURVE_WITH_KNOTS((3,2,2,2,3),(0.,1.570796327,3.141592654,4.71238898,6.283185307),.UNSPECIFIED.)
CURVE()
GEOMETRIC_REPRESENTATION_ITEM()
RATIONAL_B_SPLINE_CURVE((1.,0.707106781,1.,0.707106781,1.,0.707106781,1.,0.707106781,1.))
REPRESENTATION_ITEM(''));
#262=EDGE_CURVE('',#249,#251,#261,.T.);
#263=ORIENTED_EDGE('',*,*,#262,.T.);
#264=CARTESIAN_POINT('',(-2.65,-0.,0.));
#265=CARTESIAN_POINT('',(-2.65,-1.85,0.));
#266=CARTESIAN_POINT('',(-4.5,-1.85,0.));
#267=CARTESIAN_POINT('',(-6.35,-1.85,0.));
#268=CARTESIAN_POINT('',(-6.35,-0.,0.));
#269=CARTESIAN_POINT('',(-6.35,1.85,0.));
#270=CARTESIAN_POINT('',(-4.5,1.85,0.));
#271=CARTESIAN_POINT('',(-2.65,1.85,0.));
#272=CARTESIAN_POINT('',(-2.65,-0.,0.));
#273=(BOUNDED_CURVE()
B_SPLINE_CURVE(2,(#264,#265,#266,#267,#268,#269,#270,#271,#272),.UNSPECIFIED.,.T.,.F.)
B_SPLINE_CURVE_WITH_KNOTS((3,2,2,2,3),(0.,1.570796327,3.141592654,4.71238898,6.283185307),.UNSPECIFIED.)
CURVE()
GEOMETRIC_REPRESENTATION_ITEM()
RATIONAL_B_SPLINE_CURVE((1.,0.707106781,1.,0.707106781,1.,0.707106781,1.,0.707106781,1.))
REPRESENTATION_ITEM(''));
#274=EDGE_CURVE('',#251,#249,#273,.T.);
#275=ORIENTED_EDGE('',*,*,#274,.T.);
#276=EDGE_LOOP('',(#263,#275));
#277=FACE_BOUND('',#276,.T.);
#278=CARTESIAN_POINT('',(6.35,36.,0.));
#279=VERTEX_POINT('',#278);
#280=CARTESIAN_POINT('',(4.5,34.15,0.));
#281=VERTEX_POINT('',#280);
#282=CARTESIAN_POINT('',(6.35,36.,0.));
#283=CARTESIAN_POINT('',(6.35,34.15,0.));
#284=CARTESIAN_POINT('',(4.5,34.15,0.));
#285=CARTESIAN_POINT('',(2.65,34.15,0.));
#286=CARTESIAN_POINT('',(2.65,36.,0.));
#287=CARTESIAN_POINT('',(2.65,37.85,0.));
#288=CARTESIAN_POINT('',(4.5,37.85,0.));
#289=CARTESIAN_POINT('',(6.35,37.85,0.));
#290=CARTESIAN_POINT('',(6.35,36.,0.));
#291=(BOUNDED_CURVE()
B_SPLINE_CURVE(2,(#282,#283,#284,#285,#286,#287,#288,#289,#290),.UNSPECIFIED.,.T.,.F.)
B_SPLINE_CURVE_WITH_KNOTS((3,2,2,2,3),(0.,1.570796327,3.141592654,4.71238898,6.283185307),.UNSPECIFIED.)
CURVE()
GEOMETRIC_REPRESENTATION_ITEM()
RATIONAL_B_SPLINE_CURVE((1.,0.707106781,1.,0.707106781,1.,0.707106781,1.,0.707106781,1.))
REPRESENTATION_ITEM(''));
#292=EDGE_CURVE('',#279,#281,#291,.T.);
#293=ORIENTED_EDGE('',*,*,#292,.T.);
#294=CARTESIAN_POINT('',(6.35,36.,0.));
#295=CARTESIAN_POINT('',(6.35,34.15,0.));
#296=CARTESIAN_POINT('',(4.5,34.15,0.));
#297=CARTESIAN_POINT('',(2.65,34.15,0.));
#298=CARTESIAN_POINT('',(2.65,36.,0.));
#299=CARTESIAN_POINT('',(2.65,37.85,0.));
#300=CARTESIAN_POINT('',(4.5,37.85,0.));
#301=CARTESIAN_POINT('',(6.35,37.85,0.));
#302=CARTESIAN_POINT('',(6.35,36.,0.));
#303=(BOUNDED_CURVE()
B_SPLINE_CURVE(2,(#294,#295,#296,#297,#298,#299,#300,#301,#302),.UNSPECIFIED.,.T.,.F.)
B_SPLINE_CURVE_WITH_KNOTS((3,2,2,2,3),(0.,1.570796327,3.141592654,4.71238898,6.283185307),.UNSPECIFIED.)
CURVE()
GEOMETRIC_REPRESENTATION_ITEM()
RATIONAL_B_SPLINE_CURVE((1.,0.707106781,1.,0.707106781,1.,0.707106781,1.,0.707106781,1.))
REPRESENTATION_ITEM(''));
#304=EDGE_CURVE('',#281,#279,#303,.T.);
#305=ORIENTED_EDGE('',*,*,#304,.T.);
#306=EDGE_LOOP('',(#293,#305));
#307=FACE_BOUND('',#306,.T.);
#308=CARTESIAN_POINT('',(-2.65,-36.,0.));
#309=VERTEX_POINT('',#308);
#310=CARTESIAN_POINT('',(-4.5,-37.85,0.));
#311=VERTEX_POINT('',#310);
#312=CARTESIAN_POINT('',(-2.65,-36.,0.));
#313=CARTESIAN_POINT('',(-2.65,-37.85,0.));
#314=CARTESIAN_POINT('',(-4.5,-37.85,0.));
#315=CARTESIAN_POINT('',(-6.35,-37.85,0.));
#316=CARTESIAN_POINT('',(-6.35,-36.,0.));
#317=CARTESIAN_POINT('',(-6.35,-34.15,0.));
#318=CARTESIAN_POINT('',(-4.5,-34.15,0.));
#319=CARTESIAN_POINT('',(-2.65,-34.15,0.));
#320=CARTESIAN_POINT('',(-2.65,-36.,0.));
#321=(BOUNDED_CURVE()
B_SPLINE_CURVE(2,(#312,#313,#314,#315,#316,#317,#318,#319,#320),.UNSPECIFIED.,.T.,.F.)
B_SPLINE_CURVE_WITH_KNOTS((3,2,2,2,3),(0.,1.570796327,3.141592654,4.71238898,6.283185307),.UNSPECIFIED.)
CURVE()
GEOMETRIC_REPRESENTATION_ITEM()
RATIONAL_B_SPLINE_CURVE((1.,0.707106781,1.,0.707106781,1.,0.707106781,1.,0.707106781,1.))
REPRESENTATION_ITEM(''));
#322=EDGE_CURVE('',#309,#311,#321,.T.);
#323=ORIENTED_EDGE('',*,*,#322,.T.);
#324=CARTESIAN_POINT('',(-2.65,-36.,0.));
#325=CARTESIAN_POINT('',(-2.65,-37.85,0.));
#326=CARTESIAN_POINT('',(-4.5,-37.85,0.));
#327=CARTESIAN_POINT('',(-6.35,-37.85,0.));
#328=CARTESIAN_POINT('',(-6.35,-36.,0.));
#329=CARTESIAN_POINT('',(-6.35,-34.15,0.));
#330=CARTESIAN_POINT('',(-4.5,-34.15,0.));
#331=CARTESIAN_POINT('',(-2.65,-34.15,0.));
#332=CARTESIAN_POINT('',(-2.65,-36.,0.));
#333=(BOUNDED_CURVE()
B_SPLINE_CURVE(2,(#324,#325,#326,#327,#328,#329,#330,#331,#332),.UNSPECIFIED.,.T.,.F.)
B_SPLINE_CURVE_WITH_KNOTS((3,2,2,2,3),(0.,1.570796327,3.141592654,4.71238898,6.283185307),.UNSPECIFIED.)
CURVE()
GEOMETRIC_REPRESENTATION_ITEM()
RATIONAL_B_SPLINE_CURVE((1.,0.707106781,1.,0.707106781,1.,0.707106781,1.,0.707106781,1.))
REPRESENTATION_ITEM(''));
#334=EDGE_CURVE('',#311,#309,#333,.T.);
#335=ORIENTED_EDGE('',*,*,#334,.T.);
#336=EDGE_LOOP('',(#323,#335));
#337=FACE_BOUND('',#336,.T.);
#338=CARTESIAN_POINT('',(9.,40.5,0.));
#339=VERTEX_POINT('',#338);
#340=CARTESIAN_POINT('',(9.,-40.5,0.));
#341=VERTEX_POINT('',#340);
#342=CARTESIAN_POINT('',(9.,40.5,-0.));
#343=CARTESIAN_POINT('',(9.,-40.5,0.));
#344=B_SPLINE_CURVE_WITH_KNOTS('',1,(#342,#343),.UNSPECIFIED.,.F.,.F.,(2,2),(-0.072,0.009),.UNSPECIFIED.);
#345=EDGE_CURVE('',#339,#341,#344,.T.);
#346=ORIENTED_EDGE('',*,*,#345,.F.);
#347=CARTESIAN_POINT('',(-9.,40.5,0.));
#348=VERTEX_POINT('',#347);
#349=CARTESIAN_POINT('',(9.,40.5,0.));
#350=CARTESIAN_POINT('',(-9.,40.5,0.));
#351=B_SPLINE_CURVE_WITH_KNOTS('',1,(#349,#350),.UNSPECIFIED.,.F.,.F.,(2,2),(0.,0.018),.UNSPECIFIED.);
#352=EDGE_CURVE('',#339,#348,#351,.T.);
#353=ORIENTED_EDGE('',*,*,#352,.T.);
#354=CARTESIAN_POINT('',(-9.,-40.5,0.));
#355=VERTEX_POINT('',#354);
#356=CARTESIAN_POINT('',(-9.,-40.5,0.));
#357=CARTESIAN_POINT('',(-9.,40.5,-0.));
#358=B_SPLINE_CURVE_WITH_KNOTS('',1,(#356,#357),.UNSPECIFIED.,.F.,.F.,(2,2),(-0.,0.081),.UNSPECIFIED.);
#359=EDGE_CURVE('',#355,#348,#358,.T.);
#360=ORIENTED_EDGE('',*,*,#359,.F.);
#361=CARTESIAN_POINT('',(9.,-40.5,0.));
#362=CARTESIAN_POINT('',(-9.,-40.5,0.));
#363=B_SPLINE_CURVE_WITH_KNOTS('',1,(#361,#362),.UNSPECIFIED.,.F.,.F.,(2,2),(0.,0.018),.UNSPECIFIED.);
#364=EDGE_CURVE('',#341,#355,#363,.T.);
#365=ORIENTED_EDGE('',*,*,#364,.F.);
#366=EDGE_LOOP('',(#346,#353,#360,#365));
#367=FACE_BOUND('',#366,.T.);
#368=CARTESIAN_POINT('',(4.5,-37.85,0.));
#369=VERTEX_POINT('',#368);
#370=CARTESIAN_POINT('',(6.35,-36.,0.));
#371=VERTEX_POINT('',#370);
#372=CARTESIAN_POINT('',(6.35,-36.,0.));
#373=CARTESIAN_POINT('',(6.35,-34.15,0.));
#374=CARTESIAN_POINT('',(4.5,-34.15,0.));
#375=CARTESIAN_POINT('',(2.65,-34.15,0.));
#376=CARTESIAN_POINT('',(2.65,-36.,0.));
#377=CARTESIAN_POINT('',(2.65,-37.85,0.));
#378=CARTESIAN_POINT('',(4.5,-37.85,0.));
#379=CARTESIAN_POINT('',(6.35,-37.85,0.));
#380=CARTESIAN_POINT('',(6.35,-36.,0.));
#381=(BOUNDED_CURVE()
B_SPLINE_CURVE(2,(#372,#373,#374,#375,#376,#377,#378,#379,#380),.UNSPECIFIED.,.T.,.F.)
B_SPLINE_CURVE_WITH_KNOTS((3,2,2,2,3),(0.,1.570796327,3.141592654,4.71238898,6.283185307),.UNSPECIFIED.)
CURVE()
GEOMETRIC_REPRESENTATION_ITEM()
RATIONAL_B_SPLINE_CURVE((1.,0.707106781,1.,0.707106781,1.,0.707106781,1.,0.707106781,1.))
REPRESENTATION_ITEM(''));
#382=EDGE_CURVE('',#369,#371,#381,.T.);
#383=ORIENTED_EDGE('',*,*,#382,.F.);
#384=CARTESIAN_POINT('',(6.35,-36.,0.));
#385=CARTESIAN_POINT('',(6.35,-34.15,0.));
#386=CARTESIAN_POINT('',(4.5,-34.15,0.));
#387=CARTESIAN_POINT('',(2.65,-34.15,0.));
#388=CARTESIAN_POINT('',(2.65,-36.,0.));
#389=CARTESIAN_POINT('',(2.65,-37.85,0.));
#390=CARTESIAN_POINT('',(4.5,-37.85,0.));
#391=CARTESIAN_POINT('',(6.35,-37.85,0.));
#392=CARTESIAN_POINT('',(6.35,-36.,0.));
#393=(BOUNDED_CURVE()
B_SPLINE_CURVE(2,(#384,#385,#386,#387,#388,#389,#390,#391,#392),.UNSPECIFIED.,.T.,.F.)
B_SPLINE_CURVE_WITH_KNOTS((3,2,2,2,3),(0.,1.570796327,3.141592654,4.71238898,6.283185307),.UNSPECIFIED.)
CURVE()
GEOMETRIC_REPRESENTATION_ITEM()
RATIONAL_B_SPLINE_CURVE((1.,0.707106781,1.,0.707106781,1.,0.707106781,1.,0.707106781,1.))
REPRESENTATION_ITEM(''));
#394=EDGE_CURVE('',#371,#369,#393,.T.);
#395=ORIENTED_EDGE('',*,*,#394,.F.);
#396=EDGE_LOOP('',(#383,#395));
#397=FACE_BOUND('',#396,.T.);
#398=CARTESIAN_POINT('',(4.5,-1.85,0.));
#399=VERTEX_POINT('',#398);
#400=CARTESIAN_POINT('',(6.35,-0.,0.));
#401=VERTEX_POINT('',#400);
#402=CARTESIAN_POINT('',(6.35,-0.,0.));
#403=CARTESIAN_POINT('',(6.35,1.85,0.));
#404=CARTESIAN_POINT('',(4.5,1.85,0.));
#405=CARTESIAN_POINT('',(2.65,1.85,0.));
#406=CARTESIAN_POINT('',(2.65,-0.,0.));
#407=CARTESIAN_POINT('',(2.65,-1.85,0.));
#408=CARTESIAN_POINT('',(4.5,-1.85,0.));
#409=CARTESIAN_POINT('',(6.35,-1.85,0.));
#410=CARTESIAN_POINT('',(6.35,-0.,0.));
#411=(BOUNDED_CURVE()
B_SPLINE_CURVE(2,(#402,#403,#404,#405,#406,#407,#408,#409,#410),.UNSPECIFIED.,.T.,.F.)
B_SPLINE_CURVE_WITH_KNOTS((3,2,2,2,3),(0.,1.570796327,3.141592654,4.71238898,6.283185307),.UNSPECIFIED.)
CURVE()
GEOMETRIC_REPRESENTATION_ITEM()
RATIONAL_B_SPLINE_CURVE((1.,0.707106781,1.,0.707106781,1.,0.707106781,1.,0.707106781,1.))
REPRESENTATION_ITEM(''));
#412=EDGE_CURVE('',#399,#401,#411,.T.);
#413=ORIENTED_EDGE('',*,*,#412,.F.);
#414=CARTESIAN_POINT('',(6.35,-0.,0.));
#415=CARTESIAN_POINT('',(6.35,1.85,0.));
#416=CARTESIAN_POINT('',(4.5,1.85,0.));
#417=CARTESIAN_POINT('',(2.65,1.85,0.));
#418=CARTESIAN_POINT('',(2.65,-0.,0.));
#419=CARTESIAN_POINT('',(2.65,-1.85,0.));
#420=CARTESIAN_POINT('',(4.5,-1.85,0.));
#421=CARTESIAN_POINT('',(6.35,-1.85,0.));
#422=CARTESIAN_POINT('',(6.35,-0.,0.));
#423=(BOUNDED_CURVE()
B_SPLINE_CURVE(2,(#414,#415,#416,#417,#418,#419,#420,#421,#422),.UNSPECIFIED.,.T.,.F.)
B_SPLINE_CURVE_WITH_KNOTS((3,2,2,2,3),(0.,1.570796327,3.141592654,4.71238898,6.283185307),.UNSPECIFIED.)
CURVE()
GEOMETRIC_REPRESENTATION_ITEM()
RATIONAL_B_SPLINE_CURVE((1.,0.707106781,1.,0.707106781,1.,0.707106781,1.,0.707106781,1.))
REPRESENTATION_ITEM(''));
#424=EDGE_CURVE('',#401,#399,#423,.T.);
#425=ORIENTED_EDGE('',*,*,#424,.F.);
#426=EDGE_LOOP('',(#413,#425));
#427=FACE_BOUND('',#426,.T.);
#428=CARTESIAN_POINT('',(-4.5,34.15,0.));
#429=VERTEX_POINT('',#428);
#430=CARTESIAN_POINT('',(-2.65,36.,0.));
#431=VERTEX_POINT('',#430);
#432=CARTESIAN_POINT('',(-2.65,36.,0.));
#433=CARTESIAN_POINT('',(-2.65,37.85,0.));
#434=CARTESIAN_POINT('',(-4.5,37.85,0.));
#435=CARTESIAN_POINT('',(-6.35,37.85,0.));
#436=CARTESIAN_POINT('',(-6.35,36.,0.));
#437=CARTESIAN_POINT('',(-6.35,34.15,0.));
#438=CARTESIAN_POINT('',(-4.5,34.15,0.));
#439=CARTESIAN_POINT('',(-2.65,34.15,0.));
#440=CARTESIAN_POINT('',(-2.65,36.,0.));
#441=(BOUNDED_CURVE()
B_SPLINE_CURVE(2,(#432,#433,#434,#435,#436,#437,#438,#439,#440),.UNSPECIFIED.,.T.,.F.)
B_SPLINE_CURVE_WITH_KNOTS((3,2,2,2,3),(0.,1.570796327,3.141592654,4.71238898,6.283185307),.UNSPECIFIED.)
CURVE()
GEOMETRIC_REPRESENTATION_ITEM()
RATIONAL_B_SPLINE_CURVE((1.,0.707106781,1.,0.707106781,1.,0.707106781,1.,0.707106781,1.))
REPRESENTATION_ITEM(''));
#442=EDGE_CURVE('',#429,#431,#441,.T.);
#443=ORIENTED_EDGE('',*,*,#442,.F.);
#444=CARTESIAN_POINT('',(-2.65,36.,0.));
#445=CARTESIAN_POINT('',(-2.65,37.85,0.));
#446=CARTESIAN_POINT('',(-4.5,37.85,0.));
#447=CARTESIAN_POINT('',(-6.35,37.85,0.));
#448=CARTESIAN_POINT('',(-6.35,36.,0.));
#449=CARTESIAN_POINT('',(-6.35,34.15,0.));
#450=CARTESIAN_POINT('',(-4.5,34.15,0.));
#451=CARTESIAN_POINT('',(-2.65,34.15,0.));
#452=CARTESIAN_POINT('',(-2.65,36.,0.));
#453=(BOUNDED_CURVE()
B_SPLINE_CURVE(2,(#444,#445,#446,#447,#448,#449,#450,#451,#452),.UNSPECIFIED.,.T.,.F.)
B_SPLINE_CURVE_WITH_KNOTS((3,2,2,2,3),(0.,1.570796327,3.141592654,4.71238898,6.283185307),.UNSPECIFIED.)
CURVE()
GEOMETRIC_REPRESENTATION_ITEM()
RATIONAL_B_SPLINE_CURVE((1.,0.707106781,1.,0.707106781,1.,0.707106781,1.,0.707106781,1.))
REPRESENTATION_ITEM(''));
#454=EDGE_CURVE('',#431,#429,#453,.T.);
#455=ORIENTED_EDGE('',*,*,#454,.F.);
#456=EDGE_LOOP('',(#443,#455));
#457=FACE_BOUND('',#456,.T.);
#458=ADVANCED_FACE('',(#277,#307,#337,#367,#397,#427,#457),#247,.T.);
#459=CARTESIAN_POINT('',(9.,-40.5,-3.));
#460=CARTESIAN_POINT('',(9.,40.5,-3.));
#461=CARTESIAN_POINT('',(9.,-40.5,0.));
#462=CARTESIAN_POINT('',(9.,40.5,0.));
#463=B_SPLINE_SURFACE_WITH_KNOTS('',1,1,((#459,#460),(#461,#462)),.UNSPECIFIED.,.F.,.F.,.U.,(2,2),(2,2),(-0.,0.003),(-0.009,0.072),.UNSPECIFIED.);
#464=ORIENTED_EDGE('',*,*,#345,.T.);
#465=CARTESIAN_POINT('',(9.,-40.5,-3.));
#466=CARTESIAN_POINT('',(9.,-40.5,0.));
#467=B_SPLINE_CURVE_WITH_KNOTS('',1,(#465,#466),.UNSPECIFIED.,.F.,.F.,(2,2),(0.,0.003),.UNSPECIFIED.);
#468=EDGE_CURVE('',#95,#341,#467,.T.);
#469=ORIENTED_EDGE('',*,*,#468,.F.);
#470=ORIENTED_EDGE('',*,*,#99,.F.);
#471=CARTESIAN_POINT('',(9.,40.5,-3.));
#472=CARTESIAN_POINT('',(9.,40.5,0.));
#473=B_SPLINE_CURVE_WITH_KNOTS('',1,(#471,#472),.UNSPECIFIED.,.F.,.F.,(2,2),(0.,0.003),.UNSPECIFIED.);
#474=EDGE_CURVE('',#93,#339,#473,.T.);
#475=ORIENTED_EDGE('',*,*,#474,.T.);
#476=EDGE_LOOP('',(#464,#469,#470,#475));
#477=FACE_BOUND('',#476,.T.);
#478=ADVANCED_FACE('',(#477),#463,.F.);
#479=CARTESIAN_POINT('',(-9.,40.5,-3.));
#480=CARTESIAN_POINT('',(9.,40.5,-3.));
#481=CARTESIAN_POINT('',(-9.,40.5,0.));
#482=CARTESIAN_POINT('',(9.,40.5,0.));
#483=B_SPLINE_SURFACE_WITH_KNOTS('',1,1,((#479,#480),(#481,#482)),.UNSPECIFIED.,.F.,.F.,.U.,(2,2),(2,2),(0.,0.003),(-0.018,0.),.UNSPECIFIED.);
#484=ORIENTED_EDGE('',*,*,#352,.F.);
#485=ORIENTED_EDGE('',*,*,#474,.F.);
#486=ORIENTED_EDGE('',*,*,#118,.T.);
#487=CARTESIAN_POINT('',(-9.,40.5,-3.));
#488=CARTESIAN_POINT('',(-9.,40.5,0.));
#489=B_SPLINE_CURVE_WITH_KNOTS('',1,(#487,#488),.UNSPECIFIED.,.F.,.F.,(2,2),(0.,0.003),.UNSPECIFIED.);
#490=EDGE_CURVE('',#109,#348,#489,.T.);
#491=ORIENTED_EDGE('',*,*,#490,.T.);
#492=EDGE_LOOP('',(#484,#485,#486,#491));
#493=FACE_BOUND('',#492,.T.);
#494=ADVANCED_FACE('',(#493),#483,.T.);
#495=CARTESIAN_POINT('',(-9.,-40.5,0.));
#496=CARTESIAN_POINT('',(-9.,40.5,0.));
#497=CARTESIAN_POINT('',(-9.,-40.5,-3.));
#498=CARTESIAN_POINT('',(-9.,40.5,-3.));
#499=B_SPLINE_SURFACE_WITH_KNOTS('',1,1,((#495,#496),(#497,#498)),.UNSPECIFIED.,.F.,.F.,.U.,(2,2),(2,2),(-0.003,0.),(0.,0.081),.UNSPECIFIED.);
#500=ORIENTED_EDGE('',*,*,#359,.T.);
#501=ORIENTED_EDGE('',*,*,#490,.F.);
#502=ORIENTED_EDGE('',*,*,#113,.F.);
#503=CARTESIAN_POINT('',(-9.,-40.5,-3.));
#504=CARTESIAN_POINT('',(-9.,-40.5,0.));
#505=B_SPLINE_CURVE_WITH_KNOTS('',1,(#503,#504),.UNSPECIFIED.,.F.,.F.,(2,2),(0.,0.003),.UNSPECIFIED.);
#506=EDGE_CURVE('',#102,#355,#505,.T.);
#507=ORIENTED_EDGE('',*,*,#506,.T.);
#508=EDGE_LOOP('',(#500,#501,#502,#507));
#509=FACE_BOUND('',#508,.T.);
#510=ADVANCED_FACE('',(#509),#499,.F.);
#511=CARTESIAN_POINT('',(-9.,-40.5,-3.));
#512=CARTESIAN_POINT('',(9.,-40.5,-3.));
#513=CARTESIAN_POINT('',(-9.,-40.5,0.));
#514=CARTESIAN_POINT('',(9.,-40.5,0.));
#515=B_SPLINE_SURFACE_WITH_KNOTS('',1,1,((#511,#512),(#513,#514)),.UNSPECIFIED.,.F.,.F.,.U.,(2,2),(2,2),(0.,0.003),(-0.018,0.),.UNSPECIFIED.);
#516=ORIENTED_EDGE('',*,*,#364,.T.);
#517=ORIENTED_EDGE('',*,*,#506,.F.);
#518=ORIENTED_EDGE('',*,*,#106,.F.);
#519=ORIENTED_EDGE('',*,*,#468,.T.);
#520=EDGE_LOOP('',(#516,#517,#518,#519));
#521=FACE_BOUND('',#520,.T.);
#522=ADVANCED_FACE('',(#521),#515,.F.);
#523=CARTESIAN_POINT('',(-4.5,-37.85,-3.));
#524=CARTESIAN_POINT('',(-4.5,-37.85,0.));
#525=CARTESIAN_POINT('',(-1.295706006,-37.85,-3.));
#526=CARTESIAN_POINT('',(-1.295706006,-37.85,0.));
#527=CARTESIAN_POINT('',(-2.897853003,-35.075,-3.));
#528=CARTESIAN_POINT('',(-2.897853003,-35.075,0.));
#529=CARTESIAN_POINT('',(-4.5,-32.3,-3.));
#530=CARTESIAN_POINT('',(-4.5,-32.3,0.));
#531=CARTESIAN_POINT('',(-6.102146997,-35.075,-3.));
#532=CARTESIAN_POINT('',(-6.102146997,-35.075,0.));
#533=CARTESIAN_POINT('',(-7.704293994,-37.85,-3.));
#534=CARTESIAN_POINT('',(-7.704293994,-37.85,0.));
#535=CARTESIAN_POINT('',(-4.5,-37.85,-3.));
#536=CARTESIAN_POINT('',(-4.5,-37.85,0.));
#537=(BOUNDED_SURFACE()
B_SPLINE_SURFACE(2,1,((#523,#524),(#525,#526),(#527,#528),(#529,#530),(#531,#532),(#533,#534),(#535,#536)),.UNSPECIFIED.,.T.,.F.,.U.)
B_SPLINE_SURFACE_WITH_KNOTS((3,2,2,3),(2,2),(0.,2.094395102,4.188790205,6.283185307),(0.024966053,0.027966053),.UNSPECIFIED.)
GEOMETRIC_REPRESENTATION_ITEM()
RATIONAL_B_SPLINE_SURFACE(((1.,1.),(0.5,0.5),(1.,1.),(0.5,0.5),(1.,1.),(0.5,0.5),(1.,1.)))
REPRESENTATION_ITEM('')
SURFACE()
);
#538=CARTESIAN_POINT('',(-4.5,-37.85,0.));
#539=CARTESIAN_POINT('',(-4.5,-37.85,-3.));
#540=B_SPLINE_CURVE_WITH_KNOTS('',1,(#538,#539),.UNSPECIFIED.,.F.,.F.,(2,2),(0.024966053,0.027966053),.UNSPECIFIED.);
#541=EDGE_CURVE('',#311,#123,#540,.T.);
#542=ORIENTED_EDGE('',*,*,#541,.F.);
#543=ORIENTED_EDGE('',*,*,#322,.F.);
#544=ORIENTED_EDGE('',*,*,#334,.F.);
#545=ORIENTED_EDGE('',*,*,#541,.T.);
#546=ORIENTED_EDGE('',*,*,#136,.T.);
#547=ORIENTED_EDGE('',*,*,#148,.T.);
#548=EDGE_LOOP('',(#542,#543,#544,#545,#546,#547));
#549=FACE_BOUND('',#548,.T.);
#550=ADVANCED_FACE('',(#549),#537,.F.);
#551=CARTESIAN_POINT('',(4.5,34.15,-3.));
#552=CARTESIAN_POINT('',(4.5,34.15,0.));
#553=CARTESIAN_POINT('',(7.704293994,34.15,-3.));
#554=CARTESIAN_POINT('',(7.704293994,34.15,0.));
#555=CARTESIAN_POINT('',(6.102146997,36.925,-3.));
#556=CARTESIAN_POINT('',(6.102146997,36.925,0.));
#557=CARTESIAN_POINT('',(4.5,39.7,-3.));
#558=CARTESIAN_POINT('',(4.5,39.7,0.));
#559=CARTESIAN_POINT('',(2.897853003,36.925,-3.));
#560=CARTESIAN_POINT('',(2.897853003,36.925,0.));
#561=CARTESIAN_POINT('',(1.295706006,34.15,-3.));
#562=CARTESIAN_POINT('',(1.295706006,34.15,0.));
#563=CARTESIAN_POINT('',(4.5,34.15,-3.));
#564=CARTESIAN_POINT('',(4.5,34.15,0.));
#565=(BOUNDED_SURFACE()
B_SPLINE_SURFACE(2,1,((#551,#552),(#553,#554),(#555,#556),(#557,#558),(#559,#560),(#561,#562),(#563,#564)),.UNSPECIFIED.,.T.,.F.,.U.)
B_SPLINE_SURFACE_WITH_KNOTS((3,2,2,3),(2,2),(0.,2.094395102,4.188790205,6.283185307),(0.024966053,0.027966053),.UNSPECIFIED.)
GEOMETRIC_REPRESENTATION_ITEM()
RATIONAL_B_SPLINE_SURFACE(((1.,1.),(0.5,0.5),(1.,1.),(0.5,0.5),(1.,1.),(0.5,0.5),(1.,1.)))
REPRESENTATION_ITEM('')
SURFACE()
);
#566=CARTESIAN_POINT('',(4.5,34.15,0.));
#567=CARTESIAN_POINT('',(4.5,34.15,-3.));
#568=B_SPLINE_CURVE_WITH_KNOTS('',1,(#566,#567),.UNSPECIFIED.,.F.,.F.,(2,2),(0.024966053,0.027966053),.UNSPECIFIED.);
#569=EDGE_CURVE('',#281,#153,#568,.T.);
#570=ORIENTED_EDGE('',*,*,#569,.F.);
#571=ORIENTED_EDGE('',*,*,#292,.F.);
#572=ORIENTED_EDGE('',*,*,#304,.F.);
#573=ORIENTED_EDGE('',*,*,#569,.T.);
#574=ORIENTED_EDGE('',*,*,#166,.T.);
#575=ORIENTED_EDGE('',*,*,#178,.T.);
#576=EDGE_LOOP('',(#570,#571,#572,#573,#574,#575));
#577=FACE_BOUND('',#576,.T.);
#578=ADVANCED_FACE('',(#577),#565,.F.);
#579=CARTESIAN_POINT('',(4.5,-37.85,-3.));
#580=CARTESIAN_POINT('',(4.5,-37.85,0.));
#581=CARTESIAN_POINT('',(7.704293994,-37.85,-3.));
#582=CARTESIAN_POINT('',(7.704293994,-37.85,0.));
#583=CARTESIAN_POINT('',(6.102146997,-35.075,-3.));
#584=CARTESIAN_POINT('',(6.102146997,-35.075,0.));
#585=CARTESIAN_POINT('',(4.5,-32.3,-3.));
#586=CARTESIAN_POINT('',(4.5,-32.3,0.));
#587=CARTESIAN_POINT('',(2.897853003,-35.075,-3.));
#588=CARTESIAN_POINT('',(2.897853003,-35.075,0.));
#589=CARTESIAN_POINT('',(1.295706006,-37.85,-3.));
#590=CARTESIAN_POINT('',(1.295706006,-37.85,0.));
#591=CARTESIAN_POINT('',(4.5,-37.85,-3.));
#592=CARTESIAN_POINT('',(4.5,-37.85,0.));
#593=(BOUNDED_SURFACE()
B_SPLINE_SURFACE(2,1,((#579,#580),(#581,#582),(#583,#584),(#585,#586),(#587,#588),(#589,#590),(#591,#592)),.UNSPECIFIED.,.T.,.F.,.U.)
B_SPLINE_SURFACE_WITH_KNOTS((3,2,2,3),(2,2),(0.,2.094395102,4.188790205,6.283185307),(0.024966053,0.027966053),.UNSPECIFIED.)
GEOMETRIC_REPRESENTATION_ITEM()
RATIONAL_B_SPLINE_SURFACE(((1.,1.),(0.5,0.5),(1.,1.),(0.5,0.5),(1.,1.),(0.5,0.5),(1.,1.)))
REPRESENTATION_ITEM('')
SURFACE()
);
#594=CARTESIAN_POINT('',(4.5,-37.85,0.));
#595=CARTESIAN_POINT('',(4.5,-37.85,-3.));
#596=B_SPLINE_CURVE_WITH_KNOTS('',1,(#594,#595),.UNSPECIFIED.,.F.,.F.,(2,2),(0.024966053,0.027966053),.UNSPECIFIED.);
#597=EDGE_CURVE('',#369,#185,#596,.T.);
#598=ORIENTED_EDGE('',*,*,#597,.F.);
#599=ORIENTED_EDGE('',*,*,#382,.T.);
#600=ORIENTED_EDGE('',*,*,#394,.T.);
#601=ORIENTED_EDGE('',*,*,#597,.T.);
#602=ORIENTED_EDGE('',*,*,#196,.F.);
#603=ORIENTED_EDGE('',*,*,#208,.F.);
#604=EDGE_LOOP('',(#598,#599,#600,#601,#602,#603));
#605=FACE_BOUND('',#604,.T.);
#606=ADVANCED_FACE('',(#605),#593,.F.);
#607=CARTESIAN_POINT('',(-4.5,-1.85,-3.));
#608=CARTESIAN_POINT('',(-4.5,-1.85,0.));
#609=CARTESIAN_POINT('',(-1.295706006,-1.85,-3.));
#610=CARTESIAN_POINT('',(-1.295706006,-1.85,0.));
#611=CARTESIAN_POINT('',(-2.897853003,0.925,-3.));
#612=CARTESIAN_POINT('',(-2.897853003,0.925,0.));
#613=CARTESIAN_POINT('',(-4.5,3.7,-3.));
#614=CARTESIAN_POINT('',(-4.5,3.7,0.));
#615=CARTESIAN_POINT('',(-6.102146997,0.925,-3.));
#616=CARTESIAN_POINT('',(-6.102146997,0.925,0.));
#617=CARTESIAN_POINT('',(-7.704293994,-1.85,-3.));
#618=CARTESIAN_POINT('',(-7.704293994,-1.85,0.));
#619=CARTESIAN_POINT('',(-4.5,-1.85,-3.));
#620=CARTESIAN_POINT('',(-4.5,-1.85,0.));
#621=(BOUNDED_SURFACE()
B_SPLINE_SURFACE(2,1,((#607,#608),(#609,#610),(#611,#612),(#613,#614),(#615,#616),(#617,#618),(#619,#620)),.UNSPECIFIED.,.T.,.F.,.U.)
B_SPLINE_SURFACE_WITH_KNOTS((3,2,2,3),(2,2),(0.,2.094395102,4.188790205,6.283185307),(0.024966053,0.027966053),.UNSPECIFIED.)
GEOMETRIC_REPRESENTATION_ITEM()
RATIONAL_B_SPLINE_SURFACE(((1.,1.),(0.5,0.5),(1.,1.),(0.5,0.5),(1.,1.),(0.5,0.5),(1.,1.)))
REPRESENTATION_ITEM('')
SURFACE()
);
#622=CARTESIAN_POINT('',(-4.5,-1.85,0.));
#623=CARTESIAN_POINT('',(-4.5,-1.85,-3.));
#624=B_SPLINE_CURVE_WITH_KNOTS('',1,(#622,#623),.UNSPECIFIED.,.F.,.F.,(2,2),(0.024966053,0.027966053),.UNSPECIFIED.);
#625=EDGE_CURVE('',#251,#63,#624,.T.);
#626=ORIENTED_EDGE('',*,*,#625,.F.);
#627=ORIENTED_EDGE('',*,*,#262,.F.);
#628=ORIENTED_EDGE('',*,*,#274,.F.);
#629=ORIENTED_EDGE('',*,*,#625,.T.);
#630=ORIENTED_EDGE('',*,*,#76,.T.);
#631=ORIENTED_EDGE('',*,*,#88,.T.);
#632=EDGE_LOOP('',(#626,#627,#628,#629,#630,#631));
#633=FACE_BOUND('',#632,.T.);
#634=ADVANCED_FACE('',(#633),#621,.F.);
#635=CARTESIAN_POINT('',(4.5,-1.85,-3.));
#636=CARTESIAN_POINT('',(4.5,-1.85,0.));
#637=CARTESIAN_POINT('',(7.704293994,-1.85,-3.));
#638=CARTESIAN_POINT('',(7.704293994,-1.85,0.));
#639=CARTESIAN_POINT('',(6.102146997,0.925,-3.));
#640=CARTESIAN_POINT('',(6.102146997,0.925,0.));
#641=CARTESIAN_POINT('',(4.5,3.7,-3.));
#642=CARTESIAN_POINT('',(4.5,3.7,0.));
#643=CARTESIAN_POINT('',(2.897853003,0.925,-3.));
#644=CARTESIAN_POINT('',(2.897853003,0.925,0.));
#645=CARTESIAN_POINT('',(1.295706006,-1.85,-3.));
#646=CARTESIAN_POINT('',(1.295706006,-1.85,0.));
#647=CARTESIAN_POINT('',(4.5,-1.85,-3.));
#648=CARTESIAN_POINT('',(4.5,-1.85,0.));
#649=(BOUNDED_SURFACE()
B_SPLINE_SURFACE(2,1,((#635,#636),(#637,#638),(#639,#640),(#641,#642),(#643,#644),(#645,#646),(#647,#648)),.UNSPECIFIED.,.T.,.F.,.U.)
B_SPLINE_SURFACE_WITH_KNOTS((3,2,2,3),(2,2),(0.,2.094395102,4.188790205,6.283185307),(0.024966053,0.027966053),.UNSPECIFIED.)
GEOMETRIC_REPRESENTATION_ITEM()
RATIONAL_B_SPLINE_SURFACE(((1.,1.),(0.5,0.5),(1.,1.),(0.5,0.5),(1.,1.),(0.5,0.5),(1.,1.)))
REPRESENTATION_ITEM('')
SURFACE()
);
#650=CARTESIAN_POINT('',(4.5,-1.85,0.));
#651=CARTESIAN_POINT('',(4.5,-1.85,-3.));
#652=B_SPLINE_CURVE_WITH_KNOTS('',1,(#650,#651),.UNSPECIFIED.,.F.,.F.,(2,2),(0.024966053,0.027966053),.UNSPECIFIED.);
#653=EDGE_CURVE('',#399,#35,#652,.T.);
#654=ORIENTED_EDGE('',*,*,#653,.F.);
#655=ORIENTED_EDGE('',*,*,#412,.T.);
#656=ORIENTED_EDGE('',*,*,#424,.T.);
#657=ORIENTED_EDGE('',*,*,#653,.T.);
#658=ORIENTED_EDGE('',*,*,#46,.F.);
#659=ORIENTED_EDGE('',*,*,#58,.F.);
#660=EDGE_LOOP('',(#654,#655,#656,#657,#658,#659));
#661=FACE_BOUND('',#660,.T.);
#662=ADVANCED_FACE('',(#661),#649,.F.);
#663=CARTESIAN_POINT('',(-4.5,34.15,-3.));
#664=CARTESIAN_POINT('',(-4.5,34.15,0.));
#665=CARTESIAN_POINT('',(-1.295706006,34.15,-3.));
#666=CARTESIAN_POINT('',(-1.295706006,34.15,0.));
#667=CARTESIAN_POINT('',(-2.897853003,36.925,-3.));
#668=CARTESIAN_POINT('',(-2.897853003,36.925,0.));
#669=CARTESIAN_POINT('',(-4.5,39.7,-3.));
#670=CARTESIAN_POINT('',(-4.5,39.7,0.));
#671=CARTESIAN_POINT('',(-6.102146997,36.925,-3.));
#672=CARTESIAN_POINT('',(-6.102146997,36.925,0.));
#673=CARTESIAN_POINT('',(-7.704293994,34.15,-3.));
#674=CARTESIAN_POINT('',(-7.704293994,34.15,0.));
#675=CARTESIAN_POINT('',(-4.5,34.15,-3.));
#676=CARTESIAN_POINT('',(-4.5,34.15,0.));
#677=(BOUNDED_SURFACE()
B_SPLINE_SURFACE(2,1,((#663,#664),(#665,#666),(#667,#668),(#669,#670),(#671,#672),(#673,#674),(#675,#676)),.UNSPECIFIED.,.T.,.F.,.U.)
B_SPLINE_SURFACE_WITH_KNOTS((3,2,2,3),(2,2),(0.,2.094395102,4.188790205,6.283185307),(0.024966053,0.027966053),.UNSPECIFIED.)
GEOMETRIC_REPRESENTATION_ITEM()
RATIONAL_B_SPLINE_SURFACE(((1.,1.),(0.5,0.5),(1.,1.),(0.5,0.5),(1.,1.),(0.5,0.5),(1.,1.)))
REPRESENTATION_ITEM('')
SURFACE()
);
#678=CARTESIAN_POINT('',(-4.5,34.15,0.));
#679=CARTESIAN_POINT('',(-4.5,34.15,-3.));
#680=B_SPLINE_CURVE_WITH_KNOTS('',1,(#678,#679),.UNSPECIFIED.,.F.,.F.,(2,2),(0.024966053,0.027966053),.UNSPECIFIED.);
#681=EDGE_CURVE('',#429,#215,#680,.T.);
#682=ORIENTED_EDGE('',*,*,#681,.F.);
#683=ORIENTED_EDGE('',*,*,#442,.T.);
#684=ORIENTED_EDGE('',*,*,#454,.T.);
#685=ORIENTED_EDGE('',*,*,#681,.T.);
#686=ORIENTED_EDGE('',*,*,#226,.F.);
#687=ORIENTED_EDGE('',*,*,#238,.F.);
#688=EDGE_LOOP('',(#682,#683,#684,#685,#686,#687));
#689=FACE_BOUND('',#688,.T.);
#690=ADVANCED_FACE('',(#689),#677,.F.);
#691=CLOSED_SHELL('',(#242,#458,#478,#494,#510,#522,#550,#578,#606,#634,#662,#690));
#692=MANIFOLD_SOLID_BREP('Extruded.004',#691);
#26=STYLED_ITEM('',(),#692);
#694=CARTESIAN_POINT('',(-9.,-40.5,7.));
#695=CARTESIAN_POINT('',(-9.,-31.5,7.));
#696=CARTESIAN_POINT('',(9.,-40.5,7.));
#697=CARTESIAN_POINT('',(9.,-31.5,7.));
#698=B_SPLINE_SURFACE_WITH_KNOTS('',1,1,((#694,#695),(#696,#697)),.UNSPECIFIED.,.F.,.F.,.U.,(2,2),(2,2),(-0.009,0.009),(-0.0405,-0.0315),.UNSPECIFIED.);
#699=CARTESIAN_POINT('',(-3.55715216,-37.591709129,7.));
#700=VERTEX_POINT('',#699);
#701=CARTESIAN_POINT('',(-4.5,-37.85,7.));
#702=VERTEX_POINT('',#701);
#703=CARTESIAN_POINT('',(-3.55715216,-37.591709129,7.));
#704=CARTESIAN_POINT('',(-5.148861289,-38.534556969,7.));
#705=CARTESIAN_POINT('',(-6.091709129,-36.94284784,7.));
#706=CARTESIAN_POINT('',(-7.034556969,-35.351138711,7.));
#707=CARTESIAN_POINT('',(-5.44284784,-34.408290871,7.));
#708=CARTESIAN_POINT('',(-3.851138711,-33.465443031,7.));
#709=CARTESIAN_POINT('',(-2.908290871,-35.05715216,7.));
#710=CARTESIAN_POINT('',(-1.965443031,-36.648861289,7.));
#711=CARTESIAN_POINT('',(-3.55715216,-37.591709129,7.));
#712=(BOUNDED_CURVE()
B_SPLINE_CURVE(2,(#703,#704,#705,#706,#707,#708,#709,#710,#711),.UNSPECIFIED.,.T.,.F.)
B_SPLINE_CURVE_WITH_KNOTS((3,2,2,2,3),(0.,1.570796327,3.141592654,4.71238898,6.283185307),.UNSPECIFIED.)
CURVE()
GEOMETRIC_REPRESENTATION_ITEM()
RATIONAL_B_SPLINE_CURVE((1.,0.707106781,1.,0.707106781,1.,0.707106781,1.,0.707106781,1.))
REPRESENTATION_ITEM(''));
#713=EDGE_CURVE('',#700,#702,#712,.T.);
#714=ORIENTED_EDGE('',*,*,#713,.T.);
#715=CARTESIAN_POINT('',(-3.55715216,-37.591709129,7.));
#716=CARTESIAN_POINT('',(-5.148861289,-38.534556969,7.));
#717=CARTESIAN_POINT('',(-6.091709129,-36.94284784,7.));
#718=CARTESIAN_POINT('',(-7.034556969,-35.351138711,7.));
#719=CARTESIAN_POINT('',(-5.44284784,-34.408290871,7.));
#720=CARTESIAN_POINT('',(-3.851138711,-33.465443031,7.));
#721=CARTESIAN_POINT('',(-2.908290871,-35.05715216,7.));
#722=CARTESIAN_POINT('',(-1.965443031,-36.648861289,7.));
#723=CARTESIAN_POINT('',(-3.55715216,-37.591709129,7.));
#724=(BOUNDED_CURVE()
B_SPLINE_CURVE(2,(#715,#716,#717,#718,#719,#720,#721,#722,#723),.UNSPECIFIED.,.T.,.F.)
B_SPLINE_CURVE_WITH_KNOTS((3,2,2,2,3),(0.,1.570796327,3.141592654,4.71238898,6.283185307),.UNSPECIFIED.)
CURVE()
GEOMETRIC_REPRESENTATION_ITEM()
RATIONAL_B_SPLINE_CURVE((1.,0.707106781,1.,0.707106781,1.,0.707106781,1.,0.707106781,1.))
REPRESENTATION_ITEM(''));
#725=EDGE_CURVE('',#702,#700,#724,.T.);
#726=ORIENTED_EDGE('',*,*,#725,.T.);
#727=EDGE_LOOP('',(#714,#726));
#728=FACE_BOUND('',#727,.T.);
#729=CARTESIAN_POINT('',(9.,-31.5,7.));
#730=VERTEX_POINT('',#729);
#731=CARTESIAN_POINT('',(9.,-40.5,7.));
#732=VERTEX_POINT('',#731);
#733=CARTESIAN_POINT('',(9.,-31.5,7.));
#734=CARTESIAN_POINT('',(9.,-40.5,7.));
#735=B_SPLINE_CURVE_WITH_KNOTS('',1,(#733,#734),.UNSPECIFIED.,.F.,.F.,(2,2),(-0.,0.009),.UNSPECIFIED.);
#736=EDGE_CURVE('',#730,#732,#735,.T.);
#737=ORIENTED_EDGE('',*,*,#736,.F.);
#738=CARTESIAN_POINT('',(-9.,-31.5,7.));
#739=VERTEX_POINT('',#738);
#740=CARTESIAN_POINT('',(9.,-31.5,7.));
#741=CARTESIAN_POINT('',(-9.,-31.5,7.));
#742=B_SPLINE_CURVE_WITH_KNOTS('',1,(#740,#741),.UNSPECIFIED.,.F.,.F.,(2,2),(0.,0.018),.UNSPECIFIED.);
#743=EDGE_CURVE('',#730,#739,#742,.T.);
#744=ORIENTED_EDGE('',*,*,#743,.T.);
#745=CARTESIAN_POINT('',(-9.,-40.5,7.));
#746=VERTEX_POINT('',#745);
#747=CARTESIAN_POINT('',(-9.,-40.5,7.));
#748=CARTESIAN_POINT('',(-9.,-31.5,7.));
#749=B_SPLINE_CURVE_WITH_KNOTS('',1,(#747,#748),.UNSPECIFIED.,.F.,.F.,(2,2),(0.,0.009),.UNSPECIFIED.);
#750=EDGE_CURVE('',#746,#739,#749,.T.);
#751=ORIENTED_EDGE('',*,*,#750,.F.);
#752=CARTESIAN_POINT('',(9.,-40.5,7.));
#753=CARTESIAN_POINT('',(-9.,-40.5,7.));
#754=B_SPLINE_CURVE_WITH_KNOTS('',1,(#752,#753),.UNSPECIFIED.,.F.,.F.,(2,2),(0.,0.018),.UNSPECIFIED.);
#755=EDGE_CURVE('',#732,#746,#754,.T.);
#756=ORIENTED_EDGE('',*,*,#755,.F.);
#757=EDGE_LOOP('',(#737,#744,#751,#756));
#758=FACE_BOUND('',#757,.T.);
#759=CARTESIAN_POINT('',(4.5,-37.85,7.));
#760=VERTEX_POINT('',#759);
#761=CARTESIAN_POINT('',(3.55715216,-37.591709129,7.));
#762=VERTEX_POINT('',#761);
#763=CARTESIAN_POINT('',(3.55715216,-37.591709129,7.));
#764=CARTESIAN_POINT('',(5.148861289,-38.534556969,7.));
#765=CARTESIAN_POINT('',(6.091709129,-36.94284784,7.));
#766=CARTESIAN_POINT('',(7.034556969,-35.351138711,7.));
#767=CARTESIAN_POINT('',(5.44284784,-34.408290871,7.));
#768=CARTESIAN_POINT('',(3.851138711,-33.465443031,7.));
#769=CARTESIAN_POINT('',(2.908290871,-35.05715216,7.));
#770=CARTESIAN_POINT('',(1.965443031,-36.648861289,7.));
#771=CARTESIAN_POINT('',(3.55715216,-37.591709129,7.));
#772=(BOUNDED_CURVE()
B_SPLINE_CURVE(2,(#763,#764,#765,#766,#767,#768,#769,#770,#771),.UNSPECIFIED.,.T.,.F.)
B_SPLINE_CURVE_WITH_KNOTS((3,2,2,2,3),(0.,1.570796327,3.141592654,4.71238898,6.283185307),.UNSPECIFIED.)
CURVE()
GEOMETRIC_REPRESENTATION_ITEM()
RATIONAL_B_SPLINE_CURVE((1.,0.707106781,1.,0.707106781,1.,0.707106781,1.,0.707106781,1.))
REPRESENTATION_ITEM(''));
#773=EDGE_CURVE('',#760,#762,#772,.T.);
#774=ORIENTED_EDGE('',*,*,#773,.F.);
#775=CARTESIAN_POINT('',(3.55715216,-37.591709129,7.));
#776=CARTESIAN_POINT('',(5.148861289,-38.534556969,7.));
#777=CARTESIAN_POINT('',(6.091709129,-36.94284784,7.));
#778=CARTESIAN_POINT('',(7.034556969,-35.351138711,7.));
#779=CARTESIAN_POINT('',(5.44284784,-34.408290871,7.));
#780=CARTESIAN_POINT('',(3.851138711,-33.465443031,7.));
#781=CARTESIAN_POINT('',(2.908290871,-35.05715216,7.));
#782=CARTESIAN_POINT('',(1.965443031,-36.648861289,7.));
#783=CARTESIAN_POINT('',(3.55715216,-37.591709129,7.));
#784=(BOUNDED_CURVE()
B_SPLINE_CURVE(2,(#775,#776,#777,#778,#779,#780,#781,#782,#783),.UNSPECIFIED.,.T.,.F.)
B_SPLINE_CURVE_WITH_KNOTS((3,2,2,2,3),(0.,1.570796327,3.141592654,4.71238898,6.283185307),.UNSPECIFIED.)
CURVE()
GEOMETRIC_REPRESENTATION_ITEM()
RATIONAL_B_SPLINE_CURVE((1.,0.707106781,1.,0.707106781,1.,0.707106781,1.,0.707106781,1.))
REPRESENTATION_ITEM(''));
#785=EDGE_CURVE('',#762,#760,#784,.T.);
#786=ORIENTED_EDGE('',*,*,#785,.F.);
#787=EDGE_LOOP('',(#774,#786));
#788=FACE_BOUND('',#787,.T.);
#789=ADVANCED_FACE('',(#728,#758,#788),#698,.T.);
#790=CARTESIAN_POINT('',(-9.,-40.5,0.));
#791=CARTESIAN_POINT('',(-9.,-31.5,0.));
#792=CARTESIAN_POINT('',(9.,-40.5,0.));
#793=CARTESIAN_POINT('',(9.,-31.5,0.));
#794=B_SPLINE_SURFACE_WITH_KNOTS('',1,1,((#790,#791),(#792,#793)),.UNSPECIFIED.,.F.,.F.,.U.,(2,2),(2,2),(-0.009,0.009),(-0.0405,-0.0315),.UNSPECIFIED.);
#795=CARTESIAN_POINT('',(9.,-31.5,0.));
#796=VERTEX_POINT('',#795);
#797=CARTESIAN_POINT('',(9.,-40.5,0.));
#798=VERTEX_POINT('',#797);
#799=CARTESIAN_POINT('',(9.,-31.5,0.));
#800=CARTESIAN_POINT('',(9.,-40.5,0.));
#801=B_SPLINE_CURVE_WITH_KNOTS('',1,(#799,#800),.UNSPECIFIED.,.F.,.F.,(2,2),(0.,0.009),.UNSPECIFIED.);
#802=EDGE_CURVE('',#796,#798,#801,.T.);
#803=ORIENTED_EDGE('',*,*,#802,.T.);
#804=CARTESIAN_POINT('',(-9.,-40.5,0.));
#805=VERTEX_POINT('',#804);
#806=CARTESIAN_POINT('',(9.,-40.5,0.));
#807=CARTESIAN_POINT('',(-9.,-40.5,0.));
#808=B_SPLINE_CURVE_WITH_KNOTS('',1,(#806,#807),.UNSPECIFIED.,.F.,.F.,(2,2),(0.,0.018),.UNSPECIFIED.);
#809=EDGE_CURVE('',#798,#805,#808,.T.);
#810=ORIENTED_EDGE('',*,*,#809,.T.);
#811=CARTESIAN_POINT('',(-9.,-31.5,0.));
#812=VERTEX_POINT('',#811);
#813=CARTESIAN_POINT('',(-9.,-40.5,0.));
#814=CARTESIAN_POINT('',(-9.,-31.5,0.));
#815=B_SPLINE_CURVE_WITH_KNOTS('',1,(#813,#814),.UNSPECIFIED.,.F.,.F.,(2,2),(-0.,0.009),.UNSPECIFIED.);
#816=EDGE_CURVE('',#805,#812,#815,.T.);
#817=ORIENTED_EDGE('',*,*,#816,.T.);
#818=CARTESIAN_POINT('',(9.,-31.5,0.));
#819=CARTESIAN_POINT('',(-9.,-31.5,0.));
#820=B_SPLINE_CURVE_WITH_KNOTS('',1,(#818,#819),.UNSPECIFIED.,.F.,.F.,(2,2),(0.,0.018),.UNSPECIFIED.);
#821=EDGE_CURVE('',#796,#812,#820,.T.);
#822=ORIENTED_EDGE('',*,*,#821,.F.);
#823=EDGE_LOOP('',(#803,#810,#817,#822));
#824=FACE_BOUND('',#823,.T.);
#825=CARTESIAN_POINT('',(-4.5,-37.85,0.));
#826=VERTEX_POINT('',#825);
#827=CARTESIAN_POINT('',(-2.65,-36.,0.));
#828=VERTEX_POINT('',#827);
#829=CARTESIAN_POINT('',(-2.65,-36.,0.));
#830=CARTESIAN_POINT('',(-2.65,-37.85,0.));
#831=CARTESIAN_POINT('',(-4.5,-37.85,0.));
#832=CARTESIAN_POINT('',(-6.35,-37.85,0.));
#833=CARTESIAN_POINT('',(-6.35,-36.,0.));
#834=CARTESIAN_POINT('',(-6.35,-34.15,0.));
#835=CARTESIAN_POINT('',(-4.5,-34.15,0.));
#836=CARTESIAN_POINT('',(-2.65,-34.15,0.));
#837=CARTESIAN_POINT('',(-2.65,-36.,0.));
#838=(BOUNDED_CURVE()
B_SPLINE_CURVE(2,(#829,#830,#831,#832,#833,#834,#835,#836,#837),.UNSPECIFIED.,.T.,.F.)
B_SPLINE_CURVE_WITH_KNOTS((3,2,2,2,3),(0.,1.570796327,3.141592654,4.71238898,6.283185307),.UNSPECIFIED.)
CURVE()
GEOMETRIC_REPRESENTATION_ITEM()
RATIONAL_B_SPLINE_CURVE((1.,0.707106781,1.,0.707106781,1.,0.707106781,1.,0.707106781,1.))
REPRESENTATION_ITEM(''));
#839=EDGE_CURVE('',#826,#828,#838,.T.);
#840=ORIENTED_EDGE('',*,*,#839,.F.);
#841=CARTESIAN_POINT('',(-2.65,-36.,0.));
#842=CARTESIAN_POINT('',(-2.65,-37.85,0.));
#843=CARTESIAN_POINT('',(-4.5,-37.85,0.));
#844=CARTESIAN_POINT('',(-6.35,-37.85,0.));
#845=CARTESIAN_POINT('',(-6.35,-36.,0.));
#846=CARTESIAN_POINT('',(-6.35,-34.15,0.));
#847=CARTESIAN_POINT('',(-4.5,-34.15,0.));
#848=CARTESIAN_POINT('',(-2.65,-34.15,0.));
#849=CARTESIAN_POINT('',(-2.65,-36.,0.));
#850=(BOUNDED_CURVE()
B_SPLINE_CURVE(2,(#841,#842,#843,#844,#845,#846,#847,#848,#849),.UNSPECIFIED.,.T.,.F.)
B_SPLINE_CURVE_WITH_KNOTS((3,2,2,2,3),(0.,1.570796327,3.141592654,4.71238898,6.283185307),.UNSPECIFIED.)
CURVE()
GEOMETRIC_REPRESENTATION_ITEM()
RATIONAL_B_SPLINE_CURVE((1.,0.707106781,1.,0.707106781,1.,0.707106781,1.,0.707106781,1.))
REPRESENTATION_ITEM(''));
#851=EDGE_CURVE('',#828,#826,#850,.T.);
#852=ORIENTED_EDGE('',*,*,#851,.F.);
#853=EDGE_LOOP('',(#840,#852));
#854=FACE_BOUND('',#853,.T.);
#855=CARTESIAN_POINT('',(6.35,-36.,0.));
#856=VERTEX_POINT('',#855);
#857=CARTESIAN_POINT('',(4.5,-37.85,0.));
#858=VERTEX_POINT('',#857);
#859=CARTESIAN_POINT('',(6.35,-36.,0.));
#860=CARTESIAN_POINT('',(6.35,-34.15,0.));
#861=CARTESIAN_POINT('',(4.5,-34.15,0.));
#862=CARTESIAN_POINT('',(2.65,-34.15,0.));
#863=CARTESIAN_POINT('',(2.65,-36.,0.));
#864=CARTESIAN_POINT('',(2.65,-37.85,0.));
#865=CARTESIAN_POINT('',(4.5,-37.85,0.));
#866=CARTESIAN_POINT('',(6.35,-37.85,0.));
#867=CARTESIAN_POINT('',(6.35,-36.,0.));
#868=(BOUNDED_CURVE()
B_SPLINE_CURVE(2,(#859,#860,#861,#862,#863,#864,#865,#866,#867),.UNSPECIFIED.,.T.,.F.)
B_SPLINE_CURVE_WITH_KNOTS((3,2,2,2,3),(0.,1.570796327,3.141592654,4.71238898,6.283185307),.UNSPECIFIED.)
CURVE()
GEOMETRIC_REPRESENTATION_ITEM()
RATIONAL_B_SPLINE_CURVE((1.,0.707106781,1.,0.707106781,1.,0.707106781,1.,0.707106781,1.))
REPRESENTATION_ITEM(''));
#869=EDGE_CURVE('',#856,#858,#868,.T.);
#870=ORIENTED_EDGE('',*,*,#869,.T.);
#871=CARTESIAN_POINT('',(6.35,-36.,0.));
#872=CARTESIAN_POINT('',(6.35,-34.15,0.));
#873=CARTESIAN_POINT('',(4.5,-34.15,0.));
#874=CARTESIAN_POINT('',(2.65,-34.15,0.));
#875=CARTESIAN_POINT('',(2.65,-36.,0.));
#876=CARTESIAN_POINT('',(2.65,-37.85,0.));
#877=CARTESIAN_POINT('',(4.5,-37.85,0.));
#878=CARTESIAN_POINT('',(6.35,-37.85,0.));
#879=CARTESIAN_POINT('',(6.35,-36.,0.));
#880=(BOUNDED_CURVE()
B_SPLINE_CURVE(2,(#871,#872,#873,#874,#875,#876,#877,#878,#879),.UNSPECIFIED.,.T.,.F.)
B_SPLINE_CURVE_WITH_KNOTS((3,2,2,2,3),(0.,1.570796327,3.141592654,4.71238898,6.283185307),.UNSPECIFIED.)
CURVE()
GEOMETRIC_REPRESENTATION_ITEM()
RATIONAL_B_SPLINE_CURVE((1.,0.707106781,1.,0.707106781,1.,0.707106781,1.,0.707106781,1.))
REPRESENTATION_ITEM(''));
#881=EDGE_CURVE('',#858,#856,#880,.T.);
#882=ORIENTED_EDGE('',*,*,#881,.T.);
#883=EDGE_LOOP('',(#870,#882));
#884=FACE_BOUND('',#883,.T.);
#885=ADVANCED_FACE('',(#824,#854,#884),#794,.F.);
#886=CARTESIAN_POINT('',(9.,-40.5,7.));
#887=CARTESIAN_POINT('',(9.,-31.5,7.));
#888=CARTESIAN_POINT('',(9.,-40.5,0.));
#889=CARTESIAN_POINT('',(9.,-31.5,0.));
#890=B_SPLINE_SURFACE_WITH_KNOTS('',1,1,((#886,#887),(#888,#889)),.UNSPECIFIED.,.F.,.F.,.U.,(2,2),(2,2),(-0.,0.007),(-0.009,0.),.UNSPECIFIED.);
#891=ORIENTED_EDGE('',*,*,#802,.F.);
#892=CARTESIAN_POINT('',(9.,-31.5,7.));
#893=CARTESIAN_POINT('',(9.,-31.5,0.));
#894=B_SPLINE_CURVE_WITH_KNOTS('',1,(#892,#893),.UNSPECIFIED.,.F.,.F.,(2,2),(0.,0.007),.UNSPECIFIED.);
#895=EDGE_CURVE('',#730,#796,#894,.T.);
#896=ORIENTED_EDGE('',*,*,#895,.F.);
#897=ORIENTED_EDGE('',*,*,#736,.T.);
#898=CARTESIAN_POINT('',(9.,-40.5,7.));
#899=CARTESIAN_POINT('',(9.,-40.5,0.));
#900=B_SPLINE_CURVE_WITH_KNOTS('',1,(#898,#899),.UNSPECIFIED.,.F.,.F.,(2,2),(0.,0.007),.UNSPECIFIED.);
#901=EDGE_CURVE('',#732,#798,#900,.T.);
#902=ORIENTED_EDGE('',*,*,#901,.T.);
#903=EDGE_LOOP('',(#891,#896,#897,#902));
#904=FACE_BOUND('',#903,.T.);
#905=ADVANCED_FACE('',(#904),#890,.T.);
#906=CARTESIAN_POINT('',(-9.,-31.5,7.));
#907=CARTESIAN_POINT('',(9.,-31.5,7.));
#908=CARTESIAN_POINT('',(-9.,-31.5,0.));
#909=CARTESIAN_POINT('',(9.,-31.5,0.));
#910=B_SPLINE_SURFACE_WITH_KNOTS('',1,1,((#906,#907),(#908,#909)),.UNSPECIFIED.,.F.,.F.,.U.,(2,2),(2,2),(0.,0.007),(-0.018,0.),.UNSPECIFIED.);
#911=ORIENTED_EDGE('',*,*,#821,.T.);
#912=CARTESIAN_POINT('',(-9.,-31.5,7.));
#913=CARTESIAN_POINT('',(-9.,-31.5,0.));
#914=B_SPLINE_CURVE_WITH_KNOTS('',1,(#912,#913),.UNSPECIFIED.,.F.,.F.,(2,2),(0.,0.007),.UNSPECIFIED.);
#915=EDGE_CURVE('',#739,#812,#914,.T.);
#916=ORIENTED_EDGE('',*,*,#915,.F.);
#917=ORIENTED_EDGE('',*,*,#743,.F.);
#918=ORIENTED_EDGE('',*,*,#895,.T.);
#919=EDGE_LOOP('',(#911,#916,#917,#918));
#920=FACE_BOUND('',#919,.T.);
#921=ADVANCED_FACE('',(#920),#910,.F.);
#922=CARTESIAN_POINT('',(-9.,-40.5,0.));
#923=CARTESIAN_POINT('',(-9.,-31.5,0.));
#924=CARTESIAN_POINT('',(-9.,-40.5,7.));
#925=CARTESIAN_POINT('',(-9.,-31.5,7.));
#926=B_SPLINE_SURFACE_WITH_KNOTS('',1,1,((#922,#923),(#924,#925)),.UNSPECIFIED.,.F.,.F.,.U.,(2,2),(2,2),(-0.007,0.),(0.,0.009),.UNSPECIFIED.);
#927=ORIENTED_EDGE('',*,*,#816,.F.);
#928=CARTESIAN_POINT('',(-9.,-40.5,7.));
#929=CARTESIAN_POINT('',(-9.,-40.5,0.));
#930=B_SPLINE_CURVE_WITH_KNOTS('',1,(#928,#929),.UNSPECIFIED.,.F.,.F.,(2,2),(0.,0.007),.UNSPECIFIED.);
#931=EDGE_CURVE('',#746,#805,#930,.T.);
#932=ORIENTED_EDGE('',*,*,#931,.F.);
#933=ORIENTED_EDGE('',*,*,#750,.T.);
#934=ORIENTED_EDGE('',*,*,#915,.T.);
#935=EDGE_LOOP('',(#927,#932,#933,#934));
#936=FACE_BOUND('',#935,.T.);
#937=ADVANCED_FACE('',(#936),#926,.T.);
#938=CARTESIAN_POINT('',(-9.,-40.5,7.));
#939=CARTESIAN_POINT('',(9.,-40.5,7.));
#940=CARTESIAN_POINT('',(-9.,-40.5,0.));
#941=CARTESIAN_POINT('',(9.,-40.5,0.));
#942=B_SPLINE_SURFACE_WITH_KNOTS('',1,1,((#938,#939),(#940,#941)),.UNSPECIFIED.,.F.,.F.,.U.,(2,2),(2,2),(0.,0.007),(-0.018,0.),.UNSPECIFIED.);
#943=ORIENTED_EDGE('',*,*,#809,.F.);
#944=ORIENTED_EDGE('',*,*,#901,.F.);
#945=ORIENTED_EDGE('',*,*,#755,.T.);
#946=ORIENTED_EDGE('',*,*,#931,.T.);
#947=EDGE_LOOP('',(#943,#944,#945,#946));
#948=FACE_BOUND('',#947,.T.);
#949=ADVANCED_FACE('',(#948),#942,.T.);
#950=CARTESIAN_POINT('',(-4.5,-37.85,-0.));
#951=CARTESIAN_POINT('',(-4.5,-37.85,7.));
#952=CARTESIAN_POINT('',(-1.295706006,-37.85,-0.));
#953=CARTESIAN_POINT('',(-1.295706006,-37.85,7.));
#954=CARTESIAN_POINT('',(-2.897853003,-35.075,-0.));
#955=CARTESIAN_POINT('',(-2.897853003,-35.075,7.));
#956=CARTESIAN_POINT('',(-4.5,-32.3,-0.));
#957=CARTESIAN_POINT('',(-4.5,-32.3,7.));
#958=CARTESIAN_POINT('',(-6.102146997,-35.075,-0.));
#959=CARTESIAN_POINT('',(-6.102146997,-35.075,7.));
#960=CARTESIAN_POINT('',(-7.704293994,-37.85,-0.));
#961=CARTESIAN_POINT('',(-7.704293994,-37.85,7.));
#962=CARTESIAN_POINT('',(-4.5,-37.85,-0.));
#963=CARTESIAN_POINT('',(-4.5,-37.85,7.));
#964=(BOUNDED_SURFACE()
B_SPLINE_SURFACE(2,1,((#950,#951),(#952,#953),(#954,#955),(#956,#957),(#958,#959),(#960,#961),(#962,#963)),.UNSPECIFIED.,.T.,.F.,.U.)
B_SPLINE_SURFACE_WITH_KNOTS((3,2,2,3),(2,2),(0.,2.094395102,4.188790205,6.283185307),(0.027966053,0.034966053),.UNSPECIFIED.)
GEOMETRIC_REPRESENTATION_ITEM()
RATIONAL_B_SPLINE_SURFACE(((1.,1.),(0.5,0.5),(1.,1.),(0.5,0.5),(1.,1.),(0.5,0.5),(1.,1.)))
REPRESENTATION_ITEM('')
SURFACE()
);
#965=CARTESIAN_POINT('',(-4.5,-37.85,7.));
#966=CARTESIAN_POINT('',(-4.5,-37.85,0.));
#967=B_SPLINE_CURVE_WITH_KNOTS('',1,(#965,#966),.UNSPECIFIED.,.F.,.F.,(2,2),(0.027966053,0.034966053),.UNSPECIFIED.);
#968=EDGE_CURVE('',#702,#826,#967,.T.);
#969=ORIENTED_EDGE('',*,*,#968,.F.);
#970=ORIENTED_EDGE('',*,*,#713,.F.);
#971=ORIENTED_EDGE('',*,*,#725,.F.);
#972=ORIENTED_EDGE('',*,*,#968,.T.);
#973=ORIENTED_EDGE('',*,*,#839,.T.);
#974=ORIENTED_EDGE('',*,*,#851,.T.);
#975=EDGE_LOOP('',(#969,#970,#971,#972,#973,#974));
#976=FACE_BOUND('',#975,.T.);
#977=ADVANCED_FACE('',(#976),#964,.F.);
#978=CARTESIAN_POINT('',(4.5,-37.85,-0.));
#979=CARTESIAN_POINT('',(4.5,-37.85,7.));
#980=CARTESIAN_POINT('',(7.704293994,-37.85,-0.));
#981=CARTESIAN_POINT('',(7.704293994,-37.85,7.));
#982=CARTESIAN_POINT('',(6.102146997,-35.075,-0.));
#983=CARTESIAN_POINT('',(6.102146997,-35.075,7.));
#984=CARTESIAN_POINT('',(4.5,-32.3,-0.));
#985=CARTESIAN_POINT('',(4.5,-32.3,7.));
#986=CARTESIAN_POINT('',(2.897853003,-35.075,-0.));
#987=CARTESIAN_POINT('',(2.897853003,-35.075,7.));
#988=CARTESIAN_POINT('',(1.295706006,-37.85,-0.));
#989=CARTESIAN_POINT('',(1.295706006,-37.85,7.));
#990=CARTESIAN_POINT('',(4.5,-37.85,-0.));
#991=CARTESIAN_POINT('',(4.5,-37.85,7.));
#992=(BOUNDED_SURFACE()
B_SPLINE_SURFACE(2,1,((#978,#979),(#980,#981),(#982,#983),(#984,#985),(#986,#987),(#988,#989),(#990,#991)),.UNSPECIFIED.,.T.,.F.,.U.)
B_SPLINE_SURFACE_WITH_KNOTS((3,2,2,3),(2,2),(0.,2.094395102,4.188790205,6.283185307),(0.027966053,0.034966053),.UNSPECIFIED.)
GEOMETRIC_REPRESENTATION_ITEM()
RATIONAL_B_SPLINE_SURFACE(((1.,1.),(0.5,0.5),(1.,1.),(0.5,0.5),(1.,1.),(0.5,0.5),(1.,1.)))
REPRESENTATION_ITEM('')
SURFACE()
);
#993=CARTESIAN_POINT('',(4.5,-37.85,7.));
#994=CARTESIAN_POINT('',(4.5,-37.85,0.));
#995=B_SPLINE_CURVE_WITH_KNOTS('',1,(#993,#994),.UNSPECIFIED.,.F.,.F.,(2,2),(0.027966053,0.034966053),.UNSPECIFIED.);
#996=EDGE_CURVE('',#760,#858,#995,.T.);
#997=ORIENTED_EDGE('',*,*,#996,.F.);
#998=ORIENTED_EDGE('',*,*,#773,.T.);
#999=ORIENTED_EDGE('',*,*,#785,.T.);
#1000=ORIENTED_EDGE('',*,*,#996,.T.);
#1001=ORIENTED_EDGE('',*,*,#869,.F.);
#1002=ORIENTED_EDGE('',*,*,#881,.F.);
#1003=EDGE_LOOP('',(#997,#998,#999,#1000,#1001,#1002));
#1004=FACE_BOUND('',#1003,.T.);
#1005=ADVANCED_FACE('',(#1004),#992,.F.);
#1006=CLOSED_SHELL('',(#789,#885,#905,#921,#937,#949,#977,#1005));
#1007=MANIFOLD_SOLID_BREP('Extruded.003',#1006);
#693=STYLED_ITEM('',(),#1007);
#1009=CARTESIAN_POINT('',(-9.,31.5,7.));
#1010=CARTESIAN_POINT('',(-9.,40.5,7.));
#1011=CARTESIAN_POINT('',(9.,31.5,7.));
#1012=CARTESIAN_POINT('',(9.,40.5,7.));
#1013=B_SPLINE_SURFACE_WITH_KNOTS('',1,1,((#1009,#1010),(#1011,#1012)),.UNSPECIFIED.,.F.,.F.,.U.,(2,2),(2,2),(-0.009,0.009),(0.0315,0.0405),.UNSPECIFIED.);
#1014=CARTESIAN_POINT('',(3.55715216,37.591709129,7.));
#1015=VERTEX_POINT('',#1014);
#1016=CARTESIAN_POINT('',(4.5,34.15,7.));
#1017=VERTEX_POINT('',#1016);
#1018=CARTESIAN_POINT('',(3.55715216,37.591709129,7.));
#1019=CARTESIAN_POINT('',(5.148861289,38.534556969,7.));
#1020=CARTESIAN_POINT('',(6.091709129,36.94284784,7.));
#1021=CARTESIAN_POINT('',(7.034556969,35.351138711,7.));
#1022=CARTESIAN_POINT('',(5.44284784,34.408290871,7.));
#1023=CARTESIAN_POINT('',(3.851138711,33.465443031,7.));
#1024=CARTESIAN_POINT('',(2.908290871,35.05715216,7.));
#1025=CARTESIAN_POINT('',(1.965443031,36.648861289,7.));
#1026=CARTESIAN_POINT('',(3.55715216,37.591709129,7.));
#1027=(BOUNDED_CURVE()
B_SPLINE_CURVE(2,(#1018,#1019,#1020,#1021,#1022,#1023,#1024,#1025,#1026),.UNSPECIFIED.,.T.,.F.)
B_SPLINE_CURVE_WITH_KNOTS((3,2,2,2,3),(0.,1.570796327,3.141592654,4.71238898,6.283185307),.UNSPECIFIED.)
CURVE()
GEOMETRIC_REPRESENTATION_ITEM()
RATIONAL_B_SPLINE_CURVE((1.,0.707106781,1.,0.707106781,1.,0.707106781,1.,0.707106781,1.))
REPRESENTATION_ITEM(''));
#1028=EDGE_CURVE('',#1015,#1017,#1027,.T.);
#1029=ORIENTED_EDGE('',*,*,#1028,.T.);
#1030=CARTESIAN_POINT('',(3.55715216,37.591709129,7.));
#1031=CARTESIAN_POINT('',(5.148861289,38.534556969,7.));
#1032=CARTESIAN_POINT('',(6.091709129,36.94284784,7.));
#1033=CARTESIAN_POINT('',(7.034556969,35.351138711,7.));
#1034=CARTESIAN_POINT('',(5.44284784,34.408290871,7.));
#1035=CARTESIAN_POINT('',(3.851138711,33.465443031,7.));
#1036=CARTESIAN_POINT('',(2.908290871,35.05715216,7.));
#1037=CARTESIAN_POINT('',(1.965443031,36.648861289,7.));
#1038=CARTESIAN_POINT('',(3.55715216,37.591709129,7.));
#1039=(BOUNDED_CURVE()
B_SPLINE_CURVE(2,(#1030,#1031,#1032,#1033,#1034,#1035,#1036,#1037,#1038),.UNSPECIFIED.,.T.,.F.)
B_SPLINE_CURVE_WITH_KNOTS((3,2,2,2,3),(0.,1.570796327,3.141592654,4.71238898,6.283185307),.UNSPECIFIED.)
CURVE()
GEOMETRIC_REPRESENTATION_ITEM()
RATIONAL_B_SPLINE_CURVE((1.,0.707106781,1.,0.707106781,1.,0.707106781,1.,0.707106781,1.))
REPRESENTATION_ITEM(''));
#1040=EDGE_CURVE('',#1017,#1015,#1039,.T.);
#1041=ORIENTED_EDGE('',*,*,#1040,.T.);
#1042=EDGE_LOOP('',(#1029,#1041));
#1043=FACE_BOUND('',#1042,.T.);
#1044=CARTESIAN_POINT('',(9.,40.5,7.));
#1045=VERTEX_POINT('',#1044);
#1046=CARTESIAN_POINT('',(-9.,40.5,7.));
#1047=VERTEX_POINT('',#1046);
#1048=CARTESIAN_POINT('',(9.,40.5,7.));
#1049=CARTESIAN_POINT('',(-9.,40.5,7.));
#1050=B_SPLINE_CURVE_WITH_KNOTS('',1,(#1048,#1049),.UNSPECIFIED.,.F.,.F.,(2,2),(0.,0.018),.UNSPECIFIED.);
#1051=EDGE_CURVE('',#1045,#1047,#1050,.T.);
#1052=ORIENTED_EDGE('',*,*,#1051,.T.);
#1053=CARTESIAN_POINT('',(-9.,31.5,7.));
#1054=VERTEX_POINT('',#1053);
#1055=CARTESIAN_POINT('',(-9.,40.5,7.));
#1056=CARTESIAN_POINT('',(-9.,31.5,7.));
#1057=B_SPLINE_CURVE_WITH_KNOTS('',1,(#1055,#1056),.UNSPECIFIED.,.F.,.F.,(2,2),(0.,0.009),.UNSPECIFIED.);
#1058=EDGE_CURVE('',#1047,#1054,#1057,.T.);
#1059=ORIENTED_EDGE('',*,*,#1058,.T.);
#1060=CARTESIAN_POINT('',(9.,31.5,7.));
#1061=VERTEX_POINT('',#1060);
#1062=CARTESIAN_POINT('',(-9.,31.5,7.));
#1063=CARTESIAN_POINT('',(9.,31.5,7.));
#1064=B_SPLINE_CURVE_WITH_KNOTS('',1,(#1062,#1063),.UNSPECIFIED.,.F.,.F.,(2,2),(0.,0.018),.UNSPECIFIED.);
#1065=EDGE_CURVE('',#1054,#1061,#1064,.T.);
#1066=ORIENTED_EDGE('',*,*,#1065,.T.);
#1067=CARTESIAN_POINT('',(9.,31.5,7.));
#1068=CARTESIAN_POINT('',(9.,40.5,7.));
#1069=B_SPLINE_CURVE_WITH_KNOTS('',1,(#1067,#1068),.UNSPECIFIED.,.F.,.F.,(2,2),(0.,0.009),.UNSPECIFIED.);
#1070=EDGE_CURVE('',#1061,#1045,#1069,.T.);
#1071=ORIENTED_EDGE('',*,*,#1070,.T.);
#1072=EDGE_LOOP('',(#1052,#1059,#1066,#1071));
#1073=FACE_BOUND('',#1072,.T.);
#1074=CARTESIAN_POINT('',(-4.5,34.15,7.));
#1075=VERTEX_POINT('',#1074);
#1076=CARTESIAN_POINT('',(-3.55715216,37.591709129,7.));
#1077=VERTEX_POINT('',#1076);
#1078=CARTESIAN_POINT('',(-3.55715216,37.591709129,7.));
#1079=CARTESIAN_POINT('',(-5.148861289,38.534556969,7.));
#1080=CARTESIAN_POINT('',(-6.091709129,36.94284784,7.));
#1081=CARTESIAN_POINT('',(-7.034556969,35.351138711,7.));
#1082=CARTESIAN_POINT('',(-5.44284784,34.408290871,7.));
#1083=CARTESIAN_POINT('',(-3.851138711,33.465443031,7.));
#1084=CARTESIAN_POINT('',(-2.908290871,35.05715216,7.));
#1085=CARTESIAN_POINT('',(-1.965443031,36.648861289,7.));
#1086=CARTESIAN_POINT('',(-3.55715216,37.591709129,7.));
#1087=(BOUNDED_CURVE()
B_SPLINE_CURVE(2,(#1078,#1079,#1080,#1081,#1082,#1083,#1084,#1085,#1086),.UNSPECIFIED.,.T.,.F.)
B_SPLINE_CURVE_WITH_KNOTS((3,2,2,2,3),(0.,1.570796327,3.141592654,4.71238898,6.283185307),.UNSPECIFIED.)
CURVE()
GEOMETRIC_REPRESENTATION_ITEM()
RATIONAL_B_SPLINE_CURVE((1.,0.707106781,1.,0.707106781,1.,0.707106781,1.,0.707106781,1.))
REPRESENTATION_ITEM(''));
#1088=EDGE_CURVE('',#1075,#1077,#1087,.T.);
#1089=ORIENTED_EDGE('',*,*,#1088,.F.);
#1090=CARTESIAN_POINT('',(-3.55715216,37.591709129,7.));
#1091=CARTESIAN_POINT('',(-5.148861289,38.534556969,7.));
#1092=CARTESIAN_POINT('',(-6.091709129,36.94284784,7.));
#1093=CARTESIAN_POINT('',(-7.034556969,35.351138711,7.));
#1094=CARTESIAN_POINT('',(-5.44284784,34.408290871,7.));
#1095=CARTESIAN_POINT('',(-3.851138711,33.465443031,7.));
#1096=CARTESIAN_POINT('',(-2.908290871,35.05715216,7.));
#1097=CARTESIAN_POINT('',(-1.965443031,36.648861289,7.));
#1098=CARTESIAN_POINT('',(-3.55715216,37.591709129,7.));
#1099=(BOUNDED_CURVE()
B_SPLINE_CURVE(2,(#1090,#1091,#1092,#1093,#1094,#1095,#1096,#1097,#1098),.UNSPECIFIED.,.T.,.F.)
B_SPLINE_CURVE_WITH_KNOTS((3,2,2,2,3),(0.,1.570796327,3.141592654,4.71238898,6.283185307),.UNSPECIFIED.)
CURVE()
GEOMETRIC_REPRESENTATION_ITEM()
RATIONAL_B_SPLINE_CURVE((1.,0.707106781,1.,0.707106781,1.,0.707106781,1.,0.707106781,1.))
REPRESENTATION_ITEM(''));
#1100=EDGE_CURVE('',#1077,#1075,#1099,.T.);
#1101=ORIENTED_EDGE('',*,*,#1100,.F.);
#1102=EDGE_LOOP('',(#1089,#1101));
#1103=FACE_BOUND('',#1102,.T.);
#1104=ADVANCED_FACE('',(#1043,#1073,#1103),#1013,.T.);
#1105=CARTESIAN_POINT('',(-9.,31.5,0.));
#1106=CARTESIAN_POINT('',(-9.,40.5,0.));
#1107=CARTESIAN_POINT('',(9.,31.5,0.));
#1108=CARTESIAN_POINT('',(9.,40.5,0.));
#1109=B_SPLINE_SURFACE_WITH_KNOTS('',1,1,((#1105,#1106),(#1107,#1108)),.UNSPECIFIED.,.F.,.F.,.U.,(2,2),(2,2),(-0.009,0.009),(0.0315,0.0405),.UNSPECIFIED.);
#1110=CARTESIAN_POINT('',(9.,40.5,0.));
#1111=VERTEX_POINT('',#1110);
#1112=CARTESIAN_POINT('',(-9.,40.5,0.));
#1113=VERTEX_POINT('',#1112);
#1114=CARTESIAN_POINT('',(9.,40.5,0.));
#1115=CARTESIAN_POINT('',(-9.,40.5,0.));
#1116=B_SPLINE_CURVE_WITH_KNOTS('',1,(#1114,#1115),.UNSPECIFIED.,.F.,.F.,(2,2),(0.,0.018),.UNSPECIFIED.);
#1117=EDGE_CURVE('',#1111,#1113,#1116,.T.);
#1118=ORIENTED_EDGE('',*,*,#1117,.F.);
#1119=CARTESIAN_POINT('',(9.,31.5,0.));
#1120=VERTEX_POINT('',#1119);
#1121=CARTESIAN_POINT('',(9.,31.5,0.));
#1122=CARTESIAN_POINT('',(9.,40.5,0.));
#1123=B_SPLINE_CURVE_WITH_KNOTS('',1,(#1121,#1122),.UNSPECIFIED.,.F.,.F.,(2,2),(0.,0.009),.UNSPECIFIED.);
#1124=EDGE_CURVE('',#1120,#1111,#1123,.T.);
#1125=ORIENTED_EDGE('',*,*,#1124,.F.);
#1126=CARTESIAN_POINT('',(-9.,31.5,0.));
#1127=VERTEX_POINT('',#1126);
#1128=CARTESIAN_POINT('',(-9.,31.5,0.));
#1129=CARTESIAN_POINT('',(9.,31.5,0.));
#1130=B_SPLINE_CURVE_WITH_KNOTS('',1,(#1128,#1129),.UNSPECIFIED.,.F.,.F.,(2,2),(0.,0.018),.UNSPECIFIED.);
#1131=EDGE_CURVE('',#1127,#1120,#1130,.T.);
#1132=ORIENTED_EDGE('',*,*,#1131,.F.);
#1133=CARTESIAN_POINT('',(-9.,40.5,0.));
#1134=CARTESIAN_POINT('',(-9.,31.5,0.));
#1135=B_SPLINE_CURVE_WITH_KNOTS('',1,(#1133,#1134),.UNSPECIFIED.,.F.,.F.,(2,2),(0.,0.009),.UNSPECIFIED.);
#1136=EDGE_CURVE('',#1113,#1127,#1135,.T.);
#1137=ORIENTED_EDGE('',*,*,#1136,.F.);
#1138=EDGE_LOOP('',(#1118,#1125,#1132,#1137));
#1139=FACE_BOUND('',#1138,.T.);
#1140=CARTESIAN_POINT('',(4.5,34.15,0.));
#1141=VERTEX_POINT('',#1140);
#1142=CARTESIAN_POINT('',(6.35,36.,0.));
#1143=VERTEX_POINT('',#1142);
#1144=CARTESIAN_POINT('',(6.35,36.,0.));
#1145=CARTESIAN_POINT('',(6.35,34.15,0.));
#1146=CARTESIAN_POINT('',(4.5,34.15,0.));
#1147=CARTESIAN_POINT('',(2.65,34.15,0.));
#1148=CARTESIAN_POINT('',(2.65,36.,0.));
#1149=CARTESIAN_POINT('',(2.65,37.85,0.));
#1150=CARTESIAN_POINT('',(4.5,37.85,0.));
#1151=CARTESIAN_POINT('',(6.35,37.85,0.));
#1152=CARTESIAN_POINT('',(6.35,36.,0.));
#1153=(BOUNDED_CURVE()
B_SPLINE_CURVE(2,(#1144,#1145,#1146,#1147,#1148,#1149,#1150,#1151,#1152),.UNSPECIFIED.,.T.,.F.)
B_SPLINE_CURVE_WITH_KNOTS((3,2,2,2,3),(0.,1.570796327,3.141592654,4.71238898,6.283185307),.UNSPECIFIED.)
CURVE()
GEOMETRIC_REPRESENTATION_ITEM()
RATIONAL_B_SPLINE_CURVE((1.,0.707106781,1.,0.707106781,1.,0.707106781,1.,0.707106781,1.))
REPRESENTATION_ITEM(''));
#1154=EDGE_CURVE('',#1141,#1143,#1153,.T.);
#1155=ORIENTED_EDGE('',*,*,#1154,.F.);
#1156=CARTESIAN_POINT('',(6.35,36.,0.));
#1157=CARTESIAN_POINT('',(6.35,34.15,0.));
#1158=CARTESIAN_POINT('',(4.5,34.15,0.));
#1159=CARTESIAN_POINT('',(2.65,34.15,0.));
#1160=CARTESIAN_POINT('',(2.65,36.,0.));
#1161=CARTESIAN_POINT('',(2.65,37.85,0.));
#1162=CARTESIAN_POINT('',(4.5,37.85,0.));
#1163=CARTESIAN_POINT('',(6.35,37.85,0.));
#1164=CARTESIAN_POINT('',(6.35,36.,0.));
#1165=(BOUNDED_CURVE()
B_SPLINE_CURVE(2,(#1156,#1157,#1158,#1159,#1160,#1161,#1162,#1163,#1164),.UNSPECIFIED.,.T.,.F.)
B_SPLINE_CURVE_WITH_KNOTS((3,2,2,2,3),(0.,1.570796327,3.141592654,4.71238898,6.283185307),.UNSPECIFIED.)
CURVE()
GEOMETRIC_REPRESENTATION_ITEM()
RATIONAL_B_SPLINE_CURVE((1.,0.707106781,1.,0.707106781,1.,0.707106781,1.,0.707106781,1.))
REPRESENTATION_ITEM(''));
#1166=EDGE_CURVE('',#1143,#1141,#1165,.T.);
#1167=ORIENTED_EDGE('',*,*,#1166,.F.);
#1168=EDGE_LOOP('',(#1155,#1167));
#1169=FACE_BOUND('',#1168,.T.);
#1170=CARTESIAN_POINT('',(-2.65,36.,0.));
#1171=VERTEX_POINT('',#1170);
#1172=CARTESIAN_POINT('',(-4.5,34.15,0.));
#1173=VERTEX_POINT('',#1172);
#1174=CARTESIAN_POINT('',(-2.65,36.,0.));
#1175=CARTESIAN_POINT('',(-2.65,37.85,0.));
#1176=CARTESIAN_POINT('',(-4.5,37.85,0.));
#1177=CARTESIAN_POINT('',(-6.35,37.85,0.));
#1178=CARTESIAN_POINT('',(-6.35,36.,0.));
#1179=CARTESIAN_POINT('',(-6.35,34.15,0.));
#1180=CARTESIAN_POINT('',(-4.5,34.15,0.));
#1181=CARTESIAN_POINT('',(-2.65,34.15,0.));
#1182=CARTESIAN_POINT('',(-2.65,36.,0.));
#1183=(BOUNDED_CURVE()
B_SPLINE_CURVE(2,(#1174,#1175,#1176,#1177,#1178,#1179,#1180,#1181,#1182),.UNSPECIFIED.,.T.,.F.)
B_SPLINE_CURVE_WITH_KNOTS((3,2,2,2,3),(0.,1.570796327,3.141592654,4.71238898,6.283185307),.UNSPECIFIED.)
CURVE()
GEOMETRIC_REPRESENTATION_ITEM()
RATIONAL_B_SPLINE_CURVE((1.,0.707106781,1.,0.707106781,1.,0.707106781,1.,0.707106781,1.))
REPRESENTATION_ITEM(''));
#1184=EDGE_CURVE('',#1171,#1173,#1183,.T.);
#1185=ORIENTED_EDGE('',*,*,#1184,.T.);
#1186=CARTESIAN_POINT('',(-2.65,36.,0.));
#1187=CARTESIAN_POINT('',(-2.65,37.85,0.));
#1188=CARTESIAN_POINT('',(-4.5,37.85,0.));
#1189=CARTESIAN_POINT('',(-6.35,37.85,0.));
#1190=CARTESIAN_POINT('',(-6.35,36.,0.));
#1191=CARTESIAN_POINT('',(-6.35,34.15,0.));
#1192=CARTESIAN_POINT('',(-4.5,34.15,0.));
#1193=CARTESIAN_POINT('',(-2.65,34.15,0.));
#1194=CARTESIAN_POINT('',(-2.65,36.,0.));
#1195=(BOUNDED_CURVE()
B_SPLINE_CURVE(2,(#1186,#1187,#1188,#1189,#1190,#1191,#1192,#1193,#1194),.UNSPECIFIED.,.T.,.F.)
B_SPLINE_CURVE_WITH_KNOTS((3,2,2,2,3),(0.,1.570796327,3.141592654,4.71238898,6.283185307),.UNSPECIFIED.)
CURVE()
GEOMETRIC_REPRESENTATION_ITEM()
RATIONAL_B_SPLINE_CURVE((1.,0.707106781,1.,0.707106781,1.,0.707106781,1.,0.707106781,1.))
REPRESENTATION_ITEM(''));
#1196=EDGE_CURVE('',#1173,#1171,#1195,.T.);
#1197=ORIENTED_EDGE('',*,*,#1196,.T.);
#1198=EDGE_LOOP('',(#1185,#1197));
#1199=FACE_BOUND('',#1198,.T.);
#1200=ADVANCED_FACE('',(#1139,#1169,#1199),#1109,.F.);
#1201=CARTESIAN_POINT('',(-9.,40.5,7.));
#1202=CARTESIAN_POINT('',(9.,40.5,7.));
#1203=CARTESIAN_POINT('',(-9.,40.5,0.));
#1204=CARTESIAN_POINT('',(9.,40.5,0.));
#1205=B_SPLINE_SURFACE_WITH_KNOTS('',1,1,((#1201,#1202),(#1203,#1204)),.UNSPECIFIED.,.F.,.F.,.U.,(2,2),(2,2),(0.,0.007),(-0.018,0.),.UNSPECIFIED.);
#1206=ORIENTED_EDGE('',*,*,#1117,.T.);
#1207=CARTESIAN_POINT('',(-9.,40.5,7.));
#1208=CARTESIAN_POINT('',(-9.,40.5,0.));
#1209=B_SPLINE_CURVE_WITH_KNOTS('',1,(#1207,#1208),.UNSPECIFIED.,.F.,.F.,(2,2),(0.,0.007),.UNSPECIFIED.);
#1210=EDGE_CURVE('',#1047,#1113,#1209,.T.);
#1211=ORIENTED_EDGE('',*,*,#1210,.F.);
#1212=ORIENTED_EDGE('',*,*,#1051,.F.);
#1213=CARTESIAN_POINT('',(9.,40.5,7.));
#1214=CARTESIAN_POINT('',(9.,40.5,0.));
#1215=B_SPLINE_CURVE_WITH_KNOTS('',1,(#1213,#1214),.UNSPECIFIED.,.F.,.F.,(2,2),(0.,0.007),.UNSPECIFIED.);
#1216=EDGE_CURVE('',#1045,#1111,#1215,.T.);
#1217=ORIENTED_EDGE('',*,*,#1216,.T.);
#1218=EDGE_LOOP('',(#1206,#1211,#1212,#1217));
#1219=FACE_BOUND('',#1218,.T.);
#1220=ADVANCED_FACE('',(#1219),#1205,.F.);
#1221=CARTESIAN_POINT('',(-9.,31.5,7.));
#1222=CARTESIAN_POINT('',(-9.,40.5,7.));
#1223=CARTESIAN_POINT('',(-9.,31.5,0.));
#1224=CARTESIAN_POINT('',(-9.,40.5,0.));
#1225=B_SPLINE_SURFACE_WITH_KNOTS('',1,1,((#1221,#1222),(#1223,#1224)),.UNSPECIFIED.,.F.,.F.,.U.,(2,2),(2,2),(0.,0.007),(-0.009,0.),.UNSPECIFIED.);
#1226=ORIENTED_EDGE('',*,*,#1136,.T.);
#1227=CARTESIAN_POINT('',(-9.,31.5,7.));
#1228=CARTESIAN_POINT('',(-9.,31.5,0.));
#1229=B_SPLINE_CURVE_WITH_KNOTS('',1,(#1227,#1228),.UNSPECIFIED.,.F.,.F.,(2,2),(0.,0.007),.UNSPECIFIED.);
#1230=EDGE_CURVE('',#1054,#1127,#1229,.T.);
#1231=ORIENTED_EDGE('',*,*,#1230,.F.);
#1232=ORIENTED_EDGE('',*,*,#1058,.F.);
#1233=ORIENTED_EDGE('',*,*,#1210,.T.);
#1234=EDGE_LOOP('',(#1226,#1231,#1232,#1233));
#1235=FACE_BOUND('',#1234,.T.);
#1236=ADVANCED_FACE('',(#1235),#1225,.F.);
#1237=CARTESIAN_POINT('',(-9.,31.5,0.));
#1238=CARTESIAN_POINT('',(9.,31.5,0.));
#1239=CARTESIAN_POINT('',(-9.,31.5,7.));
#1240=CARTESIAN_POINT('',(9.,31.5,7.));
#1241=B_SPLINE_SURFACE_WITH_KNOTS('',1,1,((#1237,#1238),(#1239,#1240)),.UNSPECIFIED.,.F.,.F.,.U.,(2,2),(2,2),(-0.007,0.),(0.,0.018),.UNSPECIFIED.);
#1242=ORIENTED_EDGE('',*,*,#1131,.T.);
#1243=CARTESIAN_POINT('',(9.,31.5,7.));
#1244=CARTESIAN_POINT('',(9.,31.5,0.));
#1245=B_SPLINE_CURVE_WITH_KNOTS('',1,(#1243,#1244),.UNSPECIFIED.,.F.,.F.,(2,2),(0.,0.007),.UNSPECIFIED.);
#1246=EDGE_CURVE('',#1061,#1120,#1245,.T.);
#1247=ORIENTED_EDGE('',*,*,#1246,.F.);
#1248=ORIENTED_EDGE('',*,*,#1065,.F.);
#1249=ORIENTED_EDGE('',*,*,#1230,.T.);
#1250=EDGE_LOOP('',(#1242,#1247,#1248,#1249));
#1251=FACE_BOUND('',#1250,.T.);
#1252=ADVANCED_FACE('',(#1251),#1241,.F.);
#1253=CARTESIAN_POINT('',(9.,31.5,0.));
#1254=CARTESIAN_POINT('',(9.,40.5,0.));
#1255=CARTESIAN_POINT('',(9.,31.5,7.));
#1256=CARTESIAN_POINT('',(9.,40.5,7.));
#1257=B_SPLINE_SURFACE_WITH_KNOTS('',1,1,((#1253,#1254),(#1255,#1256)),.UNSPECIFIED.,.F.,.F.,.U.,(2,2),(2,2),(-0.007,0.),(0.,0.009),.UNSPECIFIED.);
#1258=ORIENTED_EDGE('',*,*,#1124,.T.);
#1259=ORIENTED_EDGE('',*,*,#1216,.F.);
#1260=ORIENTED_EDGE('',*,*,#1070,.F.);
#1261=ORIENTED_EDGE('',*,*,#1246,.T.);
#1262=EDGE_LOOP('',(#1258,#1259,#1260,#1261));
#1263=FACE_BOUND('',#1262,.T.);
#1264=ADVANCED_FACE('',(#1263),#1257,.F.);
#1265=CARTESIAN_POINT('',(4.5,34.15,-0.));
#1266=CARTESIAN_POINT('',(4.5,34.15,7.));
#1267=CARTESIAN_POINT('',(7.704293994,34.15,-0.));
#1268=CARTESIAN_POINT('',(7.704293994,34.15,7.));
#1269=CARTESIAN_POINT('',(6.102146997,36.925,-0.));
#1270=CARTESIAN_POINT('',(6.102146997,36.925,7.));
#1271=CARTESIAN_POINT('',(4.5,39.7,-0.));
#1272=CARTESIAN_POINT('',(4.5,39.7,7.));
#1273=CARTESIAN_POINT('',(2.897853003,36.925,-0.));
#1274=CARTESIAN_POINT('',(2.897853003,36.925,7.));
#1275=CARTESIAN_POINT('',(1.295706006,34.15,-0.));
#1276=CARTESIAN_POINT('',(1.295706006,34.15,7.));
#1277=CARTESIAN_POINT('',(4.5,34.15,-0.));
#1278=CARTESIAN_POINT('',(4.5,34.15,7.));
#1279=(BOUNDED_SURFACE()
B_SPLINE_SURFACE(2,1,((#1265,#1266),(#1267,#1268),(#1269,#1270),(#1271,#1272),(#1273,#1274),(#1275,#1276),(#1277,#1278)),.UNSPECIFIED.,.T.,.F.,.U.)
B_SPLINE_SURFACE_WITH_KNOTS((3,2,2,3),(2,2),(0.,2.094395102,4.188790205,6.283185307),(0.027966053,0.034966053),.UNSPECIFIED.)
GEOMETRIC_REPRESENTATION_ITEM()
RATIONAL_B_SPLINE_SURFACE(((1.,1.),(0.5,0.5),(1.,1.),(0.5,0.5),(1.,1.),(0.5,0.5),(1.,1.)))
REPRESENTATION_ITEM('')
SURFACE()
);
#1280=CARTESIAN_POINT('',(4.5,34.15,7.));
#1281=CARTESIAN_POINT('',(4.5,34.15,-0.));
#1282=B_SPLINE_CURVE_WITH_KNOTS('',1,(#1280,#1281),.UNSPECIFIED.,.F.,.F.,(2,2),(0.027966053,0.034966053),.UNSPECIFIED.);
#1283=EDGE_CURVE('',#1017,#1141,#1282,.T.);
#1284=ORIENTED_EDGE('',*,*,#1283,.F.);
#1285=ORIENTED_EDGE('',*,*,#1028,.F.);
#1286=ORIENTED_EDGE('',*,*,#1040,.F.);
#1287=ORIENTED_EDGE('',*,*,#1283,.T.);
#1288=ORIENTED_EDGE('',*,*,#1154,.T.);
#1289=ORIENTED_EDGE('',*,*,#1166,.T.);
#1290=EDGE_LOOP('',(#1284,#1285,#1286,#1287,#1288,#1289));
#1291=FACE_BOUND('',#1290,.T.);
#1292=ADVANCED_FACE('',(#1291),#1279,.F.);
#1293=CARTESIAN_POINT('',(-4.5,34.15,-0.));
#1294=CARTESIAN_POINT('',(-4.5,34.15,7.));
#1295=CARTESIAN_POINT('',(-1.295706006,34.15,-0.));
#1296=CARTESIAN_POINT('',(-1.295706006,34.15,7.));
#1297=CARTESIAN_POINT('',(-2.897853003,36.925,-0.));
#1298=CARTESIAN_POINT('',(-2.897853003,36.925,7.));
#1299=CARTESIAN_POINT('',(-4.5,39.7,-0.));
#1300=CARTESIAN_POINT('',(-4.5,39.7,7.));
#1301=CARTESIAN_POINT('',(-6.102146997,36.925,-0.));
#1302=CARTESIAN_POINT('',(-6.102146997,36.925,7.));
#1303=CARTESIAN_POINT('',(-7.704293994,34.15,-0.));
#1304=CARTESIAN_POINT('',(-7.704293994,34.15,7.));
#1305=CARTESIAN_POINT('',(-4.5,34.15,-0.));
#1306=CARTESIAN_POINT('',(-4.5,34.15,7.));
#1307=(BOUNDED_SURFACE()
B_SPLINE_SURFACE(2,1,((#1293,#1294),(#1295,#1296),(#1297,#1298),(#1299,#1300),(#1301,#1302),(#1303,#1304),(#1305,#1306)),.UNSPECIFIED.,.T.,.F.,.U.)
B_SPLINE_SURFACE_WITH_KNOTS((3,2,2,3),(2,2),(0.,2.094395102,4.188790205,6.283185307),(0.027966053,0.034966053),.UNSPECIFIED.)
GEOMETRIC_REPRESENTATION_ITEM()
RATIONAL_B_SPLINE_SURFACE(((1.,1.),(0.5,0.5),(1.,1.),(0.5,0.5),(1.,1.),(0.5,0.5),(1.,1.)))
REPRESENTATION_ITEM('')
SURFACE()
);
#1308=CARTESIAN_POINT('',(-4.5,34.15,7.));
#1309=CARTESIAN_POINT('',(-4.5,34.15,-0.));
#1310=B_SPLINE_CURVE_WITH_KNOTS('',1,(#1308,#1309),.UNSPECIFIED.,.F.,.F.,(2,2),(0.027966053,0.034966053),.UNSPECIFIED.);
#1311=EDGE_CURVE('',#1075,#1173,#1310,.T.);
#1312=ORIENTED_EDGE('',*,*,#1311,.F.);
#1313=ORIENTED_EDGE('',*,*,#1088,.T.);
#1314=ORIENTED_EDGE('',*,*,#1100,.T.);
#1315=ORIENTED_EDGE('',*,*,#1311,.T.);
#1316=ORIENTED_EDGE('',*,*,#1184,.F.);
#1317=ORIENTED_EDGE('',*,*,#1196,.F.);
#1318=EDGE_LOOP('',(#1312,#1313,#1314,#1315,#1316,#1317));
#1319=FACE_BOUND('',#1318,.T.);
#1320=ADVANCED_FACE('',(#1319),#1307,.F.);
#1321=CLOSED_SHELL('',(#1104,#1200,#1220,#1236,#1252,#1264,#1292,#1320));
#1322=MANIFOLD_SOLID_BREP('Extruded.002',#1321);
#1008=STYLED_ITEM('',(),#1322);
#1324=CARTESIAN_POINT('',(-9.,-4.5,7.));
#1325=CARTESIAN_POINT('',(-9.,4.5,7.));
#1326=CARTESIAN_POINT('',(9.,-4.5,7.));
#1327=CARTESIAN_POINT('',(9.,4.5,7.));
#1328=B_SPLINE_SURFACE_WITH_KNOTS('',1,1,((#1324,#1325),(#1326,#1327)),.UNSPECIFIED.,.F.,.F.,.U.,(2,2),(2,2),(-0.009,0.009),(-0.0045,0.0045),.UNSPECIFIED.);
#1329=CARTESIAN_POINT('',(-3.55715216,-1.591709129,7.));
#1330=VERTEX_POINT('',#1329);
#1331=CARTESIAN_POINT('',(-4.5,-1.85,7.));
#1332=VERTEX_POINT('',#1331);
#1333=CARTESIAN_POINT('',(-3.55715216,-1.591709129,7.));
#1334=CARTESIAN_POINT('',(-5.148861289,-2.534556969,7.));
#1335=CARTESIAN_POINT('',(-6.091709129,-0.94284784,7.));
#1336=CARTESIAN_POINT('',(-7.034556969,0.648861289,7.));
#1337=CARTESIAN_POINT('',(-5.44284784,1.591709129,7.));
#1338=CARTESIAN_POINT('',(-3.851138711,2.534556969,7.));
#1339=CARTESIAN_POINT('',(-2.908290871,0.94284784,7.));
#1340=CARTESIAN_POINT('',(-1.965443031,-0.648861289,7.));
#1341=CARTESIAN_POINT('',(-3.55715216,-1.591709129,7.));
#1342=(BOUNDED_CURVE()
B_SPLINE_CURVE(2,(#1333,#1334,#1335,#1336,#1337,#1338,#1339,#1340,#1341),.UNSPECIFIED.,.T.,.F.)
B_SPLINE_CURVE_WITH_KNOTS((3,2,2,2,3),(0.,1.570796327,3.141592654,4.71238898,6.283185307),.UNSPECIFIED.)
CURVE()
GEOMETRIC_REPRESENTATION_ITEM()
RATIONAL_B_SPLINE_CURVE((1.,0.707106781,1.,0.707106781,1.,0.707106781,1.,0.707106781,1.))
REPRESENTATION_ITEM(''));
#1343=EDGE_CURVE('',#1330,#1332,#1342,.T.);
#1344=ORIENTED_EDGE('',*,*,#1343,.T.);
#1345=CARTESIAN_POINT('',(-3.55715216,-1.591709129,7.));
#1346=CARTESIAN_POINT('',(-5.148861289,-2.534556969,7.));
#1347=CARTESIAN_POINT('',(-6.091709129,-0.94284784,7.));
#1348=CARTESIAN_POINT('',(-7.034556969,0.648861289,7.));
#1349=CARTESIAN_POINT('',(-5.44284784,1.591709129,7.));
#1350=CARTESIAN_POINT('',(-3.851138711,2.534556969,7.));
#1351=CARTESIAN_POINT('',(-2.908290871,0.94284784,7.));
#1352=CARTESIAN_POINT('',(-1.965443031,-0.648861289,7.));
#1353=CARTESIAN_POINT('',(-3.55715216,-1.591709129,7.));
#1354=(BOUNDED_CURVE()
B_SPLINE_CURVE(2,(#1345,#1346,#1347,#1348,#1349,#1350,#1351,#1352,#1353),.UNSPECIFIED.,.T.,.F.)
B_SPLINE_CURVE_WITH_KNOTS((3,2,2,2,3),(0.,1.570796327,3.141592654,4.71238898,6.283185307),.UNSPECIFIED.)
CURVE()
GEOMETRIC_REPRESENTATION_ITEM()
RATIONAL_B_SPLINE_CURVE((1.,0.707106781,1.,0.707106781,1.,0.707106781,1.,0.707106781,1.))
REPRESENTATION_ITEM(''));
#1355=EDGE_CURVE('',#1332,#1330,#1354,.T.);
#1356=ORIENTED_EDGE('',*,*,#1355,.T.);
#1357=EDGE_LOOP('',(#1344,#1356));
#1358=FACE_BOUND('',#1357,.T.);
#1359=CARTESIAN_POINT('',(-9.,4.5,7.));
#1360=VERTEX_POINT('',#1359);
#1361=CARTESIAN_POINT('',(-9.,-4.5,7.));
#1362=VERTEX_POINT('',#1361);
#1363=CARTESIAN_POINT('',(-9.,4.5,7.));
#1364=CARTESIAN_POINT('',(-9.,-4.5,7.));
#1365=B_SPLINE_CURVE_WITH_KNOTS('',1,(#1363,#1364),.UNSPECIFIED.,.F.,.F.,(2,2),(0.,0.009),.UNSPECIFIED.);
#1366=EDGE_CURVE('',#1360,#1362,#1365,.T.);
#1367=ORIENTED_EDGE('',*,*,#1366,.T.);
#1368=CARTESIAN_POINT('',(9.,-4.5,7.));
#1369=VERTEX_POINT('',#1368);
#1370=CARTESIAN_POINT('',(-9.,-4.5,7.));
#1371=CARTESIAN_POINT('',(9.,-4.5,7.));
#1372=B_SPLINE_CURVE_WITH_KNOTS('',1,(#1370,#1371),.UNSPECIFIED.,.F.,.F.,(2,2),(0.,0.018),.UNSPECIFIED.);
#1373=EDGE_CURVE('',#1362,#1369,#1372,.T.);
#1374=ORIENTED_EDGE('',*,*,#1373,.T.);
#1375=CARTESIAN_POINT('',(9.,4.5,7.));
#1376=VERTEX_POINT('',#1375);
#1377=CARTESIAN_POINT('',(9.,-4.5,7.));
#1378=CARTESIAN_POINT('',(9.,4.5,7.));
#1379=B_SPLINE_CURVE_WITH_KNOTS('',1,(#1377,#1378),.UNSPECIFIED.,.F.,.F.,(2,2),(0.,0.009),.UNSPECIFIED.);
#1380=EDGE_CURVE('',#1369,#1376,#1379,.T.);
#1381=ORIENTED_EDGE('',*,*,#1380,.T.);
#1382=CARTESIAN_POINT('',(9.,4.5,7.));
#1383=CARTESIAN_POINT('',(-9.,4.5,7.));
#1384=B_SPLINE_CURVE_WITH_KNOTS('',1,(#1382,#1383),.UNSPECIFIED.,.F.,.F.,(2,2),(0.,0.018),.UNSPECIFIED.);
#1385=EDGE_CURVE('',#1376,#1360,#1384,.T.);
#1386=ORIENTED_EDGE('',*,*,#1385,.T.);
#1387=EDGE_LOOP('',(#1367,#1374,#1381,#1386));
#1388=FACE_BOUND('',#1387,.T.);
#1389=CARTESIAN_POINT('',(4.5,-1.85,7.));
#1390=VERTEX_POINT('',#1389);
#1391=CARTESIAN_POINT('',(3.55715216,-1.591709129,7.));
#1392=VERTEX_POINT('',#1391);
#1393=CARTESIAN_POINT('',(3.55715216,-1.591709129,7.));
#1394=CARTESIAN_POINT('',(5.148861289,-2.534556969,7.));
#1395=CARTESIAN_POINT('',(6.091709129,-0.94284784,7.));
#1396=CARTESIAN_POINT('',(7.034556969,0.648861289,7.));
#1397=CARTESIAN_POINT('',(5.44284784,1.591709129,7.));
#1398=CARTESIAN_POINT('',(3.851138711,2.534556969,7.));
#1399=CARTESIAN_POINT('',(2.908290871,0.94284784,7.));
#1400=CARTESIAN_POINT('',(1.965443031,-0.648861289,7.));
#1401=CARTESIAN_POINT('',(3.55715216,-1.591709129,7.));
#1402=(BOUNDED_CURVE()
B_SPLINE_CURVE(2,(#1393,#1394,#1395,#1396,#1397,#1398,#1399,#1400,#1401),.UNSPECIFIED.,.T.,.F.)
B_SPLINE_CURVE_WITH_KNOTS((3,2,2,2,3),(0.,1.570796327,3.141592654,4.71238898,6.283185307),.UNSPECIFIED.)
CURVE()
GEOMETRIC_REPRESENTATION_ITEM()
RATIONAL_B_SPLINE_CURVE((1.,0.707106781,1.,0.707106781,1.,0.707106781,1.,0.707106781,1.))
REPRESENTATION_ITEM(''));
#1403=EDGE_CURVE('',#1390,#1392,#1402,.T.);
#1404=ORIENTED_EDGE('',*,*,#1403,.F.);
#1405=CARTESIAN_POINT('',(3.55715216,-1.591709129,7.));
#1406=CARTESIAN_POINT('',(5.148861289,-2.534556969,7.));
#1407=CARTESIAN_POINT('',(6.091709129,-0.94284784,7.));
#1408=CARTESIAN_POINT('',(7.034556969,0.648861289,7.));
#1409=CARTESIAN_POINT('',(5.44284784,1.591709129,7.));
#1410=CARTESIAN_POINT('',(3.851138711,2.534556969,7.));
#1411=CARTESIAN_POINT('',(2.908290871,0.94284784,7.));
#1412=CARTESIAN_POINT('',(1.965443031,-0.648861289,7.));
#1413=CARTESIAN_POINT('',(3.55715216,-1.591709129,7.));
#1414=(BOUNDED_CURVE()
B_SPLINE_CURVE(2,(#1405,#1406,#1407,#1408,#1409,#1410,#1411,#1412,#1413),.UNSPECIFIED.,.T.,.F.)
B_SPLINE_CURVE_WITH_KNOTS((3,2,2,2,3),(0.,1.570796327,3.141592654,4.71238898,6.283185307),.UNSPECIFIED.)
CURVE()
GEOMETRIC_REPRESENTATION_ITEM()
RATIONAL_B_SPLINE_CURVE((1.,0.707106781,1.,0.707106781,1.,0.707106781,1.,0.707106781,1.))
REPRESENTATION_ITEM(''));
#1415=EDGE_CURVE('',#1392,#1390,#1414,.T.);
#1416=ORIENTED_EDGE('',*,*,#1415,.F.);
#1417=EDGE_LOOP('',(#1404,#1416));
#1418=FACE_BOUND('',#1417,.T.);
#1419=ADVANCED_FACE('',(#1358,#1388,#1418),#1328,.T.);
#1420=CARTESIAN_POINT('',(-9.,-4.5,0.));
#1421=CARTESIAN_POINT('',(-9.,4.5,0.));
#1422=CARTESIAN_POINT('',(9.,-4.5,0.));
#1423=CARTESIAN_POINT('',(9.,4.5,0.));
#1424=B_SPLINE_SURFACE_WITH_KNOTS('',1,1,((#1420,#1421),(#1422,#1423)),.UNSPECIFIED.,.F.,.F.,.U.,(2,2),(2,2),(-0.009,0.009),(-0.0045,0.0045),.UNSPECIFIED.);
#1425=CARTESIAN_POINT('',(-9.,4.5,0.));
#1426=VERTEX_POINT('',#1425);
#1427=CARTESIAN_POINT('',(-9.,-4.5,0.));
#1428=VERTEX_POINT('',#1427);
#1429=CARTESIAN_POINT('',(-9.,4.5,0.));
#1430=CARTESIAN_POINT('',(-9.,-4.5,0.));
#1431=B_SPLINE_CURVE_WITH_KNOTS('',1,(#1429,#1430),.UNSPECIFIED.,.F.,.F.,(2,2),(0.,0.009),.UNSPECIFIED.);
#1432=EDGE_CURVE('',#1426,#1428,#1431,.T.);
#1433=ORIENTED_EDGE('',*,*,#1432,.F.);
#1434=CARTESIAN_POINT('',(9.,4.5,0.));
#1435=VERTEX_POINT('',#1434);
#1436=CARTESIAN_POINT('',(9.,4.5,0.));
#1437=CARTESIAN_POINT('',(-9.,4.5,0.));
#1438=B_SPLINE_CURVE_WITH_KNOTS('',1,(#1436,#1437),.UNSPECIFIED.,.F.,.F.,(2,2),(0.,0.018),.UNSPECIFIED.);
#1439=EDGE_CURVE('',#1435,#1426,#1438,.T.);
#1440=ORIENTED_EDGE('',*,*,#1439,.F.);
#1441=CARTESIAN_POINT('',(9.,-4.5,0.));
#1442=VERTEX_POINT('',#1441);
#1443=CARTESIAN_POINT('',(9.,-4.5,0.));
#1444=CARTESIAN_POINT('',(9.,4.5,0.));
#1445=B_SPLINE_CURVE_WITH_KNOTS('',1,(#1443,#1444),.UNSPECIFIED.,.F.,.F.,(2,2),(0.,0.009),.UNSPECIFIED.);
#1446=EDGE_CURVE('',#1442,#1435,#1445,.T.);
#1447=ORIENTED_EDGE('',*,*,#1446,.F.);
#1448=CARTESIAN_POINT('',(-9.,-4.5,0.));
#1449=CARTESIAN_POINT('',(9.,-4.5,0.));
#1450=B_SPLINE_CURVE_WITH_KNOTS('',1,(#1448,#1449),.UNSPECIFIED.,.F.,.F.,(2,2),(0.,0.018),.UNSPECIFIED.);
#1451=EDGE_CURVE('',#1428,#1442,#1450,.T.);
#1452=ORIENTED_EDGE('',*,*,#1451,.F.);
#1453=EDGE_LOOP('',(#1433,#1440,#1447,#1452));
#1454=FACE_BOUND('',#1453,.T.);
#1455=CARTESIAN_POINT('',(-4.5,-1.85,0.));
#1456=VERTEX_POINT('',#1455);
#1457=CARTESIAN_POINT('',(-2.65,-0.,0.));
#1458=VERTEX_POINT('',#1457);
#1459=CARTESIAN_POINT('',(-2.65,-0.,0.));
#1460=CARTESIAN_POINT('',(-2.65,-1.85,0.));
#1461=CARTESIAN_POINT('',(-4.5,-1.85,0.));
#1462=CARTESIAN_POINT('',(-6.35,-1.85,0.));
#1463=CARTESIAN_POINT('',(-6.35,-0.,0.));
#1464=CARTESIAN_POINT('',(-6.35,1.85,0.));
#1465=CARTESIAN_POINT('',(-4.5,1.85,0.));
#1466=CARTESIAN_POINT('',(-2.65,1.85,0.));
#1467=CARTESIAN_POINT('',(-2.65,-0.,0.));
#1468=(BOUNDED_CURVE()
B_SPLINE_CURVE(2,(#1459,#1460,#1461,#1462,#1463,#1464,#1465,#1466,#1467),.UNSPECIFIED.,.T.,.F.)
B_SPLINE_CURVE_WITH_KNOTS((3,2,2,2,3),(0.,1.570796327,3.141592654,4.71238898,6.283185307),.UNSPECIFIED.)
CURVE()
GEOMETRIC_REPRESENTATION_ITEM()
RATIONAL_B_SPLINE_CURVE((1.,0.707106781,1.,0.707106781,1.,0.707106781,1.,0.707106781,1.))
REPRESENTATION_ITEM(''));
#1469=EDGE_CURVE('',#1456,#1458,#1468,.T.);
#1470=ORIENTED_EDGE('',*,*,#1469,.F.);
#1471=CARTESIAN_POINT('',(-2.65,-0.,0.));
#1472=CARTESIAN_POINT('',(-2.65,-1.85,0.));
#1473=CARTESIAN_POINT('',(-4.5,-1.85,0.));
#1474=CARTESIAN_POINT('',(-6.35,-1.85,0.));
#1475=CARTESIAN_POINT('',(-6.35,-0.,0.));
#1476=CARTESIAN_POINT('',(-6.35,1.85,0.));
#1477=CARTESIAN_POINT('',(-4.5,1.85,0.));
#1478=CARTESIAN_POINT('',(-2.65,1.85,0.));
#1479=CARTESIAN_POINT('',(-2.65,-0.,0.));
#1480=(BOUNDED_CURVE()
B_SPLINE_CURVE(2,(#1471,#1472,#1473,#1474,#1475,#1476,#1477,#1478,#1479),.UNSPECIFIED.,.T.,.F.)
B_SPLINE_CURVE_WITH_KNOTS((3,2,2,2,3),(0.,1.570796327,3.141592654,4.71238898,6.283185307),.UNSPECIFIED.)
CURVE()
GEOMETRIC_REPRESENTATION_ITEM()
RATIONAL_B_SPLINE_CURVE((1.,0.707106781,1.,0.707106781,1.,0.707106781,1.,0.707106781,1.))
REPRESENTATION_ITEM(''));
#1481=EDGE_CURVE('',#1458,#1456,#1480,.T.);
#1482=ORIENTED_EDGE('',*,*,#1481,.F.);
#1483=EDGE_LOOP('',(#1470,#1482));
#1484=FACE_BOUND('',#1483,.T.);
#1485=CARTESIAN_POINT('',(6.35,-0.,0.));
#1486=VERTEX_POINT('',#1485);
#1487=CARTESIAN_POINT('',(4.5,-1.85,0.));
#1488=VERTEX_POINT('',#1487);
#1489=CARTESIAN_POINT('',(6.35,-0.,0.));
#1490=CARTESIAN_POINT('',(6.35,1.85,0.));
#1491=CARTESIAN_POINT('',(4.5,1.85,0.));
#1492=CARTESIAN_POINT('',(2.65,1.85,0.));
#1493=CARTESIAN_POINT('',(2.65,-0.,0.));
#1494=CARTESIAN_POINT('',(2.65,-1.85,0.));
#1495=CARTESIAN_POINT('',(4.5,-1.85,0.));
#1496=CARTESIAN_POINT('',(6.35,-1.85,0.));
#1497=CARTESIAN_POINT('',(6.35,-0.,0.));
#1498=(BOUNDED_CURVE()
B_SPLINE_CURVE(2,(#1489,#1490,#1491,#1492,#1493,#1494,#1495,#1496,#1497),.UNSPECIFIED.,.T.,.F.)
B_SPLINE_CURVE_WITH_KNOTS((3,2,2,2,3),(0.,1.570796327,3.141592654,4.71238898,6.283185307),.UNSPECIFIED.)
CURVE()
GEOMETRIC_REPRESENTATION_ITEM()
RATIONAL_B_SPLINE_CURVE((1.,0.707106781,1.,0.707106781,1.,0.707106781,1.,0.707106781,1.))
REPRESENTATION_ITEM(''));
#1499=EDGE_CURVE('',#1486,#1488,#1498,.T.);
#1500=ORIENTED_EDGE('',*,*,#1499,.T.);
#1501=CARTESIAN_POINT('',(6.35,-0.,0.));
#1502=CARTESIAN_POINT('',(6.35,1.85,0.));
#1503=CARTESIAN_POINT('',(4.5,1.85,0.));
#1504=CARTESIAN_POINT('',(2.65,1.85,0.));
#1505=CARTESIAN_POINT('',(2.65,-0.,0.));
#1506=CARTESIAN_POINT('',(2.65,-1.85,0.));
#1507=CARTESIAN_POINT('',(4.5,-1.85,0.));
#1508=CARTESIAN_POINT('',(6.35,-1.85,0.));
#1509=CARTESIAN_POINT('',(6.35,-0.,0.));
#1510=(BOUNDED_CURVE()
B_SPLINE_CURVE(2,(#1501,#1502,#1503,#1504,#1505,#1506,#1507,#1508,#1509),.UNSPECIFIED.,.T.,.F.)
B_SPLINE_CURVE_WITH_KNOTS((3,2,2,2,3),(0.,1.570796327,3.141592654,4.71238898,6.283185307),.UNSPECIFIED.)
CURVE()
GEOMETRIC_REPRESENTATION_ITEM()
RATIONAL_B_SPLINE_CURVE((1.,0.707106781,1.,0.707106781,1.,0.707106781,1.,0.707106781,1.))
REPRESENTATION_ITEM(''));
#1511=EDGE_CURVE('',#1488,#1486,#1510,.T.);
#1512=ORIENTED_EDGE('',*,*,#1511,.T.);
#1513=EDGE_LOOP('',(#1500,#1512));
#1514=FACE_BOUND('',#1513,.T.);
#1515=ADVANCED_FACE('',(#1454,#1484,#1514),#1424,.F.);
#1516=CARTESIAN_POINT('',(-9.,-4.5,7.));
#1517=CARTESIAN_POINT('',(-9.,4.5,7.));
#1518=CARTESIAN_POINT('',(-9.,-4.5,0.));
#1519=CARTESIAN_POINT('',(-9.,4.5,0.));
#1520=B_SPLINE_SURFACE_WITH_KNOTS('',1,1,((#1516,#1517),(#1518,#1519)),.UNSPECIFIED.,.F.,.F.,.U.,(2,2),(2,2),(0.,0.007),(-0.009,0.),.UNSPECIFIED.);
#1521=ORIENTED_EDGE('',*,*,#1432,.T.);
#1522=CARTESIAN_POINT('',(-9.,-4.5,7.));
#1523=CARTESIAN_POINT('',(-9.,-4.5,0.));
#1524=B_SPLINE_CURVE_WITH_KNOTS('',1,(#1522,#1523),.UNSPECIFIED.,.F.,.F.,(2,2),(0.,0.007),.UNSPECIFIED.);
#1525=EDGE_CURVE('',#1362,#1428,#1524,.T.);
#1526=ORIENTED_EDGE('',*,*,#1525,.F.);
#1527=ORIENTED_EDGE('',*,*,#1366,.F.);
#1528=CARTESIAN_POINT('',(-9.,4.5,7.));
#1529=CARTESIAN_POINT('',(-9.,4.5,0.));
#1530=B_SPLINE_CURVE_WITH_KNOTS('',1,(#1528,#1529),.UNSPECIFIED.,.F.,.F.,(2,2),(0.,0.007),.UNSPECIFIED.);
#1531=EDGE_CURVE('',#1360,#1426,#1530,.T.);
#1532=ORIENTED_EDGE('',*,*,#1531,.T.);
#1533=EDGE_LOOP('',(#1521,#1526,#1527,#1532));
#1534=FACE_BOUND('',#1533,.T.);
#1535=ADVANCED_FACE('',(#1534),#1520,.F.);
#1536=CARTESIAN_POINT('',(-9.,-4.5,0.));
#1537=CARTESIAN_POINT('',(9.,-4.5,0.));
#1538=CARTESIAN_POINT('',(-9.,-4.5,7.));
#1539=CARTESIAN_POINT('',(9.,-4.5,7.));
#1540=B_SPLINE_SURFACE_WITH_KNOTS('',1,1,((#1536,#1537),(#1538,#1539)),.UNSPECIFIED.,.F.,.F.,.U.,(2,2),(2,2),(-0.007,0.),(0.,0.018),.UNSPECIFIED.);
#1541=ORIENTED_EDGE('',*,*,#1451,.T.);
#1542=CARTESIAN_POINT('',(9.,-4.5,7.));
#1543=CARTESIAN_POINT('',(9.,-4.5,0.));
#1544=B_SPLINE_CURVE_WITH_KNOTS('',1,(#1542,#1543),.UNSPECIFIED.,.F.,.F.,(2,2),(0.,0.007),.UNSPECIFIED.);
#1545=EDGE_CURVE('',#1369,#1442,#1544,.T.);
#1546=ORIENTED_EDGE('',*,*,#1545,.F.);
#1547=ORIENTED_EDGE('',*,*,#1373,.F.);
#1548=ORIENTED_EDGE('',*,*,#1525,.T.);
#1549=EDGE_LOOP('',(#1541,#1546,#1547,#1548));
#1550=FACE_BOUND('',#1549,.T.);
#1551=ADVANCED_FACE('',(#1550),#1540,.F.);
#1552=CARTESIAN_POINT('',(9.,-4.5,0.));
#1553=CARTESIAN_POINT('',(9.,4.5,0.));
#1554=CARTESIAN_POINT('',(9.,-4.5,7.));
#1555=CARTESIAN_POINT('',(9.,4.5,7.));
#1556=B_SPLINE_SURFACE_WITH_KNOTS('',1,1,((#1552,#1553),(#1554,#1555)),.UNSPECIFIED.,.F.,.F.,.U.,(2,2),(2,2),(-0.007,0.),(0.,0.009),.UNSPECIFIED.);
#1557=ORIENTED_EDGE('',*,*,#1446,.T.);
#1558=CARTESIAN_POINT('',(9.,4.5,7.));
#1559=CARTESIAN_POINT('',(9.,4.5,0.));
#1560=B_SPLINE_CURVE_WITH_KNOTS('',1,(#1558,#1559),.UNSPECIFIED.,.F.,.F.,(2,2),(0.,0.007),.UNSPECIFIED.);
#1561=EDGE_CURVE('',#1376,#1435,#1560,.T.);
#1562=ORIENTED_EDGE('',*,*,#1561,.F.);
#1563=ORIENTED_EDGE('',*,*,#1380,.F.);
#1564=ORIENTED_EDGE('',*,*,#1545,.T.);
#1565=EDGE_LOOP('',(#1557,#1562,#1563,#1564));
#1566=FACE_BOUND('',#1565,.T.);
#1567=ADVANCED_FACE('',(#1566),#1556,.F.);
#1568=CARTESIAN_POINT('',(-9.,4.5,7.));
#1569=CARTESIAN_POINT('',(9.,4.5,7.));
#1570=CARTESIAN_POINT('',(-9.,4.5,0.));
#1571=CARTESIAN_POINT('',(9.,4.5,0.));
#1572=B_SPLINE_SURFACE_WITH_KNOTS('',1,1,((#1568,#1569),(#1570,#1571)),.UNSPECIFIED.,.F.,.F.,.U.,(2,2),(2,2),(0.,0.007),(-0.018,0.),.UNSPECIFIED.);
#1573=ORIENTED_EDGE('',*,*,#1439,.T.);
#1574=ORIENTED_EDGE('',*,*,#1531,.F.);
#1575=ORIENTED_EDGE('',*,*,#1385,.F.);
#1576=ORIENTED_EDGE('',*,*,#1561,.T.);
#1577=EDGE_LOOP('',(#1573,#1574,#1575,#1576));
#1578=FACE_BOUND('',#1577,.T.);
#1579=ADVANCED_FACE('',(#1578),#1572,.F.);
#1580=CARTESIAN_POINT('',(-4.5,-1.85,-0.));
#1581=CARTESIAN_POINT('',(-4.5,-1.85,7.));
#1582=CARTESIAN_POINT('',(-1.295706006,-1.85,-0.));
#1583=CARTESIAN_POINT('',(-1.295706006,-1.85,7.));
#1584=CARTESIAN_POINT('',(-2.897853003,0.925,-0.));
#1585=CARTESIAN_POINT('',(-2.897853003,0.925,7.));
#1586=CARTESIAN_POINT('',(-4.5,3.7,-0.));
#1587=CARTESIAN_POINT('',(-4.5,3.7,7.));
#1588=CARTESIAN_POINT('',(-6.102146997,0.925,-0.));
#1589=CARTESIAN_POINT('',(-6.102146997,0.925,7.));
#1590=CARTESIAN_POINT('',(-7.704293994,-1.85,-0.));
#1591=CARTESIAN_POINT('',(-7.704293994,-1.85,7.));
#1592=CARTESIAN_POINT('',(-4.5,-1.85,-0.));
#1593=CARTESIAN_POINT('',(-4.5,-1.85,7.));
#1594=(BOUNDED_SURFACE()
B_SPLINE_SURFACE(2,1,((#1580,#1581),(#1582,#1583),(#1584,#1585),(#1586,#1587),(#1588,#1589),(#1590,#1591),(#1592,#1593)),.UNSPECIFIED.,.T.,.F.,.U.)
B_SPLINE_SURFACE_WITH_KNOTS((3,2,2,3),(2,2),(0.,2.094395102,4.188790205,6.283185307),(0.027966053,0.034966053),.UNSPECIFIED.)
GEOMETRIC_REPRESENTATION_ITEM()
RATIONAL_B_SPLINE_SURFACE(((1.,1.),(0.5,0.5),(1.,1.),(0.5,0.5),(1.,1.),(0.5,0.5),(1.,1.)))
REPRESENTATION_ITEM('')
SURFACE()
);
#1595=CARTESIAN_POINT('',(-4.5,-1.85,7.));
#1596=CARTESIAN_POINT('',(-4.5,-1.85,0.));
#1597=B_SPLINE_CURVE_WITH_KNOTS('',1,(#1595,#1596),.UNSPECIFIED.,.F.,.F.,(2,2),(0.027966053,0.034966053),.UNSPECIFIED.);
#1598=EDGE_CURVE('',#1332,#1456,#1597,.T.);
#1599=ORIENTED_EDGE('',*,*,#1598,.F.);
#1600=ORIENTED_EDGE('',*,*,#1343,.F.);
#1601=ORIENTED_EDGE('',*,*,#1355,.F.);
#1602=ORIENTED_EDGE('',*,*,#1598,.T.);
#1603=ORIENTED_EDGE('',*,*,#1469,.T.);
#1604=ORIENTED_EDGE('',*,*,#1481,.T.);
#1605=EDGE_LOOP('',(#1599,#1600,#1601,#1602,#1603,#1604));
#1606=FACE_BOUND('',#1605,.T.);
#1607=ADVANCED_FACE('',(#1606),#1594,.F.);
#1608=CARTESIAN_POINT('',(4.5,-1.85,-0.));
#1609=CARTESIAN_POINT('',(4.5,-1.85,7.));
#1610=CARTESIAN_POINT('',(7.704293994,-1.85,-0.));
#1611=CARTESIAN_POINT('',(7.704293994,-1.85,7.));
#1612=CARTESIAN_POINT('',(6.102146997,0.925,-0.));
#1613=CARTESIAN_POINT('',(6.102146997,0.925,7.));
#1614=CARTESIAN_POINT('',(4.5,3.7,-0.));
#1615=CARTESIAN_POINT('',(4.5,3.7,7.));
#1616=CARTESIAN_POINT('',(2.897853003,0.925,-0.));
#1617=CARTESIAN_POINT('',(2.897853003,0.925,7.));
#1618=CARTESIAN_POINT('',(1.295706006,-1.85,-0.));
#1619=CARTESIAN_POINT('',(1.295706006,-1.85,7.));
#1620=CARTESIAN_POINT('',(4.5,-1.85,-0.));
#1621=CARTESIAN_POINT('',(4.5,-1.85,7.));
#1622=(BOUNDED_SURFACE()
B_SPLINE_SURFACE(2,1,((#1608,#1609),(#1610,#1611),(#1612,#1613),(#1614,#1615),(#1616,#1617),(#1618,#1619),(#1620,#1621)),.UNSPECIFIED.,.T.,.F.,.U.)
B_SPLINE_SURFACE_WITH_KNOTS((3,2,2,3),(2,2),(0.,2.094395102,4.188790205,6.283185307),(0.027966053,0.034966053),.UNSPECIFIED.)
GEOMETRIC_REPRESENTATION_ITEM()
RATIONAL_B_SPLINE_SURFACE(((1.,1.),(0.5,0.5),(1.,1.),(0.5,0.5),(1.,1.),(0.5,0.5),(1.,1.)))
REPRESENTATION_ITEM('')
SURFACE()
);
#1623=CARTESIAN_POINT('',(4.5,-1.85,7.));
#1624=CARTESIAN_POINT('',(4.5,-1.85,0.));
#1625=B_SPLINE_CURVE_WITH_KNOTS('',1,(#1623,#1624),.UNSPECIFIED.,.F.,.F.,(2,2),(0.027966053,0.034966053),.UNSPECIFIED.);
#1626=EDGE_CURVE('',#1390,#1488,#1625,.T.);
#1627=ORIENTED_EDGE('',*,*,#1626,.F.);
#1628=ORIENTED_EDGE('',*,*,#1403,.T.);
#1629=ORIENTED_EDGE('',*,*,#1415,.T.);
#1630=ORIENTED_EDGE('',*,*,#1626,.T.);
#1631=ORIENTED_EDGE('',*,*,#1499,.F.);
#1632=ORIENTED_EDGE('',*,*,#1511,.F.);
#1633=EDGE_LOOP('',(#1627,#1628,#1629,#1630,#1631,#1632));
#1634=FACE_BOUND('',#1633,.T.);
#1635=ADVANCED_FACE('',(#1634),#1622,.F.);
#1636=CLOSED_SHELL('',(#1419,#1515,#1535,#1551,#1567,#1579,#1607,#1635));
#1637=MANIFOLD_SOLID_BREP('Extruded.001',#1636);
#1323=STYLED_ITEM('',(),#1637);
#16=SHAPE_REPRESENTATION('root',(#15),#10);
#17=ADVANCED_BREP_SHAPE_REPRESENTATION('root',(#692,#1007,#1322,#1637),#10);
#1645=SHAPE_REPRESENTATION_RELATIONSHIP('','',#16,#17);
#1646=APPLICATION_CONTEXT('configuration controlled 3D design of mechanical parts and assemblies');
#1647=APPLICATION_PROTOCOL_DEFINITION('international standard','configuration_control_3d_design_ed2_mim',2004,#1646);
#1648=PRODUCT_CONTEXT('',#1646,'mechanical');
#1649=PRODUCT_DEFINITION_CONTEXT('part definition',#1646,'design');
#24=PRODUCT('root','root','',(#1648));
#1650=PRODUCT_RELATED_PRODUCT_CATEGORY('part','',(#24));
#1651=PRODUCT_DEFINITION_FORMATION_WITH_SPECIFIED_SOURCE('','',#24,.NOT_KNOWN.);
#25=PRODUCT_DEFINITION('design','',#1651,#1649);
#23=PRODUCT_DEFINITION_SHAPE('','',#25);
#1652=SHAPE_DEFINITION_REPRESENTATION(#23,#16);
#11=DRAUGHTING_MODEL('',(),#10);
#1=MECHANICAL_DESIGN_GEOMETRIC_PRESENTATION_REPRESENTATION('',(#26,#693,#1008,#1323),#10);
ENDSEC;
END-ISO-10303-21;
