ISO-10303-21;
HEADER;

/* File generated by HOOPS Exchange Version 25.8.0 */

FILE_DESCRIPTION(('HOOPS Exchange Step'),'2;1');

FILE_NAME('/home/tfannes/prints/260618_flywheel_holder_tester/spacers.step',
'2026-06-18T12:16:20+02:00',
('tfannes'),
('Unknown organisation'),
'HOOPS Exchange 2025.8',
'HOOPS Exchange',
'Unknown authorisation');

FILE_SCHEMA( ('AP203_CONFIGURATION_CONTROLLED_3D_DESIGN_OF_MECHANICAL_PARTS_AND_ASSEMBLIES_MIM_LF') );

ENDSEC;

DATA;
#3=(NAMED_UNIT(*)PLANE_ANGLE_UNIT()SI_UNIT($,.RADIAN.));
#4=PLANE_ANGLE_MEASURE_WITH_UNIT(PLANE_ANGLE_MEASURE(0.0174532925),#3);
#5=(CONVERSION_BASED_UNIT('DEGREE',#4)NAMED_UNIT(#6)PLANE_ANGLE_UNIT());
#6=DIMENSIONAL_EXPONENTS(0.,0.,0.,0.,0.,0.,0.);
#7=(NAMED_UNIT(*)SI_UNIT($,.STERADIAN.)SOLID_ANGLE_UNIT());
#8=(LENGTH_UNIT()NAMED_UNIT(*)SI_UNIT(.MILLI.,.METRE.));
#9=UNCERTAINTY_MEASURE_WITH_UNIT(LENGTH_MEASURE(1.000000E-05),#8,'DISTANCE_ACCURACY_VALUE','Maximum Tolerance applied to model');
#10=(GEOMETRIC_REPRESENTATION_CONTEXT(3)GLOBAL_UNCERTAINTY_ASSIGNED_CONTEXT((#9))GLOBAL_UNIT_ASSIGNED_CONTEXT((#8,#5,#7))REPRESENTATION_CONTEXT('','root'));
#12=CARTESIAN_POINT('',(0.,0.,0.));
#13=DIRECTION('',(0.,0.,1.));
#14=DIRECTION('',(1.,0.,0.));
#15=AXIS2_PLACEMENT_3D('TS3D_PRODUCT_CSYS',#12,#13,#14);
#27=CARTESIAN_POINT('',(54.984991293,-32.006288862,4.));
#28=DIRECTION('',(0.,-1.,0.));
#29=DIRECTION('',(0.,-0.,-1.));
#30=AXIS2_PLACEMENT_3D('',#27,#28,#29);
#31=PLANE('',#30);
#32=CARTESIAN_POINT('',(54.984991293,-32.006288862,0.));
#33=VERTEX_POINT('',#32);
#34=CARTESIAN_POINT('',(36.984991293,-32.006288862,0.));
#35=VERTEX_POINT('',#34);
#36=CARTESIAN_POINT('',(54.984991293,-32.006288862,0.));
#37=DIRECTION('',(-1.,0.,0.));
#38=VECTOR('',#37,18.);
#39=LINE('',#36,#38);
#40=EDGE_CURVE('',#33,#35,#39,.T.);
#41=ORIENTED_EDGE('',*,*,#40,.T.);
#42=CARTESIAN_POINT('',(36.984991293,-32.006288862,4.));
#43=VERTEX_POINT('',#42);
#44=CARTESIAN_POINT('',(36.984991293,-32.006288862,4.));
#45=DIRECTION('',(0.,-0.,-1.));
#46=VECTOR('',#45,4.);
#47=LINE('',#44,#46);
#48=EDGE_CURVE('',#43,#35,#47,.T.);
#49=ORIENTED_EDGE('',*,*,#48,.F.);
#50=CARTESIAN_POINT('',(54.984991293,-32.006288862,4.));
#51=VERTEX_POINT('',#50);
#52=CARTESIAN_POINT('',(54.984991293,-32.006288862,4.));
#53=DIRECTION('',(-1.,0.,0.));
#54=VECTOR('',#53,18.);
#55=LINE('',#52,#54);
#56=EDGE_CURVE('',#51,#43,#55,.T.);
#57=ORIENTED_EDGE('',*,*,#56,.F.);
#58=CARTESIAN_POINT('',(54.984991293,-32.006288862,4.));
#59=DIRECTION('',(0.,-0.,-1.));
#60=VECTOR('',#59,4.);
#61=LINE('',#58,#60);
#62=EDGE_CURVE('',#51,#33,#61,.T.);
#63=ORIENTED_EDGE('',*,*,#62,.T.);
#64=EDGE_LOOP('',(#41,#49,#57,#63));
#65=FACE_BOUND('',#64,.T.);
#66=ADVANCED_FACE('',(#65),#31,.F.);
#67=CARTESIAN_POINT('',(36.984991293,-32.006288862,4.));
#68=DIRECTION('',(1.,0.,0.));
#69=DIRECTION('',(0.,0.,-1.));
#70=AXIS2_PLACEMENT_3D('',#67,#68,#69);
#71=PLANE('',#70);
#72=CARTESIAN_POINT('',(36.984991293,-46.006288862,0.));
#73=VERTEX_POINT('',#72);
#74=CARTESIAN_POINT('',(36.984991293,-32.006288862,0.));
#75=DIRECTION('',(0.,-1.,0.));
#76=VECTOR('',#75,14.);
#77=LINE('',#74,#76);
#78=EDGE_CURVE('',#35,#73,#77,.T.);
#79=ORIENTED_EDGE('',*,*,#78,.T.);
#80=CARTESIAN_POINT('',(36.984991293,-46.006288862,4.));
#81=VERTEX_POINT('',#80);
#82=CARTESIAN_POINT('',(36.984991293,-46.006288862,4.));
#83=DIRECTION('',(0.,-0.,-1.));
#84=VECTOR('',#83,4.);
#85=LINE('',#82,#84);
#86=EDGE_CURVE('',#81,#73,#85,.T.);
#87=ORIENTED_EDGE('',*,*,#86,.F.);
#88=CARTESIAN_POINT('',(36.984991293,-32.006288862,4.));
#89=DIRECTION('',(0.,-1.,0.));
#90=VECTOR('',#89,14.);
#91=LINE('',#88,#90);
#92=EDGE_CURVE('',#43,#81,#91,.T.);
#93=ORIENTED_EDGE('',*,*,#92,.F.);
#94=ORIENTED_EDGE('',*,*,#48,.T.);
#95=EDGE_LOOP('',(#79,#87,#93,#94));
#96=FACE_BOUND('',#95,.T.);
#97=ADVANCED_FACE('',(#96),#71,.F.);
#98=CARTESIAN_POINT('',(36.984991293,-46.006288862,4.));
#99=DIRECTION('',(0.,1.,-0.));
#100=DIRECTION('',(0.,0.,1.));
#101=AXIS2_PLACEMENT_3D('',#98,#99,#100);
#102=PLANE('',#101);
#103=CARTESIAN_POINT('',(54.984991293,-46.006288862,0.));
#104=VERTEX_POINT('',#103);
#105=CARTESIAN_POINT('',(36.984991293,-46.006288862,0.));
#106=DIRECTION('',(1.,0.,-0.));
#107=VECTOR('',#106,18.);
#108=LINE('',#105,#107);
#109=EDGE_CURVE('',#73,#104,#108,.T.);
#110=ORIENTED_EDGE('',*,*,#109,.T.);
#111=CARTESIAN_POINT('',(54.984991293,-46.006288862,4.));
#112=VERTEX_POINT('',#111);
#113=CARTESIAN_POINT('',(54.984991293,-46.006288862,4.));
#114=DIRECTION('',(0.,-0.,-1.));
#115=VECTOR('',#114,4.);
#116=LINE('',#113,#115);
#117=EDGE_CURVE('',#112,#104,#116,.T.);
#118=ORIENTED_EDGE('',*,*,#117,.F.);
#119=CARTESIAN_POINT('',(36.984991293,-46.006288862,4.));
#120=DIRECTION('',(1.,0.,-0.));
#121=VECTOR('',#120,18.);
#122=LINE('',#119,#121);
#123=EDGE_CURVE('',#81,#112,#122,.T.);
#124=ORIENTED_EDGE('',*,*,#123,.F.);
#125=ORIENTED_EDGE('',*,*,#86,.T.);
#126=EDGE_LOOP('',(#110,#118,#124,#125));
#127=FACE_BOUND('',#126,.T.);
#128=ADVANCED_FACE('',(#127),#102,.F.);
#129=CARTESIAN_POINT('',(54.984991293,-46.006288862,4.));
#130=DIRECTION('',(-1.,0.,0.));
#131=DIRECTION('',(0.,0.,1.));
#132=AXIS2_PLACEMENT_3D('',#129,#130,#131);
#133=PLANE('',#132);
#134=CARTESIAN_POINT('',(54.984991293,-46.006288862,0.));
#135=DIRECTION('',(0.,1.,0.));
#136=VECTOR('',#135,14.);
#137=LINE('',#134,#136);
#138=EDGE_CURVE('',#104,#33,#137,.T.);
#139=ORIENTED_EDGE('',*,*,#138,.T.);
#140=ORIENTED_EDGE('',*,*,#62,.F.);
#141=CARTESIAN_POINT('',(54.984991293,-46.006288862,4.));
#142=DIRECTION('',(0.,1.,0.));
#143=VECTOR('',#142,14.);
#144=LINE('',#141,#143);
#145=EDGE_CURVE('',#112,#51,#144,.T.);
#146=ORIENTED_EDGE('',*,*,#145,.F.);
#147=ORIENTED_EDGE('',*,*,#117,.T.);
#148=EDGE_LOOP('',(#139,#140,#146,#147));
#149=FACE_BOUND('',#148,.T.);
#150=ADVANCED_FACE('',(#149),#133,.F.);
#151=CARTESIAN_POINT('',(0.,0.,4.));
#152=DIRECTION('',(0.,0.,1.));
#153=DIRECTION('',(1.,0.,0.));
#154=AXIS2_PLACEMENT_3D('',#151,#152,#153);
#155=PLANE('',#154);
#156=ORIENTED_EDGE('',*,*,#56,.T.);
#157=ORIENTED_EDGE('',*,*,#92,.T.);
#158=ORIENTED_EDGE('',*,*,#123,.T.);
#159=ORIENTED_EDGE('',*,*,#145,.T.);
#160=EDGE_LOOP('',(#156,#157,#158,#159));
#161=FACE_BOUND('',#160,.T.);
#162=ADVANCED_FACE('',(#161),#155,.T.);
#163=CARTESIAN_POINT('',(0.,0.,0.));
#164=DIRECTION('',(0.,0.,1.));
#165=DIRECTION('',(1.,0.,0.));
#166=AXIS2_PLACEMENT_3D('',#163,#164,#165);
#167=PLANE('',#166);
#168=ORIENTED_EDGE('',*,*,#40,.F.);
#169=ORIENTED_EDGE('',*,*,#138,.F.);
#170=ORIENTED_EDGE('',*,*,#109,.F.);
#171=ORIENTED_EDGE('',*,*,#78,.F.);
#172=EDGE_LOOP('',(#168,#169,#170,#171));
#173=FACE_BOUND('',#172,.T.);
#174=ADVANCED_FACE('',(#173),#167,.F.);
#175=CLOSED_SHELL('',(#66,#97,#128,#150,#162,#174));
#176=MANIFOLD_SOLID_BREP('Extruded.012',#175);
#26=STYLED_ITEM('',(),#176);
#178=CARTESIAN_POINT('',(35.09994657,-32.006288862,2.));
#179=DIRECTION('',(0.,-1.,0.));
#180=DIRECTION('',(0.,-0.,-1.));
#181=AXIS2_PLACEMENT_3D('',#178,#179,#180);
#182=PLANE('',#181);
#183=CARTESIAN_POINT('',(35.09994657,-32.006288862,0.));
#184=VERTEX_POINT('',#183);
#185=CARTESIAN_POINT('',(17.09994657,-32.006288862,0.));
#186=VERTEX_POINT('',#185);
#187=CARTESIAN_POINT('',(35.09994657,-32.006288862,0.));
#188=DIRECTION('',(-1.,0.,0.));
#189=VECTOR('',#188,18.);
#190=LINE('',#187,#189);
#191=EDGE_CURVE('',#184,#186,#190,.T.);
#192=ORIENTED_EDGE('',*,*,#191,.T.);
#193=CARTESIAN_POINT('',(17.09994657,-32.006288862,2.));
#194=VERTEX_POINT('',#193);
#195=CARTESIAN_POINT('',(17.09994657,-32.006288862,2.));
#196=DIRECTION('',(0.,-0.,-1.));
#197=VECTOR('',#196,2.);
#198=LINE('',#195,#197);
#199=EDGE_CURVE('',#194,#186,#198,.T.);
#200=ORIENTED_EDGE('',*,*,#199,.F.);
#201=CARTESIAN_POINT('',(35.09994657,-32.006288862,2.));
#202=VERTEX_POINT('',#201);
#203=CARTESIAN_POINT('',(35.09994657,-32.006288862,2.));
#204=DIRECTION('',(-1.,0.,0.));
#205=VECTOR('',#204,18.);
#206=LINE('',#203,#205);
#207=EDGE_CURVE('',#202,#194,#206,.T.);
#208=ORIENTED_EDGE('',*,*,#207,.F.);
#209=CARTESIAN_POINT('',(35.09994657,-32.006288862,2.));
#210=DIRECTION('',(0.,-0.,-1.));
#211=VECTOR('',#210,2.);
#212=LINE('',#209,#211);
#213=EDGE_CURVE('',#202,#184,#212,.T.);
#214=ORIENTED_EDGE('',*,*,#213,.T.);
#215=EDGE_LOOP('',(#192,#200,#208,#214));
#216=FACE_BOUND('',#215,.T.);
#217=ADVANCED_FACE('',(#216),#182,.F.);
#218=CARTESIAN_POINT('',(17.09994657,-32.006288862,2.));
#219=DIRECTION('',(1.,0.,0.));
#220=DIRECTION('',(0.,0.,-1.));
#221=AXIS2_PLACEMENT_3D('',#218,#219,#220);
#222=PLANE('',#221);
#223=CARTESIAN_POINT('',(17.09994657,-46.006288862,0.));
#224=VERTEX_POINT('',#223);
#225=CARTESIAN_POINT('',(17.09994657,-32.006288862,0.));
#226=DIRECTION('',(0.,-1.,0.));
#227=VECTOR('',#226,14.);
#228=LINE('',#225,#227);
#229=EDGE_CURVE('',#186,#224,#228,.T.);
#230=ORIENTED_EDGE('',*,*,#229,.T.);
#231=CARTESIAN_POINT('',(17.09994657,-46.006288862,2.));
#232=VERTEX_POINT('',#231);
#233=CARTESIAN_POINT('',(17.09994657,-46.006288862,2.));
#234=DIRECTION('',(0.,-0.,-1.));
#235=VECTOR('',#234,2.);
#236=LINE('',#233,#235);
#237=EDGE_CURVE('',#232,#224,#236,.T.);
#238=ORIENTED_EDGE('',*,*,#237,.F.);
#239=CARTESIAN_POINT('',(17.09994657,-32.006288862,2.));
#240=DIRECTION('',(0.,-1.,0.));
#241=VECTOR('',#240,14.);
#242=LINE('',#239,#241);
#243=EDGE_CURVE('',#194,#232,#242,.T.);
#244=ORIENTED_EDGE('',*,*,#243,.F.);
#245=ORIENTED_EDGE('',*,*,#199,.T.);
#246=EDGE_LOOP('',(#230,#238,#244,#245));
#247=FACE_BOUND('',#246,.T.);
#248=ADVANCED_FACE('',(#247),#222,.F.);
#249=CARTESIAN_POINT('',(17.09994657,-46.006288862,2.));
#250=DIRECTION('',(0.,1.,-0.));
#251=DIRECTION('',(0.,0.,1.));
#252=AXIS2_PLACEMENT_3D('',#249,#250,#251);
#253=PLANE('',#252);
#254=CARTESIAN_POINT('',(35.09994657,-46.006288862,0.));
#255=VERTEX_POINT('',#254);
#256=CARTESIAN_POINT('',(17.09994657,-46.006288862,0.));
#257=DIRECTION('',(1.,0.,-0.));
#258=VECTOR('',#257,18.);
#259=LINE('',#256,#258);
#260=EDGE_CURVE('',#224,#255,#259,.T.);
#261=ORIENTED_EDGE('',*,*,#260,.T.);
#262=CARTESIAN_POINT('',(35.09994657,-46.006288862,2.));
#263=VERTEX_POINT('',#262);
#264=CARTESIAN_POINT('',(35.09994657,-46.006288862,2.));
#265=DIRECTION('',(0.,-0.,-1.));
#266=VECTOR('',#265,2.);
#267=LINE('',#264,#266);
#268=EDGE_CURVE('',#263,#255,#267,.T.);
#269=ORIENTED_EDGE('',*,*,#268,.F.);
#270=CARTESIAN_POINT('',(17.09994657,-46.006288862,2.));
#271=DIRECTION('',(1.,0.,-0.));
#272=VECTOR('',#271,18.);
#273=LINE('',#270,#272);
#274=EDGE_CURVE('',#232,#263,#273,.T.);
#275=ORIENTED_EDGE('',*,*,#274,.F.);
#276=ORIENTED_EDGE('',*,*,#237,.T.);
#277=EDGE_LOOP('',(#261,#269,#275,#276));
#278=FACE_BOUND('',#277,.T.);
#279=ADVANCED_FACE('',(#278),#253,.F.);
#280=CARTESIAN_POINT('',(35.09994657,-46.006288862,2.));
#281=DIRECTION('',(-1.,0.,0.));
#282=DIRECTION('',(0.,0.,1.));
#283=AXIS2_PLACEMENT_3D('',#280,#281,#282);
#284=PLANE('',#283);
#285=CARTESIAN_POINT('',(35.09994657,-46.006288862,0.));
#286=DIRECTION('',(0.,1.,0.));
#287=VECTOR('',#286,14.);
#288=LINE('',#285,#287);
#289=EDGE_CURVE('',#255,#184,#288,.T.);
#290=ORIENTED_EDGE('',*,*,#289,.T.);
#291=ORIENTED_EDGE('',*,*,#213,.F.);
#292=CARTESIAN_POINT('',(35.09994657,-46.006288862,2.));
#293=DIRECTION('',(0.,1.,0.));
#294=VECTOR('',#293,14.);
#295=LINE('',#292,#294);
#296=EDGE_CURVE('',#263,#202,#295,.T.);
#297=ORIENTED_EDGE('',*,*,#296,.F.);
#298=ORIENTED_EDGE('',*,*,#268,.T.);
#299=EDGE_LOOP('',(#290,#291,#297,#298));
#300=FACE_BOUND('',#299,.T.);
#301=ADVANCED_FACE('',(#300),#284,.F.);
#302=CARTESIAN_POINT('',(0.,0.,2.));
#303=DIRECTION('',(0.,0.,1.));
#304=DIRECTION('',(1.,0.,0.));
#305=AXIS2_PLACEMENT_3D('',#302,#303,#304);
#306=PLANE('',#305);
#307=ORIENTED_EDGE('',*,*,#207,.T.);
#308=ORIENTED_EDGE('',*,*,#243,.T.);
#309=ORIENTED_EDGE('',*,*,#274,.T.);
#310=ORIENTED_EDGE('',*,*,#296,.T.);
#311=EDGE_LOOP('',(#307,#308,#309,#310));
#312=FACE_BOUND('',#311,.T.);
#313=ADVANCED_FACE('',(#312),#306,.T.);
#314=CARTESIAN_POINT('',(0.,0.,0.));
#315=DIRECTION('',(0.,0.,1.));
#316=DIRECTION('',(1.,0.,0.));
#317=AXIS2_PLACEMENT_3D('',#314,#315,#316);
#318=PLANE('',#317);
#319=ORIENTED_EDGE('',*,*,#191,.F.);
#320=ORIENTED_EDGE('',*,*,#289,.F.);
#321=ORIENTED_EDGE('',*,*,#260,.F.);
#322=ORIENTED_EDGE('',*,*,#229,.F.);
#323=EDGE_LOOP('',(#319,#320,#321,#322));
#324=FACE_BOUND('',#323,.T.);
#325=ADVANCED_FACE('',(#324),#318,.F.);
#326=CLOSED_SHELL('',(#217,#248,#279,#301,#313,#325));
#327=MANIFOLD_SOLID_BREP('Extruded.008',#326);
#177=STYLED_ITEM('',(),#327);
#329=CARTESIAN_POINT('',(54.984991293,-16.704487273,3.5));
#330=DIRECTION('',(0.,-1.,0.));
#331=DIRECTION('',(0.,-0.,-1.));
#332=AXIS2_PLACEMENT_3D('',#329,#330,#331);
#333=PLANE('',#332);
#334=CARTESIAN_POINT('',(54.984991293,-16.704487273,0.));
#335=VERTEX_POINT('',#334);
#336=CARTESIAN_POINT('',(36.984991293,-16.704487273,0.));
#337=VERTEX_POINT('',#336);
#338=CARTESIAN_POINT('',(54.984991293,-16.704487273,0.));
#339=DIRECTION('',(-1.,0.,0.));
#340=VECTOR('',#339,18.);
#341=LINE('',#338,#340);
#342=EDGE_CURVE('',#335,#337,#341,.T.);
#343=ORIENTED_EDGE('',*,*,#342,.T.);
#344=CARTESIAN_POINT('',(36.984991293,-16.704487273,3.5));
#345=VERTEX_POINT('',#344);
#346=CARTESIAN_POINT('',(36.984991293,-16.704487273,3.5));
#347=DIRECTION('',(0.,-0.,-1.));
#348=VECTOR('',#347,3.5);
#349=LINE('',#346,#348);
#350=EDGE_CURVE('',#345,#337,#349,.T.);
#351=ORIENTED_EDGE('',*,*,#350,.F.);
#352=CARTESIAN_POINT('',(54.984991293,-16.704487273,3.5));
#353=VERTEX_POINT('',#352);
#354=CARTESIAN_POINT('',(54.984991293,-16.704487273,3.5));
#355=DIRECTION('',(-1.,0.,0.));
#356=VECTOR('',#355,18.);
#357=LINE('',#354,#356);
#358=EDGE_CURVE('',#353,#345,#357,.T.);
#359=ORIENTED_EDGE('',*,*,#358,.F.);
#360=CARTESIAN_POINT('',(54.984991293,-16.704487273,3.5));
#361=DIRECTION('',(0.,-0.,-1.));
#362=VECTOR('',#361,3.5);
#363=LINE('',#360,#362);
#364=EDGE_CURVE('',#353,#335,#363,.T.);
#365=ORIENTED_EDGE('',*,*,#364,.T.);
#366=EDGE_LOOP('',(#343,#351,#359,#365));
#367=FACE_BOUND('',#366,.T.);
#368=ADVANCED_FACE('',(#367),#333,.F.);
#369=CARTESIAN_POINT('',(36.984991293,-16.704487273,3.5));
#370=DIRECTION('',(1.,0.,0.));
#371=DIRECTION('',(0.,0.,-1.));
#372=AXIS2_PLACEMENT_3D('',#369,#370,#371);
#373=PLANE('',#372);
#374=CARTESIAN_POINT('',(36.984991293,-30.704487273,0.));
#375=VERTEX_POINT('',#374);
#376=CARTESIAN_POINT('',(36.984991293,-16.704487273,0.));
#377=DIRECTION('',(0.,-1.,0.));
#378=VECTOR('',#377,14.);
#379=LINE('',#376,#378);
#380=EDGE_CURVE('',#337,#375,#379,.T.);
#381=ORIENTED_EDGE('',*,*,#380,.T.);
#382=CARTESIAN_POINT('',(36.984991293,-30.704487273,3.5));
#383=VERTEX_POINT('',#382);
#384=CARTESIAN_POINT('',(36.984991293,-30.704487273,3.5));
#385=DIRECTION('',(0.,-0.,-1.));
#386=VECTOR('',#385,3.5);
#387=LINE('',#384,#386);
#388=EDGE_CURVE('',#383,#375,#387,.T.);
#389=ORIENTED_EDGE('',*,*,#388,.F.);
#390=CARTESIAN_POINT('',(36.984991293,-16.704487273,3.5));
#391=DIRECTION('',(0.,-1.,0.));
#392=VECTOR('',#391,14.);
#393=LINE('',#390,#392);
#394=EDGE_CURVE('',#345,#383,#393,.T.);
#395=ORIENTED_EDGE('',*,*,#394,.F.);
#396=ORIENTED_EDGE('',*,*,#350,.T.);
#397=EDGE_LOOP('',(#381,#389,#395,#396));
#398=FACE_BOUND('',#397,.T.);
#399=ADVANCED_FACE('',(#398),#373,.F.);
#400=CARTESIAN_POINT('',(36.984991293,-30.704487273,3.5));
#401=DIRECTION('',(0.,1.,-0.));
#402=DIRECTION('',(0.,0.,1.));
#403=AXIS2_PLACEMENT_3D('',#400,#401,#402);
#404=PLANE('',#403);
#405=CARTESIAN_POINT('',(54.984991293,-30.704487273,0.));
#406=VERTEX_POINT('',#405);
#407=CARTESIAN_POINT('',(36.984991293,-30.704487273,0.));
#408=DIRECTION('',(1.,0.,-0.));
#409=VECTOR('',#408,18.);
#410=LINE('',#407,#409);
#411=EDGE_CURVE('',#375,#406,#410,.T.);
#412=ORIENTED_EDGE('',*,*,#411,.T.);
#413=CARTESIAN_POINT('',(54.984991293,-30.704487273,3.5));
#414=VERTEX_POINT('',#413);
#415=CARTESIAN_POINT('',(54.984991293,-30.704487273,3.5));
#416=DIRECTION('',(0.,-0.,-1.));
#417=VECTOR('',#416,3.5);
#418=LINE('',#415,#417);
#419=EDGE_CURVE('',#414,#406,#418,.T.);
#420=ORIENTED_EDGE('',*,*,#419,.F.);
#421=CARTESIAN_POINT('',(36.984991293,-30.704487273,3.5));
#422=DIRECTION('',(1.,0.,-0.));
#423=VECTOR('',#422,18.);
#424=LINE('',#421,#423);
#425=EDGE_CURVE('',#383,#414,#424,.T.);
#426=ORIENTED_EDGE('',*,*,#425,.F.);
#427=ORIENTED_EDGE('',*,*,#388,.T.);
#428=EDGE_LOOP('',(#412,#420,#426,#427));
#429=FACE_BOUND('',#428,.T.);
#430=ADVANCED_FACE('',(#429),#404,.F.);
#431=CARTESIAN_POINT('',(54.984991293,-30.704487273,3.5));
#432=DIRECTION('',(-1.,0.,0.));
#433=DIRECTION('',(0.,0.,1.));
#434=AXIS2_PLACEMENT_3D('',#431,#432,#433);
#435=PLANE('',#434);
#436=CARTESIAN_POINT('',(54.984991293,-30.704487273,0.));
#437=DIRECTION('',(0.,1.,0.));
#438=VECTOR('',#437,14.);
#439=LINE('',#436,#438);
#440=EDGE_CURVE('',#406,#335,#439,.T.);
#441=ORIENTED_EDGE('',*,*,#440,.T.);
#442=ORIENTED_EDGE('',*,*,#364,.F.);
#443=CARTESIAN_POINT('',(54.984991293,-30.704487273,3.5));
#444=DIRECTION('',(0.,1.,0.));
#445=VECTOR('',#444,14.);
#446=LINE('',#443,#445);
#447=EDGE_CURVE('',#414,#353,#446,.T.);
#448=ORIENTED_EDGE('',*,*,#447,.F.);
#449=ORIENTED_EDGE('',*,*,#419,.T.);
#450=EDGE_LOOP('',(#441,#442,#448,#449));
#451=FACE_BOUND('',#450,.T.);
#452=ADVANCED_FACE('',(#451),#435,.F.);
#453=CARTESIAN_POINT('',(0.,0.,3.5));
#454=DIRECTION('',(0.,0.,1.));
#455=DIRECTION('',(1.,0.,0.));
#456=AXIS2_PLACEMENT_3D('',#453,#454,#455);
#457=PLANE('',#456);
#458=ORIENTED_EDGE('',*,*,#358,.T.);
#459=ORIENTED_EDGE('',*,*,#394,.T.);
#460=ORIENTED_EDGE('',*,*,#425,.T.);
#461=ORIENTED_EDGE('',*,*,#447,.T.);
#462=EDGE_LOOP('',(#458,#459,#460,#461));
#463=FACE_BOUND('',#462,.T.);
#464=ADVANCED_FACE('',(#463),#457,.T.);
#465=CARTESIAN_POINT('',(0.,0.,0.));
#466=DIRECTION('',(0.,0.,1.));
#467=DIRECTION('',(1.,0.,0.));
#468=AXIS2_PLACEMENT_3D('',#465,#466,#467);
#469=PLANE('',#468);
#470=ORIENTED_EDGE('',*,*,#342,.F.);
#471=ORIENTED_EDGE('',*,*,#440,.F.);
#472=ORIENTED_EDGE('',*,*,#411,.F.);
#473=ORIENTED_EDGE('',*,*,#380,.F.);
#474=EDGE_LOOP('',(#470,#471,#472,#473));
#475=FACE_BOUND('',#474,.T.);
#476=ADVANCED_FACE('',(#475),#469,.F.);
#477=CLOSED_SHELL('',(#368,#399,#430,#452,#464,#476));
#478=MANIFOLD_SOLID_BREP('Extruded.011',#477);
#328=STYLED_ITEM('',(),#478);
#480=CARTESIAN_POINT('',(35.09994657,-16.704487273,1.5));
#481=DIRECTION('',(0.,-1.,0.));
#482=DIRECTION('',(0.,-0.,-1.));
#483=AXIS2_PLACEMENT_3D('',#480,#481,#482);
#484=PLANE('',#483);
#485=CARTESIAN_POINT('',(35.09994657,-16.704487273,0.));
#486=VERTEX_POINT('',#485);
#487=CARTESIAN_POINT('',(17.09994657,-16.704487273,0.));
#488=VERTEX_POINT('',#487);
#489=CARTESIAN_POINT('',(35.09994657,-16.704487273,0.));
#490=DIRECTION('',(-1.,0.,0.));
#491=VECTOR('',#490,18.);
#492=LINE('',#489,#491);
#493=EDGE_CURVE('',#486,#488,#492,.T.);
#494=ORIENTED_EDGE('',*,*,#493,.T.);
#495=CARTESIAN_POINT('',(17.09994657,-16.704487273,1.5));
#496=VERTEX_POINT('',#495);
#497=CARTESIAN_POINT('',(17.09994657,-16.704487273,1.5));
#498=DIRECTION('',(0.,-0.,-1.));
#499=VECTOR('',#498,1.5);
#500=LINE('',#497,#499);
#501=EDGE_CURVE('',#496,#488,#500,.T.);
#502=ORIENTED_EDGE('',*,*,#501,.F.);
#503=CARTESIAN_POINT('',(35.09994657,-16.704487273,1.5));
#504=VERTEX_POINT('',#503);
#505=CARTESIAN_POINT('',(35.09994657,-16.704487273,1.5));
#506=DIRECTION('',(-1.,0.,0.));
#507=VECTOR('',#506,18.);
#508=LINE('',#505,#507);
#509=EDGE_CURVE('',#504,#496,#508,.T.);
#510=ORIENTED_EDGE('',*,*,#509,.F.);
#511=CARTESIAN_POINT('',(35.09994657,-16.704487273,1.5));
#512=DIRECTION('',(0.,-0.,-1.));
#513=VECTOR('',#512,1.5);
#514=LINE('',#511,#513);
#515=EDGE_CURVE('',#504,#486,#514,.T.);
#516=ORIENTED_EDGE('',*,*,#515,.T.);
#517=EDGE_LOOP('',(#494,#502,#510,#516));
#518=FACE_BOUND('',#517,.T.);
#519=ADVANCED_FACE('',(#518),#484,.F.);
#520=CARTESIAN_POINT('',(17.09994657,-16.704487273,1.5));
#521=DIRECTION('',(1.,0.,0.));
#522=DIRECTION('',(0.,0.,-1.));
#523=AXIS2_PLACEMENT_3D('',#520,#521,#522);
#524=PLANE('',#523);
#525=CARTESIAN_POINT('',(17.09994657,-30.704487273,0.));
#526=VERTEX_POINT('',#525);
#527=CARTESIAN_POINT('',(17.09994657,-16.704487273,0.));
#528=DIRECTION('',(0.,-1.,0.));
#529=VECTOR('',#528,14.);
#530=LINE('',#527,#529);
#531=EDGE_CURVE('',#488,#526,#530,.T.);
#532=ORIENTED_EDGE('',*,*,#531,.T.);
#533=CARTESIAN_POINT('',(17.09994657,-30.704487273,1.5));
#534=VERTEX_POINT('',#533);
#535=CARTESIAN_POINT('',(17.09994657,-30.704487273,1.5));
#536=DIRECTION('',(0.,-0.,-1.));
#537=VECTOR('',#536,1.5);
#538=LINE('',#535,#537);
#539=EDGE_CURVE('',#534,#526,#538,.T.);
#540=ORIENTED_EDGE('',*,*,#539,.F.);
#541=CARTESIAN_POINT('',(17.09994657,-16.704487273,1.5));
#542=DIRECTION('',(0.,-1.,0.));
#543=VECTOR('',#542,14.);
#544=LINE('',#541,#543);
#545=EDGE_CURVE('',#496,#534,#544,.T.);
#546=ORIENTED_EDGE('',*,*,#545,.F.);
#547=ORIENTED_EDGE('',*,*,#501,.T.);
#548=EDGE_LOOP('',(#532,#540,#546,#547));
#549=FACE_BOUND('',#548,.T.);
#550=ADVANCED_FACE('',(#549),#524,.F.);
#551=CARTESIAN_POINT('',(17.09994657,-30.704487273,1.5));
#552=DIRECTION('',(0.,1.,-0.));
#553=DIRECTION('',(0.,0.,1.));
#554=AXIS2_PLACEMENT_3D('',#551,#552,#553);
#555=PLANE('',#554);
#556=CARTESIAN_POINT('',(35.09994657,-30.704487273,0.));
#557=VERTEX_POINT('',#556);
#558=CARTESIAN_POINT('',(17.09994657,-30.704487273,0.));
#559=DIRECTION('',(1.,0.,-0.));
#560=VECTOR('',#559,18.);
#561=LINE('',#558,#560);
#562=EDGE_CURVE('',#526,#557,#561,.T.);
#563=ORIENTED_EDGE('',*,*,#562,.T.);
#564=CARTESIAN_POINT('',(35.09994657,-30.704487273,1.5));
#565=VERTEX_POINT('',#564);
#566=CARTESIAN_POINT('',(35.09994657,-30.704487273,1.5));
#567=DIRECTION('',(0.,-0.,-1.));
#568=VECTOR('',#567,1.5);
#569=LINE('',#566,#568);
#570=EDGE_CURVE('',#565,#557,#569,.T.);
#571=ORIENTED_EDGE('',*,*,#570,.F.);
#572=CARTESIAN_POINT('',(17.09994657,-30.704487273,1.5));
#573=DIRECTION('',(1.,0.,-0.));
#574=VECTOR('',#573,18.);
#575=LINE('',#572,#574);
#576=EDGE_CURVE('',#534,#565,#575,.T.);
#577=ORIENTED_EDGE('',*,*,#576,.F.);
#578=ORIENTED_EDGE('',*,*,#539,.T.);
#579=EDGE_LOOP('',(#563,#571,#577,#578));
#580=FACE_BOUND('',#579,.T.);
#581=ADVANCED_FACE('',(#580),#555,.F.);
#582=CARTESIAN_POINT('',(35.09994657,-30.704487273,1.5));
#583=DIRECTION('',(-1.,0.,0.));
#584=DIRECTION('',(0.,0.,1.));
#585=AXIS2_PLACEMENT_3D('',#582,#583,#584);
#586=PLANE('',#585);
#587=CARTESIAN_POINT('',(35.09994657,-30.704487273,0.));
#588=DIRECTION('',(0.,1.,0.));
#589=VECTOR('',#588,14.);
#590=LINE('',#587,#589);
#591=EDGE_CURVE('',#557,#486,#590,.T.);
#592=ORIENTED_EDGE('',*,*,#591,.T.);
#593=ORIENTED_EDGE('',*,*,#515,.F.);
#594=CARTESIAN_POINT('',(35.09994657,-30.704487273,1.5));
#595=DIRECTION('',(0.,1.,0.));
#596=VECTOR('',#595,14.);
#597=LINE('',#594,#596);
#598=EDGE_CURVE('',#565,#504,#597,.T.);
#599=ORIENTED_EDGE('',*,*,#598,.F.);
#600=ORIENTED_EDGE('',*,*,#570,.T.);
#601=EDGE_LOOP('',(#592,#593,#599,#600));
#602=FACE_BOUND('',#601,.T.);
#603=ADVANCED_FACE('',(#602),#586,.F.);
#604=CARTESIAN_POINT('',(0.,0.,1.5));
#605=DIRECTION('',(0.,0.,1.));
#606=DIRECTION('',(1.,0.,0.));
#607=AXIS2_PLACEMENT_3D('',#604,#605,#606);
#608=PLANE('',#607);
#609=ORIENTED_EDGE('',*,*,#509,.T.);
#610=ORIENTED_EDGE('',*,*,#545,.T.);
#611=ORIENTED_EDGE('',*,*,#576,.T.);
#612=ORIENTED_EDGE('',*,*,#598,.T.);
#613=EDGE_LOOP('',(#609,#610,#611,#612));
#614=FACE_BOUND('',#613,.T.);
#615=ADVANCED_FACE('',(#614),#608,.T.);
#616=CARTESIAN_POINT('',(0.,0.,0.));
#617=DIRECTION('',(0.,0.,1.));
#618=DIRECTION('',(1.,0.,0.));
#619=AXIS2_PLACEMENT_3D('',#616,#617,#618);
#620=PLANE('',#619);
#621=ORIENTED_EDGE('',*,*,#493,.F.);
#622=ORIENTED_EDGE('',*,*,#591,.F.);
#623=ORIENTED_EDGE('',*,*,#562,.F.);
#624=ORIENTED_EDGE('',*,*,#531,.F.);
#625=EDGE_LOOP('',(#621,#622,#623,#624));
#626=FACE_BOUND('',#625,.T.);
#627=ADVANCED_FACE('',(#626),#620,.F.);
#628=CLOSED_SHELL('',(#519,#550,#581,#603,#615,#627));
#629=MANIFOLD_SOLID_BREP('Extruded.007',#628);
#479=STYLED_ITEM('',(),#629);
#631=CARTESIAN_POINT('',(35.09994657,-1.301801589,1.));
#632=DIRECTION('',(0.,-1.,0.));
#633=DIRECTION('',(0.,-0.,-1.));
#634=AXIS2_PLACEMENT_3D('',#631,#632,#633);
#635=PLANE('',#634);
#636=CARTESIAN_POINT('',(35.09994657,-1.301801589,0.));
#637=VERTEX_POINT('',#636);
#638=CARTESIAN_POINT('',(17.09994657,-1.301801589,0.));
#639=VERTEX_POINT('',#638);
#640=CARTESIAN_POINT('',(35.09994657,-1.301801589,0.));
#641=DIRECTION('',(-1.,0.,0.));
#642=VECTOR('',#641,18.);
#643=LINE('',#640,#642);
#644=EDGE_CURVE('',#637,#639,#643,.T.);
#645=ORIENTED_EDGE('',*,*,#644,.T.);
#646=CARTESIAN_POINT('',(17.09994657,-1.301801589,1.));
#647=VERTEX_POINT('',#646);
#648=CARTESIAN_POINT('',(17.09994657,-1.301801589,1.));
#649=DIRECTION('',(0.,-0.,-1.));
#650=VECTOR('',#649,1.);
#651=LINE('',#648,#650);
#652=EDGE_CURVE('',#647,#639,#651,.T.);
#653=ORIENTED_EDGE('',*,*,#652,.F.);
#654=CARTESIAN_POINT('',(35.09994657,-1.301801589,1.));
#655=VERTEX_POINT('',#654);
#656=CARTESIAN_POINT('',(35.09994657,-1.301801589,1.));
#657=DIRECTION('',(-1.,0.,0.));
#658=VECTOR('',#657,18.);
#659=LINE('',#656,#658);
#660=EDGE_CURVE('',#655,#647,#659,.T.);
#661=ORIENTED_EDGE('',*,*,#660,.F.);
#662=CARTESIAN_POINT('',(35.09994657,-1.301801589,1.));
#663=DIRECTION('',(0.,-0.,-1.));
#664=VECTOR('',#663,1.);
#665=LINE('',#662,#664);
#666=EDGE_CURVE('',#655,#637,#665,.T.);
#667=ORIENTED_EDGE('',*,*,#666,.T.);
#668=EDGE_LOOP('',(#645,#653,#661,#667));
#669=FACE_BOUND('',#668,.T.);
#670=ADVANCED_FACE('',(#669),#635,.F.);
#671=CARTESIAN_POINT('',(17.09994657,-1.301801589,1.));
#672=DIRECTION('',(1.,0.,0.));
#673=DIRECTION('',(0.,0.,-1.));
#674=AXIS2_PLACEMENT_3D('',#671,#672,#673);
#675=PLANE('',#674);
#676=CARTESIAN_POINT('',(17.09994657,-15.301801589,0.));
#677=VERTEX_POINT('',#676);
#678=CARTESIAN_POINT('',(17.09994657,-1.301801589,0.));
#679=DIRECTION('',(0.,-1.,0.));
#680=VECTOR('',#679,14.);
#681=LINE('',#678,#680);
#682=EDGE_CURVE('',#639,#677,#681,.T.);
#683=ORIENTED_EDGE('',*,*,#682,.T.);
#684=CARTESIAN_POINT('',(17.09994657,-15.301801589,1.));
#685=VERTEX_POINT('',#684);
#686=CARTESIAN_POINT('',(17.09994657,-15.301801589,1.));
#687=DIRECTION('',(0.,-0.,-1.));
#688=VECTOR('',#687,1.);
#689=LINE('',#686,#688);
#690=EDGE_CURVE('',#685,#677,#689,.T.);
#691=ORIENTED_EDGE('',*,*,#690,.F.);
#692=CARTESIAN_POINT('',(17.09994657,-1.301801589,1.));
#693=DIRECTION('',(0.,-1.,0.));
#694=VECTOR('',#693,14.);
#695=LINE('',#692,#694);
#696=EDGE_CURVE('',#647,#685,#695,.T.);
#697=ORIENTED_EDGE('',*,*,#696,.F.);
#698=ORIENTED_EDGE('',*,*,#652,.T.);
#699=EDGE_LOOP('',(#683,#691,#697,#698));
#700=FACE_BOUND('',#699,.T.);
#701=ADVANCED_FACE('',(#700),#675,.F.);
#702=CARTESIAN_POINT('',(17.09994657,-15.301801589,1.));
#703=DIRECTION('',(0.,1.,-0.));
#704=DIRECTION('',(0.,0.,1.));
#705=AXIS2_PLACEMENT_3D('',#702,#703,#704);
#706=PLANE('',#705);
#707=CARTESIAN_POINT('',(35.09994657,-15.301801589,0.));
#708=VERTEX_POINT('',#707);
#709=CARTESIAN_POINT('',(17.09994657,-15.301801589,0.));
#710=DIRECTION('',(1.,0.,-0.));
#711=VECTOR('',#710,18.);
#712=LINE('',#709,#711);
#713=EDGE_CURVE('',#677,#708,#712,.T.);
#714=ORIENTED_EDGE('',*,*,#713,.T.);
#715=CARTESIAN_POINT('',(35.09994657,-15.301801589,1.));
#716=VERTEX_POINT('',#715);
#717=CARTESIAN_POINT('',(35.09994657,-15.301801589,1.));
#718=DIRECTION('',(0.,-0.,-1.));
#719=VECTOR('',#718,1.);
#720=LINE('',#717,#719);
#721=EDGE_CURVE('',#716,#708,#720,.T.);
#722=ORIENTED_EDGE('',*,*,#721,.F.);
#723=CARTESIAN_POINT('',(17.09994657,-15.301801589,1.));
#724=DIRECTION('',(1.,0.,-0.));
#725=VECTOR('',#724,18.);
#726=LINE('',#723,#725);
#727=EDGE_CURVE('',#685,#716,#726,.T.);
#728=ORIENTED_EDGE('',*,*,#727,.F.);
#729=ORIENTED_EDGE('',*,*,#690,.T.);
#730=EDGE_LOOP('',(#714,#722,#728,#729));
#731=FACE_BOUND('',#730,.T.);
#732=ADVANCED_FACE('',(#731),#706,.F.);
#733=CARTESIAN_POINT('',(35.09994657,-15.301801589,1.));
#734=DIRECTION('',(-1.,0.,0.));
#735=DIRECTION('',(0.,0.,1.));
#736=AXIS2_PLACEMENT_3D('',#733,#734,#735);
#737=PLANE('',#736);
#738=CARTESIAN_POINT('',(35.09994657,-15.301801589,0.));
#739=DIRECTION('',(0.,1.,0.));
#740=VECTOR('',#739,14.);
#741=LINE('',#738,#740);
#742=EDGE_CURVE('',#708,#637,#741,.T.);
#743=ORIENTED_EDGE('',*,*,#742,.T.);
#744=ORIENTED_EDGE('',*,*,#666,.F.);
#745=CARTESIAN_POINT('',(35.09994657,-15.301801589,1.));
#746=DIRECTION('',(0.,1.,0.));
#747=VECTOR('',#746,14.);
#748=LINE('',#745,#747);
#749=EDGE_CURVE('',#716,#655,#748,.T.);
#750=ORIENTED_EDGE('',*,*,#749,.F.);
#751=ORIENTED_EDGE('',*,*,#721,.T.);
#752=EDGE_LOOP('',(#743,#744,#750,#751));
#753=FACE_BOUND('',#752,.T.);
#754=ADVANCED_FACE('',(#753),#737,.F.);
#755=CARTESIAN_POINT('',(0.,0.,1.));
#756=DIRECTION('',(0.,0.,1.));
#757=DIRECTION('',(1.,0.,0.));
#758=AXIS2_PLACEMENT_3D('',#755,#756,#757);
#759=PLANE('',#758);
#760=ORIENTED_EDGE('',*,*,#660,.T.);
#761=ORIENTED_EDGE('',*,*,#696,.T.);
#762=ORIENTED_EDGE('',*,*,#727,.T.);
#763=ORIENTED_EDGE('',*,*,#749,.T.);
#764=EDGE_LOOP('',(#760,#761,#762,#763));
#765=FACE_BOUND('',#764,.T.);
#766=ADVANCED_FACE('',(#765),#759,.T.);
#767=CARTESIAN_POINT('',(0.,0.,0.));
#768=DIRECTION('',(0.,0.,1.));
#769=DIRECTION('',(1.,0.,0.));
#770=AXIS2_PLACEMENT_3D('',#767,#768,#769);
#771=PLANE('',#770);
#772=ORIENTED_EDGE('',*,*,#644,.F.);
#773=ORIENTED_EDGE('',*,*,#742,.F.);
#774=ORIENTED_EDGE('',*,*,#713,.F.);
#775=ORIENTED_EDGE('',*,*,#682,.F.);
#776=EDGE_LOOP('',(#772,#773,#774,#775));
#777=FACE_BOUND('',#776,.T.);
#778=ADVANCED_FACE('',(#777),#771,.F.);
#779=CLOSED_SHELL('',(#670,#701,#732,#754,#766,#778));
#780=MANIFOLD_SOLID_BREP('Extruded.006',#779);
#630=STYLED_ITEM('',(),#780);
#782=CARTESIAN_POINT('',(35.09994657,14.,0.5));
#783=DIRECTION('',(0.,-1.,0.));
#784=DIRECTION('',(0.,-0.,-1.));
#785=AXIS2_PLACEMENT_3D('',#782,#783,#784);
#786=PLANE('',#785);
#787=CARTESIAN_POINT('',(35.09994657,14.,0.));
#788=VERTEX_POINT('',#787);
#789=CARTESIAN_POINT('',(17.09994657,14.,0.));
#790=VERTEX_POINT('',#789);
#791=CARTESIAN_POINT('',(35.09994657,14.,0.));
#792=DIRECTION('',(-1.,0.,0.));
#793=VECTOR('',#792,18.);
#794=LINE('',#791,#793);
#795=EDGE_CURVE('',#788,#790,#794,.T.);
#796=ORIENTED_EDGE('',*,*,#795,.T.);
#797=CARTESIAN_POINT('',(17.09994657,14.,0.5));
#798=VERTEX_POINT('',#797);
#799=CARTESIAN_POINT('',(17.09994657,14.,0.5));
#800=DIRECTION('',(0.,-0.,-1.));
#801=VECTOR('',#800,0.5);
#802=LINE('',#799,#801);
#803=EDGE_CURVE('',#798,#790,#802,.T.);
#804=ORIENTED_EDGE('',*,*,#803,.F.);
#805=CARTESIAN_POINT('',(35.09994657,14.,0.5));
#806=VERTEX_POINT('',#805);
#807=CARTESIAN_POINT('',(35.09994657,14.,0.5));
#808=DIRECTION('',(-1.,0.,0.));
#809=VECTOR('',#808,18.);
#810=LINE('',#807,#809);
#811=EDGE_CURVE('',#806,#798,#810,.T.);
#812=ORIENTED_EDGE('',*,*,#811,.F.);
#813=CARTESIAN_POINT('',(35.09994657,14.,0.5));
#814=DIRECTION('',(0.,-0.,-1.));
#815=VECTOR('',#814,0.5);
#816=LINE('',#813,#815);
#817=EDGE_CURVE('',#806,#788,#816,.T.);
#818=ORIENTED_EDGE('',*,*,#817,.T.);
#819=EDGE_LOOP('',(#796,#804,#812,#818));
#820=FACE_BOUND('',#819,.T.);
#821=ADVANCED_FACE('',(#820),#786,.F.);
#822=CARTESIAN_POINT('',(17.09994657,14.,0.5));
#823=DIRECTION('',(1.,0.,0.));
#824=DIRECTION('',(0.,0.,-1.));
#825=AXIS2_PLACEMENT_3D('',#822,#823,#824);
#826=PLANE('',#825);
#827=CARTESIAN_POINT('',(17.09994657,0.,0.));
#828=VERTEX_POINT('',#827);
#829=CARTESIAN_POINT('',(17.09994657,14.,0.));
#830=DIRECTION('',(0.,-1.,0.));
#831=VECTOR('',#830,14.);
#832=LINE('',#829,#831);
#833=EDGE_CURVE('',#790,#828,#832,.T.);
#834=ORIENTED_EDGE('',*,*,#833,.T.);
#835=CARTESIAN_POINT('',(17.09994657,0.,0.5));
#836=VERTEX_POINT('',#835);
#837=CARTESIAN_POINT('',(17.09994657,0.,0.5));
#838=DIRECTION('',(0.,-0.,-1.));
#839=VECTOR('',#838,0.5);
#840=LINE('',#837,#839);
#841=EDGE_CURVE('',#836,#828,#840,.T.);
#842=ORIENTED_EDGE('',*,*,#841,.F.);
#843=CARTESIAN_POINT('',(17.09994657,14.,0.5));
#844=DIRECTION('',(0.,-1.,0.));
#845=VECTOR('',#844,14.);
#846=LINE('',#843,#845);
#847=EDGE_CURVE('',#798,#836,#846,.T.);
#848=ORIENTED_EDGE('',*,*,#847,.F.);
#849=ORIENTED_EDGE('',*,*,#803,.T.);
#850=EDGE_LOOP('',(#834,#842,#848,#849));
#851=FACE_BOUND('',#850,.T.);
#852=ADVANCED_FACE('',(#851),#826,.F.);
#853=CARTESIAN_POINT('',(17.09994657,0.,0.5));
#854=DIRECTION('',(0.,1.,-0.));
#855=DIRECTION('',(0.,0.,1.));
#856=AXIS2_PLACEMENT_3D('',#853,#854,#855);
#857=PLANE('',#856);
#858=CARTESIAN_POINT('',(35.09994657,0.,0.));
#859=VERTEX_POINT('',#858);
#860=CARTESIAN_POINT('',(17.09994657,0.,0.));
#861=DIRECTION('',(1.,0.,-0.));
#862=VECTOR('',#861,18.);
#863=LINE('',#860,#862);
#864=EDGE_CURVE('',#828,#859,#863,.T.);
#865=ORIENTED_EDGE('',*,*,#864,.T.);
#866=CARTESIAN_POINT('',(35.09994657,0.,0.5));
#867=VERTEX_POINT('',#866);
#868=CARTESIAN_POINT('',(35.09994657,0.,0.5));
#869=DIRECTION('',(0.,-0.,-1.));
#870=VECTOR('',#869,0.5);
#871=LINE('',#868,#870);
#872=EDGE_CURVE('',#867,#859,#871,.T.);
#873=ORIENTED_EDGE('',*,*,#872,.F.);
#874=CARTESIAN_POINT('',(17.09994657,0.,0.5));
#875=DIRECTION('',(1.,0.,-0.));
#876=VECTOR('',#875,18.);
#877=LINE('',#874,#876);
#878=EDGE_CURVE('',#836,#867,#877,.T.);
#879=ORIENTED_EDGE('',*,*,#878,.F.);
#880=ORIENTED_EDGE('',*,*,#841,.T.);
#881=EDGE_LOOP('',(#865,#873,#879,#880));
#882=FACE_BOUND('',#881,.T.);
#883=ADVANCED_FACE('',(#882),#857,.F.);
#884=CARTESIAN_POINT('',(35.09994657,0.,0.5));
#885=DIRECTION('',(-1.,0.,0.));
#886=DIRECTION('',(0.,0.,1.));
#887=AXIS2_PLACEMENT_3D('',#884,#885,#886);
#888=PLANE('',#887);
#889=CARTESIAN_POINT('',(35.09994657,0.,0.));
#890=DIRECTION('',(0.,1.,0.));
#891=VECTOR('',#890,14.);
#892=LINE('',#889,#891);
#893=EDGE_CURVE('',#859,#788,#892,.T.);
#894=ORIENTED_EDGE('',*,*,#893,.T.);
#895=ORIENTED_EDGE('',*,*,#817,.F.);
#896=CARTESIAN_POINT('',(35.09994657,0.,0.5));
#897=DIRECTION('',(0.,1.,0.));
#898=VECTOR('',#897,14.);
#899=LINE('',#896,#898);
#900=EDGE_CURVE('',#867,#806,#899,.T.);
#901=ORIENTED_EDGE('',*,*,#900,.F.);
#902=ORIENTED_EDGE('',*,*,#872,.T.);
#903=EDGE_LOOP('',(#894,#895,#901,#902));
#904=FACE_BOUND('',#903,.T.);
#905=ADVANCED_FACE('',(#904),#888,.F.);
#906=CARTESIAN_POINT('',(0.,0.,0.5));
#907=DIRECTION('',(0.,0.,1.));
#908=DIRECTION('',(1.,0.,0.));
#909=AXIS2_PLACEMENT_3D('',#906,#907,#908);
#910=PLANE('',#909);
#911=ORIENTED_EDGE('',*,*,#811,.T.);
#912=ORIENTED_EDGE('',*,*,#847,.T.);
#913=ORIENTED_EDGE('',*,*,#878,.T.);
#914=ORIENTED_EDGE('',*,*,#900,.T.);
#915=EDGE_LOOP('',(#911,#912,#913,#914));
#916=FACE_BOUND('',#915,.T.);
#917=ADVANCED_FACE('',(#916),#910,.T.);
#918=CARTESIAN_POINT('',(0.,0.,0.));
#919=DIRECTION('',(0.,0.,1.));
#920=DIRECTION('',(1.,0.,0.));
#921=AXIS2_PLACEMENT_3D('',#918,#919,#920);
#922=PLANE('',#921);
#923=ORIENTED_EDGE('',*,*,#795,.F.);
#924=ORIENTED_EDGE('',*,*,#893,.F.);
#925=ORIENTED_EDGE('',*,*,#864,.F.);
#926=ORIENTED_EDGE('',*,*,#833,.F.);
#927=EDGE_LOOP('',(#923,#924,#925,#926));
#928=FACE_BOUND('',#927,.T.);
#929=ADVANCED_FACE('',(#928),#922,.F.);
#930=CLOSED_SHELL('',(#821,#852,#883,#905,#917,#929));
#931=MANIFOLD_SOLID_BREP('Extruded.005',#930);
#781=STYLED_ITEM('',(),#931);
#933=CARTESIAN_POINT('',(54.984991293,-1.301801589,3.));
#934=DIRECTION('',(0.,-1.,0.));
#935=DIRECTION('',(0.,-0.,-1.));
#936=AXIS2_PLACEMENT_3D('',#933,#934,#935);
#937=PLANE('',#936);
#938=CARTESIAN_POINT('',(54.984991293,-1.301801589,0.));
#939=VERTEX_POINT('',#938);
#940=CARTESIAN_POINT('',(36.984991293,-1.301801589,0.));
#941=VERTEX_POINT('',#940);
#942=CARTESIAN_POINT('',(54.984991293,-1.301801589,0.));
#943=DIRECTION('',(-1.,0.,0.));
#944=VECTOR('',#943,18.);
#945=LINE('',#942,#944);
#946=EDGE_CURVE('',#939,#941,#945,.T.);
#947=ORIENTED_EDGE('',*,*,#946,.T.);
#948=CARTESIAN_POINT('',(36.984991293,-1.301801589,3.));
#949=VERTEX_POINT('',#948);
#950=CARTESIAN_POINT('',(36.984991293,-1.301801589,3.));
#951=DIRECTION('',(0.,-0.,-1.));
#952=VECTOR('',#951,3.);
#953=LINE('',#950,#952);
#954=EDGE_CURVE('',#949,#941,#953,.T.);
#955=ORIENTED_EDGE('',*,*,#954,.F.);
#956=CARTESIAN_POINT('',(54.984991293,-1.301801589,3.));
#957=VERTEX_POINT('',#956);
#958=CARTESIAN_POINT('',(54.984991293,-1.301801589,3.));
#959=DIRECTION('',(-1.,0.,0.));
#960=VECTOR('',#959,18.);
#961=LINE('',#958,#960);
#962=EDGE_CURVE('',#957,#949,#961,.T.);
#963=ORIENTED_EDGE('',*,*,#962,.F.);
#964=CARTESIAN_POINT('',(54.984991293,-1.301801589,3.));
#965=DIRECTION('',(0.,-0.,-1.));
#966=VECTOR('',#965,3.);
#967=LINE('',#964,#966);
#968=EDGE_CURVE('',#957,#939,#967,.T.);
#969=ORIENTED_EDGE('',*,*,#968,.T.);
#970=EDGE_LOOP('',(#947,#955,#963,#969));
#971=FACE_BOUND('',#970,.T.);
#972=ADVANCED_FACE('',(#971),#937,.F.);
#973=CARTESIAN_POINT('',(36.984991293,-1.301801589,3.));
#974=DIRECTION('',(1.,0.,0.));
#975=DIRECTION('',(0.,0.,-1.));
#976=AXIS2_PLACEMENT_3D('',#973,#974,#975);
#977=PLANE('',#976);
#978=CARTESIAN_POINT('',(36.984991293,-15.301801589,0.));
#979=VERTEX_POINT('',#978);
#980=CARTESIAN_POINT('',(36.984991293,-1.301801589,0.));
#981=DIRECTION('',(0.,-1.,0.));
#982=VECTOR('',#981,14.);
#983=LINE('',#980,#982);
#984=EDGE_CURVE('',#941,#979,#983,.T.);
#985=ORIENTED_EDGE('',*,*,#984,.T.);
#986=CARTESIAN_POINT('',(36.984991293,-15.301801589,3.));
#987=VERTEX_POINT('',#986);
#988=CARTESIAN_POINT('',(36.984991293,-15.301801589,3.));
#989=DIRECTION('',(0.,-0.,-1.));
#990=VECTOR('',#989,3.);
#991=LINE('',#988,#990);
#992=EDGE_CURVE('',#987,#979,#991,.T.);
#993=ORIENTED_EDGE('',*,*,#992,.F.);
#994=CARTESIAN_POINT('',(36.984991293,-1.301801589,3.));
#995=DIRECTION('',(0.,-1.,0.));
#996=VECTOR('',#995,14.);
#997=LINE('',#994,#996);
#998=EDGE_CURVE('',#949,#987,#997,.T.);
#999=ORIENTED_EDGE('',*,*,#998,.F.);
#1000=ORIENTED_EDGE('',*,*,#954,.T.);
#1001=EDGE_LOOP('',(#985,#993,#999,#1000));
#1002=FACE_BOUND('',#1001,.T.);
#1003=ADVANCED_FACE('',(#1002),#977,.F.);
#1004=CARTESIAN_POINT('',(36.984991293,-15.301801589,3.));
#1005=DIRECTION('',(0.,1.,-0.));
#1006=DIRECTION('',(0.,0.,1.));
#1007=AXIS2_PLACEMENT_3D('',#1004,#1005,#1006);
#1008=PLANE('',#1007);
#1009=CARTESIAN_POINT('',(54.984991293,-15.301801589,0.));
#1010=VERTEX_POINT('',#1009);
#1011=CARTESIAN_POINT('',(36.984991293,-15.301801589,0.));
#1012=DIRECTION('',(1.,0.,-0.));
#1013=VECTOR('',#1012,18.);
#1014=LINE('',#1011,#1013);
#1015=EDGE_CURVE('',#979,#1010,#1014,.T.);
#1016=ORIENTED_EDGE('',*,*,#1015,.T.);
#1017=CARTESIAN_POINT('',(54.984991293,-15.301801589,3.));
#1018=VERTEX_POINT('',#1017);
#1019=CARTESIAN_POINT('',(54.984991293,-15.301801589,3.));
#1020=DIRECTION('',(0.,-0.,-1.));
#1021=VECTOR('',#1020,3.);
#1022=LINE('',#1019,#1021);
#1023=EDGE_CURVE('',#1018,#1010,#1022,.T.);
#1024=ORIENTED_EDGE('',*,*,#1023,.F.);
#1025=CARTESIAN_POINT('',(36.984991293,-15.301801589,3.));
#1026=DIRECTION('',(1.,0.,-0.));
#1027=VECTOR('',#1026,18.);
#1028=LINE('',#1025,#1027);
#1029=EDGE_CURVE('',#987,#1018,#1028,.T.);
#1030=ORIENTED_EDGE('',*,*,#1029,.F.);
#1031=ORIENTED_EDGE('',*,*,#992,.T.);
#1032=EDGE_LOOP('',(#1016,#1024,#1030,#1031));
#1033=FACE_BOUND('',#1032,.T.);
#1034=ADVANCED_FACE('',(#1033),#1008,.F.);
#1035=CARTESIAN_POINT('',(54.984991293,-15.301801589,3.));
#1036=DIRECTION('',(-1.,0.,0.));
#1037=DIRECTION('',(0.,0.,1.));
#1038=AXIS2_PLACEMENT_3D('',#1035,#1036,#1037);
#1039=PLANE('',#1038);
#1040=CARTESIAN_POINT('',(54.984991293,-15.301801589,0.));
#1041=DIRECTION('',(0.,1.,0.));
#1042=VECTOR('',#1041,14.);
#1043=LINE('',#1040,#1042);
#1044=EDGE_CURVE('',#1010,#939,#1043,.T.);
#1045=ORIENTED_EDGE('',*,*,#1044,.T.);
#1046=ORIENTED_EDGE('',*,*,#968,.F.);
#1047=CARTESIAN_POINT('',(54.984991293,-15.301801589,3.));
#1048=DIRECTION('',(0.,1.,0.));
#1049=VECTOR('',#1048,14.);
#1050=LINE('',#1047,#1049);
#1051=EDGE_CURVE('',#1018,#957,#1050,.T.);
#1052=ORIENTED_EDGE('',*,*,#1051,.F.);
#1053=ORIENTED_EDGE('',*,*,#1023,.T.);
#1054=EDGE_LOOP('',(#1045,#1046,#1052,#1053));
#1055=FACE_BOUND('',#1054,.T.);
#1056=ADVANCED_FACE('',(#1055),#1039,.F.);
#1057=CARTESIAN_POINT('',(0.,0.,3.));
#1058=DIRECTION('',(0.,0.,1.));
#1059=DIRECTION('',(1.,0.,0.));
#1060=AXIS2_PLACEMENT_3D('',#1057,#1058,#1059);
#1061=PLANE('',#1060);
#1062=ORIENTED_EDGE('',*,*,#962,.T.);
#1063=ORIENTED_EDGE('',*,*,#998,.T.);
#1064=ORIENTED_EDGE('',*,*,#1029,.T.);
#1065=ORIENTED_EDGE('',*,*,#1051,.T.);
#1066=EDGE_LOOP('',(#1062,#1063,#1064,#1065));
#1067=FACE_BOUND('',#1066,.T.);
#1068=ADVANCED_FACE('',(#1067),#1061,.T.);
#1069=CARTESIAN_POINT('',(0.,0.,0.));
#1070=DIRECTION('',(0.,0.,1.));
#1071=DIRECTION('',(1.,0.,0.));
#1072=AXIS2_PLACEMENT_3D('',#1069,#1070,#1071);
#1073=PLANE('',#1072);
#1074=ORIENTED_EDGE('',*,*,#946,.F.);
#1075=ORIENTED_EDGE('',*,*,#1044,.F.);
#1076=ORIENTED_EDGE('',*,*,#1015,.F.);
#1077=ORIENTED_EDGE('',*,*,#984,.F.);
#1078=EDGE_LOOP('',(#1074,#1075,#1076,#1077));
#1079=FACE_BOUND('',#1078,.T.);
#1080=ADVANCED_FACE('',(#1079),#1073,.F.);
#1081=CLOSED_SHELL('',(#972,#1003,#1034,#1056,#1068,#1080));
#1082=MANIFOLD_SOLID_BREP('Extruded.010',#1081);
#932=STYLED_ITEM('',(),#1082);
#1084=CARTESIAN_POINT('',(54.984991293,14.,2.5));
#1085=DIRECTION('',(0.,-1.,0.));
#1086=DIRECTION('',(0.,-0.,-1.));
#1087=AXIS2_PLACEMENT_3D('',#1084,#1085,#1086);
#1088=PLANE('',#1087);
#1089=CARTESIAN_POINT('',(54.984991293,14.,0.));
#1090=VERTEX_POINT('',#1089);
#1091=CARTESIAN_POINT('',(36.984991293,14.,0.));
#1092=VERTEX_POINT('',#1091);
#1093=CARTESIAN_POINT('',(54.984991293,14.,0.));
#1094=DIRECTION('',(-1.,0.,0.));
#1095=VECTOR('',#1094,18.);
#1096=LINE('',#1093,#1095);
#1097=EDGE_CURVE('',#1090,#1092,#1096,.T.);
#1098=ORIENTED_EDGE('',*,*,#1097,.T.);
#1099=CARTESIAN_POINT('',(36.984991293,14.,2.5));
#1100=VERTEX_POINT('',#1099);
#1101=CARTESIAN_POINT('',(36.984991293,14.,2.5));
#1102=DIRECTION('',(0.,-0.,-1.));
#1103=VECTOR('',#1102,2.5);
#1104=LINE('',#1101,#1103);
#1105=EDGE_CURVE('',#1100,#1092,#1104,.T.);
#1106=ORIENTED_EDGE('',*,*,#1105,.F.);
#1107=CARTESIAN_POINT('',(54.984991293,14.,2.5));
#1108=VERTEX_POINT('',#1107);
#1109=CARTESIAN_POINT('',(54.984991293,14.,2.5));
#1110=DIRECTION('',(-1.,0.,0.));
#1111=VECTOR('',#1110,18.);
#1112=LINE('',#1109,#1111);
#1113=EDGE_CURVE('',#1108,#1100,#1112,.T.);
#1114=ORIENTED_EDGE('',*,*,#1113,.F.);
#1115=CARTESIAN_POINT('',(54.984991293,14.,2.5));
#1116=DIRECTION('',(0.,-0.,-1.));
#1117=VECTOR('',#1116,2.5);
#1118=LINE('',#1115,#1117);
#1119=EDGE_CURVE('',#1108,#1090,#1118,.T.);
#1120=ORIENTED_EDGE('',*,*,#1119,.T.);
#1121=EDGE_LOOP('',(#1098,#1106,#1114,#1120));
#1122=FACE_BOUND('',#1121,.T.);
#1123=ADVANCED_FACE('',(#1122),#1088,.F.);
#1124=CARTESIAN_POINT('',(36.984991293,14.,2.5));
#1125=DIRECTION('',(1.,0.,0.));
#1126=DIRECTION('',(0.,0.,-1.));
#1127=AXIS2_PLACEMENT_3D('',#1124,#1125,#1126);
#1128=PLANE('',#1127);
#1129=CARTESIAN_POINT('',(36.984991293,0.,0.));
#1130=VERTEX_POINT('',#1129);
#1131=CARTESIAN_POINT('',(36.984991293,14.,0.));
#1132=DIRECTION('',(0.,-1.,0.));
#1133=VECTOR('',#1132,14.);
#1134=LINE('',#1131,#1133);
#1135=EDGE_CURVE('',#1092,#1130,#1134,.T.);
#1136=ORIENTED_EDGE('',*,*,#1135,.T.);
#1137=CARTESIAN_POINT('',(36.984991293,0.,2.5));
#1138=VERTEX_POINT('',#1137);
#1139=CARTESIAN_POINT('',(36.984991293,0.,2.5));
#1140=DIRECTION('',(0.,-0.,-1.));
#1141=VECTOR('',#1140,2.5);
#1142=LINE('',#1139,#1141);
#1143=EDGE_CURVE('',#1138,#1130,#1142,.T.);
#1144=ORIENTED_EDGE('',*,*,#1143,.F.);
#1145=CARTESIAN_POINT('',(36.984991293,14.,2.5));
#1146=DIRECTION('',(0.,-1.,0.));
#1147=VECTOR('',#1146,14.);
#1148=LINE('',#1145,#1147);
#1149=EDGE_CURVE('',#1100,#1138,#1148,.T.);
#1150=ORIENTED_EDGE('',*,*,#1149,.F.);
#1151=ORIENTED_EDGE('',*,*,#1105,.T.);
#1152=EDGE_LOOP('',(#1136,#1144,#1150,#1151));
#1153=FACE_BOUND('',#1152,.T.);
#1154=ADVANCED_FACE('',(#1153),#1128,.F.);
#1155=CARTESIAN_POINT('',(36.984991293,0.,2.5));
#1156=DIRECTION('',(0.,1.,-0.));
#1157=DIRECTION('',(0.,0.,1.));
#1158=AXIS2_PLACEMENT_3D('',#1155,#1156,#1157);
#1159=PLANE('',#1158);
#1160=CARTESIAN_POINT('',(54.984991293,0.,0.));
#1161=VERTEX_POINT('',#1160);
#1162=CARTESIAN_POINT('',(36.984991293,0.,0.));
#1163=DIRECTION('',(1.,0.,-0.));
#1164=VECTOR('',#1163,18.);
#1165=LINE('',#1162,#1164);
#1166=EDGE_CURVE('',#1130,#1161,#1165,.T.);
#1167=ORIENTED_EDGE('',*,*,#1166,.T.);
#1168=CARTESIAN_POINT('',(54.984991293,0.,2.5));
#1169=VERTEX_POINT('',#1168);
#1170=CARTESIAN_POINT('',(54.984991293,0.,2.5));
#1171=DIRECTION('',(0.,-0.,-1.));
#1172=VECTOR('',#1171,2.5);
#1173=LINE('',#1170,#1172);
#1174=EDGE_CURVE('',#1169,#1161,#1173,.T.);
#1175=ORIENTED_EDGE('',*,*,#1174,.F.);
#1176=CARTESIAN_POINT('',(36.984991293,0.,2.5));
#1177=DIRECTION('',(1.,0.,-0.));
#1178=VECTOR('',#1177,18.);
#1179=LINE('',#1176,#1178);
#1180=EDGE_CURVE('',#1138,#1169,#1179,.T.);
#1181=ORIENTED_EDGE('',*,*,#1180,.F.);
#1182=ORIENTED_EDGE('',*,*,#1143,.T.);
#1183=EDGE_LOOP('',(#1167,#1175,#1181,#1182));
#1184=FACE_BOUND('',#1183,.T.);
#1185=ADVANCED_FACE('',(#1184),#1159,.F.);
#1186=CARTESIAN_POINT('',(54.984991293,0.,2.5));
#1187=DIRECTION('',(-1.,0.,0.));
#1188=DIRECTION('',(0.,0.,1.));
#1189=AXIS2_PLACEMENT_3D('',#1186,#1187,#1188);
#1190=PLANE('',#1189);
#1191=CARTESIAN_POINT('',(54.984991293,0.,0.));
#1192=DIRECTION('',(0.,1.,0.));
#1193=VECTOR('',#1192,14.);
#1194=LINE('',#1191,#1193);
#1195=EDGE_CURVE('',#1161,#1090,#1194,.T.);
#1196=ORIENTED_EDGE('',*,*,#1195,.T.);
#1197=ORIENTED_EDGE('',*,*,#1119,.F.);
#1198=CARTESIAN_POINT('',(54.984991293,0.,2.5));
#1199=DIRECTION('',(0.,1.,0.));
#1200=VECTOR('',#1199,14.);
#1201=LINE('',#1198,#1200);
#1202=EDGE_CURVE('',#1169,#1108,#1201,.T.);
#1203=ORIENTED_EDGE('',*,*,#1202,.F.);
#1204=ORIENTED_EDGE('',*,*,#1174,.T.);
#1205=EDGE_LOOP('',(#1196,#1197,#1203,#1204));
#1206=FACE_BOUND('',#1205,.T.);
#1207=ADVANCED_FACE('',(#1206),#1190,.F.);
#1208=CARTESIAN_POINT('',(0.,0.,2.5));
#1209=DIRECTION('',(0.,0.,1.));
#1210=DIRECTION('',(1.,0.,0.));
#1211=AXIS2_PLACEMENT_3D('',#1208,#1209,#1210);
#1212=PLANE('',#1211);
#1213=ORIENTED_EDGE('',*,*,#1113,.T.);
#1214=ORIENTED_EDGE('',*,*,#1149,.T.);
#1215=ORIENTED_EDGE('',*,*,#1180,.T.);
#1216=ORIENTED_EDGE('',*,*,#1202,.T.);
#1217=EDGE_LOOP('',(#1213,#1214,#1215,#1216));
#1218=FACE_BOUND('',#1217,.T.);
#1219=ADVANCED_FACE('',(#1218),#1212,.T.);
#1220=CARTESIAN_POINT('',(0.,0.,0.));
#1221=DIRECTION('',(0.,0.,1.));
#1222=DIRECTION('',(1.,0.,0.));
#1223=AXIS2_PLACEMENT_3D('',#1220,#1221,#1222);
#1224=PLANE('',#1223);
#1225=ORIENTED_EDGE('',*,*,#1097,.F.);
#1226=ORIENTED_EDGE('',*,*,#1195,.F.);
#1227=ORIENTED_EDGE('',*,*,#1166,.F.);
#1228=ORIENTED_EDGE('',*,*,#1135,.F.);
#1229=EDGE_LOOP('',(#1225,#1226,#1227,#1228));
#1230=FACE_BOUND('',#1229,.T.);
#1231=ADVANCED_FACE('',(#1230),#1224,.F.);
#1232=CLOSED_SHELL('',(#1123,#1154,#1185,#1207,#1219,#1231));
#1233=MANIFOLD_SOLID_BREP('Extruded.009',#1232);
#1083=STYLED_ITEM('',(),#1233);
#16=SHAPE_REPRESENTATION('root',(#15),#10);
#17=ADVANCED_BREP_SHAPE_REPRESENTATION('root',(#176,#327,#478,#629,#780,#931,#1082,#1233),#10);
#1241=SHAPE_REPRESENTATION_RELATIONSHIP('','',#16,#17);
#1242=APPLICATION_CONTEXT('configuration controlled 3D design of mechanical parts and assemblies');
#1243=APPLICATION_PROTOCOL_DEFINITION('international standard','configuration_control_3d_design_ed2_mim',2004,#1242);
#1244=PRODUCT_CONTEXT('',#1242,'mechanical');
#1245=PRODUCT_DEFINITION_CONTEXT('part definition',#1242,'design');
#24=PRODUCT('root','root','',(#1244));
#1246=PRODUCT_RELATED_PRODUCT_CATEGORY('part','',(#24));
#1247=PRODUCT_DEFINITION_FORMATION_WITH_SPECIFIED_SOURCE('','',#24,.NOT_KNOWN.);
#25=PRODUCT_DEFINITION('design','',#1247,#1245);
#23=PRODUCT_DEFINITION_SHAPE('','',#25);
#1248=SHAPE_DEFINITION_REPRESENTATION(#23,#16);
#11=DRAUGHTING_MODEL('',(),#10);
#1=MECHANICAL_DESIGN_GEOMETRIC_PRESENTATION_REPRESENTATION('',(#26,#177,#328,#479,#630,#781,#932,#1083),#10);
ENDSEC;
END-ISO-10303-21;
