ISO-10303-21;
HEADER;

/* File generated by HOOPS Exchange Version 25.8.0 */

FILE_DESCRIPTION(('HOOPS Exchange Step'),'2;1');

FILE_NAME('/home/tfannes/prints/260616_ttmotor_holder/motor_holder_2.step',
'2026-06-16T19:51:28+02:00',
('tfannes'),
('Unknown organisation'),
'HOOPS Exchange 2025.8',
'HOOPS Exchange',
'Unknown authorisation');

FILE_SCHEMA( ('AP203_CONFIGURATION_CONTROLLED_3D_DESIGN_OF_MECHANICAL_PARTS_AND_ASSEMBLIES_MIM_LF') );

ENDSEC;

DATA;
#3=(NAMED_UNIT(*)PLANE_ANGLE_UNIT()SI_UNIT($,.RADIAN.));
#4=PLANE_ANGLE_MEASURE_WITH_UNIT(PLANE_ANGLE_MEASURE(0.0174532925),#3);
#5=(CONVERSION_BASED_UNIT('DEGREE',#4)NAMED_UNIT(#6)PLANE_ANGLE_UNIT());
#6=DIMENSIONAL_EXPONENTS(0.,0.,0.,0.,0.,0.,0.);
#7=(NAMED_UNIT(*)SI_UNIT($,.STERADIAN.)SOLID_ANGLE_UNIT());
#8=(LENGTH_UNIT()NAMED_UNIT(*)SI_UNIT(.MILLI.,.METRE.));
#9=UNCERTAINTY_MEASURE_WITH_UNIT(LENGTH_MEASURE(1.000000E-05),#8,'DISTANCE_ACCURACY_VALUE','Maximum Tolerance applied to model');
#10=(GEOMETRIC_REPRESENTATION_CONTEXT(3)GLOBAL_UNCERTAINTY_ASSIGNED_CONTEXT((#9))GLOBAL_UNIT_ASSIGNED_CONTEXT((#8,#5,#7))REPRESENTATION_CONTEXT('','root'));
#12=CARTESIAN_POINT('',(0.,0.,0.));
#13=DIRECTION('',(0.,0.,1.));
#14=DIRECTION('',(1.,0.,0.));
#15=AXIS2_PLACEMENT_3D('TS3D_PRODUCT_CSYS',#12,#13,#14);
#27=CARTESIAN_POINT('',(1.7,-19.333266737,5.379560146));
#28=CARTESIAN_POINT('',(1.7,-14.533266737,5.379560146));
#29=CARTESIAN_POINT('',(1.7,-19.333266737,-3.882772148));
#30=CARTESIAN_POINT('',(1.7,-14.533266737,-3.882772148));
#31=B_SPLINE_SURFACE_WITH_KNOTS('',1,1,((#27,#28),(#29,#30)),.UNSPECIFIED.,.F.,.F.,.U.,(2,2),(2,2),(-0.000897508,0.008364825),(-0.0048,0.),.UNSPECIFIED.);
#32=CARTESIAN_POINT('',(1.7,-17.056369047,-1.649999836));
#33=VERTEX_POINT('',#32);
#34=CARTESIAN_POINT('',(1.7,-15.406369047,0.000000164));
#35=VERTEX_POINT('',#34);
#36=CARTESIAN_POINT('',(1.7,-17.056369047,-1.649999836));
#37=CARTESIAN_POINT('',(1.7,-15.406369047,-1.649999836));
#38=CARTESIAN_POINT('',(1.7,-15.406369047,0.000000164));
#39=CARTESIAN_POINT('',(1.7,-15.406369047,1.650000164));
#40=CARTESIAN_POINT('',(1.7,-17.056369047,1.650000164));
#41=CARTESIAN_POINT('',(1.7,-18.706369047,1.650000164));
#42=CARTESIAN_POINT('',(1.7,-18.706369047,0.000000164));
#43=CARTESIAN_POINT('',(1.7,-18.706369047,-1.649999836));
#44=CARTESIAN_POINT('',(1.7,-17.056369047,-1.649999836));
#45=(BOUNDED_CURVE()
B_SPLINE_CURVE(2,(#36,#37,#38,#39,#40,#41,#42,#43,#44),.UNSPECIFIED.,.T.,.F.)
B_SPLINE_CURVE_WITH_KNOTS((3,2,2,2,3),(0.,1.570796327,3.141592654,4.71238898,6.283185307),.UNSPECIFIED.)
CURVE()
GEOMETRIC_REPRESENTATION_ITEM()
RATIONAL_B_SPLINE_CURVE((1.,0.707106781,1.,0.707106781,1.,0.707106781,1.,0.707106781,1.))
REPRESENTATION_ITEM(''));
#46=EDGE_CURVE('',#33,#35,#45,.T.);
#47=ORIENTED_EDGE('',*,*,#46,.T.);
#48=CARTESIAN_POINT('',(1.7,-17.056369047,-1.649999836));
#49=CARTESIAN_POINT('',(1.7,-15.406369047,-1.649999836));
#50=CARTESIAN_POINT('',(1.7,-15.406369047,0.000000164));
#51=CARTESIAN_POINT('',(1.7,-15.406369047,1.650000164));
#52=CARTESIAN_POINT('',(1.7,-17.056369047,1.650000164));
#53=CARTESIAN_POINT('',(1.7,-18.706369047,1.650000164));
#54=CARTESIAN_POINT('',(1.7,-18.706369047,0.000000164));
#55=CARTESIAN_POINT('',(1.7,-18.706369047,-1.649999836));
#56=CARTESIAN_POINT('',(1.7,-17.056369047,-1.649999836));
#57=(BOUNDED_CURVE()
B_SPLINE_CURVE(2,(#48,#49,#50,#51,#52,#53,#54,#55,#56),.UNSPECIFIED.,.T.,.F.)
B_SPLINE_CURVE_WITH_KNOTS((3,2,2,2,3),(0.,1.570796327,3.141592654,4.71238898,6.283185307),.UNSPECIFIED.)
CURVE()
GEOMETRIC_REPRESENTATION_ITEM()
RATIONAL_B_SPLINE_CURVE((1.,0.707106781,1.,0.707106781,1.,0.707106781,1.,0.707106781,1.))
REPRESENTATION_ITEM(''));
#58=EDGE_CURVE('',#35,#33,#57,.T.);
#59=ORIENTED_EDGE('',*,*,#58,.T.);
#60=EDGE_LOOP('',(#47,#59));
#61=FACE_BOUND('',#60,.T.);
#62=CARTESIAN_POINT('',(1.7,-19.333266737,5.379560146));
#63=VERTEX_POINT('',#62);
#64=CARTESIAN_POINT('',(1.7,-19.333266737,-3.882772148));
#65=VERTEX_POINT('',#64);
#66=CARTESIAN_POINT('',(1.7,-19.333266737,5.379560146));
#67=CARTESIAN_POINT('',(1.7,-19.333266737,-3.882772148));
#68=B_SPLINE_CURVE_WITH_KNOTS('',1,(#66,#67),.UNSPECIFIED.,.F.,.F.,(2,2),(-0.000897508,0.008364825),.UNSPECIFIED.);
#69=EDGE_CURVE('',#63,#65,#68,.T.);
#70=ORIENTED_EDGE('',*,*,#69,.F.);
#71=CARTESIAN_POINT('',(1.7,-14.533266737,5.379560146));
#72=VERTEX_POINT('',#71);
#73=CARTESIAN_POINT('',(1.7,-19.333266737,5.379560146));
#74=CARTESIAN_POINT('',(1.7,-14.533266737,5.379560146));
#75=B_SPLINE_CURVE_WITH_KNOTS('',1,(#73,#74),.UNSPECIFIED.,.F.,.F.,(2,2),(-0.0048,0.),.UNSPECIFIED.);
#76=EDGE_CURVE('',#63,#72,#75,.T.);
#77=ORIENTED_EDGE('',*,*,#76,.T.);
#78=CARTESIAN_POINT('',(1.7,-14.533266737,-3.882772148));
#79=VERTEX_POINT('',#78);
#80=CARTESIAN_POINT('',(1.7,-14.533266737,5.379560146));
#81=CARTESIAN_POINT('',(1.7,-14.533266737,-3.882772148));
#82=B_SPLINE_CURVE_WITH_KNOTS('',1,(#80,#81),.UNSPECIFIED.,.F.,.F.,(2,2),(-0.000897508,0.008364825),.UNSPECIFIED.);
#83=EDGE_CURVE('',#72,#79,#82,.T.);
#84=ORIENTED_EDGE('',*,*,#83,.T.);
#85=CARTESIAN_POINT('',(1.7,-14.533266737,-3.882772148));
#86=CARTESIAN_POINT('',(1.7,-19.333266737,-3.882772148));
#87=B_SPLINE_CURVE_WITH_KNOTS('',1,(#85,#86),.UNSPECIFIED.,.F.,.F.,(2,2),(0.,0.0048),.UNSPECIFIED.);
#88=EDGE_CURVE('',#79,#65,#87,.T.);
#89=ORIENTED_EDGE('',*,*,#88,.T.);
#90=EDGE_LOOP('',(#70,#77,#84,#89));
#91=FACE_BOUND('',#90,.T.);
#92=ADVANCED_FACE('',(#61,#91),#31,.F.);
#93=CARTESIAN_POINT('',(-12.,-14.533266737,13.500000164));
#94=CARTESIAN_POINT('',(12.,-14.533266737,13.500000164));
#95=CARTESIAN_POINT('',(-12.,-14.533266737,-3.882772148));
#96=CARTESIAN_POINT('',(12.,-14.533266737,-3.882772148));
#97=B_SPLINE_SURFACE_WITH_KNOTS('',1,1,((#93,#94),(#95,#96)),.UNSPECIFIED.,.F.,.F.,.U.,(2,2),(2,2),(-0.009017948,0.008364825),(-0.0165,0.0075),.UNSPECIFIED.);
#98=CARTESIAN_POINT('',(12.,-14.533266737,5.379560146));
#99=VERTEX_POINT('',#98);
#100=CARTESIAN_POINT('',(4.5,-14.533266737,5.379560146));
#101=VERTEX_POINT('',#100);
#102=CARTESIAN_POINT('',(12.,-14.533266737,5.379560146));
#103=CARTESIAN_POINT('',(4.5,-14.533266737,5.379560146));
#104=B_SPLINE_CURVE_WITH_KNOTS('',1,(#102,#103),.UNSPECIFIED.,.F.,.F.,(2,2),(0.000027883,0.007527883),.UNSPECIFIED.);
#105=EDGE_CURVE('',#99,#101,#104,.T.);
#106=ORIENTED_EDGE('',*,*,#105,.T.);
#107=CARTESIAN_POINT('',(4.5,-14.533266737,-3.882772148));
#108=VERTEX_POINT('',#107);
#109=CARTESIAN_POINT('',(4.5,-14.533266737,5.379560146));
#110=CARTESIAN_POINT('',(4.5,-14.533266737,-3.882772148));
#111=B_SPLINE_CURVE_WITH_KNOTS('',1,(#109,#110),.UNSPECIFIED.,.F.,.F.,(2,2),(-0.000897508,0.008364825),.UNSPECIFIED.);
#112=EDGE_CURVE('',#101,#108,#111,.T.);
#113=ORIENTED_EDGE('',*,*,#112,.T.);
#114=CARTESIAN_POINT('',(4.5,-14.533266737,-3.882772148));
#115=CARTESIAN_POINT('',(1.7,-14.533266737,-3.882772148));
#116=B_SPLINE_CURVE_WITH_KNOTS('',1,(#114,#115),.UNSPECIFIED.,.F.,.F.,(2,2),(-0.,0.0028),.UNSPECIFIED.);
#117=EDGE_CURVE('',#108,#79,#116,.T.);
#118=ORIENTED_EDGE('',*,*,#117,.T.);
#119=ORIENTED_EDGE('',*,*,#83,.F.);
#120=CARTESIAN_POINT('',(-1.7,-14.533266737,5.379560146));
#121=VERTEX_POINT('',#120);
#122=CARTESIAN_POINT('',(1.7,-14.533266737,5.379560146));
#123=CARTESIAN_POINT('',(-1.7,-14.533266737,5.379560146));
#124=B_SPLINE_CURVE_WITH_KNOTS('',1,(#122,#123),.UNSPECIFIED.,.F.,.F.,(2,2),(0.010327883,0.013727883),.UNSPECIFIED.);
#125=EDGE_CURVE('',#72,#121,#124,.T.);
#126=ORIENTED_EDGE('',*,*,#125,.T.);
#127=CARTESIAN_POINT('',(-1.7,-14.533266737,-3.882772148));
#128=VERTEX_POINT('',#127);
#129=CARTESIAN_POINT('',(-1.7,-14.533266737,5.379560146));
#130=CARTESIAN_POINT('',(-1.7,-14.533266737,-3.882772148));
#131=B_SPLINE_CURVE_WITH_KNOTS('',1,(#129,#130),.UNSPECIFIED.,.F.,.F.,(2,2),(-0.001411735,0.007850598),.UNSPECIFIED.);
#132=EDGE_CURVE('',#121,#128,#131,.T.);
#133=ORIENTED_EDGE('',*,*,#132,.T.);
#134=CARTESIAN_POINT('',(-4.5,-14.533266737,-3.882772148));
#135=VERTEX_POINT('',#134);
#136=CARTESIAN_POINT('',(-4.5,-14.533266737,-3.882772148));
#137=CARTESIAN_POINT('',(-1.7,-14.533266737,-3.882772148));
#138=B_SPLINE_CURVE_WITH_KNOTS('',1,(#136,#137),.UNSPECIFIED.,.F.,.F.,(2,2),(0.,0.0028),.UNSPECIFIED.);
#139=EDGE_CURVE('',#135,#128,#138,.T.);
#140=ORIENTED_EDGE('',*,*,#139,.F.);
#141=CARTESIAN_POINT('',(-4.5,-14.533266737,11.000000164));
#142=VERTEX_POINT('',#141);
#143=CARTESIAN_POINT('',(-4.5,-14.533266737,11.000000164));
#144=CARTESIAN_POINT('',(-4.5,-14.533266737,-3.882772148));
#145=B_SPLINE_CURVE_WITH_KNOTS('',1,(#143,#144),.UNSPECIFIED.,.F.,.F.,(2,2),(-0.007032175,0.007850598),.UNSPECIFIED.);
#146=EDGE_CURVE('',#142,#135,#145,.T.);
#147=ORIENTED_EDGE('',*,*,#146,.F.);
#148=CARTESIAN_POINT('',(-12.,-14.533266737,11.000000164));
#149=VERTEX_POINT('',#148);
#150=CARTESIAN_POINT('',(-12.,-14.533266737,11.000000164));
#151=CARTESIAN_POINT('',(-4.5,-14.533266737,11.000000164));
#152=B_SPLINE_CURVE_WITH_KNOTS('',1,(#150,#151),.UNSPECIFIED.,.F.,.F.,(2,2),(0.,0.0075),.UNSPECIFIED.);
#153=EDGE_CURVE('',#149,#142,#152,.T.);
#154=ORIENTED_EDGE('',*,*,#153,.F.);
#155=CARTESIAN_POINT('',(-12.,-14.533266737,13.500000164));
#156=VERTEX_POINT('',#155);
#157=CARTESIAN_POINT('',(-12.,-14.533266737,13.500000164));
#158=CARTESIAN_POINT('',(-12.,-14.533266737,11.000000164));
#159=B_SPLINE_CURVE_WITH_KNOTS('',1,(#157,#158),.UNSPECIFIED.,.F.,.F.,(2,2),(0.,0.0025),.UNSPECIFIED.);
#160=EDGE_CURVE('',#156,#149,#159,.T.);
#161=ORIENTED_EDGE('',*,*,#160,.F.);
#162=CARTESIAN_POINT('',(12.,-14.533266737,13.500000164));
#163=VERTEX_POINT('',#162);
#164=CARTESIAN_POINT('',(-12.,-14.533266737,13.500000164));
#165=CARTESIAN_POINT('',(12.,-14.533266737,13.500000164));
#166=B_SPLINE_CURVE_WITH_KNOTS('',1,(#164,#165),.UNSPECIFIED.,.F.,.F.,(2,2),(0.,0.024),.UNSPECIFIED.);
#167=EDGE_CURVE('',#156,#163,#166,.T.);
#168=ORIENTED_EDGE('',*,*,#167,.T.);
#169=CARTESIAN_POINT('',(12.,-14.533266737,13.500000164));
#170=CARTESIAN_POINT('',(12.,-14.533266737,5.379560146));
#171=B_SPLINE_CURVE_WITH_KNOTS('',1,(#169,#170),.UNSPECIFIED.,.F.,.F.,(2,2),(-0.0025,0.00562044),.UNSPECIFIED.);
#172=EDGE_CURVE('',#163,#99,#171,.T.);
#173=ORIENTED_EDGE('',*,*,#172,.T.);
#174=EDGE_LOOP('',(#106,#113,#118,#119,#126,#133,#140,#147,#154,#161,#168,#173));
#175=FACE_BOUND('',#174,.T.);
#176=ADVANCED_FACE('',(#175),#97,.F.);
#177=CARTESIAN_POINT('',(4.5,-19.333266737,-3.882772148));
#178=CARTESIAN_POINT('',(4.5,-14.533266737,-3.882772148));
#179=CARTESIAN_POINT('',(4.5,-19.333266737,5.379560146));
#180=CARTESIAN_POINT('',(4.5,-14.533266737,5.379560146));
#181=B_SPLINE_SURFACE_WITH_KNOTS('',1,1,((#177,#178),(#179,#180)),.UNSPECIFIED.,.F.,.F.,.U.,(2,2),(2,2),(-0.008364825,0.000897508),(0.0002,0.005),.UNSPECIFIED.);
#182=CARTESIAN_POINT('',(4.5,-17.056369047,1.650000164));
#183=VERTEX_POINT('',#182);
#184=CARTESIAN_POINT('',(4.5,-15.406369047,0.000000164));
#185=VERTEX_POINT('',#184);
#186=CARTESIAN_POINT('',(4.5,-17.056369047,1.650000164));
#187=CARTESIAN_POINT('',(4.5,-15.406369047,1.650000164));
#188=CARTESIAN_POINT('',(4.5,-15.406369047,0.000000164));
#189=CARTESIAN_POINT('',(4.5,-15.406369047,-1.649999836));
#190=CARTESIAN_POINT('',(4.5,-17.056369047,-1.649999836));
#191=CARTESIAN_POINT('',(4.5,-18.706369047,-1.649999836));
#192=CARTESIAN_POINT('',(4.5,-18.706369047,0.000000164));
#193=CARTESIAN_POINT('',(4.5,-18.706369047,1.650000164));
#194=CARTESIAN_POINT('',(4.5,-17.056369047,1.650000164));
#195=(BOUNDED_CURVE()
B_SPLINE_CURVE(2,(#186,#187,#188,#189,#190,#191,#192,#193,#194),.UNSPECIFIED.,.T.,.F.)
B_SPLINE_CURVE_WITH_KNOTS((3,2,2,2,3),(0.,1.570796327,3.141592654,4.71238898,6.283185307),.UNSPECIFIED.)
CURVE()
GEOMETRIC_REPRESENTATION_ITEM()
RATIONAL_B_SPLINE_CURVE((1.,0.707106781,1.,0.707106781,1.,0.707106781,1.,0.707106781,1.))
REPRESENTATION_ITEM(''));
#196=EDGE_CURVE('',#183,#185,#195,.T.);
#197=ORIENTED_EDGE('',*,*,#196,.T.);
#198=CARTESIAN_POINT('',(4.5,-17.056369047,1.650000164));
#199=CARTESIAN_POINT('',(4.5,-15.406369047,1.650000164));
#200=CARTESIAN_POINT('',(4.5,-15.406369047,0.000000164));
#201=CARTESIAN_POINT('',(4.5,-15.406369047,-1.649999836));
#202=CARTESIAN_POINT('',(4.5,-17.056369047,-1.649999836));
#203=CARTESIAN_POINT('',(4.5,-18.706369047,-1.649999836));
#204=CARTESIAN_POINT('',(4.5,-18.706369047,0.000000164));
#205=CARTESIAN_POINT('',(4.5,-18.706369047,1.650000164));
#206=CARTESIAN_POINT('',(4.5,-17.056369047,1.650000164));
#207=(BOUNDED_CURVE()
B_SPLINE_CURVE(2,(#198,#199,#200,#201,#202,#203,#204,#205,#206),.UNSPECIFIED.,.T.,.F.)
B_SPLINE_CURVE_WITH_KNOTS((3,2,2,2,3),(0.,1.570796327,3.141592654,4.71238898,6.283185307),.UNSPECIFIED.)
CURVE()
GEOMETRIC_REPRESENTATION_ITEM()
RATIONAL_B_SPLINE_CURVE((1.,0.707106781,1.,0.707106781,1.,0.707106781,1.,0.707106781,1.))
REPRESENTATION_ITEM(''));
#208=EDGE_CURVE('',#185,#183,#207,.T.);
#209=ORIENTED_EDGE('',*,*,#208,.T.);
#210=EDGE_LOOP('',(#197,#209));
#211=FACE_BOUND('',#210,.T.);
#212=ORIENTED_EDGE('',*,*,#112,.F.);
#213=CARTESIAN_POINT('',(4.5,-19.333266737,5.379560146));
#214=VERTEX_POINT('',#213);
#215=CARTESIAN_POINT('',(4.5,-14.533266737,5.379560146));
#216=CARTESIAN_POINT('',(4.5,-19.333266737,5.379560146));
#217=B_SPLINE_CURVE_WITH_KNOTS('',1,(#215,#216),.UNSPECIFIED.,.F.,.F.,(2,2),(-0.005,-0.0002),.UNSPECIFIED.);
#218=EDGE_CURVE('',#101,#214,#217,.T.);
#219=ORIENTED_EDGE('',*,*,#218,.T.);
#220=CARTESIAN_POINT('',(4.5,-19.333266737,-3.882772148));
#221=VERTEX_POINT('',#220);
#222=CARTESIAN_POINT('',(4.5,-19.333266737,5.379560146));
#223=CARTESIAN_POINT('',(4.5,-19.333266737,-3.882772148));
#224=B_SPLINE_CURVE_WITH_KNOTS('',1,(#222,#223),.UNSPECIFIED.,.F.,.F.,(2,2),(-0.000897508,0.008364825),.UNSPECIFIED.);
#225=EDGE_CURVE('',#214,#221,#224,.T.);
#226=ORIENTED_EDGE('',*,*,#225,.T.);
#227=CARTESIAN_POINT('',(4.5,-19.333266737,-3.882772148));
#228=CARTESIAN_POINT('',(4.5,-14.533266737,-3.882772148));
#229=B_SPLINE_CURVE_WITH_KNOTS('',1,(#227,#228),.UNSPECIFIED.,.F.,.F.,(2,2),(0.0002,0.005),.UNSPECIFIED.);
#230=EDGE_CURVE('',#221,#108,#229,.T.);
#231=ORIENTED_EDGE('',*,*,#230,.T.);
#232=EDGE_LOOP('',(#212,#219,#226,#231));
#233=FACE_BOUND('',#232,.T.);
#234=ADVANCED_FACE('',(#211,#233),#181,.F.);
#235=CARTESIAN_POINT('',(-4.5,-19.333266737,-3.882772148));
#236=CARTESIAN_POINT('',(9.7,-19.333266737,-3.882772148));
#237=CARTESIAN_POINT('',(-4.5,-19.333266737,11.000000164));
#238=CARTESIAN_POINT('',(9.7,-19.333266737,11.000000164));
#239=B_SPLINE_SURFACE_WITH_KNOTS('',1,1,((#235,#236),(#237,#238)),.UNSPECIFIED.,.F.,.F.,.U.,(2,2),(2,2),(-0.008364825,0.006517948),(-0.006,0.0082),.UNSPECIFIED.);
#240=CARTESIAN_POINT('',(-4.5,-19.333266737,11.000000164));
#241=VERTEX_POINT('',#240);
#242=CARTESIAN_POINT('',(9.7,-19.333266737,11.000000164));
#243=VERTEX_POINT('',#242);
#244=CARTESIAN_POINT('',(-4.5,-19.333266737,11.000000164));
#245=CARTESIAN_POINT('',(9.7,-19.333266737,11.000000164));
#246=B_SPLINE_CURVE_WITH_KNOTS('',1,(#244,#245),.UNSPECIFIED.,.F.,.F.,(2,2),(-0.0015,0.0127),.UNSPECIFIED.);
#247=EDGE_CURVE('',#241,#243,#246,.T.);
#248=ORIENTED_EDGE('',*,*,#247,.F.);
#249=CARTESIAN_POINT('',(-4.5,-19.333266737,-3.882772148));
#250=VERTEX_POINT('',#249);
#251=CARTESIAN_POINT('',(-4.5,-19.333266737,11.000000164));
#252=CARTESIAN_POINT('',(-4.5,-19.333266737,-3.882772148));
#253=B_SPLINE_CURVE_WITH_KNOTS('',1,(#251,#252),.UNSPECIFIED.,.F.,.F.,(2,2),(-0.007032175,0.007850598),.UNSPECIFIED.);
#254=EDGE_CURVE('',#241,#250,#253,.T.);
#255=ORIENTED_EDGE('',*,*,#254,.T.);
#256=CARTESIAN_POINT('',(-1.7,-19.333266737,-3.882772148));
#257=VERTEX_POINT('',#256);
#258=CARTESIAN_POINT('',(-1.7,-19.333266737,-3.882772148));
#259=CARTESIAN_POINT('',(-4.5,-19.333266737,-3.882772148));
#260=B_SPLINE_CURVE_WITH_KNOTS('',1,(#258,#259),.UNSPECIFIED.,.F.,.F.,(2,2),(0.0002,0.003),.UNSPECIFIED.);
#261=EDGE_CURVE('',#257,#250,#260,.T.);
#262=ORIENTED_EDGE('',*,*,#261,.F.);
#263=CARTESIAN_POINT('',(-1.7,-19.333266737,5.379560146));
#264=VERTEX_POINT('',#263);
#265=CARTESIAN_POINT('',(-1.7,-19.333266737,5.379560146));
#266=CARTESIAN_POINT('',(-1.7,-19.333266737,-3.882772148));
#267=B_SPLINE_CURVE_WITH_KNOTS('',1,(#265,#266),.UNSPECIFIED.,.F.,.F.,(2,2),(-0.001411735,0.007850598),.UNSPECIFIED.);
#268=EDGE_CURVE('',#264,#257,#267,.T.);
#269=ORIENTED_EDGE('',*,*,#268,.F.);
#270=CARTESIAN_POINT('',(-1.7,-19.333266737,5.379560146));
#271=CARTESIAN_POINT('',(1.7,-19.333266737,5.379560146));
#272=B_SPLINE_CURVE_WITH_KNOTS('',1,(#270,#271),.UNSPECIFIED.,.F.,.F.,(2,2),(-0.010307263,-0.006907263),.UNSPECIFIED.);
#273=EDGE_CURVE('',#264,#63,#272,.T.);
#274=ORIENTED_EDGE('',*,*,#273,.T.);
#275=ORIENTED_EDGE('',*,*,#69,.T.);
#276=CARTESIAN_POINT('',(1.7,-19.333266737,-3.882772148));
#277=CARTESIAN_POINT('',(4.5,-19.333266737,-3.882772148));
#278=B_SPLINE_CURVE_WITH_KNOTS('',1,(#276,#277),.UNSPECIFIED.,.F.,.F.,(2,2),(0.0002,0.003),.UNSPECIFIED.);
#279=EDGE_CURVE('',#65,#221,#278,.T.);
#280=ORIENTED_EDGE('',*,*,#279,.T.);
#281=ORIENTED_EDGE('',*,*,#225,.F.);
#282=CARTESIAN_POINT('',(9.7,-19.333266737,5.379560146));
#283=VERTEX_POINT('',#282);
#284=CARTESIAN_POINT('',(4.5,-19.333266737,5.379560146));
#285=CARTESIAN_POINT('',(9.7,-19.333266737,5.379560146));
#286=B_SPLINE_CURVE_WITH_KNOTS('',1,(#284,#285),.UNSPECIFIED.,.F.,.F.,(2,2),(-0.004107263,0.001092737),.UNSPECIFIED.);
#287=EDGE_CURVE('',#214,#283,#286,.T.);
#288=ORIENTED_EDGE('',*,*,#287,.T.);
#289=CARTESIAN_POINT('',(9.7,-19.333266737,5.379560146));
#290=CARTESIAN_POINT('',(9.7,-19.333266737,11.000000164));
#291=B_SPLINE_CURVE_WITH_KNOTS('',1,(#289,#290),.UNSPECIFIED.,.F.,.F.,(2,2),(0.00537956,0.011),.UNSPECIFIED.);
#292=EDGE_CURVE('',#283,#243,#291,.T.);
#293=ORIENTED_EDGE('',*,*,#292,.T.);
#294=EDGE_LOOP('',(#248,#255,#262,#269,#274,#275,#280,#281,#288,#293));
#295=FACE_BOUND('',#294,.T.);
#296=ADVANCED_FACE('',(#295),#239,.F.);
#297=CARTESIAN_POINT('',(4.5,-19.333266737,-3.882772148));
#298=CARTESIAN_POINT('',(4.5,-14.533266737,-3.882772148));
#299=CARTESIAN_POINT('',(1.7,-19.333266737,-3.882772148));
#300=CARTESIAN_POINT('',(1.7,-14.533266737,-3.882772148));
#301=B_SPLINE_SURFACE_WITH_KNOTS('',1,1,((#297,#298),(#299,#300)),.UNSPECIFIED.,.F.,.F.,.U.,(2,2),(2,2),(-0.0075,-0.0047),(-0.0023,0.0025),.UNSPECIFIED.);
#302=ORIENTED_EDGE('',*,*,#88,.F.);
#303=ORIENTED_EDGE('',*,*,#117,.F.);
#304=ORIENTED_EDGE('',*,*,#230,.F.);
#305=ORIENTED_EDGE('',*,*,#279,.F.);
#306=EDGE_LOOP('',(#302,#303,#304,#305));
#307=FACE_BOUND('',#306,.T.);
#308=ADVANCED_FACE('',(#307),#301,.T.);
#309=CARTESIAN_POINT('',(1.7,-19.333266737,5.379560146));
#310=CARTESIAN_POINT('',(1.7,-14.533266737,5.379560146));
#311=CARTESIAN_POINT('',(-1.7,-19.333266737,5.379560146));
#312=CARTESIAN_POINT('',(-1.7,-14.533266737,5.379560146));
#313=B_SPLINE_SURFACE_WITH_KNOTS('',1,1,((#309,#310),(#311,#312)),.UNSPECIFIED.,.F.,.F.,.U.,(2,2),(2,2),(0.010327883,0.013727883),(0.0002,0.005),.UNSPECIFIED.);
#314=ORIENTED_EDGE('',*,*,#76,.F.);
#315=ORIENTED_EDGE('',*,*,#273,.F.);
#316=CARTESIAN_POINT('',(-1.7,-14.533266737,5.379560146));
#317=CARTESIAN_POINT('',(-1.7,-19.333266737,5.379560146));
#318=B_SPLINE_CURVE_WITH_KNOTS('',1,(#316,#317),.UNSPECIFIED.,.F.,.F.,(2,2),(0.,0.0048),.UNSPECIFIED.);
#319=EDGE_CURVE('',#121,#264,#318,.T.);
#320=ORIENTED_EDGE('',*,*,#319,.F.);
#321=ORIENTED_EDGE('',*,*,#125,.F.);
#322=EDGE_LOOP('',(#314,#315,#320,#321));
#323=FACE_BOUND('',#322,.T.);
#324=ADVANCED_FACE('',(#323),#313,.T.);
#325=CARTESIAN_POINT('',(12.,-41.143621059,5.379560146));
#326=CARTESIAN_POINT('',(12.,-14.533266737,5.379560146));
#327=CARTESIAN_POINT('',(4.5,-41.143621059,5.379560146));
#328=CARTESIAN_POINT('',(4.5,-14.533266737,5.379560146));
#329=B_SPLINE_SURFACE_WITH_KNOTS('',1,1,((#325,#326),(#327,#328)),.UNSPECIFIED.,.F.,.F.,.U.,(2,2),(2,2),(0.000027883,0.007527883),(-0.021610354,0.005),.UNSPECIFIED.);
#330=ORIENTED_EDGE('',*,*,#218,.F.);
#331=ORIENTED_EDGE('',*,*,#105,.F.);
#332=CARTESIAN_POINT('',(12.,-41.143621059,5.379560146));
#333=VERTEX_POINT('',#332);
#334=CARTESIAN_POINT('',(12.,-14.533266737,5.379560146));
#335=CARTESIAN_POINT('',(12.,-41.143621059,5.379560146));
#336=B_SPLINE_CURVE_WITH_KNOTS('',1,(#334,#335),.UNSPECIFIED.,.F.,.F.,(2,2),(-0.005,0.021610354),.UNSPECIFIED.);
#337=EDGE_CURVE('',#99,#333,#336,.T.);
#338=ORIENTED_EDGE('',*,*,#337,.T.);
#339=CARTESIAN_POINT('',(9.7,-41.143621059,5.379560146));
#340=VERTEX_POINT('',#339);
#341=CARTESIAN_POINT('',(12.,-41.143621059,5.379560146));
#342=CARTESIAN_POINT('',(9.7,-41.143621059,5.379560146));
#343=B_SPLINE_CURVE_WITH_KNOTS('',1,(#341,#342),.UNSPECIFIED.,.F.,.F.,(2,2),(0.000027883,0.002327883),.UNSPECIFIED.);
#344=EDGE_CURVE('',#333,#340,#343,.T.);
#345=ORIENTED_EDGE('',*,*,#344,.T.);
#346=CARTESIAN_POINT('',(9.7,-19.333266737,5.379560146));
#347=CARTESIAN_POINT('',(9.7,-41.143621059,5.379560146));
#348=B_SPLINE_CURVE_WITH_KNOTS('',1,(#346,#347),.UNSPECIFIED.,.F.,.F.,(2,2),(-0.0002,0.021610354),.UNSPECIFIED.);
#349=EDGE_CURVE('',#283,#340,#348,.T.);
#350=ORIENTED_EDGE('',*,*,#349,.F.);
#351=ORIENTED_EDGE('',*,*,#287,.F.);
#352=EDGE_LOOP('',(#330,#331,#338,#345,#350,#351));
#353=FACE_BOUND('',#352,.T.);
#354=ADVANCED_FACE('',(#353),#329,.T.);
#355=CARTESIAN_POINT('',(9.7,-56.533266737,11.000000164));
#356=CARTESIAN_POINT('',(9.7,-19.333266737,11.000000164));
#357=CARTESIAN_POINT('',(9.7,-56.533266737,-10.999999836));
#358=CARTESIAN_POINT('',(9.7,-19.333266737,-10.999999836));
#359=B_SPLINE_SURFACE_WITH_KNOTS('',1,1,((#355,#356),(#357,#358)),.UNSPECIFIED.,.F.,.F.,.U.,(2,2),(2,2),(-0.011,0.011),(-0.004718101,0.032481899),.UNSPECIFIED.);
#360=CARTESIAN_POINT('',(9.7,-51.033266678,6.850000164));
#361=VERTEX_POINT('',#360);
#362=CARTESIAN_POINT('',(9.7,-49.383266678,8.500000164));
#363=VERTEX_POINT('',#362);
#364=CARTESIAN_POINT('',(9.7,-51.033266678,6.850000164));
#365=CARTESIAN_POINT('',(9.7,-49.383266678,6.850000164));
#366=CARTESIAN_POINT('',(9.7,-49.383266678,8.500000164));
#367=CARTESIAN_POINT('',(9.7,-49.383266678,10.150000164));
#368=CARTESIAN_POINT('',(9.7,-51.033266678,10.150000164));
#369=CARTESIAN_POINT('',(9.7,-52.683266678,10.150000164));
#370=CARTESIAN_POINT('',(9.7,-52.683266678,8.500000164));
#371=CARTESIAN_POINT('',(9.7,-52.683266678,6.850000164));
#372=CARTESIAN_POINT('',(9.7,-51.033266678,6.850000164));
#373=(BOUNDED_CURVE()
B_SPLINE_CURVE(2,(#364,#365,#366,#367,#368,#369,#370,#371,#372),.UNSPECIFIED.,.T.,.F.)
B_SPLINE_CURVE_WITH_KNOTS((3,2,2,2,3),(0.,1.570796327,3.141592654,4.71238898,6.283185307),.UNSPECIFIED.)
CURVE()
GEOMETRIC_REPRESENTATION_ITEM()
RATIONAL_B_SPLINE_CURVE((1.,0.707106781,1.,0.707106781,1.,0.707106781,1.,0.707106781,1.))
REPRESENTATION_ITEM(''));
#374=EDGE_CURVE('',#361,#363,#373,.T.);
#375=ORIENTED_EDGE('',*,*,#374,.T.);
#376=CARTESIAN_POINT('',(9.7,-51.033266678,6.850000164));
#377=CARTESIAN_POINT('',(9.7,-49.383266678,6.850000164));
#378=CARTESIAN_POINT('',(9.7,-49.383266678,8.500000164));
#379=CARTESIAN_POINT('',(9.7,-49.383266678,10.150000164));
#380=CARTESIAN_POINT('',(9.7,-51.033266678,10.150000164));
#381=CARTESIAN_POINT('',(9.7,-52.683266678,10.150000164));
#382=CARTESIAN_POINT('',(9.7,-52.683266678,8.500000164));
#383=CARTESIAN_POINT('',(9.7,-52.683266678,6.850000164));
#384=CARTESIAN_POINT('',(9.7,-51.033266678,6.850000164));
#385=(BOUNDED_CURVE()
B_SPLINE_CURVE(2,(#376,#377,#378,#379,#380,#381,#382,#383,#384),.UNSPECIFIED.,.T.,.F.)
B_SPLINE_CURVE_WITH_KNOTS((3,2,2,2,3),(0.,1.570796327,3.141592654,4.71238898,6.283185307),.UNSPECIFIED.)
CURVE()
GEOMETRIC_REPRESENTATION_ITEM()
RATIONAL_B_SPLINE_CURVE((1.,0.707106781,1.,0.707106781,1.,0.707106781,1.,0.707106781,1.))
REPRESENTATION_ITEM(''));
#386=EDGE_CURVE('',#363,#361,#385,.T.);
#387=ORIENTED_EDGE('',*,*,#386,.T.);
#388=EDGE_LOOP('',(#375,#387));
#389=FACE_BOUND('',#388,.T.);
#390=CARTESIAN_POINT('',(9.7,-51.033266655,-10.150000127));
#391=VERTEX_POINT('',#390);
#392=CARTESIAN_POINT('',(9.7,-49.383266655,-8.500000127));
#393=VERTEX_POINT('',#392);
#394=CARTESIAN_POINT('',(9.7,-51.033266655,-10.150000127));
#395=CARTESIAN_POINT('',(9.7,-49.383266655,-10.150000127));
#396=CARTESIAN_POINT('',(9.7,-49.383266655,-8.500000127));
#397=CARTESIAN_POINT('',(9.7,-49.383266655,-6.850000127));
#398=CARTESIAN_POINT('',(9.7,-51.033266655,-6.850000127));
#399=CARTESIAN_POINT('',(9.7,-52.683266655,-6.850000127));
#400=CARTESIAN_POINT('',(9.7,-52.683266655,-8.500000127));
#401=CARTESIAN_POINT('',(9.7,-52.683266655,-10.150000127));
#402=CARTESIAN_POINT('',(9.7,-51.033266655,-10.150000127));
#403=(BOUNDED_CURVE()
B_SPLINE_CURVE(2,(#394,#395,#396,#397,#398,#399,#400,#401,#402),.UNSPECIFIED.,.T.,.F.)
B_SPLINE_CURVE_WITH_KNOTS((3,2,2,2,3),(0.,1.570796327,3.141592654,4.71238898,6.283185307),.UNSPECIFIED.)
CURVE()
GEOMETRIC_REPRESENTATION_ITEM()
RATIONAL_B_SPLINE_CURVE((1.,0.707106781,1.,0.707106781,1.,0.707106781,1.,0.707106781,1.))
REPRESENTATION_ITEM(''));
#404=EDGE_CURVE('',#391,#393,#403,.T.);
#405=ORIENTED_EDGE('',*,*,#404,.T.);
#406=CARTESIAN_POINT('',(9.7,-51.033266655,-10.150000127));
#407=CARTESIAN_POINT('',(9.7,-49.383266655,-10.150000127));
#408=CARTESIAN_POINT('',(9.7,-49.383266655,-8.500000127));
#409=CARTESIAN_POINT('',(9.7,-49.383266655,-6.850000127));
#410=CARTESIAN_POINT('',(9.7,-51.033266655,-6.850000127));
#411=CARTESIAN_POINT('',(9.7,-52.683266655,-6.850000127));
#412=CARTESIAN_POINT('',(9.7,-52.683266655,-8.500000127));
#413=CARTESIAN_POINT('',(9.7,-52.683266655,-10.150000127));
#414=CARTESIAN_POINT('',(9.7,-51.033266655,-10.150000127));
#415=(BOUNDED_CURVE()
B_SPLINE_CURVE(2,(#406,#407,#408,#409,#410,#411,#412,#413,#414),.UNSPECIFIED.,.T.,.F.)
B_SPLINE_CURVE_WITH_KNOTS((3,2,2,2,3),(0.,1.570796327,3.141592654,4.71238898,6.283185307),.UNSPECIFIED.)
CURVE()
GEOMETRIC_REPRESENTATION_ITEM()
RATIONAL_B_SPLINE_CURVE((1.,0.707106781,1.,0.707106781,1.,0.707106781,1.,0.707106781,1.))
REPRESENTATION_ITEM(''));
#416=EDGE_CURVE('',#393,#391,#415,.T.);
#417=ORIENTED_EDGE('',*,*,#416,.T.);
#418=EDGE_LOOP('',(#405,#417));
#419=FACE_BOUND('',#418,.T.);
#420=ORIENTED_EDGE('',*,*,#292,.F.);
#421=ORIENTED_EDGE('',*,*,#349,.T.);
#422=CARTESIAN_POINT('',(9.7,-41.143621059,5.36112433));
#423=VERTEX_POINT('',#422);
#424=CARTESIAN_POINT('',(9.7,-41.143621059,5.379560146));
#425=CARTESIAN_POINT('',(9.7,-41.143621059,5.36112433));
#426=B_SPLINE_CURVE_WITH_KNOTS('',1,(#424,#425),.UNSPECIFIED.,.F.,.F.,(2,2),(-0.00537956,-0.005361124),.UNSPECIFIED.);
#427=EDGE_CURVE('',#340,#423,#426,.T.);
#428=ORIENTED_EDGE('',*,*,#427,.T.);
#429=CARTESIAN_POINT('',(9.7,-45.496061043,-3.699091065));
#430=VERTEX_POINT('',#429);
#431=CARTESIAN_POINT('',(9.7,-41.143621059,5.36112433));
#432=CARTESIAN_POINT('',(9.7,-44.835113893,5.668460946));
#433=CARTESIAN_POINT('',(9.7,-46.43912341,2.329489756));
#434=CARTESIAN_POINT('',(9.7,-48.043132926,-1.009481435));
#435=CARTESIAN_POINT('',(9.7,-45.496061043,-3.699091065));
#436=(BOUNDED_CURVE()
B_SPLINE_CURVE(2,(#431,#432,#433,#434,#435),.UNSPECIFIED.,.F.,.F.)
B_SPLINE_CURVE_WITH_KNOTS((3,2,3),(3.058528844,4.264551804,5.470574765),.UNSPECIFIED.)
CURVE()
GEOMETRIC_REPRESENTATION_ITEM()
RATIONAL_B_SPLINE_CURVE((1.,0.823631465,1.,0.823631465,1.))
REPRESENTATION_ITEM(''));
#437=EDGE_CURVE('',#423,#430,#436,.T.);
#438=ORIENTED_EDGE('',*,*,#437,.T.);
#439=CARTESIAN_POINT('',(9.7,-45.496061043,-10.999999836));
#440=VERTEX_POINT('',#439);
#441=CARTESIAN_POINT('',(9.7,-45.496061043,-10.999999836));
#442=CARTESIAN_POINT('',(9.7,-45.496061043,-3.699091065));
#443=B_SPLINE_CURVE_WITH_KNOTS('',1,(#441,#442),.UNSPECIFIED.,.F.,.F.,(2,2),(0.,0.007300909),.UNSPECIFIED.);
#444=EDGE_CURVE('',#440,#430,#443,.T.);
#445=ORIENTED_EDGE('',*,*,#444,.F.);
#446=CARTESIAN_POINT('',(9.7,-56.533266737,-10.999999836));
#447=VERTEX_POINT('',#446);
#448=CARTESIAN_POINT('',(9.7,-56.533266737,-10.999999836));
#449=CARTESIAN_POINT('',(9.7,-45.496061043,-10.999999836));
#450=B_SPLINE_CURVE_WITH_KNOTS('',1,(#448,#449),.UNSPECIFIED.,.F.,.F.,(2,2),(0.,0.011037206),.UNSPECIFIED.);
#451=EDGE_CURVE('',#447,#440,#450,.T.);
#452=ORIENTED_EDGE('',*,*,#451,.F.);
#453=CARTESIAN_POINT('',(9.7,-56.533266737,11.000000164));
#454=VERTEX_POINT('',#453);
#455=CARTESIAN_POINT('',(9.7,-56.533266737,11.000000164));
#456=CARTESIAN_POINT('',(9.7,-56.533266737,-10.999999836));
#457=B_SPLINE_CURVE_WITH_KNOTS('',1,(#455,#456),.UNSPECIFIED.,.F.,.F.,(2,2),(0.,0.022),.UNSPECIFIED.);
#458=EDGE_CURVE('',#454,#447,#457,.T.);
#459=ORIENTED_EDGE('',*,*,#458,.F.);
#460=CARTESIAN_POINT('',(9.7,-56.533266737,11.000000164));
#461=CARTESIAN_POINT('',(9.7,-19.333266737,11.000000164));
#462=B_SPLINE_CURVE_WITH_KNOTS('',1,(#460,#461),.UNSPECIFIED.,.F.,.F.,(2,2),(0.,0.0372),.UNSPECIFIED.);
#463=EDGE_CURVE('',#454,#243,#462,.T.);
#464=ORIENTED_EDGE('',*,*,#463,.T.);
#465=EDGE_LOOP('',(#420,#421,#428,#438,#445,#452,#459,#464));
#466=FACE_BOUND('',#465,.T.);
#467=ADVANCED_FACE('',(#389,#419,#466),#359,.F.);
#468=CARTESIAN_POINT('',(9.7,-41.143621058,5.36112433));
#469=CARTESIAN_POINT('',(12.,-41.143621058,5.36112433));
#470=CARTESIAN_POINT('',(9.7,-42.821599794,5.500825077));
#471=CARTESIAN_POINT('',(12.,-42.821599794,5.500825077));
#472=CARTESIAN_POINT('',(9.7,-44.27979961,4.658933021));
#473=CARTESIAN_POINT('',(12.,-44.27979961,4.658933021));
#474=CARTESIAN_POINT('',(9.7,-50.183356979,1.250512585));
#475=CARTESIAN_POINT('',(12.,-50.183356979,1.250512585));
#476=CARTESIAN_POINT('',(9.7,-45.496061043,-3.699091065));
#477=CARTESIAN_POINT('',(12.,-45.496061043,-3.699091065));
#478=(BOUNDED_SURFACE()
B_SPLINE_SURFACE(2,1,((#468,#469),(#470,#471),(#472,#473),(#474,#475),(#476,#477)),.UNSPECIFIED.,.F.,.F.,.U.)
B_SPLINE_SURFACE_WITH_KNOTS((3,2,3),(2,2),(1.453307767,2.094395102,3.864140095),(0.039681265,0.041981265),.UNSPECIFIED.)
GEOMETRIC_REPRESENTATION_ITEM()
RATIONAL_B_SPLINE_SURFACE(((0.787598507,0.787598507),(0.846951673,0.846951673),(1.,1.),(0.577504505,0.577504505),(0.869018784,0.869018784)))
REPRESENTATION_ITEM('')
SURFACE()
);
#479=ORIENTED_EDGE('',*,*,#437,.F.);
#480=CARTESIAN_POINT('',(12.,-41.143621059,5.36112433));
#481=VERTEX_POINT('',#480);
#482=CARTESIAN_POINT('',(12.,-41.143621059,5.36112433));
#483=CARTESIAN_POINT('',(9.7,-41.143621059,5.36112433));
#484=B_SPLINE_CURVE_WITH_KNOTS('',1,(#482,#483),.UNSPECIFIED.,.F.,.F.,(2,2),(0.024585853,0.026885853),.UNSPECIFIED.);
#485=EDGE_CURVE('',#481,#423,#484,.T.);
#486=ORIENTED_EDGE('',*,*,#485,.F.);
#487=CARTESIAN_POINT('',(12.,-45.496061043,-3.699091065));
#488=VERTEX_POINT('',#487);
#489=CARTESIAN_POINT('',(12.,-41.143621059,5.36112433));
#490=CARTESIAN_POINT('',(12.,-44.835113893,5.668460946));
#491=CARTESIAN_POINT('',(12.,-46.43912341,2.329489756));
#492=CARTESIAN_POINT('',(12.,-48.043132926,-1.009481435));
#493=CARTESIAN_POINT('',(12.,-45.496061043,-3.699091065));
#494=(BOUNDED_CURVE()
B_SPLINE_CURVE(2,(#489,#490,#491,#492,#493),.UNSPECIFIED.,.F.,.F.)
B_SPLINE_CURVE_WITH_KNOTS((3,2,3),(3.058528844,4.264551804,5.470574765),.UNSPECIFIED.)
CURVE()
GEOMETRIC_REPRESENTATION_ITEM()
RATIONAL_B_SPLINE_CURVE((1.,0.823631465,1.,0.823631465,1.))
REPRESENTATION_ITEM(''));
#495=EDGE_CURVE('',#481,#488,#494,.T.);
#496=ORIENTED_EDGE('',*,*,#495,.T.);
#497=CARTESIAN_POINT('',(9.7,-45.496061043,-3.699091065));
#498=CARTESIAN_POINT('',(12.,-45.496061043,-3.699091065));
#499=B_SPLINE_CURVE_WITH_KNOTS('',1,(#497,#498),.UNSPECIFIED.,.F.,.F.,(2,2),(0.039681265,0.041981265),.UNSPECIFIED.);
#500=EDGE_CURVE('',#430,#488,#499,.T.);
#501=ORIENTED_EDGE('',*,*,#500,.F.);
#502=EDGE_LOOP('',(#479,#486,#496,#501));
#503=FACE_BOUND('',#502,.T.);
#504=ADVANCED_FACE('',(#503),#478,.F.);
#505=CARTESIAN_POINT('',(9.7,-45.496061043,-3.699091065));
#506=CARTESIAN_POINT('',(12.,-45.496061043,-3.699091065));
#507=CARTESIAN_POINT('',(9.7,-45.496061043,-10.999999836));
#508=CARTESIAN_POINT('',(12.,-45.496061043,-10.999999836));
#509=B_SPLINE_SURFACE_WITH_KNOTS('',1,1,((#505,#506),(#507,#508)),.UNSPECIFIED.,.F.,.F.,.U.,(2,2),(2,2),(-0.007300909,0.),(-0.002327883,-0.000027883),.UNSPECIFIED.);
#510=CARTESIAN_POINT('',(12.,-45.496061043,-10.999999836));
#511=VERTEX_POINT('',#510);
#512=CARTESIAN_POINT('',(12.,-45.496061043,-10.999999836));
#513=CARTESIAN_POINT('',(9.7,-45.496061043,-10.999999836));
#514=B_SPLINE_CURVE_WITH_KNOTS('',1,(#512,#513),.UNSPECIFIED.,.F.,.F.,(2,2),(0.000027883,0.002327883),.UNSPECIFIED.);
#515=EDGE_CURVE('',#511,#440,#514,.T.);
#516=ORIENTED_EDGE('',*,*,#515,.T.);
#517=ORIENTED_EDGE('',*,*,#444,.T.);
#518=ORIENTED_EDGE('',*,*,#500,.T.);
#519=CARTESIAN_POINT('',(12.,-45.496061043,-10.999999836));
#520=CARTESIAN_POINT('',(12.,-45.496061043,-3.699091065));
#521=B_SPLINE_CURVE_WITH_KNOTS('',1,(#519,#520),.UNSPECIFIED.,.F.,.F.,(2,2),(0.,0.007300909),.UNSPECIFIED.);
#522=EDGE_CURVE('',#511,#488,#521,.T.);
#523=ORIENTED_EDGE('',*,*,#522,.F.);
#524=EDGE_LOOP('',(#516,#517,#518,#523));
#525=FACE_BOUND('',#524,.T.);
#526=ADVANCED_FACE('',(#525),#509,.F.);
#527=CARTESIAN_POINT('',(12.,-85.490851531,13.500000164));
#528=CARTESIAN_POINT('',(12.,-14.533266737,13.500000164));
#529=CARTESIAN_POINT('',(12.,-85.490851531,-10.999999836));
#530=CARTESIAN_POINT('',(12.,-14.533266737,-10.999999836));
#531=B_SPLINE_SURFACE_WITH_KNOTS('',1,1,((#527,#528),(#529,#530)),.UNSPECIFIED.,.F.,.F.,.U.,(2,2),(2,2),(-0.0135,0.011),(-0.033675686,0.037281899),.UNSPECIFIED.);
#532=CARTESIAN_POINT('',(12.,-49.383266678,8.500000164));
#533=VERTEX_POINT('',#532);
#534=CARTESIAN_POINT('',(12.,-51.033266678,6.850000164));
#535=VERTEX_POINT('',#534);
#536=CARTESIAN_POINT('',(12.,-51.033266678,6.850000164));
#537=CARTESIAN_POINT('',(12.,-49.383266678,6.850000164));
#538=CARTESIAN_POINT('',(12.,-49.383266678,8.500000164));
#539=CARTESIAN_POINT('',(12.,-49.383266678,10.150000164));
#540=CARTESIAN_POINT('',(12.,-51.033266678,10.150000164));
#541=CARTESIAN_POINT('',(12.,-52.683266678,10.150000164));
#542=CARTESIAN_POINT('',(12.,-52.683266678,8.500000164));
#543=CARTESIAN_POINT('',(12.,-52.683266678,6.850000164));
#544=CARTESIAN_POINT('',(12.,-51.033266678,6.850000164));
#545=(BOUNDED_CURVE()
B_SPLINE_CURVE(2,(#536,#537,#538,#539,#540,#541,#542,#543,#544),.UNSPECIFIED.,.T.,.F.)
B_SPLINE_CURVE_WITH_KNOTS((3,2,2,2,3),(0.,1.570796327,3.141592654,4.71238898,6.283185307),.UNSPECIFIED.)
CURVE()
GEOMETRIC_REPRESENTATION_ITEM()
RATIONAL_B_SPLINE_CURVE((1.,0.707106781,1.,0.707106781,1.,0.707106781,1.,0.707106781,1.))
REPRESENTATION_ITEM(''));
#546=EDGE_CURVE('',#533,#535,#545,.T.);
#547=ORIENTED_EDGE('',*,*,#546,.F.);
#548=CARTESIAN_POINT('',(12.,-51.033266678,6.850000164));
#549=CARTESIAN_POINT('',(12.,-49.383266678,6.850000164));
#550=CARTESIAN_POINT('',(12.,-49.383266678,8.500000164));
#551=CARTESIAN_POINT('',(12.,-49.383266678,10.150000164));
#552=CARTESIAN_POINT('',(12.,-51.033266678,10.150000164));
#553=CARTESIAN_POINT('',(12.,-52.683266678,10.150000164));
#554=CARTESIAN_POINT('',(12.,-52.683266678,8.500000164));
#555=CARTESIAN_POINT('',(12.,-52.683266678,6.850000164));
#556=CARTESIAN_POINT('',(12.,-51.033266678,6.850000164));
#557=(BOUNDED_CURVE()
B_SPLINE_CURVE(2,(#548,#549,#550,#551,#552,#553,#554,#555,#556),.UNSPECIFIED.,.T.,.F.)
B_SPLINE_CURVE_WITH_KNOTS((3,2,2,2,3),(0.,1.570796327,3.141592654,4.71238898,6.283185307),.UNSPECIFIED.)
CURVE()
GEOMETRIC_REPRESENTATION_ITEM()
RATIONAL_B_SPLINE_CURVE((1.,0.707106781,1.,0.707106781,1.,0.707106781,1.,0.707106781,1.))
REPRESENTATION_ITEM(''));
#558=EDGE_CURVE('',#535,#533,#557,.T.);
#559=ORIENTED_EDGE('',*,*,#558,.F.);
#560=EDGE_LOOP('',(#547,#559));
#561=FACE_BOUND('',#560,.T.);
#562=CARTESIAN_POINT('',(12.,-49.383266655,-8.500000127));
#563=VERTEX_POINT('',#562);
#564=CARTESIAN_POINT('',(12.,-51.033266655,-10.150000127));
#565=VERTEX_POINT('',#564);
#566=CARTESIAN_POINT('',(12.,-51.033266655,-10.150000127));
#567=CARTESIAN_POINT('',(12.,-49.383266655,-10.150000127));
#568=CARTESIAN_POINT('',(12.,-49.383266655,-8.500000127));
#569=CARTESIAN_POINT('',(12.,-49.383266655,-6.850000127));
#570=CARTESIAN_POINT('',(12.,-51.033266655,-6.850000127));
#571=CARTESIAN_POINT('',(12.,-52.683266655,-6.850000127));
#572=CARTESIAN_POINT('',(12.,-52.683266655,-8.500000127));
#573=CARTESIAN_POINT('',(12.,-52.683266655,-10.150000127));
#574=CARTESIAN_POINT('',(12.,-51.033266655,-10.150000127));
#575=(BOUNDED_CURVE()
B_SPLINE_CURVE(2,(#566,#567,#568,#569,#570,#571,#572,#573,#574),.UNSPECIFIED.,.T.,.F.)
B_SPLINE_CURVE_WITH_KNOTS((3,2,2,2,3),(0.,1.570796327,3.141592654,4.71238898,6.283185307),.UNSPECIFIED.)
CURVE()
GEOMETRIC_REPRESENTATION_ITEM()
RATIONAL_B_SPLINE_CURVE((1.,0.707106781,1.,0.707106781,1.,0.707106781,1.,0.707106781,1.))
REPRESENTATION_ITEM(''));
#576=EDGE_CURVE('',#563,#565,#575,.T.);
#577=ORIENTED_EDGE('',*,*,#576,.F.);
#578=CARTESIAN_POINT('',(12.,-51.033266655,-10.150000127));
#579=CARTESIAN_POINT('',(12.,-49.383266655,-10.150000127));
#580=CARTESIAN_POINT('',(12.,-49.383266655,-8.500000127));
#581=CARTESIAN_POINT('',(12.,-49.383266655,-6.850000127));
#582=CARTESIAN_POINT('',(12.,-51.033266655,-6.850000127));
#583=CARTESIAN_POINT('',(12.,-52.683266655,-6.850000127));
#584=CARTESIAN_POINT('',(12.,-52.683266655,-8.500000127));
#585=CARTESIAN_POINT('',(12.,-52.683266655,-10.150000127));
#586=CARTESIAN_POINT('',(12.,-51.033266655,-10.150000127));
#587=(BOUNDED_CURVE()
B_SPLINE_CURVE(2,(#578,#579,#580,#581,#582,#583,#584,#585,#586),.UNSPECIFIED.,.T.,.F.)
B_SPLINE_CURVE_WITH_KNOTS((3,2,2,2,3),(0.,1.570796327,3.141592654,4.71238898,6.283185307),.UNSPECIFIED.)
CURVE()
GEOMETRIC_REPRESENTATION_ITEM()
RATIONAL_B_SPLINE_CURVE((1.,0.707106781,1.,0.707106781,1.,0.707106781,1.,0.707106781,1.))
REPRESENTATION_ITEM(''));
#588=EDGE_CURVE('',#565,#563,#587,.T.);
#589=ORIENTED_EDGE('',*,*,#588,.F.);
#590=EDGE_LOOP('',(#577,#589));
#591=FACE_BOUND('',#590,.T.);
#592=ORIENTED_EDGE('',*,*,#495,.F.);
#593=CARTESIAN_POINT('',(12.,-41.143621059,5.379560146));
#594=CARTESIAN_POINT('',(12.,-41.143621059,5.36112433));
#595=B_SPLINE_CURVE_WITH_KNOTS('',1,(#593,#594),.UNSPECIFIED.,.F.,.F.,(2,2),(0.00166534,0.001683776),.UNSPECIFIED.);
#596=EDGE_CURVE('',#333,#481,#595,.T.);
#597=ORIENTED_EDGE('',*,*,#596,.F.);
#598=ORIENTED_EDGE('',*,*,#337,.F.);
#599=ORIENTED_EDGE('',*,*,#172,.F.);
#600=CARTESIAN_POINT('',(12.,-85.490851531,13.500000164));
#601=VERTEX_POINT('',#600);
#602=CARTESIAN_POINT('',(12.,-14.533266737,13.500000164));
#603=CARTESIAN_POINT('',(12.,-85.490851531,13.500000164));
#604=B_SPLINE_CURVE_WITH_KNOTS('',1,(#602,#603),.UNSPECIFIED.,.F.,.F.,(2,2),(0.,0.070957585),.UNSPECIFIED.);
#605=EDGE_CURVE('',#163,#601,#604,.T.);
#606=ORIENTED_EDGE('',*,*,#605,.T.);
#607=CARTESIAN_POINT('',(12.,-85.490851531,11.000000164));
#608=VERTEX_POINT('',#607);
#609=CARTESIAN_POINT('',(12.,-85.490851531,13.500000164));
#610=CARTESIAN_POINT('',(12.,-85.490851531,11.000000164));
#611=B_SPLINE_CURVE_WITH_KNOTS('',1,(#609,#610),.UNSPECIFIED.,.F.,.F.,(2,2),(0.,0.0025),.UNSPECIFIED.);
#612=EDGE_CURVE('',#601,#608,#611,.T.);
#613=ORIENTED_EDGE('',*,*,#612,.T.);
#614=CARTESIAN_POINT('',(12.,-56.533266737,11.000000164));
#615=VERTEX_POINT('',#614);
#616=CARTESIAN_POINT('',(12.,-56.533266737,11.000000164));
#617=CARTESIAN_POINT('',(12.,-85.490851531,11.000000164));
#618=B_SPLINE_CURVE_WITH_KNOTS('',1,(#616,#617),.UNSPECIFIED.,.F.,.F.,(2,2),(0.042,0.070957585),.UNSPECIFIED.);
#619=EDGE_CURVE('',#615,#608,#618,.T.);
#620=ORIENTED_EDGE('',*,*,#619,.F.);
#621=CARTESIAN_POINT('',(12.,-56.533266737,-10.999999836));
#622=VERTEX_POINT('',#621);
#623=CARTESIAN_POINT('',(12.,-56.533266737,11.000000164));
#624=CARTESIAN_POINT('',(12.,-56.533266737,-10.999999836));
#625=B_SPLINE_CURVE_WITH_KNOTS('',1,(#623,#624),.UNSPECIFIED.,.F.,.F.,(2,2),(0.,0.022),.UNSPECIFIED.);
#626=EDGE_CURVE('',#615,#622,#625,.T.);
#627=ORIENTED_EDGE('',*,*,#626,.T.);
#628=CARTESIAN_POINT('',(12.,-56.533266737,-10.999999836));
#629=CARTESIAN_POINT('',(12.,-45.496061043,-10.999999836));
#630=B_SPLINE_CURVE_WITH_KNOTS('',1,(#628,#629),.UNSPECIFIED.,.F.,.F.,(2,2),(0.,0.011037206),.UNSPECIFIED.);
#631=EDGE_CURVE('',#622,#511,#630,.T.);
#632=ORIENTED_EDGE('',*,*,#631,.T.);
#633=ORIENTED_EDGE('',*,*,#522,.T.);
#634=EDGE_LOOP('',(#592,#597,#598,#599,#606,#613,#620,#627,#632,#633));
#635=FACE_BOUND('',#634,.T.);
#636=ADVANCED_FACE('',(#561,#591,#635),#531,.T.);
#637=CARTESIAN_POINT('',(9.7,-56.533266737,-10.999999836));
#638=CARTESIAN_POINT('',(12.,-56.533266737,-10.999999836));
#639=CARTESIAN_POINT('',(9.7,-56.533266737,11.000000164));
#640=CARTESIAN_POINT('',(12.,-56.533266737,11.000000164));
#641=B_SPLINE_SURFACE_WITH_KNOTS('',1,1,((#637,#638),(#639,#640)),.UNSPECIFIED.,.F.,.F.,.U.,(2,2),(2,2),(-0.022,0.),(-0.002327883,-0.000027883),.UNSPECIFIED.);
#642=ORIENTED_EDGE('',*,*,#458,.T.);
#643=CARTESIAN_POINT('',(12.,-56.533266737,-10.999999836));
#644=CARTESIAN_POINT('',(9.7,-56.533266737,-10.999999836));
#645=B_SPLINE_CURVE_WITH_KNOTS('',1,(#643,#644),.UNSPECIFIED.,.F.,.F.,(2,2),(0.000027883,0.002327883),.UNSPECIFIED.);
#646=EDGE_CURVE('',#622,#447,#645,.T.);
#647=ORIENTED_EDGE('',*,*,#646,.F.);
#648=ORIENTED_EDGE('',*,*,#626,.F.);
#649=CARTESIAN_POINT('',(12.,-56.533266737,11.000000164));
#650=CARTESIAN_POINT('',(9.7,-56.533266737,11.000000164));
#651=B_SPLINE_CURVE_WITH_KNOTS('',1,(#649,#650),.UNSPECIFIED.,.F.,.F.,(2,2),(0.000027883,0.002327883),.UNSPECIFIED.);
#652=EDGE_CURVE('',#615,#454,#651,.T.);
#653=ORIENTED_EDGE('',*,*,#652,.T.);
#654=EDGE_LOOP('',(#642,#647,#648,#653));
#655=FACE_BOUND('',#654,.T.);
#656=ADVANCED_FACE('',(#655),#641,.F.);
#657=CARTESIAN_POINT('',(9.7,-45.496061043,-10.999999836));
#658=CARTESIAN_POINT('',(12.,-45.496061043,-10.999999836));
#659=CARTESIAN_POINT('',(9.7,-56.533266737,-10.999999836));
#660=CARTESIAN_POINT('',(12.,-56.533266737,-10.999999836));
#661=B_SPLINE_SURFACE_WITH_KNOTS('',1,1,((#657,#658),(#659,#660)),.UNSPECIFIED.,.F.,.F.,.U.,(2,2),(2,2),(-0.011037206,0.),(-0.002327883,-0.000027883),.UNSPECIFIED.);
#662=ORIENTED_EDGE('',*,*,#646,.T.);
#663=ORIENTED_EDGE('',*,*,#451,.T.);
#664=ORIENTED_EDGE('',*,*,#515,.F.);
#665=ORIENTED_EDGE('',*,*,#631,.F.);
#666=EDGE_LOOP('',(#662,#663,#664,#665));
#667=FACE_BOUND('',#666,.T.);
#668=ADVANCED_FACE('',(#667),#661,.F.);
#669=CARTESIAN_POINT('',(9.7,-41.143621059,5.379560146));
#670=CARTESIAN_POINT('',(12.,-41.143621059,5.379560146));
#671=CARTESIAN_POINT('',(9.7,-41.143621059,5.36112433));
#672=CARTESIAN_POINT('',(12.,-41.143621059,5.36112433));
#673=B_SPLINE_SURFACE_WITH_KNOTS('',1,1,((#669,#670),(#671,#672)),.UNSPECIFIED.,.F.,.F.,.U.,(2,2),(2,2),(0.00166534,0.001683776),(-0.001529798,0.000770202),.UNSPECIFIED.);
#674=ORIENTED_EDGE('',*,*,#596,.T.);
#675=ORIENTED_EDGE('',*,*,#485,.T.);
#676=ORIENTED_EDGE('',*,*,#427,.F.);
#677=ORIENTED_EDGE('',*,*,#344,.F.);
#678=EDGE_LOOP('',(#674,#675,#676,#677));
#679=FACE_BOUND('',#678,.T.);
#680=ADVANCED_FACE('',(#679),#673,.F.);
#681=CARTESIAN_POINT('',(12.,-85.490851531,11.000000164));
#682=CARTESIAN_POINT('',(12.,-14.533266737,11.000000164));
#683=CARTESIAN_POINT('',(-12.,-85.490851531,11.000000164));
#684=CARTESIAN_POINT('',(-12.,-14.533266737,11.000000164));
#685=B_SPLINE_SURFACE_WITH_KNOTS('',1,1,((#681,#682),(#683,#684)),.UNSPECIFIED.,.F.,.F.,.U.,(2,2),(2,2),(-0.012,0.012),(-0.047457585,0.0235),.UNSPECIFIED.);
#686=ORIENTED_EDGE('',*,*,#652,.F.);
#687=ORIENTED_EDGE('',*,*,#619,.T.);
#688=CARTESIAN_POINT('',(-12.,-85.490851531,11.000000164));
#689=VERTEX_POINT('',#688);
#690=CARTESIAN_POINT('',(12.,-85.490851531,11.000000164));
#691=CARTESIAN_POINT('',(-12.,-85.490851531,11.000000164));
#692=B_SPLINE_CURVE_WITH_KNOTS('',1,(#690,#691),.UNSPECIFIED.,.F.,.F.,(2,2),(0.,0.024),.UNSPECIFIED.);
#693=EDGE_CURVE('',#608,#689,#692,.T.);
#694=ORIENTED_EDGE('',*,*,#693,.T.);
#695=CARTESIAN_POINT('',(-12.,-85.490851531,11.000000164));
#696=CARTESIAN_POINT('',(-12.,-14.533266737,11.000000164));
#697=B_SPLINE_CURVE_WITH_KNOTS('',1,(#695,#696),.UNSPECIFIED.,.F.,.F.,(2,2),(0.,0.070957585),.UNSPECIFIED.);
#698=EDGE_CURVE('',#689,#149,#697,.T.);
#699=ORIENTED_EDGE('',*,*,#698,.T.);
#700=ORIENTED_EDGE('',*,*,#153,.T.);
#701=CARTESIAN_POINT('',(-4.5,-19.333266737,11.000000164));
#702=CARTESIAN_POINT('',(-4.5,-14.533266737,11.000000164));
#703=B_SPLINE_CURVE_WITH_KNOTS('',1,(#701,#702),.UNSPECIFIED.,.F.,.F.,(2,2),(-0.0023,0.0025),.UNSPECIFIED.);
#704=EDGE_CURVE('',#241,#142,#703,.T.);
#705=ORIENTED_EDGE('',*,*,#704,.F.);
#706=ORIENTED_EDGE('',*,*,#247,.T.);
#707=ORIENTED_EDGE('',*,*,#463,.F.);
#708=EDGE_LOOP('',(#686,#687,#694,#699,#700,#705,#706,#707));
#709=FACE_BOUND('',#708,.T.);
#710=ADVANCED_FACE('',(#709),#685,.T.);
#711=CARTESIAN_POINT('',(-1.7,-19.333266737,5.379560146));
#712=CARTESIAN_POINT('',(-1.7,-14.533266737,5.379560146));
#713=CARTESIAN_POINT('',(-1.7,-19.333266737,-3.882772148));
#714=CARTESIAN_POINT('',(-1.7,-14.533266737,-3.882772148));
#715=B_SPLINE_SURFACE_WITH_KNOTS('',1,1,((#711,#712),(#713,#714)),.UNSPECIFIED.,.F.,.F.,.U.,(2,2),(2,2),(-0.001411735,0.007850598),(-0.0048,0.),.UNSPECIFIED.);
#716=CARTESIAN_POINT('',(-1.7,-15.406369047,0.000000164));
#717=VERTEX_POINT('',#716);
#718=CARTESIAN_POINT('',(-1.7,-17.056369047,-1.649999836));
#719=VERTEX_POINT('',#718);
#720=CARTESIAN_POINT('',(-1.7,-17.056369047,-1.649999836));
#721=CARTESIAN_POINT('',(-1.7,-15.406369047,-1.649999836));
#722=CARTESIAN_POINT('',(-1.7,-15.406369047,0.000000164));
#723=CARTESIAN_POINT('',(-1.7,-15.406369047,1.650000164));
#724=CARTESIAN_POINT('',(-1.7,-17.056369047,1.650000164));
#725=CARTESIAN_POINT('',(-1.7,-18.706369047,1.650000164));
#726=CARTESIAN_POINT('',(-1.7,-18.706369047,0.000000164));
#727=CARTESIAN_POINT('',(-1.7,-18.706369047,-1.649999836));
#728=CARTESIAN_POINT('',(-1.7,-17.056369047,-1.649999836));
#729=(BOUNDED_CURVE()
B_SPLINE_CURVE(2,(#720,#721,#722,#723,#724,#725,#726,#727,#728),.UNSPECIFIED.,.T.,.F.)
B_SPLINE_CURVE_WITH_KNOTS((3,2,2,2,3),(0.,1.570796327,3.141592654,4.71238898,6.283185307),.UNSPECIFIED.)
CURVE()
GEOMETRIC_REPRESENTATION_ITEM()
RATIONAL_B_SPLINE_CURVE((1.,0.707106781,1.,0.707106781,1.,0.707106781,1.,0.707106781,1.))
REPRESENTATION_ITEM(''));
#730=EDGE_CURVE('',#717,#719,#729,.T.);
#731=ORIENTED_EDGE('',*,*,#730,.F.);
#732=CARTESIAN_POINT('',(-1.7,-17.056369047,-1.649999836));
#733=CARTESIAN_POINT('',(-1.7,-15.406369047,-1.649999836));
#734=CARTESIAN_POINT('',(-1.7,-15.406369047,0.000000164));
#735=CARTESIAN_POINT('',(-1.7,-15.406369047,1.650000164));
#736=CARTESIAN_POINT('',(-1.7,-17.056369047,1.650000164));
#737=CARTESIAN_POINT('',(-1.7,-18.706369047,1.650000164));
#738=CARTESIAN_POINT('',(-1.7,-18.706369047,0.000000164));
#739=CARTESIAN_POINT('',(-1.7,-18.706369047,-1.649999836));
#740=CARTESIAN_POINT('',(-1.7,-17.056369047,-1.649999836));
#741=(BOUNDED_CURVE()
B_SPLINE_CURVE(2,(#732,#733,#734,#735,#736,#737,#738,#739,#740),.UNSPECIFIED.,.T.,.F.)
B_SPLINE_CURVE_WITH_KNOTS((3,2,2,2,3),(0.,1.570796327,3.141592654,4.71238898,6.283185307),.UNSPECIFIED.)
CURVE()
GEOMETRIC_REPRESENTATION_ITEM()
RATIONAL_B_SPLINE_CURVE((1.,0.707106781,1.,0.707106781,1.,0.707106781,1.,0.707106781,1.))
REPRESENTATION_ITEM(''));
#742=EDGE_CURVE('',#719,#717,#741,.T.);
#743=ORIENTED_EDGE('',*,*,#742,.F.);
#744=EDGE_LOOP('',(#731,#743));
#745=FACE_BOUND('',#744,.T.);
#746=ORIENTED_EDGE('',*,*,#132,.F.);
#747=ORIENTED_EDGE('',*,*,#319,.T.);
#748=ORIENTED_EDGE('',*,*,#268,.T.);
#749=CARTESIAN_POINT('',(-1.7,-14.533266737,-3.882772148));
#750=CARTESIAN_POINT('',(-1.7,-19.333266737,-3.882772148));
#751=B_SPLINE_CURVE_WITH_KNOTS('',1,(#749,#750),.UNSPECIFIED.,.F.,.F.,(2,2),(0.,0.0048),.UNSPECIFIED.);
#752=EDGE_CURVE('',#128,#257,#751,.T.);
#753=ORIENTED_EDGE('',*,*,#752,.F.);
#754=EDGE_LOOP('',(#746,#747,#748,#753));
#755=FACE_BOUND('',#754,.T.);
#756=ADVANCED_FACE('',(#745,#755),#715,.T.);
#757=CARTESIAN_POINT('',(-4.5,-19.333266737,-3.882772148));
#758=CARTESIAN_POINT('',(-4.5,-14.533266737,-3.882772148));
#759=CARTESIAN_POINT('',(-4.5,-19.333266737,11.000000164));
#760=CARTESIAN_POINT('',(-4.5,-14.533266737,11.000000164));
#761=B_SPLINE_SURFACE_WITH_KNOTS('',1,1,((#757,#758),(#759,#760)),.UNSPECIFIED.,.F.,.F.,.U.,(2,2),(2,2),(-0.007850598,0.007032175),(0.0002,0.005),.UNSPECIFIED.);
#762=CARTESIAN_POINT('',(-4.5,-15.406369047,0.000000164));
#763=VERTEX_POINT('',#762);
#764=CARTESIAN_POINT('',(-4.5,-17.056369047,1.650000164));
#765=VERTEX_POINT('',#764);
#766=CARTESIAN_POINT('',(-4.5,-17.056369047,1.650000164));
#767=CARTESIAN_POINT('',(-4.5,-15.406369047,1.650000164));
#768=CARTESIAN_POINT('',(-4.5,-15.406369047,0.000000164));
#769=CARTESIAN_POINT('',(-4.5,-15.406369047,-1.649999836));
#770=CARTESIAN_POINT('',(-4.5,-17.056369047,-1.649999836));
#771=CARTESIAN_POINT('',(-4.5,-18.706369047,-1.649999836));
#772=CARTESIAN_POINT('',(-4.5,-18.706369047,0.000000164));
#773=CARTESIAN_POINT('',(-4.5,-18.706369047,1.650000164));
#774=CARTESIAN_POINT('',(-4.5,-17.056369047,1.650000164));
#775=(BOUNDED_CURVE()
B_SPLINE_CURVE(2,(#766,#767,#768,#769,#770,#771,#772,#773,#774),.UNSPECIFIED.,.T.,.F.)
B_SPLINE_CURVE_WITH_KNOTS((3,2,2,2,3),(0.,1.570796327,3.141592654,4.71238898,6.283185307),.UNSPECIFIED.)
CURVE()
GEOMETRIC_REPRESENTATION_ITEM()
RATIONAL_B_SPLINE_CURVE((1.,0.707106781,1.,0.707106781,1.,0.707106781,1.,0.707106781,1.))
REPRESENTATION_ITEM(''));
#776=EDGE_CURVE('',#763,#765,#775,.T.);
#777=ORIENTED_EDGE('',*,*,#776,.F.);
#778=CARTESIAN_POINT('',(-4.5,-17.056369047,1.650000164));
#779=CARTESIAN_POINT('',(-4.5,-15.406369047,1.650000164));
#780=CARTESIAN_POINT('',(-4.5,-15.406369047,0.000000164));
#781=CARTESIAN_POINT('',(-4.5,-15.406369047,-1.649999836));
#782=CARTESIAN_POINT('',(-4.5,-17.056369047,-1.649999836));
#783=CARTESIAN_POINT('',(-4.5,-18.706369047,-1.649999836));
#784=CARTESIAN_POINT('',(-4.5,-18.706369047,0.000000164));
#785=CARTESIAN_POINT('',(-4.5,-18.706369047,1.650000164));
#786=CARTESIAN_POINT('',(-4.5,-17.056369047,1.650000164));
#787=(BOUNDED_CURVE()
B_SPLINE_CURVE(2,(#778,#779,#780,#781,#782,#783,#784,#785,#786),.UNSPECIFIED.,.T.,.F.)
B_SPLINE_CURVE_WITH_KNOTS((3,2,2,2,3),(0.,1.570796327,3.141592654,4.71238898,6.283185307),.UNSPECIFIED.)
CURVE()
GEOMETRIC_REPRESENTATION_ITEM()
RATIONAL_B_SPLINE_CURVE((1.,0.707106781,1.,0.707106781,1.,0.707106781,1.,0.707106781,1.))
REPRESENTATION_ITEM(''));
#788=EDGE_CURVE('',#765,#763,#787,.T.);
#789=ORIENTED_EDGE('',*,*,#788,.F.);
#790=EDGE_LOOP('',(#777,#789));
#791=FACE_BOUND('',#790,.T.);
#792=ORIENTED_EDGE('',*,*,#146,.T.);
#793=CARTESIAN_POINT('',(-4.5,-19.333266737,-3.882772148));
#794=CARTESIAN_POINT('',(-4.5,-14.533266737,-3.882772148));
#795=B_SPLINE_CURVE_WITH_KNOTS('',1,(#793,#794),.UNSPECIFIED.,.F.,.F.,(2,2),(0.0002,0.005),.UNSPECIFIED.);
#796=EDGE_CURVE('',#250,#135,#795,.T.);
#797=ORIENTED_EDGE('',*,*,#796,.F.);
#798=ORIENTED_EDGE('',*,*,#254,.F.);
#799=ORIENTED_EDGE('',*,*,#704,.T.);
#800=EDGE_LOOP('',(#792,#797,#798,#799));
#801=FACE_BOUND('',#800,.T.);
#802=ADVANCED_FACE('',(#791,#801),#761,.T.);
#803=CARTESIAN_POINT('',(-12.,-85.490851531,13.500000164));
#804=CARTESIAN_POINT('',(12.,-85.490851531,13.500000164));
#805=CARTESIAN_POINT('',(-12.,-85.490851531,11.000000164));
#806=CARTESIAN_POINT('',(12.,-85.490851531,11.000000164));
#807=B_SPLINE_SURFACE_WITH_KNOTS('',1,1,((#803,#804),(#805,#806)),.UNSPECIFIED.,.F.,.F.,.U.,(2,2),(2,2),(0.,0.0025),(-0.024,0.),.UNSPECIFIED.);
#808=CARTESIAN_POINT('',(-12.,-85.490851531,13.500000164));
#809=VERTEX_POINT('',#808);
#810=CARTESIAN_POINT('',(-12.,-85.490851531,13.500000164));
#811=CARTESIAN_POINT('',(-12.,-85.490851531,11.000000164));
#812=B_SPLINE_CURVE_WITH_KNOTS('',1,(#810,#811),.UNSPECIFIED.,.F.,.F.,(2,2),(0.,0.0025),.UNSPECIFIED.);
#813=EDGE_CURVE('',#809,#689,#812,.T.);
#814=ORIENTED_EDGE('',*,*,#813,.T.);
#815=ORIENTED_EDGE('',*,*,#693,.F.);
#816=ORIENTED_EDGE('',*,*,#612,.F.);
#817=CARTESIAN_POINT('',(12.,-85.490851531,13.500000164));
#818=CARTESIAN_POINT('',(-12.,-85.490851531,13.500000164));
#819=B_SPLINE_CURVE_WITH_KNOTS('',1,(#817,#818),.UNSPECIFIED.,.F.,.F.,(2,2),(0.,0.024),.UNSPECIFIED.);
#820=EDGE_CURVE('',#601,#809,#819,.T.);
#821=ORIENTED_EDGE('',*,*,#820,.T.);
#822=EDGE_LOOP('',(#814,#815,#816,#821));
#823=FACE_BOUND('',#822,.T.);
#824=ADVANCED_FACE('',(#823),#807,.T.);
#825=CARTESIAN_POINT('',(-12.,-85.490851531,11.000000164));
#826=CARTESIAN_POINT('',(-12.,-14.533266737,11.000000164));
#827=CARTESIAN_POINT('',(-12.,-85.490851531,13.500000164));
#828=CARTESIAN_POINT('',(-12.,-14.533266737,13.500000164));
#829=B_SPLINE_SURFACE_WITH_KNOTS('',1,1,((#825,#826),(#827,#828)),.UNSPECIFIED.,.F.,.F.,.U.,(2,2),(2,2),(-0.0025,0.),(0.,0.070957585),.UNSPECIFIED.);
#830=ORIENTED_EDGE('',*,*,#160,.T.);
#831=ORIENTED_EDGE('',*,*,#698,.F.);
#832=ORIENTED_EDGE('',*,*,#813,.F.);
#833=CARTESIAN_POINT('',(-12.,-85.490851531,13.500000164));
#834=CARTESIAN_POINT('',(-12.,-14.533266737,13.500000164));
#835=B_SPLINE_CURVE_WITH_KNOTS('',1,(#833,#834),.UNSPECIFIED.,.F.,.F.,(2,2),(0.,0.070957585),.UNSPECIFIED.);
#836=EDGE_CURVE('',#809,#156,#835,.T.);
#837=ORIENTED_EDGE('',*,*,#836,.T.);
#838=EDGE_LOOP('',(#830,#831,#832,#837));
#839=FACE_BOUND('',#838,.T.);
#840=ADVANCED_FACE('',(#839),#829,.T.);
#841=CARTESIAN_POINT('',(12.,-85.490851531,13.500000164));
#842=CARTESIAN_POINT('',(12.,-14.533266737,13.500000164));
#843=CARTESIAN_POINT('',(-12.,-85.490851531,13.500000164));
#844=CARTESIAN_POINT('',(-12.,-14.533266737,13.500000164));
#845=B_SPLINE_SURFACE_WITH_KNOTS('',1,1,((#841,#842),(#843,#844)),.UNSPECIFIED.,.F.,.F.,.U.,(2,2),(2,2),(-0.012,0.012),(-0.047457585,0.0235),.UNSPECIFIED.);
#846=ORIENTED_EDGE('',*,*,#820,.F.);
#847=ORIENTED_EDGE('',*,*,#605,.F.);
#848=ORIENTED_EDGE('',*,*,#167,.F.);
#849=ORIENTED_EDGE('',*,*,#836,.F.);
#850=EDGE_LOOP('',(#846,#847,#848,#849));
#851=FACE_BOUND('',#850,.T.);
#852=ADVANCED_FACE('',(#851),#845,.F.);
#853=CARTESIAN_POINT('',(-1.7,-19.333266737,-3.882772148));
#854=CARTESIAN_POINT('',(-1.7,-14.533266737,-3.882772148));
#855=CARTESIAN_POINT('',(-4.5,-19.333266737,-3.882772148));
#856=CARTESIAN_POINT('',(-4.5,-14.533266737,-3.882772148));
#857=B_SPLINE_SURFACE_WITH_KNOTS('',1,1,((#853,#854),(#855,#856)),.UNSPECIFIED.,.F.,.F.,.U.,(2,2),(2,2),(-0.0013,0.0015),(-0.0023,0.0025),.UNSPECIFIED.);
#858=ORIENTED_EDGE('',*,*,#139,.T.);
#859=ORIENTED_EDGE('',*,*,#752,.T.);
#860=ORIENTED_EDGE('',*,*,#261,.T.);
#861=ORIENTED_EDGE('',*,*,#796,.T.);
#862=EDGE_LOOP('',(#858,#859,#860,#861));
#863=FACE_BOUND('',#862,.T.);
#864=ADVANCED_FACE('',(#863),#857,.T.);
#865=CARTESIAN_POINT('',(-4.5,-15.406369047,0.000000164));
#866=CARTESIAN_POINT('',(-1.7,-15.406369047,0.000000164));
#867=CARTESIAN_POINT('',(-4.5,-15.406369047,2.857883996));
#868=CARTESIAN_POINT('',(-1.7,-15.406369047,2.857883996));
#869=CARTESIAN_POINT('',(-4.5,-17.881369047,1.42894208));
#870=CARTESIAN_POINT('',(-1.7,-17.881369047,1.42894208));
#871=CARTESIAN_POINT('',(-4.5,-20.356369047,0.000000164));
#872=CARTESIAN_POINT('',(-1.7,-20.356369047,0.000000164));
#873=CARTESIAN_POINT('',(-4.5,-17.881369047,-1.428941752));
#874=CARTESIAN_POINT('',(-1.7,-17.881369047,-1.428941752));
#875=CARTESIAN_POINT('',(-4.5,-15.406369047,-2.857883669));
#876=CARTESIAN_POINT('',(-1.7,-15.406369047,-2.857883669));
#877=CARTESIAN_POINT('',(-4.5,-15.406369047,0.000000164));
#878=CARTESIAN_POINT('',(-1.7,-15.406369047,0.000000164));
#879=(BOUNDED_SURFACE()
B_SPLINE_SURFACE(2,1,((#865,#866),(#867,#868),(#869,#870),(#871,#872),(#873,#874),(#875,#876),(#877,#878)),.UNSPECIFIED.,.T.,.F.,.U.)
B_SPLINE_SURFACE_WITH_KNOTS((3,2,2,3),(2,2),(0.,2.094395102,4.188790205,6.283185307),(0.07923505,0.08203505),.UNSPECIFIED.)
GEOMETRIC_REPRESENTATION_ITEM()
RATIONAL_B_SPLINE_SURFACE(((1.,1.),(0.5,0.5),(1.,1.),(0.5,0.5),(1.,1.),(0.5,0.5),(1.,1.)))
REPRESENTATION_ITEM('')
SURFACE()
);
#880=CARTESIAN_POINT('',(-1.7,-15.406369047,0.000000164));
#881=CARTESIAN_POINT('',(-4.5,-15.406369047,0.000000164));
#882=B_SPLINE_CURVE_WITH_KNOTS('',1,(#880,#881),.UNSPECIFIED.,.F.,.F.,(2,2),(0.08543505,0.08823505),.UNSPECIFIED.);
#883=EDGE_CURVE('',#717,#763,#882,.T.);
#884=ORIENTED_EDGE('',*,*,#883,.F.);
#885=ORIENTED_EDGE('',*,*,#730,.T.);
#886=ORIENTED_EDGE('',*,*,#742,.T.);
#887=ORIENTED_EDGE('',*,*,#883,.T.);
#888=ORIENTED_EDGE('',*,*,#776,.T.);
#889=ORIENTED_EDGE('',*,*,#788,.T.);
#890=EDGE_LOOP('',(#884,#885,#886,#887,#888,#889));
#891=FACE_BOUND('',#890,.T.);
#892=ADVANCED_FACE('',(#891),#879,.F.);
#893=CARTESIAN_POINT('',(9.7,-49.383266655,-8.500000127));
#894=CARTESIAN_POINT('',(12.,-49.383266655,-8.500000127));
#895=CARTESIAN_POINT('',(9.7,-49.383266655,-5.642116294));
#896=CARTESIAN_POINT('',(12.,-49.383266655,-5.642116294));
#897=CARTESIAN_POINT('',(9.7,-51.858266655,-7.07105821));
#898=CARTESIAN_POINT('',(12.,-51.858266655,-7.07105821));
#899=CARTESIAN_POINT('',(9.7,-54.333266655,-8.500000127));
#900=CARTESIAN_POINT('',(12.,-54.333266655,-8.500000127));
#901=CARTESIAN_POINT('',(9.7,-51.858266655,-9.928942043));
#902=CARTESIAN_POINT('',(12.,-51.858266655,-9.928942043));
#903=CARTESIAN_POINT('',(9.7,-49.383266655,-11.357883959));
#904=CARTESIAN_POINT('',(12.,-49.383266655,-11.357883959));
#905=CARTESIAN_POINT('',(9.7,-49.383266655,-8.500000127));
#906=CARTESIAN_POINT('',(12.,-49.383266655,-8.500000127));
#907=(BOUNDED_SURFACE()
B_SPLINE_SURFACE(2,1,((#893,#894),(#895,#896),(#897,#898),(#899,#900),(#901,#902),(#903,#904),(#905,#906)),.UNSPECIFIED.,.T.,.F.,.U.)
B_SPLINE_SURFACE_WITH_KNOTS((3,2,2,3),(2,2),(0.,2.094395102,4.188790205,6.283185307),(0.1057915,0.1080915),.UNSPECIFIED.)
GEOMETRIC_REPRESENTATION_ITEM()
RATIONAL_B_SPLINE_SURFACE(((1.,1.),(0.5,0.5),(1.,1.),(0.5,0.5),(1.,1.),(0.5,0.5),(1.,1.)))
REPRESENTATION_ITEM('')
SURFACE()
);
#908=CARTESIAN_POINT('',(12.,-49.383266655,-8.500000127));
#909=CARTESIAN_POINT('',(9.7,-49.383266655,-8.500000127));
#910=B_SPLINE_CURVE_WITH_KNOTS('',1,(#908,#909),.UNSPECIFIED.,.F.,.F.,(2,2),(0.1057915,0.1080915),.UNSPECIFIED.);
#911=EDGE_CURVE('',#563,#393,#910,.T.);
#912=ORIENTED_EDGE('',*,*,#911,.F.);
#913=ORIENTED_EDGE('',*,*,#576,.T.);
#914=ORIENTED_EDGE('',*,*,#588,.T.);
#915=ORIENTED_EDGE('',*,*,#911,.T.);
#916=ORIENTED_EDGE('',*,*,#404,.F.);
#917=ORIENTED_EDGE('',*,*,#416,.F.);
#918=EDGE_LOOP('',(#912,#913,#914,#915,#916,#917));
#919=FACE_BOUND('',#918,.T.);
#920=ADVANCED_FACE('',(#919),#907,.F.);
#921=CARTESIAN_POINT('',(9.7,-49.383266678,8.500000164));
#922=CARTESIAN_POINT('',(12.,-49.383266678,8.500000164));
#923=CARTESIAN_POINT('',(9.7,-49.383266678,11.357883996));
#924=CARTESIAN_POINT('',(12.,-49.383266678,11.357883996));
#925=CARTESIAN_POINT('',(9.7,-51.858266678,9.92894208));
#926=CARTESIAN_POINT('',(12.,-51.858266678,9.92894208));
#927=CARTESIAN_POINT('',(9.7,-54.333266678,8.500000164));
#928=CARTESIAN_POINT('',(12.,-54.333266678,8.500000164));
#929=CARTESIAN_POINT('',(9.7,-51.858266678,7.071058248));
#930=CARTESIAN_POINT('',(12.,-51.858266678,7.071058248));
#931=CARTESIAN_POINT('',(9.7,-49.383266678,5.642116331));
#932=CARTESIAN_POINT('',(12.,-49.383266678,5.642116331));
#933=CARTESIAN_POINT('',(9.7,-49.383266678,8.500000164));
#934=CARTESIAN_POINT('',(12.,-49.383266678,8.500000164));
#935=(BOUNDED_SURFACE()
B_SPLINE_SURFACE(2,1,((#921,#922),(#923,#924),(#925,#926),(#927,#928),(#929,#930),(#931,#932),(#933,#934)),.UNSPECIFIED.,.T.,.F.,.U.)
B_SPLINE_SURFACE_WITH_KNOTS((3,2,2,3),(2,2),(0.,2.094395102,4.188790205,6.283185307),(0.1057915,0.1080915),.UNSPECIFIED.)
GEOMETRIC_REPRESENTATION_ITEM()
RATIONAL_B_SPLINE_SURFACE(((1.,1.),(0.5,0.5),(1.,1.),(0.5,0.5),(1.,1.),(0.5,0.5),(1.,1.)))
REPRESENTATION_ITEM('')
SURFACE()
);
#936=CARTESIAN_POINT('',(12.,-49.383266678,8.500000164));
#937=CARTESIAN_POINT('',(9.7,-49.383266678,8.500000164));
#938=B_SPLINE_CURVE_WITH_KNOTS('',1,(#936,#937),.UNSPECIFIED.,.F.,.F.,(2,2),(0.1057915,0.1080915),.UNSPECIFIED.);
#939=EDGE_CURVE('',#533,#363,#938,.T.);
#940=ORIENTED_EDGE('',*,*,#939,.F.);
#941=ORIENTED_EDGE('',*,*,#546,.T.);
#942=ORIENTED_EDGE('',*,*,#558,.T.);
#943=ORIENTED_EDGE('',*,*,#939,.T.);
#944=ORIENTED_EDGE('',*,*,#374,.F.);
#945=ORIENTED_EDGE('',*,*,#386,.F.);
#946=EDGE_LOOP('',(#940,#941,#942,#943,#944,#945));
#947=FACE_BOUND('',#946,.T.);
#948=ADVANCED_FACE('',(#947),#935,.F.);
#949=CARTESIAN_POINT('',(1.7,-15.406369047,0.000000164));
#950=CARTESIAN_POINT('',(4.5,-15.406369047,0.000000164));
#951=CARTESIAN_POINT('',(1.7,-15.406369047,2.857883996));
#952=CARTESIAN_POINT('',(4.5,-15.406369047,2.857883996));
#953=CARTESIAN_POINT('',(1.7,-17.881369047,1.42894208));
#954=CARTESIAN_POINT('',(4.5,-17.881369047,1.42894208));
#955=CARTESIAN_POINT('',(1.7,-20.356369047,0.000000164));
#956=CARTESIAN_POINT('',(4.5,-20.356369047,0.000000164));
#957=CARTESIAN_POINT('',(1.7,-17.881369047,-1.428941752));
#958=CARTESIAN_POINT('',(4.5,-17.881369047,-1.428941752));
#959=CARTESIAN_POINT('',(1.7,-15.406369047,-2.857883669));
#960=CARTESIAN_POINT('',(4.5,-15.406369047,-2.857883669));
#961=CARTESIAN_POINT('',(1.7,-15.406369047,0.000000164));
#962=CARTESIAN_POINT('',(4.5,-15.406369047,0.000000164));
#963=(BOUNDED_SURFACE()
B_SPLINE_SURFACE(2,1,((#949,#950),(#951,#952),(#953,#954),(#955,#956),(#957,#958),(#959,#960),(#961,#962)),.UNSPECIFIED.,.T.,.F.,.U.)
B_SPLINE_SURFACE_WITH_KNOTS((3,2,2,3),(2,2),(0.,2.094395102,4.188790205,6.283185307),(0.08543505,0.08823505),.UNSPECIFIED.)
GEOMETRIC_REPRESENTATION_ITEM()
RATIONAL_B_SPLINE_SURFACE(((1.,1.),(0.5,0.5),(1.,1.),(0.5,0.5),(1.,1.),(0.5,0.5),(1.,1.)))
REPRESENTATION_ITEM('')
SURFACE()
);
#964=CARTESIAN_POINT('',(4.5,-15.406369047,0.000000164));
#965=CARTESIAN_POINT('',(1.7,-15.406369047,0.000000164));
#966=B_SPLINE_CURVE_WITH_KNOTS('',1,(#964,#965),.UNSPECIFIED.,.F.,.F.,(2,2),(0.07923505,0.08203505),.UNSPECIFIED.);
#967=EDGE_CURVE('',#185,#35,#966,.T.);
#968=ORIENTED_EDGE('',*,*,#967,.F.);
#969=ORIENTED_EDGE('',*,*,#196,.F.);
#970=ORIENTED_EDGE('',*,*,#208,.F.);
#971=ORIENTED_EDGE('',*,*,#967,.T.);
#972=ORIENTED_EDGE('',*,*,#46,.F.);
#973=ORIENTED_EDGE('',*,*,#58,.F.);
#974=EDGE_LOOP('',(#968,#969,#970,#971,#972,#973));
#975=FACE_BOUND('',#974,.T.);
#976=ADVANCED_FACE('',(#975),#963,.F.);
#977=CLOSED_SHELL('',(#92,#176,#234,#296,#308,#324,#354,#467,#504,#526,#636,#656,#668,#680,#710,#756,#802,#824,#840,#852,#864,#892,#920,#948,#976));
#978=MANIFOLD_SOLID_BREP('Extruded.001',#977);
#26=STYLED_ITEM('',(),#978);
#16=SHAPE_REPRESENTATION('root',(#15),#10);
#17=ADVANCED_BREP_SHAPE_REPRESENTATION('root',(#978),#10);
#986=SHAPE_REPRESENTATION_RELATIONSHIP('','',#16,#17);
#987=APPLICATION_CONTEXT('configuration controlled 3D design of mechanical parts and assemblies');
#988=APPLICATION_PROTOCOL_DEFINITION('international standard','configuration_control_3d_design_ed2_mim',2004,#987);
#989=PRODUCT_CONTEXT('',#987,'mechanical');
#990=PRODUCT_DEFINITION_CONTEXT('part definition',#987,'design');
#24=PRODUCT('root','root','',(#989));
#991=PRODUCT_RELATED_PRODUCT_CATEGORY('part','',(#24));
#992=PRODUCT_DEFINITION_FORMATION_WITH_SPECIFIED_SOURCE('','',#24,.NOT_KNOWN.);
#25=PRODUCT_DEFINITION('design','',#992,#990);
#23=PRODUCT_DEFINITION_SHAPE('','',#25);
#993=SHAPE_DEFINITION_REPRESENTATION(#23,#16);
#11=DRAUGHTING_MODEL('',(),#10);
#1=MECHANICAL_DESIGN_GEOMETRIC_PRESENTATION_REPRESENTATION('',(#26),#10);
ENDSEC;
END-ISO-10303-21;
