ISO-10303-21;
HEADER;

/* File generated by HOOPS Exchange Version 25.8.0 */

FILE_DESCRIPTION(('HOOPS Exchange Step'),'2;1');

FILE_NAME('/home/tfannes/prints/260615_flywheel_nerf_gun/flywheel.step',
'2026-06-15T14:47:36+02:00',
('tfannes'),
('Unknown organisation'),
'HOOPS Exchange 2025.8',
'HOOPS Exchange',
'Unknown authorisation');

FILE_SCHEMA( ('AP203_CONFIGURATION_CONTROLLED_3D_DESIGN_OF_MECHANICAL_PARTS_AND_ASSEMBLIES_MIM_LF') );

ENDSEC;

DATA;
#3=(NAMED_UNIT(*)PLANE_ANGLE_UNIT()SI_UNIT($,.RADIAN.));
#4=PLANE_ANGLE_MEASURE_WITH_UNIT(PLANE_ANGLE_MEASURE(0.0174532925),#3);
#5=(CONVERSION_BASED_UNIT('DEGREE',#4)NAMED_UNIT(#6)PLANE_ANGLE_UNIT());
#6=DIMENSIONAL_EXPONENTS(0.,0.,0.,0.,0.,0.,0.);
#7=(NAMED_UNIT(*)SI_UNIT($,.STERADIAN.)SOLID_ANGLE_UNIT());
#8=(LENGTH_UNIT()NAMED_UNIT(*)SI_UNIT(.MILLI.,.METRE.));
#9=UNCERTAINTY_MEASURE_WITH_UNIT(LENGTH_MEASURE(1.000000E-03),#8,'DISTANCE_ACCURACY_VALUE','Maximum Tolerance applied to model');
#10=(GEOMETRIC_REPRESENTATION_CONTEXT(3)GLOBAL_UNCERTAINTY_ASSIGNED_CONTEXT((#9))GLOBAL_UNIT_ASSIGNED_CONTEXT((#8,#5,#7))REPRESENTATION_CONTEXT('','root'));
#12=CARTESIAN_POINT('',(0.,0.,0.));
#13=DIRECTION('',(0.,0.,1.));
#14=DIRECTION('',(1.,0.,0.));
#15=AXIS2_PLACEMENT_3D('TS3D_PRODUCT_CSYS',#12,#13,#14);
#26=CARTESIAN_POINT('',(0.,-5.999977276,16.5));
#27=CARTESIAN_POINT('',(0.,-5.999977276,11.5));
#28=B_SPLINE_CURVE_WITH_KNOTS('Line.002',1,(#26,#27),.UNSPECIFIED.,.F.,.F.,(2,2),(0.,0.005),.UNSPECIFIED.);
#29=CARTESIAN_POINT('',(1.025382351,-6.145665935,13.013148009));
#30=CARTESIAN_POINT('',(0.746438056,-6.145665935,13.37107291));
#31=CARTESIAN_POINT('',(0.326930525,-6.145665935,13.619465576));
#32=CARTESIAN_POINT('',(-0.183947024,-6.145665935,13.695192175));
#33=CARTESIAN_POINT('',(-0.704098609,-6.145665935,13.561088746));
#34=CARTESIAN_POINT('',(-1.134262344,-6.145665935,13.225846019));
#35=CARTESIAN_POINT('',(-1.39136131,-6.145665935,12.754208952));
#36=CARTESIAN_POINT('',(-1.442721247,-6.145665935,12.2403096));
#37=CARTESIAN_POINT('',(-1.304326647,-6.145665935,11.772835088));
#38=CARTESIAN_POINT('',(-1.025382351,-6.145665935,11.414910187));
#39=CARTESIAN_POINT('',(-0.746438056,-6.145665935,11.056985285));
#40=CARTESIAN_POINT('',(-0.326930525,-6.145665935,10.808592619));
#41=CARTESIAN_POINT('',(0.183947024,-6.145665935,10.73286602));
#42=CARTESIAN_POINT('',(0.704098609,-6.145665935,10.866969449));
#43=CARTESIAN_POINT('',(1.134262344,-6.145665935,11.202212176));
#44=CARTESIAN_POINT('',(1.39136131,-6.145665935,11.673849243));
#45=CARTESIAN_POINT('',(1.442721247,-6.145665935,12.187748595));
#46=CARTESIAN_POINT('',(1.304326647,-6.145665935,12.655223107));
#47=CARTESIAN_POINT('',(1.025382351,-6.145665935,13.013148009));
#48=B_SPLINE_CURVE_WITH_KNOTS('Circle.003',9,(#29,#30,#31,#32,#33,#34,#35,#36,#37,#38,#39,#40,#41,#42,#43,#44,#45,#46,#47),.UNSPECIFIED.,.T.,.F.,(10,9,10),(0.,3.141592654,6.283185307),.UNSPECIFIED.);
#49=CARTESIAN_POINT('',(0.777979244,-0.705158348,16.5));
#50=CARTESIAN_POINT('',(1.024125213,-0.433593166,16.5));
#51=CARTESIAN_POINT('',(1.163633998,-0.065360314,16.5));
#52=CARTESIAN_POINT('',(1.153086989,0.351646673,16.5));
#53=CARTESIAN_POINT('',(0.974290205,0.746952325,16.5));
#54=CARTESIAN_POINT('',(0.647915895,1.042777145,16.5));
#55=CARTESIAN_POINT('',(0.236996271,1.181988898,16.5));
#56=CARTESIAN_POINT('',(-0.179038174,1.151634223,16.5));
#57=CARTESIAN_POINT('',(-0.531833276,0.976723529,16.5));
#58=CARTESIAN_POINT('',(-0.777979244,0.705158348,16.5));
#59=CARTESIAN_POINT('',(-1.024125213,0.433593166,16.5));
#60=CARTESIAN_POINT('',(-1.163633998,0.065360314,16.5));
#61=CARTESIAN_POINT('',(-1.153086989,-0.351646673,16.5));
#62=CARTESIAN_POINT('',(-0.974290205,-0.746952325,16.5));
#63=CARTESIAN_POINT('',(-0.647915895,-1.042777145,16.5));
#64=CARTESIAN_POINT('',(-0.236996271,-1.181988898,16.5));
#65=CARTESIAN_POINT('',(0.179038174,-1.151634223,16.5));
#66=CARTESIAN_POINT('',(0.531833276,-0.976723529,16.5));
#67=CARTESIAN_POINT('',(0.777979244,-0.705158348,16.5));
#68=B_SPLINE_CURVE_WITH_KNOTS('Circle.002',9,(#49,#50,#51,#52,#53,#54,#55,#56,#57,#58,#59,#60,#61,#62,#63,#64,#65,#66,#67),.UNSPECIFIED.,.T.,.F.,(10,9,10),(0.,3.141592654,6.283185307),.UNSPECIFIED.);
#70=CARTESIAN_POINT('',(0.,-1.05,8.5));
#71=CARTESIAN_POINT('',(0.,-1.05,16.5));
#72=CARTESIAN_POINT('',(1.818653348,-1.05,8.5));
#73=CARTESIAN_POINT('',(1.818653348,-1.05,16.5));
#74=CARTESIAN_POINT('',(0.909326674,0.525,8.5));
#75=CARTESIAN_POINT('',(0.909326674,0.525,16.5));
#76=CARTESIAN_POINT('',(0.,2.1,8.5));
#77=CARTESIAN_POINT('',(0.,2.1,16.5));
#78=CARTESIAN_POINT('',(-0.909326674,0.525,8.5));
#79=CARTESIAN_POINT('',(-0.909326674,0.525,16.5));
#80=CARTESIAN_POINT('',(-1.818653348,-1.05,8.5));
#81=CARTESIAN_POINT('',(-1.818653348,-1.05,16.5));
#82=CARTESIAN_POINT('',(-0.,-1.05,8.5));
#83=CARTESIAN_POINT('',(-0.,-1.05,16.5));
#84=(BOUNDED_SURFACE()
B_SPLINE_SURFACE(2,1,((#70,#71),(#72,#73),(#74,#75),(#76,#77),(#78,#79),(#80,#81),(#82,#83)),.UNSPECIFIED.,.T.,.F.,.U.)
B_SPLINE_SURFACE_WITH_KNOTS((3,2,2,3),(2,2),(0.,2.094395102,4.188790205,6.283185307),(-0.,0.008),.UNSPECIFIED.)
GEOMETRIC_REPRESENTATION_ITEM()
RATIONAL_B_SPLINE_SURFACE(((1.,1.),(0.5,0.5),(1.,1.),(0.5,0.5),(1.,1.),(0.5,0.5),(1.,1.)))
REPRESENTATION_ITEM('')
SURFACE()
);
#85=CARTESIAN_POINT('',(-0.,-1.049999957,10.914029137));
#86=VERTEX_POINT('',#85);
#87=CARTESIAN_POINT('',(0.,-1.05,8.5));
#88=VERTEX_POINT('',#87);
#89=CARTESIAN_POINT('',(0.,-1.05,10.914029137));
#90=CARTESIAN_POINT('',(0.,-1.05,8.5));
#91=B_SPLINE_CURVE_WITH_KNOTS('',1,(#89,#90),.UNSPECIFIED.,.F.,.F.,(2,2),(0.005585971,0.008),.UNSPECIFIED.);
#92=EDGE_CURVE('',#86,#88,#91,.T.);
#93=ORIENTED_EDGE('',*,*,#92,.F.);
#94=CARTESIAN_POINT('',(1.039908362,-0.145226029,11.433906928));
#95=VERTEX_POINT('',#94);
#96=CARTESIAN_POINT('',(-1.039908362,-0.145226029,11.433906928));
#97=CARTESIAN_POINT('',(-1.030682335,-0.2112901,11.421608569));
#98=CARTESIAN_POINT('',(-1.015768817,-0.273073568,11.402147267));
#99=CARTESIAN_POINT('',(-0.996126259,-0.332012766,11.378725273));
#100=CARTESIAN_POINT('',(-0.976483702,-0.390951964,11.355303278));
#101=CARTESIAN_POINT('',(-0.951774965,-0.44750199,11.327580987));
#102=CARTESIAN_POINT('',(-0.923039068,-0.50049863,11.298606311));
#103=CARTESIAN_POINT('',(-0.865567274,-0.606491908,11.240656959));
#104=CARTESIAN_POINT('',(-0.792566169,-0.699298068,11.178031378));
#105=CARTESIAN_POINT('',(-0.702522347,-0.780360399,11.120199882));
#106=CARTESIAN_POINT('',(-0.657500436,-0.820891564,11.091284135));
#107=CARTESIAN_POINT('',(-0.60902792,-0.85755145,11.064055559));
#108=CARTESIAN_POINT('',(-0.5566915,-0.890277807,11.039254832));
#109=CARTESIAN_POINT('',(-0.504355079,-0.923004164,11.014454105));
#110=CARTESIAN_POINT('',(-0.447459031,-0.952057516,10.991859508));
#111=CARTESIAN_POINT('',(-0.387713025,-0.975796398,10.973191231));
#112=CARTESIAN_POINT('',(-0.327967018,-0.99953528,10.954522954));
#113=CARTESIAN_POINT('',(-0.265702163,-1.017988252,10.939767382));
#114=CARTESIAN_POINT('',(-0.200608229,-1.030658206,10.929600688));
#115=CARTESIAN_POINT('',(-0.135514295,-1.043328161,10.919433995));
#116=CARTESIAN_POINT('',(-0.068367659,-1.049877543,10.914128005));
#117=CARTESIAN_POINT('',(-0.001907317,-1.049998268,10.914030497));
#118=CARTESIAN_POINT('',(0.064553025,-1.050118993,10.913932988));
#119=CARTESIAN_POINT('',(0.132016674,-1.04377143,10.919075893));
#120=CARTESIAN_POINT('',(0.197075264,-1.031339585,10.929053868));
#121=CARTESIAN_POINT('',(0.262133855,-1.018907741,10.939031843));
#122=CARTESIAN_POINT('',(0.324644987,-1.000645194,10.95364162));
#123=CARTESIAN_POINT('',(0.384836149,-0.976934562,10.972295979));
#124=CARTESIAN_POINT('',(0.505218471,-0.929513299,11.009604695));
#125=CARTESIAN_POINT('',(0.611444757,-0.862101247,11.061845427));
#126=CARTESIAN_POINT('',(0.701315599,-0.781445092,11.119425776));
#127=CARTESIAN_POINT('',(0.746251019,-0.741117014,11.148215951));
#128=CARTESIAN_POINT('',(0.787013614,-0.697621696,11.178220674));
#129=CARTESIAN_POINT('',(0.824024032,-0.650756787,11.2085519));
#130=CARTESIAN_POINT('',(0.861034449,-0.603891877,11.238883126));
#131=CARTESIAN_POINT('',(0.894219096,-0.55359256,11.269563977));
#132=CARTESIAN_POINT('',(0.922795307,-0.500947925,11.298360586));
#133=CARTESIAN_POINT('',(0.951371518,-0.448303289,11.327157195));
#134=CARTESIAN_POINT('',(0.975677455,-0.392987366,11.354378368));
#135=CARTESIAN_POINT('',(0.995488624,-0.333919753,11.377965462));
#136=CARTESIAN_POINT('',(1.015299792,-0.274852139,11.401552556));
#137=CARTESIAN_POINT('',(1.030679924,-0.211307358,11.421605356));
#138=CARTESIAN_POINT('',(1.039908362,-0.145226029,11.433906928));
#139=B_SPLINE_CURVE_WITH_KNOTS('',3,(#96,#97,#98,#99,#100,#101,#102,#103,#104,#105,#106,#107,#108,#109,#110,#111,#112,#113,#114,#115,#116,#117,#118,#119,#120,#121,
#122,#123,#124,#125,#126,#127,#128,#129,#130,#131,#132,#133,#134,#135,#136,#137,#138),.UNSPECIFIED.,.F.,.F.,(4,3,3,3,3,3,3,3,3,3,3,3,3,3,4),(0.,0.00019902,0.00039804,0.00079608,0.0009951,0.00119412,0.00139314,0.00159216,0.00179118,0.0019902,0.002388241,0.002587261,0.002786281,0.002985301,0.003184321),.UNSPECIFIED.);
#140=EDGE_CURVE('',#86,#95,#139,.T.);
#141=ORIENTED_EDGE('',*,*,#140,.T.);
#142=CARTESIAN_POINT('',(1.039908362,-0.145226029,12.994151267));
#143=VERTEX_POINT('',#142);
#144=CARTESIAN_POINT('',(1.039908362,-0.145226029,12.994151267));
#145=CARTESIAN_POINT('',(1.039908362,-0.145226029,11.433906928));
#146=B_SPLINE_CURVE_WITH_KNOTS('',1,(#144,#145),.UNSPECIFIED.,.F.,.F.,(2,2),(0.002933907,0.004494151),.UNSPECIFIED.);
#147=EDGE_CURVE('',#143,#95,#146,.T.);
#148=ORIENTED_EDGE('',*,*,#147,.F.);
#149=CARTESIAN_POINT('',(0.,-1.049999957,13.514029058));
#150=VERTEX_POINT('',#149);
#151=CARTESIAN_POINT('',(1.039908362,-0.145226029,12.994151267));
#152=CARTESIAN_POINT('',(1.030682335,-0.2112901,13.006449626));
#153=CARTESIAN_POINT('',(1.015768817,-0.273073568,13.025910928));
#154=CARTESIAN_POINT('',(0.996126259,-0.332012766,13.049332923));
#155=CARTESIAN_POINT('',(0.976483702,-0.390951964,13.072754917));
#156=CARTESIAN_POINT('',(0.951774965,-0.44750199,13.100477208));
#157=CARTESIAN_POINT('',(0.923039068,-0.50049863,13.129451884));
#158=CARTESIAN_POINT('',(0.865567274,-0.606491908,13.187401236));
#159=CARTESIAN_POINT('',(0.792566169,-0.699298068,13.250026818));
#160=CARTESIAN_POINT('',(0.702522347,-0.780360399,13.307858313));
#161=CARTESIAN_POINT('',(0.657500436,-0.820891564,13.33677406));
#162=CARTESIAN_POINT('',(0.60902792,-0.85755145,13.364002636));
#163=CARTESIAN_POINT('',(0.5566915,-0.890277807,13.388803363));
#164=CARTESIAN_POINT('',(0.504355079,-0.923004164,13.41360409));
#165=CARTESIAN_POINT('',(0.447459031,-0.952057516,13.436198687));
#166=CARTESIAN_POINT('',(0.387713025,-0.975796398,13.454866964));
#167=CARTESIAN_POINT('',(0.327967018,-0.99953528,13.473535241));
#168=CARTESIAN_POINT('',(0.265702163,-1.017988252,13.488290813));
#169=CARTESIAN_POINT('',(0.200608229,-1.030658206,13.498457507));
#170=CARTESIAN_POINT('',(0.135514295,-1.043328161,13.5086242));
#171=CARTESIAN_POINT('',(0.068367659,-1.049877543,13.51393019));
#172=CARTESIAN_POINT('',(0.001907317,-1.049998268,13.514027698));
#173=CARTESIAN_POINT('',(-0.064553025,-1.050118993,13.514125207));
#174=CARTESIAN_POINT('',(-0.132016674,-1.04377143,13.508982302));
#175=CARTESIAN_POINT('',(-0.197075264,-1.031339585,13.499004327));
#176=CARTESIAN_POINT('',(-0.262133855,-1.018907741,13.489026352));
#177=CARTESIAN_POINT('',(-0.324644987,-1.000645194,13.474416575));
#178=CARTESIAN_POINT('',(-0.384836149,-0.976934562,13.455762217));
#179=CARTESIAN_POINT('',(-0.505218471,-0.929513299,13.4184535));
#180=CARTESIAN_POINT('',(-0.611444757,-0.862101247,13.366212768));
#181=CARTESIAN_POINT('',(-0.701315599,-0.781445092,13.308632419));
#182=CARTESIAN_POINT('',(-0.746251019,-0.741117014,13.279842244));
#183=CARTESIAN_POINT('',(-0.787013614,-0.697621696,13.249837521));
#184=CARTESIAN_POINT('',(-0.824024032,-0.650756787,13.219506295));
#185=CARTESIAN_POINT('',(-0.861034449,-0.603891877,13.18917507));
#186=CARTESIAN_POINT('',(-0.894219096,-0.55359256,13.158494218));
#187=CARTESIAN_POINT('',(-0.922795307,-0.500947925,13.12969761));
#188=CARTESIAN_POINT('',(-0.951371518,-0.448303289,13.100901001));
#189=CARTESIAN_POINT('',(-0.975677455,-0.392987366,13.073679827));
#190=CARTESIAN_POINT('',(-0.995488624,-0.333919753,13.050092733));
#191=CARTESIAN_POINT('',(-1.015299792,-0.274852139,13.026505639));
#192=CARTESIAN_POINT('',(-1.030679924,-0.211307358,13.006452839));
#193=CARTESIAN_POINT('',(-1.039908362,-0.145226029,12.994151267));
#194=B_SPLINE_CURVE_WITH_KNOTS('',3,(#151,#152,#153,#154,#155,#156,#157,#158,#159,#160,#161,#162,#163,#164,#165,#166,#167,#168,#169,#170,#171,#172,#173,#174,#175,#176,
#177,#178,#179,#180,#181,#182,#183,#184,#185,#186,#187,#188,#189,#190,#191,#192,#193),.UNSPECIFIED.,.F.,.F.,(4,3,3,3,3,3,3,3,3,3,3,3,3,3,4),(0.,0.00019902,0.00039804,0.00079608,0.0009951,0.00119412,0.00139314,0.00159216,0.00179118,0.0019902,0.002388241,0.002587261,0.002786281,0.002985301,0.003184321),.UNSPECIFIED.);
#195=EDGE_CURVE('',#143,#150,#194,.T.);
#196=ORIENTED_EDGE('',*,*,#195,.T.);
#197=CARTESIAN_POINT('',(0.,-1.05,16.5));
#198=VERTEX_POINT('',#197);
#199=CARTESIAN_POINT('',(0.,-1.05,16.5));
#200=CARTESIAN_POINT('',(0.,-1.05,13.514029058));
#201=B_SPLINE_CURVE_WITH_KNOTS('',1,(#199,#200),.UNSPECIFIED.,.F.,.F.,(2,2),(0.,0.002985971),.UNSPECIFIED.);
#202=EDGE_CURVE('',#198,#150,#201,.T.);
#203=ORIENTED_EDGE('',*,*,#202,.F.);
#204=CARTESIAN_POINT('',(0.777979244,-0.705158348,16.5));
#205=VERTEX_POINT('',#204);
#206=CARTESIAN_POINT('',(0.777979244,-0.705158348,16.5));
#207=CARTESIAN_POINT('',(1.483137592,0.072820897,16.5));
#208=CARTESIAN_POINT('',(0.705158348,0.777979244,16.5));
#209=CARTESIAN_POINT('',(-0.072820897,1.483137592,16.5));
#210=CARTESIAN_POINT('',(-0.777979244,0.705158348,16.5));
#211=CARTESIAN_POINT('',(-1.483137592,-0.072820897,16.5));
#212=CARTESIAN_POINT('',(-0.705158348,-0.777979244,16.5));
#213=CARTESIAN_POINT('',(0.072820897,-1.483137592,16.5));
#214=CARTESIAN_POINT('',(0.777979244,-0.705158348,16.5));
#215=(BOUNDED_CURVE()
B_SPLINE_CURVE(2,(#206,#207,#208,#209,#210,#211,#212,#213,#214),.UNSPECIFIED.,.T.,.F.)
B_SPLINE_CURVE_WITH_KNOTS((3,2,2,2,3),(0.,1.570796327,3.141592654,4.71238898,6.283185307),.UNSPECIFIED.)
CURVE()
GEOMETRIC_REPRESENTATION_ITEM()
RATIONAL_B_SPLINE_CURVE((1.,0.707106781,1.,0.707106781,1.,0.707106781,1.,0.707106781,1.))
REPRESENTATION_ITEM(''));
#216=EDGE_CURVE('',#198,#205,#215,.T.);
#217=ORIENTED_EDGE('',*,*,#216,.T.);
#218=CARTESIAN_POINT('',(0.777979244,-0.705158348,16.5));
#219=CARTESIAN_POINT('',(1.483137592,0.072820897,16.5));
#220=CARTESIAN_POINT('',(0.705158348,0.777979244,16.5));
#221=CARTESIAN_POINT('',(-0.072820897,1.483137592,16.5));
#222=CARTESIAN_POINT('',(-0.777979244,0.705158348,16.5));
#223=CARTESIAN_POINT('',(-1.483137592,-0.072820897,16.5));
#224=CARTESIAN_POINT('',(-0.705158348,-0.777979244,16.5));
#225=CARTESIAN_POINT('',(0.072820897,-1.483137592,16.5));
#226=CARTESIAN_POINT('',(0.777979244,-0.705158348,16.5));
#227=(BOUNDED_CURVE()
B_SPLINE_CURVE(2,(#218,#219,#220,#221,#222,#223,#224,#225,#226),.UNSPECIFIED.,.T.,.F.)
B_SPLINE_CURVE_WITH_KNOTS((3,2,2,2,3),(0.,1.570796327,3.141592654,4.71238898,6.283185307),.UNSPECIFIED.)
CURVE()
GEOMETRIC_REPRESENTATION_ITEM()
RATIONAL_B_SPLINE_CURVE((1.,0.707106781,1.,0.707106781,1.,0.707106781,1.,0.707106781,1.))
REPRESENTATION_ITEM(''));
#228=EDGE_CURVE('',#205,#198,#227,.T.);
#229=ORIENTED_EDGE('',*,*,#228,.T.);
#230=ORIENTED_EDGE('',*,*,#202,.T.);
#231=CARTESIAN_POINT('',(-1.039908362,-0.145226029,12.994151267));
#232=VERTEX_POINT('',#231);
#233=CARTESIAN_POINT('',(1.039908362,-0.145226029,12.994151267));
#234=CARTESIAN_POINT('',(1.030682335,-0.2112901,13.006449626));
#235=CARTESIAN_POINT('',(1.015768817,-0.273073568,13.025910928));
#236=CARTESIAN_POINT('',(0.996126259,-0.332012766,13.049332923));
#237=CARTESIAN_POINT('',(0.976483702,-0.390951964,13.072754917));
#238=CARTESIAN_POINT('',(0.951774965,-0.44750199,13.100477208));
#239=CARTESIAN_POINT('',(0.923039068,-0.50049863,13.129451884));
#240=CARTESIAN_POINT('',(0.865567274,-0.606491908,13.187401236));
#241=CARTESIAN_POINT('',(0.792566169,-0.699298068,13.250026818));
#242=CARTESIAN_POINT('',(0.702522347,-0.780360399,13.307858313));
#243=CARTESIAN_POINT('',(0.657500436,-0.820891564,13.33677406));
#244=CARTESIAN_POINT('',(0.60902792,-0.85755145,13.364002636));
#245=CARTESIAN_POINT('',(0.5566915,-0.890277807,13.388803363));
#246=CARTESIAN_POINT('',(0.504355079,-0.923004164,13.41360409));
#247=CARTESIAN_POINT('',(0.447459031,-0.952057516,13.436198687));
#248=CARTESIAN_POINT('',(0.387713025,-0.975796398,13.454866964));
#249=CARTESIAN_POINT('',(0.327967018,-0.99953528,13.473535241));
#250=CARTESIAN_POINT('',(0.265702163,-1.017988252,13.488290813));
#251=CARTESIAN_POINT('',(0.200608229,-1.030658206,13.498457507));
#252=CARTESIAN_POINT('',(0.135514295,-1.043328161,13.5086242));
#253=CARTESIAN_POINT('',(0.068367659,-1.049877543,13.51393019));
#254=CARTESIAN_POINT('',(0.001907317,-1.049998268,13.514027698));
#255=CARTESIAN_POINT('',(-0.064553025,-1.050118993,13.514125207));
#256=CARTESIAN_POINT('',(-0.132016674,-1.04377143,13.508982302));
#257=CARTESIAN_POINT('',(-0.197075264,-1.031339585,13.499004327));
#258=CARTESIAN_POINT('',(-0.262133855,-1.018907741,13.489026352));
#259=CARTESIAN_POINT('',(-0.324644987,-1.000645194,13.474416575));
#260=CARTESIAN_POINT('',(-0.384836149,-0.976934562,13.455762217));
#261=CARTESIAN_POINT('',(-0.505218471,-0.929513299,13.4184535));
#262=CARTESIAN_POINT('',(-0.611444757,-0.862101247,13.366212768));
#263=CARTESIAN_POINT('',(-0.701315599,-0.781445092,13.308632419));
#264=CARTESIAN_POINT('',(-0.746251019,-0.741117014,13.279842244));
#265=CARTESIAN_POINT('',(-0.787013614,-0.697621696,13.249837521));
#266=CARTESIAN_POINT('',(-0.824024032,-0.650756787,13.219506295));
#267=CARTESIAN_POINT('',(-0.861034449,-0.603891877,13.18917507));
#268=CARTESIAN_POINT('',(-0.894219096,-0.55359256,13.158494218));
#269=CARTESIAN_POINT('',(-0.922795307,-0.500947925,13.12969761));
#270=CARTESIAN_POINT('',(-0.951371518,-0.448303289,13.100901001));
#271=CARTESIAN_POINT('',(-0.975677455,-0.392987366,13.073679827));
#272=CARTESIAN_POINT('',(-0.995488624,-0.333919753,13.050092733));
#273=CARTESIAN_POINT('',(-1.015299792,-0.274852139,13.026505639));
#274=CARTESIAN_POINT('',(-1.030679924,-0.211307358,13.006452839));
#275=CARTESIAN_POINT('',(-1.039908362,-0.145226029,12.994151267));
#276=B_SPLINE_CURVE_WITH_KNOTS('',3,(#233,#234,#235,#236,#237,#238,#239,#240,#241,#242,#243,#244,#245,#246,#247,#248,#249,#250,#251,#252,#253,#254,#255,#256,#257,#258,
#259,#260,#261,#262,#263,#264,#265,#266,#267,#268,#269,#270,#271,#272,#273,#274,#275),.UNSPECIFIED.,.F.,.F.,(4,3,3,3,3,3,3,3,3,3,3,3,3,3,4),(0.,0.00019902,0.00039804,0.00079608,0.0009951,0.00119412,0.00139314,0.00159216,0.00179118,0.0019902,0.002388241,0.002587261,0.002786281,0.002985301,0.003184321),.UNSPECIFIED.);
#277=EDGE_CURVE('',#150,#232,#276,.T.);
#278=ORIENTED_EDGE('',*,*,#277,.T.);
#279=CARTESIAN_POINT('',(-1.039908362,-0.145226029,11.433906928));
#280=VERTEX_POINT('',#279);
#281=CARTESIAN_POINT('',(-1.039908362,-0.145226029,11.433906928));
#282=CARTESIAN_POINT('',(-1.039908362,-0.145226029,12.994151267));
#283=B_SPLINE_CURVE_WITH_KNOTS('',1,(#281,#282),.UNSPECIFIED.,.F.,.F.,(2,2),(0.002933907,0.004494151),.UNSPECIFIED.);
#284=EDGE_CURVE('',#280,#232,#283,.T.);
#285=ORIENTED_EDGE('',*,*,#284,.F.);
#286=CARTESIAN_POINT('',(-1.039908362,-0.145226029,11.433906928));
#287=CARTESIAN_POINT('',(-1.030682335,-0.2112901,11.421608569));
#288=CARTESIAN_POINT('',(-1.015768817,-0.273073568,11.402147267));
#289=CARTESIAN_POINT('',(-0.996126259,-0.332012766,11.378725273));
#290=CARTESIAN_POINT('',(-0.976483702,-0.390951964,11.355303278));
#291=CARTESIAN_POINT('',(-0.951774965,-0.44750199,11.327580987));
#292=CARTESIAN_POINT('',(-0.923039068,-0.50049863,11.298606311));
#293=CARTESIAN_POINT('',(-0.865567274,-0.606491908,11.240656959));
#294=CARTESIAN_POINT('',(-0.792566169,-0.699298068,11.178031378));
#295=CARTESIAN_POINT('',(-0.702522347,-0.780360399,11.120199882));
#296=CARTESIAN_POINT('',(-0.657500436,-0.820891564,11.091284135));
#297=CARTESIAN_POINT('',(-0.60902792,-0.85755145,11.064055559));
#298=CARTESIAN_POINT('',(-0.5566915,-0.890277807,11.039254832));
#299=CARTESIAN_POINT('',(-0.504355079,-0.923004164,11.014454105));
#300=CARTESIAN_POINT('',(-0.447459031,-0.952057516,10.991859508));
#301=CARTESIAN_POINT('',(-0.387713025,-0.975796398,10.973191231));
#302=CARTESIAN_POINT('',(-0.327967018,-0.99953528,10.954522954));
#303=CARTESIAN_POINT('',(-0.265702163,-1.017988252,10.939767382));
#304=CARTESIAN_POINT('',(-0.200608229,-1.030658206,10.929600688));
#305=CARTESIAN_POINT('',(-0.135514295,-1.043328161,10.919433995));
#306=CARTESIAN_POINT('',(-0.068367659,-1.049877543,10.914128005));
#307=CARTESIAN_POINT('',(-0.001907317,-1.049998268,10.914030497));
#308=CARTESIAN_POINT('',(0.064553025,-1.050118993,10.913932988));
#309=CARTESIAN_POINT('',(0.132016674,-1.04377143,10.919075893));
#310=CARTESIAN_POINT('',(0.197075264,-1.031339585,10.929053868));
#311=CARTESIAN_POINT('',(0.262133855,-1.018907741,10.939031843));
#312=CARTESIAN_POINT('',(0.324644987,-1.000645194,10.95364162));
#313=CARTESIAN_POINT('',(0.384836149,-0.976934562,10.972295979));
#314=CARTESIAN_POINT('',(0.505218471,-0.929513299,11.009604695));
#315=CARTESIAN_POINT('',(0.611444757,-0.862101247,11.061845427));
#316=CARTESIAN_POINT('',(0.701315599,-0.781445092,11.119425776));
#317=CARTESIAN_POINT('',(0.746251019,-0.741117014,11.148215951));
#318=CARTESIAN_POINT('',(0.787013614,-0.697621696,11.178220674));
#319=CARTESIAN_POINT('',(0.824024032,-0.650756787,11.2085519));
#320=CARTESIAN_POINT('',(0.861034449,-0.603891877,11.238883126));
#321=CARTESIAN_POINT('',(0.894219096,-0.55359256,11.269563977));
#322=CARTESIAN_POINT('',(0.922795307,-0.500947925,11.298360586));
#323=CARTESIAN_POINT('',(0.951371518,-0.448303289,11.327157195));
#324=CARTESIAN_POINT('',(0.975677455,-0.392987366,11.354378368));
#325=CARTESIAN_POINT('',(0.995488624,-0.333919753,11.377965462));
#326=CARTESIAN_POINT('',(1.015299792,-0.274852139,11.401552556));
#327=CARTESIAN_POINT('',(1.030679924,-0.211307358,11.421605356));
#328=CARTESIAN_POINT('',(1.039908362,-0.145226029,11.433906928));
#329=B_SPLINE_CURVE_WITH_KNOTS('',3,(#286,#287,#288,#289,#290,#291,#292,#293,#294,#295,#296,#297,#298,#299,#300,#301,#302,#303,#304,#305,#306,#307,#308,#309,#310,#311,
#312,#313,#314,#315,#316,#317,#318,#319,#320,#321,#322,#323,#324,#325,#326,#327,#328),.UNSPECIFIED.,.F.,.F.,(4,3,3,3,3,3,3,3,3,3,3,3,3,3,4),(0.,0.00019902,0.00039804,0.00079608,0.0009951,0.00119412,0.00139314,0.00159216,0.00179118,0.0019902,0.002388241,0.002587261,0.002786281,0.002985301,0.003184321),.UNSPECIFIED.);
#330=EDGE_CURVE('',#280,#86,#329,.T.);
#331=ORIENTED_EDGE('',*,*,#330,.T.);
#332=ORIENTED_EDGE('',*,*,#92,.T.);
#333=CARTESIAN_POINT('',(0.777979244,-0.705158348,8.5));
#334=VERTEX_POINT('',#333);
#335=CARTESIAN_POINT('',(0.777979244,-0.705158348,8.5));
#336=CARTESIAN_POINT('',(1.483137592,0.072820897,8.5));
#337=CARTESIAN_POINT('',(0.705158348,0.777979244,8.5));
#338=CARTESIAN_POINT('',(-0.072820897,1.483137592,8.5));
#339=CARTESIAN_POINT('',(-0.777979244,0.705158348,8.5));
#340=CARTESIAN_POINT('',(-1.483137592,-0.072820897,8.5));
#341=CARTESIAN_POINT('',(-0.705158348,-0.777979244,8.5));
#342=CARTESIAN_POINT('',(0.072820897,-1.483137592,8.5));
#343=CARTESIAN_POINT('',(0.777979244,-0.705158348,8.5));
#344=(BOUNDED_CURVE()
B_SPLINE_CURVE(2,(#335,#336,#337,#338,#339,#340,#341,#342,#343),.UNSPECIFIED.,.T.,.F.)
B_SPLINE_CURVE_WITH_KNOTS((3,2,2,2,3),(0.,1.570796327,3.141592654,4.71238898,6.283185307),.UNSPECIFIED.)
CURVE()
GEOMETRIC_REPRESENTATION_ITEM()
RATIONAL_B_SPLINE_CURVE((1.,0.707106781,1.,0.707106781,1.,0.707106781,1.,0.707106781,1.))
REPRESENTATION_ITEM(''));
#345=EDGE_CURVE('',#334,#88,#344,.T.);
#346=ORIENTED_EDGE('',*,*,#345,.F.);
#347=CARTESIAN_POINT('',(0.777979244,-0.705158348,8.5));
#348=CARTESIAN_POINT('',(1.483137592,0.072820897,8.5));
#349=CARTESIAN_POINT('',(0.705158348,0.777979244,8.5));
#350=CARTESIAN_POINT('',(-0.072820897,1.483137592,8.5));
#351=CARTESIAN_POINT('',(-0.777979244,0.705158348,8.5));
#352=CARTESIAN_POINT('',(-1.483137592,-0.072820897,8.5));
#353=CARTESIAN_POINT('',(-0.705158348,-0.777979244,8.5));
#354=CARTESIAN_POINT('',(0.072820897,-1.483137592,8.5));
#355=CARTESIAN_POINT('',(0.777979244,-0.705158348,8.5));
#356=(BOUNDED_CURVE()
B_SPLINE_CURVE(2,(#347,#348,#349,#350,#351,#352,#353,#354,#355),.UNSPECIFIED.,.T.,.F.)
B_SPLINE_CURVE_WITH_KNOTS((3,2,2,2,3),(0.,1.570796327,3.141592654,4.71238898,6.283185307),.UNSPECIFIED.)
CURVE()
GEOMETRIC_REPRESENTATION_ITEM()
RATIONAL_B_SPLINE_CURVE((1.,0.707106781,1.,0.707106781,1.,0.707106781,1.,0.707106781,1.))
REPRESENTATION_ITEM(''));
#357=EDGE_CURVE('',#88,#334,#356,.T.);
#358=ORIENTED_EDGE('',*,*,#357,.F.);
#359=EDGE_LOOP('',(#93,#141,#148,#196,#203,#217,#229,#230,#278,#285,#331,#332,#346,#358));
#360=FACE_BOUND('',#359,.T.);
#361=ADVANCED_FACE('',(#360),#84,.F.);
#362=CARTESIAN_POINT('',(0.,6.,16.5));
#363=CARTESIAN_POINT('',(0.,6.,8.5));
#364=CARTESIAN_POINT('',(10.392304845,6.,16.5));
#365=CARTESIAN_POINT('',(10.392304845,6.,8.5));
#366=CARTESIAN_POINT('',(5.196152423,-3.,16.5));
#367=CARTESIAN_POINT('',(5.196152423,-3.,8.5));
#368=CARTESIAN_POINT('',(0.,-12.,16.5));
#369=CARTESIAN_POINT('',(0.,-12.,8.5));
#370=CARTESIAN_POINT('',(-5.196152423,-3.,16.5));
#371=CARTESIAN_POINT('',(-5.196152423,-3.,8.5));
#372=CARTESIAN_POINT('',(-10.392304845,6.,16.5));
#373=CARTESIAN_POINT('',(-10.392304845,6.,8.5));
#374=CARTESIAN_POINT('',(-0.,6.,16.5));
#375=CARTESIAN_POINT('',(-0.,6.,8.5));
#376=(BOUNDED_SURFACE()
B_SPLINE_SURFACE(2,1,((#362,#363),(#364,#365),(#366,#367),(#368,#369),(#370,#371),(#372,#373),(#374,#375)),.UNSPECIFIED.,.T.,.F.,.U.)
B_SPLINE_SURFACE_WITH_KNOTS((3,2,2,3),(2,2),(0.,2.094395102,4.188790205,6.283185307),(-0.,0.008),.UNSPECIFIED.)
GEOMETRIC_REPRESENTATION_ITEM()
RATIONAL_B_SPLINE_SURFACE(((1.,1.),(0.5,0.5),(1.,1.),(0.5,0.5),(1.,1.),(0.5,0.5),(1.,1.)))
REPRESENTATION_ITEM('')
SURFACE()
);
#377=CARTESIAN_POINT('',(0.,6.,8.5));
#378=VERTEX_POINT('',#377);
#379=CARTESIAN_POINT('',(0.,6.,16.5));
#380=VERTEX_POINT('',#379);
#381=CARTESIAN_POINT('',(0.,6.,8.5));
#382=CARTESIAN_POINT('',(0.,6.,16.5));
#383=B_SPLINE_CURVE_WITH_KNOTS('',1,(#381,#382),.UNSPECIFIED.,.F.,.F.,(2,2),(0.,0.008),.UNSPECIFIED.);
#384=EDGE_CURVE('',#378,#380,#383,.T.);
#385=ORIENTED_EDGE('',*,*,#384,.T.);
#386=CARTESIAN_POINT('',(3.974104882,4.495162999,16.5));
#387=VERTEX_POINT('',#386);
#388=CARTESIAN_POINT('',(3.974104882,4.495162999,16.5));
#389=CARTESIAN_POINT('',(-0.521058116,8.469267881,16.5));
#390=CARTESIAN_POINT('',(-4.495162999,3.974104882,16.5));
#391=CARTESIAN_POINT('',(-8.469267881,-0.521058116,16.5));
#392=CARTESIAN_POINT('',(-3.974104882,-4.495162999,16.5));
#393=CARTESIAN_POINT('',(0.521058116,-8.469267881,16.5));
#394=CARTESIAN_POINT('',(4.495162999,-3.974104882,16.5));
#395=CARTESIAN_POINT('',(8.469267881,0.521058116,16.5));
#396=CARTESIAN_POINT('',(3.974104882,4.495162999,16.5));
#397=(BOUNDED_CURVE()
B_SPLINE_CURVE(2,(#388,#389,#390,#391,#392,#393,#394,#395,#396),.UNSPECIFIED.,.T.,.F.)
B_SPLINE_CURVE_WITH_KNOTS((3,2,2,2,3),(0.,1.570796327,3.141592654,4.71238898,6.283185307),.UNSPECIFIED.)
CURVE()
GEOMETRIC_REPRESENTATION_ITEM()
RATIONAL_B_SPLINE_CURVE((1.,0.707106781,1.,0.707106781,1.,0.707106781,1.,0.707106781,1.))
REPRESENTATION_ITEM(''));
#398=EDGE_CURVE('',#387,#380,#397,.T.);
#399=ORIENTED_EDGE('',*,*,#398,.F.);
#400=CARTESIAN_POINT('',(3.974104882,4.495162999,16.5));
#401=CARTESIAN_POINT('',(-0.521058116,8.469267881,16.5));
#402=CARTESIAN_POINT('',(-4.495162999,3.974104882,16.5));
#403=CARTESIAN_POINT('',(-8.469267881,-0.521058116,16.5));
#404=CARTESIAN_POINT('',(-3.974104882,-4.495162999,16.5));
#405=CARTESIAN_POINT('',(0.521058116,-8.469267881,16.5));
#406=CARTESIAN_POINT('',(4.495162999,-3.974104882,16.5));
#407=CARTESIAN_POINT('',(8.469267881,0.521058116,16.5));
#408=CARTESIAN_POINT('',(3.974104882,4.495162999,16.5));
#409=(BOUNDED_CURVE()
B_SPLINE_CURVE(2,(#400,#401,#402,#403,#404,#405,#406,#407,#408),.UNSPECIFIED.,.T.,.F.)
B_SPLINE_CURVE_WITH_KNOTS((3,2,2,2,3),(0.,1.570796327,3.141592654,4.71238898,6.283185307),.UNSPECIFIED.)
CURVE()
GEOMETRIC_REPRESENTATION_ITEM()
RATIONAL_B_SPLINE_CURVE((1.,0.707106781,1.,0.707106781,1.,0.707106781,1.,0.707106781,1.))
REPRESENTATION_ITEM(''));
#410=EDGE_CURVE('',#380,#387,#409,.T.);
#411=ORIENTED_EDGE('',*,*,#410,.F.);
#412=ORIENTED_EDGE('',*,*,#384,.F.);
#413=CARTESIAN_POINT('',(3.974104882,4.495162999,8.5));
#414=VERTEX_POINT('',#413);
#415=CARTESIAN_POINT('',(3.974104882,4.495162999,8.5));
#416=CARTESIAN_POINT('',(-0.521058116,8.469267881,8.5));
#417=CARTESIAN_POINT('',(-4.495162999,3.974104882,8.5));
#418=CARTESIAN_POINT('',(-8.469267881,-0.521058116,8.5));
#419=CARTESIAN_POINT('',(-3.974104882,-4.495162999,8.5));
#420=CARTESIAN_POINT('',(0.521058116,-8.469267881,8.5));
#421=CARTESIAN_POINT('',(4.495162999,-3.974104882,8.5));
#422=CARTESIAN_POINT('',(8.469267881,0.521058116,8.5));
#423=CARTESIAN_POINT('',(3.974104882,4.495162999,8.5));
#424=(BOUNDED_CURVE()
B_SPLINE_CURVE(2,(#415,#416,#417,#418,#419,#420,#421,#422,#423),.UNSPECIFIED.,.T.,.F.)
B_SPLINE_CURVE_WITH_KNOTS((3,2,2,2,3),(0.,1.570796327,3.141592654,4.71238898,6.283185307),.UNSPECIFIED.)
CURVE()
GEOMETRIC_REPRESENTATION_ITEM()
RATIONAL_B_SPLINE_CURVE((1.,0.707106781,1.,0.707106781,1.,0.707106781,1.,0.707106781,1.))
REPRESENTATION_ITEM(''));
#425=EDGE_CURVE('',#378,#414,#424,.T.);
#426=ORIENTED_EDGE('',*,*,#425,.T.);
#427=CARTESIAN_POINT('',(3.974104882,4.495162999,8.5));
#428=CARTESIAN_POINT('',(-0.521058116,8.469267881,8.5));
#429=CARTESIAN_POINT('',(-4.495162999,3.974104882,8.5));
#430=CARTESIAN_POINT('',(-8.469267881,-0.521058116,8.5));
#431=CARTESIAN_POINT('',(-3.974104882,-4.495162999,8.5));
#432=CARTESIAN_POINT('',(0.521058116,-8.469267881,8.5));
#433=CARTESIAN_POINT('',(4.495162999,-3.974104882,8.5));
#434=CARTESIAN_POINT('',(8.469267881,0.521058116,8.5));
#435=CARTESIAN_POINT('',(3.974104882,4.495162999,8.5));
#436=(BOUNDED_CURVE()
B_SPLINE_CURVE(2,(#427,#428,#429,#430,#431,#432,#433,#434,#435),.UNSPECIFIED.,.T.,.F.)
B_SPLINE_CURVE_WITH_KNOTS((3,2,2,2,3),(0.,1.570796327,3.141592654,4.71238898,6.283185307),.UNSPECIFIED.)
CURVE()
GEOMETRIC_REPRESENTATION_ITEM()
RATIONAL_B_SPLINE_CURVE((1.,0.707106781,1.,0.707106781,1.,0.707106781,1.,0.707106781,1.))
REPRESENTATION_ITEM(''));
#437=EDGE_CURVE('',#414,#378,#436,.T.);
#438=ORIENTED_EDGE('',*,*,#437,.T.);
#439=EDGE_LOOP('',(#385,#399,#411,#412,#426,#438));
#440=FACE_BOUND('',#439,.T.);
#441=CARTESIAN_POINT('',(0.,-6.,10.914029098));
#442=VERTEX_POINT('',#441);
#443=CARTESIAN_POINT('',(0.,-6.,10.914029098));
#444=CARTESIAN_POINT('',(-0.086157899,-6.,10.914029098));
#445=CARTESIAN_POINT('',(-0.170825906,-5.998146461,10.922509164));
#446=CARTESIAN_POINT('',(-0.254072572,-5.99461818,10.939098853));
#447=CARTESIAN_POINT('',(-0.337319238,-5.9910899,10.955688542));
#448=CARTESIAN_POINT('',(-0.4200243,-5.985800648,10.980808178));
#449=CARTESIAN_POINT('',(-0.498680276,-5.979240586,11.013480064));
#450=CARTESIAN_POINT('',(-0.577336252,-5.972680524,11.04615195));
#451=CARTESIAN_POINT('',(-0.651905742,-5.964903249,11.086100747));
#452=CARTESIAN_POINT('',(-0.72246524,-5.95634485,11.133268265));
#453=CARTESIAN_POINT('',(-0.793024737,-5.947786451,11.180435783));
#454=CARTESIAN_POINT('',(-0.859635762,-5.938407414,11.235167516));
#455=CARTESIAN_POINT('',(-0.919389632,-5.929141819,11.294941123));
#456=CARTESIAN_POINT('',(-1.03889737,-5.910610628,11.414488336));
#457=CARTESIAN_POINT('',(-1.135654218,-5.891916394,11.559098102));
#458=CARTESIAN_POINT('',(-1.200570355,-5.878658931,11.715400155));
#459=CARTESIAN_POINT('',(-1.233028424,-5.872030199,11.793551182));
#460=CARTESIAN_POINT('',(-1.25813067,-5.866634554,11.875743656));
#461=CARTESIAN_POINT('',(-1.274879823,-5.862992533,11.959703644));
#462=CARTESIAN_POINT('',(-1.291628976,-5.859350511,12.043663632));
#463=CARTESIAN_POINT('',(-1.299948189,-5.857485357,12.128179013));
#464=CARTESIAN_POINT('',(-1.299999761,-5.857473911,12.21324062));
#465=CARTESIAN_POINT('',(-1.300051333,-5.857462466,12.298302228));
#466=CARTESIAN_POINT('',(-1.291550385,-5.859367514,12.384734558));
#467=CARTESIAN_POINT('',(-1.274911168,-5.862985717,12.468197375));
#468=CARTESIAN_POINT('',(-1.258271951,-5.866603919,12.551660193));
#469=CARTESIAN_POINT('',(-1.233653031,-5.871900236,12.632819562));
#470=CARTESIAN_POINT('',(-1.200979346,-5.87857539,12.711672153));
#471=CARTESIAN_POINT('',(-1.135631976,-5.891925696,12.869377334));
#472=CARTESIAN_POINT('',(-1.040081443,-5.910426663,13.012381355));
#473=CARTESIAN_POINT('',(-0.919405939,-5.92913929,13.13310076));
#474=CARTESIAN_POINT('',(-0.859068186,-5.938495603,13.193460462));
#475=CARTESIAN_POINT('',(-0.793716523,-5.947690731,13.247067006));
#476=CARTESIAN_POINT('',(-0.723445174,-5.956225909,13.294134222));
#477=CARTESIAN_POINT('',(-0.653173826,-5.964761087,13.341201438));
#478=CARTESIAN_POINT('',(-0.57705237,-5.972706212,13.382035831));
#479=CARTESIAN_POINT('',(-0.498528113,-5.979253275,13.414641325));
#480=CARTESIAN_POINT('',(-0.420003856,-5.985800338,13.44724682));
#481=CARTESIAN_POINT('',(-0.338968567,-5.991001497,13.471950672));
#482=CARTESIAN_POINT('',(-0.255386519,-5.994562346,13.48869679));
#483=CARTESIAN_POINT('',(-0.171804471,-5.998123196,13.505442907));
#484=CARTESIAN_POINT('',(-0.08551241,-5.99999239,13.513993973));
#485=CARTESIAN_POINT('',(-0.000535656,-5.999999976,13.514028987));
#486=CARTESIAN_POINT('',(0.169417851,-6.000015149,13.514099015));
#487=CARTESIAN_POINT('',(0.3409847,-5.992362722,13.479907491));
#488=CARTESIAN_POINT('',(0.497547321,-5.979334968,13.415048108));
#489=CARTESIAN_POINT('',(0.575828632,-5.972821091,13.382618416));
#490=CARTESIAN_POINT('',(0.651802312,-5.964916324,13.342030753));
#491=CARTESIAN_POINT('',(0.722509153,-5.956339524,13.294760574));
#492=CARTESIAN_POINT('',(0.793215994,-5.947762723,13.247490395));
#493=CARTESIAN_POINT('',(0.858505017,-5.938573228,13.19390182));
#494=CARTESIAN_POINT('',(0.918476692,-5.92928331,13.134029405));
#495=CARTESIAN_POINT('',(0.978448367,-5.919993391,13.07415699));
#496=CARTESIAN_POINT('',(1.033219563,-5.910562251,13.007511631));
#497=CARTESIAN_POINT('',(1.080281167,-5.901948204,12.937211371));
#498=CARTESIAN_POINT('',(1.12734277,-5.893334157,12.866911112));
#499=CARTESIAN_POINT('',(1.167393163,-5.88543257,12.792388437));
#500=CARTESIAN_POINT('',(1.200232187,-5.878727983,12.713471483));
#501=CARTESIAN_POINT('',(1.265910236,-5.865318809,12.555637575));
#502=CARTESIAN_POINT('',(1.299888072,-5.857498699,12.386504246));
#503=CARTESIAN_POINT('',(1.299999725,-5.857473919,12.21487475));
#504=CARTESIAN_POINT('',(1.300055552,-5.857461529,12.129060001));
#505=CARTESIAN_POINT('',(1.291696297,-5.859335043,12.044488362));
#506=CARTESIAN_POINT('',(1.275161765,-5.862931218,11.961121066));
#507=CARTESIAN_POINT('',(1.258627233,-5.866527394,11.87775377));
#508=CARTESIAN_POINT('',(1.233482957,-5.87193514,11.794816629));
#509=CARTESIAN_POINT('',(1.200953104,-5.878580751,11.716322716));
#510=CARTESIAN_POINT('',(1.168423251,-5.885226362,11.637828802));
#511=CARTESIAN_POINT('',(1.128559764,-5.893102854,11.56318332));
#512=CARTESIAN_POINT('',(1.081301373,-5.901761376,11.492373127));
#513=CARTESIAN_POINT('',(1.034042983,-5.910419898,11.421562934));
#514=CARTESIAN_POINT('',(0.979580001,-5.919803166,11.355219144));
#515=CARTESIAN_POINT('',(0.919908676,-5.929061311,11.295460631));
#516=CARTESIAN_POINT('',(0.800566027,-5.947577601,11.175943605));
#517=CARTESIAN_POINT('',(0.656037023,-5.966090767,11.078993095));
#518=CARTESIAN_POINT('',(0.499662954,-5.979158547,11.013888717));
#519=CARTESIAN_POINT('',(0.42147592,-5.985692437,10.981336528));
#520=CARTESIAN_POINT('',(0.33887788,-5.991010522,10.956064151));
#521=CARTESIAN_POINT('',(0.255017467,-5.994578058,10.939287519));
#522=CARTESIAN_POINT('',(0.171157054,-5.998145593,10.922510887));
#523=CARTESIAN_POINT('',(0.086160723,-6.,10.914029098));
#524=CARTESIAN_POINT('',(0.,-6.,10.914029098));
#525=B_SPLINE_CURVE_WITH_KNOTS('',3,(#443,#444,#445,#446,#447,#448,#449,#450,#451,#452,#453,#454,#455,#456,#457,#458,#459,#460,#461,#462,#463,#464,#465,#466,#467,#468,
#469,#470,#471,#472,#473,#474,#475,#476,#477,#478,#479,#480,#481,#482,#483,#484,#485,#486,#487,#488,#489,#490,#491,#492,#493,
#494,#495,#496,#497,#498,#499,#500,#501,#502,#503,#504,#505,#506,#507,#508,#509,#510,#511,#512,#513,#514,#515,#516,#517,#518,
#519,#520,#521,#522,#523,#524),.UNSPECIFIED.,.T.,.F.,(4,3,3,3,3,3,3,3,3,3,3,3,3,3,3,3,3,3,3,3,3,3,3,3,3,3,
3,4),(0.,0.000254748,0.000509496,0.000764245,0.001018993,0.001528489,0.001783237,0.002037986,0.002292734,0.002547482,0.003056979,0.003311727,0.003566475,0.003821223,0.004075971,0.004585468,0.004840216,0.005094964,0.005349712,0.005604461,0.006113957,0.006368705,0.006623454,0.006878202,0.00713295,0.007642446,
0.007897195,0.008151943),.UNSPECIFIED.);
#526=EDGE_CURVE('',#442,#442,#525,.T.);
#527=ORIENTED_EDGE('',*,*,#526,.T.);
#528=EDGE_LOOP('',(#527));
#529=FACE_BOUND('',#528,.T.);
#530=ADVANCED_FACE('',(#440,#529),#376,.T.);
#531=CARTESIAN_POINT('',(-8.469267881,-8.469267881,16.5));
#532=CARTESIAN_POINT('',(-8.469267881,6.,16.5));
#533=CARTESIAN_POINT('',(8.469267881,-8.469267881,16.5));
#534=CARTESIAN_POINT('',(8.469267881,6.,16.5));
#535=B_SPLINE_SURFACE_WITH_KNOTS('',1,1,((#531,#532),(#533,#534)),.UNSPECIFIED.,.F.,.F.,.U.,(2,2),(2,2),(-0.008469268,0.008469268),(-0.008469268,0.006),.UNSPECIFIED.);
#536=ORIENTED_EDGE('',*,*,#216,.F.);
#537=ORIENTED_EDGE('',*,*,#228,.F.);
#538=EDGE_LOOP('',(#536,#537));
#539=FACE_BOUND('',#538,.T.);
#540=ORIENTED_EDGE('',*,*,#398,.T.);
#541=ORIENTED_EDGE('',*,*,#410,.T.);
#542=EDGE_LOOP('',(#540,#541));
#543=FACE_BOUND('',#542,.T.);
#544=ADVANCED_FACE('',(#539,#543),#535,.T.);
#545=CARTESIAN_POINT('',(-8.469267881,-8.469267881,8.5));
#546=CARTESIAN_POINT('',(-8.469267881,6.,8.5));
#547=CARTESIAN_POINT('',(8.469267881,-8.469267881,8.5));
#548=CARTESIAN_POINT('',(8.469267881,6.,8.5));
#549=B_SPLINE_SURFACE_WITH_KNOTS('',1,1,((#545,#546),(#547,#548)),.UNSPECIFIED.,.F.,.F.,.U.,(2,2),(2,2),(-0.008469268,0.008469268),(-0.008469268,0.006),.UNSPECIFIED.);
#550=ORIENTED_EDGE('',*,*,#345,.T.);
#551=ORIENTED_EDGE('',*,*,#357,.T.);
#552=EDGE_LOOP('',(#550,#551));
#553=FACE_BOUND('',#552,.T.);
#554=ORIENTED_EDGE('',*,*,#425,.F.);
#555=ORIENTED_EDGE('',*,*,#437,.F.);
#556=EDGE_LOOP('',(#554,#555));
#557=FACE_BOUND('',#556,.T.);
#558=ADVANCED_FACE('',(#553,#557),#549,.F.);
#559=CARTESIAN_POINT('',(0.,-0.145226029,10.914029098));
#560=CARTESIAN_POINT('',(0.,-6.000007562,10.914029098));
#561=CARTESIAN_POINT('',(2.25166605,-0.145226029,10.914029098));
#562=CARTESIAN_POINT('',(2.25166605,-6.000007562,10.914029098));
#563=CARTESIAN_POINT('',(1.125833025,-0.145226029,12.864029098));
#564=CARTESIAN_POINT('',(1.125833025,-6.000007562,12.864029098));
#565=CARTESIAN_POINT('',(0.,-0.145226029,14.814029098));
#566=CARTESIAN_POINT('',(0.,-6.000007562,14.814029098));
#567=CARTESIAN_POINT('',(-1.125833025,-0.145226029,12.864029098));
#568=CARTESIAN_POINT('',(-1.125833025,-6.000007562,12.864029098));
#569=CARTESIAN_POINT('',(-2.25166605,-0.145226029,10.914029098));
#570=CARTESIAN_POINT('',(-2.25166605,-6.000007562,10.914029098));
#571=CARTESIAN_POINT('',(-0.,-0.145226029,10.914029098));
#572=CARTESIAN_POINT('',(-0.,-6.000007562,10.914029098));
#573=(BOUNDED_SURFACE()
B_SPLINE_SURFACE(2,1,((#559,#560),(#561,#562),(#563,#564),(#565,#566),(#567,#568),(#569,#570),(#571,#572)),.UNSPECIFIED.,.T.,.F.,.U.)
B_SPLINE_SURFACE_WITH_KNOTS((3,2,2,3),(2,2),(0.,2.094395102,4.188790205,6.283185307),(-0.,0.005854782),.UNSPECIFIED.)
GEOMETRIC_REPRESENTATION_ITEM()
RATIONAL_B_SPLINE_SURFACE(((1.,1.),(0.5,0.5),(1.,1.),(0.5,0.5),(1.,1.),(0.5,0.5),(1.,1.)))
REPRESENTATION_ITEM('')
SURFACE()
);
#574=CARTESIAN_POINT('',(0.,-6.,10.914029098));
#575=CARTESIAN_POINT('',(0.,-1.049999957,10.914029098));
#576=B_SPLINE_CURVE_WITH_KNOTS('',1,(#574,#575),.UNSPECIFIED.,.F.,.F.,(2,2),(-0.000016123,0.004933877),.UNSPECIFIED.);
#577=EDGE_CURVE('',#442,#86,#576,.T.);
#578=ORIENTED_EDGE('',*,*,#577,.F.);
#579=ORIENTED_EDGE('',*,*,#526,.F.);
#580=ORIENTED_EDGE('',*,*,#577,.T.);
#581=ORIENTED_EDGE('',*,*,#330,.F.);
#582=CARTESIAN_POINT('',(-1.039908362,-0.145226029,12.994151267));
#583=CARTESIAN_POINT('',(-1.625143198,-0.145226029,12.214029098));
#584=CARTESIAN_POINT('',(-1.039908362,-0.145226029,11.433906928));
#585=(BOUNDED_CURVE()
B_SPLINE_CURVE(2,(#582,#583,#584),.UNSPECIFIED.,.F.,.F.)
B_SPLINE_CURVE_WITH_KNOTS((3,3),(1.835959812,3.123196981),.UNSPECIFIED.)
CURVE()
GEOMETRIC_REPRESENTATION_ITEM()
RATIONAL_B_SPLINE_CURVE((1.,0.799929509,1.))
REPRESENTATION_ITEM(''));
#586=EDGE_CURVE('',#232,#280,#585,.T.);
#587=ORIENTED_EDGE('',*,*,#586,.F.);
#588=ORIENTED_EDGE('',*,*,#277,.F.);
#589=ORIENTED_EDGE('',*,*,#195,.F.);
#590=CARTESIAN_POINT('',(1.039908362,-0.145226029,11.433906928));
#591=CARTESIAN_POINT('',(1.625143198,-0.145226029,12.214029098));
#592=CARTESIAN_POINT('',(1.039908362,-0.145226029,12.994151267));
#593=(BOUNDED_CURVE()
B_SPLINE_CURVE(2,(#590,#591,#592),.UNSPECIFIED.,.F.,.F.)
B_SPLINE_CURVE_WITH_KNOTS((3,3),(4.977552465,6.264789635),.UNSPECIFIED.)
CURVE()
GEOMETRIC_REPRESENTATION_ITEM()
RATIONAL_B_SPLINE_CURVE((1.,0.799929509,1.))
REPRESENTATION_ITEM(''));
#594=EDGE_CURVE('',#95,#143,#593,.T.);
#595=ORIENTED_EDGE('',*,*,#594,.F.);
#596=ORIENTED_EDGE('',*,*,#140,.F.);
#597=EDGE_LOOP('',(#578,#579,#580,#581,#587,#588,#589,#595,#596));
#598=FACE_BOUND('',#597,.T.);
#599=ADVANCED_FACE('',(#598),#573,.F.);
#600=CARTESIAN_POINT('',(1.039908362,-0.145226029,12.994151267));
#601=CARTESIAN_POINT('',(1.625143198,-0.145226029,12.994151267));
#602=CARTESIAN_POINT('',(1.039908362,-0.145226029,11.433906928));
#603=CARTESIAN_POINT('',(1.625143198,-0.145226029,11.433906928));
#604=B_SPLINE_SURFACE_WITH_KNOTS('',1,1,((#600,#601),(#602,#603)),.UNSPECIFIED.,.F.,.F.,.U.,(2,2),(2,2),(0.001116577,0.002676822),(0.001039908,0.001625143),.UNSPECIFIED.);
#605=ORIENTED_EDGE('',*,*,#147,.T.);
#606=ORIENTED_EDGE('',*,*,#594,.T.);
#607=EDGE_LOOP('',(#605,#606));
#608=FACE_BOUND('',#607,.T.);
#609=ADVANCED_FACE('',(#608),#604,.T.);
#610=CARTESIAN_POINT('',(-1.625143198,-0.145226029,12.994151267));
#611=CARTESIAN_POINT('',(-1.039908362,-0.145226029,12.994151267));
#612=CARTESIAN_POINT('',(-1.625143198,-0.145226029,11.433906928));
#613=CARTESIAN_POINT('',(-1.039908362,-0.145226029,11.433906928));
#614=B_SPLINE_SURFACE_WITH_KNOTS('',1,1,((#610,#611),(#612,#613)),.UNSPECIFIED.,.F.,.F.,.U.,(2,2),(2,2),(0.001116577,0.002676822),(-0.001625143,-0.001039908),.UNSPECIFIED.);
#615=ORIENTED_EDGE('',*,*,#284,.T.);
#616=ORIENTED_EDGE('',*,*,#586,.T.);
#617=EDGE_LOOP('',(#615,#616));
#618=FACE_BOUND('',#617,.T.);
#619=ADVANCED_FACE('',(#618),#614,.T.);
#620=CLOSED_SHELL('',(#361,#530,#544,#558,#599,#609,#619));
#621=MANIFOLD_SOLID_BREP('Extruded.002',#620);
#69=STYLED_ITEM('',(),#621);
#622=CARTESIAN_POINT('',(3.974104882,4.495162999,8.5));
#623=CARTESIAN_POINT('',(2.405001637,5.882383188,8.5));
#624=CARTESIAN_POINT('',(0.291101436,6.653453023,8.5));
#625=CARTESIAN_POINT('',(-2.090866369,6.563674918,8.5));
#626=CARTESIAN_POINT('',(-4.336928008,5.514079207,8.5));
#627=CARTESIAN_POINT('',(-6.004126395,3.628288891,8.5));
#628=CARTESIAN_POINT('',(-6.770477838,1.270504017,8.5));
#629=CARTESIAN_POINT('',(-6.567590581,-1.104504929,8.5));
#630=CARTESIAN_POINT('',(-5.543208127,-3.107942809,8.5));
#631=CARTESIAN_POINT('',(-3.974104882,-4.495162999,8.5));
#632=CARTESIAN_POINT('',(-2.405001637,-5.882383188,8.5));
#633=CARTESIAN_POINT('',(-0.291101436,-6.653453023,8.5));
#634=CARTESIAN_POINT('',(2.090866369,-6.563674918,8.5));
#635=CARTESIAN_POINT('',(4.336928008,-5.514079207,8.5));
#636=CARTESIAN_POINT('',(6.004126395,-3.628288891,8.5));
#637=CARTESIAN_POINT('',(6.770477838,-1.270504017,8.5));
#638=CARTESIAN_POINT('',(6.567590581,1.104504929,8.5));
#639=CARTESIAN_POINT('',(5.543208127,3.107942809,8.5));
#640=CARTESIAN_POINT('',(3.974104882,4.495162999,8.5));
#641=B_SPLINE_CURVE_WITH_KNOTS('Circle.001',9,(#622,#623,#624,#625,#626,#627,#628,#629,#630,#631,#632,#633,#634,#635,#636,#637,#638,#639,#640),.UNSPECIFIED.,.T.,.F.,(10,9,10),(0.,3.141592654,6.283185307),.UNSPECIFIED.);
#643=CARTESIAN_POINT('',(0.,15.,-6.324555231));
#644=CARTESIAN_POINT('',(0.,15.,-8.5));
#645=CARTESIAN_POINT('',(25.980762114,15.,-6.324555231));
#646=CARTESIAN_POINT('',(25.980762114,15.,-8.5));
#647=CARTESIAN_POINT('',(12.990381057,-7.5,-6.324555231));
#648=CARTESIAN_POINT('',(12.990381057,-7.5,-8.5));
#649=CARTESIAN_POINT('',(0.,-30.,-6.324555231));
#650=CARTESIAN_POINT('',(0.,-30.,-8.5));
#651=CARTESIAN_POINT('',(-12.990381057,-7.5,-6.324555231));
#652=CARTESIAN_POINT('',(-12.990381057,-7.5,-8.5));
#653=CARTESIAN_POINT('',(-25.980762114,15.,-6.324555231));
#654=CARTESIAN_POINT('',(-25.980762114,15.,-8.5));
#655=CARTESIAN_POINT('',(-0.,15.,-6.324555231));
#656=CARTESIAN_POINT('',(-0.,15.,-8.5));
#657=(BOUNDED_SURFACE()
B_SPLINE_SURFACE(2,1,((#643,#644),(#645,#646),(#647,#648),(#649,#650),(#651,#652),(#653,#654),(#655,#656)),.UNSPECIFIED.,.T.,.F.,.U.)
B_SPLINE_SURFACE_WITH_KNOTS((3,2,2,3),(2,2),(0.,2.094395102,4.188790205,6.283185307),(0.014824555,0.017),.UNSPECIFIED.)
GEOMETRIC_REPRESENTATION_ITEM()
RATIONAL_B_SPLINE_SURFACE(((1.,1.),(0.5,0.5),(1.,1.),(0.5,0.5),(1.,1.),(0.5,0.5),(1.,1.)))
REPRESENTATION_ITEM('')
SURFACE()
);
#658=CARTESIAN_POINT('',(0.,15.,-8.5));
#659=VERTEX_POINT('',#658);
#660=CARTESIAN_POINT('',(0.,15.,-6.324555231));
#661=VERTEX_POINT('',#660);
#662=CARTESIAN_POINT('',(0.,15.,-8.5));
#663=CARTESIAN_POINT('',(0.,15.,-6.324555231));
#664=B_SPLINE_CURVE_WITH_KNOTS('',1,(#662,#663),.UNSPECIFIED.,.F.,.F.,(2,2),(0.,0.002175445),.UNSPECIFIED.);
#665=EDGE_CURVE('',#659,#661,#664,.T.);
#666=ORIENTED_EDGE('',*,*,#665,.T.);
#667=CARTESIAN_POINT('',(-15.,0.,-6.324555231));
#668=VERTEX_POINT('',#667);
#669=CARTESIAN_POINT('',(-15.,0.,-6.324555231));
#670=CARTESIAN_POINT('',(-15.,15.,-6.324555231));
#671=CARTESIAN_POINT('',(0.,15.,-6.324555231));
#672=CARTESIAN_POINT('',(15.,15.,-6.324555231));
#673=CARTESIAN_POINT('',(15.,-0.,-6.324555231));
#674=CARTESIAN_POINT('',(15.,-15.,-6.324555231));
#675=CARTESIAN_POINT('',(-0.,-15.,-6.324555231));
#676=CARTESIAN_POINT('',(-15.,-15.,-6.324555231));
#677=CARTESIAN_POINT('',(-15.,0.,-6.324555231));
#678=(BOUNDED_CURVE()
B_SPLINE_CURVE(2,(#669,#670,#671,#672,#673,#674,#675,#676,#677),.UNSPECIFIED.,.T.,.F.)
B_SPLINE_CURVE_WITH_KNOTS((3,2,2,2,3),(3.141592654,4.71238898,6.283185307,7.853981634,9.424777961),.UNSPECIFIED.)
CURVE()
GEOMETRIC_REPRESENTATION_ITEM()
RATIONAL_B_SPLINE_CURVE((1.,0.707106781,1.,0.707106781,1.,0.707106781,1.,0.707106781,1.))
REPRESENTATION_ITEM(''));
#679=EDGE_CURVE('',#661,#668,#678,.T.);
#680=ORIENTED_EDGE('',*,*,#679,.T.);
#681=CARTESIAN_POINT('',(-15.,0.,-6.324555231));
#682=CARTESIAN_POINT('',(-15.,15.,-6.324555231));
#683=CARTESIAN_POINT('',(0.,15.,-6.324555231));
#684=CARTESIAN_POINT('',(15.,15.,-6.324555231));
#685=CARTESIAN_POINT('',(15.,-0.,-6.324555231));
#686=CARTESIAN_POINT('',(15.,-15.,-6.324555231));
#687=CARTESIAN_POINT('',(-0.,-15.,-6.324555231));
#688=CARTESIAN_POINT('',(-15.,-15.,-6.324555231));
#689=CARTESIAN_POINT('',(-15.,0.,-6.324555231));
#690=(BOUNDED_CURVE()
B_SPLINE_CURVE(2,(#681,#682,#683,#684,#685,#686,#687,#688,#689),.UNSPECIFIED.,.T.,.F.)
B_SPLINE_CURVE_WITH_KNOTS((3,2,2,2,3),(3.141592654,4.71238898,6.283185307,7.853981634,9.424777961),.UNSPECIFIED.)
CURVE()
GEOMETRIC_REPRESENTATION_ITEM()
RATIONAL_B_SPLINE_CURVE((1.,0.707106781,1.,0.707106781,1.,0.707106781,1.,0.707106781,1.))
REPRESENTATION_ITEM(''));
#691=EDGE_CURVE('',#668,#661,#690,.T.);
#692=ORIENTED_EDGE('',*,*,#691,.T.);
#693=ORIENTED_EDGE('',*,*,#665,.F.);
#694=CARTESIAN_POINT('',(12.473394537,8.331532195,-8.5));
#695=VERTEX_POINT('',#694);
#696=CARTESIAN_POINT('',(12.473394537,8.331532195,-8.5));
#697=CARTESIAN_POINT('',(4.141862342,20.804926732,-8.5));
#698=CARTESIAN_POINT('',(-8.331532195,12.473394537,-8.5));
#699=CARTESIAN_POINT('',(-20.804926732,4.141862342,-8.5));
#700=CARTESIAN_POINT('',(-12.473394537,-8.331532195,-8.5));
#701=CARTESIAN_POINT('',(-4.141862342,-20.804926732,-8.5));
#702=CARTESIAN_POINT('',(8.331532195,-12.473394537,-8.5));
#703=CARTESIAN_POINT('',(20.804926732,-4.141862342,-8.5));
#704=CARTESIAN_POINT('',(12.473394537,8.331532195,-8.5));
#705=(BOUNDED_CURVE()
B_SPLINE_CURVE(2,(#696,#697,#698,#699,#700,#701,#702,#703,#704),.UNSPECIFIED.,.T.,.F.)
B_SPLINE_CURVE_WITH_KNOTS((3,2,2,2,3),(0.,1.570796327,3.141592654,4.71238898,6.283185307),.UNSPECIFIED.)
CURVE()
GEOMETRIC_REPRESENTATION_ITEM()
RATIONAL_B_SPLINE_CURVE((1.,0.707106781,1.,0.707106781,1.,0.707106781,1.,0.707106781,1.))
REPRESENTATION_ITEM(''));
#706=EDGE_CURVE('',#659,#695,#705,.T.);
#707=ORIENTED_EDGE('',*,*,#706,.T.);
#708=CARTESIAN_POINT('',(12.473394537,8.331532195,-8.5));
#709=CARTESIAN_POINT('',(4.141862342,20.804926732,-8.5));
#710=CARTESIAN_POINT('',(-8.331532195,12.473394537,-8.5));
#711=CARTESIAN_POINT('',(-20.804926732,4.141862342,-8.5));
#712=CARTESIAN_POINT('',(-12.473394537,-8.331532195,-8.5));
#713=CARTESIAN_POINT('',(-4.141862342,-20.804926732,-8.5));
#714=CARTESIAN_POINT('',(8.331532195,-12.473394537,-8.5));
#715=CARTESIAN_POINT('',(20.804926732,-4.141862342,-8.5));
#716=CARTESIAN_POINT('',(12.473394537,8.331532195,-8.5));
#717=(BOUNDED_CURVE()
B_SPLINE_CURVE(2,(#708,#709,#710,#711,#712,#713,#714,#715,#716),.UNSPECIFIED.,.T.,.F.)
B_SPLINE_CURVE_WITH_KNOTS((3,2,2,2,3),(0.,1.570796327,3.141592654,4.71238898,6.283185307),.UNSPECIFIED.)
CURVE()
GEOMETRIC_REPRESENTATION_ITEM()
RATIONAL_B_SPLINE_CURVE((1.,0.707106781,1.,0.707106781,1.,0.707106781,1.,0.707106781,1.))
REPRESENTATION_ITEM(''));
#718=EDGE_CURVE('',#695,#659,#717,.T.);
#719=ORIENTED_EDGE('',*,*,#718,.T.);
#720=EDGE_LOOP('',(#666,#680,#692,#693,#707,#719));
#721=FACE_BOUND('',#720,.T.);
#722=ADVANCED_FACE('',(#721),#657,.T.);
#723=CARTESIAN_POINT('',(-20.804926732,-20.804926732,-8.5));
#724=CARTESIAN_POINT('',(-20.804926732,15.,-8.5));
#725=CARTESIAN_POINT('',(20.804926732,-20.804926732,-8.5));
#726=CARTESIAN_POINT('',(20.804926732,15.,-8.5));
#727=B_SPLINE_SURFACE_WITH_KNOTS('',1,1,((#723,#724),(#725,#726)),.UNSPECIFIED.,.F.,.F.,.U.,(2,2),(2,2),(-0.020804927,0.020804927),(-0.020804927,0.015),.UNSPECIFIED.);
#728=ORIENTED_EDGE('',*,*,#706,.F.);
#729=ORIENTED_EDGE('',*,*,#718,.F.);
#730=EDGE_LOOP('',(#728,#729));
#731=FACE_BOUND('',#730,.T.);
#732=ADVANCED_FACE('',(#731),#727,.F.);
#733=CARTESIAN_POINT('',(-15.,0.,-6.324555231));
#734=CARTESIAN_POINT('',(-15.,-30.,-6.324555231));
#735=CARTESIAN_POINT('',(15.,-30.,-6.324555231));
#736=CARTESIAN_POINT('',(15.,-0.,-6.324555231));
#737=CARTESIAN_POINT('',(15.,30.,-6.324555231));
#738=CARTESIAN_POINT('',(-15.,30.,-6.324555231));
#739=CARTESIAN_POINT('',(-15.,0.,-6.324555231));
#740=CARTESIAN_POINT('',(-14.986721443,0.,-6.321405944));
#741=CARTESIAN_POINT('',(-14.986721443,-29.973442885,-6.321405944));
#742=CARTESIAN_POINT('',(14.986721443,-29.973442885,-6.321405944));
#743=CARTESIAN_POINT('',(14.986721443,-0.,-6.321405944));
#744=CARTESIAN_POINT('',(14.986721443,29.973442885,-6.321405944));
#745=CARTESIAN_POINT('',(-14.986721443,29.973442885,-6.321405944));
#746=CARTESIAN_POINT('',(-14.986721443,0.,-6.321405944));
#747=CARTESIAN_POINT('',(-14.973466714,0.,-6.318218138));
#748=CARTESIAN_POINT('',(-14.973466714,-29.946933428,-6.318218138));
#749=CARTESIAN_POINT('',(14.973466714,-29.946933428,-6.318218138));
#750=CARTESIAN_POINT('',(14.973466714,-0.,-6.318218138));
#751=CARTESIAN_POINT('',(14.973466714,29.946933428,-6.318218138));
#752=CARTESIAN_POINT('',(-14.973466714,29.946933428,-6.318218138));
#753=CARTESIAN_POINT('',(-14.973466714,0.,-6.318218138));
#754=CARTESIAN_POINT('',(-14.960235926,0.,-6.314992117));
#755=CARTESIAN_POINT('',(-14.960235926,-29.920471851,-6.314992117));
#756=CARTESIAN_POINT('',(14.960235926,-29.920471851,-6.314992117));
#757=CARTESIAN_POINT('',(14.960235926,-0.,-6.314992117));
#758=CARTESIAN_POINT('',(14.960235926,29.920471851,-6.314992117));
#759=CARTESIAN_POINT('',(-14.960235926,29.920471851,-6.314992117));
#760=CARTESIAN_POINT('',(-14.960235926,0.,-6.314992117));
#761=CARTESIAN_POINT('',(-7.623573203,0.,-4.526116971));
#762=CARTESIAN_POINT('',(-7.623573203,-15.247146406,-4.526116971));
#763=CARTESIAN_POINT('',(7.623573203,-15.247146406,-4.526116971));
#764=CARTESIAN_POINT('',(7.623573203,-0.,-4.526116971));
#765=CARTESIAN_POINT('',(7.623573203,15.247146406,-4.526116971));
#766=CARTESIAN_POINT('',(-7.623573203,15.247146406,-4.526116971));
#767=CARTESIAN_POINT('',(-7.623573203,0.,-4.526116971));
#768=CARTESIAN_POINT('',(-5.516108776,-0.,4.075252334));
#769=CARTESIAN_POINT('',(-5.516108776,-11.032217552,4.075252334));
#770=CARTESIAN_POINT('',(5.516108776,-11.032217552,4.075252334));
#771=CARTESIAN_POINT('',(5.516108776,0.,4.075252334));
#772=CARTESIAN_POINT('',(5.516108776,11.032217552,4.075252334));
#773=CARTESIAN_POINT('',(-5.516108776,11.032217552,4.075252334));
#774=CARTESIAN_POINT('',(-5.516108776,-0.,4.075252334));
#775=CARTESIAN_POINT('',(-15.,-0.,6.324555231));
#776=CARTESIAN_POINT('',(-15.,-30.,6.324555231));
#777=CARTESIAN_POINT('',(15.,-30.,6.324555231));
#778=CARTESIAN_POINT('',(15.,0.,6.324555231));
#779=CARTESIAN_POINT('',(15.,30.,6.324555231));
#780=CARTESIAN_POINT('',(-15.,30.,6.324555231));
#781=CARTESIAN_POINT('',(-15.,-0.,6.324555231));
#782=(BOUNDED_SURFACE()
B_SPLINE_SURFACE(3,3,((#733,#734,#735,#736,#737,#738,#739),(#740,#741,#742,#743,#744,#745,#746),(#747,#748,#749,#750,#751,#752,#753),(#754,#755,#756,#757,#758,#759,#760),(#761,#762,#763,#764,#765,#766,#767),(#768,#769,#770,#771,#772,#773,#774),(#775,#776,#777,#778,#779,#780,#781)),.UNSPECIFIED.,.F.,.T.,.U.)
B_SPLINE_SURFACE_WITH_KNOTS((4,3,4),(4,3,4),(0.498431931,0.5,0.903064471),(0.,0.5,1.),.UNSPECIFIED.)
GEOMETRIC_REPRESENTATION_ITEM()
RATIONAL_B_SPLINE_SURFACE(((0.993747394,0.331249131,0.331249131,0.993747394,0.331249131,0.331249131,0.993747394),(0.995825039,0.33194168,0.33194168,0.995825039,0.33194168,0.33194168,0.995825039),(0.997909241,0.332636414,0.332636414,0.997909241,0.332636414,0.332636414,0.997909241),(1.,0.333333333,0.333333333,1.,0.333333333,0.333333333,1.),(0.462580705,0.154193568,0.154193568,0.462580705,0.154193568,0.154193568,0.462580705),(0.358390658,0.119463553,0.119463553,0.358390658,0.119463553,0.119463553,0.358390658),(0.687429859,0.229143286,0.229143286,0.687429859,0.229143286,0.229143286,0.687429859)))
REPRESENTATION_ITEM('')
SURFACE()
);
#783=CARTESIAN_POINT('',(-15.,-0.,6.324555231));
#784=VERTEX_POINT('',#783);
#785=CARTESIAN_POINT('',(-15.,0.,-6.324555231));
#786=CARTESIAN_POINT('',(-10.000000376,0.,-5.138700884));
#787=CARTESIAN_POINT('',(-10.000000376,-0.,0.));
#788=CARTESIAN_POINT('',(-10.000000376,-0.,5.138700884));
#789=CARTESIAN_POINT('',(-15.,-0.,6.324555231));
#790=(BOUNDED_CURVE()
B_SPLINE_CURVE(2,(#785,#786,#787,#788,#789),.UNSPECIFIED.,.F.,.F.)
B_SPLINE_CURVE_WITH_KNOTS((3,2,3),(0.472028464,1.809956553,3.147884642),.UNSPECIFIED.)
CURVE()
GEOMETRIC_REPRESENTATION_ITEM()
RATIONAL_B_SPLINE_CURVE((1.,0.784464559,1.,0.784464559,1.))
REPRESENTATION_ITEM(''));
#791=EDGE_CURVE('',#668,#784,#790,.T.);
#792=ORIENTED_EDGE('',*,*,#791,.T.);
#793=CARTESIAN_POINT('',(0.,15.,6.324555231));
#794=VERTEX_POINT('',#793);
#795=CARTESIAN_POINT('',(-15.,0.,6.324555231));
#796=CARTESIAN_POINT('',(-15.,-15.,6.324555231));
#797=CARTESIAN_POINT('',(-0.,-15.,6.324555231));
#798=CARTESIAN_POINT('',(15.,-15.,6.324555231));
#799=CARTESIAN_POINT('',(15.,-0.,6.324555231));
#800=CARTESIAN_POINT('',(15.,15.,6.324555231));
#801=CARTESIAN_POINT('',(0.,15.,6.324555231));
#802=CARTESIAN_POINT('',(-15.,15.,6.324555231));
#803=CARTESIAN_POINT('',(-15.,0.,6.324555231));
#804=(BOUNDED_CURVE()
B_SPLINE_CURVE(2,(#795,#796,#797,#798,#799,#800,#801,#802,#803),.UNSPECIFIED.,.T.,.F.)
B_SPLINE_CURVE_WITH_KNOTS((3,2,2,2,3),(3.141592654,4.71238898,6.283185307,7.853981634,9.424777961),.UNSPECIFIED.)
CURVE()
GEOMETRIC_REPRESENTATION_ITEM()
RATIONAL_B_SPLINE_CURVE((1.,0.707106781,1.,0.707106781,1.,0.707106781,1.,0.707106781,1.))
REPRESENTATION_ITEM(''));
#805=EDGE_CURVE('',#794,#784,#804,.T.);
#806=ORIENTED_EDGE('',*,*,#805,.F.);
#807=CARTESIAN_POINT('',(-15.,0.,6.324555231));
#808=CARTESIAN_POINT('',(-15.,-15.,6.324555231));
#809=CARTESIAN_POINT('',(-0.,-15.,6.324555231));
#810=CARTESIAN_POINT('',(15.,-15.,6.324555231));
#811=CARTESIAN_POINT('',(15.,-0.,6.324555231));
#812=CARTESIAN_POINT('',(15.,15.,6.324555231));
#813=CARTESIAN_POINT('',(0.,15.,6.324555231));
#814=CARTESIAN_POINT('',(-15.,15.,6.324555231));
#815=CARTESIAN_POINT('',(-15.,0.,6.324555231));
#816=(BOUNDED_CURVE()
B_SPLINE_CURVE(2,(#807,#808,#809,#810,#811,#812,#813,#814,#815),.UNSPECIFIED.,.T.,.F.)
B_SPLINE_CURVE_WITH_KNOTS((3,2,2,2,3),(3.141592654,4.71238898,6.283185307,7.853981634,9.424777961),.UNSPECIFIED.)
CURVE()
GEOMETRIC_REPRESENTATION_ITEM()
RATIONAL_B_SPLINE_CURVE((1.,0.707106781,1.,0.707106781,1.,0.707106781,1.,0.707106781,1.))
REPRESENTATION_ITEM(''));
#817=EDGE_CURVE('',#784,#794,#816,.T.);
#818=ORIENTED_EDGE('',*,*,#817,.F.);
#819=ORIENTED_EDGE('',*,*,#791,.F.);
#820=ORIENTED_EDGE('',*,*,#679,.F.);
#821=ORIENTED_EDGE('',*,*,#691,.F.);
#822=EDGE_LOOP('',(#792,#806,#818,#819,#820,#821));
#823=FACE_BOUND('',#822,.T.);
#824=ADVANCED_FACE('',(#823),#782,.F.);
#825=CARTESIAN_POINT('',(-20.804926732,-20.804926732,8.5));
#826=CARTESIAN_POINT('',(-20.804926732,15.,8.5));
#827=CARTESIAN_POINT('',(20.804926732,-20.804926732,8.5));
#828=CARTESIAN_POINT('',(20.804926732,15.,8.5));
#829=B_SPLINE_SURFACE_WITH_KNOTS('',1,1,((#825,#826),(#827,#828)),.UNSPECIFIED.,.F.,.F.,.U.,(2,2),(2,2),(-0.020804927,0.020804927),(-0.020804927,0.015),.UNSPECIFIED.);
#830=CARTESIAN_POINT('',(12.473394537,8.331532195,8.5));
#831=VERTEX_POINT('',#830);
#832=CARTESIAN_POINT('',(0.,15.,8.5));
#833=VERTEX_POINT('',#832);
#834=CARTESIAN_POINT('',(12.473394537,8.331532195,8.5));
#835=CARTESIAN_POINT('',(4.141862342,20.804926732,8.5));
#836=CARTESIAN_POINT('',(-8.331532195,12.473394537,8.5));
#837=CARTESIAN_POINT('',(-20.804926732,4.141862342,8.5));
#838=CARTESIAN_POINT('',(-12.473394537,-8.331532195,8.5));
#839=CARTESIAN_POINT('',(-4.141862342,-20.804926732,8.5));
#840=CARTESIAN_POINT('',(8.331532195,-12.473394537,8.5));
#841=CARTESIAN_POINT('',(20.804926732,-4.141862342,8.5));
#842=CARTESIAN_POINT('',(12.473394537,8.331532195,8.5));
#843=(BOUNDED_CURVE()
B_SPLINE_CURVE(2,(#834,#835,#836,#837,#838,#839,#840,#841,#842),.UNSPECIFIED.,.T.,.F.)
B_SPLINE_CURVE_WITH_KNOTS((3,2,2,2,3),(0.,1.570796327,3.141592654,4.71238898,6.283185307),.UNSPECIFIED.)
CURVE()
GEOMETRIC_REPRESENTATION_ITEM()
RATIONAL_B_SPLINE_CURVE((1.,0.707106781,1.,0.707106781,1.,0.707106781,1.,0.707106781,1.))
REPRESENTATION_ITEM(''));
#844=EDGE_CURVE('',#831,#833,#843,.T.);
#845=ORIENTED_EDGE('',*,*,#844,.T.);
#846=CARTESIAN_POINT('',(12.473394537,8.331532195,8.5));
#847=CARTESIAN_POINT('',(4.141862342,20.804926732,8.5));
#848=CARTESIAN_POINT('',(-8.331532195,12.473394537,8.5));
#849=CARTESIAN_POINT('',(-20.804926732,4.141862342,8.5));
#850=CARTESIAN_POINT('',(-12.473394537,-8.331532195,8.5));
#851=CARTESIAN_POINT('',(-4.141862342,-20.804926732,8.5));
#852=CARTESIAN_POINT('',(8.331532195,-12.473394537,8.5));
#853=CARTESIAN_POINT('',(20.804926732,-4.141862342,8.5));
#854=CARTESIAN_POINT('',(12.473394537,8.331532195,8.5));
#855=(BOUNDED_CURVE()
B_SPLINE_CURVE(2,(#846,#847,#848,#849,#850,#851,#852,#853,#854),.UNSPECIFIED.,.T.,.F.)
B_SPLINE_CURVE_WITH_KNOTS((3,2,2,2,3),(0.,1.570796327,3.141592654,4.71238898,6.283185307),.UNSPECIFIED.)
CURVE()
GEOMETRIC_REPRESENTATION_ITEM()
RATIONAL_B_SPLINE_CURVE((1.,0.707106781,1.,0.707106781,1.,0.707106781,1.,0.707106781,1.))
REPRESENTATION_ITEM(''));
#856=EDGE_CURVE('',#833,#831,#855,.T.);
#857=ORIENTED_EDGE('',*,*,#856,.T.);
#858=EDGE_LOOP('',(#845,#857));
#859=FACE_BOUND('',#858,.T.);
#860=ADVANCED_FACE('',(#859),#829,.T.);
#861=CARTESIAN_POINT('',(0.,15.,8.5));
#862=CARTESIAN_POINT('',(0.,15.,6.324555231));
#863=CARTESIAN_POINT('',(25.980762114,15.,8.5));
#864=CARTESIAN_POINT('',(25.980762114,15.,6.324555231));
#865=CARTESIAN_POINT('',(12.990381057,-7.5,8.5));
#866=CARTESIAN_POINT('',(12.990381057,-7.5,6.324555231));
#867=CARTESIAN_POINT('',(0.,-30.,8.5));
#868=CARTESIAN_POINT('',(0.,-30.,6.324555231));
#869=CARTESIAN_POINT('',(-12.990381057,-7.5,8.5));
#870=CARTESIAN_POINT('',(-12.990381057,-7.5,6.324555231));
#871=CARTESIAN_POINT('',(-25.980762114,15.,8.5));
#872=CARTESIAN_POINT('',(-25.980762114,15.,6.324555231));
#873=CARTESIAN_POINT('',(-0.,15.,8.5));
#874=CARTESIAN_POINT('',(-0.,15.,6.324555231));
#875=(BOUNDED_SURFACE()
B_SPLINE_SURFACE(2,1,((#861,#862),(#863,#864),(#865,#866),(#867,#868),(#869,#870),(#871,#872),(#873,#874)),.UNSPECIFIED.,.T.,.F.,.U.)
B_SPLINE_SURFACE_WITH_KNOTS((3,2,2,3),(2,2),(0.,2.094395102,4.188790205,6.283185307),(-0.,0.002175445),.UNSPECIFIED.)
GEOMETRIC_REPRESENTATION_ITEM()
RATIONAL_B_SPLINE_SURFACE(((1.,1.),(0.5,0.5),(1.,1.),(0.5,0.5),(1.,1.),(0.5,0.5),(1.,1.)))
REPRESENTATION_ITEM('')
SURFACE()
);
#876=CARTESIAN_POINT('',(0.,15.,6.324555231));
#877=CARTESIAN_POINT('',(0.,15.,8.5));
#878=B_SPLINE_CURVE_WITH_KNOTS('',1,(#876,#877),.UNSPECIFIED.,.F.,.F.,(2,2),(0.014824555,0.017),.UNSPECIFIED.);
#879=EDGE_CURVE('',#794,#833,#878,.T.);
#880=ORIENTED_EDGE('',*,*,#879,.T.);
#881=ORIENTED_EDGE('',*,*,#844,.F.);
#882=ORIENTED_EDGE('',*,*,#856,.F.);
#883=ORIENTED_EDGE('',*,*,#879,.F.);
#884=ORIENTED_EDGE('',*,*,#805,.T.);
#885=ORIENTED_EDGE('',*,*,#817,.T.);
#886=EDGE_LOOP('',(#880,#881,#882,#883,#884,#885));
#887=FACE_BOUND('',#886,.T.);
#888=ADVANCED_FACE('',(#887),#875,.T.);
#889=CLOSED_SHELL('',(#722,#732,#824,#860,#888));
#890=MANIFOLD_SOLID_BREP('Extruded.001',#889);
#642=STYLED_ITEM('',(),#890);
#891=CARTESIAN_POINT('',(0.,0.,0.));
#892=CARTESIAN_POINT('',(0.,0.,938.403150216));
#893=B_SPLINE_CURVE_WITH_KNOTS('Line.001',1,(#891,#892),.UNSPECIFIED.,.F.,.F.,(2,2),(0.,0.93840315),.UNSPECIFIED.);
#894=GEOMETRIC_CURVE_SET('',(#28,#48,#68,#641,#893));
#16=SHAPE_REPRESENTATION('root',(#15),#10);
#17=ADVANCED_BREP_SHAPE_REPRESENTATION('root',(#621,#890),#10);
#902=SHAPE_REPRESENTATION_RELATIONSHIP('','',#16,#17);
#18=GEOMETRICALLY_BOUNDED_WIREFRAME_SHAPE_REPRESENTATION('root',(#894),#10);
#910=SHAPE_REPRESENTATION_RELATIONSHIP('','',#16,#18);
#911=APPLICATION_CONTEXT('configuration controlled 3D design of mechanical parts and assemblies');
#912=APPLICATION_PROTOCOL_DEFINITION('international standard','configuration_control_3d_design_ed2_mim',2004,#911);
#913=PRODUCT_CONTEXT('',#911,'mechanical');
#914=PRODUCT_DEFINITION_CONTEXT('part definition',#911,'design');
#24=PRODUCT('root','root','',(#913));
#915=PRODUCT_RELATED_PRODUCT_CATEGORY('part','',(#24));
#916=PRODUCT_DEFINITION_FORMATION_WITH_SPECIFIED_SOURCE('','',#24,.NOT_KNOWN.);
#25=PRODUCT_DEFINITION('design','',#916,#914);
#23=PRODUCT_DEFINITION_SHAPE('','',#25);
#917=SHAPE_DEFINITION_REPRESENTATION(#23,#16);
#11=DRAUGHTING_MODEL('',(),#10);
#1=MECHANICAL_DESIGN_GEOMETRIC_PRESENTATION_REPRESENTATION('',(#69,#642),#10);
ENDSEC;
END-ISO-10303-21;
