ISO-10303-21;
HEADER;

/* File generated by HOOPS Exchange Version 25.8.0 */

FILE_DESCRIPTION(('HOOPS Exchange Step'),'2;1');

FILE_NAME('/home/tfannes/prints/260615_flywheel_nerf_gun/flywheel_3b.step',
'2026-06-18T19:02:58+02:00',
('tfannes'),
('Unknown organisation'),
'HOOPS Exchange 2025.8',
'HOOPS Exchange',
'Unknown authorisation');

FILE_SCHEMA( ('AP203_CONFIGURATION_CONTROLLED_3D_DESIGN_OF_MECHANICAL_PARTS_AND_ASSEMBLIES_MIM_LF') );

ENDSEC;

DATA;
#3=(NAMED_UNIT(*)PLANE_ANGLE_UNIT()SI_UNIT($,.RADIAN.));
#4=PLANE_ANGLE_MEASURE_WITH_UNIT(PLANE_ANGLE_MEASURE(0.0174532925),#3);
#5=(CONVERSION_BASED_UNIT('DEGREE',#4)NAMED_UNIT(#6)PLANE_ANGLE_UNIT());
#6=DIMENSIONAL_EXPONENTS(0.,0.,0.,0.,0.,0.,0.);
#7=(NAMED_UNIT(*)SI_UNIT($,.STERADIAN.)SOLID_ANGLE_UNIT());
#8=(LENGTH_UNIT()NAMED_UNIT(*)SI_UNIT(.MILLI.,.METRE.));
#9=UNCERTAINTY_MEASURE_WITH_UNIT(LENGTH_MEASURE(1.000000E-03),#8,'DISTANCE_ACCURACY_VALUE','Maximum Tolerance applied to model');
#10=(GEOMETRIC_REPRESENTATION_CONTEXT(3)GLOBAL_UNCERTAINTY_ASSIGNED_CONTEXT((#9))GLOBAL_UNIT_ASSIGNED_CONTEXT((#8,#5,#7))REPRESENTATION_CONTEXT('','root'));
#12=CARTESIAN_POINT('',(0.,0.,0.));
#13=DIRECTION('',(0.,0.,1.));
#14=DIRECTION('',(1.,0.,0.));
#15=AXIS2_PLACEMENT_3D('',#12,#13,#14);
#26=CARTESIAN_POINT('',(0.737014411,-14.967464129,4.884220125));
#27=CARTESIAN_POINT('',(0.737014411,-16.672373528,6.634577226));
#28=CARTESIAN_POINT('',(0.737014411,-19.064686392,7.715461955));
#29=CARTESIAN_POINT('',(0.737014411,-21.843726342,7.818125946));
#30=CARTESIAN_POINT('',(0.737014411,-24.548106904,6.792299907));
#31=CARTESIAN_POINT('',(0.737014411,-26.651732961,4.743294116));
#32=CARTESIAN_POINT('',(0.737014411,-27.748334155,2.066830198));
#33=CARTESIAN_POINT('',(0.737014411,-27.718799396,-0.713948584));
#34=CARTESIAN_POINT('',(0.737014411,-26.701210704,-3.133863023));
#35=CARTESIAN_POINT('',(0.737014411,-24.996301305,-4.884220125));
#36=CARTESIAN_POINT('',(0.737014411,-23.291391906,-6.634577226));
#37=CARTESIAN_POINT('',(0.737014411,-20.899079043,-7.715461955));
#38=CARTESIAN_POINT('',(0.737014411,-18.120039092,-7.818125946));
#39=CARTESIAN_POINT('',(0.737014411,-15.415658531,-6.792299907));
#40=CARTESIAN_POINT('',(0.737014411,-13.312032474,-4.743294116));
#41=CARTESIAN_POINT('',(0.737014411,-12.21543128,-2.066830198));
#42=CARTESIAN_POINT('',(0.737014411,-12.244966039,0.713948584));
#43=CARTESIAN_POINT('',(0.737014411,-13.262554731,3.133863023));
#44=CARTESIAN_POINT('',(0.737014411,-14.967464129,4.884220125));
#45=B_SPLINE_CURVE_WITH_KNOTS('Circle.002',9,(#26,#27,#28,#29,#30,#31,#32,#33,#34,#35,#36,#37,#38,#39,#40,#41,#42,#43,#44),.UNSPECIFIED.,.T.,.F.,(10,9,10),(0.,3.141592654,6.283185307),.UNSPECIFIED.);
#46=CARTESIAN_POINT('',(0.737014411,-14.981882717,0.));
#47=CARTESIAN_POINT('',(0.737014411,-19.981882717,0.));
#48=B_SPLINE_CURVE_WITH_KNOTS('Line.001',1,(#46,#47),.UNSPECIFIED.,.F.,.F.,(2,2),(0.,0.005),.UNSPECIFIED.);
#50=CARTESIAN_POINT('',(0.,15.,5.));
#51=CARTESIAN_POINT('',(0.,15.,4.898979486));
#52=CARTESIAN_POINT('',(25.980762114,15.,5.));
#53=CARTESIAN_POINT('',(25.980762114,15.,4.898979486));
#54=CARTESIAN_POINT('',(12.990381057,-7.5,5.));
#55=CARTESIAN_POINT('',(12.990381057,-7.5,4.898979486));
#56=CARTESIAN_POINT('',(0.,-30.,5.));
#57=CARTESIAN_POINT('',(0.,-30.,4.898979486));
#58=CARTESIAN_POINT('',(-12.990381057,-7.5,5.));
#59=CARTESIAN_POINT('',(-12.990381057,-7.5,4.898979486));
#60=CARTESIAN_POINT('',(-25.980762114,15.,5.));
#61=CARTESIAN_POINT('',(-25.980762114,15.,4.898979486));
#62=CARTESIAN_POINT('',(-0.,15.,5.));
#63=CARTESIAN_POINT('',(-0.,15.,4.898979486));
#64=(BOUNDED_SURFACE()
B_SPLINE_SURFACE(2,1,((#50,#51),(#52,#53),(#54,#55),(#56,#57),(#58,#59),(#60,#61),(#62,#63)),.UNSPECIFIED.,.T.,.F.,.U.)
B_SPLINE_SURFACE_WITH_KNOTS((3,2,2,3),(2,2),(0.,2.094395102,4.188790205,6.283185307),(-0.,0.000101021),.UNSPECIFIED.)
GEOMETRIC_REPRESENTATION_ITEM()
RATIONAL_B_SPLINE_SURFACE(((1.,1.),(0.5,0.5),(1.,1.),(0.5,0.5),(1.,1.),(0.5,0.5),(1.,1.)))
REPRESENTATION_ITEM('')
SURFACE()
);
#65=CARTESIAN_POINT('',(-0.,15.,4.898979486));
#66=VERTEX_POINT('',#65);
#67=CARTESIAN_POINT('',(0.,15.,5.));
#68=VERTEX_POINT('',#67);
#69=CARTESIAN_POINT('',(0.,15.,4.898979486));
#70=CARTESIAN_POINT('',(0.,15.,5.));
#71=B_SPLINE_CURVE_WITH_KNOTS('',1,(#69,#70),.UNSPECIFIED.,.F.,.F.,(2,2),(0.009898979,0.01),.UNSPECIFIED.);
#72=EDGE_CURVE('',#66,#68,#71,.T.);
#73=ORIENTED_EDGE('',*,*,#72,.T.);
#74=CARTESIAN_POINT('',(14.981882717,0.737014411,5.));
#75=VERTEX_POINT('',#74);
#76=CARTESIAN_POINT('',(14.981882717,0.737014411,5.));
#77=CARTESIAN_POINT('',(14.244868307,15.718897128,5.));
#78=CARTESIAN_POINT('',(-0.737014411,14.981882717,5.));
#79=CARTESIAN_POINT('',(-15.718897128,14.244868307,5.));
#80=CARTESIAN_POINT('',(-14.981882717,-0.737014411,5.));
#81=CARTESIAN_POINT('',(-14.244868307,-15.718897128,5.));
#82=CARTESIAN_POINT('',(0.737014411,-14.981882717,5.));
#83=CARTESIAN_POINT('',(15.718897128,-14.244868307,5.));
#84=CARTESIAN_POINT('',(14.981882717,0.737014411,5.));
#85=(BOUNDED_CURVE()
B_SPLINE_CURVE(2,(#76,#77,#78,#79,#80,#81,#82,#83,#84),.UNSPECIFIED.,.T.,.F.)
B_SPLINE_CURVE_WITH_KNOTS((3,2,2,2,3),(0.,1.570796327,3.141592654,4.71238898,6.283185307),.UNSPECIFIED.)
CURVE()
GEOMETRIC_REPRESENTATION_ITEM()
RATIONAL_B_SPLINE_CURVE((1.,0.707106781,1.,0.707106781,1.,0.707106781,1.,0.707106781,1.))
REPRESENTATION_ITEM(''));
#86=EDGE_CURVE('',#75,#68,#85,.T.);
#87=ORIENTED_EDGE('',*,*,#86,.F.);
#88=CARTESIAN_POINT('',(14.981882717,0.737014411,5.));
#89=CARTESIAN_POINT('',(14.244868307,15.718897128,5.));
#90=CARTESIAN_POINT('',(-0.737014411,14.981882717,5.));
#91=CARTESIAN_POINT('',(-15.718897128,14.244868307,5.));
#92=CARTESIAN_POINT('',(-14.981882717,-0.737014411,5.));
#93=CARTESIAN_POINT('',(-14.244868307,-15.718897128,5.));
#94=CARTESIAN_POINT('',(0.737014411,-14.981882717,5.));
#95=CARTESIAN_POINT('',(15.718897128,-14.244868307,5.));
#96=CARTESIAN_POINT('',(14.981882717,0.737014411,5.));
#97=(BOUNDED_CURVE()
B_SPLINE_CURVE(2,(#88,#89,#90,#91,#92,#93,#94,#95,#96),.UNSPECIFIED.,.T.,.F.)
B_SPLINE_CURVE_WITH_KNOTS((3,2,2,2,3),(0.,1.570796327,3.141592654,4.71238898,6.283185307),.UNSPECIFIED.)
CURVE()
GEOMETRIC_REPRESENTATION_ITEM()
RATIONAL_B_SPLINE_CURVE((1.,0.707106781,1.,0.707106781,1.,0.707106781,1.,0.707106781,1.))
REPRESENTATION_ITEM(''));
#98=EDGE_CURVE('',#68,#75,#97,.T.);
#99=ORIENTED_EDGE('',*,*,#98,.F.);
#100=ORIENTED_EDGE('',*,*,#72,.F.);
#101=CARTESIAN_POINT('',(0.737014411,-14.981882717,4.898979486));
#102=VERTEX_POINT('',#101);
#103=CARTESIAN_POINT('',(0.737014411,-14.981882717,4.898979486));
#104=CARTESIAN_POINT('',(15.718897128,-14.244868307,4.898979486));
#105=CARTESIAN_POINT('',(14.981882717,0.737014411,4.898979486));
#106=CARTESIAN_POINT('',(14.244868307,15.718897128,4.898979486));
#107=CARTESIAN_POINT('',(-0.737014411,14.981882717,4.898979486));
#108=CARTESIAN_POINT('',(-15.718897128,14.244868307,4.898979486));
#109=CARTESIAN_POINT('',(-14.981882717,-0.737014411,4.898979486));
#110=CARTESIAN_POINT('',(-14.244868307,-15.718897128,4.898979486));
#111=CARTESIAN_POINT('',(0.737014411,-14.981882717,4.898979486));
#112=(BOUNDED_CURVE()
B_SPLINE_CURVE(2,(#103,#104,#105,#106,#107,#108,#109,#110,#111),.UNSPECIFIED.,.T.,.F.)
B_SPLINE_CURVE_WITH_KNOTS((3,2,2,2,3),(4.761543066,6.332339393,7.903135719,9.473932046,11.044728373),.UNSPECIFIED.)
CURVE()
GEOMETRIC_REPRESENTATION_ITEM()
RATIONAL_B_SPLINE_CURVE((1.,0.707106781,1.,0.707106781,1.,0.707106781,1.,0.707106781,1.))
REPRESENTATION_ITEM(''));
#113=EDGE_CURVE('',#66,#102,#112,.T.);
#114=ORIENTED_EDGE('',*,*,#113,.T.);
#115=CARTESIAN_POINT('',(0.737014411,-14.981882717,4.898979486));
#116=CARTESIAN_POINT('',(15.718897128,-14.244868307,4.898979486));
#117=CARTESIAN_POINT('',(14.981882717,0.737014411,4.898979486));
#118=CARTESIAN_POINT('',(14.244868307,15.718897128,4.898979486));
#119=CARTESIAN_POINT('',(-0.737014411,14.981882717,4.898979486));
#120=CARTESIAN_POINT('',(-15.718897128,14.244868307,4.898979486));
#121=CARTESIAN_POINT('',(-14.981882717,-0.737014411,4.898979486));
#122=CARTESIAN_POINT('',(-14.244868307,-15.718897128,4.898979486));
#123=CARTESIAN_POINT('',(0.737014411,-14.981882717,4.898979486));
#124=(BOUNDED_CURVE()
B_SPLINE_CURVE(2,(#115,#116,#117,#118,#119,#120,#121,#122,#123),.UNSPECIFIED.,.T.,.F.)
B_SPLINE_CURVE_WITH_KNOTS((3,2,2,2,3),(4.761543066,6.332339393,7.903135719,9.473932046,11.044728373),.UNSPECIFIED.)
CURVE()
GEOMETRIC_REPRESENTATION_ITEM()
RATIONAL_B_SPLINE_CURVE((1.,0.707106781,1.,0.707106781,1.,0.707106781,1.,0.707106781,1.))
REPRESENTATION_ITEM(''));
#125=EDGE_CURVE('',#102,#66,#124,.T.);
#126=ORIENTED_EDGE('',*,*,#125,.T.);
#127=EDGE_LOOP('',(#73,#87,#99,#100,#114,#126));
#128=FACE_BOUND('',#127,.T.);
#129=ADVANCED_FACE('',(#128),#64,.T.);
#130=CARTESIAN_POINT('',(-15.718897128,-15.718897128,5.));
#131=CARTESIAN_POINT('',(-15.718897128,15.,5.));
#132=CARTESIAN_POINT('',(15.718897128,-15.718897128,5.));
#133=CARTESIAN_POINT('',(15.718897128,15.,5.));
#134=B_SPLINE_SURFACE_WITH_KNOTS('',1,1,((#130,#131),(#132,#133)),.UNSPECIFIED.,.F.,.F.,.U.,(2,2),(2,2),(-0.015718897,0.015718897),(-0.015718897,0.015),.UNSPECIFIED.);
#135=CARTESIAN_POINT('',(-0.,-1.,5.));
#136=VERTEX_POINT('',#135);
#137=CARTESIAN_POINT('',(0.431079446,0.902313976,5.));
#138=VERTEX_POINT('',#137);
#139=CARTESIAN_POINT('',(0.431079446,0.902313976,5.));
#140=CARTESIAN_POINT('',(-0.47123453,1.333393422,5.));
#141=CARTESIAN_POINT('',(-0.902313976,0.431079446,5.));
#142=CARTESIAN_POINT('',(-1.333393422,-0.47123453,5.));
#143=CARTESIAN_POINT('',(-0.431079446,-0.902313976,5.));
#144=CARTESIAN_POINT('',(0.47123453,-1.333393422,5.));
#145=CARTESIAN_POINT('',(0.902313976,-0.431079446,5.));
#146=CARTESIAN_POINT('',(1.333393422,0.47123453,5.));
#147=CARTESIAN_POINT('',(0.431079446,0.902313976,5.));
#148=(BOUNDED_CURVE()
B_SPLINE_CURVE(2,(#139,#140,#141,#142,#143,#144,#145,#146,#147),.UNSPECIFIED.,.T.,.F.)
B_SPLINE_CURVE_WITH_KNOTS((3,2,2,2,3),(0.,1.570796327,3.141592654,4.71238898,6.283185307),.UNSPECIFIED.)
CURVE()
GEOMETRIC_REPRESENTATION_ITEM()
RATIONAL_B_SPLINE_CURVE((1.,0.707106781,1.,0.707106781,1.,0.707106781,1.,0.707106781,1.))
REPRESENTATION_ITEM(''));
#149=EDGE_CURVE('',#136,#138,#148,.T.);
#150=ORIENTED_EDGE('',*,*,#149,.F.);
#151=CARTESIAN_POINT('',(0.431079446,0.902313976,5.));
#152=CARTESIAN_POINT('',(-0.47123453,1.333393422,5.));
#153=CARTESIAN_POINT('',(-0.902313976,0.431079446,5.));
#154=CARTESIAN_POINT('',(-1.333393422,-0.47123453,5.));
#155=CARTESIAN_POINT('',(-0.431079446,-0.902313976,5.));
#156=CARTESIAN_POINT('',(0.47123453,-1.333393422,5.));
#157=CARTESIAN_POINT('',(0.902313976,-0.431079446,5.));
#158=CARTESIAN_POINT('',(1.333393422,0.47123453,5.));
#159=CARTESIAN_POINT('',(0.431079446,0.902313976,5.));
#160=(BOUNDED_CURVE()
B_SPLINE_CURVE(2,(#151,#152,#153,#154,#155,#156,#157,#158,#159),.UNSPECIFIED.,.T.,.F.)
B_SPLINE_CURVE_WITH_KNOTS((3,2,2,2,3),(0.,1.570796327,3.141592654,4.71238898,6.283185307),.UNSPECIFIED.)
CURVE()
GEOMETRIC_REPRESENTATION_ITEM()
RATIONAL_B_SPLINE_CURVE((1.,0.707106781,1.,0.707106781,1.,0.707106781,1.,0.707106781,1.))
REPRESENTATION_ITEM(''));
#161=EDGE_CURVE('',#138,#136,#160,.T.);
#162=ORIENTED_EDGE('',*,*,#161,.F.);
#163=EDGE_LOOP('',(#150,#162));
#164=FACE_BOUND('',#163,.T.);
#165=ORIENTED_EDGE('',*,*,#86,.T.);
#166=ORIENTED_EDGE('',*,*,#98,.T.);
#167=EDGE_LOOP('',(#165,#166));
#168=FACE_BOUND('',#167,.T.);
#169=ADVANCED_FACE('',(#164,#168),#134,.T.);
#170=CARTESIAN_POINT('',(0.737014411,-14.967464129,4.884220125));
#171=CARTESIAN_POINT('',(30.67194267,-13.493435308,4.884220125));
#172=CARTESIAN_POINT('',(29.197913848,16.441492951,4.884220125));
#173=CARTESIAN_POINT('',(-0.737014411,14.967464129,4.884220125));
#174=CARTESIAN_POINT('',(-30.67194267,13.493435308,4.884220125));
#175=CARTESIAN_POINT('',(-29.197913848,-16.441492951,4.884220125));
#176=CARTESIAN_POINT('',(0.737014411,-14.967464129,4.884220125));
#177=CARTESIAN_POINT('',(0.737014411,-14.972260718,4.889144576));
#178=CARTESIAN_POINT('',(30.681535847,-13.498231897,4.889144576));
#179=CARTESIAN_POINT('',(29.207507026,16.44628954,4.889144576));
#180=CARTESIAN_POINT('',(-0.737014411,14.972260718,4.889144576));
#181=CARTESIAN_POINT('',(-30.681535847,13.498231897,4.889144576));
#182=CARTESIAN_POINT('',(-29.207507026,-16.44628954,4.889144576));
#183=CARTESIAN_POINT('',(0.737014411,-14.972260718,4.889144576));
#184=CARTESIAN_POINT('',(0.737014411,-14.977066912,4.894064375));
#185=CARTESIAN_POINT('',(30.691148234,-13.50303809,4.894064375));
#186=CARTESIAN_POINT('',(29.217119413,16.451095733,4.894064375));
#187=CARTESIAN_POINT('',(-0.737014411,14.977066912,4.894064375));
#188=CARTESIAN_POINT('',(-30.691148234,13.50303809,4.894064375));
#189=CARTESIAN_POINT('',(-29.217119413,-16.451095733,4.894064375));
#190=CARTESIAN_POINT('',(0.737014411,-14.977066912,4.894064375));
#191=CARTESIAN_POINT('',(0.737014411,-14.981882718,4.898979486));
#192=CARTESIAN_POINT('',(30.700779846,-13.507853896,4.898979486));
#193=CARTESIAN_POINT('',(29.226751024,16.455911539,4.898979486));
#194=CARTESIAN_POINT('',(-0.737014411,14.981882718,4.898979486));
#195=CARTESIAN_POINT('',(-30.700779846,13.507853896,4.898979486));
#196=CARTESIAN_POINT('',(-29.226751024,-16.455911539,4.898979486));
#197=CARTESIAN_POINT('',(0.737014411,-14.981882718,4.898979486));
#198=(BOUNDED_SURFACE()
B_SPLINE_SURFACE(3,3,((#170,#171,#172,#173,#174,#175,#176),(#177,#178,#179,#180,#181,#182,#183),(#184,#185,#186,#187,#188,#189,#190),(#191,#192,#193,#194,#195,#196,#197)),.UNSPECIFIED.,.F.,.T.,.U.)
B_SPLINE_SURFACE_WITH_KNOTS((4,4),(4,3,4),(0.,0.000735821),(0.,0.5,1.),.UNSPECIFIED.)
GEOMETRIC_REPRESENTATION_ITEM()
RATIONAL_B_SPLINE_SURFACE(((1.,0.333333333,0.333333333,1.,0.333333333,0.333333333,1.),(0.999018905,0.333006302,0.333006302,0.999018905,0.333006302,0.333006302,0.999018905),(0.998039254,0.332679751,0.332679751,0.998039254,0.332679751,0.332679751,0.998039254),(0.997061047,0.332353682,0.332353682,0.997061047,0.332353682,0.332353682,0.997061047)))
REPRESENTATION_ITEM('')
SURFACE()
);
#199=CARTESIAN_POINT('',(0.737014411,-14.967464129,4.884220125));
#200=VERTEX_POINT('',#199);
#201=CARTESIAN_POINT('',(0.737014411,-14.967464129,4.884220125));
#202=CARTESIAN_POINT('',(-29.197913848,-16.441492951,4.884220125));
#203=CARTESIAN_POINT('',(-30.67194267,13.493435308,4.884220125));
#204=CARTESIAN_POINT('',(-0.737014411,14.967464129,4.884220125));
#205=CARTESIAN_POINT('',(29.197913848,16.441492951,4.884220125));
#206=CARTESIAN_POINT('',(30.67194267,-13.493435308,4.884220125));
#207=CARTESIAN_POINT('',(0.737014411,-14.967464129,4.884220125));
#208=(BOUNDED_CURVE()
B_SPLINE_CURVE(3,(#201,#202,#203,#204,#205,#206,#207),.UNSPECIFIED.,.T.,.F.)
B_SPLINE_CURVE_WITH_KNOTS((4,3,4),(0.,0.5,1.),.UNSPECIFIED.)
CURVE()
GEOMETRIC_REPRESENTATION_ITEM()
RATIONAL_B_SPLINE_CURVE((1.,0.333333333,0.333333333,1.,0.333333333,0.333333333,1.))
REPRESENTATION_ITEM(''));
#209=EDGE_CURVE('',#200,#200,#208,.T.);
#210=ORIENTED_EDGE('',*,*,#209,.F.);
#211=CARTESIAN_POINT('',(0.737014411,-14.981882717,-4.898979486));
#212=CARTESIAN_POINT('',(0.737014411,-10.181882717,0.));
#213=CARTESIAN_POINT('',(0.737014411,-14.981882717,4.898979486));
#214=(BOUNDED_CURVE()
B_SPLINE_CURVE(2,(#211,#212,#213),.UNSPECIFIED.,.F.,.F.)
B_SPLINE_CURVE_WITH_KNOTS((3,3),(4.735746181,6.286132927),.UNSPECIFIED.)
CURVE()
GEOMETRIC_REPRESENTATION_ITEM()
RATIONAL_B_SPLINE_CURVE((1.,0.714285714,1.))
REPRESENTATION_ITEM(''));
#215=EDGE_CURVE('',#200,#102,#214,.T.);
#216=ORIENTED_EDGE('',*,*,#215,.T.);
#217=ORIENTED_EDGE('',*,*,#113,.F.);
#218=ORIENTED_EDGE('',*,*,#125,.F.);
#219=ORIENTED_EDGE('',*,*,#215,.F.);
#220=EDGE_LOOP('',(#210,#216,#217,#218,#219));
#221=FACE_BOUND('',#220,.T.);
#222=ADVANCED_FACE('',(#221),#198,.F.);
#223=CARTESIAN_POINT('',(-15.718897128,-15.718897128,-5.));
#224=CARTESIAN_POINT('',(-15.718897128,15.,-5.));
#225=CARTESIAN_POINT('',(15.718897128,-15.718897128,-5.));
#226=CARTESIAN_POINT('',(15.718897128,15.,-5.));
#227=B_SPLINE_SURFACE_WITH_KNOTS('',1,1,((#223,#224),(#225,#226)),.UNSPECIFIED.,.F.,.F.,.U.,(2,2),(2,2),(-0.015718897,0.015718897),(-0.015718897,0.015),.UNSPECIFIED.);
#228=CARTESIAN_POINT('',(0.,15.,-5.));
#229=VERTEX_POINT('',#228);
#230=CARTESIAN_POINT('',(14.981882717,0.737014411,-5.));
#231=VERTEX_POINT('',#230);
#232=CARTESIAN_POINT('',(14.981882717,0.737014411,-5.));
#233=CARTESIAN_POINT('',(14.244868307,15.718897128,-5.));
#234=CARTESIAN_POINT('',(-0.737014411,14.981882717,-5.));
#235=CARTESIAN_POINT('',(-15.718897128,14.244868307,-5.));
#236=CARTESIAN_POINT('',(-14.981882717,-0.737014411,-5.));
#237=CARTESIAN_POINT('',(-14.244868307,-15.718897128,-5.));
#238=CARTESIAN_POINT('',(0.737014411,-14.981882717,-5.));
#239=CARTESIAN_POINT('',(15.718897128,-14.244868307,-5.));
#240=CARTESIAN_POINT('',(14.981882717,0.737014411,-5.));
#241=(BOUNDED_CURVE()
B_SPLINE_CURVE(2,(#232,#233,#234,#235,#236,#237,#238,#239,#240),.UNSPECIFIED.,.T.,.F.)
B_SPLINE_CURVE_WITH_KNOTS((3,2,2,2,3),(0.,1.570796327,3.141592654,4.71238898,6.283185307),.UNSPECIFIED.)
CURVE()
GEOMETRIC_REPRESENTATION_ITEM()
RATIONAL_B_SPLINE_CURVE((1.,0.707106781,1.,0.707106781,1.,0.707106781,1.,0.707106781,1.))
REPRESENTATION_ITEM(''));
#242=EDGE_CURVE('',#229,#231,#241,.T.);
#243=ORIENTED_EDGE('',*,*,#242,.F.);
#244=CARTESIAN_POINT('',(14.981882717,0.737014411,-5.));
#245=CARTESIAN_POINT('',(14.244868307,15.718897128,-5.));
#246=CARTESIAN_POINT('',(-0.737014411,14.981882717,-5.));
#247=CARTESIAN_POINT('',(-15.718897128,14.244868307,-5.));
#248=CARTESIAN_POINT('',(-14.981882717,-0.737014411,-5.));
#249=CARTESIAN_POINT('',(-14.244868307,-15.718897128,-5.));
#250=CARTESIAN_POINT('',(0.737014411,-14.981882717,-5.));
#251=CARTESIAN_POINT('',(15.718897128,-14.244868307,-5.));
#252=CARTESIAN_POINT('',(14.981882717,0.737014411,-5.));
#253=(BOUNDED_CURVE()
B_SPLINE_CURVE(2,(#244,#245,#246,#247,#248,#249,#250,#251,#252),.UNSPECIFIED.,.T.,.F.)
B_SPLINE_CURVE_WITH_KNOTS((3,2,2,2,3),(0.,1.570796327,3.141592654,4.71238898,6.283185307),.UNSPECIFIED.)
CURVE()
GEOMETRIC_REPRESENTATION_ITEM()
RATIONAL_B_SPLINE_CURVE((1.,0.707106781,1.,0.707106781,1.,0.707106781,1.,0.707106781,1.))
REPRESENTATION_ITEM(''));
#254=EDGE_CURVE('',#231,#229,#253,.T.);
#255=ORIENTED_EDGE('',*,*,#254,.F.);
#256=EDGE_LOOP('',(#243,#255));
#257=FACE_BOUND('',#256,.T.);
#258=ADVANCED_FACE('',(#257),#227,.F.);
#259=CARTESIAN_POINT('',(0.,15.,-4.898979486));
#260=CARTESIAN_POINT('',(0.,15.,-5.));
#261=CARTESIAN_POINT('',(25.980762114,15.,-4.898979486));
#262=CARTESIAN_POINT('',(25.980762114,15.,-5.));
#263=CARTESIAN_POINT('',(12.990381057,-7.5,-4.898979486));
#264=CARTESIAN_POINT('',(12.990381057,-7.5,-5.));
#265=CARTESIAN_POINT('',(0.,-30.,-4.898979486));
#266=CARTESIAN_POINT('',(0.,-30.,-5.));
#267=CARTESIAN_POINT('',(-12.990381057,-7.5,-4.898979486));
#268=CARTESIAN_POINT('',(-12.990381057,-7.5,-5.));
#269=CARTESIAN_POINT('',(-25.980762114,15.,-4.898979486));
#270=CARTESIAN_POINT('',(-25.980762114,15.,-5.));
#271=CARTESIAN_POINT('',(-0.,15.,-4.898979486));
#272=CARTESIAN_POINT('',(-0.,15.,-5.));
#273=(BOUNDED_SURFACE()
B_SPLINE_SURFACE(2,1,((#259,#260),(#261,#262),(#263,#264),(#265,#266),(#267,#268),(#269,#270),(#271,#272)),.UNSPECIFIED.,.T.,.F.,.U.)
B_SPLINE_SURFACE_WITH_KNOTS((3,2,2,3),(2,2),(0.,2.094395102,4.188790205,6.283185307),(0.009898979,0.01),.UNSPECIFIED.)
GEOMETRIC_REPRESENTATION_ITEM()
RATIONAL_B_SPLINE_SURFACE(((1.,1.),(0.5,0.5),(1.,1.),(0.5,0.5),(1.,1.),(0.5,0.5),(1.,1.)))
REPRESENTATION_ITEM('')
SURFACE()
);
#274=CARTESIAN_POINT('',(-0.,15.,-4.898979486));
#275=VERTEX_POINT('',#274);
#276=CARTESIAN_POINT('',(0.,15.,-5.));
#277=CARTESIAN_POINT('',(0.,15.,-4.898979486));
#278=B_SPLINE_CURVE_WITH_KNOTS('',1,(#276,#277),.UNSPECIFIED.,.F.,.F.,(2,2),(0.,0.000101021),.UNSPECIFIED.);
#279=EDGE_CURVE('',#229,#275,#278,.T.);
#280=ORIENTED_EDGE('',*,*,#279,.T.);
#281=CARTESIAN_POINT('',(0.737014411,-14.981882717,-4.898979486));
#282=VERTEX_POINT('',#281);
#283=CARTESIAN_POINT('',(0.737014411,-14.981882717,-4.898979486));
#284=CARTESIAN_POINT('',(-14.244868307,-15.718897128,-4.898979486));
#285=CARTESIAN_POINT('',(-14.981882717,-0.737014411,-4.898979486));
#286=CARTESIAN_POINT('',(-15.718897128,14.244868307,-4.898979486));
#287=CARTESIAN_POINT('',(-0.737014411,14.981882717,-4.898979486));
#288=CARTESIAN_POINT('',(14.244868307,15.718897128,-4.898979486));
#289=CARTESIAN_POINT('',(14.981882717,0.737014411,-4.898979486));
#290=CARTESIAN_POINT('',(15.718897128,-14.244868307,-4.898979486));
#291=CARTESIAN_POINT('',(0.737014411,-14.981882717,-4.898979486));
#292=(BOUNDED_CURVE()
B_SPLINE_CURVE(2,(#283,#284,#285,#286,#287,#288,#289,#290,#291),.UNSPECIFIED.,.T.,.F.)
B_SPLINE_CURVE_WITH_KNOTS((3,2,2,2,3),(4.761543066,6.332339393,7.903135719,9.473932046,11.044728373),.UNSPECIFIED.)
CURVE()
GEOMETRIC_REPRESENTATION_ITEM()
RATIONAL_B_SPLINE_CURVE((1.,0.707106781,1.,0.707106781,1.,0.707106781,1.,0.707106781,1.))
REPRESENTATION_ITEM(''));
#293=EDGE_CURVE('',#275,#282,#292,.T.);
#294=ORIENTED_EDGE('',*,*,#293,.T.);
#295=CARTESIAN_POINT('',(0.737014411,-14.981882717,-4.898979486));
#296=CARTESIAN_POINT('',(-14.244868307,-15.718897128,-4.898979486));
#297=CARTESIAN_POINT('',(-14.981882717,-0.737014411,-4.898979486));
#298=CARTESIAN_POINT('',(-15.718897128,14.244868307,-4.898979486));
#299=CARTESIAN_POINT('',(-0.737014411,14.981882717,-4.898979486));
#300=CARTESIAN_POINT('',(14.244868307,15.718897128,-4.898979486));
#301=CARTESIAN_POINT('',(14.981882717,0.737014411,-4.898979486));
#302=CARTESIAN_POINT('',(15.718897128,-14.244868307,-4.898979486));
#303=CARTESIAN_POINT('',(0.737014411,-14.981882717,-4.898979486));
#304=(BOUNDED_CURVE()
B_SPLINE_CURVE(2,(#295,#296,#297,#298,#299,#300,#301,#302,#303),.UNSPECIFIED.,.T.,.F.)
B_SPLINE_CURVE_WITH_KNOTS((3,2,2,2,3),(4.761543066,6.332339393,7.903135719,9.473932046,11.044728373),.UNSPECIFIED.)
CURVE()
GEOMETRIC_REPRESENTATION_ITEM()
RATIONAL_B_SPLINE_CURVE((1.,0.707106781,1.,0.707106781,1.,0.707106781,1.,0.707106781,1.))
REPRESENTATION_ITEM(''));
#305=EDGE_CURVE('',#282,#275,#304,.T.);
#306=ORIENTED_EDGE('',*,*,#305,.T.);
#307=ORIENTED_EDGE('',*,*,#279,.F.);
#308=ORIENTED_EDGE('',*,*,#242,.T.);
#309=ORIENTED_EDGE('',*,*,#254,.T.);
#310=EDGE_LOOP('',(#280,#294,#306,#307,#308,#309));
#311=FACE_BOUND('',#310,.T.);
#312=ADVANCED_FACE('',(#311),#273,.T.);
#313=CARTESIAN_POINT('',(0.,-1.,-2.));
#314=CARTESIAN_POINT('',(0.,-1.,5.));
#315=CARTESIAN_POINT('',(1.732050808,-1.,-2.));
#316=CARTESIAN_POINT('',(1.732050808,-1.,5.));
#317=CARTESIAN_POINT('',(0.866025404,0.5,-2.));
#318=CARTESIAN_POINT('',(0.866025404,0.5,5.));
#319=CARTESIAN_POINT('',(0.,2.,-2.));
#320=CARTESIAN_POINT('',(0.,2.,5.));
#321=CARTESIAN_POINT('',(-0.866025404,0.5,-2.));
#322=CARTESIAN_POINT('',(-0.866025404,0.5,5.));
#323=CARTESIAN_POINT('',(-1.732050808,-1.,-2.));
#324=CARTESIAN_POINT('',(-1.732050808,-1.,5.));
#325=CARTESIAN_POINT('',(-0.,-1.,-2.));
#326=CARTESIAN_POINT('',(-0.,-1.,5.));
#327=(BOUNDED_SURFACE()
B_SPLINE_SURFACE(2,1,((#313,#314),(#315,#316),(#317,#318),(#319,#320),(#321,#322),(#323,#324),(#325,#326)),.UNSPECIFIED.,.T.,.F.,.U.)
B_SPLINE_SURFACE_WITH_KNOTS((3,2,2,3),(2,2),(0.,2.094395102,4.188790205,6.283185307),(-0.00388786,0.00311214),.UNSPECIFIED.)
GEOMETRIC_REPRESENTATION_ITEM()
RATIONAL_B_SPLINE_SURFACE(((1.,1.),(0.5,0.5),(1.,1.),(0.5,0.5),(1.,1.),(0.5,0.5),(1.,1.)))
REPRESENTATION_ITEM('')
SURFACE()
);
#328=CARTESIAN_POINT('',(-0.,-1.,-2.));
#329=VERTEX_POINT('',#328);
#330=CARTESIAN_POINT('',(0.,-1.,5.));
#331=CARTESIAN_POINT('',(0.,-1.,-2.));
#332=B_SPLINE_CURVE_WITH_KNOTS('',1,(#330,#331),.UNSPECIFIED.,.F.,.F.,(2,2),(-0.00388786,0.00311214),.UNSPECIFIED.);
#333=EDGE_CURVE('',#136,#329,#332,.T.);
#334=ORIENTED_EDGE('',*,*,#333,.F.);
#335=ORIENTED_EDGE('',*,*,#149,.T.);
#336=ORIENTED_EDGE('',*,*,#161,.T.);
#337=ORIENTED_EDGE('',*,*,#333,.T.);
#338=CARTESIAN_POINT('',(1.,-0.,-2.));
#339=VERTEX_POINT('',#338);
#340=CARTESIAN_POINT('',(1.,-0.,-2.));
#341=CARTESIAN_POINT('',(1.,1.,-2.));
#342=CARTESIAN_POINT('',(0.,1.,-2.));
#343=CARTESIAN_POINT('',(-1.,1.,-2.));
#344=CARTESIAN_POINT('',(-1.,-0.,-2.));
#345=CARTESIAN_POINT('',(-1.,-1.,-2.));
#346=CARTESIAN_POINT('',(-0.,-1.,-2.));
#347=CARTESIAN_POINT('',(1.,-1.,-2.));
#348=CARTESIAN_POINT('',(1.,-0.,-2.));
#349=(BOUNDED_CURVE()
B_SPLINE_CURVE(2,(#340,#341,#342,#343,#344,#345,#346,#347,#348),.UNSPECIFIED.,.T.,.F.)
B_SPLINE_CURVE_WITH_KNOTS((3,2,2,2,3),(0.,1.570796327,3.141592654,4.71238898,6.283185307),.UNSPECIFIED.)
CURVE()
GEOMETRIC_REPRESENTATION_ITEM()
RATIONAL_B_SPLINE_CURVE((1.,0.707106781,1.,0.707106781,1.,0.707106781,1.,0.707106781,1.))
REPRESENTATION_ITEM(''));
#350=EDGE_CURVE('',#339,#329,#349,.T.);
#351=ORIENTED_EDGE('',*,*,#350,.F.);
#352=CARTESIAN_POINT('',(1.,-0.,-2.));
#353=CARTESIAN_POINT('',(1.,1.,-2.));
#354=CARTESIAN_POINT('',(0.,1.,-2.));
#355=CARTESIAN_POINT('',(-1.,1.,-2.));
#356=CARTESIAN_POINT('',(-1.,-0.,-2.));
#357=CARTESIAN_POINT('',(-1.,-1.,-2.));
#358=CARTESIAN_POINT('',(-0.,-1.,-2.));
#359=CARTESIAN_POINT('',(1.,-1.,-2.));
#360=CARTESIAN_POINT('',(1.,-0.,-2.));
#361=(BOUNDED_CURVE()
B_SPLINE_CURVE(2,(#352,#353,#354,#355,#356,#357,#358,#359,#360),.UNSPECIFIED.,.T.,.F.)
B_SPLINE_CURVE_WITH_KNOTS((3,2,2,2,3),(0.,1.570796327,3.141592654,4.71238898,6.283185307),.UNSPECIFIED.)
CURVE()
GEOMETRIC_REPRESENTATION_ITEM()
RATIONAL_B_SPLINE_CURVE((1.,0.707106781,1.,0.707106781,1.,0.707106781,1.,0.707106781,1.))
REPRESENTATION_ITEM(''));
#362=EDGE_CURVE('',#329,#339,#361,.T.);
#363=ORIENTED_EDGE('',*,*,#362,.F.);
#364=EDGE_LOOP('',(#334,#335,#336,#337,#351,#363));
#365=FACE_BOUND('',#364,.T.);
#366=ADVANCED_FACE('',(#365),#327,.F.);
#367=CARTESIAN_POINT('',(-1.,-1.,-2.));
#368=CARTESIAN_POINT('',(-1.,1.,-2.));
#369=CARTESIAN_POINT('',(1.,-1.,-2.));
#370=CARTESIAN_POINT('',(1.,1.,-2.));
#371=B_SPLINE_SURFACE_WITH_KNOTS('',1,1,((#367,#368),(#369,#370)),.UNSPECIFIED.,.F.,.F.,.U.,(2,2),(2,2),(-0.001,0.001),(-0.001,0.001),.UNSPECIFIED.);
#372=ORIENTED_EDGE('',*,*,#350,.T.);
#373=ORIENTED_EDGE('',*,*,#362,.T.);
#374=EDGE_LOOP('',(#372,#373));
#375=FACE_BOUND('',#374,.T.);
#376=ADVANCED_FACE('',(#375),#371,.T.);
#377=CARTESIAN_POINT('',(0.737014411,-14.981882717,-4.898979486));
#378=CARTESIAN_POINT('',(30.700779846,-13.507853896,-4.898979486));
#379=CARTESIAN_POINT('',(29.226751024,16.455911539,-4.898979486));
#380=CARTESIAN_POINT('',(-0.737014411,14.981882717,-4.898979486));
#381=CARTESIAN_POINT('',(-30.700779846,13.507853896,-4.898979486));
#382=CARTESIAN_POINT('',(-29.226751024,-16.455911539,-4.898979486));
#383=CARTESIAN_POINT('',(0.737014411,-14.981882717,-4.898979486));
#384=CARTESIAN_POINT('',(0.737014411,-11.779122865,-1.630176399));
#385=CARTESIAN_POINT('',(24.295260141,-10.305094044,-1.630176399));
#386=CARTESIAN_POINT('',(22.82123132,13.253151687,-1.630176399));
#387=CARTESIAN_POINT('',(-0.737014411,11.779122865,-1.630176399));
#388=CARTESIAN_POINT('',(-24.295260141,10.305094044,-1.630176399));
#389=CARTESIAN_POINT('',(-22.82123132,-13.253151687,-1.630176399));
#390=CARTESIAN_POINT('',(0.737014411,-11.779122865,-1.630176399));
#391=CARTESIAN_POINT('',(0.737014411,-12.567888271,2.420678867));
#392=CARTESIAN_POINT('',(25.872790953,-11.09385945,2.420678867));
#393=CARTESIAN_POINT('',(24.398762132,14.041917093,2.420678867));
#394=CARTESIAN_POINT('',(-0.737014411,12.567888271,2.420678867));
#395=CARTESIAN_POINT('',(-25.872790953,11.09385945,2.420678867));
#396=CARTESIAN_POINT('',(-24.398762132,-14.041917093,2.420678867));
#397=CARTESIAN_POINT('',(0.737014411,-12.567888271,2.420678867));
#398=CARTESIAN_POINT('',(0.737014411,-14.967464129,4.884220125));
#399=CARTESIAN_POINT('',(30.67194267,-13.493435308,4.884220125));
#400=CARTESIAN_POINT('',(29.197913848,16.441492951,4.884220125));
#401=CARTESIAN_POINT('',(-0.737014411,14.967464129,4.884220125));
#402=CARTESIAN_POINT('',(-30.67194267,13.493435308,4.884220125));
#403=CARTESIAN_POINT('',(-29.197913848,-16.441492951,4.884220125));
#404=CARTESIAN_POINT('',(0.737014411,-14.967464129,4.884220125));
#405=(BOUNDED_SURFACE()
B_SPLINE_SURFACE(3,3,((#377,#378,#379,#380,#381,#382,#383),(#384,#385,#386,#387,#388,#389,#390),(#391,#392,#393,#394,#395,#396,#397),(#398,#399,#400,#401,#402,#403,#404)),.UNSPECIFIED.,.F.,.T.,.U.)
B_SPLINE_SURFACE_WITH_KNOTS((4,4),(4,3,4),(0.752919783,1.),(0.,0.5,1.),.UNSPECIFIED.)
GEOMETRIC_REPRESENTATION_ITEM()
RATIONAL_B_SPLINE_SURFACE(((0.500068201,0.1666894,0.1666894,0.500068201,0.1666894,0.1666894,0.500068201),(0.503915777,0.167971926,0.167971926,0.503915777,0.167971926,0.167971926,0.503915777),(0.67055971,0.223519903,0.223519903,0.67055971,0.223519903,0.223519903,0.67055971),(1.,0.333333333,0.333333333,1.,0.333333333,0.333333333,1.)))
REPRESENTATION_ITEM('')
SURFACE()
);
#406=ORIENTED_EDGE('',*,*,#209,.T.);
#407=CARTESIAN_POINT('',(0.737014411,-14.981882717,-4.898979486));
#408=CARTESIAN_POINT('',(0.737014411,-10.181882717,0.));
#409=CARTESIAN_POINT('',(0.737014411,-14.981882717,4.898979486));
#410=(BOUNDED_CURVE()
B_SPLINE_CURVE(2,(#407,#408,#409),.UNSPECIFIED.,.F.,.F.)
B_SPLINE_CURVE_WITH_KNOTS((3,3),(4.735746181,6.286132927),.UNSPECIFIED.)
CURVE()
GEOMETRIC_REPRESENTATION_ITEM()
RATIONAL_B_SPLINE_CURVE((1.,0.714285714,1.))
REPRESENTATION_ITEM(''));
#411=EDGE_CURVE('',#282,#200,#410,.T.);
#412=ORIENTED_EDGE('',*,*,#411,.F.);
#413=ORIENTED_EDGE('',*,*,#293,.F.);
#414=ORIENTED_EDGE('',*,*,#305,.F.);
#415=ORIENTED_EDGE('',*,*,#411,.T.);
#416=EDGE_LOOP('',(#406,#412,#413,#414,#415));
#417=FACE_BOUND('',#416,.T.);
#418=ADVANCED_FACE('',(#417),#405,.F.);
#419=CLOSED_SHELL('',(#129,#169,#222,#258,#312,#366,#376,#418));
#420=MANIFOLD_SOLID_BREP('Extruded.001',#419);
#49=STYLED_ITEM('',(),#420);
#421=CARTESIAN_POINT('',(14.981882717,0.737014411,0.));
#422=CARTESIAN_POINT('',(14.724616918,5.966662544,0.));
#423=CARTESIAN_POINT('',(12.413671457,11.095409787,0.));
#424=CARTESIAN_POINT('',(8.094336879,15.200868455,0.));
#425=CARTESIAN_POINT('',(2.29482037,17.387391618,0.));
#426=CARTESIAN_POINT('',(-3.99031086,17.078202688,0.));
#427=CARTESIAN_POINT('',(-9.547218205,14.33301489,0.));
#428=CARTESIAN_POINT('',(-13.442747143,9.823436599,0.));
#429=CARTESIAN_POINT('',(-15.239148517,4.492633723,0.));
#430=CARTESIAN_POINT('',(-14.981882717,-0.737014411,0.));
#431=CARTESIAN_POINT('',(-14.724616918,-5.966662544,0.));
#432=CARTESIAN_POINT('',(-12.413671457,-11.095409787,0.));
#433=CARTESIAN_POINT('',(-8.094336879,-15.200868455,0.));
#434=CARTESIAN_POINT('',(-2.29482037,-17.387391618,0.));
#435=CARTESIAN_POINT('',(3.99031086,-17.078202688,0.));
#436=CARTESIAN_POINT('',(9.547218205,-14.33301489,0.));
#437=CARTESIAN_POINT('',(13.442747143,-9.823436599,0.));
#438=CARTESIAN_POINT('',(15.239148517,-4.492633723,0.));
#439=CARTESIAN_POINT('',(14.981882717,0.737014411,0.));
#440=B_SPLINE_CURVE_WITH_KNOTS('Circle.001',9,(#421,#422,#423,#424,#425,#426,#427,#428,#429,#430,#431,#432,#433,#434,#435,#436,#437,#438,#439),.UNSPECIFIED.,.T.,.F.,(10,9,10),(0.,3.141592654,6.283185307),.UNSPECIFIED.);
#441=GEOMETRIC_CURVE_SET('',(#45,#48,#440));
#16=SHAPE_REPRESENTATION('root',(#15),#10);
#17=ADVANCED_BREP_SHAPE_REPRESENTATION('root',(#420),#10);
#449=SHAPE_REPRESENTATION_RELATIONSHIP('','',#16,#17);
#18=GEOMETRICALLY_BOUNDED_WIREFRAME_SHAPE_REPRESENTATION('root',(#441),#10);
#457=SHAPE_REPRESENTATION_RELATIONSHIP('','',#16,#18);
#458=APPLICATION_CONTEXT('configuration controlled 3D design of mechanical parts and assemblies');
#459=APPLICATION_PROTOCOL_DEFINITION('international standard','configuration_control_3d_design_ed2_mim',2004,#458);
#460=PRODUCT_CONTEXT('',#458,'mechanical');
#461=PRODUCT_DEFINITION_CONTEXT('part definition',#458,'design');
#24=PRODUCT('root','root','',(#460));
#462=PRODUCT_RELATED_PRODUCT_CATEGORY('part','',(#24));
#463=PRODUCT_DEFINITION_FORMATION_WITH_SPECIFIED_SOURCE('','',#24,.NOT_KNOWN.);
#25=PRODUCT_DEFINITION('design','',#463,#461);
#23=PRODUCT_DEFINITION_SHAPE('','',#25);
#464=SHAPE_DEFINITION_REPRESENTATION(#23,#16);
#11=DRAUGHTING_MODEL('',(),#10);
#1=MECHANICAL_DESIGN_GEOMETRIC_PRESENTATION_REPRESENTATION('',(#49),#10);
ENDSEC;
END-ISO-10303-21;
